<svg xmlns="http://www.w3.org/2000/svg" width="1035" height="535" viewBox="0 0 1035 535">
<rect x="0" y="0" width="1035" height="535" fill="#ffffff" stroke="none" stroke-width="0"/>
<rect x="25" y="10" width="1000" height="500" fill="#000000" stroke="none" stroke-width="0"/>
<polygon points="25,510 25,241.26314814814813 27.747252747252748,241.09905671296295 30.494505494505496,240.9216319444444 33.24175824175824,240.73097222222222 35.98901098901099,240.52718171296294 38.73626373626374,240.31037037037038 41.48351648351648,240.08064814814816 44.23076923076923,239.8381365740741 46.97802197802198,239.58296875 49.72527472527472,239.31525462962966 52.472527472527474,239.03513310185187 55.21978021978022,238.74274305555554 57.96703296703297,238.4382002314815 60.714285714285715,238.12166666666667 63.46153846153847,237.79325810185185 66.20879120879121,237.45313657407408 68.95604395604396,237.10143518518515 71.7032967032967,236.7382986111111 74.45054945054945,236.36387731481483 77.19780219780219,235.97831597222222 79.94505494505495,235.5817766203704 82.6923076923077,235.17440393518518 85.43956043956044,234.75635995370368 88.18681318681318,234.3277951388889 90.93406593406594,233.88887731481483 93.68131868131869,233.43975694444447 96.42857142857143,232.98060763888887 99.17582417582418,232.51158564814816 101.92307692307693,232.03286458333332 104.67032967032966,231.54458333333332 107.41758241758242,231.04692708333334 110.16483516483517,230.5400462962963 112.91208791208791,230.02409722222222 115.65934065934066,229.49923611111112 118.4065934065934,228.9656134259259 121.15384615384616,228.42337962962966 123.90109890109889,227.87267939814814 126.64835164835165,227.31364583333334 129.39560439560438,226.74641782407406 132.14285714285714,226.17112268518517 134.8901098901099,225.58789351851854 137.63736263736263,224.99684027777778 140.3846153846154,224.39809027777778 143.13186813186815,223.79175925925924 145.87912087912088,223.1779398148148 148.62637362637363,222.55676504629628 151.37362637362637,221.92832754629632 154.12087912087912,221.29273148148147 156.86813186813188,220.65007523148148 159.6153846153846,220.00048611111112 162.36263736263737,219.3440335648148 165.1098901098901,218.6808449074074 167.85714285714286,218.01100694444446 170.60439560439562,217.33463541666669 173.35164835164835,216.65182291666667 176.09890109890108,215.96267939814817 178.84615384615387,215.2673090277778 181.5934065934066,214.56581018518517 184.34065934065933,213.858287037037 187.0879120879121,213.14483796296295 189.83516483516485,212.42555555555558 192.58241758241758,211.70054976851853 195.32967032967034,210.96990162037036 198.07692307692307,210.23370949074075 200.82417582417582,209.49206018518518 203.57142857142858,208.74503472222221 206.3186813186813,207.99270833333333 209.06593406593407,207.2351736111111 211.8131868131868,206.47248842592592 214.56043956043956,205.70473379629627 217.30769230769232,204.93197337962965 220.05494505494505,204.15427662037038 222.80219780219778,203.37170717592593 225.54945054945057,202.58434027777776 228.2967032967033,201.79222800925928 231.04395604395603,200.9954513888889 233.7912087912088,200.19407407407408 236.53846153846155,199.38817708333332 239.28571428571428,198.57781828703702 242.03296703296704,197.76310763888887 244.78021978021977,196.9441087962963 247.52747252747253,196.12092013888886 250.27472527472528,195.29364004629628 253.02197802197801,194.46237268518516 255.76923076923077,193.6272164351852 258.5164835164835,192.78829861111112 261.2637362637363,191.9457233796296 264.010989010989,191.09961805555557 266.75824175824175,190.25011574074074 269.50549450549454,189.397349537037 272.25274725274727,188.54144097222223 275,187.68253472222224 277.74725274725273,186.8207696759259 280.49450549450546,185.95629629629627 283.24175824175825,185.0892476851852 285.989010989011,184.2197858796296 288.73626373626377,183.34804976851854 291.4835164835165,182.47419560185185 294.2307692307692,181.59839120370367 296.97802197802196,180.720787037037 299.72527472527474,179.8415509259259 302.4725274725275,178.96086226851853 305.2197802197802,178.0788946759259 307.96703296703294,177.19585069444443 310.7142857142857,176.3119039351852 313.46153846153845,175.4272800925926 316.20879120879124,174.54219328703707 318.95604395604397,173.65686921296296 321.7032967032967,172.77155092592594 324.45054945054943,171.8865046296296 327.19780219780216,171.00199074074072 329.94505494505495,170.11829282407408 332.69230769230774,169.2357060185185 335.43956043956047,168.35454861111108 338.1868131868132,167.47514467592595 340.9340659340659,166.59782986111108 343.68131868131866,165.72296296296295 346.42857142857144,164.85089699074072 349.1758241758242,163.98201967592595 351.9230769230769,163.11671296296296 354.6703296703297,162.25537615740743 357.4175824175824,161.39841435185187 360.16483516483515,160.546244212963 362.91208791208794,159.69929976851853 365.65934065934067,158.85800925925923 368.4065934065934,158.0228298611111 371.15384615384613,157.1942013888889 373.90109890109886,156.3725925925926 376.64835164835165,155.55848379629631 379.39560439560444,154.75234953703702 382.14285714285717,153.95469328703703 384.8901098901099,153.16600694444443 387.6373626373626,152.38679976851853 390.38461538461536,151.61761574074072 393.13186813186815,150.85897569444444 395.8791208791209,150.11144097222223 398.6263736263736,149.37556712962962 401.3736263736264,148.65190972222226 404.1208791208791,147.94106481481484 406.86813186813185,147.24361689814813 409.61538461538464,146.56015625 412.3626373626374,145.8912962962963 415.1098901098901,145.2376273148148 417.85714285714283,144.59976851851852 420.60439560439556,143.9783333333333 423.35164835164835,143.3739351851852 426.09890109890114,142.78716435185183 428.84615384615387,142.2186400462963 431.5934065934066,141.6689583333333 434.34065934065933,141.13868634259256 437.08791208791206,140.62840856481483 439.83516483516485,140.13869212962965 442.5824175824176,139.6700636574074 445.3296703296703,139.2230613425926 448.0769230769231,138.79820601851856 450.8241758241758,138.3959722222222 453.57142857142856,138.01683449074076 456.31868131868134,137.66123842592592 459.0659340659341,137.32961805555556 461.8131868131868,137.02236111111108 464.56043956043953,136.73984375000003 467.30769230769226,136.4824247685185 470.05494505494505,136.25042245370372 472.80219780219784,136.04412037037036 475.54945054945057,135.8637962962963 478.2967032967033,135.7096701388889 481.04395604395603,135.58194444444445 483.79120879120876,135.48078703703703 486.53846153846155,135.40633680555555 489.2857142857143,135.35869212962962 492.03296703296706,135.33790509259256 494.7802197802198,135.3439988425926 497.5274725274725,135.3769733796296 500.27472527472526,135.4367650462963 503.02197802197804,135.52328703703702 505.7692307692308,135.6364236111111 508.5164835164835,135.77599537037037 511.26373626373623,135.94180555555556 514.0109890109891,136.13362268518517 516.7582417582418,136.35116319444444 519.5054945054945,136.59413773148148 522.2527472527472,136.8622048611111 525,137.15501157407405 527.7472527472528,137.47214699074073 530.4945054945055,137.81322337962962 533.2417582417581,138.17777777777778 535.9890109890109,138.56537037037035 538.7362637362637,138.9755150462963 541.4835164835165,139.40772569444442 544.2307692307693,139.86148726851854 546.978021978022,140.3362789351852 549.7252747252747,140.831556712963 552.4725274725275,141.34678819444446 555.2197802197802,141.88141782407408 557.967032967033,142.43486689814816 560.7142857142857,143.00657986111108 563.4615384615385,143.59596643518518 566.2087912087911,144.2024479166667 568.9560439560439,144.8254224537037 571.7032967032967,145.46431712962965 574.4505494505495,146.11851273148145 577.1978021978023,146.78743055555555 579.945054945055,147.47045717592593 582.6923076923077,148.1670138888889 585.4395604395604,148.87649305555556 588.1868131868132,149.5983101851852 590.9340659340659,150.33186921296297 593.6813186813187,151.0766145833333 596.4285714285714,151.83196180555558 599.1758241758241,152.59735532407407 601.9230769230769,153.37225694444444 604.6703296703297,154.15611689814816 607.4175824175825,154.94843171296296 610.1648351648352,155.74868634259258 612.9120879120879,156.55638310185188 615.6593406593406,157.37105324074074 618.4065934065934,158.1922337962963 621.1538461538462,159.01947916666668 623.9010989010989,159.8523553240741 626.6483516483516,160.69044560185185 629.3956043956043,161.53334490740738 632.1428571428571,162.3806712962963 634.8901098901099,163.23203125 637.6373626373627,164.0870717592593 640.3846153846155,164.94542245370369 643.1318681318681,165.80675347222223 645.8791208791209,166.67071180555553 648.6263736263736,167.53697916666664 651.3736263736264,168.40522569444443 654.1208791208791,169.2751446759259 656.8681318681319,170.14643518518517 659.6153846153845,171.01879629629627 662.3626373626373,171.89194444444445 665.1098901098901,172.76559027777776 667.8571428571429,173.63947337962964 670.6043956043957,174.51332175925927 673.3516483516484,175.38689236111108 676.0989010989011,176.25994212962962 678.8461538461538,177.13223379629628 681.5934065934066,178.0035590277778 684.3406593406594,178.87369791666669 687.0879120879121,179.74245370370372 689.8351648351648,180.6096527777778 692.5824175824175,181.47509837962966 695.3296703296703,182.3386400462963 698.0769230769231,183.20011574074073 700.8241758241759,184.05939236111112 703.5714285714286,184.91631944444447 706.3186813186813,185.77076967592592 709.0659340659341,186.62262731481482 711.8131868131868,187.4717650462963 714.5604395604396,188.3180787037037 717.3076923076923,189.16146412037037 720.054945054945,190.00180555555556 722.8021978021977,190.83901041666667 725.5494505494505,191.67297453703702 728.2967032967033,192.50358796296297 731.0439560439561,193.33076388888892 733.7912087912089,194.15440393518517 736.5384615384615,194.97439236111114 739.2857142857143,195.79064236111108 742.032967032967,196.60305555555556 744.7802197802198,197.41152777777776 747.5274725274725,198.21596643518518 750.2747252747253,199.0162789351852 753.021978021978,199.8123611111111 755.7692307692307,200.6041203703704 758.5164835164835,201.3914814814815 761.2637362637363,202.1743402777778 764.0109890109891,202.95262731481483 766.7582417582418,203.72626157407407 769.5054945054945,204.49515625000004 772.2527472527472,205.25925347222224 775,206.01847222222224 777.7472527472528,206.7727488425926 780.4945054945055,207.52201967592592 783.2417582417582,208.26622106481483 785.9890109890109,209.00529513888887 788.7362637362637,209.7391724537037 791.4835164835165,210.4677951388889 794.2307692307693,211.19109953703702 796.978021978022,211.9090277777778 799.7252747252747,212.62151041666664 802.4725274725275,213.32847222222222 805.2197802197802,214.02984375 807.967032967033,214.72554398148145 810.7142857142857,215.4154976851852 813.4615384615385,216.09961226851854 816.2087912087911,216.7778009259259 818.9560439560439,217.44995949074075 821.7032967032967,218.11600694444442 824.4505494505495,218.77582175925923 827.1978021978023,219.42931134259257 829.945054945055,220.07636574074073 832.6923076923077,220.71686342592594 835.4395604395604,221.3507002314815 838.1868131868132,221.97776041666665 840.9340659340659,222.5979224537037 843.6813186813187,223.21107638888887 846.4285714285714,223.81710069444443 849.1758241758241,224.4158738425926 851.9230769230769,225.00728587962965 854.6703296703297,225.59120949074074 857.4175824175825,226.16753472222223 860.1648351648352,226.73613425925925 862.9120879120879,227.29688078703703 865.6593406593406,227.84967013888888 868.4065934065934,228.39435763888886 871.1538461538462,228.93083333333334 873.9010989010989,229.45895833333336 876.6483516483516,229.97859375000002 879.3956043956043,230.48961805555555 882.1428571428571,230.991875 884.8901098901099,231.48524305555557 887.6373626373627,231.96955439814815 890.3846153846155,232.4446701388889 893.1318681318681,232.9104224537037 895.8791208791209,233.36666666666665 898.6263736263736,233.81324074074072 901.3736263736264,234.2499826388889 904.1208791208791,234.676712962963 906.8681318681319,235.093275462963 909.6153846153845,235.4995023148148 912.3626373626373,235.8952314814815 915.1098901098901,236.28028356481482 917.8571428571429,236.65450231481483 920.6043956043957,237.01772569444444 923.3516483516484,237.36978587962963 926.0989010989011,237.7105324074074 928.8461538461538,238.03979166666664 931.5934065934066,238.3574363425926 934.3406593406594,238.66330439814814 937.0879120879121,238.9572511574074 939.8351648351648,239.23913773148146 942.5824175824175,239.50882523148147 945.3296703296703,239.76618055555554 948.0769230769231,240.0110821759259 950.8241758241759,240.24339120370368 953.5714285714286,240.4629976851852 956.3186813186813,240.66977430555556 959.0659340659341,240.86362268518516 961.8131868131868,241.04441550925924 964.5604395604396,241.2120601851852 967.3076923076923,241.36646412037038 970.054945054945,241.50751736111113 972.8021978021977,241.63514467592594 975.5494505494505,241.74925925925928 978.2967032967033,241.8497916666667 981.0439560439561,241.93666666666667 983.7912087912089,242.0098321759259 986.5384615384615,242.06923032407406 989.2857142857143,242.11482060185185 992.032967032967,242.14656828703707 994.7802197802198,242.16445023148145 997.5274725274725,242.1684490740741 1000.2747252747253,242.15855324074076 1003.021978021978,242.13476851851848 1005.7692307692307,242.09710648148146 1008.5164835164835,242.04558449074077 1011.2637362637363,241.9802314814815 1014.0109890109891,241.90108217592592 1016.7582417582418,241.80818865740744 1019.5054945054945,241.70159722222223 1022.2527472527472,241.58135995370372 1025,241.44755208333333 1025,510" fill="#002040" stroke="none" stroke-width="0"/>
<polygon points="25,510 25,262.4926331018519 27.747252747252748,262.31508680555555 30.494505494505496,262.12322916666665 33.24175824175824,261.9171759259259 35.98901098901099,261.6970775462963 38.73626373626374,261.4630729166667 41.48351648351648,261.2153240740741 44.23076923076923,260.9539814814815 46.97802197802198,260.67921875 49.72527472527472,260.39119791666667 52.472527472527474,260.0900983796296 55.21978021978022,259.77609375 57.96703296703297,259.44938078703706 60.714285714285715,259.1101215277778 63.46153846153847,258.75852430555557 66.20879120879121,258.3947685185185 68.95604395604396,258.0190509259259 71.7032967032967,257.631568287037 74.45054945054945,257.23251736111115 77.19780219780219,256.8220949074074 79.94505494505495,256.4005150462963 82.6923076923077,255.96797453703707 85.43956043956044,255.5246875 88.18681318681318,255.07085648148146 90.93406593406594,254.6067013888889 93.68131868131869,254.13243055555554 96.42857142857143,253.64825231481478 99.17582417582418,253.15439814814815 101.92307692307693,252.6510648148148 104.67032967032966,252.13846643518517 107.41758241758242,251.6168287037037 110.16483516483517,251.0863425925926 112.91208791208791,250.54722222222225 115.65934065934066,249.9996701388889 118.4065934065934,249.4438773148148 121.15384615384616,248.88004629629629 123.90109890109889,248.30836226851855 126.64835164835165,247.72900462962966 129.39560439560438,247.1421585648148 132.14285714285714,246.5479861111111 134.8901098901099,245.9466666666667 137.63736263736263,245.33835069444442 140.3846153846154,244.72320023148146 143.13186813186815,244.10135995370368 145.87912087912088,243.4729861111111 148.62637362637363,242.83822337962962 151.37362637362637,242.19720486111112 154.12087912087912,241.55008101851854 156.86813186813188,240.8969849537037 159.6153846153846,240.23804976851852 162.36263736263737,239.57341435185185 165.1098901098901,238.90321759259257 167.85714285714286,238.22758101851852 170.60439560439562,237.5466435185185 173.35164835164835,236.86053819444447 176.09890109890108,236.1694039351852 178.84615384615387,235.4733564814815 181.5934065934066,234.77252893518516 184.34065934065933,234.06705439814817 187.0879120879121,233.35705439814814 189.83516483516485,232.64265625000002 192.58241758241758,231.92396412037036 195.32967032967034,231.20111689814814 198.07692307692307,230.47421296296298 200.82417582417582,229.74336226851852 203.57142857142858,229.00866319444447 206.3186813186813,228.27023148148152 209.06593406593407,227.52814814814815 211.8131868131868,226.7825173611111 214.56043956043956,226.03342013888889 217.30769230769232,225.28094328703708 220.05494505494505,224.52517939814814 222.80219780219778,223.76619791666667 225.54945054945057,223.00409722222224 228.2967032967033,222.23894675925925 231.04395604395603,221.47083333333333 233.7912087912088,220.69984375 236.53846153846155,219.92607060185188 239.28571428571428,219.14958912037034 242.03296703296704,218.37050925925925 244.78021978021977,217.58892361111108 247.52747252747253,216.80493055555556 250.27472527472528,216.01863425925927 253.02197802197801,215.23016203703705 255.76923076923077,214.43961805555554 258.5164835164835,213.6471238425926 261.2637362637363,212.85280671296297 264.010989010989,212.05679398148146 266.75824175824175,211.25921875000003 269.50549450549454,210.46020833333333 272.25274725274727,209.6599131944444 275,208.85846064814817 277.74725274725273,208.0559953703704 280.49450549450546,207.25266782407408 283.24175824175825,206.44861111111112 285.989010989011,205.64397569444446 288.73626373626377,204.838912037037 291.4835164835165,204.03355324074073 294.2307692307692,203.2280787037037 296.97802197802196,202.42262152777778 299.72527472527474,201.61734953703703 302.4725274725275,200.81243055555558 305.2197802197802,200.00802083333335 307.96703296703294,199.20430555555555 310.7142857142857,198.40146412037035 313.46153846153845,197.5996875 316.20879120879124,196.7991782407407 318.95604395604397,196.00013310185187 321.7032967032967,195.20278356481478 324.45054945054943,194.40734953703702 327.19780219780216,193.61408564814812 329.94505494505495,192.82322337962964 332.69230769230774,192.03502893518518 335.43956043956047,191.24978587962966 338.1868131868132,190.46777199074077 340.9340659340659,189.68927083333335 343.68131868131866,188.91458912037038 346.42857142857144,188.14403356481483 349.1758241758242,187.37792824074072 351.9230769230769,186.61660300925925 354.6703296703297,185.8603819444444 357.4175824175824,185.1095949074074 360.16483516483515,184.3646064814815 362.91208791208794,183.6257581018519 365.65934065934067,182.89339699074074 368.4065934065934,182.16789351851853 371.15384615384613,181.4496064814815 373.90109890109886,180.73891203703707 376.64835164835165,180.03618055555557 379.39560439560444,179.34179398148146 382.14285714285717,178.65613425925923 384.8901098901099,177.97960069444446 387.6373626373626,177.31258101851853 390.38461538461536,176.6554861111111 393.13186813186815,176.0087326388889 395.8791208791209,175.37271990740743 398.6263736263736,174.74789351851854 401.3736263736264,174.13466435185185 404.1208791208791,173.53347800925928 406.86813186813185,172.94476273148152 409.61538461538464,172.36896412037038 412.3626373626374,171.80652199074075 415.1098901098901,171.2578935185185 417.85714285714283,170.7235127314815 420.60439560439556,170.20382523148146 423.35164835164835,169.69927083333334 426.09890109890114,169.21028935185183 428.84615384615387,168.73730324074074 431.5934065934066,168.28074074074073 434.34065934065933,167.84100694444442 437.08791208791206,167.41850694444443 439.83516483516485,167.01362847222222 442.5824175824176,166.62675925925927 445.3296703296703,166.25824652777774 448.0769230769231,165.9084490740741 450.8241758241758,165.57770254629628 453.57142857142856,165.26631944444446 456.31868131868134,164.9746064814815 459.0659340659341,164.7028414351852 461.8131868131868,164.45130208333336 464.56043956043953,164.22023726851853 467.30769230769226,164.00986689814818 470.05494505494505,163.8204166666667 472.80219780219784,163.65207175925926 475.54945054945057,163.5050173611111 478.2967032967033,163.37939814814817 481.04395604395603,163.27534722222225 483.79120879120876,163.19297453703706 486.53846153846155,163.13236689814812 489.2857142857143,163.09358796296297 492.03296703296706,163.0766898148148 494.7802197802198,163.08166087962965 497.5274725274725,163.10851851851854 500.27472527472526,163.1572164351852 503.02197802197804,163.22769675925923 505.7692307692308,163.31986689814815 508.5164835164835,163.43362268518518 511.26373626373623,163.56883101851852 514.0109890109891,163.7253298611111 516.7582417582418,163.90292824074075 519.5054945054945,164.10142939814813 522.2527472527472,164.32060763888887 525,164.56021990740743 527.7472527472528,164.8199884259259 530.4945054945055,165.09964120370373 533.2417582417581,165.39888310185185 535.9890109890109,165.71739004629632 538.7362637362637,166.05484953703703 541.4835164835165,166.41090856481483 544.2307692307693,166.7852314814815 546.978021978022,167.17744212962964 549.7252747252747,167.58718171296297 552.4725274725275,168.0140625 555.2197802197802,168.45770833333333 557.967032967033,168.91770254629628 560.7142857142857,169.3936574074074 563.4615384615385,169.88515046296297 566.2087912087911,170.39177083333334 568.9560439560439,170.91310185185188 571.7032967032967,171.44869791666667 574.4505494505495,171.9981423611111 577.1978021978023,172.5609780092593 579.945054945055,173.13678819444445 582.6923076923077,173.7251215277778 585.4395604395604,174.3255324074074 588.1868131868132,174.93758101851853 590.9340659340659,175.56082175925923 593.6813186813187,176.19482638888888 596.4285714285714,176.83914930555554 599.1758241758241,177.4933738425926 601.9230769230769,178.15707175925925 604.6703296703297,178.82982638888888 607.4175824175825,179.51123263888888 610.1648351648352,180.20089699074074 612.9120879120879,180.8984201388889 615.6593406593406,181.60344328703704 618.4065934065934,182.31557870370372 621.1538461538462,183.03447916666664 623.9010989010989,183.75978587962965 626.6483516483516,184.4911747685185 629.3956043956043,185.2283101851852 632.1428571428571,185.97087384259257 634.8901098901099,186.71854745370368 637.6373626373627,187.47103009259257 640.3846153846155,188.22802662037034 643.1318681318681,188.98924189814812 645.8791208791209,189.75439236111112 648.6263736263736,190.5232002314815 651.3736263736264,191.29538773148147 654.1208791208791,192.07068865740737 656.8681318681319,192.84883680555558 659.6153846153845,193.62957754629628 662.3626373626373,194.41265046296294 665.1098901098901,195.1978125 667.8571428571429,195.98482060185185 670.6043956043957,196.77344328703705 673.3516483516484,197.5634548611111 676.0989010989011,198.3546354166667 678.8461538461538,199.1467708333333 681.5934065934066,199.9396585648148 684.3406593406594,200.7331018518518 687.0879120879121,201.52693287037036 689.8351648351648,202.32095486111112 692.5824175824175,203.11501157407406 695.3296703296703,203.9089409722222 698.0769230769231,204.70260416666667 700.8241758241759,205.4958449074074 703.5714285714286,206.28853587962962 706.3186813186813,207.08055555555555 709.0659340659341,207.87177662037035 711.8131868131868,208.66207175925925 714.5604395604396,209.45134259259262 717.3076923076923,210.2394733796296 720.054945054945,211.02634837962964 722.8021978021977,211.811875 725.5494505494505,212.5959375 728.2967032967033,213.37843171296294 731.0439560439561,214.15925347222225 733.7912087912089,214.93829861111112 736.5384615384615,215.7154513888889 739.2857142857143,216.49061921296297 742.032967032967,217.26368634259256 744.7802197802198,218.0345486111111 747.5274725274725,218.80309606481484 750.2747252747253,219.56922453703703 753.021978021978,220.33282986111112 755.7692307692307,221.09380787037034 758.5164835164835,221.85205439814814 761.2637362637363,222.6074710648148 764.0109890109891,223.35996527777777 766.7582417582418,224.10944444444448 769.5054945054945,224.85580439814817 772.2527472527472,225.5989699074074 775,226.33885416666664 777.7472527472528,227.0753645833333 780.4945054945055,227.80842592592592 783.2417582417582,228.53795138888887 785.9890109890109,229.26387152777775 788.7362637362637,229.986099537037 791.4835164835165,230.70455439814813 794.2307692307693,231.41915509259258 796.978021978022,232.1298148148148 799.7252747252747,232.83644675925925 802.4725274725275,233.5389583333333 805.2197802197802,234.23725694444445 807.967032967033,234.93124421296295 810.7142857142857,235.62080439814812 813.4615384615385,236.3058333333333 816.2087912087911,236.9862210648148 818.9560439560439,237.6618402777778 821.7032967032967,238.3325636574074 824.4505494505495,238.9982696759259 827.1978021978023,239.65882523148144 829.945054945055,240.31408564814814 832.6923076923077,240.96390625 835.4395604395604,241.6081539351852 838.1868131868132,242.24667824074075 840.9340659340659,242.8793229166667 843.6813186813187,243.50594328703704 846.4285714285714,244.12638310185184 849.1758241758241,244.74049768518518 851.9230769230769,245.34813078703704 854.6703296703297,245.94912037037037 857.4175824175825,246.54331597222222 860.1648351648352,247.13055555555556 862.9120879120879,247.7106770833333 865.6593406593406,248.28351851851852 868.4065934065934,248.84891782407408 871.1538461538462,249.40670138888888 873.9010989010989,249.95670138888892 876.6483516483516,250.49873842592595 879.3956043956043,251.03263310185184 882.1428571428571,251.5582002314815 884.8901098901099,252.07526041666665 887.6373626373627,252.58360532407409 890.3846153846155,253.08303819444444 893.1318681318681,253.5733738425926 895.8791208791209,254.05438078703708 898.6263736263736,254.52586805555555 901.3736263736264,254.98761574074075 904.1208791208791,255.4394039351852 906.8681318681319,255.88101851851852 909.6153846153845,256.3122453703704 912.3626373626373,256.7328645833333 915.1098901098901,257.14265624999996 917.8571428571429,257.541400462963 920.6043956043957,257.9288888888889 923.3516483516484,258.3049074074074 926.0989010989011,258.66924189814813 928.8461538461538,259.0217013888889 931.5934065934066,259.36207175925927 934.3406593406594,259.69015625000003 937.0879120879121,260.0057638888889 939.8351648351648,260.30870949074074 942.5824175824175,260.59880787037036 945.3296703296703,260.8758854166667 948.0769230769231,261.1397685185185 950.8241758241759,261.39028935185183 953.5714285714286,261.6272800925926 956.3186813186813,261.85059027777777 959.0659340659341,262.0600752314815 961.8131868131868,262.25557291666667 964.5604395604396,262.4369675925926 967.3076923076923,262.60410879629626 970.054945054945,262.7568923611111 972.8021978021977,262.8951909722223 975.5494505494505,263.01889467592594 978.2967032967033,263.1279166666667 981.0439560439561,263.22216435185186 983.7912087912089,263.30155671296296 986.5384615384615,263.3660300925926 989.2857142857143,263.4155266203704 992.032967032967,263.450005787037 994.7802197802198,263.4694386574074 997.5274725274725,263.47379050925923 1000.2747252747253,263.4630671296296 1003.021978021978,263.4372627314815 1005.7692307692307,263.39640046296296 1008.5164835164835,263.3405034722223 1011.2637362637363,263.26960648148145 1014.0109890109891,263.1837673611111 1016.7582417582418,263.08303240740736 1019.5054945054945,262.9674884259259 1022.2527472527472,262.8371990740741 1025,262.6922685185185 1025,510" fill="#004080" stroke="none" stroke-width="0"/>
<polygon points="25,510 25,284.2511863425926 27.747252747252748,284.0565046296296 30.494505494505496,283.8462268518519 33.24175824175824,283.6205381944444 35.98901098901099,283.37960069444443 38.73626373626374,283.1236168981481 41.48351648351648,282.8527835648148 44.23076923076923,282.5673090277778 46.97802197802198,282.2674016203703 49.72527472527472,281.95328125000003 52.472527472527474,281.6251851851852 55.21978021978022,281.2833333333333 57.96703296703297,280.92796875000005 60.714285714285715,280.5593229166667 63.46153846153847,280.17765046296296 66.20879120879121,279.7831828703704 68.95604395604396,279.3761863425926 71.7032967032967,278.95690393518515 74.45054945054945,278.52560185185183 77.19780219780219,278.08252893518517 79.94505494505495,277.6279513888889 82.6923076923077,277.16214120370375 85.43956043956044,276.6853472222223 88.18681318681318,276.19785300925923 90.93406593406594,275.69991898148146 93.68131868131869,275.1918171296296 96.42857142857143,274.6738252314815 99.17582417582418,274.1462094907408 101.92307692307693,273.6092361111111 104.67032967032966,273.0631770833333 107.41758241758242,272.50828703703706 110.16483516483517,271.944849537037 112.91208791208791,271.37309606481483 115.65934065934066,270.79330439814817 118.4065934065934,270.2057002314815 121.15384615384616,269.61054976851847 123.90109890109889,269.00806134259255 126.64835164835165,268.39848379629626 129.39560439560438,267.78203125 132.14285714285714,267.1589178240741 134.8901098901099,266.52935185185186 137.63736263736263,265.8935416666667 140.3846153846154,265.2516782407407 143.13186813186815,264.60395833333337 145.87912087912088,263.95056134259255 148.62637362637363,263.2916666666667 151.37362637362637,262.62745370370374 154.12087912087912,261.9581018518519 156.86813186813188,261.28376736111113 159.6153846153846,260.6046238425927 162.36263736263737,259.9208506944444 165.1098901098901,259.2325925925926 167.85714285714286,258.5400173611111 170.60439560439562,257.84329282407407 173.35164835164835,257.14256944444446 176.09890109890108,256.4380150462963 178.84615384615387,255.7297685185185 181.5934065934066,255.01799189814815 184.34065934065933,254.30283564814815 187.0879120879121,253.58443865740742 189.83516483516485,252.86295717592594 192.58241758241758,252.13851273148146 195.32967032967034,251.41125000000002 198.07692307692307,250.6812962962963 200.82417582417582,249.94877893518517 203.57142857142858,249.2138136574074 206.3186813186813,248.47651041666668 209.06593406593407,247.73699074074074 211.8131868131868,246.99534722222222 214.56043956043956,246.25168981481482 217.30769230769232,245.50611689814815 220.05494505494505,244.75871527777775 222.80219780219778,244.00958333333332 225.54945054945057,243.25881365740742 228.2967032967033,242.5064988425926 231.04395604395603,241.75271990740742 233.7912087912088,240.99758101851853 236.53846153846155,240.2411689814815 239.28571428571428,239.48357638888888 242.03296703296704,238.72491319444444 244.78021978021977,237.96527777777774 247.52747252747253,237.2047685185185 250.27472527472528,236.4435011574074 253.02197802197801,235.68159143518517 255.76923076923077,234.91914930555558 258.5164835164835,234.15630208333332 261.2637362637363,233.39316550925926 264.010989010989,232.6298611111111 266.75824175824175,231.86653356481483 269.50549450549454,231.10329861111111 272.25274725274727,230.34028935185185 275,229.57764467592594 277.74725274725273,228.81549189814814 280.49450549450546,228.05396990740738 283.24175824175825,227.29320601851853 285.989010989011,226.53333912037039 288.73626373626377,225.77451388888892 291.4835164835165,225.01685185185187 294.2307692307692,224.26049189814816 296.97802197802196,223.50558449074074 299.72527472527474,222.75227430555555 302.4725274725275,222.00069444444446 305.2197802197802,221.25100115740742 307.96703296703294,220.50335069444444 310.7142857142857,219.75789930555555 313.46153846153845,219.0148263888889 316.20879120879124,218.27428819444444 318.95604395604397,217.53648148148147 321.7032967032967,216.80158564814815 324.45054945054943,216.06980902777778 327.19780219780216,215.34135416666666 329.94505494505495,214.6164236111111 332.69230769230774,213.89526620370367 335.43956043956047,213.17808449074076 338.1868131868132,212.4651446759259 340.9340659340659,211.75667824074074 343.68131868131866,211.05294560185183 346.42857142857144,210.35420717592595 349.1758241758242,209.66072337962964 351.9230769230769,208.97277199074077 354.6703296703297,208.290630787037 357.4175824175824,207.6145659722222 360.16483516483515,206.94486689814818 362.91208791208794,206.28182291666667 365.65934065934067,205.62572337962965 368.4065934065934,204.9768576388889 371.15384615384613,204.33552083333333 373.90109890109886,203.70200810185185 376.64835164835165,203.0766145833333 379.39560439560444,202.45965277777776 382.14285714285717,201.85142361111113 384.8901098901099,201.2522453703704 387.6373626373626,200.6624189814815 390.38461538461536,200.0822685185185 393.13186813186815,199.51211805555556 395.8791208791209,198.95229166666667 398.6263736263736,198.4031076388889 401.3736263736264,197.8649189814815 404.1208791208791,197.33804976851854 406.86813186813185,196.82284143518518 409.61538461538464,196.31963541666667 412.3626373626374,195.82877314814817 415.1098901098901,195.3505960648148 417.85714285714283,194.8854456018518 420.60439560439556,194.43365740740742 423.35164835164835,193.99556712962962 426.09890109890114,193.5714988425926 428.84615384615387,193.16178240740737 431.5934065934066,192.76674768518518 434.34065934065933,192.38667824074074 437.08791208791206,192.02189814814818 439.83516483516485,191.6726851851852 442.5824175824176,191.33932291666665 445.3296703296703,191.0220775462963 448.0769230769231,190.72120949074073 450.8241758241758,190.4369675925926 453.57142857142856,190.16957754629632 456.31868131868134,189.9192650462963 459.0659340659341,189.68624421296298 461.8131868131868,189.47069444444446 464.56043956043953,189.27280671296296 467.30769230769226,189.09275462962964 470.05494505494505,188.93068865740742 472.80219780219784,188.78674189814814 475.54945054945057,188.66104166666668 478.2967032967033,188.55370370370372 481.04395604395603,188.4648263888889 483.79120879120876,188.39448495370368 486.53846153846155,188.34274305555553 489.2857142857143,188.30964120370368 492.03296703296706,188.29521990740744 494.7802197802198,188.29947916666666 497.5274725274725,188.3224189814815 500.27472527472526,188.36400462962965 503.02197802197804,188.42420138888886 505.7692307692308,188.5029398148148 508.5164835164835,188.60014467592595 511.26373626373623,188.7157002314815 514.0109890109891,188.84950810185185 516.7582417582418,189.0014236111111 519.5054945054945,189.17129050925928 522.2527472527472,189.35894675925928 525,189.56421296296298 527.7472527472528,189.78689814814814 530.4945054945055,190.02677662037036 533.2417582417581,190.2836400462963 535.9890109890109,190.55725694444448 538.7362637362637,190.8473784722222 541.4835164835165,191.15376157407408 544.2307692307693,191.47614583333333 546.978021978022,191.81425347222225 549.7252747252747,192.16781828703705 552.4725274725275,192.53655092592592 555.2197802197802,192.92016203703704 557.967032967033,193.31835069444446 560.7142857142857,193.73082754629627 563.4615384615385,194.1572685185185 566.2087912087911,194.59736111111113 568.9560439560439,195.05078703703703 571.7032967032967,195.51722222222222 574.4505494505495,195.99632523148145 577.1978021978023,196.48777199074073 579.945054945055,196.9912152777778 582.6923076923077,197.50632523148147 585.4395604395604,198.03274884259258 588.1868131868132,198.57014467592592 590.9340659340659,199.1181712962963 593.6813186813187,199.67648148148146 596.4285714285714,200.24473379629632 599.1758241758241,200.8225925925926 601.9230769230769,201.40972222222226 604.6703296703297,202.00579861111112 607.4175824175825,202.61049189814815 610.1648351648352,203.22348379629628 612.9120879120879,203.84446180555554 615.6593406593406,204.47313657407406 618.4065934065934,205.10920138888886 621.1538461538462,205.75236689814813 623.9010989010989,206.40234953703705 626.6483516483516,207.05888310185188 629.3956043956043,207.7216898148148 632.1428571428571,208.3905150462963 634.8901098901099,209.06510416666669 637.6373626373627,209.7452025462963 640.3846153846155,210.43056134259257 643.1318681318681,211.1209548611111 645.8791208791209,211.81612268518518 648.6263736263736,212.51585069444445 651.3736263736264,213.21989583333334 654.1208791208791,213.92803819444444 656.8681318681319,214.64005208333336 659.6153846153845,215.35571180555556 662.3626373626373,216.07480324074072 665.1098901098901,216.79712384259258 667.8571428571429,217.5224537037037 670.6043956043957,218.25059027777775 673.3516483516484,218.98133680555554 676.0989010989011,219.7145023148148 678.8461538461538,220.44990162037035 681.5934065934066,221.18735532407408 684.3406593406594,221.92668981481484 687.0879120879121,222.66773726851852 689.8351648351648,223.41034722222224 692.5824175824175,224.1543634259259 695.3296703296703,224.8996412037037 698.0769230769231,225.64605902777777 700.8241758241759,226.39347800925924 703.5714285714286,227.14177083333337 706.3186813186813,227.89082175925927 709.0659340659341,228.64052662037037 711.8131868131868,229.39076967592592 714.5604395604396,230.1414351851852 717.3076923076923,230.8924363425926 720.054945054945,231.64365740740743 722.8021978021977,232.395 725.5494505494505,233.14636574074075 728.2967032967033,233.89763888888885 731.0439560439561,234.64873842592593 733.7912087912089,235.3995428240741 736.5384615384615,236.14995370370372 739.2857142857143,236.89985532407408 742.032967032967,237.64916087962962 744.7802197802198,238.39773726851854 747.5274725274725,239.14549189814815 750.2747252747253,239.8923090277778 753.021978021978,240.63807870370374 755.7692307692307,241.38269675925926 758.5164835164835,242.12606481481478 761.2637362637363,242.86805555555557 764.0109890109891,243.60859374999998 766.7582417582418,244.34755208333337 769.5054945054945,245.08484375 772.2527472527472,245.82036458333334 775,246.55402777777778 777.7472527472528,247.2857349537037 780.4945054945055,248.0153877314815 783.2417582417582,248.74289930555554 785.9890109890109,249.46817129629628 788.7362637362637,250.19111689814815 791.4835164835165,250.9116377314815 794.2307692307693,251.62963541666664 796.978021978022,252.34501157407408 799.7252747252747,253.05765624999998 802.4725274725275,253.76747685185185 805.2197802197802,254.47434027777777 807.967032967033,255.17814236111113 810.7142857142857,255.87874999999997 813.4615384615385,256.5760358796296 816.2087912087911,257.26986111111114 818.9560439560439,257.96008680555553 821.7032967032967,258.646556712963 824.4505494505495,259.3291261574075 827.1978021978023,260.00762731481484 829.945054945055,260.6818981481481 832.6923076923077,261.3517650462963 835.4395604395604,262.0170659722222 838.1868131868132,262.67761574074075 840.9340659340659,263.3332291666667 843.6813186813187,263.9837210648148 846.4285714285714,264.6289236111111 849.1758241758241,265.2686342592593 851.9230769230769,265.9026678240741 854.6703296703297,266.5308275462963 857.4175824175825,267.1529224537037 860.1648351648352,267.76875 862.9120879120879,268.3781134259259 865.6593406593406,268.9808043981481 868.4065934065934,269.5766203703704 871.1538461538462,270.1653414351852 873.9010989010989,270.74675925925925 876.6483516483516,271.3206423611111 879.3956043956043,271.8867766203704 882.1428571428571,272.44491898148146 884.8901098901099,272.9948321759259 887.6373626373627,273.53627314814815 890.3846153846155,274.0689988425926 893.1318681318681,274.5927488425926 895.8791208791209,275.10726273148146 898.6263736263736,275.61227430555556 901.3736263736264,276.1075173611111 904.1208791208791,276.5927256944445 906.8681318681319,277.0676099537037 909.6153846153845,277.53191550925925 912.3626373626373,277.9853530092593 915.1098901098901,278.42765046296296 917.8571428571429,278.85853009259256 920.6043956043957,279.2777314814815 923.3516483516484,279.6849710648148 926.0989010989011,280.07998842592593 928.8461538461538,280.4625173611111 931.5934065934066,280.8323032407407 934.3406593406594,281.1890914351852 937.0879120879121,281.5326388888889 939.8351648351648,281.8626909722222 942.5824175824175,282.1790335648148 945.3296703296703,282.4814236111111 948.0769230769231,282.7696412037037 950.8241758241759,283.04346643518517 953.5714285714286,283.3026967592592 956.3186813186813,283.54712962962964 959.0659340659341,283.776568287037 961.8131868131868,283.9908275462963 964.5604395604396,284.1897280092592 967.3076923076923,284.37311342592596 970.054945054945,284.5408101851852 972.8021978021977,284.69267939814813 975.5494505494505,284.8285763888889 978.2967032967033,284.94838541666667 981.0439560439561,285.05199074074073 983.7912087912089,285.1392939814815 986.5384615384615,285.2102141203704 989.2857142857143,285.2646701388889 992.032967032967,285.30261574074075 994.7802197802198,285.32400462962966 997.5274725274725,285.3288136574074 1000.2747252747253,285.31703125 1003.021978021978,285.28866319444444 1005.7692307692307,285.2437326388889 1008.5164835164835,285.1822800925926 1011.2637362637363,285.10434027777774 1014.0109890109891,285.00999421296297 1016.7582417582418,284.8993113425926 1019.5054945054945,284.7723784722223 1022.2527472527472,284.62930555555556 1025,284.4702141203704 1025,510" fill="#0060c0" stroke="none" stroke-width="0"/>
<polygon points="25,510 25,303.5572974537037 27.747252747252748,303.3439467592592 30.494505494505496,303.11361689814817 33.24175824175824,302.8665219907407 35.98901098901099,302.60288194444445 38.73626373626374,302.32293981481484 41.48351648351648,302.0269328703704 44.23076923076923,301.7151215277778 46.97802197802198,301.38776620370373 49.72527472527472,301.04515046296297 52.472527472527474,300.68754629629626 55.21978021978022,300.3152372685185 57.96703296703297,299.9285243055555 60.714285714285715,299.52770254629627 63.46153846153847,299.11306134259263 66.20879120879121,298.68491898148153 68.95604395604396,298.24357060185184 71.7032967032967,297.7893460648148 74.45054945054945,297.32254629629625 77.19780219780219,296.84349537037036 79.94505494505495,296.352511574074 82.6923076923077,295.8499189814815 85.43956043956044,295.3360416666667 88.18681318681318,294.8112037037037 90.93406593406594,294.27574074074073 93.68131868131869,293.72997685185186 96.42857142857143,293.17423611111116 99.17582417582418,292.60884259259257 101.92307692307693,292.0341261574074 104.67032967032966,291.45041087962966 107.41758241758242,290.8580092592593 110.16483516483517,290.2572337962963 112.91208791208791,289.64839120370374 115.65934065934066,289.0317881944444 118.4065934065934,288.4077256944444 121.15384615384616,287.7764814814815 123.90109890109889,287.1383333333333 126.64835164835165,286.4935648148148 129.39560439560438,285.8424247685185 132.14285714285714,285.1851851851852 134.8901098901099,284.5220775462963 137.63736263736263,283.85335648148146 140.3846153846154,283.1792418981481 143.13186813186815,282.49995949074076 145.87912087912088,281.81574074074075 148.62637362637363,281.1267824074074 151.37362637362637,280.43330439814815 154.12087912087912,279.7354976851852 156.86813186813188,279.03357060185186 159.6153846153846,278.32771990740747 162.36263736263737,277.618119212963 165.1098901098901,276.9049826388889 167.85714285714286,276.1884837962963 170.60439560439562,275.46880787037037 173.35164835164835,274.7461284722222 176.09890109890108,274.02063657407405 178.84615384615387,273.292494212963 181.5934065934066,272.561880787037 184.34065934065933,271.82895833333333 187.0879120879121,271.093900462963 189.83516483516485,270.3568460648148 192.58241758241758,269.61795717592594 195.32967032967034,268.87738425925926 198.07692307692307,268.1352719907407 200.82417582417582,267.39174189814815 203.57142857142858,266.6469386574074 206.3186813186813,265.90097800925923 209.06593406593407,265.1539756944444 211.8131868131868,264.40605324074073 214.56043956043956,263.65731481481475 217.30769230769232,262.9078645833334 220.05494505494505,262.1578009259259 222.80219780219778,261.40722800925926 225.54945054945057,260.6562326388889 228.2967032967033,259.9049189814815 231.04395604395603,259.1533738425926 233.7912087912088,258.4016898148148 236.53846153846155,257.64996527777777 239.28571428571428,256.8983043981481 242.03296703296704,256.14679976851846 244.78021978021977,255.3955439814815 247.52747252747253,254.64466435185184 250.27472527472528,253.8942476851852 253.02197802197801,253.14440972222224 255.76923076923077,252.39526620370373 258.5164835164835,251.64693287037036 261.2637362637363,250.89952546296294 264.010989010989,250.15316550925925 266.75824175824175,249.40797453703706 269.50549450549454,248.66407407407408 272.25274725274727,247.92157986111113 275,247.180625 277.74725274725273,246.4413310185185 280.49450549450546,245.70381944444446 283.24175824175825,244.96820601851854 285.989010989011,244.23462384259258 288.73626373626377,243.50319444444446 291.4835164835165,242.7740335648148 294.2307692307692,242.04726851851854 296.97802197802196,241.32302083333335 299.72527472527474,240.60142361111113 302.4725274725275,239.88260416666668 305.2197802197802,239.1666782407407 307.96703296703294,238.45380208333333 310.7142857142857,237.7441087962963 313.46153846153845,237.03774305555558 316.20879120879124,236.33485532407406 318.95604395604397,235.6356076388889 321.7032967032967,234.94016203703703 324.45054945054943,234.24868055555558 327.19780219780216,233.56136574074077 329.94505494505495,232.87837962962965 332.69230769230774,232.1999247685185 335.43956043956047,231.52619791666666 338.1868131868132,230.85740740740738 340.9340659340659,230.19376736111113 343.68131868131866,229.53549189814814 346.42857142857144,228.88280671296295 349.1758241758242,228.23592592592595 351.9230769230769,227.59509837962966 354.6703296703297,226.96053819444444 357.4175824175824,226.33248842592596 360.16483516483515,225.71119791666666 362.91208791208794,225.09688657407406 365.65934065934067,224.48980902777777 368.4065934065934,223.89019675925925 371.15384615384613,223.29830439814816 373.90109890109886,222.71437500000002 376.64835164835165,222.13865162037038 379.39560439560444,221.5713888888889 382.14285714285717,221.01283564814815 384.8901098901099,220.46325231481484 387.6373626373626,219.9228819444444 390.38461538461536,219.39200231481482 393.13186813186815,218.87085648148147 395.8791208791209,218.35972800925927 398.6263736263736,217.85886574074075 401.3736263736264,217.36856481481482 404.1208791208791,216.8890798611111 406.86813186813185,216.42070023148145 409.61538461538464,215.96368055555553 412.3626373626374,215.5183275462963 415.1098901098901,215.08489004629632 417.85714285714283,214.66365740740738 420.60439560439556,214.25490162037036 423.35164835164835,213.85888888888886 426.09890109890114,213.47588541666667 428.84615384615387,213.10615162037038 431.5934065934066,212.74994212962966 434.34065934065933,212.40750578703702 437.08791208791206,212.07907986111113 439.83516483516485,211.76489583333336 442.5824175824176,211.46517939814817 445.3296703296703,211.1801388888889 448.0769230769231,210.90998842592595 450.8241758241758,210.65490740740742 453.57142857142856,210.41508680555552 456.31868131868134,210.1907002314815 459.0659340659341,209.98190972222224 461.8131868131868,209.78886574074073 464.56043956043953,209.61171875 467.30769230769226,209.4505902777778 470.05494505494505,209.3056076388889 472.80219780219784,209.17687499999997 475.54945054945057,209.06450231481483 478.2967032967033,208.96856481481484 481.04395604395603,208.88913773148147 483.79120879120876,208.82628472222225 486.53846153846155,208.78006365740742 489.2857142857143,208.75050347222222 492.03296703296706,208.7376215277778 494.7802197802198,208.74142939814814 497.5274725274725,208.76193287037037 500.27472527472526,208.7990914351852 503.02197802197804,208.85287615740742 505.7692307692308,208.92324652777776 508.5164835164835,209.01012152777776 511.26373626373623,209.11343171296298 514.0109890109891,209.23308449074074 516.7582417582418,209.36896990740743 519.5054945054945,209.52096064814816 522.2527472527472,209.68892939814813 525,209.87272569444443 527.7472527472528,210.0722048611111 530.4945054945055,210.28719328703704 533.2417582417581,210.51751157407404 535.9890109890109,210.76298032407408 538.7362637362637,211.02340856481482 541.4835164835165,211.29859953703703 544.2307692307693,211.5883391203704 546.978021978022,211.89241319444446 549.7252747252747,212.21060185185186 552.4725274725275,212.5426851851852 555.2197802197802,212.88842592592593 557.967032967033,213.24759837962964 560.7142857142857,213.61993634259255 563.4615384615385,214.00521412037037 566.2087912087911,214.40316550925925 568.9560439560439,214.81353587962963 571.7032967032967,215.23607060185185 574.4505494505495,215.6704861111111 577.1978021978023,216.11652777777778 579.945054945055,216.57391203703702 582.6923076923077,217.04236111111112 585.4395604395604,217.52159722222225 588.1868131868132,218.01133680555554 590.9340659340659,218.51130787037036 593.6813186813187,219.02121527777777 596.4285714285714,219.54078703703703 599.1758241758241,220.06973958333336 601.9230769230769,220.60780671296297 604.6703296703297,221.15469907407407 607.4175824175825,221.7101678240741 610.1648351648352,222.27394097222225 612.9120879120879,222.84576388888888 615.6593406593406,223.42538194444444 618.4065934065934,224.0125578703704 621.1538461538462,224.60704282407406 623.9010989010989,225.20860532407409 626.6483516483516,225.81700810185183 629.3956043956043,226.43204282407407 632.1428571428571,227.05348958333332 634.8901098901099,227.68111689814816 637.6373626373627,228.31473379629628 640.3846153846155,228.9541261574074 643.1318681318681,229.5990914351852 645.8791208791209,230.24943865740744 648.6263736263736,230.90494791666666 651.3736263736264,231.5654398148148 654.1208791208791,232.2307175925926 656.8681318681319,232.90058449074073 659.6153846153845,233.57485532407406 662.3626373626373,234.25334490740738 665.1098901098901,234.93586226851852 667.8571428571429,235.62222800925923 670.6043956043957,236.31227430555555 673.3516483516484,237.00581597222225 676.0989010989011,237.70269097222223 678.8461538461538,238.40273148148148 681.5934065934066,239.10578703703703 684.3406593406594,239.81169560185182 687.0879120879121,240.52031828703707 689.8351648351648,241.23151620370368 692.5824175824175,241.945150462963 695.3296703296703,242.66109375 698.0769230769231,243.3792303240741 700.8241758241759,244.09944444444446 703.5714285714286,244.82162037037034 706.3186813186813,245.5456539351852 709.0659340659341,246.27144675925928 711.8131868131868,246.99888888888887 714.5604395604396,247.72789930555555 717.3076923076923,248.4583738425926 720.054945054945,249.1902141203704 722.8021978021977,249.92333333333332 725.5494505494505,250.65763310185184 728.2967032967033,251.39301504629628 731.0439560439561,252.12938657407406 733.7912087912089,252.86664930555557 736.5384615384615,253.60469328703704 739.2857142857143,254.3434201388889 742.032967032967,255.08273148148146 744.7802197802198,255.8225173611111 747.5274725274725,256.5626736111111 750.2747252747253,257.30308449074073 753.021978021978,258.0436516203704 755.7692307692307,258.7842650462963 758.5164835164835,259.5248148148148 761.2637362637363,260.26518518518515 764.0109890109891,261.00528356481476 766.7582417582418,261.745 769.5054945054945,262.484224537037 772.2527472527472,263.2228761574074 775,263.9608275462963 777.7472527472528,264.69799189814813 780.4945054945055,265.43426504629633 783.2417582417582,266.1695601851852 785.9890109890109,266.9037557870371 788.7362637362637,267.6367650462963 791.4835164835165,268.36847800925926 794.2307692307693,269.0987905092593 796.978021978022,269.82758680555554 799.7252747252747,270.5547569444444 802.4725274725275,271.28017361111114 805.2197802197802,272.00372106481484 807.967032967033,272.7252546296296 810.7142857142857,273.4446412037037 813.4615384615385,274.1617361111111 816.2087912087911,274.8763773148148 818.9560439560439,275.5884085648148 821.7032967032967,276.297662037037 824.4505494505495,277.00396412037037 827.1978021978023,277.7071354166667 829.945054945055,278.40697916666664 832.6923076923077,279.1033101851852 835.4395604395604,279.7959259259259 838.1868131868132,280.4846238425926 840.9340659340659,281.1691956018518 843.6813186813187,281.84942708333335 846.4285714285714,282.52510416666667 849.1758241758241,283.19601273148146 851.9230769230769,283.86192129629626 854.6703296703297,284.5226099537037 857.4175824175825,285.1778414351852 860.1648351648352,285.82739004629633 862.9120879120879,286.47101273148144 865.6593406593406,287.10846643518516 868.4065934065934,287.73950810185187 871.1538461538462,288.36387731481483 873.9010989010989,288.98132523148143 876.6483516483516,289.5915740740741 879.3956043956043,290.1943692129629 882.1428571428571,290.7894155092593 884.8901098901099,291.3764351851852 887.6373626373627,291.95513310185186 890.3846153846155,292.5252141203703 893.1318681318681,293.08636574074075 895.8791208791209,293.63828125000003 898.6263736263736,294.18063657407413 901.3736263736264,294.71311342592594 904.1208791208791,295.23538773148147 906.8681318681319,295.7471238425926 909.6153846153845,296.24799189814814 912.3626373626373,296.73766203703707 915.1098901098901,297.21578703703705 917.8571428571429,297.6820428240741 920.6043956043957,298.136099537037 923.3516483516484,298.57762152777775 926.0989010989011,299.0062962962963 928.8461538461538,299.42178819444445 931.5934065934066,299.8237962962963 934.3406593406594,300.2119965277777 937.0879120879121,300.58608796296295 939.8351648351648,300.94577546296296 942.5824175824175,301.290775462963 945.3296703296703,301.62079282407404 948.0769230769231,301.93556134259256 950.8241758241759,302.23480902777777 953.5714285714286,302.51828703703706 956.3186813186813,302.7857349537037 959.0659340659341,303.03691550925925 961.8131868131868,303.27160300925925 964.5604395604396,303.4895833333333 967.3076923076923,303.69063078703704 970.054945054945,303.87456597222223 972.8021978021977,304.04119791666665 975.5494505494505,304.1903703703704 978.2967032967033,304.3219155092592 981.0439560439561,304.43570601851854 983.7912087912089,304.53161458333335 986.5384615384615,304.60953125 989.2857142857143,304.669380787037 992.032967032967,304.71109375000003 994.7802197802198,304.7346180555556 997.5274725274725,304.73991319444445 1000.2747252747253,304.7269849537037 1003.021978021978,304.6958275462963 1005.7692307692307,304.64647569444446 1008.5164835164835,304.5789699074074 1011.2637362637363,304.4933738425926 1014.0109890109891,304.3897685185185 1016.7582417582418,304.2682523148148 1019.5054945054945,304.1289351851852 1022.2527472527472,303.97195023148146 1025,303.79744791666667 1025,510" fill="#80c0ff" stroke="none" stroke-width="0"/>
<text x="20" y="510" font-family="Arial" font-size="12" text-anchor="end" alignment-baseline="middle" fill="#000000">0</text>
<line x1="25" y1="510" x2="1025" y2="510" stroke="#808080" stroke-width="0.5" />
<text x="20" y="468.3333333333333" font-family="Arial" font-size="12" text-anchor="end" alignment-baseline="middle" fill="#000000">2</text>
<line x1="25" y1="468.3333333333333" x2="1025" y2="468.3333333333333" stroke="#808080" stroke-width="0.5" />
<text x="20" y="426.6666666666667" font-family="Arial" font-size="12" text-anchor="end" alignment-baseline="middle" fill="#000000">4</text>
<line x1="25" y1="426.6666666666667" x2="1025" y2="426.6666666666667" stroke="#808080" stroke-width="0.5" />
<text x="20" y="385" font-family="Arial" font-size="12" text-anchor="end" alignment-baseline="middle" fill="#000000">6</text>
<line x1="25" y1="385" x2="1025" y2="385" stroke="#808080" stroke-width="0.5" />
<text x="20" y="343.33333333333337" font-family="Arial" font-size="12" text-anchor="end" alignment-baseline="middle" fill="#000000">8</text>
<line x1="25" y1="343.33333333333337" x2="1025" y2="343.33333333333337" stroke="#808080" stroke-width="0.5" />
<text x="20" y="301.66666666666663" font-family="Arial" font-size="12" text-anchor="end" alignment-baseline="middle" fill="#000000">10</text>
<line x1="25" y1="301.66666666666663" x2="1025" y2="301.66666666666663" stroke="#808080" stroke-width="0.5" />
<text x="20" y="260" font-family="Arial" font-size="12" text-anchor="end" alignment-baseline="middle" fill="#000000">12</text>
<line x1="25" y1="260" x2="1025" y2="260" stroke="#808080" stroke-width="0.5" />
<text x="20" y="218.33333333333331" font-family="Arial" font-size="12" text-anchor="end" alignment-baseline="middle" fill="#000000">14</text>
<line x1="25" y1="218.33333333333331" x2="1025" y2="218.33333333333331" stroke="#808080" stroke-width="0.5" />
<text x="20" y="176.66666666666669" font-family="Arial" font-size="12" text-anchor="end" alignment-baseline="middle" fill="#000000">16</text>
<line x1="25" y1="176.66666666666669" x2="1025" y2="176.66666666666669" stroke="#808080" stroke-width="0.5" />
<text x="20" y="135" font-family="Arial" font-size="12" text-anchor="end" alignment-baseline="middle" fill="#000000">18</text>
<line x1="25" y1="135" x2="1025" y2="135" stroke="#808080" stroke-width="0.5" />
<text x="20" y="93.33333333333331" font-family="Arial" font-size="12" text-anchor="end" alignment-baseline="middle" fill="#000000">20</text>
<line x1="25" y1="93.33333333333331" x2="1025" y2="93.33333333333331" stroke="#808080" stroke-width="0.5" />
<text x="20" y="51.666666666666686" font-family="Arial" font-size="12" text-anchor="end" alignment-baseline="middle" fill="#000000">22</text>
<line x1="25" y1="51.666666666666686" x2="1025" y2="51.666666666666686" stroke="#808080" stroke-width="0.5" />
<text x="20" y="10" font-family="Arial" font-size="12" text-anchor="end" alignment-baseline="middle" fill="#000000">24</text>
<line x1="25" y1="10" x2="1025" y2="10" stroke="#808080" stroke-width="0.5" />
<text x="66.8956043956044" y="515" font-family="Arial" font-size="12" text-anchor="middle" alignment-baseline="text-before-edge" fill="#000000">Jan</text>
<line x1="25" y1="10" x2="25" y2="510" stroke="#808080" stroke-width="0.5" />
<text x="147.25274725274727" y="515" font-family="Arial" font-size="12" text-anchor="middle" alignment-baseline="text-before-edge" fill="#000000">Feb</text>
<line x1="108.79120879120879" y1="10" x2="108.79120879120879" y2="510" stroke="#808080" stroke-width="0.5" />
<text x="228.2967032967033" y="515" font-family="Arial" font-size="12" text-anchor="middle" alignment-baseline="text-before-edge" fill="#000000">Mar</text>
<line x1="185.71428571428572" y1="10" x2="185.71428571428572" y2="510" stroke="#808080" stroke-width="0.5" />
<text x="312.08791208791206" y="515" font-family="Arial" font-size="12" text-anchor="middle" alignment-baseline="text-before-edge" fill="#000000">Apr</text>
<line x1="270.8791208791209" y1="10" x2="270.8791208791209" y2="510" stroke="#808080" stroke-width="0.5" />
<text x="395.8791208791209" y="515" font-family="Arial" font-size="12" text-anchor="middle" alignment-baseline="text-before-edge" fill="#000000">May</text>
<line x1="353.2967032967033" y1="10" x2="353.2967032967033" y2="510" stroke="#808080" stroke-width="0.5" />
<text x="479.67032967032964" y="515" font-family="Arial" font-size="12" text-anchor="middle" alignment-baseline="text-before-edge" fill="#000000">Jun</text>
<line x1="438.46153846153845" y1="10" x2="438.46153846153845" y2="510" stroke="#808080" stroke-width="0.5" />
<text x="563.4615384615385" y="515" font-family="Arial" font-size="12" text-anchor="middle" alignment-baseline="text-before-edge" fill="#000000">Jul</text>
<line x1="520.8791208791208" y1="10" x2="520.8791208791208" y2="510" stroke="#808080" stroke-width="0.5" />
<text x="648.6263736263736" y="515" font-family="Arial" font-size="12" text-anchor="middle" alignment-baseline="text-before-edge" fill="#000000">Aug</text>
<line x1="606.0439560439561" y1="10" x2="606.0439560439561" y2="510" stroke="#808080" stroke-width="0.5" />
<text x="732.4175824175824" y="515" font-family="Arial" font-size="12" text-anchor="middle" alignment-baseline="text-before-edge" fill="#000000">Sep</text>
<line x1="691.2087912087911" y1="10" x2="691.2087912087911" y2="510" stroke="#808080" stroke-width="0.5" />
<text x="816.2087912087912" y="515" font-family="Arial" font-size="12" text-anchor="middle" alignment-baseline="text-before-edge" fill="#000000">Oct</text>
<line x1="773.6263736263736" y1="10" x2="773.6263736263736" y2="510" stroke="#808080" stroke-width="0.5" />
<text x="900" y="515" font-family="Arial" font-size="12" text-anchor="middle" alignment-baseline="text-before-edge" fill="#000000">Nov</text>
<line x1="858.7912087912089" y1="10" x2="858.7912087912089" y2="510" stroke="#808080" stroke-width="0.5" />
<text x="983.1043956043956" y="515" font-family="Arial" font-size="12" text-anchor="middle" alignment-baseline="text-before-edge" fill="#000000">Dec</text>
<line x1="941.2087912087911" y1="10" x2="941.2087912087911" y2="510" stroke="#808080" stroke-width="0.5" />
<line x1="1025" y1="10" x2="1025" y2="510" stroke="#808080" stroke-width="0.5" />
</svg>