<svg xmlns="http://www.w3.org/2000/svg" width="1035" height="535" viewBox="0 0 1035 535">
<rect x="0" y="0" width="1035" height="535" fill="#ffffff" stroke="none" stroke-width="0"/>
<rect x="25" y="10" width="1000" height="500" fill="#000000" stroke="none" stroke-width="0"/>
<polygon points="25.00,510.00 25.00,277.63 27.75,277.06 30.49,276.45 33.24,275.79 35.99,275.09 38.74,274.35 41.48,273.56 44.23,272.73 46.98,271.85 49.73,270.94 52.47,269.98 55.22,268.99 57.97,267.95 60.71,266.88 63.46,265.77 66.21,264.62 68.96,263.43 71.70,262.21 74.45,260.95 77.20,259.65 79.95,258.32 82.69,256.96 85.44,255.56 88.19,254.13 90.93,252.66 93.68,251.16 96.43,249.64 99.18,248.08 101.92,246.49 104.67,244.87 107.42,243.22 110.16,241.54 112.91,239.84 115.66,238.10 118.41,236.34 121.15,234.55 123.90,232.73 126.65,230.89 129.40,229.02 132.14,227.12 134.89,225.20 137.64,223.25 140.38,221.27 143.13,219.26 145.88,217.23 148.63,215.18 151.37,213.09 154.12,210.98 156.87,208.85 159.62,206.68 162.36,204.49 165.11,202.27 167.86,200.02 170.60,197.75 173.35,195.44 176.10,193.11 178.85,190.74 181.59,188.35 184.34,185.92 187.09,183.46 189.84,180.97 192.58,178.45 195.33,175.89 198.08,173.29 200.82,170.66 203.57,167.99 206.32,165.27 209.07,162.52 211.81,159.72 214.56,156.88 217.31,153.98 220.05,151.04 222.80,148.04 225.55,144.99 228.30,141.87 231.04,138.69 233.79,135.44 236.54,132.12 239.29,128.71 242.03,125.22 244.78,121.63 247.53,117.94 250.27,114.13 253.02,110.20 255.77,106.12 258.52,101.88 261.26,97.46 264.01,92.83 266.76,90.00 269.51,85.33 272.25,79.98 275.00,74.22 277.75,67.92 280.49,60.90 283.24,52.79 285.99,42.80 288.74,28.05 291.48,10.00 294.23,10.00 296.98,10.00 299.73,10.00 302.47,10.00 305.22,10.00 307.97,10.00 310.71,10.00 313.46,10.00 316.21,10.00 318.96,10.00 321.70,10.00 324.45,10.00 327.20,10.00 329.95,10.00 332.69,10.00 335.44,10.00 338.19,10.00 340.93,10.00 343.68,10.00 346.43,10.00 349.18,10.00 351.92,10.00 354.67,10.00 357.42,10.00 360.16,10.00 362.91,10.00 365.66,10.00 368.41,10.00 371.15,10.00 373.90,10.00 376.65,10.00 379.40,10.00 382.14,10.00 384.89,10.00 387.64,10.00 390.38,10.00 393.13,10.00 395.88,10.00 398.63,10.00 401.37,10.00 404.12,10.00 406.87,10.00 409.62,10.00 412.36,10.00 415.11,10.00 417.86,10.00 420.60,10.00 423.35,10.00 426.10,10.00 428.85,10.00 431.59,10.00 434.34,10.00 437.09,10.00 439.84,10.00 442.58,10.00 445.33,10.00 448.08,10.00 450.82,10.00 453.57,10.00 456.32,10.00 459.07,10.00 461.81,10.00 464.56,10.00 467.31,10.00 470.05,10.00 472.80,10.00 475.55,10.00 478.30,10.00 481.04,10.00 483.79,10.00 486.54,10.00 489.29,10.00 492.03,10.00 494.78,10.00 497.53,10.00 500.27,10.00 503.02,10.00 505.77,10.00 508.52,10.00 511.26,10.00 514.01,10.00 516.76,10.00 519.51,10.00 522.25,10.00 525.00,10.00 527.75,10.00 530.49,10.00 533.24,10.00 535.99,10.00 538.74,10.00 541.48,10.00 544.23,10.00 546.98,10.00 549.73,10.00 552.47,10.00 555.22,10.00 557.97,10.00 560.71,10.00 563.46,10.00 566.21,10.00 568.96,10.00 571.70,10.00 574.45,10.00 577.20,10.00 579.95,10.00 582.69,10.00 585.44,10.00 588.19,10.00 590.93,10.00 593.68,10.00 596.43,10.00 599.18,10.00 601.92,10.00 604.67,10.00 607.42,10.00 610.16,10.00 612.91,10.00 615.66,10.00 618.41,10.00 621.15,10.00 623.90,10.00 626.65,10.00 629.40,10.00 632.14,10.00 634.89,10.00 637.64,10.00 640.38,10.00 643.13,10.00 645.88,10.00 648.63,10.00 651.37,10.00 654.12,10.00 656.87,10.00 659.62,10.00 662.36,10.00 665.11,10.00 667.86,10.00 670.60,10.00 673.35,10.00 676.10,10.00 678.85,10.00 681.59,10.00 684.34,10.00 687.09,10.00 689.84,10.00 692.58,10.00 695.33,10.00 698.08,10.00 700.82,27.26 703.57,42.20 706.32,52.19 709.07,60.28 711.81,67.27 714.56,73.53 717.31,79.26 720.05,86.97 722.80,92.04 725.55,96.64 728.30,101.03 731.04,105.24 733.79,109.29 736.54,113.20 739.29,116.97 742.03,120.64 744.78,124.20 747.53,127.67 750.27,131.05 753.02,134.35 755.77,137.58 758.52,140.73 761.26,143.83 764.01,146.86 766.76,149.84 769.51,152.76 772.25,155.63 775.00,158.45 777.75,161.23 780.49,163.96 783.24,166.65 785.99,169.30 788.74,171.91 791.48,174.49 794.23,177.03 796.98,179.54 799.73,182.01 802.47,184.45 805.22,186.86 807.97,189.24 810.71,191.59 813.46,193.91 816.21,196.20 818.96,198.46 821.70,200.70 824.45,202.91 827.20,205.09 829.95,207.24 832.69,209.37 835.44,211.48 838.19,213.56 840.93,215.61 843.68,217.63 846.43,219.64 849.18,221.61 851.92,223.56 854.67,225.48 857.42,227.38 860.16,229.25 862.91,231.10 865.66,232.92 868.41,234.71 871.15,236.48 873.90,238.22 876.65,239.93 879.40,241.62 882.14,243.28 884.89,244.91 887.64,246.51 890.38,248.08 893.13,249.62 895.88,251.14 898.63,252.62 901.37,254.07 904.12,255.49 906.87,256.88 909.62,258.24 912.36,259.56 915.11,260.85 917.86,262.10 920.60,263.32 923.35,264.50 926.10,265.65 928.85,266.76 931.59,267.83 934.34,268.87 937.09,269.86 939.84,270.82 942.58,271.73 945.33,272.60 948.08,273.44 950.82,274.23 953.57,274.98 956.32,275.68 959.07,276.34 961.81,276.96 964.56,277.53 967.31,278.06 970.05,278.54 972.80,278.98 975.55,279.37 978.30,279.71 981.04,280.01 983.79,280.26 986.54,280.46 989.29,280.61 992.03,280.72 994.78,280.78 997.53,280.79 1000.27,280.75 1003.02,280.67 1005.77,280.53 1008.52,280.35 1011.26,280.12 1014.01,279.84 1016.76,279.52 1019.51,279.15 1022.25,278.73 1025.00,278.27 1025.00,510.00" fill="#002040" stroke="none" stroke-width="0"/>
<polygon points="25.00,510.00 25.00,320.12 27.75,319.49 30.49,318.80 33.24,318.07 35.99,317.28 38.74,316.45 41.48,315.57 44.23,314.65 46.98,313.68 49.73,312.67 52.47,311.61 55.22,310.52 57.97,309.38 60.71,308.20 63.46,306.99 66.21,305.73 68.96,304.44 71.70,303.11 74.45,301.74 77.20,300.35 79.95,298.91 82.69,297.45 85.44,295.95 88.19,294.43 90.93,292.87 93.68,291.28 96.43,289.67 99.18,288.02 101.92,286.35 104.67,284.66 107.42,282.94 110.16,281.19 112.91,279.43 115.66,277.63 118.41,275.82 121.15,273.98 123.90,272.12 126.65,270.25 129.40,268.35 132.14,266.43 134.89,264.49 137.64,262.53 140.38,260.55 143.13,258.56 145.88,256.54 148.63,254.51 151.37,252.46 154.12,250.39 156.87,248.31 159.62,246.20 162.36,244.08 165.11,241.95 167.86,239.79 170.60,237.62 173.35,235.43 176.10,233.22 178.85,231.00 181.59,228.76 184.34,226.50 187.09,224.23 189.84,221.94 192.58,219.63 195.33,217.30 198.08,214.95 200.82,212.59 203.57,210.21 206.32,207.81 209.07,205.38 211.81,202.94 214.56,200.48 217.31,198.00 220.05,195.49 222.80,192.97 225.55,190.42 228.30,187.84 231.04,185.24 233.79,182.62 236.54,179.97 239.29,177.29 242.03,174.58 244.78,171.84 247.53,169.07 250.27,166.27 253.02,163.43 255.77,160.56 258.52,157.65 261.26,154.70 264.01,151.71 266.76,148.67 269.51,145.58 272.25,142.45 275.00,139.26 277.75,136.01 280.49,132.70 283.24,129.33 285.99,125.88 288.74,122.36 291.48,118.75 294.23,115.04 296.98,111.23 299.73,107.31 302.47,103.26 305.22,99.05 307.97,94.68 310.71,90.12 313.46,87.08 316.21,82.78 318.96,77.55 321.70,71.94 324.45,65.84 327.20,59.05 329.95,51.25 332.69,41.69 335.44,27.76 338.19,10.00 340.93,10.00 343.68,10.00 346.43,10.00 349.18,10.00 351.92,10.00 354.67,10.00 357.42,10.00 360.16,10.00 362.91,10.00 365.66,10.00 368.41,10.00 371.15,10.00 373.90,10.00 376.65,10.00 379.40,10.00 382.14,10.00 384.89,10.00 387.64,10.00 390.38,10.00 393.13,10.00 395.88,10.00 398.63,10.00 401.37,10.00 404.12,10.00 406.87,10.00 409.62,10.00 412.36,10.00 415.11,10.00 417.86,10.00 420.60,10.00 423.35,10.00 426.10,10.00 428.85,10.00 431.59,10.00 434.34,10.00 437.09,10.00 439.84,10.00 442.58,10.00 445.33,10.00 448.08,10.00 450.82,10.00 453.57,10.00 456.32,10.00 459.07,10.00 461.81,10.00 464.56,10.00 467.31,10.00 470.05,10.00 472.80,10.00 475.55,10.00 478.30,10.00 481.04,10.00 483.79,10.00 486.54,10.00 489.29,10.00 492.03,10.00 494.78,10.00 497.53,10.00 500.27,10.00 503.02,10.00 505.77,10.00 508.52,10.00 511.26,10.00 514.01,10.00 516.76,10.00 519.51,10.00 522.25,10.00 525.00,10.00 527.75,10.00 530.49,10.00 533.24,10.00 535.99,10.00 538.74,10.00 541.48,10.00 544.23,10.00 546.98,10.00 549.73,10.00 552.47,10.00 555.22,10.00 557.97,10.00 560.71,10.00 563.46,10.00 566.21,10.00 568.96,10.00 571.70,10.00 574.45,10.00 577.20,10.00 579.95,10.00 582.69,10.00 585.44,10.00 588.19,10.00 590.93,10.00 593.68,10.00 596.43,10.00 599.18,10.00 601.92,10.00 604.67,10.00 607.42,10.00 610.16,10.00 612.91,10.00 615.66,10.00 618.41,10.00 621.15,10.00 623.90,10.00 626.65,10.00 629.40,10.00 632.14,10.00 634.89,10.00 637.64,10.00 640.38,10.00 643.13,10.00 645.88,10.00 648.63,10.00 651.37,10.00 654.12,31.14 656.87,43.60 659.62,52.63 662.36,60.14 665.11,66.73 667.86,72.68 670.60,78.17 673.35,83.29 676.10,90.27 678.85,95.00 681.59,99.30 684.34,103.44 687.09,107.43 689.84,111.30 692.58,115.05 695.33,118.71 698.08,122.27 700.82,125.74 703.57,129.14 706.32,132.47 709.07,135.73 711.81,138.93 714.56,142.08 717.31,145.17 720.05,148.21 722.80,151.21 725.55,154.17 728.30,157.08 731.04,159.95 733.79,162.79 736.54,165.59 739.29,168.36 742.03,171.10 744.78,173.80 747.53,176.48 750.27,179.13 753.02,181.75 755.77,184.34 758.52,186.91 761.26,189.46 764.01,191.98 766.76,194.48 769.51,196.95 772.25,199.41 775.00,201.84 777.75,204.25 780.49,206.65 783.24,209.02 785.99,211.38 788.74,213.72 791.48,216.04 794.23,218.34 796.98,220.62 799.73,222.89 802.47,225.14 805.22,227.37 807.97,229.59 810.71,231.79 813.46,233.98 816.21,236.15 818.96,238.30 821.70,240.44 824.45,242.56 827.20,244.66 829.95,246.75 832.69,248.82 835.44,250.88 838.19,252.91 840.93,254.94 843.68,256.94 846.43,258.93 849.18,260.89 851.92,262.84 854.67,264.78 857.42,266.69 860.16,268.58 862.91,270.46 865.66,272.31 868.41,274.15 871.15,275.96 873.90,277.75 876.65,279.52 879.40,281.27 882.14,283.00 884.89,284.70 887.64,286.37 890.38,288.03 893.13,289.65 895.88,291.25 898.63,292.82 901.37,294.37 904.12,295.88 906.87,297.37 909.62,298.82 912.36,300.25 915.11,301.64 917.86,303.00 920.60,304.32 923.35,305.61 926.10,306.86 928.85,308.07 931.59,309.24 934.34,310.38 937.09,311.48 939.84,312.53 942.58,313.54 945.33,314.51 948.08,315.44 950.82,316.32 953.57,317.15 956.32,317.94 959.07,318.68 961.81,319.37 964.56,320.01 967.31,320.61 970.05,321.15 972.80,321.64 975.55,322.08 978.30,322.47 981.04,322.81 983.79,323.09 986.54,323.32 989.29,323.49 992.03,323.61 994.78,323.68 997.53,323.69 1000.27,323.65 1003.02,323.55 1005.77,323.40 1008.52,323.19 1011.26,322.93 1014.01,322.62 1016.76,322.25 1019.51,321.84 1022.25,321.37 1025.00,320.84 1025.00,510.00" fill="#004080" stroke="none" stroke-width="0"/>
<polygon points="25.00,510.00 25.00,369.09 27.75,368.29 30.49,367.43 33.24,366.51 35.99,365.53 38.74,364.49 41.48,363.41 44.23,362.27 46.98,361.08 49.73,359.84 52.47,358.55 55.22,357.22 57.97,355.84 60.71,354.42 63.46,352.96 66.21,351.46 68.96,349.92 71.70,348.34 74.45,346.73 77.20,345.09 79.95,343.41 82.69,341.70 85.44,339.97 88.19,338.20 90.93,336.41 93.68,334.59 96.43,332.75 99.18,330.89 101.92,329.00 104.67,327.09 107.42,325.17 110.16,323.22 112.91,321.25 115.66,319.27 118.41,317.27 121.15,315.26 123.90,313.23 126.65,311.19 129.40,309.13 132.14,307.06 134.89,304.98 137.64,302.88 140.38,300.78 143.13,298.66 145.88,296.53 148.63,294.40 151.37,292.25 154.12,290.09 156.87,287.92 159.62,285.75 162.36,283.56 165.11,281.37 167.86,279.17 170.60,276.96 173.35,274.74 176.10,272.52 178.85,270.28 181.59,268.04 184.34,265.79 187.09,263.54 189.84,261.27 192.58,259.00 195.33,256.73 198.08,254.44 200.82,252.15 203.57,249.85 206.32,247.54 209.07,245.23 211.81,242.91 214.56,240.58 217.31,238.24 220.05,235.89 222.80,233.54 225.55,231.17 228.30,228.80 231.04,226.42 233.79,224.03 236.54,221.63 239.29,219.22 242.03,216.80 244.78,214.37 247.53,211.93 250.27,209.47 253.02,207.01 255.77,204.53 258.52,202.04 261.26,199.54 264.01,197.03 266.76,194.50 269.51,191.96 272.25,189.41 275.00,186.84 277.75,184.25 280.49,181.65 283.24,179.03 285.99,176.40 288.74,173.74 291.48,171.07 294.23,168.38 296.98,165.67 299.73,162.94 302.47,160.18 305.22,157.40 307.97,154.60 310.71,151.77 313.46,148.92 316.21,146.03 318.96,143.12 321.70,140.17 324.45,137.19 327.20,134.17 329.95,131.11 332.69,128.02 335.44,124.88 338.19,121.69 340.93,118.45 343.68,115.16 346.43,111.81 349.18,108.39 351.92,104.90 354.67,101.33 357.42,97.68 360.16,93.92 362.91,90.05 365.66,86.23 368.41,84.01 371.15,79.79 373.90,75.38 376.65,70.74 379.40,65.81 382.14,60.51 384.89,54.72 387.64,48.20 390.38,40.49 393.13,30.31 395.88,10.00 398.63,10.00 401.37,10.00 404.12,10.00 406.87,10.00 409.62,10.00 412.36,10.00 415.11,10.00 417.86,10.00 420.60,10.00 423.35,10.00 426.10,10.00 428.85,10.00 431.59,10.00 434.34,10.00 437.09,10.00 439.84,10.00 442.58,10.00 445.33,10.00 448.08,10.00 450.82,10.00 453.57,10.00 456.32,10.00 459.07,10.00 461.81,10.00 464.56,10.00 467.31,10.00 470.05,10.00 472.80,10.00 475.55,10.00 478.30,10.00 481.04,10.00 483.79,10.00 486.54,10.00 489.29,10.00 492.03,10.00 494.78,10.00 497.53,10.00 500.27,10.00 503.02,10.00 505.77,10.00 508.52,10.00 511.26,10.00 514.01,10.00 516.76,10.00 519.51,10.00 522.25,10.00 525.00,10.00 527.75,10.00 530.49,10.00 533.24,10.00 535.99,10.00 538.74,10.00 541.48,10.00 544.23,10.00 546.98,10.00 549.73,10.00 552.47,10.00 555.22,10.00 557.97,10.00 560.71,10.00 563.46,10.00 566.21,10.00 568.96,10.00 571.70,10.00 574.45,10.00 577.20,10.00 579.95,10.00 582.69,10.00 585.44,10.00 588.19,10.00 590.93,10.00 593.68,21.18 596.43,35.13 599.18,43.91 601.92,50.97 604.67,57.11 607.42,62.63 610.16,67.73 612.91,72.49 615.66,76.99 618.41,81.28 621.15,85.40 623.90,90.35 626.65,95.11 629.40,98.79 632.14,102.38 634.89,105.88 637.64,109.30 640.38,112.66 643.13,115.96 645.88,119.20 648.63,122.38 651.37,125.52 654.12,128.61 656.87,131.66 659.62,134.67 662.36,137.64 665.11,140.58 667.86,143.48 670.60,146.36 673.35,149.20 676.10,152.02 678.85,154.81 681.59,157.57 684.34,160.31 687.09,163.02 689.84,165.72 692.58,168.39 695.33,171.04 698.08,173.68 700.82,176.29 703.57,178.89 706.32,181.47 709.07,184.03 711.81,186.58 714.56,189.11 717.31,191.63 720.05,194.13 722.80,196.62 725.55,199.10 728.30,201.56 731.04,204.01 733.79,206.45 736.54,208.88 739.29,211.30 742.03,213.71 744.78,216.10 747.53,218.49 750.27,220.87 753.02,223.24 755.77,225.60 758.52,227.94 761.26,230.29 764.01,232.62 766.76,234.94 769.51,237.25 772.25,239.56 775.00,241.86 777.75,244.15 780.49,246.43 783.24,248.71 785.99,250.98 788.74,253.24 791.48,255.49 794.23,257.74 796.98,259.98 799.73,262.21 802.47,264.44 805.22,266.66 807.97,268.87 810.71,271.07 813.46,273.27 816.21,275.46 818.96,277.65 821.70,279.83 824.45,282.00 827.20,284.16 829.95,286.31 832.69,288.46 835.44,290.59 838.19,292.72 840.93,294.84 843.68,296.95 846.43,299.05 849.18,301.14 851.92,303.22 854.67,305.28 857.42,307.34 860.16,309.38 862.91,311.41 865.66,313.43 868.41,315.44 871.15,317.43 873.90,319.40 876.65,321.36 879.40,323.30 882.14,325.23 884.89,327.13 887.64,329.02 890.38,330.89 893.13,332.73 895.88,334.56 898.63,336.36 901.37,338.13 904.12,339.88 906.87,341.61 909.62,343.30 912.36,344.97 915.11,346.60 917.86,348.20 920.60,349.77 923.35,351.31 926.10,352.80 928.85,354.26 931.59,355.67 934.34,357.05 937.09,358.38 939.84,359.67 942.58,360.91 945.33,362.10 948.08,363.24 950.82,364.33 953.57,365.37 956.32,366.35 959.07,367.27 961.81,368.14 964.56,368.95 967.31,369.70 970.05,370.38 972.80,371.01 975.55,371.57 978.30,372.06 981.04,372.49 983.79,372.85 986.54,373.14 989.29,373.36 992.03,373.52 994.78,373.60 997.53,373.62 1000.27,373.56 1003.02,373.44 1005.77,373.24 1008.52,372.98 1011.26,372.65 1014.01,372.25 1016.76,371.79 1019.51,371.25 1022.25,370.66 1025.00,370.00 1025.00,510.00" fill="#0060c0" stroke="none" stroke-width="0"/>
<polygon points="25.00,510.00 25.00,425.69 27.75,424.42 30.49,423.06 33.24,421.63 35.99,420.12 38.74,418.55 41.48,416.91 44.23,415.21 46.98,413.45 49.73,411.64 52.47,409.78 55.22,407.88 57.97,405.93 60.71,403.94 63.46,401.92 66.21,399.86 68.96,397.77 71.70,395.65 74.45,393.51 77.20,391.34 79.95,389.15 82.69,386.93 85.44,384.70 88.19,382.45 90.93,380.19 93.68,377.91 96.43,375.62 99.18,373.32 101.92,371.00 104.67,368.68 107.42,366.35 110.16,364.02 112.91,361.67 115.66,359.32 118.41,356.97 121.15,354.61 123.90,352.25 126.65,349.89 129.40,347.52 132.14,345.16 134.89,342.79 137.64,340.42 140.38,338.05 143.13,335.68 145.88,333.31 148.63,330.94 151.37,328.57 154.12,326.20 156.87,323.83 159.62,321.46 162.36,319.09 165.11,316.72 167.86,314.36 170.60,312.00 173.35,309.63 176.10,307.27 178.85,304.91 181.59,302.55 184.34,300.20 187.09,297.84 189.84,295.49 192.58,293.14 195.33,290.79 198.08,288.44 200.82,286.09 203.57,283.75 206.32,281.41 209.07,279.06 211.81,276.72 214.56,274.38 217.31,272.04 220.05,269.70 222.80,267.37 225.55,265.03 228.30,262.69 231.04,260.36 233.79,258.02 236.54,255.68 239.29,253.34 242.03,251.01 244.78,248.67 247.53,246.33 250.27,243.99 253.02,241.65 255.77,239.31 258.52,236.96 261.26,234.62 264.01,232.28 266.76,229.93 269.51,227.58 272.25,225.23 275.00,222.88 277.75,220.53 280.49,218.17 283.24,215.81 285.99,213.45 288.74,211.09 291.48,208.73 294.23,206.36 296.98,203.99 299.73,201.62 302.47,199.24 305.22,196.87 307.97,194.49 310.71,192.10 313.46,189.71 316.21,187.32 318.96,184.93 321.70,182.53 324.45,180.13 327.20,177.73 329.95,175.32 332.69,172.91 335.44,170.49 338.19,168.08 340.93,165.66 343.68,163.23 346.43,160.81 349.18,158.38 351.92,155.95 354.67,153.51 357.42,151.08 360.16,148.64 362.91,146.20 365.66,143.76 368.41,141.32 371.15,138.88 373.90,136.44 376.65,134.00 379.40,131.56 382.14,129.12 384.89,126.69 387.64,124.25 390.38,121.82 393.13,119.39 395.88,116.97 398.63,114.55 401.37,112.14 404.12,109.73 406.87,107.34 409.62,104.95 412.36,102.58 415.11,100.22 417.86,97.87 420.60,95.54 423.35,93.23 426.10,90.94 428.85,88.68 431.59,86.44 434.34,85.27 437.09,83.20 439.84,81.04 442.58,78.93 445.33,76.86 448.08,74.84 450.82,72.87 453.57,70.96 456.32,69.13 459.07,67.36 461.81,65.68 464.56,64.08 467.31,62.59 470.05,61.20 472.80,59.93 475.55,58.78 478.30,57.77 481.04,56.91 483.79,56.20 486.54,55.65 489.29,55.27 492.03,55.06 494.78,55.03 497.53,55.17 500.27,55.48 503.02,55.96 505.77,56.61 508.52,57.41 511.26,58.36 514.01,59.45 516.76,60.67 519.51,62.00 522.25,63.45 525.00,65.01 527.75,66.65 530.49,68.38 533.24,70.18 535.99,72.05 538.74,73.98 541.48,75.97 544.23,78.01 546.98,80.10 549.73,82.22 552.47,84.38 555.22,86.57 557.97,88.79 560.71,91.98 563.46,94.43 566.21,96.73 568.96,99.05 571.70,101.39 574.45,103.74 577.20,106.10 579.95,108.47 582.69,110.85 585.44,113.24 588.19,115.64 590.93,118.04 593.68,120.45 596.43,122.86 599.18,125.27 601.92,127.68 604.67,130.10 607.42,132.51 610.16,134.93 612.91,137.35 615.66,139.76 618.41,142.18 621.15,144.59 623.90,147.00 626.65,149.41 629.40,151.82 632.14,154.22 634.89,156.63 637.64,159.03 640.38,161.42 643.13,163.82 645.88,166.21 648.63,168.60 651.37,170.99 654.12,173.37 656.87,175.75 659.62,178.12 662.36,180.50 665.11,182.86 667.86,185.23 670.60,187.59 673.35,189.95 676.10,192.31 678.85,194.66 681.59,197.01 684.34,199.35 687.09,201.70 689.84,204.03 692.58,206.37 695.33,208.70 698.08,211.03 700.82,213.36 703.57,215.68 706.32,218.00 709.07,220.32 711.81,222.64 714.56,224.96 717.31,227.27 720.05,229.58 722.80,231.89 725.55,234.20 728.30,236.51 731.04,238.82 733.79,241.12 736.54,243.43 739.29,245.73 742.03,248.03 744.78,250.34 747.53,252.64 750.27,254.94 753.02,257.24 755.77,259.55 758.52,261.85 761.26,264.15 764.01,266.45 766.76,268.76 769.51,271.06 772.25,273.36 775.00,275.67 777.75,277.97 780.49,280.28 783.24,282.59 785.99,284.90 788.74,287.21 791.48,289.52 794.23,291.83 796.98,294.15 799.73,296.46 802.47,298.78 805.22,301.10 807.97,303.42 810.71,305.75 813.46,308.07 816.21,310.40 818.96,312.73 821.70,315.06 824.45,317.40 827.20,319.73 829.95,322.07 832.69,324.40 835.44,326.74 838.19,329.08 840.93,331.43 843.68,333.77 846.43,336.11 849.18,338.45 851.92,340.79 854.67,343.13 857.42,345.47 860.16,347.81 862.91,350.15 865.66,352.49 868.41,354.82 871.15,357.15 873.90,359.47 876.65,361.80 879.40,364.11 882.14,366.42 884.89,368.73 887.64,371.02 890.38,373.31 893.13,375.59 895.88,377.86 898.63,380.12 901.37,382.36 904.12,384.59 906.87,386.81 909.62,389.00 912.36,391.18 915.11,393.34 917.86,395.47 920.60,397.58 923.35,399.65 926.10,401.70 928.85,403.72 931.59,405.70 934.34,407.64 937.09,409.54 939.84,411.39 942.58,413.20 945.33,414.96 948.08,416.66 950.82,418.30 953.57,419.87 956.32,421.38 959.07,422.82 961.81,424.18 964.56,425.47 967.31,426.66 970.05,427.77 972.80,428.79 975.55,429.70 978.30,430.52 981.04,431.23 983.79,431.83 986.54,432.32 989.29,432.70 992.03,432.96 994.78,433.10 997.53,433.13 1000.27,433.03 1003.02,432.82 1005.77,432.50 1008.52,432.06 1011.26,431.50 1014.01,430.84 1016.76,430.06 1019.51,429.19 1022.25,428.21 1025.00,427.14 1025.00,510.00" fill="#80c0ff" stroke="none" stroke-width="0"/>
<text x="20.00" y="510.00" font-family="Arial" font-size="12" text-anchor="end" alignment-baseline="middle" fill="#000000">0</text>
<line x1="25.00" y1="510.00" x2="1025.00" y2="510.00" stroke="#808080" stroke-width="0.5" />
<text x="20.00" y="468.33" font-family="Arial" font-size="12" text-anchor="end" alignment-baseline="middle" fill="#000000">2</text>
<line x1="25.00" y1="468.33" x2="1025.00" y2="468.33" stroke="#808080" stroke-width="0.5" />
<text x="20.00" y="426.67" font-family="Arial" font-size="12" text-anchor="end" alignment-baseline="middle" fill="#000000">4</text>
<line x1="25.00" y1="426.67" x2="1025.00" y2="426.67" stroke="#808080" stroke-width="0.5" />
<text x="20.00" y="385.00" font-family="Arial" font-size="12" text-anchor="end" alignment-baseline="middle" fill="#000000">6</text>
<line x1="25.00" y1="385.00" x2="1025.00" y2="385.00" stroke="#808080" stroke-width="0.5" />
<text x="20.00" y="343.33" font-family="Arial" font-size="12" text-anchor="end" alignment-baseline="middle" fill="#000000">8</text>
<line x1="25.00" y1="343.33" x2="1025.00" y2="343.33" stroke="#808080" stroke-width="0.5" />
<text x="20.00" y="301.67" font-family="Arial" font-size="12" text-anchor="end" alignment-baseline="middle" fill="#000000">10</text>
<line x1="25.00" y1="301.67" x2="1025.00" y2="301.67" stroke="#808080" stroke-width="0.5" />
<text x="20.00" y="260.00" font-family="Arial" font-size="12" text-anchor="end" alignment-baseline="middle" fill="#000000">12</text>
<line x1="25.00" y1="260.00" x2="1025.00" y2="260.00" stroke="#808080" stroke-width="0.5" />
<text x="20.00" y="218.33" font-family="Arial" font-size="12" text-anchor="end" alignment-baseline="middle" fill="#000000">14</text>
<line x1="25.00" y1="218.33" x2="1025.00" y2="218.33" stroke="#808080" stroke-width="0.5" />
<text x="20.00" y="176.67" font-family="Arial" font-size="12" text-anchor="end" alignment-baseline="middle" fill="#000000">16</text>
<line x1="25.00" y1="176.67" x2="1025.00" y2="176.67" stroke="#808080" stroke-width="0.5" />
<text x="20.00" y="135.00" font-family="Arial" font-size="12" text-anchor="end" alignment-baseline="middle" fill="#000000">18</text>
<line x1="25.00" y1="135.00" x2="1025.00" y2="135.00" stroke="#808080" stroke-width="0.5" />
<text x="20.00" y="93.33" font-family="Arial" font-size="12" text-anchor="end" alignment-baseline="middle" fill="#000000">20</text>
<line x1="25.00" y1="93.33" x2="1025.00" y2="93.33" stroke="#808080" stroke-width="0.5" />
<text x="20.00" y="51.67" font-family="Arial" font-size="12" text-anchor="end" alignment-baseline="middle" fill="#000000">22</text>
<line x1="25.00" y1="51.67" x2="1025.00" y2="51.67" stroke="#808080" stroke-width="0.5" />
<text x="20.00" y="10.00" font-family="Arial" font-size="12" text-anchor="end" alignment-baseline="middle" fill="#000000">24</text>
<line x1="25.00" y1="10.00" x2="1025.00" y2="10.00" stroke="#808080" stroke-width="0.5" />
<text x="66.90" y="515.00" font-family="Arial" font-size="12" text-anchor="middle" alignment-baseline="text-before-edge" fill="#000000">Jan</text>
<line x1="25.00" y1="10.00" x2="25.00" y2="510.00" stroke="#808080" stroke-width="0.5" />
<text x="147.25" y="515.00" font-family="Arial" font-size="12" text-anchor="middle" alignment-baseline="text-before-edge" fill="#000000">Feb</text>
<line x1="108.79" y1="10.00" x2="108.79" y2="510.00" stroke="#808080" stroke-width="0.5" />
<text x="228.30" y="515.00" font-family="Arial" font-size="12" text-anchor="middle" alignment-baseline="text-before-edge" fill="#000000">Mar</text>
<line x1="185.71" y1="10.00" x2="185.71" y2="510.00" stroke="#808080" stroke-width="0.5" />
<text x="312.09" y="515.00" font-family="Arial" font-size="12" text-anchor="middle" alignment-baseline="text-before-edge" fill="#000000">Apr</text>
<line x1="270.88" y1="10.00" x2="270.88" y2="510.00" stroke="#808080" stroke-width="0.5" />
<text x="395.88" y="515.00" font-family="Arial" font-size="12" text-anchor="middle" alignment-baseline="text-before-edge" fill="#000000">May</text>
<line x1="353.30" y1="10.00" x2="353.30" y2="510.00" stroke="#808080" stroke-width="0.5" />
<text x="479.67" y="515.00" font-family="Arial" font-size="12" text-anchor="middle" alignment-baseline="text-before-edge" fill="#000000">Jun</text>
<line x1="438.46" y1="10.00" x2="438.46" y2="510.00" stroke="#808080" stroke-width="0.5" />
<text x="563.46" y="515.00" font-family="Arial" font-size="12" text-anchor="middle" alignment-baseline="text-before-edge" fill="#000000">Jul</text>
<line x1="520.88" y1="10.00" x2="520.88" y2="510.00" stroke="#808080" stroke-width="0.5" />
<text x="648.63" y="515.00" font-family="Arial" font-size="12" text-anchor="middle" alignment-baseline="text-before-edge" fill="#000000">Aug</text>
<line x1="606.04" y1="10.00" x2="606.04" y2="510.00" stroke="#808080" stroke-width="0.5" />
<text x="732.42" y="515.00" font-family="Arial" font-size="12" text-anchor="middle" alignment-baseline="text-before-edge" fill="#000000">Sep</text>
<line x1="691.21" y1="10.00" x2="691.21" y2="510.00" stroke="#808080" stroke-width="0.5" />
<text x="816.21" y="515.00" font-family="Arial" font-size="12" text-anchor="middle" alignment-baseline="text-before-edge" fill="#000000">Oct</text>
<line x1="773.63" y1="10.00" x2="773.63" y2="510.00" stroke="#808080" stroke-width="0.5" />
<text x="900.00" y="515.00" font-family="Arial" font-size="12" text-anchor="middle" alignment-baseline="text-before-edge" fill="#000000">Nov</text>
<line x1="858.79" y1="10.00" x2="858.79" y2="510.00" stroke="#808080" stroke-width="0.5" />
<text x="983.10" y="515.00" font-family="Arial" font-size="12" text-anchor="middle" alignment-baseline="text-before-edge" fill="#000000">Dec</text>
<line x1="941.21" y1="10.00" x2="941.21" y2="510.00" stroke="#808080" stroke-width="0.5" />
<line x1="1025.00" y1="10.00" x2="1025.00" y2="510.00" stroke="#808080" stroke-width="0.5" />
</svg>