<svg xmlns="http://www.w3.org/2000/svg" width="1135" height="585" viewBox="0 0 1135 585">
<rect x="0" y="0" width="1135" height="585" fill="#ffffff" stroke="none" stroke-width="0"/>
<rect x="25" y="10" width="1100" height="550" fill="#000000" stroke="none" stroke-width="0"/>
<polygon points="25.00,431.54 25.00,135.93 28.01,135.93 28.01,135.66 31.03,135.66 31.03,135.39 34.04,135.39 34.04,135.11 37.05,135.11 37.05,134.83 40.07,134.83 40.07,134.54 43.08,134.54 43.08,134.25 46.10,134.25 46.10,133.95 49.11,133.95 49.11,133.65 52.12,133.65 52.12,133.35 55.14,133.35 55.14,133.04 58.15,133.04 58.15,132.74 61.16,132.74 61.16,132.42 64.18,132.42 64.18,132.11 67.19,132.11 67.19,131.79 70.21,131.79 70.21,131.48 73.22,131.48 73.22,131.16 76.23,131.16 76.23,130.83 79.25,130.83 79.25,130.51 82.26,130.51 82.26,130.18 85.27,130.18 85.27,129.86 88.29,129.86 88.29,129.53 91.30,129.53 91.30,129.20 94.32,129.20 94.32,128.87 97.33,128.87 97.33,128.54 100.34,128.54 100.34,128.21 103.36,128.21 103.36,127.88 106.37,127.88 106.37,127.55 109.38,127.55 109.38,127.22 112.40,127.22 112.40,126.89 115.41,126.89 115.41,126.56 118.42,126.56 118.42,126.23 121.44,126.23 121.44,125.90 124.45,125.90 124.45,125.57 127.47,125.57 127.47,125.24 130.48,125.24 130.48,124.91 133.49,124.91 133.49,124.58 136.51,124.58 136.51,124.26 139.52,124.26 139.52,123.93 142.53,123.93 142.53,123.60 145.55,123.60 145.55,123.28 148.56,123.28 148.56,122.95 151.58,122.95 151.58,122.63 154.59,122.63 154.59,122.30 157.60,122.30 157.60,121.98 160.62,121.98 160.62,121.66 163.63,121.66 163.63,121.33 166.64,121.33 166.64,121.01 169.66,121.01 169.66,120.69 172.67,120.69 172.67,120.37 175.68,120.37 175.68,120.05 178.70,120.05 178.70,119.73 181.71,119.73 181.71,119.41 184.73,119.41 184.73,119.09 187.74,119.09 187.74,118.77 190.75,118.77 190.75,118.46 193.77,118.46 193.77,118.14 196.78,118.14 196.78,117.82 199.79,117.82 199.79,117.50 202.81,117.50 202.81,117.18 205.82,117.18 205.82,116.86 208.84,116.86 208.84,116.55 211.85,116.55 211.85,116.23 214.86,116.23 214.86,115.91 217.88,115.91 217.88,115.59 220.89,115.59 220.89,115.27 223.90,115.27 223.90,114.95 226.92,114.95 226.92,91.71 229.93,91.71 229.93,91.39 232.95,91.39 232.95,91.07 235.96,91.07 235.96,90.75 238.97,90.75 238.97,90.42 241.99,90.42 241.99,90.10 245.00,90.10 245.00,89.77 248.01,89.77 248.01,89.44 251.03,89.44 251.03,89.11 254.04,89.11 254.04,88.78 257.05,88.78 257.05,88.45 260.07,88.45 260.07,88.12 263.08,88.12 263.08,87.78 266.10,87.78 266.10,87.44 269.11,87.44 269.11,87.11 272.12,87.11 272.12,86.76 275.14,86.76 275.14,86.42 278.15,86.42 278.15,86.08 281.16,86.08 281.16,85.73 284.18,85.73 284.18,85.38 287.19,85.38 287.19,85.03 290.21,85.03 290.21,84.67 293.22,84.67 293.22,84.32 296.23,84.32 296.23,83.96 299.25,83.96 299.25,83.60 302.26,83.60 302.26,83.23 305.27,83.23 305.27,82.87 308.29,82.87 308.29,82.50 311.30,82.50 311.30,82.13 314.32,82.13 314.32,81.75 317.33,81.75 317.33,81.38 320.34,81.38 320.34,81.00 323.36,81.00 323.36,80.62 326.37,80.62 326.37,80.23 329.38,80.23 329.38,79.84 332.40,79.84 332.40,79.45 335.41,79.45 335.41,79.06 338.42,79.06 338.42,78.67 341.44,78.67 341.44,78.27 344.45,78.27 344.45,77.87 347.47,77.87 347.47,77.46 350.48,77.46 350.48,77.06 353.49,77.06 353.49,76.65 356.51,76.65 356.51,76.24 359.52,76.24 359.52,75.83 362.53,75.83 362.53,75.41 365.55,75.41 365.55,74.99 368.56,74.99 368.56,74.57 371.58,74.57 371.58,74.15 374.59,74.15 374.59,73.73 377.60,73.73 377.60,73.30 380.62,73.30 380.62,72.88 383.63,72.88 383.63,72.45 386.64,72.45 386.64,72.02 389.66,72.02 389.66,71.59 392.67,71.59 392.67,71.16 395.68,71.16 395.68,70.73 398.70,70.73 398.70,70.30 401.71,70.30 401.71,69.87 404.73,69.87 404.73,69.44 407.74,69.44 407.74,69.01 410.75,69.01 410.75,68.57 413.77,68.57 413.77,68.15 416.78,68.15 416.78,67.72 419.79,67.72 419.79,67.29 422.81,67.29 422.81,66.86 425.82,66.86 425.82,66.44 428.84,66.44 428.84,66.02 431.85,66.02 431.85,65.60 434.86,65.60 434.86,65.19 437.88,65.19 437.88,64.77 440.89,64.77 440.89,64.37 443.90,64.37 443.90,63.96 446.92,63.96 446.92,63.56 449.93,63.56 449.93,63.17 452.95,63.17 452.95,62.78 455.96,62.78 455.96,62.39 458.97,62.39 458.97,62.02 461.99,62.02 461.99,61.64 465.00,61.64 465.00,61.28 468.01,61.28 468.01,60.92 471.03,60.92 471.03,60.57 474.04,60.57 474.04,60.23 477.05,60.23 477.05,59.90 480.07,59.90 480.07,59.57 483.08,59.57 483.08,59.26 486.10,59.26 486.10,58.95 489.11,58.95 489.11,58.66 492.12,58.66 492.12,58.37 495.14,58.37 495.14,58.10 498.15,58.10 498.15,57.84 501.16,57.84 501.16,57.58 504.18,57.58 504.18,57.35 507.19,57.35 507.19,57.12 510.21,57.12 510.21,56.90 513.22,56.90 513.22,56.70 516.23,56.70 516.23,56.51 519.25,56.51 519.25,56.34 522.26,56.34 522.26,56.18 525.27,56.18 525.27,56.03 528.29,56.03 528.29,55.90 531.30,55.90 531.30,55.78 534.32,55.78 534.32,55.68 537.33,55.68 537.33,55.59 540.34,55.59 540.34,55.51 543.36,55.51 543.36,55.45 546.37,55.45 546.37,55.41 549.38,55.41 549.38,55.38 552.40,55.38 552.40,55.37 555.41,55.37 555.41,55.37 558.42,55.37 558.42,55.39 561.44,55.39 561.44,55.42 564.45,55.42 564.45,55.47 567.47,55.47 567.47,55.53 570.48,55.53 570.48,55.61 573.49,55.61 573.49,55.71 576.51,55.71 576.51,55.82 579.52,55.82 579.52,55.94 582.53,55.94 582.53,56.08 585.55,56.08 585.55,56.23 588.56,56.23 588.56,56.40 591.58,56.40 591.58,56.59 594.59,56.59 594.59,56.79 597.60,56.79 597.60,57.00 600.62,57.00 600.62,57.22 603.63,57.22 603.63,57.46 606.64,57.46 606.64,57.72 609.66,57.72 609.66,57.98 612.67,57.98 612.67,58.26 615.68,58.26 615.68,58.56 618.70,58.56 618.70,58.86 621.71,58.86 621.71,59.18 624.73,59.18 624.73,59.51 627.74,59.51 627.74,59.85 630.75,59.85 630.75,60.21 633.77,60.21 633.77,60.57 636.78,60.57 636.78,60.95 639.79,60.95 639.79,61.33 642.81,61.33 642.81,61.73 645.82,61.73 645.82,62.14 648.84,62.14 648.84,62.55 651.85,62.55 651.85,62.98 654.86,62.98 654.86,63.42 657.88,63.42 657.88,63.86 660.89,63.86 660.89,64.31 663.90,64.31 663.90,64.77 666.92,64.77 666.92,65.24 669.93,65.24 669.93,65.72 672.95,65.72 672.95,66.21 675.96,66.21 675.96,66.70 678.97,66.70 678.97,67.20 681.99,67.20 681.99,67.71 685.00,67.71 685.00,68.22 688.01,68.22 688.01,68.74 691.03,68.74 691.03,69.26 694.04,69.26 694.04,69.79 697.05,69.79 697.05,70.33 700.07,70.33 700.07,70.87 703.08,70.87 703.08,71.42 706.10,71.42 706.10,71.97 709.11,71.97 709.11,72.53 712.12,72.53 712.12,73.09 715.14,73.09 715.14,73.65 718.15,73.65 718.15,74.22 721.16,74.22 721.16,74.79 724.18,74.79 724.18,75.37 727.19,75.37 727.19,75.94 730.21,75.94 730.21,76.52 733.22,76.52 733.22,77.11 736.23,77.11 736.23,77.69 739.25,77.69 739.25,78.28 742.26,78.28 742.26,78.87 745.27,78.87 745.27,79.46 748.29,79.46 748.29,80.06 751.30,80.06 751.30,80.65 754.32,80.65 754.32,81.25 757.33,81.25 757.33,81.84 760.34,81.84 760.34,82.44 763.36,82.44 763.36,83.04 766.37,83.04 766.37,83.64 769.38,83.64 769.38,84.23 772.40,84.23 772.40,84.83 775.41,84.83 775.41,85.43 778.42,85.43 778.42,86.03 781.44,86.03 781.44,86.63 784.45,86.63 784.45,87.22 787.47,87.22 787.47,87.82 790.48,87.82 790.48,88.41 793.49,88.41 793.49,89.01 796.51,89.01 796.51,89.60 799.52,89.60 799.52,90.19 802.53,90.19 802.53,90.78 805.55,90.78 805.55,91.36 808.56,91.36 808.56,91.95 811.58,91.95 811.58,92.53 814.59,92.53 814.59,93.11 817.60,93.11 817.60,93.68 820.62,93.68 820.62,94.26 823.63,94.26 823.63,94.83 826.64,94.83 826.64,95.40 829.66,95.40 829.66,95.96 832.67,95.96 832.67,96.52 835.68,96.52 835.68,97.08 838.70,97.08 838.70,97.63 841.71,97.63 841.71,98.18 844.73,98.18 844.73,98.72 847.74,98.72 847.74,99.26 850.75,99.26 850.75,99.80 853.77,99.80 853.77,100.33 856.78,100.33 856.78,100.86 859.79,100.86 859.79,101.38 862.81,101.38 862.81,101.89 865.82,101.89 865.82,102.40 868.84,102.40 868.84,102.91 871.85,102.91 871.85,103.41 874.86,103.41 874.86,103.90 877.88,103.90 877.88,104.38 880.89,104.38 880.89,104.86 883.90,104.86 883.90,105.34 886.92,105.34 886.92,105.81 889.93,105.81 889.93,106.27 892.95,106.27 892.95,106.72 895.96,106.72 895.96,107.17 898.97,107.17 898.97,107.61 901.99,107.61 901.99,108.04 905.00,108.04 905.00,108.46 908.01,108.46 908.01,108.88 911.03,108.88 911.03,109.29 914.04,109.29 914.04,109.69 917.05,109.69 917.05,110.08 920.07,110.08 920.07,110.46 923.08,110.46 923.08,110.84 926.10,110.84 926.10,111.20 929.11,111.20 929.11,111.56 932.12,111.56 932.12,111.91 935.14,111.91 935.14,112.25 938.15,112.25 938.15,112.58 941.16,112.58 941.16,112.90 944.18,112.90 944.18,136.13 947.19,136.13 947.19,136.43 950.21,136.43 950.21,136.72 953.22,136.72 953.22,137.00 956.23,137.00 956.23,137.27 959.25,137.27 959.25,137.54 962.26,137.54 962.26,137.79 965.27,137.79 965.27,138.03 968.29,138.03 968.29,138.26 971.30,138.26 971.30,138.48 974.32,138.48 974.32,138.69 977.33,138.69 977.33,138.89 980.34,138.89 980.34,139.08 983.36,139.08 983.36,139.25 986.37,139.25 986.37,139.42 989.38,139.42 989.38,139.58 992.40,139.58 992.40,139.72 995.41,139.72 995.41,139.86 998.42,139.86 998.42,139.98 1001.44,139.98 1001.44,140.09 1004.45,140.09 1004.45,140.19 1007.47,140.19 1007.47,140.28 1010.48,140.28 1010.48,140.36 1013.49,140.36 1013.49,140.43 1016.51,140.43 1016.51,140.49 1019.52,140.49 1019.52,140.53 1022.53,140.53 1022.53,140.57 1025.55,140.57 1025.55,140.59 1028.56,140.59 1028.56,140.60 1031.58,140.60 1031.58,140.61 1034.59,140.61 1034.59,140.60 1037.60,140.60 1037.60,140.58 1040.62,140.58 1040.62,140.55 1043.63,140.55 1043.63,140.51 1046.64,140.51 1046.64,140.46 1049.66,140.46 1049.66,140.40 1052.67,140.40 1052.67,140.33 1055.68,140.33 1055.68,140.25 1058.70,140.25 1058.70,140.16 1061.71,140.16 1061.71,140.05 1064.73,140.05 1064.73,139.94 1067.74,139.94 1067.74,139.82 1070.75,139.82 1070.75,139.70 1073.77,139.70 1073.77,139.56 1076.78,139.56 1076.78,139.41 1079.79,139.41 1079.79,139.25 1082.81,139.25 1082.81,139.09 1085.82,139.09 1085.82,138.92 1088.84,138.92 1088.84,138.74 1091.85,138.74 1091.85,138.55 1094.86,138.55 1094.86,138.35 1097.88,138.35 1097.88,138.14 1100.89,138.14 1100.89,137.93 1103.90,137.93 1103.90,137.71 1106.92,137.71 1106.92,137.49 1109.93,137.49 1109.93,137.25 1112.95,137.25 1112.95,137.02 1115.96,137.02 1115.96,136.77 1118.97,136.77 1118.97,136.52 1121.99,136.52 1121.99,136.26 1125.00,136.26 1125.00,431.67 1121.99,431.67 1121.99,431.78 1118.97,431.78 1118.97,431.90 1115.96,431.90 1115.96,432.03 1112.95,432.03 1112.95,432.16 1109.93,432.16 1109.93,432.31 1106.92,432.31 1106.92,432.46 1103.90,432.46 1103.90,432.63 1100.89,432.63 1100.89,432.80 1097.88,432.80 1097.88,432.97 1094.86,432.97 1094.86,433.16 1091.85,433.16 1091.85,433.35 1088.84,433.35 1088.84,433.56 1085.82,433.56 1085.82,433.76 1082.81,433.76 1082.81,433.98 1079.79,433.98 1079.79,434.20 1076.78,434.20 1076.78,434.43 1073.77,434.43 1073.77,434.66 1070.75,434.66 1070.75,434.90 1067.74,434.90 1067.74,435.15 1064.73,435.15 1064.73,435.40 1061.71,435.40 1061.71,435.65 1058.70,435.65 1058.70,435.91 1055.68,435.91 1055.68,436.18 1052.67,436.18 1052.67,436.45 1049.66,436.45 1049.66,436.72 1046.64,436.72 1046.64,437.00 1043.63,437.00 1043.63,437.28 1040.62,437.28 1040.62,437.57 1037.60,437.57 1037.60,437.86 1034.59,437.86 1034.59,438.15 1031.58,438.15 1031.58,438.44 1028.56,438.44 1028.56,438.74 1025.55,438.74 1025.55,439.04 1022.53,439.04 1022.53,439.34 1019.52,439.34 1019.52,439.64 1016.51,439.64 1016.51,439.95 1013.49,439.95 1013.49,440.25 1010.48,440.25 1010.48,440.56 1007.47,440.56 1007.47,440.87 1004.45,440.87 1004.45,441.18 1001.44,441.18 1001.44,441.50 998.42,441.50 998.42,441.81 995.41,441.81 995.41,442.12 992.40,442.12 992.40,442.43 989.38,442.43 989.38,442.75 986.37,442.75 986.37,443.06 983.36,443.06 983.36,443.37 980.34,443.37 980.34,443.69 977.33,443.69 977.33,444.00 974.32,444.00 974.32,444.31 971.30,444.31 971.30,444.63 968.29,444.63 968.29,444.94 965.27,444.94 965.27,445.25 962.26,445.25 962.26,445.56 959.25,445.56 959.25,445.87 956.23,445.87 956.23,446.18 953.22,446.18 953.22,446.49 950.21,446.49 950.21,446.79 947.19,446.79 947.19,447.10 944.18,447.10 944.18,424.49 941.16,424.49 941.16,424.80 938.15,424.80 938.15,425.10 935.14,425.10 935.14,425.40 932.12,425.40 932.12,425.70 929.11,425.70 929.11,426.01 926.10,426.01 926.10,426.31 923.08,426.31 923.08,426.61 920.07,426.61 920.07,426.90 917.05,426.90 917.05,427.20 914.04,427.20 914.04,427.50 911.03,427.50 911.03,427.79 908.01,427.79 908.01,428.09 905.00,428.09 905.00,428.38 901.99,428.38 901.99,428.68 898.97,428.68 898.97,428.97 895.96,428.97 895.96,429.26 892.95,429.26 892.95,429.56 889.93,429.56 889.93,429.85 886.92,429.85 886.92,430.14 883.90,430.14 883.90,430.43 880.89,430.43 880.89,430.72 877.88,430.72 877.88,431.01 874.86,431.01 874.86,431.31 871.85,431.31 871.85,431.60 868.84,431.60 868.84,431.89 865.82,431.89 865.82,432.18 862.81,432.18 862.81,432.47 859.79,432.47 859.79,432.76 856.78,432.76 856.78,433.06 853.77,433.06 853.77,433.35 850.75,433.35 850.75,433.64 847.74,433.64 847.74,433.94 844.73,433.94 844.73,434.24 841.71,434.24 841.71,434.53 838.70,434.53 838.70,434.83 835.68,434.83 835.68,435.13 832.67,435.13 832.67,435.43 829.66,435.43 829.66,435.73 826.64,435.73 826.64,436.04 823.63,436.04 823.63,436.34 820.62,436.34 820.62,436.65 817.60,436.65 817.60,436.96 814.59,436.96 814.59,437.26 811.58,437.26 811.58,437.58 808.56,437.58 808.56,437.89 805.55,437.89 805.55,438.21 802.53,438.21 802.53,438.52 799.52,438.52 799.52,438.84 796.51,438.84 796.51,439.17 793.49,439.17 793.49,439.49 790.48,439.49 790.48,439.82 787.47,439.82 787.47,440.14 784.45,440.14 784.45,440.48 781.44,440.48 781.44,440.81 778.42,440.81 778.42,441.15 775.41,441.15 775.41,441.48 772.40,441.48 772.40,441.83 769.38,441.83 769.38,442.17 766.37,442.17 766.37,442.52 763.36,442.52 763.36,442.87 760.34,442.87 760.34,443.22 757.33,443.22 757.33,443.58 754.32,443.58 754.32,443.93 751.30,443.93 751.30,444.29 748.29,444.29 748.29,444.66 745.27,444.66 745.27,445.03 742.26,445.03 742.26,445.40 739.25,445.40 739.25,445.77 736.23,445.77 736.23,446.14 733.22,446.14 733.22,446.52 730.21,446.52 730.21,446.90 727.19,446.90 727.19,447.28 724.18,447.28 724.18,447.67 721.16,447.67 721.16,448.06 718.15,448.06 718.15,448.45 715.14,448.45 715.14,448.84 712.12,448.84 712.12,449.24 709.11,449.24 709.11,449.63 706.10,449.63 706.10,450.03 703.08,450.03 703.08,450.43 700.07,450.43 700.07,450.83 697.05,450.83 697.05,451.24 694.04,451.24 694.04,451.64 691.03,451.64 691.03,452.05 688.01,452.05 688.01,452.46 685.00,452.46 685.00,452.87 681.99,452.87 681.99,453.28 678.97,453.28 678.97,453.69 675.96,453.69 675.96,454.10 672.95,454.10 672.95,454.51 669.93,454.51 669.93,454.92 666.92,454.92 666.92,455.33 663.90,455.33 663.90,455.74 660.89,455.74 660.89,456.15 657.88,456.15 657.88,456.56 654.86,456.56 654.86,456.96 651.85,456.96 651.85,457.37 648.84,457.37 648.84,457.77 645.82,457.77 645.82,458.17 642.81,458.17 642.81,458.57 639.79,458.57 639.79,458.96 636.78,458.96 636.78,459.35 633.77,459.35 633.77,459.74 630.75,459.74 630.75,460.12 627.74,460.12 627.74,460.50 624.73,460.50 624.73,460.87 621.71,460.87 621.71,461.24 618.70,461.24 618.70,461.60 615.68,461.60 615.68,461.96 612.67,461.96 612.67,462.31 609.66,462.31 609.66,462.65 606.64,462.65 606.64,462.98 603.63,462.98 603.63,463.31 600.62,463.31 600.62,463.63 597.60,463.63 597.60,463.94 594.59,463.94 594.59,464.24 591.58,464.24 591.58,464.53 588.56,464.53 588.56,464.81 585.55,464.81 585.55,465.08 582.53,465.08 582.53,465.35 579.52,465.35 579.52,465.60 576.51,465.60 576.51,465.84 573.49,465.84 573.49,466.06 570.48,466.06 570.48,466.28 567.47,466.28 567.47,466.48 564.45,466.48 564.45,466.67 561.44,466.67 561.44,466.85 558.42,466.85 558.42,467.02 555.41,467.02 555.41,467.17 552.40,467.17 552.40,467.30 549.38,467.30 549.38,467.43 546.37,467.43 546.37,467.54 543.36,467.54 543.36,467.63 540.34,467.63 540.34,467.71 537.33,467.71 537.33,467.78 534.32,467.78 534.32,467.83 531.30,467.83 531.30,467.87 528.29,467.87 528.29,467.89 525.27,467.89 525.27,467.90 522.26,467.90 522.26,467.89 519.25,467.89 519.25,467.87 516.23,467.87 516.23,467.83 513.22,467.83 513.22,467.77 510.21,467.77 510.21,467.70 507.19,467.70 507.19,467.62 504.18,467.62 504.18,467.52 501.16,467.52 501.16,467.41 498.15,467.41 498.15,467.28 495.14,467.28 495.14,467.14 492.12,467.14 492.12,466.98 489.11,466.98 489.11,466.81 486.10,466.81 486.10,466.62 483.08,466.62 483.08,466.42 480.07,466.42 480.07,466.21 477.05,466.21 477.05,465.98 474.04,465.98 474.04,465.74 471.03,465.74 471.03,465.48 468.01,465.48 468.01,465.21 465.00,465.21 465.00,464.93 461.99,464.93 461.99,464.64 458.97,464.64 458.97,464.33 455.96,464.33 455.96,464.02 452.95,464.02 452.95,463.69 449.93,463.69 449.93,463.35 446.92,463.35 446.92,462.99 443.90,462.99 443.90,462.63 440.89,462.63 440.89,462.26 437.88,462.26 437.88,461.87 434.86,461.87 434.86,461.48 431.85,461.48 431.85,461.08 428.84,461.08 428.84,460.66 425.82,460.66 425.82,460.24 422.81,460.24 422.81,459.81 419.79,459.81 419.79,459.37 416.78,459.37 416.78,458.92 413.77,458.92 413.77,458.46 410.75,458.46 410.75,458.00 407.74,458.00 407.74,457.52 404.73,457.52 404.73,457.04 401.71,457.04 401.71,456.55 398.70,456.55 398.70,456.06 395.68,456.06 395.68,455.56 392.67,455.56 392.67,455.05 389.66,455.05 389.66,454.54 386.64,454.54 386.64,454.02 383.63,454.02 383.63,453.50 380.62,453.50 380.62,452.97 377.60,452.97 377.60,452.43 374.59,452.43 374.59,451.89 371.58,451.89 371.58,451.35 368.56,451.35 368.56,450.80 365.55,450.80 365.55,450.25 362.53,450.25 362.53,449.69 359.52,449.69 359.52,449.14 356.51,449.14 356.51,448.57 353.49,448.57 353.49,448.01 350.48,448.01 350.48,447.44 347.47,447.44 347.47,446.87 344.45,446.87 344.45,446.30 341.44,446.30 341.44,445.72 338.42,445.72 338.42,445.15 335.41,445.15 335.41,444.57 332.40,444.57 332.40,443.99 329.38,443.99 329.38,443.41 326.37,443.41 326.37,442.82 323.36,442.82 323.36,442.24 320.34,442.24 320.34,441.66 317.33,441.66 317.33,441.07 314.32,441.07 314.32,440.49 311.30,440.49 311.30,439.90 308.29,439.90 308.29,439.32 305.27,439.32 305.27,438.73 302.26,438.73 302.26,438.15 299.25,438.15 299.25,437.56 296.23,437.56 296.23,436.98 293.22,436.98 293.22,436.40 290.21,436.40 290.21,435.82 287.19,435.82 287.19,435.24 284.18,435.24 284.18,434.66 281.16,434.66 281.16,434.09 278.15,434.09 278.15,433.51 275.14,433.51 275.14,432.94 272.12,432.94 272.12,432.37 269.11,432.37 269.11,431.81 266.10,431.81 266.10,431.24 263.08,431.24 263.08,430.68 260.07,430.68 260.07,430.12 257.05,430.12 257.05,429.57 254.04,429.57 254.04,429.02 251.03,429.02 251.03,428.47 248.01,428.47 248.01,427.93 245.00,427.93 245.00,427.39 241.99,427.39 241.99,426.85 238.97,426.85 238.97,426.32 235.96,426.32 235.96,425.79 232.95,425.79 232.95,425.27 229.93,425.27 229.93,424.75 226.92,424.75 226.92,447.16 223.90,447.16 223.90,446.65 220.89,446.65 220.89,446.15 217.88,446.15 217.88,445.65 214.86,445.65 214.86,445.16 211.85,445.16 211.85,444.68 208.84,444.68 208.84,444.20 205.82,444.20 205.82,443.72 202.81,443.72 202.81,443.26 199.79,443.26 199.79,442.80 196.78,442.80 196.78,442.34 193.77,442.34 193.77,441.90 190.75,441.90 190.75,441.46 187.74,441.46 187.74,441.02 184.73,441.02 184.73,440.60 181.71,440.60 181.71,440.18 178.70,440.18 178.70,439.77 175.68,439.77 175.68,439.37 172.67,439.37 172.67,438.98 169.66,438.98 169.66,438.59 166.64,438.59 166.64,438.21 163.63,438.21 163.63,437.84 160.62,437.84 160.62,437.48 157.60,437.48 157.60,437.13 154.59,437.13 154.59,436.79 151.58,436.79 151.58,436.45 148.56,436.45 148.56,436.13 145.55,436.13 145.55,435.81 142.53,435.81 142.53,435.51 139.52,435.51 139.52,435.21 136.51,435.21 136.51,434.92 133.49,434.92 133.49,434.65 130.48,434.65 130.48,434.38 127.47,434.38 127.47,434.12 124.45,434.12 124.45,433.87 121.44,433.87 121.44,433.64 118.42,433.64 118.42,433.41 115.41,433.41 115.41,433.19 112.40,433.19 112.40,432.99 109.38,432.99 109.38,432.79 106.37,432.79 106.37,432.61 103.36,432.61 103.36,432.43 100.34,432.43 100.34,432.27 97.33,432.27 97.33,432.11 94.32,432.11 94.32,431.97 91.30,431.97 91.30,431.84 88.29,431.84 88.29,431.72 85.27,431.72 85.27,431.61 82.26,431.61 82.26,431.51 79.25,431.51 79.25,431.42 76.23,431.42 76.23,431.34 73.22,431.34 73.22,431.28 70.21,431.28 70.21,431.22 67.19,431.22 67.19,431.18 64.18,431.18 64.18,431.14 61.16,431.14 61.16,431.12 58.15,431.12 58.15,431.11 55.14,431.11 55.14,431.10 52.12,431.10 52.12,431.11 49.11,431.11 49.11,431.13 46.10,431.13 46.10,431.16 43.08,431.16 43.08,431.20 40.07,431.20 40.07,431.25 37.05,431.25 37.05,431.31 34.04,431.31 34.04,431.38 31.03,431.38 31.03,431.46 28.01,431.46 28.01,431.54" fill="#002040" stroke="none" stroke-width="0"/>
<polygon points="25.00,419.87 25.00,147.61 28.01,147.61 28.01,147.33 31.03,147.33 31.03,147.05 34.04,147.05 34.04,146.76 37.05,146.76 37.05,146.47 40.07,146.47 40.07,146.17 43.08,146.17 43.08,145.87 46.10,145.87 46.10,145.57 49.11,145.57 49.11,145.26 52.12,145.26 52.12,144.94 55.14,144.94 55.14,144.63 58.15,144.63 58.15,144.30 61.16,144.30 61.16,143.98 64.18,143.98 64.18,143.65 67.19,143.65 67.19,143.33 70.21,143.33 70.21,142.99 73.22,142.99 73.22,142.66 76.23,142.66 76.23,142.33 79.25,142.33 79.25,141.99 82.26,141.99 82.26,141.65 85.27,141.65 85.27,141.31 88.29,141.31 88.29,140.97 91.30,140.97 91.30,140.63 94.32,140.63 94.32,140.28 97.33,140.28 97.33,139.94 100.34,139.94 100.34,139.60 103.36,139.60 103.36,139.25 106.37,139.25 106.37,138.91 109.38,138.91 109.38,138.57 112.40,138.57 112.40,138.22 115.41,138.22 115.41,137.88 118.42,137.88 118.42,137.53 121.44,137.53 121.44,137.19 124.45,137.19 124.45,136.85 127.47,136.85 127.47,136.51 130.48,136.51 130.48,136.17 133.49,136.17 133.49,135.83 136.51,135.83 136.51,135.49 139.52,135.49 139.52,135.15 142.53,135.15 142.53,134.81 145.55,134.81 145.55,134.48 148.56,134.48 148.56,134.14 151.58,134.14 151.58,133.81 154.59,133.81 154.59,133.48 157.60,133.48 157.60,133.15 160.62,133.15 160.62,132.82 163.63,132.82 163.63,132.49 166.64,132.49 166.64,132.16 169.66,132.16 169.66,131.83 172.67,131.83 172.67,131.51 175.68,131.51 175.68,131.18 178.70,131.18 178.70,130.86 181.71,130.86 181.71,130.54 184.73,130.54 184.73,130.22 187.74,130.22 187.74,129.90 190.75,129.90 190.75,129.58 193.77,129.58 193.77,129.26 196.78,129.26 196.78,128.94 199.79,128.94 199.79,128.62 202.81,128.62 202.81,128.31 205.82,128.31 205.82,127.99 208.84,127.99 208.84,127.68 211.85,127.68 211.85,127.36 214.86,127.36 214.86,127.05 217.88,127.05 217.88,126.74 220.89,126.74 220.89,126.43 223.90,126.43 223.90,126.11 226.92,126.11 226.92,102.89 229.93,102.89 229.93,102.57 232.95,102.57 232.95,102.26 235.96,102.26 235.96,101.95 238.97,101.95 238.97,101.64 241.99,101.64 241.99,101.33 245.00,101.33 245.00,101.01 248.01,101.01 248.01,100.70 251.03,100.70 251.03,100.39 254.04,100.39 254.04,100.08 257.05,100.08 257.05,99.76 260.07,99.76 260.07,99.45 263.08,99.45 263.08,99.13 266.10,99.13 266.10,98.82 269.11,98.82 269.11,98.50 272.12,98.50 272.12,98.18 275.14,98.18 275.14,97.86 278.15,97.86 278.15,97.54 281.16,97.54 281.16,97.22 284.18,97.22 284.18,96.90 287.19,96.90 287.19,96.57 290.21,96.57 290.21,96.25 293.22,96.25 293.22,95.92 296.23,95.92 296.23,95.59 299.25,95.59 299.25,95.26 302.26,95.26 302.26,94.93 305.27,94.93 305.27,94.60 308.29,94.60 308.29,94.27 311.30,94.27 311.30,93.93 314.32,93.93 314.32,93.60 317.33,93.60 317.33,93.26 320.34,93.26 320.34,92.92 323.36,92.92 323.36,92.57 326.37,92.57 326.37,92.23 329.38,92.23 329.38,91.89 332.40,91.89 332.40,91.54 335.41,91.54 335.41,91.19 338.42,91.19 338.42,90.84 341.44,90.84 341.44,90.49 344.45,90.49 344.45,90.13 347.47,90.13 347.47,89.78 350.48,89.78 350.48,89.42 353.49,89.42 353.49,89.06 356.51,89.06 356.51,88.70 359.52,88.70 359.52,88.34 362.53,88.34 362.53,87.98 365.55,87.98 365.55,87.61 368.56,87.61 368.56,87.25 371.58,87.25 371.58,86.88 374.59,86.88 374.59,86.51 377.60,86.51 377.60,86.14 380.62,86.14 380.62,85.77 383.63,85.77 383.63,85.40 386.64,85.40 386.64,85.03 389.66,85.03 389.66,84.66 392.67,84.66 392.67,84.29 395.68,84.29 395.68,83.92 398.70,83.92 398.70,83.55 401.71,83.55 401.71,83.18 404.73,83.18 404.73,82.81 407.74,82.81 407.74,82.44 410.75,82.44 410.75,82.07 413.77,82.07 413.77,81.70 416.78,81.70 416.78,81.33 419.79,81.33 419.79,80.97 422.81,80.97 422.81,80.60 425.82,80.60 425.82,80.24 428.84,80.24 428.84,79.88 431.85,79.88 431.85,79.53 434.86,79.53 434.86,79.17 437.88,79.17 437.88,78.82 440.89,78.82 440.89,78.47 443.90,78.47 443.90,78.13 446.92,78.13 446.92,77.79 449.93,77.79 449.93,77.45 452.95,77.45 452.95,77.12 455.96,77.12 455.96,76.79 458.97,76.79 458.97,76.47 461.99,76.47 461.99,76.15 465.00,76.15 465.00,75.84 468.01,75.84 468.01,75.53 471.03,75.53 471.03,75.23 474.04,75.23 474.04,74.94 477.05,74.94 477.05,74.66 480.07,74.66 480.07,74.38 483.08,74.38 483.08,74.11 486.10,74.11 486.10,73.84 489.11,73.84 489.11,73.59 492.12,73.59 492.12,73.34 495.14,73.34 495.14,73.10 498.15,73.10 498.15,72.87 501.16,72.87 501.16,72.66 504.18,72.66 504.18,72.45 507.19,72.45 507.19,72.25 510.21,72.25 510.21,72.06 513.22,72.06 513.22,71.88 516.23,71.88 516.23,71.71 519.25,71.71 519.25,71.55 522.26,71.55 522.26,71.40 525.27,71.40 525.27,71.27 528.29,71.27 528.29,71.14 531.30,71.14 531.30,71.03 534.32,71.03 534.32,70.93 537.33,70.93 537.33,70.84 540.34,70.84 540.34,70.77 543.36,70.77 543.36,70.70 546.37,70.70 546.37,70.65 549.38,70.65 549.38,70.61 552.40,70.61 552.40,70.59 555.41,70.59 555.41,70.57 558.42,70.57 558.42,70.57 561.44,70.57 561.44,70.59 564.45,70.59 564.45,70.61 567.47,70.61 567.47,70.65 570.48,70.65 570.48,70.70 573.49,70.70 573.49,70.76 576.51,70.76 576.51,70.84 579.52,70.84 579.52,70.93 582.53,70.93 582.53,71.03 585.55,71.03 585.55,71.15 588.56,71.15 588.56,71.28 591.58,71.28 591.58,71.42 594.59,71.42 594.59,71.57 597.60,71.57 597.60,71.74 600.62,71.74 600.62,71.92 603.63,71.92 603.63,72.11 606.64,72.11 606.64,72.31 609.66,72.31 609.66,72.52 612.67,72.52 612.67,72.75 615.68,72.75 615.68,72.99 618.70,72.99 618.70,73.24 621.71,73.24 621.71,73.50 624.73,73.50 624.73,73.77 627.74,73.77 627.74,74.06 630.75,74.06 630.75,74.35 633.77,74.35 633.77,74.66 636.78,74.66 636.78,74.97 639.79,74.97 639.79,75.30 642.81,75.30 642.81,75.64 645.82,75.64 645.82,75.98 648.84,75.98 648.84,76.34 651.85,76.34 651.85,76.70 654.86,76.70 654.86,77.08 657.88,77.08 657.88,77.46 660.89,77.46 660.89,77.85 663.90,77.85 663.90,78.25 666.92,78.25 666.92,78.66 669.93,78.66 669.93,79.08 672.95,79.08 672.95,79.50 675.96,79.50 675.96,79.94 678.97,79.94 678.97,80.38 681.99,80.38 681.99,80.83 685.00,80.83 685.00,81.28 688.01,81.28 688.01,81.74 691.03,81.74 691.03,82.21 694.04,82.21 694.04,82.68 697.05,82.68 697.05,83.16 700.07,83.16 700.07,83.65 703.08,83.65 703.08,84.14 706.10,84.14 706.10,84.64 709.11,84.64 709.11,85.14 712.12,85.14 712.12,85.65 715.14,85.65 715.14,86.16 718.15,86.16 718.15,86.68 721.16,86.68 721.16,87.20 724.18,87.20 724.18,87.73 727.19,87.73 727.19,88.25 730.21,88.25 730.21,88.79 733.22,88.79 733.22,89.33 736.23,89.33 736.23,89.87 739.25,89.87 739.25,90.41 742.26,90.41 742.26,90.96 745.27,90.96 745.27,91.50 748.29,91.50 748.29,92.06 751.30,92.06 751.30,92.61 754.32,92.61 754.32,93.16 757.33,93.16 757.33,93.72 760.34,93.72 760.34,94.28 763.36,94.28 763.36,94.84 766.37,94.84 766.37,95.41 769.38,95.41 769.38,95.97 772.40,95.97 772.40,96.53 775.41,96.53 775.41,97.10 778.42,97.10 778.42,97.66 781.44,97.66 781.44,98.23 784.45,98.23 784.45,98.80 787.47,98.80 787.47,99.36 790.48,99.36 790.48,99.93 793.49,99.93 793.49,100.50 796.51,100.50 796.51,101.06 799.52,101.06 799.52,101.63 802.53,101.63 802.53,102.19 805.55,102.19 805.55,102.75 808.56,102.75 808.56,103.32 811.58,103.32 811.58,103.88 814.59,103.88 814.59,104.44 817.60,104.44 817.60,104.99 820.62,104.99 820.62,105.55 823.63,105.55 823.63,106.10 826.64,106.10 826.64,106.65 829.66,106.65 829.66,107.20 832.67,107.20 832.67,107.75 835.68,107.75 835.68,108.29 838.70,108.29 838.70,108.83 841.71,108.83 841.71,109.37 844.73,109.37 844.73,109.90 847.74,109.90 847.74,110.43 850.75,110.43 850.75,110.96 853.77,110.96 853.77,111.48 856.78,111.48 856.78,112.00 859.79,112.00 859.79,112.51 862.81,112.51 862.81,113.02 865.82,113.02 865.82,113.52 868.84,113.52 868.84,114.02 871.85,114.02 871.85,114.52 874.86,114.52 874.86,115.01 877.88,115.01 877.88,115.49 880.89,115.49 880.89,115.97 883.90,115.97 883.90,116.44 886.92,116.44 886.92,116.91 889.93,116.91 889.93,117.37 892.95,117.37 892.95,117.83 895.96,117.83 895.96,118.28 898.97,118.28 898.97,118.72 901.99,118.72 901.99,119.15 905.00,119.15 905.00,119.58 908.01,119.58 908.01,120.00 911.03,120.00 911.03,120.42 914.04,120.42 914.04,120.82 917.05,120.82 917.05,121.22 920.07,121.22 920.07,121.61 923.08,121.61 923.08,122.00 926.10,122.00 926.10,122.37 929.11,122.37 929.11,122.74 932.12,122.74 932.12,123.09 935.14,123.09 935.14,123.44 938.15,123.44 938.15,123.78 941.16,123.78 941.16,124.11 944.18,124.11 944.18,147.35 947.19,147.35 947.19,147.66 950.21,147.66 950.21,147.97 953.22,147.97 953.22,148.26 956.23,148.26 956.23,148.55 959.25,148.55 959.25,148.82 962.26,148.82 962.26,149.08 965.27,149.08 965.27,149.34 968.29,149.34 968.29,149.58 971.30,149.58 971.30,149.82 974.32,149.82 974.32,150.04 977.33,150.04 977.33,150.25 980.34,150.25 980.34,150.45 983.36,150.45 983.36,150.65 986.37,150.65 986.37,150.83 989.38,150.83 989.38,151.00 992.40,151.00 992.40,151.15 995.41,151.15 995.41,151.30 998.42,151.30 998.42,151.44 1001.44,151.44 1001.44,151.57 1004.45,151.57 1004.45,151.68 1007.47,151.68 1007.47,151.78 1010.48,151.78 1010.48,151.88 1013.49,151.88 1013.49,151.96 1016.51,151.96 1016.51,152.03 1019.52,152.03 1019.52,152.08 1022.53,152.08 1022.53,152.13 1025.55,152.13 1025.55,152.17 1028.56,152.17 1028.56,152.19 1031.58,152.19 1031.58,152.21 1034.59,152.21 1034.59,152.21 1037.60,152.21 1037.60,152.20 1040.62,152.20 1040.62,152.18 1043.63,152.18 1043.63,152.15 1046.64,152.15 1046.64,152.11 1049.66,152.11 1049.66,152.06 1052.67,152.06 1052.67,151.99 1055.68,151.99 1055.68,151.92 1058.70,151.92 1058.70,151.84 1061.71,151.84 1061.71,151.74 1064.73,151.74 1064.73,151.64 1067.74,151.64 1067.74,151.52 1070.75,151.52 1070.75,151.40 1073.77,151.40 1073.77,151.26 1076.78,151.26 1076.78,151.12 1079.79,151.12 1079.79,150.97 1082.81,150.97 1082.81,150.80 1085.82,150.80 1085.82,150.63 1088.84,150.63 1088.84,150.45 1091.85,150.45 1091.85,150.26 1094.86,150.26 1094.86,150.07 1097.88,150.07 1097.88,149.86 1100.89,149.86 1100.89,149.65 1103.90,149.65 1103.90,149.43 1106.92,149.43 1106.92,149.20 1109.93,149.20 1109.93,148.96 1112.95,148.96 1112.95,148.72 1115.96,148.72 1115.96,148.47 1118.97,148.47 1118.97,148.21 1121.99,148.21 1121.99,147.95 1125.00,147.95 1125.00,419.98 1121.99,419.98 1121.99,420.09 1118.97,420.09 1118.97,420.20 1115.96,420.20 1115.96,420.33 1112.95,420.33 1112.95,420.46 1109.93,420.46 1109.93,420.60 1106.92,420.60 1106.92,420.75 1103.90,420.75 1103.90,420.91 1100.89,420.91 1100.89,421.08 1097.88,421.08 1097.88,421.26 1094.86,421.26 1094.86,421.44 1091.85,421.44 1091.85,421.64 1088.84,421.64 1088.84,421.84 1085.82,421.84 1085.82,422.05 1082.81,422.05 1082.81,422.26 1079.79,422.26 1079.79,422.49 1076.78,422.49 1076.78,422.72 1073.77,422.72 1073.77,422.96 1070.75,422.96 1070.75,423.20 1067.74,423.20 1067.74,423.45 1064.73,423.45 1064.73,423.71 1061.71,423.71 1061.71,423.97 1058.70,423.97 1058.70,424.24 1055.68,424.24 1055.68,424.51 1052.67,424.51 1052.67,424.79 1049.66,424.79 1049.66,425.07 1046.64,425.07 1046.64,425.36 1043.63,425.36 1043.63,425.65 1040.62,425.65 1040.62,425.95 1037.60,425.95 1037.60,426.24 1034.59,426.24 1034.59,426.55 1031.58,426.55 1031.58,426.85 1028.56,426.85 1028.56,427.16 1025.55,427.16 1025.55,427.47 1022.53,427.47 1022.53,427.79 1019.52,427.79 1019.52,428.10 1016.51,428.10 1016.51,428.42 1013.49,428.42 1013.49,428.74 1010.48,428.74 1010.48,429.06 1007.47,429.06 1007.47,429.38 1004.45,429.38 1004.45,429.71 1001.44,429.71 1001.44,430.03 998.42,430.03 998.42,430.36 995.41,430.36 995.41,430.69 992.40,430.69 992.40,431.01 989.38,431.01 989.38,431.34 986.37,431.34 986.37,431.67 983.36,431.67 983.36,431.99 980.34,431.99 980.34,432.32 977.33,432.32 977.33,432.65 974.32,432.65 974.32,432.97 971.30,432.97 971.30,433.30 968.29,433.30 968.29,433.62 965.27,433.62 965.27,433.95 962.26,433.95 962.26,434.27 959.25,434.27 959.25,434.59 956.23,434.59 956.23,434.91 953.22,434.91 953.22,435.23 950.21,435.23 950.21,435.55 947.19,435.55 947.19,435.87 944.18,435.87 944.18,413.27 941.16,413.27 941.16,413.58 938.15,413.58 938.15,413.90 935.14,413.90 935.14,414.21 932.12,414.21 932.12,414.52 929.11,414.52 929.11,414.83 926.10,414.83 926.10,415.14 923.08,415.14 923.08,415.45 920.07,415.45 920.07,415.75 917.05,415.75 917.05,416.05 914.04,416.05 914.04,416.36 911.03,416.36 911.03,416.66 908.01,416.66 908.01,416.96 905.00,416.96 905.00,417.26 901.99,417.26 901.99,417.55 898.97,417.55 898.97,417.85 895.96,417.85 895.96,418.14 892.95,418.14 892.95,418.44 889.93,418.44 889.93,418.73 886.92,418.73 886.92,419.02 883.90,419.02 883.90,419.31 880.89,419.31 880.89,419.60 877.88,419.60 877.88,419.89 874.86,419.89 874.86,420.17 871.85,420.17 871.85,420.46 868.84,420.46 868.84,420.75 865.82,420.75 865.82,421.03 862.81,421.03 862.81,421.32 859.79,421.32 859.79,421.60 856.78,421.60 856.78,421.89 853.77,421.89 853.77,422.17 850.75,422.17 850.75,422.46 847.74,422.46 847.74,422.74 844.73,422.74 844.73,423.02 841.71,423.02 841.71,423.31 838.70,423.31 838.70,423.59 835.68,423.59 835.68,423.88 832.67,423.88 832.67,424.16 829.66,424.16 829.66,424.45 826.64,424.45 826.64,424.74 823.63,424.74 823.63,425.02 820.62,425.02 820.62,425.31 817.60,425.31 817.60,425.60 814.59,425.60 814.59,425.89 811.58,425.89 811.58,426.18 808.56,426.18 808.56,426.47 805.55,426.47 805.55,426.76 802.53,426.76 802.53,427.05 799.52,427.05 799.52,427.34 796.51,427.34 796.51,427.64 793.49,427.64 793.49,427.94 790.48,427.94 790.48,428.23 787.47,428.23 787.47,428.53 784.45,428.53 784.45,428.83 781.44,428.83 781.44,429.14 778.42,429.14 778.42,429.44 775.41,429.44 775.41,429.74 772.40,429.74 772.40,430.05 769.38,430.05 769.38,430.36 766.37,430.36 766.37,430.67 763.36,430.67 763.36,430.98 760.34,430.98 760.34,431.30 757.33,431.30 757.33,431.61 754.32,431.61 754.32,431.93 751.30,431.93 751.30,432.25 748.29,432.25 748.29,432.57 745.27,432.57 745.27,432.89 742.26,432.89 742.26,433.22 739.25,433.22 739.25,433.55 736.23,433.55 736.23,433.87 733.22,433.87 733.22,434.20 730.21,434.20 730.21,434.54 727.19,434.54 727.19,434.87 724.18,434.87 724.18,435.21 721.16,435.21 721.16,435.54 718.15,435.54 718.15,435.88 715.14,435.88 715.14,436.22 712.12,436.22 712.12,436.57 709.11,436.57 709.11,436.91 706.10,436.91 706.10,437.25 703.08,437.25 703.08,437.60 700.07,437.60 700.07,437.94 697.05,437.94 697.05,438.29 694.04,438.29 694.04,438.64 691.03,438.64 691.03,438.99 688.01,438.99 688.01,439.34 685.00,439.34 685.00,439.69 681.99,439.69 681.99,440.04 678.97,440.04 678.97,440.39 675.96,440.39 675.96,440.74 672.95,440.74 672.95,441.09 669.93,441.09 669.93,441.44 666.92,441.44 666.92,441.79 663.90,441.79 663.90,442.14 660.89,442.14 660.89,442.49 657.88,442.49 657.88,442.83 654.86,442.83 654.86,443.18 651.85,443.18 651.85,443.52 648.84,443.52 648.84,443.86 645.82,443.86 645.82,444.20 642.81,444.20 642.81,444.54 639.79,444.54 639.79,444.88 636.78,444.88 636.78,445.21 633.77,445.21 633.77,445.54 630.75,445.54 630.75,445.86 627.74,445.86 627.74,446.18 624.73,446.18 624.73,446.50 621.71,446.50 621.71,446.81 618.70,446.81 618.70,447.12 615.68,447.12 615.68,447.42 612.67,447.42 612.67,447.71 609.66,447.71 609.66,448.01 606.64,448.01 606.64,448.29 603.63,448.29 603.63,448.57 600.62,448.57 600.62,448.84 597.60,448.84 597.60,449.11 594.59,449.11 594.59,449.37 591.58,449.37 591.58,449.62 588.56,449.62 588.56,449.86 585.55,449.86 585.55,450.09 582.53,450.09 582.53,450.32 579.52,450.32 579.52,450.54 576.51,450.54 576.51,450.75 573.49,450.75 573.49,450.95 570.48,450.95 570.48,451.14 567.47,451.14 567.47,451.32 564.45,451.32 564.45,451.49 561.44,451.49 561.44,451.65 558.42,451.65 558.42,451.80 555.41,451.80 555.41,451.93 552.40,451.93 552.40,452.06 549.38,452.06 549.38,452.18 546.37,452.18 546.37,452.28 543.36,452.28 543.36,452.38 540.34,452.38 540.34,452.46 537.33,452.46 537.33,452.53 534.32,452.53 534.32,452.59 531.30,452.59 531.30,452.63 528.29,452.63 528.29,452.66 525.27,452.66 525.27,452.69 522.26,452.69 522.26,452.69 519.25,452.69 519.25,452.69 516.23,452.69 516.23,452.67 513.22,452.67 513.22,452.65 510.21,452.65 510.21,452.60 507.19,452.60 507.19,452.55 504.18,452.55 504.18,452.48 501.16,452.48 501.16,452.40 498.15,452.40 498.15,452.31 495.14,452.31 495.14,452.21 492.12,452.21 492.12,452.09 489.11,452.09 489.11,451.96 486.10,451.96 486.10,451.82 483.08,451.82 483.08,451.66 480.07,451.66 480.07,451.49 477.05,451.49 477.05,451.32 474.04,451.32 474.04,451.12 471.03,451.12 471.03,450.92 468.01,450.92 468.01,450.71 465.00,450.71 465.00,450.48 461.99,450.48 461.99,450.24 458.97,450.24 458.97,449.99 455.96,449.99 455.96,449.73 452.95,449.73 452.95,449.46 449.93,449.46 449.93,449.18 446.92,449.18 446.92,448.89 443.90,448.89 443.90,448.59 440.89,448.59 440.89,448.27 437.88,448.27 437.88,447.95 434.86,447.95 434.86,447.62 431.85,447.62 431.85,447.27 428.84,447.27 428.84,446.92 425.82,446.92 425.82,446.56 422.81,446.56 422.81,446.19 419.79,446.19 419.79,445.81 416.78,445.81 416.78,445.42 413.77,445.42 413.77,445.03 410.75,445.03 410.75,444.62 407.74,444.62 407.74,444.21 404.73,444.21 404.73,443.79 401.71,443.79 401.71,443.37 398.70,443.37 398.70,442.93 395.68,442.93 395.68,442.49 392.67,442.49 392.67,442.04 389.66,442.04 389.66,441.59 386.64,441.59 386.64,441.13 383.63,441.13 383.63,440.66 380.62,440.66 380.62,440.19 377.60,440.19 377.60,439.71 374.59,439.71 374.59,439.22 371.58,439.22 371.58,438.73 368.56,438.73 368.56,438.24 365.55,438.24 365.55,437.74 362.53,437.74 362.53,437.23 359.52,437.23 359.52,436.73 356.51,436.73 356.51,436.21 353.49,436.21 353.49,435.70 350.48,435.70 350.48,435.18 347.47,435.18 347.47,434.65 344.45,434.65 344.45,434.13 341.44,434.13 341.44,433.60 338.42,433.60 338.42,433.07 335.41,433.07 335.41,432.53 332.40,432.53 332.40,431.99 329.38,431.99 329.38,431.45 326.37,431.45 326.37,430.91 323.36,430.91 323.36,430.37 320.34,430.37 320.34,429.82 317.33,429.82 317.33,429.27 314.32,429.27 314.32,428.72 311.30,428.72 311.30,428.17 308.29,428.17 308.29,427.62 305.27,427.62 305.27,427.07 302.26,427.07 302.26,426.52 299.25,426.52 299.25,425.97 296.23,425.97 296.23,425.42 293.22,425.42 293.22,424.86 290.21,424.86 290.21,424.31 287.19,424.31 287.19,423.76 284.18,423.76 284.18,423.21 281.16,423.21 281.16,422.66 278.15,422.66 278.15,422.11 275.14,422.11 275.14,421.56 272.12,421.56 272.12,421.01 269.11,421.01 269.11,420.47 266.10,420.47 266.10,419.92 263.08,419.92 263.08,419.38 260.07,419.38 260.07,418.84 257.05,418.84 257.05,418.31 254.04,418.31 254.04,417.77 251.03,417.77 251.03,417.24 248.01,417.24 248.01,416.71 245.00,416.71 245.00,416.18 241.99,416.18 241.99,415.66 238.97,415.66 238.97,415.14 235.96,415.14 235.96,414.63 232.95,414.63 232.95,414.11 229.93,414.11 229.93,413.60 226.92,413.60 226.92,436.02 223.90,436.02 223.90,435.52 220.89,435.52 220.89,435.02 217.88,435.02 217.88,434.53 214.86,434.53 214.86,434.04 211.85,434.04 211.85,433.56 208.84,433.56 208.84,433.09 205.82,433.09 205.82,432.62 202.81,432.62 202.81,432.15 199.79,432.15 199.79,431.69 196.78,431.69 196.78,431.24 193.77,431.24 193.77,430.79 190.75,430.79 190.75,430.35 187.74,430.35 187.74,429.91 184.73,429.91 184.73,429.49 181.71,429.49 181.71,429.07 178.70,429.07 178.70,428.65 175.68,428.65 175.68,428.25 172.67,428.25 172.67,427.85 169.66,427.85 169.66,427.45 166.64,427.45 166.64,427.07 163.63,427.07 163.63,426.69 160.62,426.69 160.62,426.33 157.60,426.33 157.60,425.97 154.59,425.97 154.59,425.61 151.58,425.61 151.58,425.27 148.56,425.27 148.56,424.94 145.55,424.94 145.55,424.61 142.53,424.61 142.53,424.29 139.52,424.29 139.52,423.99 136.51,423.99 136.51,423.69 133.49,423.69 133.49,423.40 130.48,423.40 130.48,423.12 127.47,423.12 127.47,422.85 124.45,422.85 124.45,422.59 121.44,422.59 121.44,422.34 118.42,422.34 118.42,422.10 115.41,422.10 115.41,421.87 112.40,421.87 112.40,421.65 109.38,421.65 109.38,421.44 106.37,421.44 106.37,421.24 103.36,421.24 103.36,421.05 100.34,421.05 100.34,420.87 97.33,420.87 97.33,420.71 94.32,420.71 94.32,420.55 91.30,420.55 91.30,420.40 88.29,420.40 88.29,420.27 85.27,420.27 85.27,420.15 82.26,420.15 82.26,420.03 79.25,420.03 79.25,419.93 76.23,419.93 76.23,419.84 73.22,419.84 73.22,419.76 70.21,419.76 70.21,419.69 67.19,419.69 67.19,419.63 64.18,419.63 64.18,419.59 61.16,419.59 61.16,419.55 58.15,419.55 58.15,419.53 55.14,419.53 55.14,419.51 52.12,419.51 52.12,419.51 49.11,419.51 49.11,419.52 46.10,419.52 46.10,419.54 43.08,419.54 43.08,419.56 40.07,419.56 40.07,419.60 37.05,419.60 37.05,419.65 34.04,419.65 34.04,419.72 31.03,419.72 31.03,419.79 28.01,419.79 28.01,419.87" fill="#004080" stroke="none" stroke-width="0"/>
<polygon points="25.00,407.90 25.00,159.58 28.01,159.58 28.01,159.29 31.03,159.29 31.03,159.00 34.04,159.00 34.04,158.70 37.05,158.70 37.05,158.40 40.07,158.40 40.07,158.09 43.08,158.09 43.08,157.77 46.10,157.77 46.10,157.45 49.11,157.45 49.11,157.13 52.12,157.13 52.12,156.80 55.14,156.80 55.14,156.47 58.15,156.47 58.15,156.13 61.16,156.13 61.16,155.79 64.18,155.79 64.18,155.45 67.19,155.45 67.19,155.11 70.21,155.11 70.21,154.76 73.22,154.76 73.22,154.41 76.23,154.41 76.23,154.06 79.25,154.06 79.25,153.70 82.26,153.70 82.26,153.34 85.27,153.34 85.27,152.99 88.29,152.99 88.29,152.63 91.30,152.63 91.30,152.27 94.32,152.27 94.32,151.91 97.33,151.91 97.33,151.54 100.34,151.54 100.34,151.18 103.36,151.18 103.36,150.82 106.37,150.82 106.37,150.46 109.38,150.46 109.38,150.09 112.40,150.09 112.40,149.73 115.41,149.73 115.41,149.37 118.42,149.37 118.42,149.01 121.44,149.01 121.44,148.65 124.45,148.65 124.45,148.29 127.47,148.29 127.47,147.93 130.48,147.93 130.48,147.57 133.49,147.57 133.49,147.21 136.51,147.21 136.51,146.86 139.52,146.86 139.52,146.50 142.53,146.50 142.53,146.15 145.55,146.15 145.55,145.80 148.56,145.80 148.56,145.45 151.58,145.45 151.58,145.10 154.59,145.10 154.59,144.76 157.60,144.76 157.60,144.41 160.62,144.41 160.62,144.07 163.63,144.07 163.63,143.73 166.64,143.73 166.64,143.39 169.66,143.39 169.66,143.05 172.67,143.05 172.67,142.71 175.68,142.71 175.68,142.38 178.70,142.38 178.70,142.05 181.71,142.05 181.71,141.71 184.73,141.71 184.73,141.38 187.74,141.38 187.74,141.06 190.75,141.06 190.75,140.73 193.77,140.73 193.77,140.41 196.78,140.41 196.78,140.08 199.79,140.08 199.79,139.76 202.81,139.76 202.81,139.44 205.82,139.44 205.82,139.12 208.84,139.12 208.84,138.80 211.85,138.80 211.85,138.49 214.86,138.49 214.86,138.17 217.88,138.17 217.88,137.86 220.89,137.86 220.89,137.55 223.90,137.55 223.90,137.24 226.92,137.24 226.92,114.01 229.93,114.01 229.93,113.70 232.95,113.70 232.95,113.39 235.96,113.39 235.96,113.08 238.97,113.08 238.97,112.78 241.99,112.78 241.99,112.47 245.00,112.47 245.00,112.16 248.01,112.16 248.01,111.86 251.03,111.86 251.03,111.55 254.04,111.55 254.04,111.25 257.05,111.25 257.05,110.95 260.07,110.95 260.07,110.64 263.08,110.64 263.08,110.34 266.10,110.34 266.10,110.03 269.11,110.03 269.11,109.73 272.12,109.73 272.12,109.43 275.14,109.43 275.14,109.12 278.15,109.12 278.15,108.82 281.16,108.82 281.16,108.51 284.18,108.51 284.18,108.21 287.19,108.21 287.19,107.90 290.21,107.90 290.21,107.60 293.22,107.60 293.22,107.29 296.23,107.29 296.23,106.98 299.25,106.98 299.25,106.68 302.26,106.68 302.26,106.37 305.27,106.37 305.27,106.06 308.29,106.06 308.29,105.75 311.30,105.75 311.30,105.44 314.32,105.44 314.32,105.13 317.33,105.13 317.33,104.81 320.34,104.81 320.34,104.50 323.36,104.50 323.36,104.19 326.37,104.19 326.37,103.87 329.38,103.87 329.38,103.56 332.40,103.56 332.40,103.24 335.41,103.24 335.41,102.92 338.42,102.92 338.42,102.60 341.44,102.60 341.44,102.28 344.45,102.28 344.45,101.96 347.47,101.96 347.47,101.64 350.48,101.64 350.48,101.32 353.49,101.32 353.49,101.00 356.51,101.00 356.51,100.67 359.52,100.67 359.52,100.35 362.53,100.35 362.53,100.02 365.55,100.02 365.55,99.69 368.56,99.69 368.56,99.37 371.58,99.37 371.58,99.04 374.59,99.04 374.59,98.71 377.60,98.71 377.60,98.38 380.62,98.38 380.62,98.05 383.63,98.05 383.63,97.72 386.64,97.72 386.64,97.39 389.66,97.39 389.66,97.06 392.67,97.06 392.67,96.73 395.68,96.73 395.68,96.40 398.70,96.40 398.70,96.07 401.71,96.07 401.71,95.74 404.73,95.74 404.73,95.42 407.74,95.42 407.74,95.09 410.75,95.09 410.75,94.76 413.77,94.76 413.77,94.44 416.78,94.44 416.78,94.11 419.79,94.11 419.79,93.79 422.81,93.79 422.81,93.47 425.82,93.47 425.82,93.15 428.84,93.15 428.84,92.83 431.85,92.83 431.85,92.52 434.86,92.52 434.86,92.20 437.88,92.20 437.88,91.89 440.89,91.89 440.89,91.59 443.90,91.59 443.90,91.28 446.92,91.28 446.92,90.98 449.93,90.98 449.93,90.68 452.95,90.68 452.95,90.39 455.96,90.39 455.96,90.10 458.97,90.10 458.97,89.81 461.99,89.81 461.99,89.53 465.00,89.53 465.00,89.25 468.01,89.25 468.01,88.98 471.03,88.98 471.03,88.72 474.04,88.72 474.04,88.46 477.05,88.46 477.05,88.20 480.07,88.20 480.07,87.95 483.08,87.95 483.08,87.71 486.10,87.71 486.10,87.48 489.11,87.48 489.11,87.25 492.12,87.25 492.12,87.03 495.14,87.03 495.14,86.81 498.15,86.81 498.15,86.61 501.16,86.61 501.16,86.41 504.18,86.41 504.18,86.22 507.19,86.22 507.19,86.03 510.21,86.03 510.21,85.86 513.22,85.86 513.22,85.69 516.23,85.69 516.23,85.54 519.25,85.54 519.25,85.39 522.26,85.39 522.26,85.25 525.27,85.25 525.27,85.13 528.29,85.13 528.29,85.01 531.30,85.01 531.30,84.90 534.32,84.90 534.32,84.80 537.33,84.80 537.33,84.71 540.34,84.71 540.34,84.64 543.36,84.64 543.36,84.57 546.37,84.57 546.37,84.51 549.38,84.51 549.38,84.47 552.40,84.47 552.40,84.43 555.41,84.43 555.41,84.41 558.42,84.41 558.42,84.40 561.44,84.40 561.44,84.40 564.45,84.40 564.45,84.41 567.47,84.41 567.47,84.43 570.48,84.43 570.48,84.46 573.49,84.46 573.49,84.51 576.51,84.51 576.51,84.56 579.52,84.56 579.52,84.63 582.53,84.63 582.53,84.71 585.55,84.71 585.55,84.80 588.56,84.80 588.56,84.90 591.58,84.90 591.58,85.01 594.59,85.01 594.59,85.14 597.60,85.14 597.60,85.27 600.62,85.27 600.62,85.42 603.63,85.42 603.63,85.58 606.64,85.58 606.64,85.75 609.66,85.75 609.66,85.93 612.67,85.93 612.67,86.12 615.68,86.12 615.68,86.32 618.70,86.32 618.70,86.53 621.71,86.53 621.71,86.76 624.73,86.76 624.73,86.99 627.74,86.99 627.74,87.24 630.75,87.24 630.75,87.49 633.77,87.49 633.77,87.76 636.78,87.76 636.78,88.03 639.79,88.03 639.79,88.32 642.81,88.32 642.81,88.61 645.82,88.61 645.82,88.92 648.84,88.92 648.84,89.23 651.85,89.23 651.85,89.55 654.86,89.55 654.86,89.89 657.88,89.89 657.88,90.23 660.89,90.23 660.89,90.58 663.90,90.58 663.90,90.94 666.92,90.94 666.92,91.30 669.93,91.30 669.93,91.68 672.95,91.68 672.95,92.06 675.96,92.06 675.96,92.45 678.97,92.45 678.97,92.85 681.99,92.85 681.99,93.26 685.00,93.26 685.00,93.67 688.01,93.67 688.01,94.09 691.03,94.09 691.03,94.52 694.04,94.52 694.04,94.95 697.05,94.95 697.05,95.39 700.07,95.39 700.07,95.84 703.08,95.84 703.08,96.29 706.10,96.29 706.10,96.75 709.11,96.75 709.11,97.22 712.12,97.22 712.12,97.69 715.14,97.69 715.14,98.16 718.15,98.16 718.15,98.64 721.16,98.64 721.16,99.13 724.18,99.13 724.18,99.62 727.19,99.62 727.19,100.12 730.21,100.12 730.21,100.61 733.22,100.61 733.22,101.12 736.23,101.12 736.23,101.63 739.25,101.63 739.25,102.14 742.26,102.14 742.26,102.65 745.27,102.65 745.27,103.17 748.29,103.17 748.29,103.69 751.30,103.69 751.30,104.22 754.32,104.22 754.32,104.75 757.33,104.75 757.33,105.28 760.34,105.28 760.34,105.81 763.36,105.81 763.36,106.35 766.37,106.35 766.37,106.88 769.38,106.88 769.38,107.42 772.40,107.42 772.40,107.96 775.41,107.96 775.41,108.51 778.42,108.51 778.42,109.05 781.44,109.05 781.44,109.59 784.45,109.59 784.45,110.14 787.47,110.14 787.47,110.69 790.48,110.69 790.48,111.24 793.49,111.24 793.49,111.78 796.51,111.78 796.51,112.33 799.52,112.33 799.52,112.88 802.53,112.88 802.53,113.43 805.55,113.43 805.55,113.98 808.56,113.98 808.56,114.53 811.58,114.53 811.58,115.08 814.59,115.08 814.59,115.62 817.60,115.62 817.60,116.17 820.62,116.17 820.62,116.71 823.63,116.71 823.63,117.26 826.64,117.26 826.64,117.80 829.66,117.80 829.66,118.34 832.67,118.34 832.67,118.88 835.68,118.88 835.68,119.42 838.70,119.42 838.70,119.95 841.71,119.95 841.71,120.48 844.73,120.48 844.73,121.01 847.74,121.01 847.74,121.54 850.75,121.54 850.75,122.06 853.77,122.06 853.77,122.58 856.78,122.58 856.78,123.10 859.79,123.10 859.79,123.61 862.81,123.61 862.81,124.12 865.82,124.12 865.82,124.63 868.84,124.63 868.84,125.13 871.85,125.13 871.85,125.63 874.86,125.63 874.86,126.12 877.88,126.12 877.88,126.61 880.89,126.61 880.89,127.09 883.90,127.09 883.90,127.57 886.92,127.57 886.92,128.05 889.93,128.05 889.93,128.52 892.95,128.52 892.95,128.98 895.96,128.98 895.96,129.43 898.97,129.43 898.97,129.89 901.99,129.89 901.99,130.33 905.00,130.33 905.00,130.77 908.01,130.77 908.01,131.20 911.03,131.20 911.03,131.63 914.04,131.63 914.04,132.04 917.05,132.04 917.05,132.45 920.07,132.45 920.07,132.86 923.08,132.86 923.08,133.25 926.10,133.25 926.10,133.64 929.11,133.64 929.11,134.02 932.12,134.02 932.12,134.40 935.14,134.40 935.14,134.76 938.15,134.76 938.15,135.11 941.16,135.11 941.16,135.46 944.18,135.46 944.18,158.72 947.19,158.72 947.19,159.05 950.21,159.05 950.21,159.37 953.22,159.37 953.22,159.68 956.23,159.68 956.23,159.98 959.25,159.98 959.25,160.27 962.26,160.27 962.26,160.55 965.27,160.55 965.27,160.82 968.29,160.82 968.29,161.09 971.30,161.09 971.30,161.34 974.32,161.34 974.32,161.58 977.33,161.58 977.33,161.81 980.34,161.81 980.34,162.03 983.36,162.03 983.36,162.24 986.37,162.24 986.37,162.44 989.38,162.44 989.38,162.63 992.40,162.63 992.40,162.81 995.41,162.81 995.41,162.97 998.42,162.97 998.42,163.13 1001.44,163.13 1001.44,163.27 1004.45,163.27 1004.45,163.40 1007.47,163.40 1007.47,163.52 1010.48,163.52 1010.48,163.63 1013.49,163.63 1013.49,163.73 1016.51,163.73 1016.51,163.82 1019.52,163.82 1019.52,163.89 1022.53,163.89 1022.53,163.96 1025.55,163.96 1025.55,164.01 1028.56,164.01 1028.56,164.05 1031.58,164.05 1031.58,164.07 1034.59,164.07 1034.59,164.09 1037.60,164.09 1037.60,164.10 1040.62,164.10 1040.62,164.09 1043.63,164.09 1043.63,164.07 1046.64,164.07 1046.64,164.04 1049.66,164.04 1049.66,164.00 1052.67,164.00 1052.67,163.95 1055.68,163.95 1055.68,163.88 1058.70,163.88 1058.70,163.81 1061.71,163.81 1061.71,163.72 1064.73,163.72 1064.73,163.63 1067.74,163.63 1067.74,163.52 1070.75,163.52 1070.75,163.40 1073.77,163.40 1073.77,163.27 1076.78,163.27 1076.78,163.13 1079.79,163.13 1079.79,162.98 1082.81,162.98 1082.81,162.82 1085.82,162.82 1085.82,162.65 1088.84,162.65 1088.84,162.47 1091.85,162.47 1091.85,162.28 1094.86,162.28 1094.86,162.09 1097.88,162.09 1097.88,161.88 1100.89,161.88 1100.89,161.66 1103.90,161.66 1103.90,161.44 1106.92,161.44 1106.92,161.21 1109.93,161.21 1109.93,160.96 1112.95,160.96 1112.95,160.72 1115.96,160.72 1115.96,160.46 1118.97,160.46 1118.97,160.20 1121.99,160.20 1121.99,159.92 1125.00,159.92 1125.00,408.01 1121.99,408.01 1121.99,408.10 1118.97,408.10 1118.97,408.21 1115.96,408.21 1115.96,408.33 1112.95,408.33 1112.95,408.45 1109.93,408.45 1109.93,408.59 1106.92,408.59 1106.92,408.74 1103.90,408.74 1103.90,408.90 1100.89,408.90 1100.89,409.06 1097.88,409.06 1097.88,409.24 1094.86,409.24 1094.86,409.42 1091.85,409.42 1091.85,409.62 1088.84,409.62 1088.84,409.82 1085.82,409.82 1085.82,410.03 1082.81,410.03 1082.81,410.25 1079.79,410.25 1079.79,410.48 1076.78,410.48 1076.78,410.71 1073.77,410.71 1073.77,410.96 1070.75,410.96 1070.75,411.21 1067.74,411.21 1067.74,411.46 1064.73,411.46 1064.73,411.73 1061.71,411.73 1061.71,412.00 1058.70,412.00 1058.70,412.27 1055.68,412.27 1055.68,412.56 1052.67,412.56 1052.67,412.85 1049.66,412.85 1049.66,413.14 1046.64,413.14 1046.64,413.44 1043.63,413.44 1043.63,413.74 1040.62,413.74 1040.62,414.05 1037.60,414.05 1037.60,414.36 1034.59,414.36 1034.59,414.68 1031.58,414.68 1031.58,415.00 1028.56,415.00 1028.56,415.32 1025.55,415.32 1025.55,415.65 1022.53,415.65 1022.53,415.98 1019.52,415.98 1019.52,416.31 1016.51,416.31 1016.51,416.64 1013.49,416.64 1013.49,416.98 1010.48,416.98 1010.48,417.32 1007.47,417.32 1007.47,417.66 1004.45,417.66 1004.45,418.00 1001.44,418.00 1001.44,418.34 998.42,418.34 998.42,418.69 995.41,418.69 995.41,419.03 992.40,419.03 992.40,419.38 989.38,419.38 989.38,419.72 986.37,419.72 986.37,420.07 983.36,420.07 983.36,420.41 980.34,420.41 980.34,420.76 977.33,420.76 977.33,421.10 974.32,421.10 974.32,421.45 971.30,421.45 971.30,421.79 968.29,421.79 968.29,422.13 965.27,422.13 965.27,422.48 962.26,422.48 962.26,422.82 959.25,422.82 959.25,423.16 956.23,423.16 956.23,423.49 953.22,423.49 953.22,423.83 950.21,423.83 950.21,424.17 947.19,424.17 947.19,424.50 944.18,424.50 944.18,401.92 941.16,401.92 941.16,402.25 938.15,402.25 938.15,402.58 935.14,402.58 935.14,402.90 932.12,402.90 932.12,403.23 929.11,403.23 929.11,403.55 926.10,403.55 926.10,403.87 923.08,403.87 923.08,404.19 920.07,404.19 920.07,404.51 917.05,404.51 917.05,404.82 914.04,404.82 914.04,405.14 911.03,405.14 911.03,405.45 908.01,405.45 908.01,405.76 905.00,405.76 905.00,406.07 901.99,406.07 901.99,406.37 898.97,406.37 898.97,406.68 895.96,406.68 895.96,406.98 892.95,406.98 892.95,407.28 889.93,407.28 889.93,407.58 886.92,407.58 886.92,407.88 883.90,407.88 883.90,408.17 880.89,408.17 880.89,408.47 877.88,408.47 877.88,408.76 874.86,408.76 874.86,409.05 871.85,409.05 871.85,409.34 868.84,409.34 868.84,409.63 865.82,409.63 865.82,409.91 862.81,409.91 862.81,410.20 859.79,410.20 859.79,410.48 856.78,410.48 856.78,410.77 853.77,410.77 853.77,411.05 850.75,411.05 850.75,411.33 847.74,411.33 847.74,411.61 844.73,411.61 844.73,411.89 841.71,411.89 841.71,412.17 838.70,412.17 838.70,412.45 835.68,412.45 835.68,412.72 832.67,412.72 832.67,413.00 829.66,413.00 829.66,413.28 826.64,413.28 826.64,413.56 823.63,413.56 823.63,413.83 820.62,413.83 820.62,414.11 817.60,414.11 817.60,414.39 814.59,414.39 814.59,414.66 811.58,414.66 811.58,414.94 808.56,414.94 808.56,415.21 805.55,415.21 805.55,415.49 802.53,415.49 802.53,415.77 799.52,415.77 799.52,416.05 796.51,416.05 796.51,416.32 793.49,416.32 793.49,416.60 790.48,416.60 790.48,416.88 787.47,416.88 787.47,417.16 784.45,417.16 784.45,417.44 781.44,417.44 781.44,417.72 778.42,417.72 778.42,418.00 775.41,418.00 775.41,418.28 772.40,418.28 772.40,418.57 769.38,418.57 769.38,418.85 766.37,418.85 766.37,419.13 763.36,419.13 763.36,419.42 760.34,419.42 760.34,419.71 757.33,419.71 757.33,420.00 754.32,420.00 754.32,420.28 751.30,420.28 751.30,420.57 748.29,420.57 748.29,420.87 745.27,420.87 745.27,421.16 742.26,421.16 742.26,421.45 739.25,421.45 739.25,421.75 736.23,421.75 736.23,422.04 733.22,422.04 733.22,422.34 730.21,422.34 730.21,422.64 727.19,422.64 727.19,422.94 724.18,422.94 724.18,423.24 721.16,423.24 721.16,423.54 718.15,423.54 718.15,423.84 715.14,423.84 715.14,424.14 712.12,424.14 712.12,424.45 709.11,424.45 709.11,424.75 706.10,424.75 706.10,425.06 703.08,425.06 703.08,425.37 700.07,425.37 700.07,425.67 697.05,425.67 697.05,425.98 694.04,425.98 694.04,426.29 691.03,426.29 691.03,426.60 688.01,426.60 688.01,426.91 685.00,426.91 685.00,427.21 681.99,427.21 681.99,427.52 678.97,427.52 678.97,427.83 675.96,427.83 675.96,428.14 672.95,428.14 672.95,428.45 669.93,428.45 669.93,428.76 666.92,428.76 666.92,429.06 663.90,429.06 663.90,429.37 660.89,429.37 660.89,429.68 657.88,429.68 657.88,429.98 654.86,429.98 654.86,430.29 651.85,430.29 651.85,430.59 648.84,430.59 648.84,430.89 645.82,430.89 645.82,431.19 642.81,431.19 642.81,431.48 639.79,431.48 639.79,431.78 636.78,431.78 636.78,432.07 633.77,432.07 633.77,432.36 630.75,432.36 630.75,432.64 627.74,432.64 627.74,432.92 624.73,432.92 624.73,433.20 621.71,433.20 621.71,433.48 618.70,433.48 618.70,433.75 615.68,433.75 615.68,434.01 612.67,434.01 612.67,434.28 609.66,434.28 609.66,434.53 606.64,434.53 606.64,434.79 603.63,434.79 603.63,435.04 600.62,435.04 600.62,435.28 597.60,435.28 597.60,435.51 594.59,435.51 594.59,435.74 591.58,435.74 591.58,435.97 588.56,435.97 588.56,436.19 585.55,436.19 585.55,436.40 582.53,436.40 582.53,436.60 579.52,436.60 579.52,436.80 576.51,436.80 576.51,436.99 573.49,436.99 573.49,437.17 570.48,437.17 570.48,437.34 567.47,437.34 567.47,437.51 564.45,437.51 564.45,437.66 561.44,437.66 561.44,437.81 558.42,437.81 558.42,437.95 555.41,437.95 555.41,438.08 552.40,438.08 552.40,438.20 549.38,438.20 549.38,438.31 546.37,438.31 546.37,438.41 543.36,438.41 543.36,438.51 540.34,438.51 540.34,438.59 537.33,438.59 537.33,438.66 534.32,438.66 534.32,438.72 531.30,438.72 531.30,438.77 528.29,438.77 528.29,438.81 525.27,438.81 525.27,438.84 522.26,438.84 522.26,438.86 519.25,438.86 519.25,438.87 516.23,438.87 516.23,438.87 513.22,438.87 513.22,438.86 510.21,438.86 510.21,438.83 507.19,438.83 507.19,438.80 504.18,438.80 504.18,438.75 501.16,438.75 501.16,438.69 498.15,438.69 498.15,438.63 495.14,438.63 495.14,438.55 492.12,438.55 492.12,438.45 489.11,438.45 489.11,438.35 486.10,438.35 486.10,438.24 483.08,438.24 483.08,438.11 480.07,438.11 480.07,437.98 477.05,437.98 477.05,437.83 474.04,437.83 474.04,437.67 471.03,437.67 471.03,437.51 468.01,437.51 468.01,437.33 465.00,437.33 465.00,437.14 461.99,437.14 461.99,436.94 458.97,436.94 458.97,436.72 455.96,436.72 455.96,436.50 452.95,436.50 452.95,436.27 449.93,436.27 449.93,436.03 446.92,436.03 446.92,435.78 443.90,435.78 443.90,435.51 440.89,435.51 440.89,435.24 437.88,435.24 437.88,434.96 434.86,434.96 434.86,434.67 431.85,434.67 431.85,434.37 428.84,434.37 428.84,434.06 425.82,434.06 425.82,433.74 422.81,433.74 422.81,433.41 419.79,433.41 419.79,433.08 416.78,433.08 416.78,432.73 413.77,432.73 413.77,432.38 410.75,432.38 410.75,432.02 407.74,432.02 407.74,431.65 404.73,431.65 404.73,431.27 401.71,431.27 401.71,430.89 398.70,430.89 398.70,430.49 395.68,430.49 395.68,430.09 392.67,430.09 392.67,429.69 389.66,429.69 389.66,429.27 386.64,429.27 386.64,428.85 383.63,428.85 383.63,428.42 380.62,428.42 380.62,427.99 377.60,427.99 377.60,427.55 374.59,427.55 374.59,427.11 371.58,427.11 371.58,426.65 368.56,426.65 368.56,426.20 365.55,426.20 365.55,425.74 362.53,425.74 362.53,425.27 359.52,425.27 359.52,424.80 356.51,424.80 356.51,424.32 353.49,424.32 353.49,423.84 350.48,423.84 350.48,423.35 347.47,423.35 347.47,422.86 344.45,422.86 344.45,422.37 341.44,422.37 341.44,421.87 338.42,421.87 338.42,421.37 335.41,421.37 335.41,420.86 332.40,420.86 332.40,420.36 329.38,420.36 329.38,419.85 326.37,419.85 326.37,419.33 323.36,419.33 323.36,418.81 320.34,418.81 320.34,418.30 317.33,418.30 317.33,417.77 314.32,417.77 314.32,417.25 311.30,417.25 311.30,416.73 308.29,416.73 308.29,416.20 305.27,416.20 305.27,415.67 302.26,415.67 302.26,415.14 299.25,415.14 299.25,414.61 296.23,414.61 296.23,414.08 293.22,414.08 293.22,413.54 290.21,413.54 290.21,413.01 287.19,413.01 287.19,412.48 284.18,412.48 284.18,411.94 281.16,411.94 281.16,411.41 278.15,411.41 278.15,410.87 275.14,410.87 275.14,410.34 272.12,410.34 272.12,409.81 269.11,409.81 269.11,409.27 266.10,409.27 266.10,408.74 263.08,408.74 263.08,408.21 260.07,408.21 260.07,407.68 257.05,407.68 257.05,407.15 254.04,407.15 254.04,406.63 251.03,406.63 251.03,406.10 248.01,406.10 248.01,405.58 245.00,405.58 245.00,405.06 241.99,405.06 241.99,404.54 238.97,404.54 238.97,404.03 235.96,404.03 235.96,403.51 232.95,403.51 232.95,403.00 229.93,403.00 229.93,402.50 226.92,402.50 226.92,424.91 223.90,424.91 223.90,424.41 220.89,424.41 220.89,423.92 217.88,423.92 217.88,423.42 214.86,423.42 214.86,422.94 211.85,422.94 211.85,422.45 208.84,422.45 208.84,421.97 205.82,421.97 205.82,421.50 202.81,421.50 202.81,421.03 199.79,421.03 199.79,420.56 196.78,420.56 196.78,420.10 193.77,420.10 193.77,419.65 190.75,419.65 190.75,419.20 187.74,419.20 187.74,418.76 184.73,418.76 184.73,418.32 181.71,418.32 181.71,417.89 178.70,417.89 178.70,417.47 175.68,417.47 175.68,417.05 172.67,417.05 172.67,416.64 169.66,416.64 169.66,416.23 166.64,416.23 166.64,415.84 163.63,415.84 163.63,415.45 160.62,415.45 160.62,415.07 157.60,415.07 157.60,414.69 154.59,414.69 154.59,414.33 151.58,414.33 151.58,413.97 148.56,413.97 148.56,413.62 145.55,413.62 145.55,413.28 142.53,413.28 142.53,412.94 139.52,412.94 139.52,412.62 136.51,412.62 136.51,412.31 133.49,412.31 133.49,412.00 130.48,412.00 130.48,411.70 127.47,411.70 127.47,411.42 124.45,411.42 124.45,411.14 121.44,411.14 121.44,410.87 118.42,410.87 118.42,410.61 115.41,410.61 115.41,410.36 112.40,410.36 112.40,410.12 109.38,410.12 109.38,409.90 106.37,409.90 106.37,409.68 103.36,409.68 103.36,409.47 100.34,409.47 100.34,409.27 97.33,409.27 97.33,409.09 94.32,409.09 94.32,408.91 91.30,408.91 91.30,408.75 88.29,408.75 88.29,408.60 85.27,408.60 85.27,408.45 82.26,408.45 82.26,408.32 79.25,408.32 79.25,408.20 76.23,408.20 76.23,408.09 73.22,408.09 73.22,408.00 70.21,408.00 70.21,407.91 67.19,407.91 67.19,407.84 64.18,407.84 64.18,407.77 61.16,407.77 61.16,407.72 58.15,407.72 58.15,407.68 55.14,407.68 55.14,407.65 52.12,407.65 52.12,407.64 49.11,407.64 49.11,407.63 46.10,407.63 46.10,407.63 43.08,407.63 43.08,407.65 40.07,407.65 40.07,407.68 37.05,407.68 37.05,407.72 34.04,407.72 34.04,407.77 31.03,407.77 31.03,407.83 28.01,407.83 28.01,407.90" fill="#0060c0" stroke="none" stroke-width="0"/>
<polygon points="25.00,397.28 25.00,170.20 28.01,170.20 28.01,169.90 31.03,169.90 31.03,169.60 34.04,169.60 34.04,169.29 37.05,169.29 37.05,168.97 40.07,168.97 40.07,168.65 43.08,168.65 43.08,168.32 46.10,168.32 46.10,167.98 49.11,167.98 49.11,167.65 52.12,167.65 52.12,167.30 55.14,167.30 55.14,166.95 58.15,166.95 58.15,166.60 61.16,166.60 61.16,166.24 64.18,166.24 64.18,165.88 67.19,165.88 67.19,165.52 70.21,165.52 70.21,165.15 73.22,165.15 73.22,164.79 76.23,164.79 76.23,164.41 79.25,164.41 79.25,164.04 82.26,164.04 82.26,163.66 85.27,163.66 85.27,163.28 88.29,163.28 88.29,162.91 91.30,162.91 91.30,162.52 94.32,162.52 94.32,162.14 97.33,162.14 97.33,161.76 100.34,161.76 100.34,161.38 103.36,161.38 103.36,160.99 106.37,160.99 106.37,160.61 109.38,160.61 109.38,160.23 112.40,160.23 112.40,159.85 115.41,159.85 115.41,159.46 118.42,159.46 118.42,159.08 121.44,159.08 121.44,158.70 124.45,158.70 124.45,158.32 127.47,158.32 127.47,157.94 130.48,157.94 130.48,157.56 133.49,157.56 133.49,157.19 136.51,157.19 136.51,156.81 139.52,156.81 139.52,156.44 142.53,156.44 142.53,156.07 145.55,156.07 145.55,155.70 148.56,155.70 148.56,155.33 151.58,155.33 151.58,154.97 154.59,154.97 154.59,154.60 157.60,154.60 157.60,154.24 160.62,154.24 160.62,153.88 163.63,153.88 163.63,153.52 166.64,153.52 166.64,153.17 169.66,153.17 169.66,152.82 172.67,152.82 172.67,152.46 175.68,152.46 175.68,152.12 178.70,152.12 178.70,151.77 181.71,151.77 181.71,151.42 184.73,151.42 184.73,151.08 187.74,151.08 187.74,150.74 190.75,150.74 190.75,150.40 193.77,150.40 193.77,150.07 196.78,150.07 196.78,149.74 199.79,149.74 199.79,149.40 202.81,149.40 202.81,149.08 205.82,149.08 205.82,148.75 208.84,148.75 208.84,148.42 211.85,148.42 211.85,148.10 214.86,148.10 214.86,147.78 217.88,147.78 217.88,147.46 220.89,147.46 220.89,147.14 223.90,147.14 223.90,146.83 226.92,146.83 226.92,123.59 229.93,123.59 229.93,123.28 232.95,123.28 232.95,122.97 235.96,122.97 235.96,122.66 238.97,122.66 238.97,122.35 241.99,122.35 241.99,122.05 245.00,122.05 245.00,121.74 248.01,121.74 248.01,121.44 251.03,121.44 251.03,121.13 254.04,121.13 254.04,120.83 257.05,120.83 257.05,120.53 260.07,120.53 260.07,120.23 263.08,120.23 263.08,119.93 266.10,119.93 266.10,119.63 269.11,119.63 269.11,119.33 272.12,119.33 272.12,119.03 275.14,119.03 275.14,118.74 278.15,118.74 278.15,118.44 281.16,118.44 281.16,118.14 284.18,118.14 284.18,117.85 287.19,117.85 287.19,117.55 290.21,117.55 290.21,117.25 293.22,117.25 293.22,116.96 296.23,116.96 296.23,116.66 299.25,116.66 299.25,116.37 302.26,116.37 302.26,116.07 305.27,116.07 305.27,115.78 308.29,115.78 308.29,115.48 311.30,115.48 311.30,115.18 314.32,115.18 314.32,114.89 317.33,114.89 317.33,114.59 320.34,114.59 320.34,114.30 323.36,114.30 323.36,114.00 326.37,114.00 326.37,113.70 329.38,113.70 329.38,113.40 332.40,113.40 332.40,113.11 335.41,113.11 335.41,112.81 338.42,112.81 338.42,112.51 341.44,112.51 341.44,112.21 344.45,112.21 344.45,111.91 347.47,111.91 347.47,111.61 350.48,111.61 350.48,111.31 353.49,111.31 353.49,111.01 356.51,111.01 356.51,110.71 359.52,110.71 359.52,110.40 362.53,110.40 362.53,110.10 365.55,110.10 365.55,109.80 368.56,109.80 368.56,109.50 371.58,109.50 371.58,109.19 374.59,109.19 374.59,108.89 377.60,108.89 377.60,108.59 380.62,108.59 380.62,108.28 383.63,108.28 383.63,107.98 386.64,107.98 386.64,107.67 389.66,107.67 389.66,107.37 392.67,107.37 392.67,107.07 395.68,107.07 395.68,106.77 398.70,106.77 398.70,106.46 401.71,106.46 401.71,106.16 404.73,106.16 404.73,105.86 407.74,105.86 407.74,105.56 410.75,105.56 410.75,105.26 413.77,105.26 413.77,104.96 416.78,104.96 416.78,104.67 419.79,104.67 419.79,104.37 422.81,104.37 422.81,104.08 425.82,104.08 425.82,103.78 428.84,103.78 428.84,103.49 431.85,103.49 431.85,103.20 434.86,103.20 434.86,102.92 437.88,102.92 437.88,102.63 440.89,102.63 440.89,102.35 443.90,102.35 443.90,102.07 446.92,102.07 446.92,101.80 449.93,101.80 449.93,101.52 452.95,101.52 452.95,101.25 455.96,101.25 455.96,100.99 458.97,100.99 458.97,100.73 461.99,100.73 461.99,100.47 465.00,100.47 465.00,100.21 468.01,100.21 468.01,99.96 471.03,99.96 471.03,99.72 474.04,99.72 474.04,99.48 477.05,99.48 477.05,99.24 480.07,99.24 480.07,99.01 483.08,99.01 483.08,98.79 486.10,98.79 486.10,98.57 489.11,98.57 489.11,98.36 492.12,98.36 492.12,98.15 495.14,98.15 495.14,97.95 498.15,97.95 498.15,97.76 501.16,97.76 501.16,97.58 504.18,97.58 504.18,97.40 507.19,97.40 507.19,97.23 510.21,97.23 510.21,97.06 513.22,97.06 513.22,96.90 516.23,96.90 516.23,96.76 519.25,96.76 519.25,96.62 522.26,96.62 522.26,96.48 525.27,96.48 525.27,96.36 528.29,96.36 528.29,96.25 531.30,96.25 531.30,96.14 534.32,96.14 534.32,96.04 537.33,96.04 537.33,95.96 540.34,95.96 540.34,95.88 543.36,95.88 543.36,95.81 546.37,95.81 546.37,95.75 549.38,95.75 549.38,95.70 552.40,95.70 552.40,95.66 555.41,95.66 555.41,95.63 558.42,95.63 558.42,95.61 561.44,95.61 561.44,95.60 564.45,95.60 564.45,95.60 567.47,95.60 567.47,95.62 570.48,95.62 570.48,95.64 573.49,95.64 573.49,95.67 576.51,95.67 576.51,95.71 579.52,95.71 579.52,95.77 582.53,95.77 582.53,95.83 585.55,95.83 585.55,95.90 588.56,95.90 588.56,95.99 591.58,95.99 591.58,96.08 594.59,96.08 594.59,96.19 597.60,96.19 597.60,96.31 600.62,96.31 600.62,96.43 603.63,96.43 603.63,96.57 606.64,96.57 606.64,96.72 609.66,96.72 609.66,96.88 612.67,96.88 612.67,97.05 615.68,97.05 615.68,97.23 618.70,97.23 618.70,97.42 621.71,97.42 621.71,97.62 624.73,97.62 624.73,97.83 627.74,97.83 627.74,98.05 630.75,98.05 630.75,98.28 633.77,98.28 633.77,98.51 636.78,98.51 636.78,98.76 639.79,98.76 639.79,99.02 642.81,99.02 642.81,99.29 645.82,99.29 645.82,99.57 648.84,99.57 648.84,99.86 651.85,99.86 651.85,100.15 654.86,100.15 654.86,100.46 657.88,100.46 657.88,100.77 660.89,100.77 660.89,101.10 663.90,101.10 663.90,101.43 666.92,101.43 666.92,101.77 669.93,101.77 669.93,102.11 672.95,102.11 672.95,102.47 675.96,102.47 675.96,102.83 678.97,102.83 678.97,103.21 681.99,103.21 681.99,103.59 685.00,103.59 685.00,103.97 688.01,103.97 688.01,104.37 691.03,104.37 691.03,104.77 694.04,104.77 694.04,105.18 697.05,105.18 697.05,105.59 700.07,105.59 700.07,106.01 703.08,106.01 703.08,106.44 706.10,106.44 706.10,106.88 709.11,106.88 709.11,107.32 712.12,107.32 712.12,107.76 715.14,107.76 715.14,108.22 718.15,108.22 718.15,108.67 721.16,108.67 721.16,109.14 724.18,109.14 724.18,109.60 727.19,109.60 727.19,110.08 730.21,110.08 730.21,110.56 733.22,110.56 733.22,111.04 736.23,111.04 736.23,111.53 739.25,111.53 739.25,112.02 742.26,112.02 742.26,112.52 745.27,112.52 745.27,113.02 748.29,113.02 748.29,113.52 751.30,113.52 751.30,114.03 754.32,114.03 754.32,114.54 757.33,114.54 757.33,115.05 760.34,115.05 760.34,115.57 763.36,115.57 763.36,116.09 766.37,116.09 766.37,116.61 769.38,116.61 769.38,117.13 772.40,117.13 772.40,117.66 775.41,117.66 775.41,118.19 778.42,118.19 778.42,118.72 781.44,118.72 781.44,119.26 784.45,119.26 784.45,119.79 787.47,119.79 787.47,120.33 790.48,120.33 790.48,120.87 793.49,120.87 793.49,121.41 796.51,121.41 796.51,121.95 799.52,121.95 799.52,122.49 802.53,122.49 802.53,123.03 805.55,123.03 805.55,123.57 808.56,123.57 808.56,124.11 811.58,124.11 811.58,124.66 814.59,124.66 814.59,125.20 817.60,125.20 817.60,125.74 820.62,125.74 820.62,126.28 823.63,126.28 823.63,126.82 826.64,126.82 826.64,127.36 829.66,127.36 829.66,127.90 832.67,127.90 832.67,128.44 835.68,128.44 835.68,128.98 838.70,128.98 838.70,129.51 841.71,129.51 841.71,130.05 844.73,130.05 844.73,130.58 847.74,130.58 847.74,131.11 850.75,131.11 850.75,131.63 853.77,131.63 853.77,132.16 856.78,132.16 856.78,132.68 859.79,132.68 859.79,133.20 862.81,133.20 862.81,133.71 865.82,133.71 865.82,134.23 868.84,134.23 868.84,134.73 871.85,134.73 871.85,135.24 874.86,135.24 874.86,135.74 877.88,135.74 877.88,136.24 880.89,136.24 880.89,136.73 883.90,136.73 883.90,137.22 886.92,137.22 886.92,137.70 889.93,137.70 889.93,138.18 892.95,138.18 892.95,138.66 895.96,138.66 895.96,139.13 898.97,139.13 898.97,139.59 901.99,139.59 901.99,140.05 905.00,140.05 905.00,140.50 908.01,140.50 908.01,140.95 911.03,140.95 911.03,141.39 914.04,141.39 914.04,141.82 917.05,141.82 917.05,142.25 920.07,142.25 920.07,142.67 923.08,142.67 923.08,143.08 926.10,143.08 926.10,143.48 929.11,143.48 929.11,143.88 932.12,143.88 932.12,144.27 935.14,144.27 935.14,144.65 938.15,144.65 938.15,145.03 941.16,145.03 941.16,145.39 944.18,145.39 944.18,168.67 947.19,168.67 947.19,169.01 950.21,169.01 950.21,169.35 953.22,169.35 953.22,169.68 956.23,169.68 956.23,170.01 959.25,170.01 959.25,170.32 962.26,170.32 962.26,170.62 965.27,170.62 965.27,170.91 968.29,170.91 968.29,171.19 971.30,171.19 971.30,171.47 974.32,171.47 974.32,171.73 977.33,171.73 977.33,171.98 980.34,171.98 980.34,172.22 983.36,172.22 983.36,172.45 986.37,172.45 986.37,172.67 989.38,172.67 989.38,172.88 992.40,172.88 992.40,173.08 995.41,173.08 995.41,173.27 998.42,173.27 998.42,173.44 1001.44,173.44 1001.44,173.60 1004.45,173.60 1004.45,173.76 1007.47,173.76 1007.47,173.90 1010.48,173.90 1010.48,174.02 1013.49,174.02 1013.49,174.14 1016.51,174.14 1016.51,174.25 1019.52,174.25 1019.52,174.34 1022.53,174.34 1022.53,174.42 1025.55,174.42 1025.55,174.49 1028.56,174.49 1028.56,174.54 1031.58,174.54 1031.58,174.59 1034.59,174.59 1034.59,174.62 1037.60,174.62 1037.60,174.64 1040.62,174.64 1040.62,174.64 1043.63,174.64 1043.63,174.64 1046.64,174.64 1046.64,174.62 1049.66,174.62 1049.66,174.59 1052.67,174.59 1052.67,174.55 1055.68,174.55 1055.68,174.50 1058.70,174.50 1058.70,174.43 1061.71,174.43 1061.71,174.36 1064.73,174.36 1064.73,174.27 1067.74,174.27 1067.74,174.17 1070.75,174.17 1070.75,174.06 1073.77,174.06 1073.77,173.93 1076.78,173.93 1076.78,173.80 1079.79,173.80 1079.79,173.65 1082.81,173.65 1082.81,173.49 1085.82,173.49 1085.82,173.33 1088.84,173.33 1088.84,173.15 1091.85,173.15 1091.85,172.96 1094.86,172.96 1094.86,172.76 1097.88,172.76 1097.88,172.55 1100.89,172.55 1100.89,172.33 1103.90,172.33 1103.90,172.11 1106.92,172.11 1106.92,171.87 1109.93,171.87 1109.93,171.62 1112.95,171.62 1112.95,171.37 1115.96,171.37 1115.96,171.11 1118.97,171.11 1118.97,170.83 1121.99,170.83 1121.99,170.55 1125.00,170.55 1125.00,397.38 1121.99,397.38 1121.99,397.46 1118.97,397.46 1118.97,397.56 1115.96,397.56 1115.96,397.67 1112.95,397.67 1112.95,397.79 1109.93,397.79 1109.93,397.93 1106.92,397.93 1106.92,398.07 1103.90,398.07 1103.90,398.22 1100.89,398.22 1100.89,398.39 1097.88,398.39 1097.88,398.56 1094.86,398.56 1094.86,398.75 1091.85,398.75 1091.85,398.94 1088.84,398.94 1088.84,399.14 1085.82,399.14 1085.82,399.36 1082.81,399.36 1082.81,399.58 1079.79,399.58 1079.79,399.81 1076.78,399.81 1076.78,400.05 1073.77,400.05 1073.77,400.30 1070.75,400.30 1070.75,400.56 1067.74,400.56 1067.74,400.82 1064.73,400.82 1064.73,401.09 1061.71,401.09 1061.71,401.37 1058.70,401.37 1058.70,401.66 1055.68,401.66 1055.68,401.95 1052.67,401.95 1052.67,402.25 1049.66,402.25 1049.66,402.56 1046.64,402.56 1046.64,402.87 1043.63,402.87 1043.63,403.19 1040.62,403.19 1040.62,403.51 1037.60,403.51 1037.60,403.83 1034.59,403.83 1034.59,404.17 1031.58,404.17 1031.58,404.50 1028.56,404.50 1028.56,404.84 1025.55,404.84 1025.55,405.18 1022.53,405.18 1022.53,405.53 1019.52,405.53 1019.52,405.88 1016.51,405.88 1016.51,406.23 1013.49,406.23 1013.49,406.59 1010.48,406.59 1010.48,406.95 1007.47,406.95 1007.47,407.31 1004.45,407.31 1004.45,407.67 1001.44,407.67 1001.44,408.03 998.42,408.03 998.42,408.39 995.41,408.39 995.41,408.76 992.40,408.76 992.40,409.12 989.38,409.12 989.38,409.49 986.37,409.49 986.37,409.85 983.36,409.85 983.36,410.22 980.34,410.22 980.34,410.59 977.33,410.59 977.33,410.95 974.32,410.95 974.32,411.32 971.30,411.32 971.30,411.68 968.29,411.68 968.29,412.04 965.27,412.04 965.27,412.41 962.26,412.41 962.26,412.77 959.25,412.77 959.25,413.13 956.23,413.13 956.23,413.48 953.22,413.48 953.22,413.84 950.21,413.84 950.21,414.19 947.19,414.19 947.19,414.55 944.18,414.55 944.18,391.98 941.16,391.98 941.16,392.33 938.15,392.33 938.15,392.68 935.14,392.68 935.14,393.02 932.12,393.02 932.12,393.37 929.11,393.37 929.11,393.71 926.10,393.71 926.10,394.04 923.08,394.04 923.08,394.38 920.07,394.38 920.07,394.71 917.05,394.71 917.05,395.04 914.04,395.04 914.04,395.37 911.03,395.37 911.03,395.70 908.01,395.70 908.01,396.02 905.00,396.02 905.00,396.34 901.99,396.34 901.99,396.66 898.97,396.66 898.97,396.98 895.96,396.98 895.96,397.29 892.95,397.29 892.95,397.61 889.93,397.61 889.93,397.91 886.92,397.91 886.92,398.22 883.90,398.22 883.90,398.53 880.89,398.53 880.89,398.83 877.88,398.83 877.88,399.13 874.86,399.13 874.86,399.43 871.85,399.43 871.85,399.73 868.84,399.73 868.84,400.02 865.82,400.02 865.82,400.31 862.81,400.31 862.81,400.60 859.79,400.60 859.79,400.89 856.78,400.89 856.78,401.18 853.77,401.18 853.77,401.47 850.75,401.47 850.75,401.75 847.74,401.75 847.74,402.03 844.73,402.03 844.73,402.31 841.71,402.31 841.71,402.59 838.70,402.59 838.70,402.87 835.68,402.87 835.68,403.15 832.67,403.15 832.67,403.43 829.66,403.43 829.66,403.70 826.64,403.70 826.64,403.98 823.63,403.98 823.63,404.25 820.62,404.25 820.62,404.52 817.60,404.52 817.60,404.79 814.59,404.79 814.59,405.07 811.58,405.07 811.58,405.34 808.56,405.34 808.56,405.61 805.55,405.61 805.55,405.88 802.53,405.88 802.53,406.15 799.52,406.15 799.52,406.41 796.51,406.41 796.51,406.68 793.49,406.68 793.49,406.95 790.48,406.95 790.48,407.22 787.47,407.22 787.47,407.49 784.45,407.49 784.45,407.76 781.44,407.76 781.44,408.02 778.42,408.02 778.42,408.29 775.41,408.29 775.41,408.56 772.40,408.56 772.40,408.83 769.38,408.83 769.38,409.10 766.37,409.10 766.37,409.37 763.36,409.37 763.36,409.64 760.34,409.64 760.34,409.91 757.33,409.91 757.33,410.18 754.32,410.18 754.32,410.45 751.30,410.45 751.30,410.73 748.29,410.73 748.29,411.00 745.27,411.00 745.27,411.27 742.26,411.27 742.26,411.55 739.25,411.55 739.25,411.82 736.23,411.82 736.23,412.10 733.22,412.10 733.22,412.37 730.21,412.37 730.21,412.65 727.19,412.65 727.19,412.93 724.18,412.93 724.18,413.20 721.16,413.20 721.16,413.48 718.15,413.48 718.15,413.76 715.14,413.76 715.14,414.04 712.12,414.04 712.12,414.32 709.11,414.32 709.11,414.60 706.10,414.60 706.10,414.88 703.08,414.88 703.08,415.16 700.07,415.16 700.07,415.45 697.05,415.45 697.05,415.73 694.04,415.73 694.04,416.01 691.03,416.01 691.03,416.29 688.01,416.29 688.01,416.57 685.00,416.57 685.00,416.86 681.99,416.86 681.99,417.14 678.97,417.14 678.97,417.42 675.96,417.42 675.96,417.70 672.95,417.70 672.95,417.98 669.93,417.98 669.93,418.27 666.92,418.27 666.92,418.55 663.90,418.55 663.90,418.83 660.89,418.83 660.89,419.10 657.88,419.10 657.88,419.38 654.86,419.38 654.86,419.66 651.85,419.66 651.85,419.93 648.84,419.93 648.84,420.21 645.82,420.21 645.82,420.48 642.81,420.48 642.81,420.75 639.79,420.75 639.79,421.02 636.78,421.02 636.78,421.28 633.77,421.28 633.77,421.55 630.75,421.55 630.75,421.81 627.74,421.81 627.74,422.07 624.73,422.07 624.73,422.32 621.71,422.32 621.71,422.57 618.70,422.57 618.70,422.82 615.68,422.82 615.68,423.06 612.67,423.06 612.67,423.31 609.66,423.31 609.66,423.54 606.64,423.54 606.64,423.77 603.63,423.77 603.63,424.00 600.62,424.00 600.62,424.22 597.60,424.22 597.60,424.44 594.59,424.44 594.59,424.66 591.58,424.66 591.58,424.86 588.56,424.86 588.56,425.06 585.55,425.06 585.55,425.26 582.53,425.26 582.53,425.45 579.52,425.45 579.52,425.63 576.51,425.63 576.51,425.81 573.49,425.81 573.49,425.98 570.48,425.98 570.48,426.14 567.47,426.14 567.47,426.30 564.45,426.30 564.45,426.45 561.44,426.45 561.44,426.59 558.42,426.59 558.42,426.72 555.41,426.72 555.41,426.85 552.40,426.85 552.40,426.96 549.38,426.96 549.38,427.07 546.37,427.07 546.37,427.17 543.36,427.17 543.36,427.26 540.34,427.26 540.34,427.35 537.33,427.35 537.33,427.42 534.32,427.42 534.32,427.48 531.30,427.48 531.30,427.54 528.29,427.54 528.29,427.58 525.27,427.58 525.27,427.62 522.26,427.62 522.26,427.65 519.25,427.65 519.25,427.66 516.23,427.66 516.23,427.67 513.22,427.67 513.22,427.67 510.21,427.67 510.21,427.65 507.19,427.65 507.19,427.63 504.18,427.63 504.18,427.60 501.16,427.60 501.16,427.55 498.15,427.55 498.15,427.50 495.14,427.50 495.14,427.43 492.12,427.43 492.12,427.36 489.11,427.36 489.11,427.27 486.10,427.27 486.10,427.18 483.08,427.18 483.08,427.07 480.07,427.07 480.07,426.96 477.05,426.96 477.05,426.83 474.04,426.83 474.04,426.69 471.03,426.69 471.03,426.55 468.01,426.55 468.01,426.39 465.00,426.39 465.00,426.22 461.99,426.22 461.99,426.05 458.97,426.05 458.97,425.86 455.96,425.86 455.96,425.66 452.95,425.66 452.95,425.45 449.93,425.45 449.93,425.24 446.92,425.24 446.92,425.01 443.90,425.01 443.90,424.77 440.89,424.77 440.89,424.53 437.88,424.53 437.88,424.27 434.86,424.27 434.86,424.01 431.85,424.01 431.85,423.74 428.84,423.74 428.84,423.45 425.82,423.45 425.82,423.16 422.81,423.16 422.81,422.86 419.79,422.86 419.79,422.55 416.78,422.55 416.78,422.23 413.77,422.23 413.77,421.91 410.75,421.91 410.75,421.57 407.74,421.57 407.74,421.23 404.73,421.23 404.73,420.88 401.71,420.88 401.71,420.52 398.70,420.52 398.70,420.16 395.68,420.16 395.68,419.79 392.67,419.79 392.67,419.41 389.66,419.41 389.66,419.02 386.64,419.02 386.64,418.62 383.63,418.62 383.63,418.22 380.62,418.22 380.62,417.81 377.60,417.81 377.60,417.40 374.59,417.40 374.59,416.98 371.58,416.98 371.58,416.55 368.56,416.55 368.56,416.12 365.55,416.12 365.55,415.68 362.53,415.68 362.53,415.24 359.52,415.24 359.52,414.79 356.51,414.79 356.51,414.33 353.49,414.33 353.49,413.88 350.48,413.88 350.48,413.41 347.47,413.41 347.47,412.94 344.45,412.94 344.45,412.47 341.44,412.47 341.44,411.99 338.42,411.99 338.42,411.51 335.41,411.51 335.41,411.02 332.40,411.02 332.40,410.53 329.38,410.53 329.38,410.04 326.37,410.04 326.37,409.54 323.36,409.54 323.36,409.04 320.34,409.04 320.34,408.54 317.33,408.54 317.33,408.04 314.32,408.04 314.32,407.53 311.30,407.53 311.30,407.02 308.29,407.02 308.29,406.50 305.27,406.50 305.27,405.99 302.26,405.99 302.26,405.47 299.25,405.47 299.25,404.95 296.23,404.95 296.23,404.43 293.22,404.43 293.22,403.91 290.21,403.91 290.21,403.38 287.19,403.38 287.19,402.86 284.18,402.86 284.18,402.33 281.16,402.33 281.16,401.80 278.15,401.80 278.15,401.28 275.14,401.28 275.14,400.75 272.12,400.75 272.12,400.22 269.11,400.22 269.11,399.69 266.10,399.69 266.10,399.17 263.08,399.17 263.08,398.64 260.07,398.64 260.07,398.11 257.05,398.11 257.05,397.59 254.04,397.59 254.04,397.06 251.03,397.06 251.03,396.54 248.01,396.54 248.01,396.02 245.00,396.02 245.00,395.50 241.99,395.50 241.99,394.98 238.97,394.98 238.97,394.46 235.96,394.46 235.96,393.95 232.95,393.95 232.95,393.44 229.93,393.44 229.93,392.93 226.92,392.93 226.92,415.33 223.90,415.33 223.90,414.83 220.89,414.83 220.89,414.33 217.88,414.33 217.88,413.83 214.86,413.83 214.86,413.33 211.85,413.33 211.85,412.84 208.84,412.84 208.84,412.36 205.82,412.36 205.82,411.87 202.81,411.87 202.81,411.39 199.79,411.39 199.79,410.92 196.78,410.92 196.78,410.45 193.77,410.45 193.77,409.98 190.75,409.98 190.75,409.52 187.74,409.52 187.74,409.07 184.73,409.07 184.73,408.62 181.71,408.62 181.71,408.17 178.70,408.17 178.70,407.74 175.68,407.74 175.68,407.30 172.67,407.30 172.67,406.88 169.66,406.88 169.66,406.46 166.64,406.46 166.64,406.05 163.63,406.05 163.63,405.64 160.62,405.64 160.62,405.24 157.60,405.24 157.60,404.85 154.59,404.85 154.59,404.47 151.58,404.47 151.58,404.09 148.56,404.09 148.56,403.73 145.55,403.73 145.55,403.37 142.53,403.37 142.53,403.01 139.52,403.01 139.52,402.67 136.51,402.67 136.51,402.34 133.49,402.34 133.49,402.01 130.48,402.01 130.48,401.69 127.47,401.69 127.47,401.39 124.45,401.39 124.45,401.09 121.44,401.09 121.44,400.80 118.42,400.80 118.42,400.52 115.41,400.52 115.41,400.25 112.40,400.25 112.40,399.99 109.38,399.99 109.38,399.74 106.37,399.74 106.37,399.50 103.36,399.50 103.36,399.28 100.34,399.28 100.34,399.06 97.33,399.06 97.33,398.85 94.32,398.85 94.32,398.66 91.30,398.66 91.30,398.47 88.29,398.47 88.29,398.30 85.27,398.30 85.27,398.14 82.26,398.14 82.26,397.98 79.25,397.98 79.25,397.85 76.23,397.85 76.23,397.72 73.22,397.72 73.22,397.60 70.21,397.60 70.21,397.50 67.19,397.50 67.19,397.40 64.18,397.40 64.18,397.32 61.16,397.32 61.16,397.25 58.15,397.25 58.15,397.20 55.14,397.20 55.14,397.15 52.12,397.15 52.12,397.12 49.11,397.12 49.11,397.10 46.10,397.10 46.10,397.09 43.08,397.09 43.08,397.09 40.07,397.09 40.07,397.11 37.05,397.11 37.05,397.13 34.04,397.13 34.04,397.17 31.03,397.17 31.03,397.22 28.01,397.22 28.01,397.28" fill="#80c0ff" stroke="none" stroke-width="0"/>
<polyline points="26.51,558.85 29.52,558.67 32.53,558.50 35.55,558.32 38.56,558.15 41.58,557.99 44.59,557.82 47.60,557.66 50.62,557.50 53.63,557.34 56.64,557.19 59.66,557.04 62.67,556.90 65.68,556.76 68.70,556.62 71.71,556.49 74.73,556.37 77.74,556.24 80.75,556.12 83.77,556.01 86.78,555.90 89.79,555.80 92.81,555.70 95.82,555.61 98.84,555.52 101.85,555.43 104.86,555.35 107.88,555.28 110.89,555.21 113.90,555.15 116.92,555.09 119.93,555.04 122.95,554.99 125.96,554.95 128.97,554.91 131.99,554.88 135.00,554.85 138.01,554.83 141.03,554.81 144.04,554.80 147.05,554.80 150.07,554.79 153.08,554.80 156.10,554.81 159.11,554.82 162.12,554.84 165.14,554.86 168.15,554.89 171.16,554.92 174.18,554.95 177.19,555.00 180.21,555.04 183.22,555.09 186.23,555.14 189.25,555.20 192.26,555.26 195.27,555.32 198.29,555.39 201.30,555.46 204.32,555.53 207.33,555.61 210.34,555.69 213.36,555.77 216.37,555.86 219.38,555.95 222.40,556.04 225.41,556.13 228.42,556.23" fill="none" stroke="#0000ff" stroke-width="1"/>
<polyline points="231.44,533.41 234.45,533.51 237.47,533.61 240.48,533.72 243.49,533.82 246.51,533.93 249.52,534.04 252.53,534.15 255.55,534.26 258.56,534.37 261.58,534.48 264.59,534.60 267.60,534.71 270.62,534.82 273.63,534.94 276.64,535.05 279.66,535.17 282.67,535.29 285.68,535.40 288.70,535.51 291.71,535.63 294.73,535.74 297.74,535.86 300.75,535.97 303.77,536.08 306.78,536.19 309.79,536.30 312.81,536.41 315.82,536.52 318.84,536.62 321.85,536.73 324.86,536.83 327.88,536.93 330.89,537.03 333.90,537.12 336.92,537.22 339.93,537.31 342.95,537.40 345.96,537.49 348.97,537.57 351.99,537.66 355.00,537.74 358.01,537.81 361.03,537.89 364.04,537.96 367.05,538.03 370.07,538.09 373.08,538.16 376.10,538.22 379.11,538.27 382.12,538.33 385.14,538.38 388.15,538.42 391.16,538.47 394.18,538.51 397.19,538.54 400.21,538.57 403.22,538.60 406.23,538.63 409.25,538.65 412.26,538.67 415.27,538.68 418.29,538.69 421.30,538.70 424.32,538.70 427.33,538.70 430.34,538.70 433.36,538.69 436.37,538.68 439.38,538.67 442.40,538.65 445.41,538.63 448.42,538.60 451.44,538.58 454.45,538.54 457.47,538.51 460.48,538.47 463.49,538.43 466.51,538.39 469.52,538.34 472.53,538.29 475.55,538.24 478.56,538.18 481.58,538.12 484.59,538.06 487.60,538.00 490.62,537.94 493.63,537.87 496.64,537.80 499.66,537.73 502.67,537.66 505.68,537.58 508.70,537.50 511.71,537.43 514.73,537.35 517.74,537.27 520.75,537.19 523.77,537.11 526.78,537.03 529.79,536.94 532.81,536.86 535.82,536.78 538.84,536.69 541.85,536.61 544.86,536.53 547.88,536.44 550.89,536.36 553.90,536.28 556.92,536.20 559.93,536.12 562.95,536.04 565.96,535.97 568.97,535.89 571.99,535.82 575.00,535.74 578.01,535.67 581.03,535.60 584.04,535.54 587.05,535.47 590.07,535.41 593.08,535.35 596.10,535.30 599.11,535.24 602.12,535.19 605.14,535.14 608.15,535.09 611.16,535.05 614.18,535.01 617.19,534.98 620.21,534.94 623.22,534.91 626.23,534.89 629.25,534.87 632.26,534.85 635.27,534.83 638.29,534.82 641.30,534.81 644.32,534.81 647.33,534.81 650.34,534.81 653.36,534.82 656.37,534.83 659.38,534.84 662.40,534.86 665.41,534.89 668.42,534.91 671.44,534.94 674.45,534.98 677.47,535.01 680.48,535.06 683.49,535.10 686.51,535.15 689.52,535.21 692.53,535.26 695.55,535.32 698.56,535.39 701.58,535.45 704.59,535.53 707.60,535.60 710.62,535.68 713.63,535.76 716.64,535.84 719.66,535.93 722.67,536.02 725.68,536.11 728.70,536.21 731.71,536.31 734.73,536.41 737.74,536.52 740.75,536.62 743.77,536.73 746.78,536.85 749.79,536.96 752.81,537.08 755.82,537.19 758.84,537.31 761.85,537.44 764.86,537.56 767.88,537.69 770.89,537.81 773.90,537.94 776.92,538.07 779.93,538.20 782.95,538.34 785.96,538.47 788.97,538.60 791.99,538.74 795.00,538.87 798.01,539.01 801.03,539.14 804.04,539.28 807.05,539.42 810.07,539.55 813.08,539.69 816.10,539.82 819.11,539.96 822.12,540.10 825.14,540.23 828.15,540.36 831.16,540.50 834.18,540.63 837.19,540.76 840.21,540.89 843.22,541.02 846.23,541.14 849.25,541.27 852.26,541.39 855.27,541.51 858.29,541.63 861.30,541.74 864.32,541.86 867.33,541.97 870.34,542.08 873.36,542.19 876.37,542.29 879.38,542.39 882.40,542.49 885.41,542.58 888.42,542.67 891.44,542.76 894.45,542.84 897.47,542.92 900.48,543.00 903.49,543.07 906.51,543.14 909.52,543.20 912.53,543.26 915.55,543.32 918.56,543.37 921.58,543.41 924.59,543.46 927.60,543.49 930.62,543.53 933.63,543.55 936.64,543.57 939.66,543.59 942.67,543.60 945.68,543.61" fill="none" stroke="#0000ff" stroke-width="1"/>
<polyline points="945.68,16.53 948.70,16.52 951.71,16.51 954.73,16.50 957.74,16.48 960.75,16.46 963.77,16.42 966.78,16.39 969.79,16.35 972.81,16.30 975.82,16.25 978.84,16.19 981.85,16.12 984.86,16.06 987.88,15.98 990.89,15.90 993.90,15.82 996.92,15.73 999.93,15.63 1002.95,15.53 1005.96,15.42 1008.97,15.31 1011.99,15.20 1015.00,15.08 1018.01,14.95 1021.03,14.82 1024.04,14.69 1027.05,14.55 1030.07,14.41 1033.08,14.26 1036.10,14.11 1039.11,13.96 1042.12,13.80 1045.14,13.64 1048.15,13.48 1051.16,13.31 1054.18,13.14 1057.19,12.97 1060.21,12.79 1063.22,12.62 1066.23,12.44 1069.25,12.26 1072.26,12.07 1075.27,11.89 1078.29,11.70 1081.30,11.51 1084.32,11.33 1087.33,11.14 1090.34,10.95 1093.36,10.76 1096.37,10.57 1099.38,10.38 1102.40,10.19 1105.41,10.00" fill="none" stroke="#0000ff" stroke-width="1"/>
<polyline points="1111.44,559.82 1114.45,559.63 1117.47,559.44 1120.48,559.26 1123.49,559.08" fill="none" stroke="#0000ff" stroke-width="1"/>
<polyline points="26.51,283.76 29.52,283.59 32.53,283.41 35.55,283.24 38.56,283.07 41.58,282.90 44.59,282.74 47.60,282.58 50.62,282.42 53.63,282.27 56.64,282.12 59.66,281.97 62.67,281.83 65.68,281.69 68.70,281.56 71.71,281.43 74.73,281.30 77.74,281.18 80.75,281.07 83.77,280.96 86.78,280.85 89.79,280.75 92.81,280.65 95.82,280.56 98.84,280.47 101.85,280.39 104.86,280.32 107.88,280.25 110.89,280.18 113.90,280.12 116.92,280.06 119.93,280.01 122.95,279.97 125.96,279.93 128.97,279.89 131.99,279.87 135.00,279.84 138.01,279.82 141.03,279.81 144.04,279.80 147.05,279.80 150.07,279.80 153.08,279.80 156.10,279.81 159.11,279.83 162.12,279.85 165.14,279.87 168.15,279.90 171.16,279.94 174.18,279.97 177.19,280.02 180.21,280.06 183.22,280.11 186.23,280.17 189.25,280.23 192.26,280.29 195.27,280.35 198.29,280.42 201.30,280.50 204.32,280.57 207.33,280.65 210.34,280.73 213.36,280.82 216.37,280.90 219.38,280.99 222.40,281.09 225.41,281.18" fill="none" stroke="#ff0000" stroke-width="1"/>
<polyline points="228.42,258.36 231.44,258.46 234.45,258.56 237.47,258.66 240.48,258.77 243.49,258.88 246.51,258.98 249.52,259.09 252.53,259.20 255.55,259.31 258.56,259.43 261.58,259.54 264.59,259.65 267.60,259.77 270.62,259.88 273.63,260.00 276.64,260.11 279.66,260.23 282.67,260.34 285.68,260.46 288.70,260.57 291.71,260.69 294.73,260.80 297.74,260.91 300.75,261.02 303.77,261.14 306.78,261.25 309.79,261.35 312.81,261.46 315.82,261.57 318.84,261.67 321.85,261.78 324.86,261.88 327.88,261.98 330.89,262.08 333.90,262.17 336.92,262.26 339.93,262.36 342.95,262.44 345.96,262.53 348.97,262.62 351.99,262.70 355.00,262.78 358.01,262.85 361.03,262.92 364.04,262.99 367.05,263.06 370.07,263.13 373.08,263.19 376.10,263.25 379.11,263.30 382.12,263.35 385.14,263.40 388.15,263.44 391.16,263.49 394.18,263.52 397.19,263.56 400.21,263.59 403.22,263.62 406.23,263.64 409.25,263.66 412.26,263.67 415.27,263.69 418.29,263.70 421.30,263.70 424.32,263.70 427.33,263.70 430.34,263.70 433.36,263.69 436.37,263.67 439.38,263.66 442.40,263.64 445.41,263.62 448.42,263.59 451.44,263.56 454.45,263.53 457.47,263.49 460.48,263.45 463.49,263.41 466.51,263.36 469.52,263.31 472.53,263.26 475.55,263.21 478.56,263.15 481.58,263.09 484.59,263.03 487.60,262.97 490.62,262.90 493.63,262.83 496.64,262.76 499.66,262.69 502.67,262.62 505.68,262.54 508.70,262.47 511.71,262.39 514.73,262.31 517.74,262.23 520.75,262.15 523.77,262.07 526.78,261.98 529.79,261.90 532.81,261.82 535.82,261.74 538.84,261.65 541.85,261.57 544.86,261.49 547.88,261.40 550.89,261.32 553.90,261.24 556.92,261.16 559.93,261.08 562.95,261.00 565.96,260.93 568.97,260.85 571.99,260.78 575.00,260.71 578.01,260.64 581.03,260.57 584.04,260.51 587.05,260.44 590.07,260.38 593.08,260.32 596.10,260.27 599.11,260.21 602.12,260.16 605.14,260.12 608.15,260.07 611.16,260.03 614.18,259.99 617.19,259.96 620.21,259.93 623.22,259.90 626.23,259.88 629.25,259.86 632.26,259.84 635.27,259.83 638.29,259.82 641.30,259.81 644.32,259.81 647.33,259.81 650.34,259.81 653.36,259.82 656.37,259.84 659.38,259.85 662.40,259.87 665.41,259.90 668.42,259.93 671.44,259.96 674.45,260.00 677.47,260.04 680.48,260.08 683.49,260.13 686.51,260.18 689.52,260.23 692.53,260.29 695.55,260.35 698.56,260.42 701.58,260.49 704.59,260.56 707.60,260.64 710.62,260.72 713.63,260.80 716.64,260.89 719.66,260.98 722.67,261.07 725.68,261.16 728.70,261.26 731.71,261.36 734.73,261.46 737.74,261.57 740.75,261.68 743.77,261.79 746.78,261.90 749.79,262.02 752.81,262.13 755.82,262.25 758.84,262.38 761.85,262.50 764.86,262.62 767.88,262.75 770.89,262.88 773.90,263.01 776.92,263.14 779.93,263.27 782.95,263.40 785.96,263.54 788.97,263.67 791.99,263.80 795.00,263.94 798.01,264.08 801.03,264.21 804.04,264.35 807.05,264.48 810.07,264.62 813.08,264.76 816.10,264.89 819.11,265.03 822.12,265.16 825.14,265.30 828.15,265.43 831.16,265.56 834.18,265.69 837.19,265.82 840.21,265.95 843.22,266.08 846.23,266.20 849.25,266.33 852.26,266.45 855.27,266.57 858.29,266.69 861.30,266.80 864.32,266.91 867.33,267.02 870.34,267.13 873.36,267.24 876.37,267.34 879.38,267.44 882.40,267.53 885.41,267.63 888.42,267.72 891.44,267.80 894.45,267.88 897.47,267.96 900.48,268.03 903.49,268.10 906.51,268.17 909.52,268.23 912.53,268.29 915.55,268.34 918.56,268.39 921.58,268.44 924.59,268.47 927.60,268.51 930.62,268.54 933.63,268.56 936.64,268.58 939.66,268.60 942.67,268.61" fill="none" stroke="#ff0000" stroke-width="1"/>
<polyline points="945.68,291.53 948.70,291.53 951.71,291.52 954.73,291.51 957.74,291.49 960.75,291.47 963.77,291.44 966.78,291.41 969.79,291.37 972.81,291.32 975.82,291.27 978.84,291.22 981.85,291.16 984.86,291.09 987.88,291.02 990.89,290.94 993.90,290.86 996.92,290.77 999.93,290.68 1002.95,290.58 1005.96,290.48 1008.97,290.37 1011.99,290.26 1015.00,290.14 1018.01,290.02 1021.03,289.89 1024.04,289.76 1027.05,289.62 1030.07,289.48 1033.08,289.34 1036.10,289.19 1039.11,289.04 1042.12,288.88 1045.14,288.72 1048.15,288.56 1051.16,288.39 1054.18,288.23 1057.19,288.06 1060.21,287.88 1063.22,287.71 1066.23,287.53 1069.25,287.35 1072.26,287.16 1075.27,286.98 1078.29,286.79 1081.30,286.61 1084.32,286.42 1087.33,286.23 1090.34,286.04 1093.36,285.85 1096.37,285.66 1099.38,285.48 1102.40,285.29 1105.41,285.10 1108.42,284.91 1111.44,284.72 1114.45,284.54 1117.47,284.35 1120.48,284.17 1123.49,283.99" fill="none" stroke="#ff0000" stroke-width="1"/>
<line x1="261.58" y1="10.00" x2="261.58" y2="560.00" stroke="#00c000" stroke-width="1" />
<line x1="538.84" y1="10.00" x2="538.84" y2="560.00" stroke="#00c000" stroke-width="1" />
<line x1="822.12" y1="10.00" x2="822.12" y2="560.00" stroke="#00c000" stroke-width="1" />
<line x1="1093.36" y1="10.00" x2="1093.36" y2="560.00" stroke="#00c000" stroke-width="1" />
<text x="20.00" y="560.00" font-family="Arial" font-size="11pt" text-anchor="end" alignment-baseline="middle" fill="#000000">0</text>
<line x1="25.00" y1="560.00" x2="1125.00" y2="560.00" stroke="#808080" stroke-width="0.5" />
<text x="20.00" y="514.17" font-family="Arial" font-size="11pt" text-anchor="end" alignment-baseline="middle" fill="#000000">2</text>
<line x1="25.00" y1="514.17" x2="1125.00" y2="514.17" stroke="#808080" stroke-width="0.5" />
<text x="20.00" y="468.33" font-family="Arial" font-size="11pt" text-anchor="end" alignment-baseline="middle" fill="#000000">4</text>
<line x1="25.00" y1="468.33" x2="1125.00" y2="468.33" stroke="#808080" stroke-width="0.5" />
<text x="20.00" y="422.50" font-family="Arial" font-size="11pt" text-anchor="end" alignment-baseline="middle" fill="#000000">6</text>
<line x1="25.00" y1="422.50" x2="1125.00" y2="422.50" stroke="#808080" stroke-width="0.5" />
<text x="20.00" y="376.67" font-family="Arial" font-size="11pt" text-anchor="end" alignment-baseline="middle" fill="#000000">8</text>
<line x1="25.00" y1="376.67" x2="1125.00" y2="376.67" stroke="#808080" stroke-width="0.5" />
<text x="20.00" y="330.83" font-family="Arial" font-size="11pt" text-anchor="end" alignment-baseline="middle" fill="#000000">10</text>
<line x1="25.00" y1="330.83" x2="1125.00" y2="330.83" stroke="#808080" stroke-width="0.5" />
<text x="20.00" y="285.00" font-family="Arial" font-size="11pt" text-anchor="end" alignment-baseline="middle" fill="#000000">12</text>
<line x1="25.00" y1="285.00" x2="1125.00" y2="285.00" stroke="#808080" stroke-width="0.5" />
<text x="20.00" y="239.17" font-family="Arial" font-size="11pt" text-anchor="end" alignment-baseline="middle" fill="#000000">14</text>
<line x1="25.00" y1="239.17" x2="1125.00" y2="239.17" stroke="#808080" stroke-width="0.5" />
<text x="20.00" y="193.33" font-family="Arial" font-size="11pt" text-anchor="end" alignment-baseline="middle" fill="#000000">16</text>
<line x1="25.00" y1="193.33" x2="1125.00" y2="193.33" stroke="#808080" stroke-width="0.5" />
<text x="20.00" y="147.50" font-family="Arial" font-size="11pt" text-anchor="end" alignment-baseline="middle" fill="#000000">18</text>
<line x1="25.00" y1="147.50" x2="1125.00" y2="147.50" stroke="#808080" stroke-width="0.5" />
<text x="20.00" y="101.67" font-family="Arial" font-size="11pt" text-anchor="end" alignment-baseline="middle" fill="#000000">20</text>
<line x1="25.00" y1="101.67" x2="1125.00" y2="101.67" stroke="#808080" stroke-width="0.5" />
<text x="20.00" y="55.83" font-family="Arial" font-size="11pt" text-anchor="end" alignment-baseline="middle" fill="#000000">22</text>
<line x1="25.00" y1="55.83" x2="1125.00" y2="55.83" stroke="#808080" stroke-width="0.5" />
<text x="20.00" y="10.00" font-family="Arial" font-size="11pt" text-anchor="end" alignment-baseline="middle" fill="#000000">24</text>
<line x1="25.00" y1="10.00" x2="1125.00" y2="10.00" stroke="#808080" stroke-width="0.5" />
<text x="71.71" y="572.00" font-family="Arial" font-size="11pt" text-anchor="middle" alignment-baseline="middle" fill="#000000">Jan</text>
<line x1="25.00" y1="10.00" x2="25.00" y2="560.00" stroke="#808080" stroke-width="0.5" />
<text x="160.62" y="572.00" font-family="Arial" font-size="11pt" text-anchor="middle" alignment-baseline="middle" fill="#000000">Feb</text>
<line x1="118.42" y1="10.00" x2="118.42" y2="560.00" stroke="#808080" stroke-width="0.5" />
<text x="249.52" y="572.00" font-family="Arial" font-size="11pt" text-anchor="middle" alignment-baseline="middle" fill="#000000">Mar</text>
<line x1="202.81" y1="10.00" x2="202.81" y2="560.00" stroke="#808080" stroke-width="0.5" />
<text x="341.44" y="572.00" font-family="Arial" font-size="11pt" text-anchor="middle" alignment-baseline="middle" fill="#000000">Apr</text>
<line x1="296.23" y1="10.00" x2="296.23" y2="560.00" stroke="#808080" stroke-width="0.5" />
<text x="433.36" y="572.00" font-family="Arial" font-size="11pt" text-anchor="middle" alignment-baseline="middle" fill="#000000">May</text>
<line x1="386.64" y1="10.00" x2="386.64" y2="560.00" stroke="#808080" stroke-width="0.5" />
<text x="525.27" y="572.00" font-family="Arial" font-size="11pt" text-anchor="middle" alignment-baseline="middle" fill="#000000">Jun</text>
<line x1="480.07" y1="10.00" x2="480.07" y2="560.00" stroke="#808080" stroke-width="0.5" />
<text x="617.19" y="572.00" font-family="Arial" font-size="11pt" text-anchor="middle" alignment-baseline="middle" fill="#000000">Jul</text>
<line x1="570.48" y1="10.00" x2="570.48" y2="560.00" stroke="#808080" stroke-width="0.5" />
<text x="710.62" y="572.00" font-family="Arial" font-size="11pt" text-anchor="middle" alignment-baseline="middle" fill="#000000">Aug</text>
<line x1="663.90" y1="10.00" x2="663.90" y2="560.00" stroke="#808080" stroke-width="0.5" />
<text x="802.53" y="572.00" font-family="Arial" font-size="11pt" text-anchor="middle" alignment-baseline="middle" fill="#000000">Sep</text>
<line x1="757.33" y1="10.00" x2="757.33" y2="560.00" stroke="#808080" stroke-width="0.5" />
<text x="894.45" y="572.00" font-family="Arial" font-size="11pt" text-anchor="middle" alignment-baseline="middle" fill="#000000">Oct</text>
<line x1="847.74" y1="10.00" x2="847.74" y2="560.00" stroke="#808080" stroke-width="0.5" />
<text x="986.37" y="572.00" font-family="Arial" font-size="11pt" text-anchor="middle" alignment-baseline="middle" fill="#000000">Nov</text>
<line x1="941.16" y1="10.00" x2="941.16" y2="560.00" stroke="#808080" stroke-width="0.5" />
<text x="1078.29" y="572.00" font-family="Arial" font-size="11pt" text-anchor="middle" alignment-baseline="middle" fill="#000000">Dec</text>
<line x1="1031.58" y1="10.00" x2="1031.58" y2="560.00" stroke="#808080" stroke-width="0.5" />
<line x1="1125.00" y1="10.00" x2="1125.00" y2="560.00" stroke="#808080" stroke-width="0.5" />
</svg>