<svg xmlns="http://www.w3.org/2000/svg" width="1135" height="585" viewBox="0 0 1135 585">
<rect x="0" y="0" width="1135" height="585" fill="#ffffff" stroke="none" stroke-width="0"/>
<rect x="25" y="10" width="1100" height="550" fill="#000000" stroke="none" stroke-width="0"/>
<polygon points="25,431.55 25,135.94 28.01,135.94 28.01,135.67 31.03,135.67 31.03,135.39 34.04,135.39 34.04,135.11 37.05,135.11 37.05,134.83 40.07,134.83 40.07,134.54 43.08,134.54 43.08,134.25 46.1,134.25 46.1,133.95 49.11,133.95 49.11,133.65 52.12,133.65 52.12,133.35 55.14,133.35 55.14,133.05 58.15,133.05 58.15,132.74 61.16,132.74 61.16,132.43 64.18,132.43 64.18,132.12 67.19,132.12 67.19,131.8 70.21,131.8 70.21,131.48 73.22,131.48 73.22,131.16 76.23,131.16 76.23,130.84 79.25,130.84 79.25,130.52 82.26,130.52 82.26,130.2 85.27,130.2 85.27,129.87 88.29,129.87 88.29,129.54 91.3,129.54 91.3,129.22 94.32,129.22 94.32,128.89 97.33,128.89 97.33,128.56 100.34,128.56 100.34,128.23 103.36,128.23 103.36,127.9 106.37,127.9 106.37,127.57 109.38,127.57 109.38,127.24 112.4,127.24 112.4,126.91 115.41,126.91 115.41,126.57 118.42,126.57 118.42,126.24 121.44,126.24 121.44,125.91 124.45,125.91 124.45,125.58 127.47,125.58 127.47,125.25 130.48,125.25 130.48,124.93 133.49,124.93 133.49,124.6 136.51,124.6 136.51,124.27 139.52,124.27 139.52,123.94 142.53,123.94 142.53,123.62 145.55,123.62 145.55,123.29 148.56,123.29 148.56,122.97 151.58,122.97 151.58,122.64 154.59,122.64 154.59,122.32 157.6,122.32 157.6,122 160.62,122 160.62,121.67 163.63,121.67 163.63,121.35 166.64,121.35 166.64,121.03 169.66,121.03 169.66,120.71 172.67,120.71 172.67,120.39 175.68,120.39 175.68,120.07 178.7,120.07 178.7,119.75 181.71,119.75 181.71,119.43 184.73,119.43 184.73,119.11 187.74,119.11 187.74,118.79 190.75,118.79 190.75,118.47 193.77,118.47 193.77,118.15 196.78,118.15 196.78,117.83 199.79,117.83 199.79,117.51 202.81,117.51 202.81,117.19 205.82,117.19 205.82,116.87 208.84,116.87 208.84,116.55 211.85,116.55 211.85,116.23 214.86,116.23 214.86,115.91 217.88,115.91 217.88,115.59 220.89,115.59 220.89,115.27 223.9,115.27 223.9,114.95 226.92,114.95 226.92,91.71 229.93,91.71 229.93,91.39 232.95,91.39 232.95,91.07 235.96,91.07 235.96,90.75 238.97,90.75 238.97,90.42 241.99,90.42 241.99,90.1 245,90.1 245,89.77 248.01,89.77 248.01,89.44 251.03,89.44 251.03,89.12 254.04,89.12 254.04,88.79 257.05,88.79 257.05,88.45 260.07,88.45 260.07,88.12 263.08,88.12 263.08,87.78 266.1,87.78 266.1,87.45 269.11,87.45 269.11,87.11 272.12,87.11 272.12,86.77 275.14,86.77 275.14,86.42 278.15,86.42 278.15,86.08 281.16,86.08 281.16,85.73 284.18,85.73 284.18,85.38 287.19,85.38 287.19,85.03 290.21,85.03 290.21,84.67 293.22,84.67 293.22,84.32 296.23,84.32 296.23,83.96 299.25,83.96 299.25,83.6 302.26,83.6 302.26,83.23 305.27,83.23 305.27,82.87 308.29,82.87 308.29,82.5 311.3,82.5 311.3,82.13 314.32,82.13 314.32,81.76 317.33,81.76 317.33,81.38 320.34,81.38 320.34,81 323.36,81 323.36,80.62 326.37,80.62 326.37,80.24 329.38,80.24 329.38,79.85 332.4,79.85 332.4,79.46 335.41,79.46 335.41,79.07 338.42,79.07 338.42,78.67 341.44,78.67 341.44,78.28 344.45,78.28 344.45,77.88 347.47,77.88 347.47,77.47 350.48,77.47 350.48,77.07 353.49,77.07 353.49,76.66 356.51,76.66 356.51,76.25 359.52,76.25 359.52,75.84 362.53,75.84 362.53,75.42 365.55,75.42 365.55,75 368.56,75 368.56,74.58 371.58,74.58 371.58,74.16 374.59,74.16 374.59,73.74 377.6,73.74 377.6,73.31 380.62,73.31 380.62,72.89 383.63,72.89 383.63,72.46 386.64,72.46 386.64,72.03 389.66,72.03 389.66,71.6 392.67,71.6 392.67,71.17 395.68,71.17 395.68,70.74 398.7,70.74 398.7,70.31 401.71,70.31 401.71,69.88 404.73,69.88 404.73,69.45 407.74,69.45 407.74,69.02 410.75,69.02 410.75,68.59 413.77,68.59 413.77,68.16 416.78,68.16 416.78,67.73 419.79,67.73 419.79,67.3 422.81,67.3 422.81,66.88 425.82,66.88 425.82,66.46 428.84,66.46 428.84,66.03 431.85,66.03 431.85,65.62 434.86,65.62 434.86,65.2 437.88,65.2 437.88,64.79 440.89,64.79 440.89,64.38 443.9,64.38 443.9,63.98 446.92,63.98 446.92,63.58 449.93,63.58 449.93,63.18 452.95,63.18 452.95,62.79 455.96,62.79 455.96,62.41 458.97,62.41 458.97,62.03 461.99,62.03 461.99,61.66 465,61.66 465,61.29 468.01,61.29 468.01,60.93 471.03,60.93 471.03,60.58 474.04,60.58 474.04,60.24 477.05,60.24 477.05,59.91 480.07,59.91 480.07,59.58 483.08,59.58 483.08,59.27 486.1,59.27 486.1,58.96 489.11,58.96 489.11,58.66 492.12,58.66 492.12,58.38 495.14,58.38 495.14,58.11 498.15,58.11 498.15,57.84 501.16,57.84 501.16,57.59 504.18,57.59 504.18,57.35 507.19,57.35 507.19,57.13 510.21,57.13 510.21,56.91 513.22,56.91 513.22,56.71 516.23,56.71 516.23,56.52 519.25,56.52 519.25,56.35 522.26,56.35 522.26,56.19 525.27,56.19 525.27,56.04 528.29,56.04 528.29,55.91 531.3,55.91 531.3,55.79 534.32,55.79 534.32,55.68 537.33,55.68 537.33,55.59 540.34,55.59 540.34,55.52 543.36,55.52 543.36,55.46 546.37,55.46 546.37,55.42 549.38,55.42 549.38,55.39 552.4,55.39 552.4,55.37 555.41,55.37 555.41,55.37 558.42,55.37 558.42,55.39 561.44,55.39 561.44,55.42 564.45,55.42 564.45,55.47 567.47,55.47 567.47,55.53 570.48,55.53 570.48,55.61 573.49,55.61 573.49,55.71 576.51,55.71 576.51,55.82 579.52,55.82 579.52,55.94 582.53,55.94 582.53,56.08 585.55,56.08 585.55,56.24 588.56,56.24 588.56,56.4 591.58,56.4 591.58,56.59 594.59,56.59 594.59,56.79 597.6,56.79 597.6,57 600.62,57 600.62,57.23 603.63,57.23 603.63,57.47 606.64,57.47 606.64,57.72 609.66,57.72 609.66,57.99 612.67,57.99 612.67,58.27 615.68,58.27 615.68,58.56 618.7,58.56 618.7,58.87 621.71,58.87 621.71,59.18 624.73,59.18 624.73,59.51 627.74,59.51 627.74,59.86 630.75,59.86 630.75,60.21 633.77,60.21 633.77,60.57 636.78,60.57 636.78,60.95 639.79,60.95 639.79,61.33 642.81,61.33 642.81,61.73 645.82,61.73 645.82,62.14 648.84,62.14 648.84,62.55 651.85,62.55 651.85,62.98 654.86,62.98 654.86,63.41 657.88,63.41 657.88,63.86 660.89,63.86 660.89,64.31 663.9,64.31 663.9,64.77 666.92,64.77 666.92,65.24 669.93,65.24 669.93,65.72 672.95,65.72 672.95,66.2 675.96,66.2 675.96,66.7 678.97,66.7 678.97,67.2 681.99,67.2 681.99,67.7 685,67.7 685,68.22 688.01,68.22 688.01,68.74 691.03,68.74 691.03,69.26 694.04,69.26 694.04,69.79 697.05,69.79 697.05,70.33 700.07,70.33 700.07,70.87 703.08,70.87 703.08,71.42 706.1,71.42 706.1,71.97 709.11,71.97 709.11,72.53 712.12,72.53 712.12,73.09 715.14,73.09 715.14,73.65 718.15,73.65 718.15,74.22 721.16,74.22 721.16,74.79 724.18,74.79 724.18,75.37 727.19,75.37 727.19,75.94 730.21,75.94 730.21,76.52 733.22,76.52 733.22,77.11 736.23,77.11 736.23,77.69 739.25,77.69 739.25,78.28 742.26,78.28 742.26,78.87 745.27,78.87 745.27,79.46 748.29,79.46 748.29,80.06 751.3,80.06 751.3,80.65 754.32,80.65 754.32,81.25 757.33,81.25 757.33,81.84 760.34,81.84 760.34,82.44 763.36,82.44 763.36,83.04 766.37,83.04 766.37,83.64 769.38,83.64 769.38,84.24 772.4,84.24 772.4,84.84 775.41,84.84 775.41,85.44 778.42,85.44 778.42,86.04 781.44,86.04 781.44,86.63 784.45,86.63 784.45,87.23 787.47,87.23 787.47,87.83 790.48,87.83 790.48,88.42 793.49,88.42 793.49,89.02 796.51,89.02 796.51,89.61 799.52,89.61 799.52,90.2 802.53,90.2 802.53,90.79 805.55,90.79 805.55,91.37 808.56,91.37 808.56,91.96 811.58,91.96 811.58,92.54 814.59,92.54 814.59,93.12 817.6,93.12 817.6,93.69 820.62,93.69 820.62,94.27 823.63,94.27 823.63,94.84 826.64,94.84 826.64,95.4 829.66,95.4 829.66,95.97 832.67,95.97 832.67,96.53 835.68,96.53 835.68,97.08 838.7,97.08 838.7,97.63 841.71,97.63 841.71,98.18 844.73,98.18 844.73,98.73 847.74,98.73 847.74,99.27 850.75,99.27 850.75,99.8 853.77,99.8 853.77,100.33 856.78,100.33 856.78,100.86 859.79,100.86 859.79,101.38 862.81,101.38 862.81,101.89 865.82,101.89 865.82,102.4 868.84,102.4 868.84,102.91 871.85,102.91 871.85,103.4 874.86,103.4 874.86,103.9 877.88,103.9 877.88,104.38 880.89,104.38 880.89,104.86 883.9,104.86 883.9,105.33 886.92,105.33 886.92,105.8 889.93,105.8 889.93,106.26 892.95,106.26 892.95,106.71 895.96,106.71 895.96,107.16 898.97,107.16 898.97,107.6 901.99,107.6 901.99,108.03 905,108.03 905,108.45 908.01,108.45 908.01,108.86 911.03,108.86 911.03,109.27 914.04,109.27 914.04,109.67 917.05,109.67 917.05,110.06 920.07,110.06 920.07,110.44 923.08,110.44 923.08,110.82 926.1,110.82 926.1,111.18 929.11,111.18 929.11,111.54 932.12,111.54 932.12,111.89 935.14,111.89 935.14,112.23 938.15,112.23 938.15,112.56 941.16,112.56 941.16,112.88 944.18,112.88 944.18,136.11 947.19,136.11 947.19,136.41 950.21,136.41 950.21,136.7 953.22,136.7 953.22,136.98 956.23,136.98 956.23,137.26 959.25,137.26 959.25,137.52 962.26,137.52 962.26,137.77 965.27,137.77 965.27,138.01 968.29,138.01 968.29,138.25 971.3,138.25 971.3,138.47 974.32,138.47 974.32,138.68 977.33,138.68 977.33,138.88 980.34,138.88 980.34,139.07 983.36,139.07 983.36,139.25 986.37,139.25 986.37,139.41 989.38,139.41 989.38,139.57 992.4,139.57 992.4,139.72 995.41,139.72 995.41,139.85 998.42,139.85 998.42,139.97 1001.44,139.97 1001.44,140.09 1004.45,140.09 1004.45,140.19 1007.47,140.19 1007.47,140.28 1010.48,140.28 1010.48,140.36 1013.49,140.36 1013.49,140.43 1016.51,140.43 1016.51,140.49 1019.52,140.49 1019.52,140.53 1022.53,140.53 1022.53,140.57 1025.55,140.57 1025.55,140.59 1028.56,140.59 1028.56,140.61 1031.58,140.61 1031.58,140.61 1034.59,140.61 1034.59,140.6 1037.6,140.6 1037.6,140.59 1040.62,140.59 1040.62,140.56 1043.63,140.56 1043.63,140.52 1046.64,140.52 1046.64,140.47 1049.66,140.47 1049.66,140.41 1052.67,140.41 1052.67,140.34 1055.68,140.34 1055.68,140.26 1058.7,140.26 1058.7,140.17 1061.71,140.17 1061.71,140.07 1064.73,140.07 1064.73,139.96 1067.74,139.96 1067.74,139.84 1070.75,139.84 1070.75,139.71 1073.77,139.71 1073.77,139.57 1076.78,139.57 1076.78,139.42 1079.79,139.42 1079.79,139.26 1082.81,139.26 1082.81,139.1 1085.82,139.1 1085.82,138.92 1088.84,138.92 1088.84,138.74 1091.85,138.74 1091.85,138.55 1094.86,138.55 1094.86,138.35 1097.88,138.35 1097.88,138.15 1100.89,138.15 1100.89,137.94 1103.9,137.94 1103.9,137.72 1106.92,137.72 1106.92,137.49 1109.93,137.49 1109.93,137.26 1112.95,137.26 1112.95,137.02 1115.96,137.02 1115.96,136.77 1118.97,136.77 1118.97,136.52 1121.99,136.52 1121.99,136.26 1125,136.26 1125,431.67 1121.99,431.67 1121.99,431.78 1118.97,431.78 1118.97,431.9 1115.96,431.9 1115.96,432.03 1112.95,432.03 1112.95,432.17 1109.93,432.17 1109.93,432.31 1106.92,432.31 1106.92,432.47 1103.9,432.47 1103.9,432.63 1100.89,432.63 1100.89,432.8 1097.88,432.8 1097.88,432.98 1094.86,432.98 1094.86,433.17 1091.85,433.17 1091.85,433.36 1088.84,433.36 1088.84,433.56 1085.82,433.56 1085.82,433.77 1082.81,433.77 1082.81,433.99 1079.79,433.99 1079.79,434.21 1076.78,434.21 1076.78,434.44 1073.77,434.44 1073.77,434.67 1070.75,434.67 1070.75,434.91 1067.74,434.91 1067.74,435.16 1064.73,435.16 1064.73,435.41 1061.71,435.41 1061.71,435.66 1058.7,435.66 1058.7,435.93 1055.68,435.93 1055.68,436.19 1052.67,436.19 1052.67,436.46 1049.66,436.46 1049.66,436.73 1046.64,436.73 1046.64,437.01 1043.63,437.01 1043.63,437.29 1040.62,437.29 1040.62,437.57 1037.6,437.57 1037.6,437.86 1034.59,437.86 1034.59,438.15 1031.58,438.15 1031.58,438.44 1028.56,438.44 1028.56,438.74 1025.55,438.74 1025.55,439.04 1022.53,439.04 1022.53,439.34 1019.52,439.34 1019.52,439.64 1016.51,439.64 1016.51,439.95 1013.49,439.95 1013.49,440.25 1010.48,440.25 1010.48,440.56 1007.47,440.56 1007.47,440.87 1004.45,440.87 1004.45,441.18 1001.44,441.18 1001.44,441.49 998.42,441.49 998.42,441.8 995.41,441.8 995.41,442.11 992.4,442.11 992.4,442.43 989.38,442.43 989.38,442.74 986.37,442.74 986.37,443.05 983.36,443.05 983.36,443.36 980.34,443.36 980.34,443.68 977.33,443.68 977.33,443.99 974.32,443.99 974.32,444.3 971.3,444.3 971.3,444.61 968.29,444.61 968.29,444.92 965.27,444.92 965.27,445.23 962.26,445.23 962.26,445.54 959.25,445.54 959.25,445.85 956.23,445.85 956.23,446.16 953.22,446.16 953.22,446.47 950.21,446.47 950.21,446.77 947.19,446.77 947.19,447.08 944.18,447.08 944.18,424.47 941.16,424.47 941.16,424.77 938.15,424.77 938.15,425.08 935.14,425.08 935.14,425.38 932.12,425.38 932.12,425.68 929.11,425.68 929.11,425.99 926.1,425.99 926.1,426.29 923.08,426.29 923.08,426.59 920.07,426.59 920.07,426.89 917.05,426.89 917.05,427.18 914.04,427.18 914.04,427.48 911.03,427.48 911.03,427.78 908.01,427.78 908.01,428.08 905,428.08 905,428.37 901.99,428.37 901.99,428.67 898.97,428.67 898.97,428.96 895.96,428.96 895.96,429.26 892.95,429.26 892.95,429.55 889.93,429.55 889.93,429.84 886.92,429.84 886.92,430.14 883.9,430.14 883.9,430.43 880.89,430.43 880.89,430.72 877.88,430.72 877.88,431.01 874.86,431.01 874.86,431.3 871.85,431.3 871.85,431.6 868.84,431.6 868.84,431.89 865.82,431.89 865.82,432.18 862.81,432.18 862.81,432.47 859.79,432.47 859.79,432.76 856.78,432.76 856.78,433.06 853.77,433.06 853.77,433.35 850.75,433.35 850.75,433.65 847.74,433.65 847.74,433.94 844.73,433.94 844.73,434.24 841.71,434.24 841.71,434.54 838.7,434.54 838.7,434.83 835.68,434.83 835.68,435.13 832.67,435.13 832.67,435.44 829.66,435.44 829.66,435.74 826.64,435.74 826.64,436.04 823.63,436.04 823.63,436.35 820.62,436.35 820.62,436.66 817.6,436.66 817.6,436.96 814.59,436.96 814.59,437.27 811.58,437.27 811.58,437.59 808.56,437.59 808.56,437.9 805.55,437.9 805.55,438.22 802.53,438.22 802.53,438.53 799.52,438.53 799.52,438.85 796.51,438.85 796.51,439.17 793.49,439.17 793.49,439.5 790.48,439.5 790.48,439.82 787.47,439.82 787.47,440.15 784.45,440.15 784.45,440.48 781.44,440.48 781.44,440.82 778.42,440.82 778.42,441.15 775.41,441.15 775.41,441.49 772.4,441.49 772.4,441.83 769.38,441.83 769.38,442.17 766.37,442.17 766.37,442.52 763.36,442.52 763.36,442.87 760.34,442.87 760.34,443.22 757.33,443.22 757.33,443.58 754.32,443.58 754.32,443.93 751.3,443.93 751.3,444.29 748.29,444.29 748.29,444.66 745.27,444.66 745.27,445.02 742.26,445.02 742.26,445.39 739.25,445.39 739.25,445.77 736.23,445.77 736.23,446.14 733.22,446.14 733.22,446.52 730.21,446.52 730.21,446.9 727.19,446.9 727.19,447.28 724.18,447.28 724.18,447.67 721.16,447.67 721.16,448.06 718.15,448.06 718.15,448.45 715.14,448.45 715.14,448.84 712.12,448.84 712.12,449.24 709.11,449.24 709.11,449.63 706.1,449.63 706.1,450.03 703.08,450.03 703.08,450.43 700.07,450.43 700.07,450.84 697.05,450.84 697.05,451.24 694.04,451.24 694.04,451.64 691.03,451.64 691.03,452.05 688.01,452.05 688.01,452.46 685,452.46 685,452.87 681.99,452.87 681.99,453.28 678.97,453.28 678.97,453.69 675.96,453.69 675.96,454.1 672.95,454.1 672.95,454.51 669.93,454.51 669.93,454.92 666.92,454.92 666.92,455.33 663.9,455.33 663.9,455.74 660.89,455.74 660.89,456.15 657.88,456.15 657.88,456.56 654.86,456.56 654.86,456.96 651.85,456.96 651.85,457.37 648.84,457.37 648.84,457.77 645.82,457.77 645.82,458.17 642.81,458.17 642.81,458.57 639.79,458.57 639.79,458.96 636.78,458.96 636.78,459.35 633.77,459.35 633.77,459.74 630.75,459.74 630.75,460.13 627.74,460.13 627.74,460.5 624.73,460.5 624.73,460.88 621.71,460.88 621.71,461.24 618.7,461.24 618.7,461.61 615.68,461.61 615.68,461.96 612.67,461.96 612.67,462.31 609.66,462.31 609.66,462.65 606.64,462.65 606.64,462.99 603.63,462.99 603.63,463.31 600.62,463.31 600.62,463.63 597.6,463.63 597.6,463.94 594.59,463.94 594.59,464.24 591.58,464.24 591.58,464.53 588.56,464.53 588.56,464.81 585.55,464.81 585.55,465.08 582.53,465.08 582.53,465.35 579.52,465.35 579.52,465.6 576.51,465.6 576.51,465.84 573.49,465.84 573.49,466.06 570.48,466.06 570.48,466.28 567.47,466.28 567.47,466.48 564.45,466.48 564.45,466.67 561.44,466.67 561.44,466.85 558.42,466.85 558.42,467.02 555.41,467.02 555.41,467.17 552.4,467.17 552.4,467.31 549.38,467.31 549.38,467.43 546.37,467.43 546.37,467.54 543.36,467.54 543.36,467.64 540.34,467.64 540.34,467.72 537.33,467.72 537.33,467.79 534.32,467.79 534.32,467.84 531.3,467.84 531.3,467.88 528.29,467.88 528.29,467.9 525.27,467.9 525.27,467.91 522.26,467.91 522.26,467.9 519.25,467.9 519.25,467.87 516.23,467.87 516.23,467.84 513.22,467.84 513.22,467.78 510.21,467.78 510.21,467.71 507.19,467.71 507.19,467.63 504.18,467.63 504.18,467.53 501.16,467.53 501.16,467.41 498.15,467.41 498.15,467.29 495.14,467.29 495.14,467.14 492.12,467.14 492.12,466.99 489.11,466.99 489.11,466.81 486.1,466.81 486.1,466.63 483.08,466.63 483.08,466.43 480.07,466.43 480.07,466.21 477.05,466.21 477.05,465.99 474.04,465.99 474.04,465.75 471.03,465.75 471.03,465.49 468.01,465.49 468.01,465.22 465,465.22 465,464.94 461.99,464.94 461.99,464.65 458.97,464.65 458.97,464.35 455.96,464.35 455.96,464.03 452.95,464.03 452.95,463.7 449.93,463.7 449.93,463.36 446.92,463.36 446.92,463.01 443.9,463.01 443.9,462.65 440.89,462.65 440.89,462.27 437.88,462.27 437.88,461.89 434.86,461.89 434.86,461.49 431.85,461.49 431.85,461.09 428.84,461.09 428.84,460.68 425.82,460.68 425.82,460.25 422.81,460.25 422.81,459.82 419.79,459.82 419.79,459.38 416.78,459.38 416.78,458.93 413.77,458.93 413.77,458.47 410.75,458.47 410.75,458 407.74,458 407.74,457.53 404.73,457.53 404.73,457.05 401.71,457.05 401.71,456.56 398.7,456.56 398.7,456.07 395.68,456.07 395.68,455.57 392.67,455.57 392.67,455.06 389.66,455.06 389.66,454.55 386.64,454.55 386.64,454.03 383.63,454.03 383.63,453.51 380.62,453.51 380.62,452.98 377.6,452.98 377.6,452.44 374.59,452.44 374.59,451.9 371.58,451.9 371.58,451.36 368.56,451.36 368.56,450.81 365.55,450.81 365.55,450.26 362.53,450.26 362.53,449.71 359.52,449.71 359.52,449.15 356.51,449.15 356.51,448.58 353.49,448.58 353.49,448.02 350.48,448.02 350.48,447.45 347.47,447.45 347.47,446.88 344.45,446.88 344.45,446.31 341.44,446.31 341.44,445.73 338.42,445.73 338.42,445.15 335.41,445.15 335.41,444.57 332.4,444.57 332.4,443.99 329.38,443.99 329.38,443.41 326.37,443.41 326.37,442.83 323.36,442.83 323.36,442.24 320.34,442.24 320.34,441.66 317.33,441.66 317.33,441.07 314.32,441.07 314.32,440.49 311.3,440.49 311.3,439.9 308.29,439.9 308.29,439.32 305.27,439.32 305.27,438.73 302.26,438.73 302.26,438.15 299.25,438.15 299.25,437.56 296.23,437.56 296.23,436.98 293.22,436.98 293.22,436.4 290.21,436.4 290.21,435.82 287.19,435.82 287.19,435.24 284.18,435.24 284.18,434.66 281.16,434.66 281.16,434.09 278.15,434.09 278.15,433.51 275.14,433.51 275.14,432.94 272.12,432.94 272.12,432.37 269.11,432.37 269.11,431.81 266.1,431.81 266.1,431.24 263.08,431.24 263.08,430.68 260.07,430.68 260.07,430.13 257.05,430.13 257.05,429.57 254.04,429.57 254.04,429.02 251.03,429.02 251.03,428.47 248.01,428.47 248.01,427.93 245,427.93 245,427.39 241.99,427.39 241.99,426.85 238.97,426.85 238.97,426.32 235.96,426.32 235.96,425.8 232.95,425.8 232.95,425.27 229.93,425.27 229.93,424.76 226.92,424.76 226.92,447.16 223.9,447.16 223.9,446.65 220.89,446.65 220.89,446.15 217.88,446.15 217.88,445.66 214.86,445.66 214.86,445.17 211.85,445.17 211.85,444.68 208.84,444.68 208.84,444.2 205.82,444.2 205.82,443.73 202.81,443.73 202.81,443.27 199.79,443.27 199.79,442.81 196.78,442.81 196.78,442.35 193.77,442.35 193.77,441.91 190.75,441.91 190.75,441.47 187.74,441.47 187.74,441.04 184.73,441.04 184.73,440.61 181.71,440.61 181.71,440.2 178.7,440.2 178.7,439.79 175.68,439.79 175.68,439.39 172.67,439.39 172.67,438.99 169.66,438.99 169.66,438.61 166.64,438.61 166.64,438.23 163.63,438.23 163.63,437.86 160.62,437.86 160.62,437.5 157.6,437.5 157.6,437.15 154.59,437.15 154.59,436.8 151.58,436.8 151.58,436.47 148.56,436.47 148.56,436.15 145.55,436.15 145.55,435.83 142.53,435.83 142.53,435.52 139.52,435.52 139.52,435.23 136.51,435.23 136.51,434.94 133.49,434.94 133.49,434.66 130.48,434.66 130.48,434.39 127.47,434.39 127.47,434.13 124.45,434.13 124.45,433.89 121.44,433.89 121.44,433.65 118.42,433.65 118.42,433.42 115.41,433.42 115.41,433.21 112.4,433.21 112.4,433 109.38,433 109.38,432.8 106.37,432.8 106.37,432.62 103.36,432.62 103.36,432.44 100.34,432.44 100.34,432.28 97.33,432.28 97.33,432.13 94.32,432.13 94.32,431.98 91.3,431.98 91.3,431.85 88.29,431.85 88.29,431.73 85.27,431.73 85.27,431.62 82.26,431.62 82.26,431.52 79.25,431.52 79.25,431.43 76.23,431.43 76.23,431.35 73.22,431.35 73.22,431.28 70.21,431.28 70.21,431.23 67.19,431.23 67.19,431.18 64.18,431.18 64.18,431.15 61.16,431.15 61.16,431.12 58.15,431.12 58.15,431.11 55.14,431.11 55.14,431.1 52.12,431.1 52.12,431.11 49.11,431.11 49.11,431.13 46.1,431.13 46.1,431.16 43.08,431.16 43.08,431.2 40.07,431.2 40.07,431.25 37.05,431.25 37.05,431.31 34.04,431.31 34.04,431.38 31.03,431.38 31.03,431.46 28.01,431.46 28.01,431.55" fill="#002040" stroke="none" stroke-width="0"/>
<polygon points="25,419.87 25,147.61 28.01,147.61 28.01,147.33 31.03,147.33 31.03,147.05 34.04,147.05 34.04,146.76 37.05,146.76 37.05,146.47 40.07,146.47 40.07,146.17 43.08,146.17 43.08,145.87 46.1,145.87 46.1,145.57 49.11,145.57 49.11,145.26 52.12,145.26 52.12,144.94 55.14,144.94 55.14,144.63 58.15,144.63 58.15,144.31 61.16,144.31 61.16,143.98 64.18,143.98 64.18,143.66 67.19,143.66 67.19,143.33 70.21,143.33 70.21,143 73.22,143 73.22,142.67 76.23,142.67 76.23,142.33 79.25,142.33 79.25,142 82.26,142 82.26,141.66 85.27,141.66 85.27,141.32 88.29,141.32 88.29,140.98 91.3,140.98 91.3,140.64 94.32,140.64 94.32,140.3 97.33,140.3 97.33,139.95 100.34,139.95 100.34,139.61 103.36,139.61 103.36,139.27 106.37,139.27 106.37,138.92 109.38,138.92 109.38,138.58 112.4,138.58 112.4,138.23 115.41,138.23 115.41,137.89 118.42,137.89 118.42,137.55 121.44,137.55 121.44,137.2 124.45,137.2 124.45,136.86 127.47,136.86 127.47,136.52 130.48,136.52 130.48,136.18 133.49,136.18 133.49,135.84 136.51,135.84 136.51,135.5 139.52,135.5 139.52,135.17 142.53,135.17 142.53,134.83 145.55,134.83 145.55,134.49 148.56,134.49 148.56,134.16 151.58,134.16 151.58,133.83 154.59,133.83 154.59,133.49 157.6,133.49 157.6,133.16 160.62,133.16 160.62,132.83 163.63,132.83 163.63,132.5 166.64,132.5 166.64,132.18 169.66,132.18 169.66,131.85 172.67,131.85 172.67,131.52 175.68,131.52 175.68,131.2 178.7,131.2 178.7,130.88 181.71,130.88 181.71,130.55 184.73,130.55 184.73,130.23 187.74,130.23 187.74,129.91 190.75,129.91 190.75,129.59 193.77,129.59 193.77,129.27 196.78,129.27 196.78,128.95 199.79,128.95 199.79,128.63 202.81,128.63 202.81,128.32 205.82,128.32 205.82,128 208.84,128 208.84,127.68 211.85,127.68 211.85,127.37 214.86,127.37 214.86,127.05 217.88,127.05 217.88,126.74 220.89,126.74 220.89,126.43 223.9,126.43 223.9,126.12 226.92,126.12 226.92,102.89 229.93,102.89 229.93,102.57 232.95,102.57 232.95,102.26 235.96,102.26 235.96,101.95 238.97,101.95 238.97,101.64 241.99,101.64 241.99,101.33 245,101.33 245,101.02 248.01,101.02 248.01,100.7 251.03,100.7 251.03,100.39 254.04,100.39 254.04,100.08 257.05,100.08 257.05,99.76 260.07,99.76 260.07,99.45 263.08,99.45 263.08,99.13 266.1,99.13 266.1,98.82 269.11,98.82 269.11,98.5 272.12,98.5 272.12,98.18 275.14,98.18 275.14,97.86 278.15,97.86 278.15,97.54 281.16,97.54 281.16,97.22 284.18,97.22 284.18,96.9 287.19,96.9 287.19,96.57 290.21,96.57 290.21,96.25 293.22,96.25 293.22,95.92 296.23,95.92 296.23,95.59 299.25,95.59 299.25,95.26 302.26,95.26 302.26,94.93 305.27,94.93 305.27,94.6 308.29,94.6 308.29,94.27 311.3,94.27 311.3,93.93 314.32,93.93 314.32,93.6 317.33,93.6 317.33,93.26 320.34,93.26 320.34,92.92 323.36,92.92 323.36,92.58 326.37,92.58 326.37,92.24 329.38,92.24 329.38,91.89 332.4,91.89 332.4,91.55 335.41,91.55 335.41,91.2 338.42,91.2 338.42,90.85 341.44,90.85 341.44,90.5 344.45,90.5 344.45,90.14 347.47,90.14 347.47,89.79 350.48,89.79 350.48,89.43 353.49,89.43 353.49,89.07 356.51,89.07 356.51,88.71 359.52,88.71 359.52,88.35 362.53,88.35 362.53,87.99 365.55,87.99 365.55,87.62 368.56,87.62 368.56,87.26 371.58,87.26 371.58,86.89 374.59,86.89 374.59,86.52 377.6,86.52 377.6,86.15 380.62,86.15 380.62,85.78 383.63,85.78 383.63,85.41 386.64,85.41 386.64,85.04 389.66,85.04 389.66,84.67 392.67,84.67 392.67,84.3 395.68,84.3 395.68,83.93 398.7,83.93 398.7,83.56 401.71,83.56 401.71,83.19 404.73,83.19 404.73,82.82 407.74,82.82 407.74,82.45 410.75,82.45 410.75,82.08 413.77,82.08 413.77,81.71 416.78,81.71 416.78,81.35 419.79,81.35 419.79,80.98 422.81,80.98 422.81,80.62 425.82,80.62 425.82,80.26 428.84,80.26 428.84,79.9 431.85,79.9 431.85,79.54 434.86,79.54 434.86,79.19 437.88,79.19 437.88,78.84 440.89,78.84 440.89,78.49 443.9,78.49 443.9,78.14 446.92,78.14 446.92,77.8 449.93,77.8 449.93,77.46 452.95,77.46 452.95,77.13 455.96,77.13 455.96,76.8 458.97,76.8 458.97,76.48 461.99,76.48 461.99,76.16 465,76.16 465,75.85 468.01,75.85 468.01,75.54 471.03,75.54 471.03,75.24 474.04,75.24 474.04,74.95 477.05,74.95 477.05,74.66 480.07,74.66 480.07,74.38 483.08,74.38 483.08,74.11 486.1,74.11 486.1,73.85 489.11,73.85 489.11,73.59 492.12,73.59 492.12,73.35 495.14,73.35 495.14,73.11 498.15,73.11 498.15,72.88 501.16,72.88 501.16,72.66 504.18,72.66 504.18,72.45 507.19,72.45 507.19,72.25 510.21,72.25 510.21,72.07 513.22,72.07 513.22,71.89 516.23,71.89 516.23,71.72 519.25,71.72 519.25,71.56 522.26,71.56 522.26,71.41 525.27,71.41 525.27,71.28 528.29,71.28 528.29,71.15 531.3,71.15 531.3,71.04 534.32,71.04 534.32,70.94 537.33,70.94 537.33,70.85 540.34,70.85 540.34,70.77 543.36,70.77 543.36,70.71 546.37,70.71 546.37,70.66 549.38,70.66 549.38,70.62 552.4,70.62 552.4,70.59 555.41,70.59 555.41,70.58 558.42,70.58 558.42,70.58 561.44,70.58 561.44,70.59 564.45,70.59 564.45,70.61 567.47,70.61 567.47,70.65 570.48,70.65 570.48,70.7 573.49,70.7 573.49,70.76 576.51,70.76 576.51,70.84 579.52,70.84 579.52,70.93 582.53,70.93 582.53,71.03 585.55,71.03 585.55,71.15 588.56,71.15 588.56,71.28 591.58,71.28 591.58,71.42 594.59,71.42 594.59,71.57 597.6,71.57 597.6,71.74 600.62,71.74 600.62,71.92 603.63,71.92 603.63,72.11 606.64,72.11 606.64,72.31 609.66,72.31 609.66,72.53 612.67,72.53 612.67,72.75 615.68,72.75 615.68,72.99 618.7,72.99 618.7,73.24 621.71,73.24 621.71,73.5 624.73,73.5 624.73,73.78 627.74,73.78 627.74,74.06 630.75,74.06 630.75,74.35 633.77,74.35 633.77,74.66 636.78,74.66 636.78,74.97 639.79,74.97 639.79,75.3 642.81,75.3 642.81,75.64 645.82,75.64 645.82,75.98 648.84,75.98 648.84,76.34 651.85,76.34 651.85,76.7 654.86,76.7 654.86,77.07 657.88,77.07 657.88,77.46 660.89,77.46 660.89,77.85 663.9,77.85 663.9,78.25 666.92,78.25 666.92,78.66 669.93,78.66 669.93,79.08 672.95,79.08 672.95,79.5 675.96,79.5 675.96,79.94 678.97,79.94 678.97,80.38 681.99,80.38 681.99,80.82 685,80.82 685,81.28 688.01,81.28 688.01,81.74 691.03,81.74 691.03,82.21 694.04,82.21 694.04,82.68 697.05,82.68 697.05,83.16 700.07,83.16 700.07,83.65 703.08,83.65 703.08,84.14 706.1,84.14 706.1,84.64 709.11,84.64 709.11,85.14 712.12,85.14 712.12,85.65 715.14,85.65 715.14,86.16 718.15,86.16 718.15,86.68 721.16,86.68 721.16,87.2 724.18,87.2 724.18,87.73 727.19,87.73 727.19,88.25 730.21,88.25 730.21,88.79 733.22,88.79 733.22,89.32 736.23,89.32 736.23,89.86 739.25,89.86 739.25,90.41 742.26,90.41 742.26,90.95 745.27,90.95 745.27,91.5 748.29,91.5 748.29,92.05 751.3,92.05 751.3,92.61 754.32,92.61 754.32,93.16 757.33,93.16 757.33,93.72 760.34,93.72 760.34,94.28 763.36,94.28 763.36,94.84 766.37,94.84 766.37,95.41 769.38,95.41 769.38,95.97 772.4,95.97 772.4,96.54 775.41,96.54 775.41,97.1 778.42,97.1 778.42,97.67 781.44,97.67 781.44,98.24 784.45,98.24 784.45,98.8 787.47,98.8 787.47,99.37 790.48,99.37 790.48,99.94 793.49,99.94 793.49,100.51 796.51,100.51 796.51,101.07 799.52,101.07 799.52,101.64 802.53,101.64 802.53,102.2 805.55,102.2 805.55,102.76 808.56,102.76 808.56,103.33 811.58,103.33 811.58,103.89 814.59,103.89 814.59,104.44 817.6,104.44 817.6,105 820.62,105 820.62,105.56 823.63,105.56 823.63,106.11 826.64,106.11 826.64,106.66 829.66,106.66 829.66,107.21 832.67,107.21 832.67,107.75 835.68,107.75 835.68,108.29 838.7,108.29 838.7,108.83 841.71,108.83 841.71,109.37 844.73,109.37 844.73,109.9 847.74,109.9 847.74,110.43 850.75,110.43 850.75,110.96 853.77,110.96 853.77,111.48 856.78,111.48 856.78,112 859.79,112 859.79,112.51 862.81,112.51 862.81,113.02 865.82,113.02 865.82,113.52 868.84,113.52 868.84,114.02 871.85,114.02 871.85,114.52 874.86,114.52 874.86,115.01 877.88,115.01 877.88,115.49 880.89,115.49 880.89,115.97 883.9,115.97 883.9,116.44 886.92,116.44 886.92,116.91 889.93,116.91 889.93,117.37 892.95,117.37 892.95,117.82 895.96,117.82 895.96,118.27 898.97,118.27 898.97,118.71 901.99,118.71 901.99,119.14 905,119.14 905,119.57 908.01,119.57 908.01,119.99 911.03,119.99 911.03,120.4 914.04,120.4 914.04,120.81 917.05,120.81 917.05,121.2 920.07,121.2 920.07,121.59 923.08,121.59 923.08,121.98 926.1,121.98 926.1,122.35 929.11,122.35 929.11,122.71 932.12,122.71 932.12,123.07 935.14,123.07 935.14,123.42 938.15,123.42 938.15,123.76 941.16,123.76 941.16,124.09 944.18,124.09 944.18,147.33 947.19,147.33 947.19,147.64 950.21,147.64 950.21,147.95 953.22,147.95 953.22,148.24 956.23,148.24 956.23,148.53 959.25,148.53 959.25,148.8 962.26,148.8 962.26,149.07 965.27,149.07 965.27,149.32 968.29,149.32 968.29,149.57 971.3,149.57 971.3,149.8 974.32,149.8 974.32,150.03 977.33,150.03 977.33,150.24 980.34,150.24 980.34,150.44 983.36,150.44 983.36,150.64 986.37,150.64 986.37,150.82 989.38,150.82 989.38,150.99 992.4,150.99 992.4,151.15 995.41,151.15 995.41,151.3 998.42,151.3 998.42,151.43 1001.44,151.43 1001.44,151.56 1004.45,151.56 1004.45,151.68 1007.47,151.68 1007.47,151.78 1010.48,151.78 1010.48,151.87 1013.49,151.87 1013.49,151.95 1016.51,151.95 1016.51,152.02 1019.52,152.02 1019.52,152.08 1022.53,152.08 1022.53,152.13 1025.55,152.13 1025.55,152.17 1028.56,152.17 1028.56,152.19 1031.58,152.19 1031.58,152.21 1034.59,152.21 1034.59,152.21 1037.6,152.21 1037.6,152.21 1040.62,152.21 1040.62,152.19 1043.63,152.19 1043.63,152.16 1046.64,152.16 1046.64,152.12 1049.66,152.12 1049.66,152.07 1052.67,152.07 1052.67,152 1055.68,152 1055.68,151.93 1058.7,151.93 1058.7,151.85 1061.71,151.85 1061.71,151.75 1064.73,151.75 1064.73,151.65 1067.74,151.65 1067.74,151.54 1070.75,151.54 1070.75,151.41 1073.77,151.41 1073.77,151.28 1076.78,151.28 1076.78,151.13 1079.79,151.13 1079.79,150.98 1082.81,150.98 1082.81,150.81 1085.82,150.81 1085.82,150.64 1088.84,150.64 1088.84,150.46 1091.85,150.46 1091.85,150.27 1094.86,150.27 1094.86,150.07 1097.88,150.07 1097.88,149.87 1100.89,149.87 1100.89,149.65 1103.9,149.65 1103.9,149.43 1106.92,149.43 1106.92,149.2 1109.93,149.2 1109.93,148.96 1112.95,148.96 1112.95,148.72 1115.96,148.72 1115.96,148.47 1118.97,148.47 1118.97,148.21 1121.99,148.21 1121.99,147.95 1125,147.95 1125,419.99 1121.99,419.99 1121.99,420.09 1118.97,420.09 1118.97,420.2 1115.96,420.2 1115.96,420.33 1112.95,420.33 1112.95,420.46 1109.93,420.46 1109.93,420.6 1106.92,420.6 1106.92,420.75 1103.9,420.75 1103.9,420.92 1100.89,420.92 1100.89,421.09 1097.88,421.09 1097.88,421.26 1094.86,421.26 1094.86,421.45 1091.85,421.45 1091.85,421.64 1088.84,421.64 1088.84,421.85 1085.82,421.85 1085.82,422.06 1082.81,422.06 1082.81,422.28 1079.79,422.28 1079.79,422.5 1076.78,422.5 1076.78,422.73 1073.77,422.73 1073.77,422.97 1070.75,422.97 1070.75,423.22 1067.74,423.22 1067.74,423.47 1064.73,423.47 1064.73,423.72 1061.71,423.72 1061.71,423.98 1058.7,423.98 1058.7,424.25 1055.68,424.25 1055.68,424.52 1052.67,424.52 1052.67,424.8 1049.66,424.8 1049.66,425.08 1046.64,425.08 1046.64,425.37 1043.63,425.37 1043.63,425.66 1040.62,425.66 1040.62,425.95 1037.6,425.95 1037.6,426.25 1034.59,426.25 1034.59,426.55 1031.58,426.55 1031.58,426.86 1028.56,426.86 1028.56,427.16 1025.55,427.16 1025.55,427.47 1022.53,427.47 1022.53,427.79 1019.52,427.79 1019.52,428.1 1016.51,428.1 1016.51,428.42 1013.49,428.42 1013.49,428.74 1010.48,428.74 1010.48,429.06 1007.47,429.06 1007.47,429.38 1004.45,429.38 1004.45,429.7 1001.44,429.7 1001.44,430.03 998.42,430.03 998.42,430.35 995.41,430.35 995.41,430.68 992.4,430.68 992.4,431 989.38,431 989.38,431.33 986.37,431.33 986.37,431.66 983.36,431.66 983.36,431.98 980.34,431.98 980.34,432.31 977.33,432.31 977.33,432.64 974.32,432.64 974.32,432.96 971.3,432.96 971.3,433.29 968.29,433.29 968.29,433.61 965.27,433.61 965.27,433.93 962.26,433.93 962.26,434.25 959.25,434.25 959.25,434.58 956.23,434.58 956.23,434.9 953.22,434.9 953.22,435.21 950.21,435.21 950.21,435.53 947.19,435.53 947.19,435.85 944.18,435.85 944.18,413.25 941.16,413.25 941.16,413.56 938.15,413.56 938.15,413.88 935.14,413.88 935.14,414.19 932.12,414.19 932.12,414.5 929.11,414.5 929.11,414.81 926.1,414.81 926.1,415.12 923.08,415.12 923.08,415.43 920.07,415.43 920.07,415.73 917.05,415.73 917.05,416.04 914.04,416.04 914.04,416.34 911.03,416.34 911.03,416.64 908.01,416.64 908.01,416.94 905,416.94 905,417.24 901.99,417.24 901.99,417.54 898.97,417.54 898.97,417.84 895.96,417.84 895.96,418.14 892.95,418.14 892.95,418.43 889.93,418.43 889.93,418.72 886.92,418.72 886.92,419.02 883.9,419.02 883.9,419.31 880.89,419.31 880.89,419.6 877.88,419.6 877.88,419.89 874.86,419.89 874.86,420.17 871.85,420.17 871.85,420.46 868.84,420.46 868.84,420.75 865.82,420.75 865.82,421.03 862.81,421.03 862.81,421.32 859.79,421.32 859.79,421.6 856.78,421.6 856.78,421.89 853.77,421.89 853.77,422.17 850.75,422.17 850.75,422.46 847.74,422.46 847.74,422.74 844.73,422.74 844.73,423.03 841.71,423.03 841.71,423.31 838.7,423.31 838.7,423.6 835.68,423.6 835.68,423.88 832.67,423.88 832.67,424.17 829.66,424.17 829.66,424.46 826.64,424.46 826.64,424.74 823.63,424.74 823.63,425.03 820.62,425.03 820.62,425.32 817.6,425.32 817.6,425.61 814.59,425.61 814.59,425.9 811.58,425.9 811.58,426.19 808.56,426.19 808.56,426.48 805.55,426.48 805.55,426.77 802.53,426.77 802.53,427.06 799.52,427.06 799.52,427.35 796.51,427.35 796.51,427.65 793.49,427.65 793.49,427.95 790.48,427.95 790.48,428.24 787.47,428.24 787.47,428.54 784.45,428.54 784.45,428.84 781.44,428.84 781.44,429.14 778.42,429.14 778.42,429.44 775.41,429.44 775.41,429.75 772.4,429.75 772.4,430.05 769.38,430.05 769.38,430.36 766.37,430.36 766.37,430.67 763.36,430.67 763.36,430.98 760.34,430.98 760.34,431.3 757.33,431.3 757.33,431.61 754.32,431.61 754.32,431.93 751.3,431.93 751.3,432.25 748.29,432.25 748.29,432.57 745.27,432.57 745.27,432.89 742.26,432.89 742.26,433.22 739.25,433.22 739.25,433.55 736.23,433.55 736.23,433.87 733.22,433.87 733.22,434.2 730.21,434.2 730.21,434.54 727.19,434.54 727.19,434.87 724.18,434.87 724.18,435.21 721.16,435.21 721.16,435.55 718.15,435.55 718.15,435.88 715.14,435.88 715.14,436.22 712.12,436.22 712.12,436.57 709.11,436.57 709.11,436.91 706.1,436.91 706.1,437.25 703.08,437.25 703.08,437.6 700.07,437.6 700.07,437.95 697.05,437.95 697.05,438.29 694.04,438.29 694.04,438.64 691.03,438.64 691.03,438.99 688.01,438.99 688.01,439.34 685,439.34 685,439.69 681.99,439.69 681.99,440.04 678.97,440.04 678.97,440.39 675.96,440.39 675.96,440.74 672.95,440.74 672.95,441.09 669.93,441.09 669.93,441.44 666.92,441.44 666.92,441.79 663.9,441.79 663.9,442.14 660.89,442.14 660.89,442.48 657.88,442.48 657.88,442.83 654.86,442.83 654.86,443.18 651.85,443.18 651.85,443.52 648.84,443.52 648.84,443.86 645.82,443.86 645.82,444.2 642.81,444.2 642.81,444.54 639.79,444.54 639.79,444.88 636.78,444.88 636.78,445.21 633.77,445.21 633.77,445.54 630.75,445.54 630.75,445.86 627.74,445.86 627.74,446.18 624.73,446.18 624.73,446.5 621.71,446.5 621.71,446.81 618.7,446.81 618.7,447.12 615.68,447.12 615.68,447.42 612.67,447.42 612.67,447.72 609.66,447.72 609.66,448.01 606.64,448.01 606.64,448.29 603.63,448.29 603.63,448.57 600.62,448.57 600.62,448.84 597.6,448.84 597.6,449.11 594.59,449.11 594.59,449.37 591.58,449.37 591.58,449.62 588.56,449.62 588.56,449.86 585.55,449.86 585.55,450.09 582.53,450.09 582.53,450.32 579.52,450.32 579.52,450.54 576.51,450.54 576.51,450.75 573.49,450.75 573.49,450.95 570.48,450.95 570.48,451.14 567.47,451.14 567.47,451.32 564.45,451.32 564.45,451.49 561.44,451.49 561.44,451.65 558.42,451.65 558.42,451.8 555.41,451.8 555.41,451.94 552.4,451.94 552.4,452.07 549.38,452.07 549.38,452.18 546.37,452.18 546.37,452.29 543.36,452.29 543.36,452.38 540.34,452.38 540.34,452.47 537.33,452.47 537.33,452.54 534.32,452.54 534.32,452.6 531.3,452.6 531.3,452.64 528.29,452.64 528.29,452.67 525.27,452.67 525.27,452.7 522.26,452.7 522.26,452.7 519.25,452.7 519.25,452.7 516.23,452.7 516.23,452.68 513.22,452.68 513.22,452.65 510.21,452.65 510.21,452.61 507.19,452.61 507.19,452.56 504.18,452.56 504.18,452.49 501.16,452.49 501.16,452.41 498.15,452.41 498.15,452.32 495.14,452.32 495.14,452.21 492.12,452.21 492.12,452.1 489.11,452.1 489.11,451.97 486.1,451.97 486.1,451.82 483.08,451.82 483.08,451.67 480.07,451.67 480.07,451.5 477.05,451.5 477.05,451.32 474.04,451.32 474.04,451.13 471.03,451.13 471.03,450.93 468.01,450.93 468.01,450.72 465,450.72 465,450.49 461.99,450.49 461.99,450.26 458.97,450.26 458.97,450.01 455.96,450.01 455.96,449.75 452.95,449.75 452.95,449.48 449.93,449.48 449.93,449.2 446.92,449.2 446.92,448.9 443.9,448.9 443.9,448.6 440.89,448.6 440.89,448.29 437.88,448.29 437.88,447.96 434.86,447.96 434.86,447.63 431.85,447.63 431.85,447.29 428.84,447.29 428.84,446.94 425.82,446.94 425.82,446.57 422.81,446.57 422.81,446.2 419.79,446.2 419.79,445.82 416.78,445.82 416.78,445.44 413.77,445.44 413.77,445.04 410.75,445.04 410.75,444.63 407.74,444.63 407.74,444.22 404.73,444.22 404.73,443.8 401.71,443.8 401.71,443.37 398.7,443.37 398.7,442.94 395.68,442.94 395.68,442.5 392.67,442.5 392.67,442.05 389.66,442.05 389.66,441.6 386.64,441.6 386.64,441.14 383.63,441.14 383.63,440.67 380.62,440.67 380.62,440.2 377.6,440.2 377.6,439.72 374.59,439.72 374.59,439.23 371.58,439.23 371.58,438.74 368.56,438.74 368.56,438.25 365.55,438.25 365.55,437.75 362.53,437.75 362.53,437.25 359.52,437.25 359.52,436.74 356.51,436.74 356.51,436.22 353.49,436.22 353.49,435.71 350.48,435.71 350.48,435.19 347.47,435.19 347.47,434.66 344.45,434.66 344.45,434.14 341.44,434.14 341.44,433.61 338.42,433.61 338.42,433.07 335.41,433.07 335.41,432.54 332.4,432.54 332.4,432 329.38,432 329.38,431.46 326.37,431.46 326.37,430.91 323.36,430.91 323.36,430.37 320.34,430.37 320.34,429.82 317.33,429.82 317.33,429.27 314.32,429.27 314.32,428.72 311.3,428.72 311.3,428.17 308.29,428.17 308.29,427.62 305.27,427.62 305.27,427.07 302.26,427.07 302.26,426.52 299.25,426.52 299.25,425.97 296.23,425.97 296.23,425.41 293.22,425.41 293.22,424.86 290.21,424.86 290.21,424.31 287.19,424.31 287.19,423.76 284.18,423.76 284.18,423.21 281.16,423.21 281.16,422.66 278.15,422.66 278.15,422.11 275.14,422.11 275.14,421.56 272.12,421.56 272.12,421.01 269.11,421.01 269.11,420.47 266.1,420.47 266.1,419.93 263.08,419.93 263.08,419.38 260.07,419.38 260.07,418.84 257.05,418.84 257.05,418.31 254.04,418.31 254.04,417.77 251.03,417.77 251.03,417.24 248.01,417.24 248.01,416.71 245,416.71 245,416.18 241.99,416.18 241.99,415.66 238.97,415.66 238.97,415.14 235.96,415.14 235.96,414.63 232.95,414.63 232.95,414.11 229.93,414.11 229.93,413.61 226.92,413.61 226.92,436.02 223.9,436.02 223.9,435.52 220.89,435.52 220.89,435.02 217.88,435.02 217.88,434.53 214.86,434.53 214.86,434.05 211.85,434.05 211.85,433.57 208.84,433.57 208.84,433.09 205.82,433.09 205.82,432.62 202.81,432.62 202.81,432.16 199.79,432.16 199.79,431.7 196.78,431.7 196.78,431.25 193.77,431.25 193.77,430.8 190.75,430.8 190.75,430.36 187.74,430.36 187.74,429.93 184.73,429.93 184.73,429.5 181.71,429.5 181.71,429.08 178.7,429.08 178.7,428.67 175.68,428.67 175.68,428.26 172.67,428.26 172.67,427.86 169.66,427.86 169.66,427.47 166.64,427.47 166.64,427.09 163.63,427.09 163.63,426.71 160.62,426.71 160.62,426.34 157.6,426.34 157.6,425.98 154.59,425.98 154.59,425.63 151.58,425.63 151.58,425.29 148.56,425.29 148.56,424.95 145.55,424.95 145.55,424.63 142.53,424.63 142.53,424.31 139.52,424.31 139.52,424 136.51,424 136.51,423.7 133.49,423.7 133.49,423.41 130.48,423.41 130.48,423.13 127.47,423.13 127.47,422.86 124.45,422.86 124.45,422.6 121.44,422.6 121.44,422.35 118.42,422.35 118.42,422.11 115.41,422.11 115.41,421.88 112.4,421.88 112.4,421.66 109.38,421.66 109.38,421.45 106.37,421.45 106.37,421.25 103.36,421.25 103.36,421.06 100.34,421.06 100.34,420.89 97.33,420.89 97.33,420.72 94.32,420.72 94.32,420.56 91.3,420.56 91.3,420.42 88.29,420.42 88.29,420.28 85.27,420.28 85.27,420.16 82.26,420.16 82.26,420.04 79.25,420.04 79.25,419.94 76.23,419.94 76.23,419.85 73.22,419.85 73.22,419.77 70.21,419.77 70.21,419.7 67.19,419.7 67.19,419.64 64.18,419.64 64.18,419.59 61.16,419.59 61.16,419.55 58.15,419.55 58.15,419.53 55.14,419.53 55.14,419.51 52.12,419.51 52.12,419.51 49.11,419.51 49.11,419.52 46.1,419.52 46.1,419.54 43.08,419.54 43.08,419.56 40.07,419.56 40.07,419.6 37.05,419.6 37.05,419.66 34.04,419.66 34.04,419.72 31.03,419.72 31.03,419.79 28.01,419.79 28.01,419.87" fill="#004080" stroke="none" stroke-width="0"/>
<polygon points="25,407.9 25,159.58 28.01,159.58 28.01,159.29 31.03,159.29 31.03,159 34.04,159 34.04,158.7 37.05,158.7 37.05,158.4 40.07,158.4 40.07,158.09 43.08,158.09 43.08,157.77 46.1,157.77 46.1,157.45 49.11,157.45 49.11,157.13 52.12,157.13 52.12,156.8 55.14,156.8 55.14,156.47 58.15,156.47 58.15,156.14 61.16,156.14 61.16,155.8 64.18,155.8 64.18,155.46 67.19,155.46 67.19,155.11 70.21,155.11 70.21,154.77 73.22,154.77 73.22,154.42 76.23,154.42 76.23,154.06 79.25,154.06 79.25,153.71 82.26,153.71 82.26,153.35 85.27,153.35 85.27,153 88.29,153 88.29,152.64 91.3,152.64 91.3,152.28 94.32,152.28 94.32,151.92 97.33,151.92 97.33,151.56 100.34,151.56 100.34,151.19 103.36,151.19 103.36,150.83 106.37,150.83 106.37,150.47 109.38,150.47 109.38,150.11 112.4,150.11 112.4,149.74 115.41,149.74 115.41,149.38 118.42,149.38 118.42,149.02 121.44,149.02 121.44,148.66 124.45,148.66 124.45,148.3 127.47,148.3 127.47,147.94 130.48,147.94 130.48,147.58 133.49,147.58 133.49,147.23 136.51,147.23 136.51,146.87 139.52,146.87 139.52,146.52 142.53,146.52 142.53,146.17 145.55,146.17 145.55,145.82 148.56,145.82 148.56,145.47 151.58,145.47 151.58,145.12 154.59,145.12 154.59,144.77 157.6,144.77 157.6,144.43 160.62,144.43 160.62,144.09 163.63,144.09 163.63,143.75 166.64,143.75 166.64,143.41 169.66,143.41 169.66,143.07 172.67,143.07 172.67,142.73 175.68,142.73 175.68,142.4 178.7,142.4 178.7,142.06 181.71,142.06 181.71,141.73 184.73,141.73 184.73,141.4 187.74,141.4 187.74,141.07 190.75,141.07 190.75,140.74 193.77,140.74 193.77,140.42 196.78,140.42 196.78,140.09 199.79,140.09 199.79,139.77 202.81,139.77 202.81,139.45 205.82,139.45 205.82,139.13 208.84,139.13 208.84,138.81 211.85,138.81 211.85,138.49 214.86,138.49 214.86,138.18 217.88,138.18 217.88,137.86 220.89,137.86 220.89,137.55 223.9,137.55 223.9,137.24 226.92,137.24 226.92,114.01 229.93,114.01 229.93,113.7 232.95,113.7 232.95,113.39 235.96,113.39 235.96,113.08 238.97,113.08 238.97,112.78 241.99,112.78 241.99,112.47 245,112.47 245,112.17 248.01,112.17 248.01,111.86 251.03,111.86 251.03,111.56 254.04,111.56 254.04,111.25 257.05,111.25 257.05,110.95 260.07,110.95 260.07,110.64 263.08,110.64 263.08,110.34 266.1,110.34 266.1,110.04 269.11,110.04 269.11,109.73 272.12,109.73 272.12,109.43 275.14,109.43 275.14,109.12 278.15,109.12 278.15,108.82 281.16,108.82 281.16,108.51 284.18,108.51 284.18,108.21 287.19,108.21 287.19,107.9 290.21,107.9 290.21,107.6 293.22,107.6 293.22,107.29 296.23,107.29 296.23,106.98 299.25,106.98 299.25,106.67 302.26,106.67 302.26,106.37 305.27,106.37 305.27,106.06 308.29,106.06 308.29,105.75 311.3,105.75 311.3,105.44 314.32,105.44 314.32,105.13 317.33,105.13 317.33,104.82 320.34,104.82 320.34,104.5 323.36,104.5 323.36,104.19 326.37,104.19 326.37,103.88 329.38,103.88 329.38,103.56 332.4,103.56 332.4,103.25 335.41,103.25 335.41,102.93 338.42,102.93 338.42,102.61 341.44,102.61 341.44,102.29 344.45,102.29 344.45,101.97 347.47,101.97 347.47,101.65 350.48,101.65 350.48,101.33 353.49,101.33 353.49,101.01 356.51,101.01 356.51,100.68 359.52,100.68 359.52,100.36 362.53,100.36 362.53,100.03 365.55,100.03 365.55,99.7 368.56,99.7 368.56,99.38 371.58,99.38 371.58,99.05 374.59,99.05 374.59,98.72 377.6,98.72 377.6,98.39 380.62,98.39 380.62,98.06 383.63,98.06 383.63,97.73 386.64,97.73 386.64,97.4 389.66,97.4 389.66,97.07 392.67,97.07 392.67,96.74 395.68,96.74 395.68,96.41 398.7,96.41 398.7,96.08 401.71,96.08 401.71,95.75 404.73,95.75 404.73,95.43 407.74,95.43 407.74,95.1 410.75,95.1 410.75,94.77 413.77,94.77 413.77,94.45 416.78,94.45 416.78,94.12 419.79,94.12 419.79,93.8 422.81,93.8 422.81,93.48 425.82,93.48 425.82,93.16 428.84,93.16 428.84,92.85 431.85,92.85 431.85,92.53 434.86,92.53 434.86,92.22 437.88,92.22 437.88,91.91 440.89,91.91 440.89,91.6 443.9,91.6 443.9,91.3 446.92,91.3 446.92,90.99 449.93,90.99 449.93,90.7 452.95,90.7 452.95,90.4 455.96,90.4 455.96,90.11 458.97,90.11 458.97,89.82 461.99,89.82 461.99,89.54 465,89.54 465,89.27 468.01,89.27 468.01,88.99 471.03,88.99 471.03,88.73 474.04,88.73 474.04,88.47 477.05,88.47 477.05,88.21 480.07,88.21 480.07,87.96 483.08,87.96 483.08,87.72 486.1,87.72 486.1,87.48 489.11,87.48 489.11,87.25 492.12,87.25 492.12,87.03 495.14,87.03 495.14,86.82 498.15,86.82 498.15,86.61 501.16,86.61 501.16,86.41 504.18,86.41 504.18,86.22 507.19,86.22 507.19,86.04 510.21,86.04 510.21,85.87 513.22,85.87 513.22,85.7 516.23,85.7 516.23,85.55 519.25,85.55 519.25,85.4 522.26,85.4 522.26,85.26 525.27,85.26 525.27,85.14 528.29,85.14 528.29,85.02 531.3,85.02 531.3,84.91 534.32,84.91 534.32,84.81 537.33,84.81 537.33,84.72 540.34,84.72 540.34,84.64 543.36,84.64 543.36,84.58 546.37,84.58 546.37,84.52 549.38,84.52 549.38,84.47 552.4,84.47 552.4,84.44 555.41,84.44 555.41,84.41 558.42,84.41 558.42,84.4 561.44,84.4 561.44,84.4 564.45,84.4 564.45,84.41 567.47,84.41 567.47,84.43 570.48,84.43 570.48,84.46 573.49,84.46 573.49,84.51 576.51,84.51 576.51,84.56 579.52,84.56 579.52,84.63 582.53,84.63 582.53,84.71 585.55,84.71 585.55,84.8 588.56,84.8 588.56,84.9 591.58,84.9 591.58,85.01 594.59,85.01 594.59,85.14 597.6,85.14 597.6,85.28 600.62,85.28 600.62,85.42 603.63,85.42 603.63,85.58 606.64,85.58 606.64,85.75 609.66,85.75 609.66,85.93 612.67,85.93 612.67,86.12 615.68,86.12 615.68,86.32 618.7,86.32 618.7,86.54 621.71,86.54 621.71,86.76 624.73,86.76 624.73,87 627.74,87 627.74,87.24 630.75,87.24 630.75,87.49 633.77,87.49 633.77,87.76 636.78,87.76 636.78,88.03 639.79,88.03 639.79,88.32 642.81,88.32 642.81,88.61 645.82,88.61 645.82,88.92 648.84,88.92 648.84,89.23 651.85,89.23 651.85,89.55 654.86,89.55 654.86,89.88 657.88,89.88 657.88,90.22 660.89,90.22 660.89,90.57 663.9,90.57 663.9,90.93 666.92,90.93 666.92,91.3 669.93,91.3 669.93,91.68 672.95,91.68 672.95,92.06 675.96,92.06 675.96,92.45 678.97,92.45 678.97,92.85 681.99,92.85 681.99,93.26 685,93.26 685,93.67 688.01,93.67 688.01,94.09 691.03,94.09 691.03,94.52 694.04,94.52 694.04,94.95 697.05,94.95 697.05,95.39 700.07,95.39 700.07,95.84 703.08,95.84 703.08,96.29 706.1,96.29 706.1,96.75 709.11,96.75 709.11,97.22 712.12,97.22 712.12,97.69 715.14,97.69 715.14,98.16 718.15,98.16 718.15,98.64 721.16,98.64 721.16,99.13 724.18,99.13 724.18,99.62 727.19,99.62 727.19,100.12 730.21,100.12 730.21,100.61 733.22,100.61 733.22,101.12 736.23,101.12 736.23,101.63 739.25,101.63 739.25,102.14 742.26,102.14 742.26,102.65 745.27,102.65 745.27,103.17 748.29,103.17 748.29,103.69 751.3,103.69 751.3,104.22 754.32,104.22 754.32,104.75 757.33,104.75 757.33,105.28 760.34,105.28 760.34,105.81 763.36,105.81 763.36,106.35 766.37,106.35 766.37,106.89 769.38,106.89 769.38,107.43 772.4,107.43 772.4,107.97 775.41,107.97 775.41,108.51 778.42,108.51 778.42,109.06 781.44,109.06 781.44,109.6 784.45,109.6 784.45,110.15 787.47,110.15 787.47,110.7 790.48,110.7 790.48,111.25 793.49,111.25 793.49,111.79 796.51,111.79 796.51,112.34 799.52,112.34 799.52,112.89 802.53,112.89 802.53,113.44 805.55,113.44 805.55,113.99 808.56,113.99 808.56,114.54 811.58,114.54 811.58,115.09 814.59,115.09 814.59,115.63 817.6,115.63 817.6,116.18 820.62,116.18 820.62,116.72 823.63,116.72 823.63,117.26 826.64,117.26 826.64,117.81 829.66,117.81 829.66,118.35 832.67,118.35 832.67,118.88 835.68,118.88 835.68,119.42 838.7,119.42 838.7,119.95 841.71,119.95 841.71,120.49 844.73,120.49 844.73,121.01 847.74,121.01 847.74,121.54 850.75,121.54 850.75,122.06 853.77,122.06 853.77,122.58 856.78,122.58 856.78,123.1 859.79,123.1 859.79,123.61 862.81,123.61 862.81,124.12 865.82,124.12 865.82,124.63 868.84,124.63 868.84,125.13 871.85,125.13 871.85,125.63 874.86,125.63 874.86,126.12 877.88,126.12 877.88,126.61 880.89,126.61 880.89,127.09 883.9,127.09 883.9,127.57 886.92,127.57 886.92,128.04 889.93,128.04 889.93,128.51 892.95,128.51 892.95,128.97 895.96,128.97 895.96,129.43 898.97,129.43 898.97,129.88 901.99,129.88 901.99,130.32 905,130.32 905,130.76 908.01,130.76 908.01,131.19 911.03,131.19 911.03,131.61 914.04,131.61 914.04,132.03 917.05,132.03 917.05,132.44 920.07,132.44 920.07,132.84 923.08,132.84 923.08,133.23 926.1,133.23 926.1,133.62 929.11,133.62 929.11,134 932.12,134 932.12,134.37 935.14,134.37 935.14,134.74 938.15,134.74 938.15,135.09 941.16,135.09 941.16,135.44 944.18,135.44 944.18,158.7 947.19,158.7 947.19,159.03 950.21,159.03 950.21,159.35 953.22,159.35 953.22,159.66 956.23,159.66 956.23,159.96 959.25,159.96 959.25,160.25 962.26,160.25 962.26,160.54 965.27,160.54 965.27,160.81 968.29,160.81 968.29,161.07 971.3,161.07 971.3,161.33 974.32,161.33 974.32,161.57 977.33,161.57 977.33,161.8 980.34,161.8 980.34,162.02 983.36,162.02 983.36,162.23 986.37,162.23 986.37,162.43 989.38,162.43 989.38,162.62 992.4,162.62 992.4,162.8 995.41,162.8 995.41,162.97 998.42,162.97 998.42,163.12 1001.44,163.12 1001.44,163.27 1004.45,163.27 1004.45,163.4 1007.47,163.4 1007.47,163.52 1010.48,163.52 1010.48,163.63 1013.49,163.63 1013.49,163.73 1016.51,163.73 1016.51,163.82 1019.52,163.82 1019.52,163.89 1022.53,163.89 1022.53,163.96 1025.55,163.96 1025.55,164.01 1028.56,164.01 1028.56,164.05 1031.58,164.05 1031.58,164.08 1034.59,164.08 1034.59,164.1 1037.6,164.1 1037.6,164.1 1040.62,164.1 1040.62,164.1 1043.63,164.1 1043.63,164.08 1046.64,164.08 1046.64,164.05 1049.66,164.05 1049.66,164.01 1052.67,164.01 1052.67,163.96 1055.68,163.96 1055.68,163.9 1058.7,163.9 1058.7,163.82 1061.71,163.82 1061.71,163.74 1064.73,163.74 1064.73,163.64 1067.74,163.64 1067.74,163.53 1070.75,163.53 1070.75,163.41 1073.77,163.41 1073.77,163.28 1076.78,163.28 1076.78,163.14 1079.79,163.14 1079.79,162.99 1082.81,162.99 1082.81,162.83 1085.82,162.83 1085.82,162.66 1088.84,162.66 1088.84,162.48 1091.85,162.48 1091.85,162.29 1094.86,162.29 1094.86,162.09 1097.88,162.09 1097.88,161.88 1100.89,161.88 1100.89,161.67 1103.9,161.67 1103.9,161.44 1106.92,161.44 1106.92,161.21 1109.93,161.21 1109.93,160.97 1112.95,160.97 1112.95,160.72 1115.96,160.72 1115.96,160.46 1118.97,160.46 1118.97,160.2 1121.99,160.2 1121.99,159.93 1125,159.93 1125,408.01 1121.99,408.01 1121.99,408.1 1118.97,408.1 1118.97,408.21 1115.96,408.21 1115.96,408.33 1112.95,408.33 1112.95,408.46 1109.93,408.46 1109.93,408.59 1106.92,408.59 1106.92,408.74 1103.9,408.74 1103.9,408.9 1100.89,408.9 1100.89,409.07 1097.88,409.07 1097.88,409.24 1094.86,409.24 1094.86,409.43 1091.85,409.43 1091.85,409.62 1088.84,409.62 1088.84,409.83 1085.82,409.83 1085.82,410.04 1082.81,410.04 1082.81,410.26 1079.79,410.26 1079.79,410.49 1076.78,410.49 1076.78,410.73 1073.77,410.73 1073.77,410.97 1070.75,410.97 1070.75,411.22 1067.74,411.22 1067.74,411.48 1064.73,411.48 1064.73,411.74 1061.71,411.74 1061.71,412.01 1058.7,412.01 1058.7,412.29 1055.68,412.29 1055.68,412.57 1052.67,412.57 1052.67,412.86 1049.66,412.86 1049.66,413.15 1046.64,413.15 1046.64,413.45 1043.63,413.45 1043.63,413.75 1040.62,413.75 1040.62,414.06 1037.6,414.06 1037.6,414.37 1034.59,414.37 1034.59,414.68 1031.58,414.68 1031.58,415 1028.56,415 1028.56,415.32 1025.55,415.32 1025.55,415.65 1022.53,415.65 1022.53,415.98 1019.52,415.98 1019.52,416.31 1016.51,416.31 1016.51,416.64 1013.49,416.64 1013.49,416.98 1010.48,416.98 1010.48,417.32 1007.47,417.32 1007.47,417.65 1004.45,417.65 1004.45,418 1001.44,418 1001.44,418.34 998.42,418.34 998.42,418.68 995.41,418.68 995.41,419.03 992.4,419.03 992.4,419.37 989.38,419.37 989.38,419.71 986.37,419.71 986.37,420.06 983.36,420.06 983.36,420.4 980.34,420.4 980.34,420.75 977.33,420.75 977.33,421.09 974.32,421.09 974.32,421.44 971.3,421.44 971.3,421.78 968.29,421.78 968.29,422.12 965.27,422.12 965.27,422.46 962.26,422.46 962.26,422.8 959.25,422.8 959.25,423.14 956.23,423.14 956.23,423.48 953.22,423.48 953.22,423.81 950.21,423.81 950.21,424.15 947.19,424.15 947.19,424.48 944.18,424.48 944.18,401.9 941.16,401.9 941.16,402.23 938.15,402.23 938.15,402.55 935.14,402.55 935.14,402.88 932.12,402.88 932.12,403.21 929.11,403.21 929.11,403.53 926.1,403.53 926.1,403.85 923.08,403.85 923.08,404.17 920.07,404.17 920.07,404.49 917.05,404.49 917.05,404.81 914.04,404.81 914.04,405.12 911.03,405.12 911.03,405.44 908.01,405.44 908.01,405.75 905,405.75 905,406.06 901.99,406.06 901.99,406.36 898.97,406.36 898.97,406.67 895.96,406.67 895.96,406.97 892.95,406.97 892.95,407.28 889.93,407.28 889.93,407.58 886.92,407.58 886.92,407.87 883.9,407.87 883.9,408.17 880.89,408.17 880.89,408.46 877.88,408.46 877.88,408.76 874.86,408.76 874.86,409.05 871.85,409.05 871.85,409.34 868.84,409.34 868.84,409.63 865.82,409.63 865.82,409.91 862.81,409.91 862.81,410.2 859.79,410.2 859.79,410.48 856.78,410.48 856.78,410.77 853.77,410.77 853.77,411.05 850.75,411.05 850.75,411.33 847.74,411.33 847.74,411.61 844.73,411.61 844.73,411.89 841.71,411.89 841.71,412.17 838.7,412.17 838.7,412.45 835.68,412.45 835.68,412.73 832.67,412.73 832.67,413.01 829.66,413.01 829.66,413.29 826.64,413.29 826.64,413.56 823.63,413.56 823.63,413.84 820.62,413.84 820.62,414.12 817.6,414.12 817.6,414.39 814.59,414.39 814.59,414.67 811.58,414.67 811.58,414.95 808.56,414.95 808.56,415.23 805.55,415.23 805.55,415.5 802.53,415.5 802.53,415.78 799.52,415.78 799.52,416.06 796.51,416.06 796.51,416.33 793.49,416.33 793.49,416.61 790.48,416.61 790.48,416.89 787.47,416.89 787.47,417.17 784.45,417.17 784.45,417.45 781.44,417.45 781.44,417.73 778.42,417.73 778.42,418.01 775.41,418.01 775.41,418.29 772.4,418.29 772.4,418.57 769.38,418.57 769.38,418.85 766.37,418.85 766.37,419.14 763.36,419.14 763.36,419.42 760.34,419.42 760.34,419.71 757.33,419.71 757.33,420 754.32,420 754.32,420.28 751.3,420.28 751.3,420.57 748.29,420.57 748.29,420.87 745.27,420.87 745.27,421.16 742.26,421.16 742.26,421.45 739.25,421.45 739.25,421.75 736.23,421.75 736.23,422.04 733.22,422.04 733.22,422.34 730.21,422.34 730.21,422.64 727.19,422.64 727.19,422.94 724.18,422.94 724.18,423.24 721.16,423.24 721.16,423.54 718.15,423.54 718.15,423.84 715.14,423.84 715.14,424.15 712.12,424.15 712.12,424.45 709.11,424.45 709.11,424.75 706.1,424.75 706.1,425.06 703.08,425.06 703.08,425.37 700.07,425.37 700.07,425.67 697.05,425.67 697.05,425.98 694.04,425.98 694.04,426.29 691.03,426.29 691.03,426.6 688.01,426.6 688.01,426.9 685,426.9 685,427.21 681.99,427.21 681.99,427.52 678.97,427.52 678.97,427.83 675.96,427.83 675.96,428.14 672.95,428.14 672.95,428.45 669.93,428.45 669.93,428.75 666.92,428.75 666.92,429.06 663.9,429.06 663.9,429.37 660.89,429.37 660.89,429.67 657.88,429.67 657.88,429.98 654.86,429.98 654.86,430.28 651.85,430.28 651.85,430.59 648.84,430.59 648.84,430.89 645.82,430.89 645.82,431.19 642.81,431.19 642.81,431.48 639.79,431.48 639.79,431.78 636.78,431.78 636.78,432.07 633.77,432.07 633.77,432.36 630.75,432.36 630.75,432.64 627.74,432.64 627.74,432.93 624.73,432.93 624.73,433.21 621.71,433.21 621.71,433.48 618.7,433.48 618.7,433.75 615.68,433.75 615.68,434.02 612.67,434.02 612.67,434.28 609.66,434.28 609.66,434.54 606.64,434.54 606.64,434.79 603.63,434.79 603.63,435.04 600.62,435.04 600.62,435.28 597.6,435.28 597.6,435.51 594.59,435.51 594.59,435.74 591.58,435.74 591.58,435.97 588.56,435.97 588.56,436.19 585.55,436.19 585.55,436.4 582.53,436.4 582.53,436.6 579.52,436.6 579.52,436.8 576.51,436.8 576.51,436.99 573.49,436.99 573.49,437.17 570.48,437.17 570.48,437.34 567.47,437.34 567.47,437.51 564.45,437.51 564.45,437.66 561.44,437.66 561.44,437.81 558.42,437.81 558.42,437.95 555.41,437.95 555.41,438.08 552.4,438.08 552.4,438.21 549.38,438.21 549.38,438.32 546.37,438.32 546.37,438.42 543.36,438.42 543.36,438.51 540.34,438.51 540.34,438.6 537.33,438.6 537.33,438.67 534.32,438.67 534.32,438.73 531.3,438.73 531.3,438.78 528.29,438.78 528.29,438.82 525.27,438.82 525.27,438.85 522.26,438.85 522.26,438.87 519.25,438.87 519.25,438.88 516.23,438.88 516.23,438.88 513.22,438.88 513.22,438.87 510.21,438.87 510.21,438.84 507.19,438.84 507.19,438.81 504.18,438.81 504.18,438.76 501.16,438.76 501.16,438.7 498.15,438.7 498.15,438.63 495.14,438.63 495.14,438.55 492.12,438.55 492.12,438.46 489.11,438.46 489.11,438.36 486.1,438.36 486.1,438.25 483.08,438.25 483.08,438.12 480.07,438.12 480.07,437.99 477.05,437.99 477.05,437.84 474.04,437.84 474.04,437.68 471.03,437.68 471.03,437.52 468.01,437.52 468.01,437.34 465,437.34 465,437.15 461.99,437.15 461.99,436.95 458.97,436.95 458.97,436.74 455.96,436.74 455.96,436.52 452.95,436.52 452.95,436.28 449.93,436.28 449.93,436.04 446.92,436.04 446.92,435.79 443.9,435.79 443.9,435.53 440.89,435.53 440.89,435.26 437.88,435.26 437.88,434.97 434.86,434.97 434.86,434.68 431.85,434.68 431.85,434.38 428.84,434.38 428.84,434.07 425.82,434.07 425.82,433.75 422.81,433.75 422.81,433.42 419.79,433.42 419.79,433.09 416.78,433.09 416.78,432.74 413.77,432.74 413.77,432.39 410.75,432.39 410.75,432.03 407.74,432.03 407.74,431.66 404.73,431.66 404.73,431.28 401.71,431.28 401.71,430.89 398.7,430.89 398.7,430.5 395.68,430.5 395.68,430.1 392.67,430.1 392.67,429.69 389.66,429.69 389.66,429.28 386.64,429.28 386.64,428.86 383.63,428.86 383.63,428.43 380.62,428.43 380.62,428 377.6,428 377.6,427.56 374.59,427.56 374.59,427.12 371.58,427.12 371.58,426.67 368.56,426.67 368.56,426.21 365.55,426.21 365.55,425.75 362.53,425.75 362.53,425.28 359.52,425.28 359.52,424.81 356.51,424.81 356.51,424.33 353.49,424.33 353.49,423.85 350.48,423.85 350.48,423.36 347.47,423.36 347.47,422.87 344.45,422.87 344.45,422.38 341.44,422.38 341.44,421.88 338.42,421.88 338.42,421.38 335.41,421.38 335.41,420.87 332.4,420.87 332.4,420.36 329.38,420.36 329.38,419.85 326.37,419.85 326.37,419.33 323.36,419.33 323.36,418.82 320.34,418.82 320.34,418.3 317.33,418.3 317.33,417.78 314.32,417.78 314.32,417.25 311.3,417.25 311.3,416.73 308.29,416.73 308.29,416.2 305.27,416.2 305.27,415.67 302.26,415.67 302.26,415.14 299.25,415.14 299.25,414.61 296.23,414.61 296.23,414.08 293.22,414.08 293.22,413.54 290.21,413.54 290.21,413.01 287.19,413.01 287.19,412.48 284.18,412.48 284.18,411.94 281.16,411.94 281.16,411.41 278.15,411.41 278.15,410.87 275.14,410.87 275.14,410.34 272.12,410.34 272.12,409.81 269.11,409.81 269.11,409.27 266.1,409.27 266.1,408.74 263.08,408.74 263.08,408.21 260.07,408.21 260.07,407.68 257.05,407.68 257.05,407.15 254.04,407.15 254.04,406.63 251.03,406.63 251.03,406.1 248.01,406.1 248.01,405.58 245,405.58 245,405.06 241.99,405.06 241.99,404.54 238.97,404.54 238.97,404.03 235.96,404.03 235.96,403.52 232.95,403.52 232.95,403.01 229.93,403.01 229.93,402.5 226.92,402.5 226.92,424.91 223.9,424.91 223.9,424.41 220.89,424.41 220.89,423.92 217.88,423.92 217.88,423.43 214.86,423.43 214.86,422.94 211.85,422.94 211.85,422.46 208.84,422.46 208.84,421.98 205.82,421.98 205.82,421.5 202.81,421.5 202.81,421.04 199.79,421.04 199.79,420.57 196.78,420.57 196.78,420.11 193.77,420.11 193.77,419.66 190.75,419.66 190.75,419.21 187.74,419.21 187.74,418.77 184.73,418.77 184.73,418.34 181.71,418.34 181.71,417.91 178.7,417.91 178.7,417.48 175.68,417.48 175.68,417.07 172.67,417.07 172.67,416.66 169.66,416.66 169.66,416.25 166.64,416.25 166.64,415.86 163.63,415.86 163.63,415.47 160.62,415.47 160.62,415.08 157.6,415.08 157.6,414.71 154.59,414.71 154.59,414.34 151.58,414.34 151.58,413.98 148.56,413.98 148.56,413.63 145.55,413.63 145.55,413.29 142.53,413.29 142.53,412.96 139.52,412.96 139.52,412.63 136.51,412.63 136.51,412.32 133.49,412.32 133.49,412.01 130.48,412.01 130.48,411.72 127.47,411.72 127.47,411.43 124.45,411.43 124.45,411.15 121.44,411.15 121.44,410.88 118.42,410.88 118.42,410.62 115.41,410.62 115.41,410.37 112.4,410.37 112.4,410.14 109.38,410.14 109.38,409.91 106.37,409.91 106.37,409.69 103.36,409.69 103.36,409.48 100.34,409.48 100.34,409.29 97.33,409.29 97.33,409.1 94.32,409.1 94.32,408.92 91.3,408.92 91.3,408.76 88.29,408.76 88.29,408.61 85.27,408.61 85.27,408.46 82.26,408.46 82.26,408.33 79.25,408.33 79.25,408.21 76.23,408.21 76.23,408.1 73.22,408.1 73.22,408 70.21,408 70.21,407.92 67.19,407.92 67.19,407.84 64.18,407.84 64.18,407.78 61.16,407.78 61.16,407.72 58.15,407.72 58.15,407.68 55.14,407.68 55.14,407.65 52.12,407.65 52.12,407.64 49.11,407.64 49.11,407.63 46.1,407.63 46.1,407.63 43.08,407.63 43.08,407.65 40.07,407.65 40.07,407.68 37.05,407.68 37.05,407.72 34.04,407.72 34.04,407.77 31.03,407.77 31.03,407.83 28.01,407.83 28.01,407.9" fill="#0060c0" stroke="none" stroke-width="0"/>
<polygon points="25,397.29 25,170.2 28.01,170.2 28.01,169.9 31.03,169.9 31.03,169.6 34.04,169.6 34.04,169.29 37.05,169.29 37.05,168.97 40.07,168.97 40.07,168.65 43.08,168.65 43.08,168.32 46.1,168.32 46.1,167.99 49.11,167.99 49.11,167.65 52.12,167.65 52.12,167.3 55.14,167.3 55.14,166.96 58.15,166.96 58.15,166.6 61.16,166.6 61.16,166.25 64.18,166.25 64.18,165.89 67.19,165.89 67.19,165.53 70.21,165.53 70.21,165.16 73.22,165.16 73.22,164.79 76.23,164.79 76.23,164.42 79.25,164.42 79.25,164.05 82.26,164.05 82.26,163.67 85.27,163.67 85.27,163.3 88.29,163.3 88.29,162.92 91.3,162.92 91.3,162.54 94.32,162.54 94.32,162.16 97.33,162.16 97.33,161.77 100.34,161.77 100.34,161.39 103.36,161.39 103.36,161.01 106.37,161.01 106.37,160.62 109.38,160.62 109.38,160.24 112.4,160.24 112.4,159.86 115.41,159.86 115.41,159.48 118.42,159.48 118.42,159.09 121.44,159.09 121.44,158.71 124.45,158.71 124.45,158.33 127.47,158.33 127.47,157.95 130.48,157.95 130.48,157.58 133.49,157.58 133.49,157.2 136.51,157.2 136.51,156.83 139.52,156.83 139.52,156.46 142.53,156.46 142.53,156.08 145.55,156.08 145.55,155.72 148.56,155.72 148.56,155.35 151.58,155.35 151.58,154.98 154.59,154.98 154.59,154.62 157.6,154.62 157.6,154.26 160.62,154.26 160.62,153.9 163.63,153.9 163.63,153.54 166.64,153.54 166.64,153.19 169.66,153.19 169.66,152.83 172.67,152.83 172.67,152.48 175.68,152.48 175.68,152.13 178.7,152.13 178.7,151.78 181.71,151.78 181.71,151.44 184.73,151.44 184.73,151.1 187.74,151.1 187.74,150.76 190.75,150.76 190.75,150.42 193.77,150.42 193.77,150.08 196.78,150.08 196.78,149.75 199.79,149.75 199.79,149.41 202.81,149.41 202.81,149.08 205.82,149.08 205.82,148.75 208.84,148.75 208.84,148.43 211.85,148.43 211.85,148.1 214.86,148.1 214.86,147.78 217.88,147.78 217.88,147.46 220.89,147.46 220.89,147.14 223.9,147.14 223.9,146.83 226.92,146.83 226.92,123.6 229.93,123.6 229.93,123.28 232.95,123.28 232.95,122.97 235.96,122.97 235.96,122.66 238.97,122.66 238.97,122.35 241.99,122.35 241.99,122.05 245,122.05 245,121.74 248.01,121.74 248.01,121.44 251.03,121.44 251.03,121.13 254.04,121.13 254.04,120.83 257.05,120.83 257.05,120.53 260.07,120.53 260.07,120.23 263.08,120.23 263.08,119.93 266.1,119.93 266.1,119.63 269.11,119.63 269.11,119.33 272.12,119.33 272.12,119.03 275.14,119.03 275.14,118.74 278.15,118.74 278.15,118.44 281.16,118.44 281.16,118.14 284.18,118.14 284.18,117.85 287.19,117.85 287.19,117.55 290.21,117.55 290.21,117.25 293.22,117.25 293.22,116.96 296.23,116.96 296.23,116.66 299.25,116.66 299.25,116.37 302.26,116.37 302.26,116.07 305.27,116.07 305.27,115.78 308.29,115.78 308.29,115.48 311.3,115.48 311.3,115.19 314.32,115.19 314.32,114.89 317.33,114.89 317.33,114.59 320.34,114.59 320.34,114.3 323.36,114.3 323.36,114 326.37,114 326.37,113.71 329.38,113.71 329.38,113.41 332.4,113.41 332.4,113.11 335.41,113.11 335.41,112.82 338.42,112.82 338.42,112.52 341.44,112.52 341.44,112.22 344.45,112.22 344.45,111.92 347.47,111.92 347.47,111.62 350.48,111.62 350.48,111.32 353.49,111.32 353.49,111.02 356.51,111.02 356.51,110.72 359.52,110.72 359.52,110.42 362.53,110.42 362.53,110.11 365.55,110.11 365.55,109.81 368.56,109.81 368.56,109.51 371.58,109.51 371.58,109.2 374.59,109.2 374.59,108.9 377.6,108.9 377.6,108.6 380.62,108.6 380.62,108.29 383.63,108.29 383.63,107.99 386.64,107.99 386.64,107.68 389.66,107.68 389.66,107.38 392.67,107.38 392.67,107.08 395.68,107.08 395.68,106.77 398.7,106.77 398.7,106.47 401.71,106.47 401.71,106.17 404.73,106.17 404.73,105.87 407.74,105.87 407.74,105.57 410.75,105.57 410.75,105.27 413.77,105.27 413.77,104.97 416.78,104.97 416.78,104.68 419.79,104.68 419.79,104.38 422.81,104.38 422.81,104.09 425.82,104.09 425.82,103.8 428.84,103.8 428.84,103.51 431.85,103.51 431.85,103.22 434.86,103.22 434.86,102.93 437.88,102.93 437.88,102.65 440.89,102.65 440.89,102.37 443.9,102.37 443.9,102.09 446.92,102.09 446.92,101.81 449.93,101.81 449.93,101.54 452.95,101.54 452.95,101.27 455.96,101.27 455.96,101 458.97,101 458.97,100.74 461.99,100.74 461.99,100.48 465,100.48 465,100.22 468.01,100.22 468.01,99.97 471.03,99.97 471.03,99.73 474.04,99.73 474.04,99.49 477.05,99.49 477.05,99.25 480.07,99.25 480.07,99.02 483.08,99.02 483.08,98.8 486.1,98.8 486.1,98.58 489.11,98.58 489.11,98.37 492.12,98.37 492.12,98.16 495.14,98.16 495.14,97.96 498.15,97.96 498.15,97.77 501.16,97.77 501.16,97.58 504.18,97.58 504.18,97.4 507.19,97.4 507.19,97.23 510.21,97.23 510.21,97.07 513.22,97.07 513.22,96.91 516.23,96.91 516.23,96.77 519.25,96.77 519.25,96.63 522.26,96.63 522.26,96.49 525.27,96.49 525.27,96.37 528.29,96.37 528.29,96.26 531.3,96.26 531.3,96.15 534.32,96.15 534.32,96.05 537.33,96.05 537.33,95.96 540.34,95.96 540.34,95.89 543.36,95.89 543.36,95.82 546.37,95.82 546.37,95.76 549.38,95.76 549.38,95.71 552.4,95.71 552.4,95.67 555.41,95.67 555.41,95.64 558.42,95.64 558.42,95.62 561.44,95.62 561.44,95.61 564.45,95.61 564.45,95.61 567.47,95.61 567.47,95.62 570.48,95.62 570.48,95.64 573.49,95.64 573.49,95.67 576.51,95.67 576.51,95.71 579.52,95.71 579.52,95.77 582.53,95.77 582.53,95.83 585.55,95.83 585.55,95.9 588.56,95.9 588.56,95.99 591.58,95.99 591.58,96.09 594.59,96.09 594.59,96.19 597.6,96.19 597.6,96.31 600.62,96.31 600.62,96.44 603.63,96.44 603.63,96.57 606.64,96.57 606.64,96.72 609.66,96.72 609.66,96.88 612.67,96.88 612.67,97.05 615.68,97.05 615.68,97.23 618.7,97.23 618.7,97.42 621.71,97.42 621.71,97.62 624.73,97.62 624.73,97.83 627.74,97.83 627.74,98.05 630.75,98.05 630.75,98.28 633.77,98.28 633.77,98.52 636.78,98.52 636.78,98.77 639.79,98.77 639.79,99.02 642.81,99.02 642.81,99.29 645.82,99.29 645.82,99.57 648.84,99.57 648.84,99.86 651.85,99.86 651.85,100.15 654.86,100.15 654.86,100.46 657.88,100.46 657.88,100.77 660.89,100.77 660.89,101.09 663.9,101.09 663.9,101.42 666.92,101.42 666.92,101.76 669.93,101.76 669.93,102.11 672.95,102.11 672.95,102.47 675.96,102.47 675.96,102.83 678.97,102.83 678.97,103.2 681.99,103.2 681.99,103.58 685,103.58 685,103.97 688.01,103.97 688.01,104.37 691.03,104.37 691.03,104.77 694.04,104.77 694.04,105.18 697.05,105.18 697.05,105.59 700.07,105.59 700.07,106.01 703.08,106.01 703.08,106.44 706.1,106.44 706.1,106.88 709.11,106.88 709.11,107.32 712.12,107.32 712.12,107.76 715.14,107.76 715.14,108.22 718.15,108.22 718.15,108.67 721.16,108.67 721.16,109.14 724.18,109.14 724.18,109.61 727.19,109.61 727.19,110.08 730.21,110.08 730.21,110.56 733.22,110.56 733.22,111.04 736.23,111.04 736.23,111.53 739.25,111.53 739.25,112.02 742.26,112.02 742.26,112.51 745.27,112.51 745.27,113.01 748.29,113.01 748.29,113.52 751.3,113.52 751.3,114.03 754.32,114.03 754.32,114.54 757.33,114.54 757.33,115.05 760.34,115.05 760.34,115.57 763.36,115.57 763.36,116.09 766.37,116.09 766.37,116.61 769.38,116.61 769.38,117.14 772.4,117.14 772.4,117.67 775.41,117.67 775.41,118.2 778.42,118.2 778.42,118.73 781.44,118.73 781.44,119.26 784.45,119.26 784.45,119.8 787.47,119.8 787.47,120.34 790.48,120.34 790.48,120.88 793.49,120.88 793.49,121.42 796.51,121.42 796.51,121.96 799.52,121.96 799.52,122.5 802.53,122.5 802.53,123.04 805.55,123.04 805.55,123.58 808.56,123.58 808.56,124.12 811.58,124.12 811.58,124.67 814.59,124.67 814.59,125.21 817.6,125.21 817.6,125.75 820.62,125.75 820.62,126.29 823.63,126.29 823.63,126.83 826.64,126.83 826.64,127.37 829.66,127.37 829.66,127.91 832.67,127.91 832.67,128.45 835.68,128.45 835.68,128.98 838.7,128.98 838.7,129.52 841.71,129.52 841.71,130.05 844.73,130.05 844.73,130.58 847.74,130.58 847.74,131.11 850.75,131.11 850.75,131.63 853.77,131.63 853.77,132.16 856.78,132.16 856.78,132.68 859.79,132.68 859.79,133.2 862.81,133.2 862.81,133.71 865.82,133.71 865.82,134.22 868.84,134.22 868.84,134.73 871.85,134.73 871.85,135.24 874.86,135.24 874.86,135.74 877.88,135.74 877.88,136.24 880.89,136.24 880.89,136.73 883.9,136.73 883.9,137.22 886.92,137.22 886.92,137.7 889.93,137.7 889.93,138.18 892.95,138.18 892.95,138.65 895.96,138.65 895.96,139.12 898.97,139.12 898.97,139.58 901.99,139.58 901.99,140.04 905,140.04 905,140.49 908.01,140.49 908.01,140.93 911.03,140.93 911.03,141.37 914.04,141.37 914.04,141.8 917.05,141.8 917.05,142.23 920.07,142.23 920.07,142.65 923.08,142.65 923.08,143.06 926.1,143.06 926.1,143.46 929.11,143.46 929.11,143.86 932.12,143.86 932.12,144.25 935.14,144.25 935.14,144.63 938.15,144.63 938.15,145.01 941.16,145.01 941.16,145.37 944.18,145.37 944.18,168.65 947.19,168.65 947.19,168.99 950.21,168.99 950.21,169.33 953.22,169.33 953.22,169.67 956.23,169.67 956.23,169.99 959.25,169.99 959.25,170.3 962.26,170.3 962.26,170.6 965.27,170.6 965.27,170.9 968.29,170.9 968.29,171.18 971.3,171.18 971.3,171.46 974.32,171.46 974.32,171.72 977.33,171.72 977.33,171.97 980.34,171.97 980.34,172.21 983.36,172.21 983.36,172.44 986.37,172.44 986.37,172.67 989.38,172.67 989.38,172.87 992.4,172.87 992.4,173.07 995.41,173.07 995.41,173.26 998.42,173.26 998.42,173.44 1001.44,173.44 1001.44,173.6 1004.45,173.6 1004.45,173.75 1007.47,173.75 1007.47,173.89 1010.48,173.89 1010.48,174.02 1013.49,174.02 1013.49,174.14 1016.51,174.14 1016.51,174.24 1019.52,174.24 1019.52,174.34 1022.53,174.34 1022.53,174.42 1025.55,174.42 1025.55,174.49 1028.56,174.49 1028.56,174.55 1031.58,174.55 1031.58,174.59 1034.59,174.59 1034.59,174.62 1037.6,174.62 1037.6,174.64 1040.62,174.64 1040.62,174.65 1043.63,174.65 1043.63,174.65 1046.64,174.65 1046.64,174.63 1049.66,174.63 1049.66,174.6 1052.67,174.6 1052.67,174.56 1055.68,174.56 1055.68,174.51 1058.7,174.51 1058.7,174.45 1061.71,174.45 1061.71,174.37 1064.73,174.37 1064.73,174.28 1067.74,174.28 1067.74,174.18 1070.75,174.18 1070.75,174.07 1073.77,174.07 1073.77,173.94 1076.78,173.94 1076.78,173.81 1079.79,173.81 1079.79,173.66 1082.81,173.66 1082.81,173.5 1085.82,173.5 1085.82,173.34 1088.84,173.34 1088.84,173.16 1091.85,173.16 1091.85,172.97 1094.86,172.97 1094.86,172.77 1097.88,172.77 1097.88,172.56 1100.89,172.56 1100.89,172.34 1103.9,172.34 1103.9,172.11 1106.92,172.11 1106.92,171.87 1109.93,171.87 1109.93,171.63 1112.95,171.63 1112.95,171.37 1115.96,171.37 1115.96,171.11 1118.97,171.11 1118.97,170.83 1121.99,170.83 1121.99,170.56 1125,170.56 1125,397.38 1121.99,397.38 1121.99,397.47 1118.97,397.47 1118.97,397.57 1115.96,397.57 1115.96,397.68 1112.95,397.68 1112.95,397.8 1109.93,397.8 1109.93,397.93 1106.92,397.93 1106.92,398.07 1103.9,398.07 1103.9,398.23 1100.89,398.23 1100.89,398.39 1097.88,398.39 1097.88,398.57 1094.86,398.57 1094.86,398.75 1091.85,398.75 1091.85,398.95 1088.84,398.95 1088.84,399.15 1085.82,399.15 1085.82,399.37 1082.81,399.37 1082.81,399.59 1079.79,399.59 1079.79,399.82 1076.78,399.82 1076.78,400.06 1073.77,400.06 1073.77,400.31 1070.75,400.31 1070.75,400.57 1067.74,400.57 1067.74,400.84 1064.73,400.84 1064.73,401.11 1061.71,401.11 1061.71,401.39 1058.7,401.39 1058.7,401.67 1055.68,401.67 1055.68,401.96 1052.67,401.96 1052.67,402.26 1049.66,402.26 1049.66,402.57 1046.64,402.57 1046.64,402.88 1043.63,402.88 1043.63,403.19 1040.62,403.19 1040.62,403.51 1037.6,403.51 1037.6,403.84 1034.59,403.84 1034.59,404.17 1031.58,404.17 1031.58,404.5 1028.56,404.5 1028.56,404.84 1025.55,404.84 1025.55,405.19 1022.53,405.19 1022.53,405.53 1019.52,405.53 1019.52,405.88 1016.51,405.88 1016.51,406.23 1013.49,406.23 1013.49,406.59 1010.48,406.59 1010.48,406.94 1007.47,406.94 1007.47,407.3 1004.45,407.3 1004.45,407.66 1001.44,407.66 1001.44,408.02 998.42,408.02 998.42,408.39 995.41,408.39 995.41,408.75 992.4,408.75 992.4,409.12 989.38,409.12 989.38,409.48 986.37,409.48 986.37,409.85 983.36,409.85 983.36,410.21 980.34,410.21 980.34,410.58 977.33,410.58 977.33,410.94 974.32,410.94 974.32,411.3 971.3,411.3 971.3,411.67 968.29,411.67 968.29,412.03 965.27,412.03 965.27,412.39 962.26,412.39 962.26,412.75 959.25,412.75 959.25,413.11 956.23,413.11 956.23,413.47 953.22,413.47 953.22,413.82 950.21,413.82 950.21,414.17 947.19,414.17 947.19,414.53 944.18,414.53 944.18,391.96 941.16,391.96 941.16,392.31 938.15,392.31 938.15,392.66 935.14,392.66 935.14,393 932.12,393 932.12,393.34 929.11,393.34 929.11,393.68 926.1,393.68 926.1,394.02 923.08,394.02 923.08,394.36 920.07,394.36 920.07,394.69 917.05,394.69 917.05,395.03 914.04,395.03 914.04,395.36 911.03,395.36 911.03,395.68 908.01,395.68 908.01,396.01 905,396.01 905,396.33 901.99,396.33 901.99,396.65 898.97,396.65 898.97,396.97 895.96,396.97 895.96,397.29 892.95,397.29 892.95,397.6 889.93,397.6 889.93,397.91 886.92,397.91 886.92,398.22 883.9,398.22 883.9,398.52 880.89,398.52 880.89,398.83 877.88,398.83 877.88,399.13 874.86,399.13 874.86,399.43 871.85,399.43 871.85,399.72 868.84,399.72 868.84,400.02 865.82,400.02 865.82,400.31 862.81,400.31 862.81,400.6 859.79,400.6 859.79,400.89 856.78,400.89 856.78,401.18 853.77,401.18 853.77,401.47 850.75,401.47 850.75,401.75 847.74,401.75 847.74,402.03 844.73,402.03 844.73,402.32 841.71,402.32 841.71,402.6 838.7,402.6 838.7,402.88 835.68,402.88 835.68,403.15 832.67,403.15 832.67,403.43 829.66,403.43 829.66,403.71 826.64,403.71 826.64,403.98 823.63,403.98 823.63,404.26 820.62,404.26 820.62,404.53 817.6,404.53 817.6,404.8 814.59,404.8 814.59,405.07 811.58,405.07 811.58,405.35 808.56,405.35 808.56,405.62 805.55,405.62 805.55,405.89 802.53,405.89 802.53,406.16 799.52,406.16 799.52,406.42 796.51,406.42 796.51,406.69 793.49,406.69 793.49,406.96 790.48,406.96 790.48,407.23 787.47,407.23 787.47,407.5 784.45,407.5 784.45,407.76 781.44,407.76 781.44,408.03 778.42,408.03 778.42,408.3 775.41,408.3 775.41,408.57 772.4,408.57 772.4,408.83 769.38,408.83 769.38,409.1 766.37,409.1 766.37,409.37 763.36,409.37 763.36,409.64 760.34,409.64 760.34,409.91 757.33,409.91 757.33,410.18 754.32,410.18 754.32,410.45 751.3,410.45 751.3,410.72 748.29,410.72 748.29,411 745.27,411 745.27,411.27 742.26,411.27 742.26,411.55 739.25,411.55 739.25,411.82 736.23,411.82 736.23,412.1 733.22,412.1 733.22,412.37 730.21,412.37 730.21,412.65 727.19,412.65 727.19,412.93 724.18,412.93 724.18,413.2 721.16,413.2 721.16,413.48 718.15,413.48 718.15,413.76 715.14,413.76 715.14,414.04 712.12,414.04 712.12,414.32 709.11,414.32 709.11,414.6 706.1,414.6 706.1,414.88 703.08,414.88 703.08,415.16 700.07,415.16 700.07,415.45 697.05,415.45 697.05,415.73 694.04,415.73 694.04,416.01 691.03,416.01 691.03,416.29 688.01,416.29 688.01,416.57 685,416.57 685,416.85 681.99,416.85 681.99,417.14 678.97,417.14 678.97,417.42 675.96,417.42 675.96,417.7 672.95,417.7 672.95,417.98 669.93,417.98 669.93,418.26 666.92,418.26 666.92,418.54 663.9,418.54 663.9,418.82 660.89,418.82 660.89,419.1 657.88,419.1 657.88,419.38 654.86,419.38 654.86,419.66 651.85,419.66 651.85,419.93 648.84,419.93 648.84,420.21 645.82,420.21 645.82,420.48 642.81,420.48 642.81,420.75 639.79,420.75 639.79,421.02 636.78,421.02 636.78,421.29 633.77,421.29 633.77,421.55 630.75,421.55 630.75,421.81 627.74,421.81 627.74,422.07 624.73,422.07 624.73,422.32 621.71,422.32 621.71,422.58 618.7,422.58 618.7,422.82 615.68,422.82 615.68,423.07 612.67,423.07 612.67,423.31 609.66,423.31 609.66,423.54 606.64,423.54 606.64,423.78 603.63,423.78 603.63,424 600.62,424 600.62,424.23 597.6,424.23 597.6,424.44 594.59,424.44 594.59,424.66 591.58,424.66 591.58,424.86 588.56,424.86 588.56,425.06 585.55,425.06 585.55,425.26 582.53,425.26 582.53,425.45 579.52,425.45 579.52,425.63 576.51,425.63 576.51,425.81 573.49,425.81 573.49,425.98 570.48,425.98 570.48,426.14 567.47,426.14 567.47,426.3 564.45,426.3 564.45,426.45 561.44,426.45 561.44,426.59 558.42,426.59 558.42,426.72 555.41,426.72 555.41,426.85 552.4,426.85 552.4,426.97 549.38,426.97 549.38,427.08 546.37,427.08 546.37,427.18 543.36,427.18 543.36,427.27 540.34,427.27 540.34,427.35 537.33,427.35 537.33,427.43 534.32,427.43 534.32,427.49 531.3,427.49 531.3,427.55 528.29,427.55 528.29,427.59 525.27,427.59 525.27,427.63 522.26,427.63 522.26,427.65 519.25,427.65 519.25,427.67 516.23,427.67 516.23,427.68 513.22,427.68 513.22,427.67 510.21,427.67 510.21,427.66 507.19,427.66 507.19,427.64 504.18,427.64 504.18,427.6 501.16,427.6 501.16,427.56 498.15,427.56 498.15,427.5 495.14,427.5 495.14,427.44 492.12,427.44 492.12,427.37 489.11,427.37 489.11,427.28 486.1,427.28 486.1,427.19 483.08,427.19 483.08,427.08 480.07,427.08 480.07,426.97 477.05,426.97 477.05,426.84 474.04,426.84 474.04,426.7 471.03,426.7 471.03,426.56 468.01,426.56 468.01,426.4 465,426.4 465,426.23 461.99,426.23 461.99,426.06 458.97,426.06 458.97,425.87 455.96,425.87 455.96,425.67 452.95,425.67 452.95,425.47 449.93,425.47 449.93,425.25 446.92,425.25 446.92,425.02 443.9,425.02 443.9,424.79 440.89,424.79 440.89,424.54 437.88,424.54 437.88,424.29 434.86,424.29 434.86,424.02 431.85,424.02 431.85,423.75 428.84,423.75 428.84,423.47 425.82,423.47 425.82,423.17 422.81,423.17 422.81,422.87 419.79,422.87 419.79,422.56 416.78,422.56 416.78,422.25 413.77,422.25 413.77,421.92 410.75,421.92 410.75,421.58 407.74,421.58 407.74,421.24 404.73,421.24 404.73,420.89 401.71,420.89 401.71,420.53 398.7,420.53 398.7,420.17 395.68,420.17 395.68,419.79 392.67,419.79 392.67,419.41 389.66,419.41 389.66,419.03 386.64,419.03 386.64,418.63 383.63,418.63 383.63,418.23 380.62,418.23 380.62,417.82 377.6,417.82 377.6,417.41 374.59,417.41 374.59,416.99 371.58,416.99 371.58,416.56 368.56,416.56 368.56,416.13 365.55,416.13 365.55,415.69 362.53,415.69 362.53,415.25 359.52,415.25 359.52,414.8 356.51,414.8 356.51,414.35 353.49,414.35 353.49,413.89 350.48,413.89 350.48,413.42 347.47,413.42 347.47,412.95 344.45,412.95 344.45,412.48 341.44,412.48 341.44,412 338.42,412 338.42,411.52 335.41,411.52 335.41,411.03 332.4,411.03 332.4,410.54 329.38,410.54 329.38,410.04 326.37,410.04 326.37,409.55 323.36,409.55 323.36,409.05 320.34,409.05 320.34,408.54 317.33,408.54 317.33,408.04 314.32,408.04 314.32,407.53 311.3,407.53 311.3,407.02 308.29,407.02 308.29,406.5 305.27,406.5 305.27,405.99 302.26,405.99 302.26,405.47 299.25,405.47 299.25,404.95 296.23,404.95 296.23,404.43 293.22,404.43 293.22,403.9 290.21,403.9 290.21,403.38 287.19,403.38 287.19,402.86 284.18,402.86 284.18,402.33 281.16,402.33 281.16,401.81 278.15,401.81 278.15,401.28 275.14,401.28 275.14,400.75 272.12,400.75 272.12,400.22 269.11,400.22 269.11,399.7 266.1,399.7 266.1,399.17 263.08,399.17 263.08,398.64 260.07,398.64 260.07,398.12 257.05,398.12 257.05,397.59 254.04,397.59 254.04,397.07 251.03,397.07 251.03,396.54 248.01,396.54 248.01,396.02 245,396.02 245,395.5 241.99,395.5 241.99,394.98 238.97,394.98 238.97,394.46 235.96,394.46 235.96,393.95 232.95,393.95 232.95,393.44 229.93,393.44 229.93,392.93 226.92,392.93 226.92,415.34 223.9,415.34 223.9,414.83 220.89,414.83 220.89,414.33 217.88,414.33 217.88,413.83 214.86,413.83 214.86,413.34 211.85,413.34 211.85,412.85 208.84,412.85 208.84,412.36 205.82,412.36 205.82,411.88 202.81,411.88 202.81,411.4 199.79,411.4 199.79,410.93 196.78,410.93 196.78,410.46 193.77,410.46 193.77,409.99 190.75,409.99 190.75,409.54 187.74,409.54 187.74,409.08 184.73,409.08 184.73,408.63 181.71,408.63 181.71,408.19 178.7,408.19 178.7,407.75 175.68,407.75 175.68,407.32 172.67,407.32 172.67,406.9 169.66,406.9 169.66,406.48 166.64,406.48 166.64,406.06 163.63,406.06 163.63,405.66 160.62,405.66 160.62,405.26 157.6,405.26 157.6,404.87 154.59,404.87 154.59,404.49 151.58,404.49 151.58,404.11 148.56,404.11 148.56,403.74 145.55,403.74 145.55,403.38 142.53,403.38 142.53,403.03 139.52,403.03 139.52,402.68 136.51,402.68 136.51,402.35 133.49,402.35 133.49,402.02 130.48,402.02 130.48,401.71 127.47,401.71 127.47,401.4 124.45,401.4 124.45,401.1 121.44,401.1 121.44,400.81 118.42,400.81 118.42,400.53 115.41,400.53 115.41,400.26 112.4,400.26 112.4,400 109.38,400 109.38,399.75 106.37,399.75 106.37,399.52 103.36,399.52 103.36,399.29 100.34,399.29 100.34,399.07 97.33,399.07 97.33,398.86 94.32,398.86 94.32,398.67 91.3,398.67 91.3,398.48 88.29,398.48 88.29,398.31 85.27,398.31 85.27,398.15 82.26,398.15 82.26,397.99 79.25,397.99 79.25,397.85 76.23,397.85 76.23,397.72 73.22,397.72 73.22,397.61 70.21,397.61 70.21,397.5 67.19,397.5 67.19,397.41 64.18,397.41 64.18,397.33 61.16,397.33 61.16,397.26 58.15,397.26 58.15,397.2 55.14,397.2 55.14,397.15 52.12,397.15 52.12,397.12 49.11,397.12 49.11,397.1 46.1,397.1 46.1,397.09 43.08,397.09 43.08,397.09 40.07,397.09 40.07,397.11 37.05,397.11 37.05,397.13 34.04,397.13 34.04,397.17 31.03,397.17 31.03,397.22 28.01,397.22 28.01,397.29" fill="#80c0ff" stroke="none" stroke-width="0"/>
<polyline points="26.51,558.85 29.52,558.68 32.53,558.5 35.55,558.33 38.56,558.15 41.58,557.99 44.59,557.82 47.6,557.66 50.62,557.5 53.63,557.34 56.64,557.19 59.66,557.05 62.67,556.9 65.68,556.76 68.7,556.63 71.71,556.5 74.73,556.37 77.74,556.25 80.75,556.13 83.77,556.02 86.78,555.91 89.79,555.81 92.81,555.71 95.82,555.62 98.84,555.53 101.85,555.44 104.86,555.37 107.88,555.29 110.89,555.22 113.9,555.16 116.92,555.1 119.93,555.05 122.95,555 125.96,554.96 128.97,554.92 131.99,554.89 135,554.87 138.01,554.84 141.03,554.83 144.04,554.82 147.05,554.81 150.07,554.81 153.08,554.82 156.1,554.82 159.11,554.84 162.12,554.86 165.14,554.88 168.15,554.91 171.16,554.94 174.18,554.97 177.19,555.01 180.21,555.06 183.22,555.1 186.23,555.16 189.25,555.21 192.26,555.27 195.27,555.33 198.29,555.4 201.3,555.47 204.32,555.54 207.33,555.62 210.34,555.7 213.36,555.78 216.37,555.86 219.38,555.95 222.4,556.04 225.41,556.13 228.42,556.23" fill="none" stroke="#0000ff" stroke-width="1"/>
<polyline points="231.44,533.41 234.45,533.51 237.47,533.61 240.48,533.72 243.49,533.82 246.51,533.93 249.52,534.04 252.53,534.15 255.55,534.26 258.56,534.37 261.58,534.48 264.59,534.6 267.6,534.71 270.62,534.83 273.63,534.94 276.64,535.06 279.66,535.17 282.67,535.29 285.68,535.4 288.7,535.52 291.71,535.63 294.73,535.74 297.74,535.86 300.75,535.97 303.77,536.08 306.78,536.19 309.79,536.3 312.81,536.41 315.82,536.52 318.84,536.62 321.85,536.73 324.86,536.83 327.88,536.93 330.89,537.03 333.9,537.13 336.92,537.22 339.93,537.32 342.95,537.41 345.96,537.5 348.97,537.58 351.99,537.67 355,537.75 358.01,537.83 361.03,537.9 364.04,537.97 367.05,538.04 370.07,538.11 373.08,538.17 376.1,538.23 379.11,538.28 382.12,538.34 385.14,538.39 388.15,538.43 391.16,538.47 394.18,538.51 397.19,538.55 400.21,538.58 403.22,538.61 406.23,538.64 409.25,538.66 412.26,538.68 415.27,538.69 418.29,538.7 421.3,538.71 424.32,538.72 427.33,538.72 430.34,538.71 433.36,538.71 436.37,538.7 439.38,538.68 442.4,538.66 445.41,538.64 448.42,538.62 451.44,538.59 454.45,538.56 457.47,538.52 460.48,538.48 463.49,538.44 466.51,538.4 469.52,538.35 472.53,538.3 475.55,538.25 478.56,538.19 481.58,538.13 484.59,538.07 487.6,538.01 490.62,537.94 493.63,537.88 496.64,537.81 499.66,537.74 502.67,537.66 505.68,537.59 508.7,537.51 511.71,537.44 514.73,537.36 517.74,537.28 520.75,537.2 523.77,537.12 526.78,537.04 529.79,536.95 532.81,536.87 535.82,536.79 538.84,536.7 541.85,536.62 544.86,536.53 547.88,536.45 550.89,536.37 553.9,536.29 556.92,536.21 559.93,536.12 562.95,536.05 565.96,535.97 568.97,535.89 571.99,535.82 575,535.74 578.01,535.67 581.03,535.6 584.04,535.54 587.05,535.47 590.07,535.41 593.08,535.35 596.1,535.3 599.11,535.24 602.12,535.19 605.14,535.14 608.15,535.1 611.16,535.06 614.18,535.02 617.19,534.98 620.21,534.95 623.22,534.92 626.23,534.89 629.25,534.87 632.26,534.85 635.27,534.83 638.29,534.82 641.3,534.81 644.32,534.81 647.33,534.81 650.34,534.81 653.36,534.82 656.37,534.83 659.38,534.84 662.4,534.86 665.41,534.88 668.42,534.91 671.44,534.94 674.45,534.97 677.47,535.01 680.48,535.05 683.49,535.1 686.51,535.15 689.52,535.2 692.53,535.26 695.55,535.32 698.56,535.39 701.58,535.45 704.59,535.53 707.6,535.6 710.62,535.68 713.63,535.76 716.64,535.84 719.66,535.93 722.67,536.02 725.68,536.12 728.7,536.21 731.71,536.31 734.73,536.41 737.74,536.52 740.75,536.62 743.77,536.73 746.78,536.84 749.79,536.96 752.81,537.07 755.82,537.19 758.84,537.31 761.85,537.44 764.86,537.56 767.88,537.69 770.89,537.82 773.9,537.95 776.92,538.08 779.93,538.21 782.95,538.34 785.96,538.48 788.97,538.61 791.99,538.75 795,538.88 798.01,539.02 801.03,539.15 804.04,539.29 807.05,539.43 810.07,539.56 813.08,539.7 816.1,539.83 819.11,539.97 822.12,540.1 825.14,540.24 828.15,540.37 831.16,540.5 834.18,540.63 837.19,540.76 840.21,540.89 843.22,541.02 846.23,541.14 849.25,541.27 852.26,541.39 855.27,541.51 858.29,541.63 861.3,541.75 864.32,541.86 867.33,541.97 870.34,542.08 873.36,542.18 876.37,542.29 879.38,542.39 882.4,542.48 885.41,542.58 888.42,542.67 891.44,542.75 894.45,542.84 897.47,542.91 900.48,542.99 903.49,543.06 906.51,543.13 909.52,543.19 912.53,543.25 915.55,543.3 918.56,543.35 921.58,543.4 924.59,543.44 927.6,543.47 930.62,543.5 933.63,543.53 936.64,543.55 939.66,543.57 942.67,543.58 945.68,543.59" fill="none" stroke="#0000ff" stroke-width="1"/>
<polyline points="945.68,16.51 948.7,16.5 951.71,16.5 954.73,16.48 957.74,16.46 960.75,16.44 963.77,16.41 966.78,16.37 969.79,16.33 972.81,16.29 975.82,16.24 978.84,16.18 981.85,16.12 984.86,16.05 987.88,15.97 990.89,15.89 993.9,15.81 996.92,15.72 999.93,15.62 1002.95,15.52 1005.96,15.42 1008.97,15.31 1011.99,15.2 1015,15.08 1018.01,14.95 1021.03,14.82 1024.04,14.69 1027.05,14.55 1030.07,14.41 1033.08,14.27 1036.1,14.12 1039.11,13.97 1042.12,13.81 1045.14,13.65 1048.15,13.49 1051.16,13.32 1054.18,13.15 1057.19,12.98 1060.21,12.81 1063.22,12.63 1066.23,12.45 1069.25,12.27 1072.26,12.08 1075.27,11.9 1078.29,11.71 1081.3,11.52 1084.32,11.34 1087.33,11.15 1090.34,10.96 1093.36,10.77 1096.37,10.57 1099.38,10.38 1102.4,10.19 1105.41,10.01" fill="none" stroke="#0000ff" stroke-width="1"/>
<polyline points="1111.44,559.82 1114.45,559.63 1117.47,559.44 1120.48,559.26 1123.49,559.08" fill="none" stroke="#0000ff" stroke-width="1"/>
<polyline points="26.51,283.77 29.52,283.59 32.53,283.41 35.55,283.24 38.56,283.07 41.58,282.9 44.59,282.74 47.6,282.58 50.62,282.42 53.63,282.27 56.64,282.12 59.66,281.97 62.67,281.83 65.68,281.7 68.7,281.56 71.71,281.44 74.73,281.31 77.74,281.19 80.75,281.08 83.77,280.97 86.78,280.86 89.79,280.76 92.81,280.66 95.82,280.57 98.84,280.49 101.85,280.4 104.86,280.33 107.88,280.26 110.89,280.19 113.9,280.13 116.92,280.08 119.93,280.03 122.95,279.98 125.96,279.94 128.97,279.91 131.99,279.88 135,279.85 138.01,279.84 141.03,279.82 144.04,279.81 147.05,279.81 150.07,279.81 153.08,279.82 156.1,279.83 159.11,279.85 162.12,279.87 165.14,279.89 168.15,279.92 171.16,279.95 174.18,279.99 177.19,280.03 180.21,280.08 183.22,280.13 186.23,280.18 189.25,280.24 192.26,280.3 195.27,280.36 198.29,280.43 201.3,280.5 204.32,280.58 207.33,280.66 210.34,280.74 213.36,280.82 216.37,280.91 219.38,281 222.4,281.09 225.41,281.18" fill="none" stroke="#ff0000" stroke-width="1"/>
<polyline points="228.42,258.36 231.44,258.46 234.45,258.56 237.47,258.66 240.48,258.77 243.49,258.88 246.51,258.98 249.52,259.09 252.53,259.2 255.55,259.32 258.56,259.43 261.58,259.54 264.59,259.65 267.6,259.77 270.62,259.88 273.63,260 276.64,260.11 279.66,260.23 282.67,260.34 285.68,260.46 288.7,260.57 291.71,260.69 294.73,260.8 297.74,260.91 300.75,261.02 303.77,261.14 306.78,261.25 309.79,261.36 312.81,261.46 315.82,261.57 318.84,261.68 321.85,261.78 324.86,261.88 327.88,261.98 330.89,262.08 333.9,262.18 336.92,262.27 339.93,262.36 342.95,262.45 345.96,262.54 348.97,262.63 351.99,262.71 355,262.79 358.01,262.86 361.03,262.94 364.04,263.01 367.05,263.07 370.07,263.14 373.08,263.2 376.1,263.26 379.11,263.31 382.12,263.36 385.14,263.41 388.15,263.45 391.16,263.49 394.18,263.53 397.19,263.57 400.21,263.6 403.22,263.62 406.23,263.65 409.25,263.67 412.26,263.69 415.27,263.7 418.29,263.71 421.3,263.71 424.32,263.72 427.33,263.72 430.34,263.71 433.36,263.7 436.37,263.69 439.38,263.67 442.4,263.65 445.41,263.63 448.42,263.6 451.44,263.57 454.45,263.54 457.47,263.5 460.48,263.46 463.49,263.42 466.51,263.37 469.52,263.32 472.53,263.27 475.55,263.22 478.56,263.16 481.58,263.1 484.59,263.04 487.6,262.98 490.62,262.91 493.63,262.84 496.64,262.77 499.66,262.7 502.67,262.63 505.68,262.55 508.7,262.47 511.71,262.4 514.73,262.32 517.74,262.24 520.75,262.16 523.77,262.08 526.78,261.99 529.79,261.91 532.81,261.83 535.82,261.74 538.84,261.66 541.85,261.58 544.86,261.49 547.88,261.41 550.89,261.33 553.9,261.25 556.92,261.16 559.93,261.08 562.95,261.01 565.96,260.93 568.97,260.85 571.99,260.78 575,260.71 578.01,260.64 581.03,260.57 584.04,260.51 587.05,260.44 590.07,260.38 593.08,260.32 596.1,260.27 599.11,260.22 602.12,260.17 605.14,260.12 608.15,260.08 611.16,260.04 614.18,260 617.19,259.96 620.21,259.93 623.22,259.9 626.23,259.88 629.25,259.86 632.26,259.84 635.27,259.83 638.29,259.82 641.3,259.81 644.32,259.81 647.33,259.81 650.34,259.81 653.36,259.82 656.37,259.83 659.38,259.85 662.4,259.87 665.41,259.89 668.42,259.92 671.44,259.96 674.45,259.99 677.47,260.03 680.48,260.08 683.49,260.12 686.51,260.18 689.52,260.23 692.53,260.29 695.55,260.35 698.56,260.42 701.58,260.49 704.59,260.56 707.6,260.64 710.62,260.72 713.63,260.8 716.64,260.89 719.66,260.98 722.67,261.07 725.68,261.16 728.7,261.26 731.71,261.36 734.73,261.46 737.74,261.57 740.75,261.68 743.77,261.79 746.78,261.9 749.79,262.02 752.81,262.13 755.82,262.25 758.84,262.38 761.85,262.5 764.86,262.63 767.88,262.75 770.89,262.88 773.9,263.01 776.92,263.14 779.93,263.27 782.95,263.41 785.96,263.54 788.97,263.68 791.99,263.81 795,263.95 798.01,264.09 801.03,264.22 804.04,264.36 807.05,264.49 810.07,264.63 813.08,264.77 816.1,264.9 819.11,265.04 822.12,265.17 825.14,265.3 828.15,265.44 831.16,265.57 834.18,265.7 837.19,265.83 840.21,265.95 843.22,266.08 846.23,266.21 849.25,266.33 852.26,266.45 855.27,266.57 858.29,266.69 861.3,266.8 864.32,266.91 867.33,267.02 870.34,267.13 873.36,267.24 876.37,267.34 879.38,267.44 882.4,267.53 885.41,267.62 888.42,267.71 891.44,267.8 894.45,267.88 897.47,267.95 900.48,268.03 903.49,268.09 906.51,268.16 909.52,268.22 912.53,268.28 915.55,268.33 918.56,268.37 921.58,268.42 924.59,268.46 927.6,268.49 930.62,268.52 933.63,268.54 936.64,268.56 939.66,268.58 942.67,268.59" fill="none" stroke="#ff0000" stroke-width="1"/>
<polyline points="945.68,291.51 948.7,291.51 951.71,291.5 954.73,291.49 957.74,291.47 960.75,291.45 963.77,291.43 966.78,291.39 969.79,291.35 972.81,291.31 975.82,291.26 978.84,291.21 981.85,291.15 984.86,291.08 987.88,291.01 990.89,290.93 993.9,290.85 996.92,290.76 999.93,290.67 1002.95,290.58 1005.96,290.47 1008.97,290.37 1011.99,290.25 1015,290.14 1018.01,290.01 1021.03,289.89 1024.04,289.76 1027.05,289.62 1030.07,289.48 1033.08,289.34 1036.1,289.19 1039.11,289.04 1042.12,288.89 1045.14,288.73 1048.15,288.57 1051.16,288.41 1054.18,288.24 1057.19,288.07 1060.21,287.89 1063.22,287.72 1066.23,287.54 1069.25,287.36 1072.26,287.18 1075.27,286.99 1078.29,286.81 1081.3,286.62 1084.32,286.43 1087.33,286.24 1090.34,286.05 1093.36,285.86 1096.37,285.67 1099.38,285.48 1102.4,285.29 1105.41,285.1 1108.42,284.91 1111.44,284.72 1114.45,284.54 1117.47,284.35 1120.48,284.17 1123.49,283.99" fill="none" stroke="#ff0000" stroke-width="1"/>
<line x1="261.58" y1="10" x2="261.58" y2="560" stroke="#00c000" stroke-width="1"/>
<line x1="538.84" y1="10" x2="538.84" y2="560" stroke="#00c000" stroke-width="1"/>
<line x1="822.12" y1="10" x2="822.12" y2="560" stroke="#00c000" stroke-width="1"/>
<line x1="1093.36" y1="10" x2="1093.36" y2="560" stroke="#00c000" stroke-width="1"/>
<text x="20" y="560" font-family="Arial" font-size="11pt" text-anchor="end" alignment-baseline="middle" fill="#000000">0</text>
<line x1="25" y1="560" x2="1125" y2="560" stroke="#808080" stroke-width="0.5"/>
<text x="20" y="514.17" font-family="Arial" font-size="11pt" text-anchor="end" alignment-baseline="middle" fill="#000000">2</text>
<line x1="25" y1="514.17" x2="1125" y2="514.17" stroke="#808080" stroke-width="0.5"/>
<text x="20" y="468.33" font-family="Arial" font-size="11pt" text-anchor="end" alignment-baseline="middle" fill="#000000">4</text>
<line x1="25" y1="468.33" x2="1125" y2="468.33" stroke="#808080" stroke-width="0.5"/>
<text x="20" y="422.5" font-family="Arial" font-size="11pt" text-anchor="end" alignment-baseline="middle" fill="#000000">6</text>
<line x1="25" y1="422.5" x2="1125" y2="422.5" stroke="#808080" stroke-width="0.5"/>
<text x="20" y="376.67" font-family="Arial" font-size="11pt" text-anchor="end" alignment-baseline="middle" fill="#000000">8</text>
<line x1="25" y1="376.67" x2="1125" y2="376.67" stroke="#808080" stroke-width="0.5"/>
<text x="20" y="330.83" font-family="Arial" font-size="11pt" text-anchor="end" alignment-baseline="middle" fill="#000000">10</text>
<line x1="25" y1="330.83" x2="1125" y2="330.83" stroke="#808080" stroke-width="0.5"/>
<text x="20" y="285" font-family="Arial" font-size="11pt" text-anchor="end" alignment-baseline="middle" fill="#000000">12</text>
<line x1="25" y1="285" x2="1125" y2="285" stroke="#808080" stroke-width="0.5"/>
<text x="20" y="239.17" font-family="Arial" font-size="11pt" text-anchor="end" alignment-baseline="middle" fill="#000000">14</text>
<line x1="25" y1="239.17" x2="1125" y2="239.17" stroke="#808080" stroke-width="0.5"/>
<text x="20" y="193.33" font-family="Arial" font-size="11pt" text-anchor="end" alignment-baseline="middle" fill="#000000">16</text>
<line x1="25" y1="193.33" x2="1125" y2="193.33" stroke="#808080" stroke-width="0.5"/>
<text x="20" y="147.5" font-family="Arial" font-size="11pt" text-anchor="end" alignment-baseline="middle" fill="#000000">18</text>
<line x1="25" y1="147.5" x2="1125" y2="147.5" stroke="#808080" stroke-width="0.5"/>
<text x="20" y="101.67" font-family="Arial" font-size="11pt" text-anchor="end" alignment-baseline="middle" fill="#000000">20</text>
<line x1="25" y1="101.67" x2="1125" y2="101.67" stroke="#808080" stroke-width="0.5"/>
<text x="20" y="55.83" font-family="Arial" font-size="11pt" text-anchor="end" alignment-baseline="middle" fill="#000000">22</text>
<line x1="25" y1="55.83" x2="1125" y2="55.83" stroke="#808080" stroke-width="0.5"/>
<text x="20" y="10" font-family="Arial" font-size="11pt" text-anchor="end" alignment-baseline="middle" fill="#000000">24</text>
<line x1="25" y1="10" x2="1125" y2="10" stroke="#808080" stroke-width="0.5"/>
<text x="71.71" y="572" font-family="Arial" font-size="11pt" text-anchor="middle" alignment-baseline="middle" fill="#000000">Jan</text>
<line x1="25" y1="10" x2="25" y2="560" stroke="#808080" stroke-width="0.5"/>
<text x="160.62" y="572" font-family="Arial" font-size="11pt" text-anchor="middle" alignment-baseline="middle" fill="#000000">Feb</text>
<line x1="118.42" y1="10" x2="118.42" y2="560" stroke="#808080" stroke-width="0.5"/>
<text x="249.52" y="572" font-family="Arial" font-size="11pt" text-anchor="middle" alignment-baseline="middle" fill="#000000">Mar</text>
<line x1="202.81" y1="10" x2="202.81" y2="560" stroke="#808080" stroke-width="0.5"/>
<text x="341.44" y="572" font-family="Arial" font-size="11pt" text-anchor="middle" alignment-baseline="middle" fill="#000000">Apr</text>
<line x1="296.23" y1="10" x2="296.23" y2="560" stroke="#808080" stroke-width="0.5"/>
<text x="433.36" y="572" font-family="Arial" font-size="11pt" text-anchor="middle" alignment-baseline="middle" fill="#000000">May</text>
<line x1="386.64" y1="10" x2="386.64" y2="560" stroke="#808080" stroke-width="0.5"/>
<text x="525.27" y="572" font-family="Arial" font-size="11pt" text-anchor="middle" alignment-baseline="middle" fill="#000000">Jun</text>
<line x1="480.07" y1="10" x2="480.07" y2="560" stroke="#808080" stroke-width="0.5"/>
<text x="617.19" y="572" font-family="Arial" font-size="11pt" text-anchor="middle" alignment-baseline="middle" fill="#000000">Jul</text>
<line x1="570.48" y1="10" x2="570.48" y2="560" stroke="#808080" stroke-width="0.5"/>
<text x="710.62" y="572" font-family="Arial" font-size="11pt" text-anchor="middle" alignment-baseline="middle" fill="#000000">Aug</text>
<line x1="663.9" y1="10" x2="663.9" y2="560" stroke="#808080" stroke-width="0.5"/>
<text x="802.53" y="572" font-family="Arial" font-size="11pt" text-anchor="middle" alignment-baseline="middle" fill="#000000">Sep</text>
<line x1="757.33" y1="10" x2="757.33" y2="560" stroke="#808080" stroke-width="0.5"/>
<text x="894.45" y="572" font-family="Arial" font-size="11pt" text-anchor="middle" alignment-baseline="middle" fill="#000000">Oct</text>
<line x1="847.74" y1="10" x2="847.74" y2="560" stroke="#808080" stroke-width="0.5"/>
<text x="986.37" y="572" font-family="Arial" font-size="11pt" text-anchor="middle" alignment-baseline="middle" fill="#000000">Nov</text>
<line x1="941.16" y1="10" x2="941.16" y2="560" stroke="#808080" stroke-width="0.5"/>
<text x="1078.29" y="572" font-family="Arial" font-size="11pt" text-anchor="middle" alignment-baseline="middle" fill="#000000">Dec</text>
<line x1="1031.58" y1="10" x2="1031.58" y2="560" stroke="#808080" stroke-width="0.5"/>
<line x1="1125" y1="10" x2="1125" y2="560" stroke="#808080" stroke-width="0.5"/>
</svg>