<svg xmlns="http://www.w3.org/2000/svg" width="1135" height="585" viewBox="0 0 1135 585">
<rect x="0" y="0" width="1135" height="585" fill="#ffffff" stroke="none" stroke-width="0"/>
<rect x="25" y="10" width="1100" height="550" fill="#000000" stroke="none" stroke-width="0"/>
<polygon points="25,560 25,264.4 28.01,264.4 28.01,264.22 31.03,264.22 31.03,264.02 34.04,264.02 34.04,263.81 37.05,263.81 37.05,263.59 40.07,263.59 40.07,263.35 43.08,263.35 43.08,263.1 46.1,263.1 46.1,262.83 49.11,262.83 49.11,262.55 52.12,262.55 52.12,262.26 55.14,262.26 55.14,261.95 58.15,261.95 58.15,261.63 61.16,261.63 61.16,261.29 64.18,261.29 64.18,260.94 67.19,260.94 67.19,260.58 70.21,260.58 70.21,260.21 73.22,260.21 73.22,259.82 76.23,259.82 76.23,259.42 79.25,259.42 79.25,259.01 82.26,259.01 82.26,258.59 85.27,258.59 85.27,258.15 88.29,258.15 88.29,257.7 91.3,257.7 91.3,257.24 94.32,257.24 94.32,256.77 97.33,256.77 97.33,256.29 100.34,256.29 100.34,255.79 103.36,255.79 103.36,255.29 106.37,255.29 106.37,254.77 109.38,254.77 109.38,254.24 112.4,254.24 112.4,253.71 115.41,253.71 115.41,253.16 118.42,253.16 118.42,252.6 121.44,252.6 121.44,252.04 124.45,252.04 124.45,251.46 127.47,251.46 127.47,250.87 130.48,250.87 130.48,250.27 133.49,250.27 133.49,249.67 136.51,249.67 136.51,249.05 139.52,249.05 139.52,248.43 142.53,248.43 142.53,247.8 145.55,247.8 145.55,247.16 148.56,247.16 148.56,246.51 151.58,246.51 151.58,245.85 154.59,245.85 154.59,245.18 157.6,245.18 157.6,244.5 160.62,244.5 160.62,243.82 163.63,243.82 163.63,243.13 166.64,243.13 166.64,242.43 169.66,242.43 169.66,241.72 172.67,241.72 172.67,241.01 175.68,241.01 175.68,240.29 178.7,240.29 178.7,239.56 181.71,239.56 181.71,238.82 184.73,238.82 184.73,238.08 187.74,238.08 187.74,237.33 190.75,237.33 190.75,236.57 193.77,236.57 193.77,235.8 196.78,235.8 196.78,235.03 199.79,235.03 199.79,234.25 202.81,234.25 202.81,233.47 205.82,233.47 205.82,232.68 208.84,232.68 208.84,231.88 211.85,231.88 211.85,231.08 214.86,231.08 214.86,230.27 217.88,230.27 217.88,229.45 220.89,229.45 220.89,228.63 223.9,228.63 223.9,227.8 226.92,227.8 226.92,226.97 229.93,226.97 229.93,226.13 232.95,226.13 232.95,225.28 235.96,225.28 235.96,224.43 238.97,224.43 238.97,223.58 241.99,223.58 241.99,222.72 245,222.72 245,221.85 248.01,221.85 248.01,220.98 251.03,220.98 251.03,220.1 254.04,220.1 254.04,219.22 257.05,219.22 257.05,218.34 260.07,218.34 260.07,217.44 263.08,217.44 263.08,216.55 266.1,216.55 266.1,215.65 269.11,215.65 269.11,214.74 272.12,214.74 272.12,213.83 275.14,213.83 275.14,212.92 278.15,212.92 278.15,212 281.16,212 281.16,211.08 284.18,211.08 284.18,210.15 287.19,210.15 287.19,209.22 290.21,209.22 290.21,208.28 293.22,208.28 293.22,207.35 296.23,207.35 296.23,206.4 299.25,206.4 299.25,205.46 302.26,205.46 302.26,204.51 305.27,204.51 305.27,203.56 308.29,203.56 308.29,202.61 311.3,202.61 311.3,201.65 314.32,201.65 314.32,200.69 317.33,200.69 317.33,199.73 320.34,199.73 320.34,198.77 323.36,198.77 323.36,197.8 326.37,197.8 326.37,196.84 329.38,196.84 329.38,195.87 332.4,195.87 332.4,194.9 335.41,194.9 335.41,193.93 338.42,193.93 338.42,192.95 341.44,192.95 341.44,191.98 344.45,191.98 344.45,191.01 347.47,191.01 347.47,190.03 350.48,190.03 350.48,189.06 353.49,189.06 353.49,188.09 356.51,188.09 356.51,187.11 359.52,187.11 359.52,186.14 362.53,186.14 362.53,185.17 365.55,185.17 365.55,184.2 368.56,184.2 368.56,183.23 371.58,183.23 371.58,182.27 374.59,182.27 374.59,181.31 377.6,181.31 377.6,180.35 380.62,180.35 380.62,179.39 383.63,179.39 383.63,178.44 386.64,178.44 386.64,177.49 389.66,177.49 389.66,176.55 392.67,176.55 392.67,175.61 395.68,175.61 395.68,174.68 398.7,174.68 398.7,173.75 401.71,173.75 401.71,172.84 404.73,172.84 404.73,171.92 407.74,171.92 407.74,171.02 410.75,171.02 410.75,170.13 413.77,170.13 413.77,169.24 416.78,169.24 416.78,168.36 419.79,168.36 419.79,167.49 422.81,167.49 422.81,166.64 425.82,166.64 425.82,165.79 428.84,165.79 428.84,164.96 431.85,164.96 431.85,164.13 434.86,164.13 434.86,163.32 437.88,163.32 437.88,162.53 440.89,162.53 440.89,161.75 443.9,161.75 443.9,160.98 446.92,160.98 446.92,160.23 449.93,160.23 449.93,159.49 452.95,159.49 452.95,158.77 455.96,158.77 455.96,158.07 458.97,158.07 458.97,157.39 461.99,157.39 461.99,156.72 465,156.72 465,156.08 468.01,156.08 468.01,155.45 471.03,155.45 471.03,154.85 474.04,154.85 474.04,154.26 477.05,154.26 477.05,153.7 480.07,153.7 480.07,153.16 483.08,153.16 483.08,152.65 486.1,152.65 486.1,152.16 489.11,152.16 489.11,151.69 492.12,151.69 492.12,151.25 495.14,151.25 495.14,150.83 498.15,150.83 498.15,150.44 501.16,150.44 501.16,150.08 504.18,150.08 504.18,149.74 507.19,149.74 507.19,149.43 510.21,149.43 510.21,149.14 513.22,149.14 513.22,148.89 516.23,148.89 516.23,148.66 519.25,148.66 519.25,148.46 522.26,148.46 522.26,148.29 525.27,148.29 525.27,148.15 528.29,148.15 528.29,148.04 531.3,148.04 531.3,147.96 534.32,147.96 534.32,147.91 537.33,147.91 537.33,147.88 540.34,147.88 540.34,147.89 543.36,147.89 543.36,147.93 546.37,147.93 546.37,147.99 549.38,147.99 549.38,148.09 552.4,148.09 552.4,148.21 555.41,148.21 555.41,148.37 558.42,148.37 558.42,148.55 561.44,148.55 561.44,148.76 564.45,148.76 564.45,149 567.47,149 567.47,149.27 570.48,149.27 570.48,149.56 573.49,149.56 573.49,149.88 576.51,149.88 576.51,150.23 579.52,150.23 579.52,150.61 582.53,150.61 582.53,151.01 585.55,151.01 585.55,151.43 588.56,151.43 588.56,151.89 591.58,151.89 591.58,152.36 594.59,152.36 594.59,152.86 597.6,152.86 597.6,153.38 600.62,153.38 600.62,153.93 603.63,153.93 603.63,154.49 606.64,154.49 606.64,155.08 609.66,155.08 609.66,155.69 612.67,155.69 612.67,156.32 615.68,156.32 615.68,156.97 618.7,156.97 618.7,157.63 621.71,157.63 621.71,158.32 624.73,158.32 624.73,159.02 627.74,159.02 627.74,159.74 630.75,159.74 630.75,160.48 633.77,160.48 633.77,161.23 636.78,161.23 636.78,161.99 639.79,161.99 639.79,162.78 642.81,162.78 642.81,163.57 645.82,163.57 645.82,164.38 648.84,164.38 648.84,165.19 651.85,165.19 651.85,166.03 654.86,166.03 654.86,166.87 657.88,166.87 657.88,167.72 660.89,167.72 660.89,168.58 663.9,168.58 663.9,169.45 666.92,169.45 666.92,170.33 669.93,170.33 669.93,171.22 672.95,171.22 672.95,172.12 675.96,172.12 675.96,173.02 678.97,173.02 678.97,173.93 681.99,173.93 681.99,174.85 685,174.85 685,175.77 688.01,175.77 688.01,176.7 691.03,176.7 691.03,177.63 694.04,177.63 694.04,178.57 697.05,178.57 697.05,179.51 700.07,179.51 700.07,180.45 703.08,180.45 703.08,181.4 706.1,181.4 706.1,182.35 709.11,182.35 709.11,183.3 712.12,183.3 712.12,184.26 715.14,184.26 715.14,185.21 718.15,185.21 718.15,186.17 721.16,186.17 721.16,187.13 724.18,187.13 724.18,188.09 727.19,188.09 727.19,189.05 730.21,189.05 730.21,190.01 733.22,190.01 733.22,190.97 736.23,190.97 736.23,191.93 739.25,191.93 739.25,192.9 742.26,192.9 742.26,193.85 745.27,193.85 745.27,194.81 748.29,194.81 748.29,195.77 751.3,195.77 751.3,196.73 754.32,196.73 754.32,197.68 757.33,197.68 757.33,198.63 760.34,198.63 760.34,199.58 763.36,199.58 763.36,200.53 766.37,200.53 766.37,201.47 769.38,201.47 769.38,202.42 772.4,202.42 772.4,203.36 775.41,203.36 775.41,204.29 778.42,204.29 778.42,205.23 781.44,205.23 781.44,206.16 784.45,206.16 784.45,207.09 787.47,207.09 787.47,208.01 790.48,208.01 790.48,208.93 793.49,208.93 793.49,209.85 796.51,209.85 796.51,210.76 799.52,210.76 799.52,211.67 802.53,211.67 802.53,212.58 805.55,212.58 805.55,213.48 808.56,213.48 808.56,214.38 811.58,214.38 811.58,215.27 814.59,215.27 814.59,216.16 817.6,216.16 817.6,217.05 820.62,217.05 820.62,217.93 823.63,217.93 823.63,218.8 826.64,218.8 826.64,219.67 829.66,219.67 829.66,220.54 832.67,220.54 832.67,221.4 835.68,221.4 835.68,222.26 838.7,222.26 838.7,223.11 841.71,223.11 841.71,223.95 844.73,223.95 844.73,224.79 847.74,224.79 847.74,225.63 850.75,225.63 850.75,226.46 853.77,226.46 853.77,227.28 856.78,227.28 856.78,228.1 859.79,228.1 859.79,228.91 862.81,228.91 862.81,229.72 865.82,229.72 865.82,230.52 868.84,230.52 868.84,231.32 871.85,231.32 871.85,232.11 874.86,232.11 874.86,232.89 877.88,232.89 877.88,233.67 880.89,233.67 880.89,234.44 883.9,234.44 883.9,235.21 886.92,235.21 886.92,235.97 889.93,235.97 889.93,236.72 892.95,236.72 892.95,237.46 895.96,237.46 895.96,238.2 898.97,238.2 898.97,238.94 901.99,238.94 901.99,239.66 905,239.66 905,240.38 908.01,240.38 908.01,241.09 911.03,241.09 911.03,241.8 914.04,241.8 914.04,242.49 917.05,242.49 917.05,243.18 920.07,243.18 920.07,243.87 923.08,243.87 923.08,244.54 926.1,244.54 926.1,245.21 929.11,245.21 929.11,245.87 932.12,245.87 932.12,246.52 935.14,246.52 935.14,247.16 938.15,247.16 938.15,247.79 941.16,247.79 941.16,248.42 944.18,248.42 944.18,249.04 947.19,249.04 947.19,249.64 950.21,249.64 950.21,250.24 953.22,250.24 953.22,250.83 956.23,250.83 956.23,251.41 959.25,251.41 959.25,251.99 962.26,251.99 962.26,252.55 965.27,252.55 965.27,253.1 968.29,253.1 968.29,253.64 971.3,253.64 971.3,254.18 974.32,254.18 974.32,254.7 977.33,254.7 977.33,255.21 980.34,255.21 980.34,255.71 983.36,255.71 983.36,256.2 986.37,256.2 986.37,256.68 989.38,256.68 989.38,257.15 992.4,257.15 992.4,257.61 995.41,257.61 995.41,258.06 998.42,258.06 998.42,258.49 1001.44,258.49 1001.44,258.92 1004.45,258.92 1004.45,259.33 1007.47,259.33 1007.47,259.73 1010.48,259.73 1010.48,260.12 1013.49,260.12 1013.49,260.49 1016.51,260.49 1016.51,260.85 1019.52,260.85 1019.52,261.2 1022.53,261.2 1022.53,261.54 1025.55,261.54 1025.55,261.86 1028.56,261.86 1028.56,262.17 1031.58,262.17 1031.58,262.47 1034.59,262.47 1034.59,262.75 1037.6,262.75 1037.6,263.02 1040.62,263.02 1040.62,263.28 1043.63,263.28 1043.63,263.52 1046.64,263.52 1046.64,263.75 1049.66,263.75 1049.66,263.96 1052.67,263.96 1052.67,264.16 1055.68,264.16 1055.68,264.34 1058.7,264.34 1058.7,264.51 1061.71,264.51 1061.71,264.67 1064.73,264.67 1064.73,264.81 1067.74,264.81 1067.74,264.93 1070.75,264.93 1070.75,265.04 1073.77,265.04 1073.77,265.14 1076.78,265.14 1076.78,265.22 1079.79,265.22 1079.79,265.28 1082.81,265.28 1082.81,265.33 1085.82,265.33 1085.82,265.37 1088.84,265.37 1088.84,265.39 1091.85,265.39 1091.85,265.39 1094.86,265.39 1094.86,265.38 1097.88,265.38 1097.88,265.36 1100.89,265.36 1100.89,265.32 1103.9,265.32 1103.9,265.26 1106.92,265.26 1106.92,265.19 1109.93,265.19 1109.93,265.1 1112.95,265.1 1112.95,265 1115.96,265 1115.96,264.88 1118.97,264.88 1118.97,264.75 1121.99,264.75 1121.99,264.6 1125,264.6 1125,560" fill="#002040" stroke="none" stroke-width="0"/>
<polygon points="25,560 25,287.75 28.01,287.75 28.01,287.56 31.03,287.56 31.03,287.34 34.04,287.34 34.04,287.12 37.05,287.12 37.05,286.88 40.07,286.88 40.07,286.62 43.08,286.62 43.08,286.35 46.1,286.35 46.1,286.06 49.11,286.06 49.11,285.76 52.12,285.76 52.12,285.44 55.14,285.44 55.14,285.11 58.15,285.11 58.15,284.76 61.16,284.76 61.16,284.4 64.18,284.4 64.18,284.03 67.19,284.03 67.19,283.64 70.21,283.64 70.21,283.24 73.22,283.24 73.22,282.83 76.23,282.83 76.23,282.4 79.25,282.4 79.25,281.97 82.26,281.97 82.26,281.51 85.27,281.51 85.27,281.05 88.29,281.05 88.29,280.57 91.3,280.57 91.3,280.09 94.32,280.09 94.32,279.59 97.33,279.59 97.33,279.08 100.34,279.08 100.34,278.55 103.36,278.55 103.36,278.02 106.37,278.02 106.37,277.48 109.38,277.48 109.38,276.93 112.4,276.93 112.4,276.36 115.41,276.36 115.41,275.79 118.42,275.79 118.42,275.2 121.44,275.2 121.44,274.61 124.45,274.61 124.45,274.01 127.47,274.01 127.47,273.4 130.48,273.4 130.48,272.78 133.49,272.78 133.49,272.15 136.51,272.15 136.51,271.51 139.52,271.51 139.52,270.87 142.53,270.87 142.53,270.21 145.55,270.21 145.55,269.55 148.56,269.55 148.56,268.88 151.58,268.88 151.58,268.2 154.59,268.2 154.59,267.52 157.6,267.52 157.6,266.83 160.62,266.83 160.62,266.13 163.63,266.13 163.63,265.43 166.64,265.43 166.64,264.71 169.66,264.71 169.66,264 172.67,264 172.67,263.27 175.68,263.27 175.68,262.54 178.7,262.54 178.7,261.8 181.71,261.8 181.71,261.06 184.73,261.06 184.73,260.31 187.74,260.31 187.74,259.56 190.75,259.56 190.75,258.79 193.77,258.79 193.77,258.03 196.78,258.03 196.78,257.26 199.79,257.26 199.79,256.48 202.81,256.48 202.81,255.7 205.82,255.7 205.82,254.92 208.84,254.92 208.84,254.12 211.85,254.12 211.85,253.33 214.86,253.33 214.86,252.53 217.88,252.53 217.88,251.73 220.89,251.73 220.89,250.92 223.9,250.92 223.9,250.11 226.92,250.11 226.92,249.29 229.93,249.29 229.93,248.47 232.95,248.47 232.95,247.65 235.96,247.65 235.96,246.82 238.97,246.82 238.97,245.99 241.99,245.99 241.99,245.15 245,245.15 245,244.31 248.01,244.31 248.01,243.47 251.03,243.47 251.03,242.63 254.04,242.63 254.04,241.78 257.05,241.78 257.05,240.93 260.07,240.93 260.07,240.07 263.08,240.07 263.08,239.22 266.1,239.22 266.1,238.36 269.11,238.36 269.11,237.49 272.12,237.49 272.12,236.63 275.14,236.63 275.14,235.76 278.15,235.76 278.15,234.89 281.16,234.89 281.16,234.02 284.18,234.02 284.18,233.15 287.19,233.15 287.19,232.27 290.21,232.27 290.21,231.39 293.22,231.39 293.22,230.52 296.23,230.52 296.23,229.63 299.25,229.63 299.25,228.75 302.26,228.75 302.26,227.87 305.27,227.87 305.27,226.99 308.29,226.99 308.29,226.1 311.3,226.1 311.3,225.22 314.32,225.22 314.32,224.33 317.33,224.33 317.33,223.45 320.34,223.45 320.34,222.56 323.36,222.56 323.36,221.67 326.37,221.67 326.37,220.79 329.38,220.79 329.38,219.9 332.4,219.9 332.4,219.02 335.41,219.02 335.41,218.13 338.42,218.13 338.42,217.25 341.44,217.25 341.44,216.37 344.45,216.37 344.45,215.49 347.47,215.49 347.47,214.61 350.48,214.61 350.48,213.73 353.49,213.73 353.49,212.86 356.51,212.86 356.51,211.99 359.52,211.99 359.52,211.12 362.53,211.12 362.53,210.25 365.55,210.25 365.55,209.38 368.56,209.38 368.56,208.52 371.58,208.52 371.58,207.67 374.59,207.67 374.59,206.82 377.6,206.82 377.6,205.97 380.62,205.97 380.62,205.13 383.63,205.13 383.63,204.29 386.64,204.29 386.64,203.46 389.66,203.46 389.66,202.63 392.67,202.63 392.67,201.81 395.68,201.81 395.68,201 398.7,201 398.7,200.19 401.71,200.19 401.71,199.4 404.73,199.4 404.73,198.61 407.74,198.61 407.74,197.82 410.75,197.82 410.75,197.05 413.77,197.05 413.77,196.29 416.78,196.29 416.78,195.53 419.79,195.53 419.79,194.79 422.81,194.79 422.81,194.05 425.82,194.05 425.82,193.33 428.84,193.33 428.84,192.62 431.85,192.62 431.85,191.92 434.86,191.92 434.86,191.23 437.88,191.23 437.88,190.56 440.89,190.56 440.89,189.9 443.9,189.9 443.9,189.25 446.92,189.25 446.92,188.62 449.93,188.62 449.93,188 452.95,188 452.95,187.39 455.96,187.39 455.96,186.81 458.97,186.81 458.97,186.23 461.99,186.23 461.99,185.68 465,185.68 465,185.14 468.01,185.14 468.01,184.62 471.03,184.62 471.03,184.12 474.04,184.12 474.04,183.64 477.05,183.64 477.05,183.17 480.07,183.17 480.07,182.73 483.08,182.73 483.08,182.3 486.1,182.3 486.1,181.9 489.11,181.9 489.11,181.51 492.12,181.51 492.12,181.15 495.14,181.15 495.14,180.8 498.15,180.8 498.15,180.48 501.16,180.48 501.16,180.19 504.18,180.19 504.18,179.91 507.19,179.91 507.19,179.65 510.21,179.65 510.21,179.42 513.22,179.42 513.22,179.21 516.23,179.21 516.23,179.03 519.25,179.03 519.25,178.87 522.26,178.87 522.26,178.73 525.27,178.73 525.27,178.61 528.29,178.61 528.29,178.52 531.3,178.52 531.3,178.46 534.32,178.46 534.32,178.41 537.33,178.41 537.33,178.4 540.34,178.4 540.34,178.4 543.36,178.4 543.36,178.43 546.37,178.43 546.37,178.48 549.38,178.48 549.38,178.56 552.4,178.56 552.4,178.66 555.41,178.66 555.41,178.79 558.42,178.79 558.42,178.94 561.44,178.94 561.44,179.11 564.45,179.11 564.45,179.3 567.47,179.3 567.47,179.52 570.48,179.52 570.48,179.76 573.49,179.76 573.49,180.03 576.51,180.03 576.51,180.31 579.52,180.31 579.52,180.62 582.53,180.62 582.53,180.95 585.55,180.95 585.55,181.3 588.56,181.3 588.56,181.67 591.58,181.67 591.58,182.06 594.59,182.06 594.59,182.48 597.6,182.48 597.6,182.91 600.62,182.91 600.62,183.36 603.63,183.36 603.63,183.83 606.64,183.83 606.64,184.31 609.66,184.31 609.66,184.82 612.67,184.82 612.67,185.34 615.68,185.34 615.68,185.88 618.7,185.88 618.7,186.44 621.71,186.44 621.71,187.02 624.73,187.02 624.73,187.6 627.74,187.6 627.74,188.21 630.75,188.21 630.75,188.83 633.77,188.83 633.77,189.46 636.78,189.46 636.78,190.11 639.79,190.11 639.79,190.77 642.81,190.77 642.81,191.44 645.82,191.44 645.82,192.13 648.84,192.13 648.84,192.82 651.85,192.82 651.85,193.53 654.86,193.53 654.86,194.25 657.88,194.25 657.88,194.98 660.89,194.98 660.89,195.72 663.9,195.72 663.9,196.47 666.92,196.47 666.92,197.23 669.93,197.23 669.93,198 672.95,198 672.95,198.77 675.96,198.77 675.96,199.56 678.97,199.56 678.97,200.35 681.99,200.35 681.99,201.15 685,201.15 685,201.95 688.01,201.95 688.01,202.76 691.03,202.76 691.03,203.58 694.04,203.58 694.04,204.4 697.05,204.4 697.05,205.23 700.07,205.23 700.07,206.06 703.08,206.06 703.08,206.9 706.1,206.9 706.1,207.74 709.11,207.74 709.11,208.59 712.12,208.59 712.12,209.43 715.14,209.43 715.14,210.29 718.15,210.29 718.15,211.14 721.16,211.14 721.16,212 724.18,212 724.18,212.86 727.19,212.86 727.19,213.73 730.21,213.73 730.21,214.59 733.22,214.59 733.22,215.46 736.23,215.46 736.23,216.33 739.25,216.33 739.25,217.2 742.26,217.2 742.26,218.07 745.27,218.07 745.27,218.94 748.29,218.94 748.29,219.82 751.3,219.82 751.3,220.69 754.32,220.69 754.32,221.56 757.33,221.56 757.33,222.44 760.34,222.44 760.34,223.31 763.36,223.31 763.36,224.18 766.37,224.18 766.37,225.06 769.38,225.06 769.38,225.93 772.4,225.93 772.4,226.8 775.41,226.8 775.41,227.67 778.42,227.67 778.42,228.54 781.44,228.54 781.44,229.41 784.45,229.41 784.45,230.27 787.47,230.27 787.47,231.14 790.48,231.14 790.48,232 793.49,232 793.49,232.86 796.51,232.86 796.51,233.73 799.52,233.73 799.52,234.58 802.53,234.58 802.53,235.44 805.55,235.44 805.55,236.3 808.56,236.3 808.56,237.15 811.58,237.15 811.58,238 814.59,238 814.59,238.85 817.6,238.85 817.6,239.69 820.62,239.69 820.62,240.53 823.63,240.53 823.63,241.37 826.64,241.37 826.64,242.21 829.66,242.21 829.66,243.05 832.67,243.05 832.67,243.88 835.68,243.88 835.68,244.7 838.7,244.7 838.7,245.53 841.71,245.53 841.71,246.35 844.73,246.35 844.73,247.17 847.74,247.17 847.74,247.98 850.75,247.98 850.75,248.79 853.77,248.79 853.77,249.6 856.78,249.6 856.78,250.4 859.79,250.4 859.79,251.2 862.81,251.2 862.81,251.99 865.82,251.99 865.82,252.78 868.84,252.78 868.84,253.57 871.85,253.57 871.85,254.35 874.86,254.35 874.86,255.13 877.88,255.13 877.88,255.9 880.89,255.9 880.89,256.67 883.9,256.67 883.9,257.43 886.92,257.43 886.92,258.19 889.93,258.19 889.93,258.94 892.95,258.94 892.95,259.69 895.96,259.69 895.96,260.44 898.97,260.44 898.97,261.17 901.99,261.17 901.99,261.91 905,261.91 905,262.63 908.01,262.63 908.01,263.35 911.03,263.35 911.03,264.07 914.04,264.07 914.04,264.78 917.05,264.78 917.05,265.48 920.07,265.48 920.07,266.18 923.08,266.18 923.08,266.87 926.1,266.87 926.1,267.55 929.11,267.55 929.11,268.22 932.12,268.22 932.12,268.89 935.14,268.89 935.14,269.55 938.15,269.55 938.15,270.21 941.16,270.21 941.16,270.85 944.18,270.85 944.18,271.49 947.19,271.49 947.19,272.12 950.21,272.12 950.21,272.74 953.22,272.74 953.22,273.36 956.23,273.36 956.23,273.96 959.25,273.96 959.25,274.56 962.26,274.56 962.26,275.15 965.27,275.15 965.27,275.72 968.29,275.72 968.29,276.29 971.3,276.29 971.3,276.85 974.32,276.85 974.32,277.4 977.33,277.4 977.33,277.94 980.34,277.94 980.34,278.47 983.36,278.47 983.36,278.99 986.37,278.99 986.37,279.5 989.38,279.5 989.38,279.99 992.4,279.99 992.4,280.48 995.41,280.48 995.41,280.95 998.42,280.95 998.42,281.42 1001.44,281.42 1001.44,281.87 1004.45,281.87 1004.45,282.3 1007.47,282.3 1007.47,282.73 1010.48,282.73 1010.48,283.14 1013.49,283.14 1013.49,283.55 1016.51,283.55 1016.51,283.93 1019.52,283.93 1019.52,284.31 1022.53,284.31 1022.53,284.67 1025.55,284.67 1025.55,285.02 1028.56,285.02 1028.56,285.35 1031.58,285.35 1031.58,285.67 1034.59,285.67 1034.59,285.97 1037.6,285.97 1037.6,286.26 1040.62,286.26 1040.62,286.54 1043.63,286.54 1043.63,286.8 1046.64,286.8 1046.64,287.05 1049.66,287.05 1049.66,287.28 1052.67,287.28 1052.67,287.49 1055.68,287.49 1055.68,287.69 1058.7,287.69 1058.7,287.87 1061.71,287.87 1061.71,288.04 1064.73,288.04 1064.73,288.19 1067.74,288.19 1067.74,288.33 1070.75,288.33 1070.75,288.45 1073.77,288.45 1073.77,288.55 1076.78,288.55 1076.78,288.64 1079.79,288.64 1079.79,288.71 1082.81,288.71 1082.81,288.77 1085.82,288.77 1085.82,288.8 1088.84,288.8 1088.84,288.83 1091.85,288.83 1091.85,288.83 1094.86,288.83 1094.86,288.82 1097.88,288.82 1097.88,288.79 1100.89,288.79 1100.89,288.74 1103.9,288.74 1103.9,288.68 1106.92,288.68 1106.92,288.61 1109.93,288.61 1109.93,288.51 1112.95,288.51 1112.95,288.4 1115.96,288.4 1115.96,288.27 1118.97,288.27 1118.97,288.13 1121.99,288.13 1121.99,287.97 1125,287.97 1125,560" fill="#004080" stroke="none" stroke-width="0"/>
<polygon points="25,560 25,311.69 28.01,311.69 28.01,311.47 31.03,311.47 31.03,311.24 34.04,311.24 34.04,310.99 37.05,310.99 37.05,310.73 40.07,310.73 40.07,310.45 43.08,310.45 43.08,310.15 46.1,310.15 46.1,309.83 49.11,309.83 49.11,309.5 52.12,309.5 52.12,309.16 55.14,309.16 55.14,308.8 58.15,308.8 58.15,308.42 61.16,308.42 61.16,308.03 64.18,308.03 64.18,307.63 67.19,307.63 67.19,307.21 70.21,307.21 70.21,306.77 73.22,306.77 73.22,306.32 76.23,306.32 76.23,305.86 79.25,305.86 79.25,305.39 82.26,305.39 82.26,304.9 85.27,304.9 85.27,304.4 88.29,304.4 88.29,303.89 91.3,303.89 91.3,303.36 94.32,303.36 94.32,302.83 97.33,302.83 97.33,302.28 100.34,302.28 100.34,301.72 103.36,301.72 103.36,301.15 106.37,301.15 106.37,300.57 109.38,300.57 109.38,299.98 112.4,299.98 112.4,299.38 115.41,299.38 115.41,298.77 118.42,298.77 118.42,298.15 121.44,298.15 121.44,297.52 124.45,297.52 124.45,296.88 127.47,296.88 127.47,296.24 130.48,296.24 130.48,295.58 133.49,295.58 133.49,294.92 136.51,294.92 136.51,294.25 139.52,294.25 139.52,293.57 142.53,293.57 142.53,292.88 145.55,292.88 145.55,292.19 148.56,292.19 148.56,291.49 151.58,291.49 151.58,290.79 154.59,290.79 154.59,290.07 157.6,290.07 157.6,289.36 160.62,289.36 160.62,288.63 163.63,288.63 163.63,287.9 166.64,287.9 166.64,287.16 169.66,287.16 169.66,286.42 172.67,286.42 172.67,285.67 175.68,285.67 175.68,284.92 178.7,284.92 178.7,284.16 181.71,284.16 181.71,283.4 184.73,283.4 184.73,282.64 187.74,282.64 187.74,281.87 190.75,281.87 190.75,281.09 193.77,281.09 193.77,280.31 196.78,280.31 196.78,279.53 199.79,279.53 199.79,278.74 202.81,278.74 202.81,277.95 205.82,277.95 205.82,277.16 208.84,277.16 208.84,276.36 211.85,276.36 211.85,275.56 214.86,275.56 214.86,274.76 217.88,274.76 217.88,273.95 220.89,273.95 220.89,273.14 223.9,273.14 223.9,272.33 226.92,272.33 226.92,271.52 229.93,271.52 229.93,270.7 232.95,270.7 232.95,269.89 235.96,269.89 235.96,269.07 238.97,269.07 238.97,268.24 241.99,268.24 241.99,267.42 245,267.42 245,266.59 248.01,266.59 248.01,265.77 251.03,265.77 251.03,264.94 254.04,264.94 254.04,264.11 257.05,264.11 257.05,263.27 260.07,263.27 260.07,262.44 263.08,262.44 263.08,261.61 266.1,261.61 266.1,260.77 269.11,260.77 269.11,259.93 272.12,259.93 272.12,259.1 275.14,259.1 275.14,258.26 278.15,258.26 278.15,257.42 281.16,257.42 281.16,256.58 284.18,256.58 284.18,255.74 287.19,255.74 287.19,254.9 290.21,254.9 290.21,254.06 293.22,254.06 293.22,253.22 296.23,253.22 296.23,252.38 299.25,252.38 299.25,251.54 302.26,251.54 302.26,250.71 305.27,250.71 305.27,249.87 308.29,249.87 308.29,249.03 311.3,249.03 311.3,248.2 314.32,248.2 314.32,247.36 317.33,247.36 317.33,246.53 320.34,246.53 320.34,245.7 323.36,245.7 323.36,244.87 326.37,244.87 326.37,244.04 329.38,244.04 329.38,243.21 332.4,243.21 332.4,242.39 335.41,242.39 335.41,241.56 338.42,241.56 338.42,240.74 341.44,240.74 341.44,239.93 344.45,239.93 344.45,239.11 347.47,239.11 347.47,238.3 350.48,238.3 350.48,237.49 353.49,237.49 353.49,236.69 356.51,236.69 356.51,235.89 359.52,235.89 359.52,235.09 362.53,235.09 362.53,234.29 365.55,234.29 365.55,233.51 368.56,233.51 368.56,232.72 371.58,232.72 371.58,231.94 374.59,231.94 374.59,231.17 377.6,231.17 377.6,230.4 380.62,230.4 380.62,229.64 383.63,229.64 383.63,228.88 386.64,228.88 386.64,228.13 389.66,228.13 389.66,227.39 392.67,227.39 392.67,226.65 395.68,226.65 395.68,225.92 398.7,225.92 398.7,225.2 401.71,225.2 401.71,224.48 404.73,224.48 404.73,223.78 407.74,223.78 407.74,223.08 410.75,223.08 410.75,222.39 413.77,222.39 413.77,221.72 416.78,221.72 416.78,221.05 419.79,221.05 419.79,220.39 422.81,220.39 422.81,219.74 425.82,219.74 425.82,219.1 428.84,219.1 428.84,218.47 431.85,218.47 431.85,217.86 434.86,217.86 434.86,217.25 437.88,217.25 437.88,216.66 440.89,216.66 440.89,216.08 443.9,216.08 443.9,215.52 446.92,215.52 446.92,214.96 449.93,214.96 449.93,214.42 452.95,214.42 452.95,213.9 455.96,213.9 455.96,213.38 458.97,213.38 458.97,212.89 461.99,212.89 461.99,212.41 465,212.41 465,211.94 468.01,211.94 468.01,211.49 471.03,211.49 471.03,211.05 474.04,211.05 474.04,210.64 477.05,210.64 477.05,210.23 480.07,210.23 480.07,209.85 483.08,209.85 483.08,209.48 486.1,209.48 486.1,209.14 489.11,209.14 489.11,208.8 492.12,208.8 492.12,208.49 495.14,208.49 495.14,208.2 498.15,208.2 498.15,207.92 501.16,207.92 501.16,207.67 504.18,207.67 504.18,207.43 507.19,207.43 507.19,207.21 510.21,207.21 510.21,207.01 513.22,207.01 513.22,206.84 516.23,206.84 516.23,206.68 519.25,206.68 519.25,206.54 522.26,206.54 522.26,206.42 525.27,206.42 525.27,206.32 528.29,206.32 528.29,206.24 531.3,206.24 531.3,206.19 534.32,206.19 534.32,206.15 537.33,206.15 537.33,206.14 540.34,206.14 540.34,206.14 543.36,206.14 543.36,206.17 546.37,206.17 546.37,206.21 549.38,206.21 549.38,206.28 552.4,206.28 552.4,206.36 555.41,206.36 555.41,206.47 558.42,206.47 558.42,206.6 561.44,206.6 561.44,206.75 564.45,206.75 564.45,206.91 567.47,206.91 567.47,207.1 570.48,207.1 570.48,207.31 573.49,207.31 573.49,207.53 576.51,207.53 576.51,207.78 579.52,207.78 579.52,208.04 582.53,208.04 582.53,208.32 585.55,208.32 585.55,208.62 588.56,208.62 588.56,208.94 591.58,208.94 591.58,209.28 594.59,209.28 594.59,209.64 597.6,209.64 597.6,210.01 600.62,210.01 600.62,210.4 603.63,210.4 603.63,210.8 606.64,210.8 606.64,211.22 609.66,211.22 609.66,211.66 612.67,211.66 612.67,212.11 615.68,212.11 615.68,212.58 618.7,212.58 618.7,213.07 621.71,213.07 621.71,213.57 624.73,213.57 624.73,214.08 627.74,214.08 627.74,214.61 630.75,214.61 630.75,215.15 633.77,215.15 633.77,215.7 636.78,215.7 636.78,216.27 639.79,216.27 639.79,216.85 642.81,216.85 642.81,217.44 645.82,217.44 645.82,218.04 648.84,218.04 648.84,218.65 651.85,218.65 651.85,219.28 654.86,219.28 654.86,219.91 657.88,219.91 657.88,220.56 660.89,220.56 660.89,221.22 663.9,221.22 663.9,221.88 666.92,221.88 666.92,222.56 669.93,222.56 669.93,223.24 672.95,223.24 672.95,223.93 675.96,223.93 675.96,224.63 678.97,224.63 678.97,225.34 681.99,225.34 681.99,226.05 685,226.05 685,226.77 688.01,226.77 688.01,227.5 691.03,227.5 691.03,228.24 694.04,228.24 694.04,228.98 697.05,228.98 697.05,229.73 700.07,229.73 700.07,230.48 703.08,230.48 703.08,231.24 706.1,231.24 706.1,232.01 709.11,232.01 709.11,232.78 712.12,232.78 712.12,233.55 715.14,233.55 715.14,234.33 718.15,234.33 718.15,235.11 721.16,235.11 721.16,235.9 724.18,235.9 724.18,236.69 727.19,236.69 727.19,237.49 730.21,237.49 730.21,238.28 733.22,238.28 733.22,239.08 736.23,239.08 736.23,239.89 739.25,239.89 739.25,240.7 742.26,240.7 742.26,241.5 745.27,241.5 745.27,242.32 748.29,242.32 748.29,243.13 751.3,243.13 751.3,243.94 754.32,243.94 754.32,244.76 757.33,244.76 757.33,245.58 760.34,245.58 760.34,246.4 763.36,246.4 763.36,247.22 766.37,247.22 766.37,248.04 769.38,248.04 769.38,248.87 772.4,248.87 772.4,249.69 775.41,249.69 775.41,250.51 778.42,250.51 778.42,251.34 781.44,251.34 781.44,252.16 784.45,252.16 784.45,252.99 787.47,252.99 787.47,253.82 790.48,253.82 790.48,254.64 793.49,254.64 793.49,255.47 796.51,255.47 796.51,256.3 799.52,256.3 799.52,257.12 802.53,257.12 802.53,257.95 805.55,257.95 805.55,258.77 808.56,258.77 808.56,259.6 811.58,259.6 811.58,260.42 814.59,260.42 814.59,261.25 817.6,261.25 817.6,262.07 820.62,262.07 820.62,262.89 823.63,262.89 823.63,263.71 826.64,263.71 826.64,264.53 829.66,264.53 829.66,265.35 832.67,265.35 832.67,266.16 835.68,266.16 835.68,266.98 838.7,266.98 838.7,267.79 841.71,267.79 841.71,268.6 844.73,268.6 844.73,269.41 847.74,269.41 847.74,270.22 850.75,270.22 850.75,271.02 853.77,271.02 853.77,271.83 856.78,271.83 856.78,272.63 859.79,272.63 859.79,273.42 862.81,273.42 862.81,274.22 865.82,274.22 865.82,275.01 868.84,275.01 868.84,275.8 871.85,275.8 871.85,276.59 874.86,276.59 874.86,277.37 877.88,277.37 877.88,278.15 880.89,278.15 880.89,278.93 883.9,278.93 883.9,279.7 886.92,279.7 886.92,280.48 889.93,280.48 889.93,281.24 892.95,281.24 892.95,282.01 895.96,282.01 895.96,282.76 898.97,282.76 898.97,283.52 901.99,283.52 901.99,284.27 905,284.27 905,285.02 908.01,285.02 908.01,285.76 911.03,285.76 911.03,286.5 914.04,286.5 914.04,287.23 917.05,287.23 917.05,287.95 920.07,287.95 920.07,288.68 923.08,288.68 923.08,289.39 926.1,289.39 926.1,290.1 929.11,290.1 929.11,290.8 932.12,290.8 932.12,291.5 935.14,291.5 935.14,292.19 938.15,292.19 938.15,292.88 941.16,292.88 941.16,293.56 944.18,293.56 944.18,294.23 947.19,294.23 947.19,294.89 950.21,294.89 950.21,295.54 953.22,295.54 953.22,296.19 956.23,296.19 956.23,296.83 959.25,296.83 959.25,297.46 962.26,297.46 962.26,298.09 965.27,298.09 965.27,298.7 968.29,298.7 968.29,299.3 971.3,299.3 971.3,299.9 974.32,299.9 974.32,300.49 977.33,300.49 977.33,301.06 980.34,301.06 980.34,301.63 983.36,301.63 983.36,302.18 986.37,302.18 986.37,302.73 989.38,302.73 989.38,303.26 992.4,303.26 992.4,303.78 995.41,303.78 995.41,304.29 998.42,304.29 998.42,304.79 1001.44,304.79 1001.44,305.28 1004.45,305.28 1004.45,305.75 1007.47,305.75 1007.47,306.22 1010.48,306.22 1010.48,306.66 1013.49,306.66 1013.49,307.1 1016.51,307.1 1016.51,307.52 1019.52,307.52 1019.52,307.93 1022.53,307.93 1022.53,308.32 1025.55,308.32 1025.55,308.7 1028.56,308.7 1028.56,309.06 1031.58,309.06 1031.58,309.41 1034.59,309.41 1034.59,309.74 1037.6,309.74 1037.6,310.06 1040.62,310.06 1040.62,310.36 1043.63,310.36 1043.63,310.64 1046.64,310.64 1046.64,310.91 1049.66,310.91 1049.66,311.16 1052.67,311.16 1052.67,311.4 1055.68,311.4 1055.68,311.62 1058.7,311.62 1058.7,311.82 1061.71,311.82 1061.71,312 1064.73,312 1064.73,312.17 1067.74,312.17 1067.74,312.32 1070.75,312.32 1070.75,312.45 1073.77,312.45 1073.77,312.57 1076.78,312.57 1076.78,312.66 1079.79,312.66 1079.79,312.74 1082.81,312.74 1082.81,312.8 1085.82,312.8 1085.82,312.84 1088.84,312.84 1088.84,312.87 1091.85,312.87 1091.85,312.87 1094.86,312.87 1094.86,312.86 1097.88,312.86 1097.88,312.83 1100.89,312.83 1100.89,312.78 1103.9,312.78 1103.9,312.71 1106.92,312.71 1106.92,312.62 1109.93,312.62 1109.93,312.52 1112.95,312.52 1112.95,312.4 1115.96,312.4 1115.96,312.26 1118.97,312.26 1118.97,312.1 1121.99,312.1 1121.99,311.93 1125,311.93 1125,560" fill="#0060c0" stroke="none" stroke-width="0"/>
<polygon points="25,560 25,332.92 28.01,332.92 28.01,332.69 31.03,332.69 31.03,332.43 34.04,332.43 34.04,332.16 37.05,332.16 37.05,331.87 40.07,331.87 40.07,331.57 43.08,331.57 43.08,331.24 46.1,331.24 46.1,330.9 49.11,330.9 49.11,330.54 52.12,330.54 52.12,330.16 55.14,330.16 55.14,329.77 58.15,329.77 58.15,329.36 61.16,329.36 61.16,328.93 64.18,328.93 64.18,328.49 67.19,328.49 67.19,328.03 70.21,328.03 70.21,327.56 73.22,327.56 73.22,327.08 76.23,327.08 76.23,326.58 79.25,326.58 79.25,326.07 82.26,326.07 82.26,325.54 85.27,325.54 85.27,325 88.29,325 88.29,324.44 91.3,324.44 91.3,323.88 94.32,323.88 94.32,323.3 97.33,323.3 97.33,322.71 100.34,322.71 100.34,322.11 103.36,322.11 103.36,321.5 106.37,321.5 106.37,320.88 109.38,320.88 109.38,320.25 112.4,320.25 112.4,319.61 115.41,319.61 115.41,318.95 118.42,318.95 118.42,318.29 121.44,318.29 121.44,317.62 124.45,317.62 124.45,316.94 127.47,316.94 127.47,316.26 130.48,316.26 130.48,315.56 133.49,315.56 133.49,314.86 136.51,314.86 136.51,314.15 139.52,314.15 139.52,313.44 142.53,313.44 142.53,312.71 145.55,312.71 145.55,311.98 148.56,311.98 148.56,311.25 151.58,311.25 151.58,310.51 154.59,310.51 154.59,309.76 157.6,309.76 157.6,309.01 160.62,309.01 160.62,308.25 163.63,308.25 163.63,307.49 166.64,307.49 166.64,306.72 169.66,306.72 169.66,305.95 172.67,305.95 172.67,305.17 175.68,305.17 175.68,304.39 178.7,304.39 178.7,303.6 181.71,303.6 181.71,302.82 184.73,302.82 184.73,302.02 187.74,302.02 187.74,301.23 190.75,301.23 190.75,300.43 193.77,300.43 193.77,299.63 196.78,299.63 196.78,298.83 199.79,298.83 199.79,298.02 202.81,298.02 202.81,297.21 205.82,297.21 205.82,296.4 208.84,296.4 208.84,295.59 211.85,295.59 211.85,294.77 214.86,294.77 214.86,293.96 217.88,293.96 217.88,293.14 220.89,293.14 220.89,292.32 223.9,292.32 223.9,291.5 226.92,291.5 226.92,290.68 229.93,290.68 229.93,289.86 232.95,289.86 232.95,289.03 235.96,289.03 235.96,288.21 238.97,288.21 238.97,287.38 241.99,287.38 241.99,286.56 245,286.56 245,285.73 248.01,285.73 248.01,284.9 251.03,284.9 251.03,284.08 254.04,284.08 254.04,283.25 257.05,283.25 257.05,282.42 260.07,282.42 260.07,281.6 263.08,281.6 263.08,280.77 266.1,280.77 266.1,279.94 269.11,279.94 269.11,279.12 272.12,279.12 272.12,278.29 275.14,278.29 275.14,277.47 278.15,277.47 278.15,276.64 281.16,276.64 281.16,275.82 284.18,275.82 284.18,275 287.19,275 287.19,274.18 290.21,274.18 290.21,273.36 293.22,273.36 293.22,272.54 296.23,272.54 296.23,271.72 299.25,271.72 299.25,270.91 302.26,270.91 302.26,270.09 305.27,270.09 305.27,269.28 308.29,269.28 308.29,268.47 311.3,268.47 311.3,267.67 314.32,267.67 314.32,266.86 317.33,266.86 317.33,266.06 320.34,266.06 320.34,265.26 323.36,265.26 323.36,264.46 326.37,264.46 326.37,263.67 329.38,263.67 329.38,262.88 332.4,262.88 332.4,262.09 335.41,262.09 335.41,261.31 338.42,261.31 338.42,260.53 341.44,260.53 341.44,259.75 344.45,259.75 344.45,258.98 347.47,258.98 347.47,258.21 350.48,258.21 350.48,257.44 353.49,257.44 353.49,256.68 356.51,256.68 356.51,255.93 359.52,255.93 359.52,255.18 362.53,255.18 362.53,254.43 365.55,254.43 365.55,253.69 368.56,253.69 368.56,252.95 371.58,252.95 371.58,252.22 374.59,252.22 374.59,251.5 377.6,251.5 377.6,250.78 380.62,250.78 380.62,250.07 383.63,250.07 383.63,249.36 386.64,249.36 386.64,248.67 389.66,248.67 389.66,247.98 392.67,247.98 392.67,247.29 395.68,247.29 395.68,246.62 398.7,246.62 398.7,245.95 401.71,245.95 401.71,245.29 404.73,245.29 404.73,244.64 407.74,244.64 407.74,244 410.75,244 410.75,243.36 413.77,243.36 413.77,242.74 416.78,242.74 416.78,242.12 419.79,242.12 419.79,241.52 422.81,241.52 422.81,240.93 425.82,240.93 425.82,240.34 428.84,240.34 428.84,239.77 431.85,239.77 431.85,239.21 434.86,239.21 434.86,238.65 437.88,238.65 437.88,238.12 440.89,238.12 440.89,237.59 443.9,237.59 443.9,237.07 446.92,237.07 446.92,236.57 449.93,236.57 449.93,236.08 452.95,236.08 452.95,235.6 455.96,235.6 455.96,235.14 458.97,235.14 458.97,234.69 461.99,234.69 461.99,234.25 465,234.25 465,233.83 468.01,233.83 468.01,233.43 471.03,233.43 471.03,233.04 474.04,233.04 474.04,232.66 477.05,232.66 477.05,232.3 480.07,232.3 480.07,231.95 483.08,231.95 483.08,231.62 486.1,231.62 486.1,231.31 489.11,231.31 489.11,231.01 492.12,231.01 492.12,230.73 495.14,230.73 495.14,230.47 498.15,230.47 498.15,230.22 501.16,230.22 501.16,229.99 504.18,229.99 504.18,229.78 507.19,229.78 507.19,229.58 510.21,229.58 510.21,229.41 513.22,229.41 513.22,229.25 516.23,229.25 516.23,229.11 519.25,229.11 519.25,228.98 522.26,228.98 522.26,228.88 525.27,228.88 525.27,228.79 528.29,228.79 528.29,228.72 531.3,228.72 531.3,228.67 534.32,228.67 534.32,228.64 537.33,228.64 537.33,228.62 540.34,228.62 540.34,228.63 543.36,228.63 543.36,228.65 546.37,228.65 546.37,228.69 549.38,228.69 549.38,228.75 552.4,228.75 552.4,228.83 555.41,228.83 555.41,228.92 558.42,228.92 558.42,229.04 561.44,229.04 561.44,229.17 564.45,229.17 564.45,229.32 567.47,229.32 567.47,229.48 570.48,229.48 570.48,229.67 573.49,229.67 573.49,229.87 576.51,229.87 576.51,230.09 579.52,230.09 579.52,230.33 582.53,230.33 582.53,230.58 585.55,230.58 585.55,230.85 588.56,230.85 588.56,231.14 591.58,231.14 591.58,231.44 594.59,231.44 594.59,231.76 597.6,231.76 597.6,232.09 600.62,232.09 600.62,232.44 603.63,232.44 603.63,232.81 606.64,232.81 606.64,233.19 609.66,233.19 609.66,233.58 612.67,233.58 612.67,233.99 615.68,233.99 615.68,234.42 618.7,234.42 618.7,234.85 621.71,234.85 621.71,235.3 624.73,235.3 624.73,235.77 627.74,235.77 627.74,236.25 630.75,236.25 630.75,236.74 633.77,236.74 633.77,237.24 636.78,237.24 636.78,237.76 639.79,237.76 639.79,238.28 642.81,238.28 642.81,238.82 645.82,238.82 645.82,239.37 648.84,239.37 648.84,239.93 651.85,239.93 651.85,240.5 654.86,240.5 654.86,241.09 657.88,241.09 657.88,241.68 660.89,241.68 660.89,242.28 663.9,242.28 663.9,242.89 666.92,242.89 666.92,243.51 669.93,243.51 669.93,244.14 672.95,244.14 672.95,244.78 675.96,244.78 675.96,245.42 678.97,245.42 678.97,246.08 681.99,246.08 681.99,246.74 685,246.74 685,247.41 688.01,247.41 688.01,248.08 691.03,248.08 691.03,248.77 694.04,248.77 694.04,249.46 697.05,249.46 697.05,250.16 700.07,250.16 700.07,250.86 703.08,250.86 703.08,251.57 706.1,251.57 706.1,252.28 709.11,252.28 709.11,253 712.12,253 712.12,253.73 715.14,253.73 715.14,254.46 718.15,254.46 718.15,255.2 721.16,255.2 721.16,255.94 724.18,255.94 724.18,256.69 727.19,256.69 727.19,257.44 730.21,257.44 730.21,258.19 733.22,258.19 733.22,258.95 736.23,258.95 736.23,259.72 739.25,259.72 739.25,260.48 742.26,260.48 742.26,261.25 745.27,261.25 745.27,262.03 748.29,262.03 748.29,262.8 751.3,262.8 751.3,263.58 754.32,263.58 754.32,264.36 757.33,264.36 757.33,265.15 760.34,265.15 760.34,265.94 763.36,265.94 763.36,266.73 766.37,266.73 766.37,267.52 769.38,267.52 769.38,268.31 772.4,268.31 772.4,269.11 775.41,269.11 775.41,269.91 778.42,269.91 778.42,270.71 781.44,270.71 781.44,271.51 784.45,271.51 784.45,272.31 787.47,272.31 787.47,273.12 790.48,273.12 790.48,273.92 793.49,273.92 793.49,274.73 796.51,274.73 796.51,275.54 799.52,275.54 799.52,276.35 802.53,276.35 802.53,277.16 805.55,277.16 805.55,277.97 808.56,277.97 808.56,278.79 811.58,278.79 811.58,279.6 814.59,279.6 814.59,280.41 817.6,280.41 817.6,281.23 820.62,281.23 820.62,282.04 823.63,282.04 823.63,282.86 826.64,282.86 826.64,283.67 829.66,283.67 829.66,284.49 832.67,284.49 832.67,285.3 835.68,285.3 835.68,286.11 838.7,286.11 838.7,286.93 841.71,286.93 841.71,287.74 844.73,287.74 844.73,288.55 847.74,288.55 847.74,289.37 850.75,289.37 850.75,290.18 853.77,290.18 853.77,290.99 856.78,290.99 856.78,291.8 859.79,291.8 859.79,292.6 862.81,292.6 862.81,293.41 865.82,293.41 865.82,294.21 868.84,294.21 868.84,295.02 871.85,295.02 871.85,295.82 874.86,295.82 874.86,296.62 877.88,296.62 877.88,297.42 880.89,297.42 880.89,298.21 883.9,298.21 883.9,299.01 886.92,299.01 886.92,299.8 889.93,299.8 889.93,300.59 892.95,300.59 892.95,301.37 895.96,301.37 895.96,302.16 898.97,302.16 898.97,302.94 901.99,302.94 901.99,303.71 905,303.71 905,304.49 908.01,304.49 908.01,305.26 911.03,305.26 911.03,306.02 914.04,306.02 914.04,306.78 917.05,306.78 917.05,307.54 920.07,307.54 920.07,308.3 923.08,308.3 923.08,309.04 926.1,309.04 926.1,309.79 929.11,309.79 929.11,310.52 932.12,310.52 932.12,311.26 935.14,311.26 935.14,311.98 938.15,311.98 938.15,312.71 941.16,312.71 941.16,313.42 944.18,313.42 944.18,314.13 947.19,314.13 947.19,314.83 950.21,314.83 950.21,315.52 953.22,315.52 953.22,316.21 956.23,316.21 956.23,316.89 959.25,316.89 959.25,317.56 962.26,317.56 962.26,318.22 965.27,318.22 965.27,318.88 968.29,318.88 968.29,319.52 971.3,319.52 971.3,320.16 974.32,320.16 974.32,320.79 977.33,320.79 977.33,321.41 980.34,321.41 980.34,322.01 983.36,322.01 983.36,322.61 986.37,322.61 986.37,323.19 989.38,323.19 989.38,323.77 992.4,323.77 992.4,324.33 995.41,324.33 995.41,324.88 998.42,324.88 998.42,325.42 1001.44,325.42 1001.44,325.95 1004.45,325.95 1004.45,326.46 1007.47,326.46 1007.47,326.96 1010.48,326.96 1010.48,327.45 1013.49,327.45 1013.49,327.92 1016.51,327.92 1016.51,328.37 1019.52,328.37 1019.52,328.82 1022.53,328.82 1022.53,329.24 1025.55,329.24 1025.55,329.66 1028.56,329.66 1028.56,330.05 1031.58,330.05 1031.58,330.43 1034.59,330.43 1034.59,330.79 1037.6,330.79 1037.6,331.14 1040.62,331.14 1040.62,331.47 1043.63,331.47 1043.63,331.78 1046.64,331.78 1046.64,332.07 1049.66,332.07 1049.66,332.35 1052.67,332.35 1052.67,332.61 1055.68,332.61 1055.68,332.85 1058.7,332.85 1058.7,333.07 1061.71,333.07 1061.71,333.27 1064.73,333.27 1064.73,333.46 1067.74,333.46 1067.74,333.62 1070.75,333.62 1070.75,333.76 1073.77,333.76 1073.77,333.89 1076.78,333.89 1076.78,333.99 1079.79,333.99 1079.79,334.08 1082.81,334.08 1082.81,334.15 1085.82,334.15 1085.82,334.19 1088.84,334.19 1088.84,334.22 1091.85,334.22 1091.85,334.22 1094.86,334.22 1094.86,334.21 1097.88,334.21 1097.88,334.18 1100.89,334.18 1100.89,334.12 1103.9,334.12 1103.9,334.05 1106.92,334.05 1106.92,333.95 1109.93,333.95 1109.93,333.84 1112.95,333.84 1112.95,333.7 1115.96,333.7 1115.96,333.55 1118.97,333.55 1118.97,333.38 1121.99,333.38 1121.99,333.19 1125,333.19 1125,560" fill="#80c0ff" stroke="none" stroke-width="0"/>
<line x1="261.58" y1="10" x2="261.58" y2="560" stroke="#00c000" stroke-width="1"/>
<line x1="538.84" y1="10" x2="538.84" y2="560" stroke="#00c000" stroke-width="1"/>
<line x1="822.12" y1="10" x2="822.12" y2="560" stroke="#00c000" stroke-width="1"/>
<line x1="1093.36" y1="10" x2="1093.36" y2="560" stroke="#00c000" stroke-width="1"/>
<text x="20" y="560" font-family="Arial" font-size="11pt" text-anchor="end" alignment-baseline="middle" fill="#000000">0</text>
<line x1="25" y1="560" x2="1125" y2="560" stroke="#808080" stroke-width="0.5"/>
<text x="20" y="514.17" font-family="Arial" font-size="11pt" text-anchor="end" alignment-baseline="middle" fill="#000000">2</text>
<line x1="25" y1="514.17" x2="1125" y2="514.17" stroke="#808080" stroke-width="0.5"/>
<text x="20" y="468.33" font-family="Arial" font-size="11pt" text-anchor="end" alignment-baseline="middle" fill="#000000">4</text>
<line x1="25" y1="468.33" x2="1125" y2="468.33" stroke="#808080" stroke-width="0.5"/>
<text x="20" y="422.5" font-family="Arial" font-size="11pt" text-anchor="end" alignment-baseline="middle" fill="#000000">6</text>
<line x1="25" y1="422.5" x2="1125" y2="422.5" stroke="#808080" stroke-width="0.5"/>
<text x="20" y="376.67" font-family="Arial" font-size="11pt" text-anchor="end" alignment-baseline="middle" fill="#000000">8</text>
<line x1="25" y1="376.67" x2="1125" y2="376.67" stroke="#808080" stroke-width="0.5"/>
<text x="20" y="330.83" font-family="Arial" font-size="11pt" text-anchor="end" alignment-baseline="middle" fill="#000000">10</text>
<line x1="25" y1="330.83" x2="1125" y2="330.83" stroke="#808080" stroke-width="0.5"/>
<text x="20" y="285" font-family="Arial" font-size="11pt" text-anchor="end" alignment-baseline="middle" fill="#000000">12</text>
<line x1="25" y1="285" x2="1125" y2="285" stroke="#808080" stroke-width="0.5"/>
<text x="20" y="239.17" font-family="Arial" font-size="11pt" text-anchor="end" alignment-baseline="middle" fill="#000000">14</text>
<line x1="25" y1="239.17" x2="1125" y2="239.17" stroke="#808080" stroke-width="0.5"/>
<text x="20" y="193.33" font-family="Arial" font-size="11pt" text-anchor="end" alignment-baseline="middle" fill="#000000">16</text>
<line x1="25" y1="193.33" x2="1125" y2="193.33" stroke="#808080" stroke-width="0.5"/>
<text x="20" y="147.5" font-family="Arial" font-size="11pt" text-anchor="end" alignment-baseline="middle" fill="#000000">18</text>
<line x1="25" y1="147.5" x2="1125" y2="147.5" stroke="#808080" stroke-width="0.5"/>
<text x="20" y="101.67" font-family="Arial" font-size="11pt" text-anchor="end" alignment-baseline="middle" fill="#000000">20</text>
<line x1="25" y1="101.67" x2="1125" y2="101.67" stroke="#808080" stroke-width="0.5"/>
<text x="20" y="55.83" font-family="Arial" font-size="11pt" text-anchor="end" alignment-baseline="middle" fill="#000000">22</text>
<line x1="25" y1="55.83" x2="1125" y2="55.83" stroke="#808080" stroke-width="0.5"/>
<text x="20" y="10" font-family="Arial" font-size="11pt" text-anchor="end" alignment-baseline="middle" fill="#000000">24</text>
<line x1="25" y1="10" x2="1125" y2="10" stroke="#808080" stroke-width="0.5"/>
<text x="71.71" y="572" font-family="Arial" font-size="11pt" text-anchor="middle" alignment-baseline="middle" fill="#000000">Jan</text>
<line x1="25" y1="10" x2="25" y2="560" stroke="#808080" stroke-width="0.5"/>
<text x="160.62" y="572" font-family="Arial" font-size="11pt" text-anchor="middle" alignment-baseline="middle" fill="#000000">Feb</text>
<line x1="118.42" y1="10" x2="118.42" y2="560" stroke="#808080" stroke-width="0.5"/>
<text x="249.52" y="572" font-family="Arial" font-size="11pt" text-anchor="middle" alignment-baseline="middle" fill="#000000">Mar</text>
<line x1="202.81" y1="10" x2="202.81" y2="560" stroke="#808080" stroke-width="0.5"/>
<text x="341.44" y="572" font-family="Arial" font-size="11pt" text-anchor="middle" alignment-baseline="middle" fill="#000000">Apr</text>
<line x1="296.23" y1="10" x2="296.23" y2="560" stroke="#808080" stroke-width="0.5"/>
<text x="433.36" y="572" font-family="Arial" font-size="11pt" text-anchor="middle" alignment-baseline="middle" fill="#000000">May</text>
<line x1="386.64" y1="10" x2="386.64" y2="560" stroke="#808080" stroke-width="0.5"/>
<text x="525.27" y="572" font-family="Arial" font-size="11pt" text-anchor="middle" alignment-baseline="middle" fill="#000000">Jun</text>
<line x1="480.07" y1="10" x2="480.07" y2="560" stroke="#808080" stroke-width="0.5"/>
<text x="617.19" y="572" font-family="Arial" font-size="11pt" text-anchor="middle" alignment-baseline="middle" fill="#000000">Jul</text>
<line x1="570.48" y1="10" x2="570.48" y2="560" stroke="#808080" stroke-width="0.5"/>
<text x="710.62" y="572" font-family="Arial" font-size="11pt" text-anchor="middle" alignment-baseline="middle" fill="#000000">Aug</text>
<line x1="663.9" y1="10" x2="663.9" y2="560" stroke="#808080" stroke-width="0.5"/>
<text x="802.53" y="572" font-family="Arial" font-size="11pt" text-anchor="middle" alignment-baseline="middle" fill="#000000">Sep</text>
<line x1="757.33" y1="10" x2="757.33" y2="560" stroke="#808080" stroke-width="0.5"/>
<text x="894.45" y="572" font-family="Arial" font-size="11pt" text-anchor="middle" alignment-baseline="middle" fill="#000000">Oct</text>
<line x1="847.74" y1="10" x2="847.74" y2="560" stroke="#808080" stroke-width="0.5"/>
<text x="986.37" y="572" font-family="Arial" font-size="11pt" text-anchor="middle" alignment-baseline="middle" fill="#000000">Nov</text>
<line x1="941.16" y1="10" x2="941.16" y2="560" stroke="#808080" stroke-width="0.5"/>
<text x="1078.29" y="572" font-family="Arial" font-size="11pt" text-anchor="middle" alignment-baseline="middle" fill="#000000">Dec</text>
<line x1="1031.58" y1="10" x2="1031.58" y2="560" stroke="#808080" stroke-width="0.5"/>
<line x1="1125" y1="10" x2="1125" y2="560" stroke="#808080" stroke-width="0.5"/>
</svg>