<svg xmlns="http://www.w3.org/2000/svg" width="1035" height="535" viewBox="0 0 1035 535">
<rect x="0" y="0" width="1035" height="535" fill="#ffffff" stroke="none" stroke-width="0"/>
<rect x="25" y="10" width="1000" height="500" fill="#000000" stroke="none" stroke-width="0"/>
<polygon points="25.00,393.22 25.00,124.49 27.74,124.49 27.74,124.24 30.48,124.24 30.48,123.99 33.22,123.99 33.22,123.74 35.96,123.74 35.96,123.48 38.70,123.48 38.70,123.22 41.44,123.22 41.44,122.95 44.18,122.95 44.18,122.68 46.92,122.68 46.92,122.41 49.66,122.41 49.66,122.14 52.40,122.14 52.40,121.86 55.14,121.86 55.14,121.58 57.88,121.58 57.88,121.29 60.62,121.29 60.62,121.01 63.36,121.01 63.36,120.72 66.10,120.72 66.10,120.43 68.84,120.43 68.84,120.14 71.58,120.14 71.58,119.85 74.32,119.85 74.32,119.55 77.05,119.55 77.05,119.26 79.79,119.26 79.79,118.96 82.53,118.96 82.53,118.66 85.27,118.66 85.27,118.37 88.01,118.37 88.01,118.07 90.75,118.07 90.75,117.77 93.49,117.77 93.49,117.47 96.23,117.47 96.23,117.17 98.97,117.17 98.97,116.87 101.71,116.87 101.71,116.57 104.45,116.57 104.45,116.27 107.19,116.27 107.19,115.97 109.93,115.97 109.93,115.66 112.67,115.66 112.67,115.36 115.41,115.36 115.41,115.06 118.15,115.06 118.15,114.77 120.89,114.77 120.89,114.47 123.63,114.47 123.63,114.17 126.37,114.17 126.37,113.87 129.11,113.87 129.11,113.57 131.85,113.57 131.85,113.27 134.59,113.27 134.59,112.98 137.33,112.98 137.33,112.68 140.07,112.68 140.07,112.39 142.81,112.39 142.81,112.09 145.55,112.09 145.55,111.80 148.29,111.80 148.29,111.51 151.03,111.51 151.03,111.21 153.77,111.21 153.77,110.92 156.51,110.92 156.51,110.63 159.25,110.63 159.25,110.34 161.99,110.34 161.99,110.05 164.73,110.05 164.73,109.76 167.47,109.76 167.47,109.46 170.21,109.46 170.21,109.17 172.95,109.17 172.95,108.89 175.68,108.89 175.68,108.60 178.42,108.60 178.42,108.31 181.16,108.31 181.16,108.02 183.90,108.02 183.90,107.73 186.64,107.73 186.64,107.44 189.38,107.44 189.38,107.15 192.12,107.15 192.12,106.86 194.86,106.86 194.86,106.57 197.60,106.57 197.60,106.28 200.34,106.28 200.34,105.99 203.08,105.99 203.08,105.70 205.82,105.70 205.82,105.41 208.56,105.41 208.56,84.28 211.30,84.28 211.30,83.99 214.04,83.99 214.04,83.70 216.78,83.70 216.78,83.41 219.52,83.41 219.52,83.11 222.26,83.11 222.26,82.82 225.00,82.82 225.00,82.52 227.74,82.52 227.74,82.22 230.48,82.22 230.48,81.92 233.22,81.92 233.22,81.62 235.96,81.62 235.96,81.32 238.70,81.32 238.70,81.02 241.44,81.02 241.44,80.71 244.18,80.71 244.18,80.40 246.92,80.40 246.92,80.10 249.66,80.10 249.66,79.79 252.40,79.79 252.40,79.47 255.14,79.47 255.14,79.16 257.88,79.16 257.88,78.84 260.62,78.84 260.62,78.53 263.36,78.53 263.36,78.21 266.10,78.21 266.10,77.89 268.84,77.89 268.84,77.56 271.58,77.56 271.58,77.24 274.32,77.24 274.32,76.91 277.05,76.91 277.05,76.58 279.79,76.58 279.79,76.24 282.53,76.24 282.53,75.91 285.27,75.91 285.27,75.57 288.01,75.57 288.01,75.23 290.75,75.23 290.75,74.89 293.49,74.89 293.49,74.54 296.23,74.54 296.23,74.20 298.97,74.20 298.97,73.85 301.71,73.85 301.71,73.49 304.45,73.49 304.45,73.14 307.19,73.14 307.19,72.78 309.93,72.78 309.93,72.42 312.67,72.42 312.67,72.06 315.41,72.06 315.41,71.70 318.15,71.70 318.15,71.33 320.89,71.33 320.89,70.96 323.63,70.96 323.63,70.59 326.37,70.59 326.37,70.22 329.11,70.22 329.11,69.84 331.85,69.84 331.85,69.46 334.59,69.46 334.59,69.08 337.33,69.08 337.33,68.70 340.07,68.70 340.07,68.32 342.81,68.32 342.81,67.93 345.55,67.93 345.55,67.55 348.29,67.55 348.29,67.16 351.03,67.16 351.03,66.77 353.77,66.77 353.77,66.38 356.51,66.38 356.51,65.99 359.25,65.99 359.25,65.60 361.99,65.60 361.99,65.21 364.73,65.21 364.73,64.82 367.47,64.82 367.47,64.42 370.21,64.42 370.21,64.03 372.95,64.03 372.95,63.64 375.68,63.64 375.68,63.25 378.42,63.25 378.42,62.86 381.16,62.86 381.16,62.47 383.90,62.47 383.90,62.08 386.64,62.08 386.64,61.70 389.38,61.70 389.38,61.31 392.12,61.31 392.12,60.93 394.86,60.93 394.86,60.55 397.60,60.55 397.60,60.17 400.34,60.17 400.34,59.80 403.08,59.80 403.08,59.42 405.82,59.42 405.82,59.06 408.56,59.06 408.56,58.69 411.30,58.69 411.30,58.33 414.04,58.33 414.04,57.98 416.78,57.98 416.78,57.63 419.52,57.63 419.52,57.29 422.26,57.29 422.26,56.95 425.00,56.95 425.00,56.62 427.74,56.62 427.74,56.29 430.48,56.29 430.48,55.97 433.22,55.97 433.22,55.66 435.96,55.66 435.96,55.36 438.70,55.36 438.70,55.07 441.44,55.07 441.44,54.78 444.18,54.78 444.18,54.50 446.92,54.50 446.92,54.23 449.66,54.23 449.66,53.97 452.40,53.97 452.40,53.73 455.14,53.73 455.14,53.49 457.88,53.49 457.88,53.26 460.62,53.26 460.62,53.04 463.36,53.04 463.36,52.83 466.10,52.83 466.10,52.64 468.84,52.64 468.84,52.46 471.58,52.46 471.58,52.29 474.32,52.29 474.32,52.13 477.05,52.13 477.05,51.98 479.79,51.98 479.79,51.85 482.53,51.85 482.53,51.73 485.27,51.73 485.27,51.62 488.01,51.62 488.01,51.52 490.75,51.52 490.75,51.44 493.49,51.44 493.49,51.37 496.23,51.37 496.23,51.32 498.97,51.32 498.97,51.28 501.71,51.28 501.71,51.25 504.45,51.25 504.45,51.24 507.19,51.24 507.19,51.24 509.93,51.24 509.93,51.26 512.67,51.26 512.67,51.29 515.41,51.29 515.41,51.34 518.15,51.34 518.15,51.39 520.89,51.39 520.89,51.47 523.63,51.47 523.63,51.55 526.37,51.55 526.37,51.65 529.11,51.65 529.11,51.76 531.85,51.76 531.85,51.89 534.59,51.89 534.59,52.03 537.33,52.03 537.33,52.19 540.07,52.19 540.07,52.35 542.81,52.35 542.81,52.53 545.55,52.53 545.55,52.73 548.29,52.73 548.29,52.93 551.03,52.93 551.03,53.15 553.77,53.15 553.77,53.38 556.51,53.38 556.51,53.62 559.25,53.62 559.25,53.88 561.99,53.88 561.99,54.14 564.73,54.14 564.73,54.42 567.47,54.42 567.47,54.71 570.21,54.71 570.21,55.01 572.95,55.01 572.95,55.32 575.68,55.32 575.68,55.64 578.42,55.64 578.42,55.97 581.16,55.97 581.16,56.31 583.90,56.31 583.90,56.67 586.64,56.67 586.64,57.03 589.38,57.03 589.38,57.40 592.12,57.40 592.12,57.78 594.86,57.78 594.86,58.16 597.60,58.16 597.60,58.56 600.34,58.56 600.34,58.96 603.08,58.96 603.08,59.38 605.82,59.38 605.82,59.80 608.56,59.80 608.56,60.22 611.30,60.22 611.30,60.66 614.04,60.66 614.04,61.10 616.78,61.10 616.78,61.55 619.52,61.55 619.52,62.00 622.26,62.00 622.26,62.46 625.00,62.46 625.00,62.93 627.74,62.93 627.74,63.40 630.48,63.40 630.48,63.88 633.22,63.88 633.22,64.36 635.96,64.36 635.96,64.85 638.70,64.85 638.70,65.34 641.44,65.34 641.44,65.84 644.18,65.84 644.18,66.34 646.92,66.34 646.92,66.84 649.66,66.84 649.66,67.35 652.40,67.35 652.40,67.86 655.14,67.86 655.14,68.38 657.88,68.38 657.88,68.90 660.62,68.90 660.62,69.42 663.36,69.42 663.36,69.95 666.10,69.95 666.10,70.48 668.84,70.48 668.84,71.01 671.58,71.01 671.58,71.54 674.32,71.54 674.32,72.07 677.05,72.07 677.05,72.61 679.79,72.61 679.79,73.15 682.53,73.15 682.53,73.69 685.27,73.69 685.27,74.23 688.01,74.23 688.01,74.77 690.75,74.77 690.75,75.31 693.49,75.31 693.49,75.85 696.23,75.85 696.23,76.40 698.97,76.40 698.97,76.94 701.71,76.94 701.71,77.49 704.45,77.49 704.45,78.03 707.19,78.03 707.19,78.57 709.93,78.57 709.93,79.12 712.67,79.12 712.67,79.66 715.41,79.66 715.41,80.20 718.15,80.20 718.15,80.74 720.89,80.74 720.89,81.28 723.63,81.28 723.63,81.82 726.37,81.82 726.37,82.36 729.11,82.36 729.11,82.90 731.85,82.90 731.85,83.43 734.59,83.43 734.59,83.97 737.33,83.97 737.33,84.50 740.07,84.50 740.07,85.03 742.81,85.03 742.81,85.55 745.55,85.55 745.55,86.08 748.29,86.08 748.29,86.60 751.03,86.60 751.03,87.12 753.77,87.12 753.77,87.63 756.51,87.63 756.51,88.15 759.25,88.15 759.25,88.66 761.99,88.66 761.99,89.16 764.73,89.16 764.73,89.66 767.47,89.66 767.47,90.16 770.21,90.16 770.21,90.66 772.95,90.66 772.95,91.15 775.68,91.15 775.68,91.64 778.42,91.64 778.42,92.12 781.16,92.12 781.16,92.60 783.90,92.60 783.90,93.07 786.64,93.07 786.64,93.54 789.38,93.54 789.38,94.00 792.12,94.00 792.12,94.46 794.86,94.46 794.86,94.91 797.60,94.91 797.60,95.36 800.34,95.36 800.34,95.80 803.08,95.80 803.08,96.24 805.82,96.24 805.82,96.67 808.56,96.67 808.56,97.10 811.30,97.10 811.30,97.51 814.04,97.51 814.04,97.93 816.78,97.93 816.78,98.33 819.52,98.33 819.52,98.73 822.26,98.73 822.26,99.13 825.00,99.13 825.00,99.51 827.74,99.51 827.74,99.89 830.48,99.89 830.48,100.26 833.22,100.26 833.22,100.62 835.96,100.62 835.96,100.98 838.70,100.98 838.70,101.33 841.44,101.33 841.44,101.67 844.18,101.67 844.18,102.00 846.92,102.00 846.92,102.33 849.66,102.33 849.66,102.65 852.40,102.65 852.40,102.95 855.14,102.95 855.14,103.25 857.88,103.25 857.88,103.55 860.62,103.55 860.62,124.66 863.36,124.66 863.36,124.94 866.10,124.94 866.10,125.20 868.84,125.20 868.84,125.46 871.58,125.46 871.58,125.70 874.32,125.70 874.32,125.94 877.05,125.94 877.05,126.17 879.79,126.17 879.79,126.39 882.53,126.39 882.53,126.60 885.27,126.60 885.27,126.80 888.01,126.80 888.01,126.99 890.75,126.99 890.75,127.17 893.49,127.17 893.49,127.34 896.23,127.34 896.23,127.50 898.97,127.50 898.97,127.66 901.71,127.66 901.71,127.80 904.45,127.80 904.45,127.93 907.19,127.93 907.19,128.05 909.93,128.05 909.93,128.16 912.67,128.16 912.67,128.27 915.41,128.27 915.41,128.36 918.15,128.36 918.15,128.44 920.89,128.44 920.89,128.51 923.63,128.51 923.63,128.57 926.37,128.57 926.37,128.62 929.11,128.62 929.11,128.67 931.85,128.67 931.85,128.70 934.59,128.70 934.59,128.72 937.33,128.72 937.33,128.73 940.07,128.73 940.07,128.73 942.81,128.73 942.81,128.73 945.55,128.73 945.55,128.71 948.29,128.71 948.29,128.68 951.03,128.68 951.03,128.64 953.77,128.64 953.77,128.60 956.51,128.60 956.51,128.54 959.25,128.54 959.25,128.48 961.99,128.48 961.99,128.41 964.73,128.41 964.73,128.32 967.47,128.32 967.47,128.23 970.21,128.23 970.21,128.13 972.95,128.13 972.95,128.02 975.68,128.02 975.68,127.90 978.42,127.90 978.42,127.78 981.16,127.78 981.16,127.65 983.90,127.65 983.90,127.50 986.64,127.50 986.64,127.35 989.38,127.35 989.38,127.20 992.12,127.20 992.12,127.03 994.86,127.03 994.86,126.86 997.60,126.86 997.60,126.68 1000.34,126.68 1000.34,126.50 1003.08,126.50 1003.08,126.30 1005.82,126.30 1005.82,126.10 1008.56,126.10 1008.56,125.90 1011.30,125.90 1011.30,125.69 1014.04,125.69 1014.04,125.47 1016.78,125.47 1016.78,125.25 1019.52,125.25 1019.52,125.02 1022.26,125.02 1022.26,124.78 1025.00,124.78 1025.00,393.34 1022.26,393.34 1022.26,393.44 1019.52,393.44 1019.52,393.54 1016.78,393.54 1016.78,393.66 1014.04,393.66 1014.04,393.79 1011.30,393.79 1011.30,393.92 1008.56,393.92 1008.56,394.06 1005.82,394.06 1005.82,394.21 1003.08,394.21 1003.08,394.36 1000.34,394.36 1000.34,394.52 997.60,394.52 997.60,394.69 994.86,394.69 994.86,394.87 992.12,394.87 992.12,395.05 989.38,395.05 989.38,395.24 986.64,395.24 986.64,395.43 983.90,395.43 983.90,395.64 981.16,395.64 981.16,395.84 978.42,395.84 978.42,396.06 975.68,396.06 975.68,396.27 972.95,396.27 972.95,396.50 970.21,396.50 970.21,396.72 967.47,396.72 967.47,396.96 964.73,396.96 964.73,397.19 961.99,397.19 961.99,397.43 959.25,397.43 959.25,397.68 956.51,397.68 956.51,397.93 953.77,397.93 953.77,398.18 951.03,398.18 951.03,398.44 948.29,398.44 948.29,398.70 945.55,398.70 945.55,398.96 942.81,398.96 942.81,399.22 940.07,399.22 940.07,399.49 937.33,399.49 937.33,399.76 934.59,399.76 934.59,400.03 931.85,400.03 931.85,400.31 929.11,400.31 929.11,400.58 926.37,400.58 926.37,400.86 923.63,400.86 923.63,401.14 920.89,401.14 920.89,401.42 918.15,401.42 918.15,401.70 915.41,401.70 915.41,401.99 912.67,401.99 912.67,402.27 909.93,402.27 909.93,402.55 907.19,402.55 907.19,402.84 904.45,402.84 904.45,403.12 901.71,403.12 901.71,403.41 898.97,403.41 898.97,403.69 896.23,403.69 896.23,403.98 893.49,403.98 893.49,404.26 890.75,404.26 890.75,404.55 888.01,404.55 888.01,404.83 885.27,404.83 885.27,405.11 882.53,405.11 882.53,405.40 879.79,405.40 879.79,405.68 877.05,405.68 877.05,405.96 874.32,405.96 874.32,406.25 871.58,406.25 871.58,406.53 868.84,406.53 868.84,406.81 866.10,406.81 866.10,407.09 863.36,407.09 863.36,407.36 860.62,407.36 860.62,386.81 857.88,386.81 857.88,387.09 855.14,387.09 855.14,387.36 852.40,387.36 852.40,387.64 849.66,387.64 849.66,387.91 846.92,387.91 846.92,388.19 844.18,388.19 844.18,388.46 841.44,388.46 841.44,388.73 838.70,388.73 838.70,389.00 835.96,389.00 835.96,389.27 833.22,389.27 833.22,389.54 830.48,389.54 830.48,389.81 827.74,389.81 827.74,390.08 825.00,390.08 825.00,390.35 822.26,390.35 822.26,390.62 819.52,390.62 819.52,390.88 816.78,390.88 816.78,391.15 814.04,391.15 814.04,391.42 811.30,391.42 811.30,391.68 808.56,391.68 808.56,391.95 805.82,391.95 805.82,392.21 803.08,392.21 803.08,392.48 800.34,392.48 800.34,392.74 797.60,392.74 797.60,393.00 794.86,393.00 794.86,393.27 792.12,393.27 792.12,393.53 789.38,393.53 789.38,393.80 786.64,393.80 786.64,394.06 783.90,394.06 783.90,394.33 781.16,394.33 781.16,394.60 778.42,394.60 778.42,394.86 775.68,394.86 775.68,395.13 772.95,395.13 772.95,395.40 770.21,395.40 770.21,395.67 767.47,395.67 767.47,395.94 764.73,395.94 764.73,396.21 761.99,396.21 761.99,396.48 759.25,396.48 759.25,396.75 756.51,396.75 756.51,397.03 753.77,397.03 753.77,397.30 751.03,397.30 751.03,397.58 748.29,397.58 748.29,397.86 745.55,397.86 745.55,398.14 742.81,398.14 742.81,398.42 740.07,398.42 740.07,398.71 737.33,398.71 737.33,398.99 734.59,398.99 734.59,399.28 731.85,399.28 731.85,399.57 729.11,399.57 729.11,399.86 726.37,399.86 726.37,400.15 723.63,400.15 723.63,400.44 720.89,400.44 720.89,400.74 718.15,400.74 718.15,401.04 715.41,401.04 715.41,401.34 712.67,401.34 712.67,401.65 709.93,401.65 709.93,401.95 707.19,401.95 707.19,402.26 704.45,402.26 704.45,402.57 701.71,402.57 701.71,402.88 698.97,402.88 698.97,403.20 696.23,403.20 696.23,403.52 693.49,403.52 693.49,403.84 690.75,403.84 690.75,404.16 688.01,404.16 688.01,404.49 685.27,404.49 685.27,404.81 682.53,404.81 682.53,405.14 679.79,405.14 679.79,405.48 677.05,405.48 677.05,405.81 674.32,405.81 674.32,406.15 671.58,406.15 671.58,406.49 668.84,406.49 668.84,406.84 666.10,406.84 666.10,407.18 663.36,407.18 663.36,407.53 660.62,407.53 660.62,407.88 657.88,407.88 657.88,408.23 655.14,408.23 655.14,408.59 652.40,408.59 652.40,408.95 649.66,408.95 649.66,409.31 646.92,409.31 646.92,409.67 644.18,409.67 644.18,410.03 641.44,410.03 641.44,410.39 638.70,410.39 638.70,410.76 635.96,410.76 635.96,411.13 633.22,411.13 633.22,411.50 630.48,411.50 630.48,411.87 627.74,411.87 627.74,412.24 625.00,412.24 625.00,412.61 622.26,412.61 622.26,412.98 619.52,412.98 619.52,413.35 616.78,413.35 616.78,413.73 614.04,413.73 614.04,414.10 611.30,414.10 611.30,414.47 608.56,414.47 608.56,414.85 605.82,414.85 605.82,415.22 603.08,415.22 603.08,415.59 600.34,415.59 600.34,415.96 597.60,415.96 597.60,416.33 594.86,416.33 594.86,416.70 592.12,416.70 592.12,417.06 589.38,417.06 589.38,417.43 586.64,417.43 586.64,417.79 583.90,417.79 583.90,418.15 581.16,418.15 581.16,418.50 578.42,418.50 578.42,418.85 575.68,418.85 575.68,419.20 572.95,419.20 572.95,419.55 570.21,419.55 570.21,419.88 567.47,419.88 567.47,420.22 564.73,420.22 564.73,420.55 561.99,420.55 561.99,420.87 559.25,420.87 559.25,421.19 556.51,421.19 556.51,421.50 553.77,421.50 553.77,421.80 551.03,421.80 551.03,422.10 548.29,422.10 548.29,422.39 545.55,422.39 545.55,422.67 542.81,422.67 542.81,422.94 540.07,422.94 540.07,423.21 537.33,423.21 537.33,423.47 534.59,423.47 534.59,423.71 531.85,423.71 531.85,423.95 529.11,423.95 529.11,424.18 526.37,424.18 526.37,424.40 523.63,424.40 523.63,424.60 520.89,424.60 520.89,424.80 518.15,424.80 518.15,424.98 515.41,424.98 515.41,425.16 512.67,425.16 512.67,425.32 509.93,425.32 509.93,425.47 507.19,425.47 507.19,425.61 504.45,425.61 504.45,425.73 501.71,425.73 501.71,425.84 498.97,425.84 498.97,425.94 496.23,425.94 496.23,426.03 493.49,426.03 493.49,426.10 490.75,426.10 490.75,426.16 488.01,426.16 488.01,426.21 485.27,426.21 485.27,426.24 482.53,426.24 482.53,426.26 479.79,426.26 479.79,426.27 477.05,426.27 477.05,426.26 474.32,426.26 474.32,426.24 471.58,426.24 471.58,426.21 468.84,426.21 468.84,426.16 466.10,426.16 466.10,426.09 463.36,426.09 463.36,426.02 460.62,426.02 460.62,425.93 457.88,425.93 457.88,425.83 455.14,425.83 455.14,425.71 452.40,425.71 452.40,425.58 449.66,425.58 449.66,425.44 446.92,425.44 446.92,425.28 444.18,425.28 444.18,425.11 441.44,425.11 441.44,424.93 438.70,424.93 438.70,424.73 435.96,424.73 435.96,424.53 433.22,424.53 433.22,424.31 430.48,424.31 430.48,424.07 427.74,424.07 427.74,423.83 425.00,423.83 425.00,423.58 422.26,423.58 422.26,423.31 419.52,423.31 419.52,423.03 416.78,423.03 416.78,422.74 414.04,422.74 414.04,422.44 411.30,422.44 411.30,422.13 408.56,422.13 408.56,421.81 405.82,421.81 405.82,421.48 403.08,421.48 403.08,421.14 400.34,421.14 400.34,420.79 397.60,420.79 397.60,420.44 394.86,420.44 394.86,420.07 392.12,420.07 392.12,419.69 389.38,419.69 389.38,419.31 386.64,419.31 386.64,418.92 383.90,418.92 383.90,418.52 381.16,418.52 381.16,418.11 378.42,418.11 378.42,417.69 375.68,417.69 375.68,417.27 372.95,417.27 372.95,416.84 370.21,416.84 370.21,416.40 367.47,416.40 367.47,415.96 364.73,415.96 364.73,415.51 361.99,415.51 361.99,415.05 359.25,415.05 359.25,414.59 356.51,414.59 356.51,414.13 353.77,414.13 353.77,413.66 351.03,413.66 351.03,413.18 348.29,413.18 348.29,412.70 345.55,412.70 345.55,412.21 342.81,412.21 342.81,411.72 340.07,411.72 340.07,411.23 337.33,411.23 337.33,410.73 334.59,410.73 334.59,410.23 331.85,410.23 331.85,409.72 329.11,409.72 329.11,409.21 326.37,409.21 326.37,408.70 323.63,408.70 323.63,408.19 320.89,408.19 320.89,407.67 318.15,407.67 318.15,407.15 315.41,407.15 315.41,406.63 312.67,406.63 312.67,406.11 309.93,406.11 309.93,405.59 307.19,405.59 307.19,405.06 304.45,405.06 304.45,404.53 301.71,404.53 301.71,404.00 298.97,404.00 298.97,403.48 296.23,403.48 296.23,402.94 293.49,402.94 293.49,402.41 290.75,402.41 290.75,401.88 288.01,401.88 288.01,401.35 285.27,401.35 285.27,400.82 282.53,400.82 282.53,400.29 279.79,400.29 279.79,399.76 277.05,399.76 277.05,399.22 274.32,399.22 274.32,398.69 271.58,398.69 271.58,398.16 268.84,398.16 268.84,397.64 266.10,397.64 266.10,397.11 263.36,397.11 263.36,396.58 260.62,396.58 260.62,396.06 257.88,396.06 257.88,395.53 255.14,395.53 255.14,395.01 252.40,395.01 252.40,394.49 249.66,394.49 249.66,393.98 246.92,393.98 246.92,393.46 244.18,393.46 244.18,392.95 241.44,392.95 241.44,392.44 238.70,392.44 238.70,391.93 235.96,391.93 235.96,391.43 233.22,391.43 233.22,390.93 230.48,390.93 230.48,390.43 227.74,390.43 227.74,389.93 225.00,389.93 225.00,389.44 222.26,389.44 222.26,388.96 219.52,388.96 219.52,388.47 216.78,388.47 216.78,387.99 214.04,387.99 214.04,387.52 211.30,387.52 211.30,387.05 208.56,387.05 208.56,407.42 205.82,407.42 205.82,406.96 203.08,406.96 203.08,406.50 200.34,406.50 200.34,406.05 197.60,406.05 197.60,405.60 194.86,405.60 194.86,405.16 192.12,405.16 192.12,404.72 189.38,404.72 189.38,404.29 186.64,404.29 186.64,403.87 183.90,403.87 183.90,403.45 181.16,403.45 181.16,403.04 178.42,403.04 178.42,402.63 175.68,402.63 175.68,402.23 172.95,402.23 172.95,401.84 170.21,401.84 170.21,401.45 167.47,401.45 167.47,401.07 164.73,401.07 164.73,400.70 161.99,400.70 161.99,400.34 159.25,400.34 159.25,399.98 156.51,399.98 156.51,399.63 153.77,399.63 153.77,399.28 151.03,399.28 151.03,398.95 148.29,398.95 148.29,398.62 145.55,398.62 145.55,398.30 142.81,398.30 142.81,397.99 140.07,397.99 140.07,397.69 137.33,397.69 137.33,397.39 134.59,397.39 134.59,397.10 131.85,397.10 131.85,396.83 129.11,396.83 129.11,396.56 126.37,396.56 126.37,396.29 123.63,396.29 123.63,396.04 120.89,396.04 120.89,395.80 118.15,395.80 118.15,395.57 115.41,395.57 115.41,395.34 112.67,395.34 112.67,395.12 109.93,395.12 109.93,394.92 107.19,394.92 107.19,394.72 104.45,394.72 104.45,394.53 101.71,394.53 101.71,394.36 98.97,394.36 98.97,394.19 96.23,394.19 96.23,394.03 93.49,394.03 93.49,393.88 90.75,393.88 90.75,393.74 88.01,393.74 88.01,393.61 85.27,393.61 85.27,393.49 82.53,393.49 82.53,393.38 79.79,393.38 79.79,393.28 77.05,393.28 77.05,393.19 74.32,393.19 74.32,393.11 71.58,393.11 71.58,393.04 68.84,393.04 68.84,392.98 66.10,392.98 66.10,392.93 63.36,392.93 63.36,392.89 60.62,392.89 60.62,392.86 57.88,392.86 57.88,392.84 55.14,392.84 55.14,392.82 52.40,392.82 52.40,392.82 49.66,392.82 49.66,392.83 46.92,392.83 46.92,392.85 44.18,392.85 44.18,392.87 41.44,392.87 41.44,392.91 38.70,392.91 38.70,392.95 35.96,392.95 35.96,393.01 33.22,393.01 33.22,393.07 30.48,393.07 30.48,393.14 27.74,393.14 27.74,393.22" fill="#002040" stroke="none" stroke-width="0"/>
<polygon points="25.00,382.61 25.00,135.10 27.74,135.10 27.74,134.85 30.48,134.85 30.48,134.59 33.22,134.59 33.22,134.33 35.96,134.33 35.96,134.06 38.70,134.06 38.70,133.79 41.44,133.79 41.44,133.52 44.18,133.52 44.18,133.24 46.92,133.24 46.92,132.96 49.66,132.96 49.66,132.67 52.40,132.67 52.40,132.39 55.14,132.39 55.14,132.10 57.88,132.10 57.88,131.80 60.62,131.80 60.62,131.50 63.36,131.50 63.36,131.21 66.10,131.21 66.10,130.90 68.84,130.90 68.84,130.60 71.58,130.60 71.58,130.30 74.32,130.30 74.32,129.99 77.05,129.99 77.05,129.68 79.79,129.68 79.79,129.37 82.53,129.37 82.53,129.06 85.27,129.06 85.27,128.75 88.01,128.75 88.01,128.44 90.75,128.44 90.75,128.13 93.49,128.13 93.49,127.82 96.23,127.82 96.23,127.50 98.97,127.50 98.97,127.19 101.71,127.19 101.71,126.88 104.45,126.88 104.45,126.56 107.19,126.56 107.19,126.25 109.93,126.25 109.93,125.94 112.67,125.94 112.67,125.63 115.41,125.63 115.41,125.32 118.15,125.32 118.15,125.01 120.89,125.01 120.89,124.70 123.63,124.70 123.63,124.39 126.37,124.39 126.37,124.08 129.11,124.08 129.11,123.77 131.85,123.77 131.85,123.47 134.59,123.47 134.59,123.16 137.33,123.16 137.33,122.86 140.07,122.86 140.07,122.55 142.81,122.55 142.81,122.25 145.55,122.25 145.55,121.95 148.29,121.95 148.29,121.65 151.03,121.65 151.03,121.35 153.77,121.35 153.77,121.05 156.51,121.05 156.51,120.76 159.25,120.76 159.25,120.46 161.99,120.46 161.99,120.17 164.73,120.17 164.73,119.87 167.47,119.87 167.47,119.58 170.21,119.58 170.21,119.29 172.95,119.29 172.95,119.00 175.68,119.00 175.68,118.71 178.42,118.71 178.42,118.42 181.16,118.42 181.16,118.13 183.90,118.13 183.90,117.84 186.64,117.84 186.64,117.55 189.38,117.55 189.38,117.27 192.12,117.27 192.12,116.98 194.86,116.98 194.86,116.70 197.60,116.70 197.60,116.41 200.34,116.41 200.34,116.13 203.08,116.13 203.08,115.84 205.82,115.84 205.82,115.56 208.56,115.56 208.56,94.44 211.30,94.44 211.30,94.16 214.04,94.16 214.04,93.87 216.78,93.87 216.78,93.59 219.52,93.59 219.52,93.31 222.26,93.31 222.26,93.02 225.00,93.02 225.00,92.74 227.74,92.74 227.74,92.46 230.48,92.46 230.48,92.17 233.22,92.17 233.22,91.89 235.96,91.89 235.96,91.60 238.70,91.60 238.70,91.32 241.44,91.32 241.44,91.03 244.18,91.03 244.18,90.74 246.92,90.74 246.92,90.45 249.66,90.45 249.66,90.16 252.40,90.16 252.40,89.87 255.14,89.87 255.14,89.58 257.88,89.58 257.88,89.29 260.62,89.29 260.62,89.00 263.36,89.00 263.36,88.70 266.10,88.70 266.10,88.41 268.84,88.41 268.84,88.11 271.58,88.11 271.58,87.81 274.32,87.81 274.32,87.51 277.05,87.51 277.05,87.21 279.79,87.21 279.79,86.91 282.53,86.91 282.53,86.61 285.27,86.61 285.27,86.30 288.01,86.30 288.01,86.00 290.75,86.00 290.75,85.69 293.49,85.69 293.49,85.38 296.23,85.38 296.23,85.07 298.97,85.07 298.97,84.76 301.71,84.76 301.71,84.44 304.45,84.44 304.45,84.13 307.19,84.13 307.19,83.81 309.93,83.81 309.93,83.49 312.67,83.49 312.67,83.17 315.41,83.17 315.41,82.85 318.15,82.85 318.15,82.53 320.89,82.53 320.89,82.20 323.63,82.20 323.63,81.87 326.37,81.87 326.37,81.55 329.11,81.55 329.11,81.22 331.85,81.22 331.85,80.89 334.59,80.89 334.59,80.56 337.33,80.56 337.33,80.22 340.07,80.22 340.07,79.89 342.81,79.89 342.81,79.56 345.55,79.56 345.55,79.22 348.29,79.22 348.29,78.89 351.03,78.89 351.03,78.55 353.77,78.55 353.77,78.21 356.51,78.21 356.51,77.88 359.25,77.88 359.25,77.54 361.99,77.54 361.99,77.20 364.73,77.20 364.73,76.86 367.47,76.86 367.47,76.53 370.21,76.53 370.21,76.19 372.95,76.19 372.95,75.85 375.68,75.85 375.68,75.52 378.42,75.52 378.42,75.18 381.16,75.18 381.16,74.85 383.90,74.85 383.90,74.52 386.64,74.52 386.64,74.19 389.38,74.19 389.38,73.86 392.12,73.86 392.12,73.53 394.86,73.53 394.86,73.21 397.60,73.21 397.60,72.88 400.34,72.88 400.34,72.56 403.08,72.56 403.08,72.25 405.82,72.25 405.82,71.93 408.56,71.93 408.56,71.62 411.30,71.62 411.30,71.32 414.04,71.32 414.04,71.02 416.78,71.02 416.78,70.72 419.52,70.72 419.52,70.43 422.26,70.43 422.26,70.14 425.00,70.14 425.00,69.85 427.74,69.85 427.74,69.58 430.48,69.58 430.48,69.30 433.22,69.30 433.22,69.04 435.96,69.04 435.96,68.78 438.70,68.78 438.70,68.52 441.44,68.52 441.44,68.28 444.18,68.28 444.18,68.04 446.92,68.04 446.92,67.81 449.66,67.81 449.66,67.58 452.40,67.58 452.40,67.37 455.14,67.37 455.14,67.16 457.88,67.16 457.88,66.96 460.62,66.96 460.62,66.77 463.36,66.77 463.36,66.59 466.10,66.59 466.10,66.41 468.84,66.41 468.84,66.25 471.58,66.25 471.58,66.10 474.32,66.10 474.32,65.95 477.05,65.95 477.05,65.82 479.79,65.82 479.79,65.70 482.53,65.70 482.53,65.59 485.27,65.59 485.27,65.48 488.01,65.48 488.01,65.39 490.75,65.39 490.75,65.31 493.49,65.31 493.49,65.24 496.23,65.24 496.23,65.18 498.97,65.18 498.97,65.14 501.71,65.14 501.71,65.10 504.45,65.10 504.45,65.08 507.19,65.08 507.19,65.07 509.93,65.07 509.93,65.07 512.67,65.07 512.67,65.08 515.41,65.08 515.41,65.10 518.15,65.10 518.15,65.14 520.89,65.14 520.89,65.18 523.63,65.18 523.63,65.24 526.37,65.24 526.37,65.31 529.11,65.31 529.11,65.39 531.85,65.39 531.85,65.48 534.59,65.48 534.59,65.59 537.33,65.59 537.33,65.71 540.07,65.71 540.07,65.83 542.81,65.83 542.81,65.97 545.55,65.97 545.55,66.13 548.29,66.13 548.29,66.29 551.03,66.29 551.03,66.46 553.77,66.46 553.77,66.64 556.51,66.64 556.51,66.84 559.25,66.84 559.25,67.05 561.99,67.05 561.99,67.26 564.73,67.26 564.73,67.49 567.47,67.49 567.47,67.73 570.21,67.73 570.21,67.98 572.95,67.98 572.95,68.23 575.68,68.23 575.68,68.50 578.42,68.50 578.42,68.78 581.16,68.78 581.16,69.07 583.90,69.07 583.90,69.36 586.64,69.36 586.64,69.67 589.38,69.67 589.38,69.98 592.12,69.98 592.12,70.31 594.86,70.31 594.86,70.64 597.60,70.64 597.60,70.98 600.34,70.98 600.34,71.33 603.08,71.33 603.08,71.68 605.82,71.68 605.82,72.05 608.56,72.05 608.56,72.42 611.30,72.42 611.30,72.80 614.04,72.80 614.04,73.19 616.78,73.19 616.78,73.58 619.52,73.58 619.52,73.98 622.26,73.98 622.26,74.39 625.00,74.39 625.00,74.80 627.74,74.80 627.74,75.22 630.48,75.22 630.48,75.64 633.22,75.64 633.22,76.07 635.96,76.07 635.96,76.51 638.70,76.51 638.70,76.95 641.44,76.95 641.44,77.40 644.18,77.40 644.18,77.85 646.92,77.85 646.92,78.31 649.66,78.31 649.66,78.77 652.40,78.77 652.40,79.24 655.14,79.24 655.14,79.71 657.88,79.71 657.88,80.18 660.62,80.18 660.62,80.66 663.36,80.66 663.36,81.14 666.10,81.14 666.10,81.63 668.84,81.63 668.84,82.11 671.58,82.11 671.58,82.60 674.32,82.60 674.32,83.10 677.05,83.10 677.05,83.60 679.79,83.60 679.79,84.09 682.53,84.09 682.53,84.60 685.27,84.60 685.27,85.10 688.01,85.10 688.01,85.60 690.75,85.60 690.75,86.11 693.49,86.11 693.49,86.62 696.23,86.62 696.23,87.13 698.97,87.13 698.97,87.64 701.71,87.64 701.71,88.15 704.45,88.15 704.45,88.67 707.19,88.67 707.19,89.18 709.93,89.18 709.93,89.69 712.67,89.69 712.67,90.21 715.41,90.21 715.41,90.72 718.15,90.72 718.15,91.24 720.89,91.24 720.89,91.75 723.63,91.75 723.63,92.27 726.37,92.27 726.37,92.78 729.11,92.78 729.11,93.30 731.85,93.30 731.85,93.81 734.59,93.81 734.59,94.32 737.33,94.32 737.33,94.83 740.07,94.83 740.07,95.34 742.81,95.34 742.81,95.85 745.55,95.85 745.55,96.36 748.29,96.36 748.29,96.86 751.03,96.86 751.03,97.36 753.77,97.36 753.77,97.87 756.51,97.87 756.51,98.36 759.25,98.36 759.25,98.86 761.99,98.86 761.99,99.35 764.73,99.35 764.73,99.85 767.47,99.85 767.47,100.33 770.21,100.33 770.21,100.82 772.95,100.82 772.95,101.30 775.68,101.30 775.68,101.78 778.42,101.78 778.42,102.25 781.16,102.25 781.16,102.72 783.90,102.72 783.90,103.19 786.64,103.19 786.64,103.65 789.38,103.65 789.38,104.11 792.12,104.11 792.12,104.57 794.86,104.57 794.86,105.02 797.60,105.02 797.60,105.46 800.34,105.46 800.34,105.90 803.08,105.90 803.08,106.34 805.82,106.34 805.82,106.77 808.56,106.77 808.56,107.19 811.30,107.19 811.30,107.61 814.04,107.61 814.04,108.03 816.78,108.03 816.78,108.43 819.52,108.43 819.52,108.83 822.26,108.83 822.26,109.23 825.00,109.23 825.00,109.62 827.74,109.62 827.74,110.00 830.48,110.00 830.48,110.38 833.22,110.38 833.22,110.75 835.96,110.75 835.96,111.11 838.70,111.11 838.70,111.47 841.44,111.47 841.44,111.81 844.18,111.81 844.18,112.15 846.92,112.15 846.92,112.49 849.66,112.49 849.66,112.81 852.40,112.81 852.40,113.13 855.14,113.13 855.14,113.44 857.88,113.44 857.88,113.74 860.62,113.74 860.62,134.87 863.36,134.87 863.36,135.15 866.10,135.15 866.10,135.43 868.84,135.43 868.84,135.69 871.58,135.69 871.58,135.95 874.32,135.95 874.32,136.20 877.05,136.20 877.05,136.44 879.79,136.44 879.79,136.67 882.53,136.67 882.53,136.89 885.27,136.89 885.27,137.11 888.01,137.11 888.01,137.31 890.75,137.31 890.75,137.50 893.49,137.50 893.49,137.69 896.23,137.69 896.23,137.86 898.97,137.86 898.97,138.02 901.71,138.02 901.71,138.18 904.45,138.18 904.45,138.32 907.19,138.32 907.19,138.46 909.93,138.46 909.93,138.58 912.67,138.58 912.67,138.70 915.41,138.70 915.41,138.80 918.15,138.80 918.15,138.89 920.89,138.89 920.89,138.98 923.63,138.98 923.63,139.05 926.37,139.05 926.37,139.11 929.11,139.11 929.11,139.17 931.85,139.17 931.85,139.21 934.59,139.21 934.59,139.24 937.33,139.24 937.33,139.27 940.07,139.27 940.07,139.28 942.81,139.28 942.81,139.28 945.55,139.28 945.55,139.27 948.29,139.27 948.29,139.25 951.03,139.25 951.03,139.23 953.77,139.23 953.77,139.19 956.51,139.19 956.51,139.14 959.25,139.14 959.25,139.08 961.99,139.08 961.99,139.02 964.73,139.02 964.73,138.94 967.47,138.94 967.47,138.86 970.21,138.86 970.21,138.76 972.95,138.76 972.95,138.66 975.68,138.66 975.68,138.54 978.42,138.54 978.42,138.42 981.16,138.42 981.16,138.29 983.90,138.29 983.90,138.15 986.64,138.15 986.64,138.00 989.38,138.00 989.38,137.85 992.12,137.85 992.12,137.68 994.86,137.68 994.86,137.51 997.60,137.51 997.60,137.33 1000.34,137.33 1000.34,137.15 1003.08,137.15 1003.08,136.95 1005.82,136.95 1005.82,136.75 1008.56,136.75 1008.56,136.54 1011.30,136.54 1011.30,136.33 1014.04,136.33 1014.04,136.11 1016.78,136.11 1016.78,135.88 1019.52,135.88 1019.52,135.65 1022.26,135.65 1022.26,135.41 1025.00,135.41 1025.00,382.71 1022.26,382.71 1022.26,382.81 1019.52,382.81 1019.52,382.91 1016.78,382.91 1016.78,383.02 1014.04,383.02 1014.04,383.14 1011.30,383.14 1011.30,383.27 1008.56,383.27 1008.56,383.41 1005.82,383.41 1005.82,383.56 1003.08,383.56 1003.08,383.71 1000.34,383.71 1000.34,383.87 997.60,383.87 997.60,384.04 994.86,384.04 994.86,384.22 992.12,384.22 992.12,384.40 989.38,384.40 989.38,384.59 986.64,384.59 986.64,384.79 983.90,384.79 983.90,384.99 981.16,384.99 981.16,385.20 978.42,385.20 978.42,385.42 975.68,385.42 975.68,385.64 972.95,385.64 972.95,385.87 970.21,385.87 970.21,386.10 967.47,386.10 967.47,386.34 964.73,386.34 964.73,386.58 961.99,386.58 961.99,386.83 959.25,386.83 959.25,387.08 956.51,387.08 956.51,387.34 953.77,387.34 953.77,387.60 951.03,387.60 951.03,387.86 948.29,387.86 948.29,388.13 945.55,388.13 945.55,388.40 942.81,388.40 942.81,388.68 940.07,388.68 940.07,388.96 937.33,388.96 937.33,389.24 934.59,389.24 934.59,389.52 931.85,389.52 931.85,389.81 929.11,389.81 929.11,390.09 926.37,390.09 926.37,390.38 923.63,390.38 923.63,390.67 920.89,390.67 920.89,390.96 918.15,390.96 918.15,391.26 915.41,391.26 915.41,391.55 912.67,391.55 912.67,391.85 909.93,391.85 909.93,392.14 907.19,392.14 907.19,392.44 904.45,392.44 904.45,392.74 901.71,392.74 901.71,393.04 898.97,393.04 898.97,393.33 896.23,393.33 896.23,393.63 893.49,393.63 893.49,393.93 890.75,393.93 890.75,394.23 888.01,394.23 888.01,394.52 885.27,394.52 885.27,394.82 882.53,394.82 882.53,395.11 879.79,395.11 879.79,395.41 877.05,395.41 877.05,395.70 874.32,395.70 874.32,395.99 871.58,395.99 871.58,396.29 868.84,396.29 868.84,396.58 866.10,396.58 866.10,396.87 863.36,396.87 863.36,397.15 860.62,397.15 860.62,376.61 857.88,376.61 857.88,376.90 855.14,376.90 855.14,377.18 852.40,377.18 852.40,377.46 849.66,377.46 849.66,377.75 846.92,377.75 846.92,378.03 844.18,378.03 844.18,378.31 841.44,378.31 841.44,378.59 838.70,378.59 838.70,378.86 835.96,378.86 835.96,379.14 833.22,379.14 833.22,379.41 830.48,379.41 830.48,379.69 827.74,379.69 827.74,379.96 825.00,379.96 825.00,380.23 822.26,380.23 822.26,380.50 819.52,380.50 819.52,380.77 816.78,380.77 816.78,381.04 814.04,381.04 814.04,381.31 811.30,381.31 811.30,381.57 808.56,381.57 808.56,381.84 805.82,381.84 805.82,382.10 803.08,382.10 803.08,382.36 800.34,382.36 800.34,382.62 797.60,382.62 797.60,382.89 794.86,382.89 794.86,383.15 792.12,383.15 792.12,383.41 789.38,383.41 789.38,383.67 786.64,383.67 786.64,383.93 783.90,383.93 783.90,384.19 781.16,384.19 781.16,384.44 778.42,384.44 778.42,384.70 775.68,384.70 775.68,384.96 772.95,384.96 772.95,385.22 770.21,385.22 770.21,385.48 767.47,385.48 767.47,385.74 764.73,385.74 764.73,385.99 761.99,385.99 761.99,386.25 759.25,386.25 759.25,386.51 756.51,386.51 756.51,386.77 753.77,386.77 753.77,387.03 751.03,387.03 751.03,387.29 748.29,387.29 748.29,387.55 745.55,387.55 745.55,387.82 742.81,387.82 742.81,388.08 740.07,388.08 740.07,388.34 737.33,388.34 737.33,388.61 734.59,388.61 734.59,388.87 731.85,388.87 731.85,389.14 729.11,389.14 729.11,389.40 726.37,389.40 726.37,389.67 723.63,389.67 723.63,389.94 720.89,389.94 720.89,390.21 718.15,390.21 718.15,390.48 715.41,390.48 715.41,390.76 712.67,390.76 712.67,391.03 709.93,391.03 709.93,391.31 707.19,391.31 707.19,391.59 704.45,391.59 704.45,391.86 701.71,391.86 701.71,392.15 698.97,392.15 698.97,392.43 696.23,392.43 696.23,392.71 693.49,392.71 693.49,393.00 690.75,393.00 690.75,393.28 688.01,393.28 688.01,393.57 685.27,393.57 685.27,393.86 682.53,393.86 682.53,394.15 679.79,394.15 679.79,394.45 677.05,394.45 677.05,394.74 674.32,394.74 674.32,395.04 671.58,395.04 671.58,395.34 668.84,395.34 668.84,395.64 666.10,395.64 666.10,395.94 663.36,395.94 663.36,396.25 660.62,396.25 660.62,396.55 657.88,396.55 657.88,396.86 655.14,396.86 655.14,397.17 652.40,397.17 652.40,397.48 649.66,397.48 649.66,397.79 646.92,397.79 646.92,398.10 644.18,398.10 644.18,398.41 641.44,398.41 641.44,398.73 638.70,398.73 638.70,399.04 635.96,399.04 635.96,399.36 633.22,399.36 633.22,399.67 630.48,399.67 630.48,399.99 627.74,399.99 627.74,400.31 625.00,400.31 625.00,400.63 622.26,400.63 622.26,400.95 619.52,400.95 619.52,401.26 616.78,401.26 616.78,401.58 614.04,401.58 614.04,401.90 611.30,401.90 611.30,402.22 608.56,402.22 608.56,402.54 605.82,402.54 605.82,402.85 603.08,402.85 603.08,403.17 600.34,403.17 600.34,403.49 597.60,403.49 597.60,403.80 594.86,403.80 594.86,404.11 592.12,404.11 592.12,404.42 589.38,404.42 589.38,404.73 586.64,404.73 586.64,405.04 583.90,405.04 583.90,405.34 581.16,405.34 581.16,405.64 578.42,405.64 578.42,405.94 575.68,405.94 575.68,406.24 572.95,406.24 572.95,406.53 570.21,406.53 570.21,406.82 567.47,406.82 567.47,407.10 564.73,407.10 564.73,407.38 561.99,407.38 561.99,407.65 559.25,407.65 559.25,407.92 556.51,407.92 556.51,408.19 553.77,408.19 553.77,408.45 551.03,408.45 551.03,408.70 548.29,408.70 548.29,408.95 545.55,408.95 545.55,409.19 542.81,409.19 542.81,409.42 540.07,409.42 540.07,409.65 537.33,409.65 537.33,409.87 534.59,409.87 534.59,410.09 531.85,410.09 531.85,410.29 529.11,410.29 529.11,410.49 526.37,410.49 526.37,410.68 523.63,410.68 523.63,410.86 520.89,410.86 520.89,411.03 518.15,411.03 518.15,411.20 515.41,411.20 515.41,411.35 512.67,411.35 512.67,411.50 509.93,411.50 509.93,411.63 507.19,411.63 507.19,411.76 504.45,411.76 504.45,411.87 501.71,411.87 501.71,411.98 498.97,411.98 498.97,412.08 496.23,412.08 496.23,412.16 493.49,412.16 493.49,412.24 490.75,412.24 490.75,412.30 488.01,412.30 488.01,412.35 485.27,412.35 485.27,412.39 482.53,412.39 482.53,412.42 479.79,412.42 479.79,412.44 477.05,412.44 477.05,412.45 474.32,412.45 474.32,412.45 471.58,412.45 471.58,412.43 468.84,412.43 468.84,412.40 466.10,412.40 466.10,412.37 463.36,412.37 463.36,412.32 460.62,412.32 460.62,412.26 457.88,412.26 457.88,412.18 455.14,412.18 455.14,412.10 452.40,412.10 452.40,412.01 449.66,412.01 449.66,411.90 446.92,411.90 446.92,411.78 444.18,411.78 444.18,411.65 441.44,411.65 441.44,411.51 438.70,411.51 438.70,411.36 435.96,411.36 435.96,411.20 433.22,411.20 433.22,411.02 430.48,411.02 430.48,410.84 427.74,410.84 427.74,410.64 425.00,410.64 425.00,410.44 422.26,410.44 422.26,410.22 419.52,410.22 419.52,409.99 416.78,409.99 416.78,409.76 414.04,409.76 414.04,409.51 411.30,409.51 411.30,409.26 408.56,409.26 408.56,408.99 405.82,408.99 405.82,408.71 403.08,408.71 403.08,408.43 400.34,408.43 400.34,408.14 397.60,408.14 397.60,407.83 394.86,407.83 394.86,407.52 392.12,407.52 392.12,407.20 389.38,407.20 389.38,406.87 386.64,406.87 386.64,406.54 383.90,406.54 383.90,406.19 381.16,406.19 381.16,405.84 378.42,405.84 378.42,405.48 375.68,405.48 375.68,405.11 372.95,405.11 372.95,404.74 370.21,404.74 370.21,404.36 367.47,404.36 367.47,403.97 364.73,403.97 364.73,403.57 361.99,403.57 361.99,403.17 359.25,403.17 359.25,402.77 356.51,402.77 356.51,402.35 353.77,402.35 353.77,401.93 351.03,401.93 351.03,401.51 348.29,401.51 348.29,401.08 345.55,401.08 345.55,400.64 342.81,400.64 342.81,400.20 340.07,400.20 340.07,399.76 337.33,399.76 337.33,399.31 334.59,399.31 334.59,398.85 331.85,398.85 331.85,398.40 329.11,398.40 329.11,397.93 326.37,397.93 326.37,397.47 323.63,397.47 323.63,397.00 320.89,397.00 320.89,396.53 318.15,396.53 318.15,396.05 315.41,396.05 315.41,395.57 312.67,395.57 312.67,395.09 309.93,395.09 309.93,394.60 307.19,394.60 307.19,394.12 304.45,394.12 304.45,393.63 301.71,393.63 301.71,393.14 298.97,393.14 298.97,392.65 296.23,392.65 296.23,392.15 293.49,392.15 293.49,391.65 290.75,391.65 290.75,391.16 288.01,391.16 288.01,390.66 285.27,390.66 285.27,390.16 282.53,390.16 282.53,389.66 279.79,389.66 279.79,389.16 277.05,389.16 277.05,388.65 274.32,388.65 274.32,388.15 271.58,388.15 271.58,387.65 268.84,387.65 268.84,387.15 266.10,387.15 266.10,386.65 263.36,386.65 263.36,386.14 260.62,386.14 260.62,385.64 257.88,385.64 257.88,385.14 255.14,385.14 255.14,384.64 252.40,384.64 252.40,384.14 249.66,384.14 249.66,383.65 246.92,383.65 246.92,383.15 244.18,383.15 244.18,382.66 241.44,382.66 241.44,382.17 238.70,382.17 238.70,381.68 235.96,381.68 235.96,381.19 233.22,381.19 233.22,380.70 230.48,380.70 230.48,380.22 227.74,380.22 227.74,379.74 225.00,379.74 225.00,379.26 222.26,379.26 222.26,378.78 219.52,378.78 219.52,378.31 216.78,378.31 216.78,377.84 214.04,377.84 214.04,377.38 211.30,377.38 211.30,376.91 208.56,376.91 208.56,397.29 205.82,397.29 205.82,396.83 203.08,396.83 203.08,396.38 200.34,396.38 200.34,395.94 197.60,395.94 197.60,395.49 194.86,395.49 194.86,395.06 192.12,395.06 192.12,394.62 189.38,394.62 189.38,394.20 186.64,394.20 186.64,393.77 183.90,393.77 183.90,393.36 181.16,393.36 181.16,392.94 178.42,392.94 178.42,392.54 175.68,392.54 175.68,392.14 172.95,392.14 172.95,391.74 170.21,391.74 170.21,391.35 167.47,391.35 167.47,390.97 164.73,390.97 164.73,390.59 161.99,390.59 161.99,390.22 159.25,390.22 159.25,389.86 156.51,389.86 156.51,389.50 153.77,389.50 153.77,389.15 151.03,389.15 151.03,388.81 148.29,388.81 148.29,388.48 145.55,388.48 145.55,388.15 142.81,388.15 142.81,387.83 140.07,387.83 140.07,387.52 137.33,387.52 137.33,387.21 134.59,387.21 134.59,386.92 131.85,386.92 131.85,386.63 129.11,386.63 129.11,386.35 126.37,386.35 126.37,386.08 123.63,386.08 123.63,385.82 120.89,385.82 120.89,385.56 118.15,385.56 118.15,385.32 115.41,385.32 115.41,385.08 112.67,385.08 112.67,384.85 109.93,384.85 109.93,384.64 107.19,384.64 107.19,384.43 104.45,384.43 104.45,384.23 101.71,384.23 101.71,384.04 98.97,384.04 98.97,383.85 96.23,383.85 96.23,383.68 93.49,383.68 93.49,383.52 90.75,383.52 90.75,383.37 88.01,383.37 88.01,383.23 85.27,383.23 85.27,383.09 82.53,383.09 82.53,382.97 79.79,382.97 79.79,382.86 77.05,382.86 77.05,382.76 74.32,382.76 74.32,382.66 71.58,382.66 71.58,382.58 68.84,382.58 68.84,382.51 66.10,382.51 66.10,382.45 63.36,382.45 63.36,382.39 60.62,382.39 60.62,382.35 57.88,382.35 57.88,382.32 55.14,382.32 55.14,382.30 52.40,382.30 52.40,382.28 49.66,382.28 49.66,382.28 46.92,382.28 46.92,382.29 44.18,382.29 44.18,382.30 41.44,382.30 41.44,382.33 38.70,382.33 38.70,382.37 35.96,382.37 35.96,382.41 33.22,382.41 33.22,382.47 30.48,382.47 30.48,382.53 27.74,382.53 27.74,382.61" fill="#004080" stroke="none" stroke-width="0"/>
<polygon points="25.00,371.73 25.00,145.98 27.74,145.98 27.74,145.72 30.48,145.72 30.48,145.45 33.22,145.45 33.22,145.18 35.96,145.18 35.96,144.91 38.70,144.91 38.70,144.62 41.44,144.62 41.44,144.34 44.18,144.34 44.18,144.05 46.92,144.05 46.92,143.75 49.66,143.75 49.66,143.46 52.40,143.46 52.40,143.15 55.14,143.15 55.14,142.85 57.88,142.85 57.88,142.54 60.62,142.54 60.62,142.23 63.36,142.23 63.36,141.92 66.10,141.92 66.10,141.60 68.84,141.60 68.84,141.28 71.58,141.28 71.58,140.96 74.32,140.96 74.32,140.64 77.05,140.64 77.05,140.31 79.79,140.31 79.79,139.99 82.53,139.99 82.53,139.66 85.27,139.66 85.27,139.33 88.01,139.33 88.01,139.00 90.75,139.00 90.75,138.68 93.49,138.68 93.49,138.35 96.23,138.35 96.23,138.02 98.97,138.02 98.97,137.69 101.71,137.69 101.71,137.36 104.45,137.36 104.45,137.03 107.19,137.03 107.19,136.70 109.93,136.70 109.93,136.37 112.67,136.37 112.67,136.04 115.41,136.04 115.41,135.72 118.15,135.72 118.15,135.39 120.89,135.39 120.89,135.06 123.63,135.06 123.63,134.74 126.37,134.74 126.37,134.42 129.11,134.42 129.11,134.10 131.85,134.10 131.85,133.77 134.59,133.77 134.59,133.46 137.33,133.46 137.33,133.14 140.07,133.14 140.07,132.82 142.81,132.82 142.81,132.51 145.55,132.51 145.55,132.19 148.29,132.19 148.29,131.88 151.03,131.88 151.03,131.57 153.77,131.57 153.77,131.26 156.51,131.26 156.51,130.95 159.25,130.95 159.25,130.65 161.99,130.65 161.99,130.34 164.73,130.34 164.73,130.04 167.47,130.04 167.47,129.74 170.21,129.74 170.21,129.44 172.95,129.44 172.95,129.14 175.68,129.14 175.68,128.85 178.42,128.85 178.42,128.55 181.16,128.55 181.16,128.26 183.90,128.26 183.90,127.96 186.64,127.96 186.64,127.67 189.38,127.67 189.38,127.38 192.12,127.38 192.12,127.09 194.86,127.09 194.86,126.81 197.60,126.81 197.60,126.52 200.34,126.52 200.34,126.24 203.08,126.24 203.08,125.95 205.82,125.95 205.82,125.67 208.56,125.67 208.56,104.55 211.30,104.55 211.30,104.27 214.04,104.27 214.04,103.99 216.78,103.99 216.78,103.71 219.52,103.71 219.52,103.43 222.26,103.43 222.26,103.15 225.00,103.15 225.00,102.88 227.74,102.88 227.74,102.60 230.48,102.60 230.48,102.32 233.22,102.32 233.22,102.05 235.96,102.05 235.96,101.77 238.70,101.77 238.70,101.49 241.44,101.49 241.44,101.22 244.18,101.22 244.18,100.94 246.92,100.94 246.92,100.66 249.66,100.66 249.66,100.39 252.40,100.39 252.40,100.11 255.14,100.11 255.14,99.83 257.88,99.83 257.88,99.56 260.62,99.56 260.62,99.28 263.36,99.28 263.36,99.00 266.10,99.00 266.10,98.72 268.84,98.72 268.84,98.45 271.58,98.45 271.58,98.17 274.32,98.17 274.32,97.89 277.05,97.89 277.05,97.61 279.79,97.61 279.79,97.33 282.53,97.33 282.53,97.04 285.27,97.04 285.27,96.76 288.01,96.76 288.01,96.48 290.75,96.48 290.75,96.19 293.49,96.19 293.49,95.91 296.23,95.91 296.23,95.63 298.97,95.63 298.97,95.34 301.71,95.34 301.71,95.05 304.45,95.05 304.45,94.76 307.19,94.76 307.19,94.48 309.93,94.48 309.93,94.19 312.67,94.19 312.67,93.89 315.41,93.89 315.41,93.60 318.15,93.60 318.15,93.31 320.89,93.31 320.89,93.02 323.63,93.02 323.63,92.72 326.37,92.72 326.37,92.43 329.11,92.43 329.11,92.13 331.85,92.13 331.85,91.84 334.59,91.84 334.59,91.54 337.33,91.54 337.33,91.24 340.07,91.24 340.07,90.94 342.81,90.94 342.81,90.65 345.55,90.65 345.55,90.35 348.29,90.35 348.29,90.05 351.03,90.05 351.03,89.75 353.77,89.75 353.77,89.45 356.51,89.45 356.51,89.15 359.25,89.15 359.25,88.85 361.99,88.85 361.99,88.55 364.73,88.55 364.73,88.25 367.47,88.25 367.47,87.95 370.21,87.95 370.21,87.65 372.95,87.65 372.95,87.35 375.68,87.35 375.68,87.06 378.42,87.06 378.42,86.76 381.16,86.76 381.16,86.47 383.90,86.47 383.90,86.17 386.64,86.17 386.64,85.88 389.38,85.88 389.38,85.59 392.12,85.59 392.12,85.30 394.86,85.30 394.86,85.02 397.60,85.02 397.60,84.73 400.34,84.73 400.34,84.45 403.08,84.45 403.08,84.17 405.82,84.17 405.82,83.89 408.56,83.89 408.56,83.62 411.30,83.62 411.30,83.35 414.04,83.35 414.04,83.08 416.78,83.08 416.78,82.82 419.52,82.82 419.52,82.56 422.26,82.56 422.26,82.30 425.00,82.30 425.00,82.05 427.74,82.05 427.74,81.80 430.48,81.80 430.48,81.56 433.22,81.56 433.22,81.32 435.96,81.32 435.96,81.09 438.70,81.09 438.70,80.87 441.44,80.87 441.44,80.65 444.18,80.65 444.18,80.43 446.92,80.43 446.92,80.23 449.66,80.23 449.66,80.02 452.40,80.02 452.40,79.83 455.14,79.83 455.14,79.64 457.88,79.64 457.88,79.46 460.62,79.46 460.62,79.29 463.36,79.29 463.36,79.12 466.10,79.12 466.10,78.96 468.84,78.96 468.84,78.81 471.58,78.81 471.58,78.67 474.32,78.67 474.32,78.54 477.05,78.54 477.05,78.41 479.79,78.41 479.79,78.30 482.53,78.30 482.53,78.19 485.27,78.19 485.27,78.09 488.01,78.09 488.01,78.00 490.75,78.00 490.75,77.92 493.49,77.92 493.49,77.85 496.23,77.85 496.23,77.79 498.97,77.79 498.97,77.74 501.71,77.74 501.71,77.70 504.45,77.70 504.45,77.67 507.19,77.67 507.19,77.65 509.93,77.65 509.93,77.63 512.67,77.63 512.67,77.63 515.41,77.63 515.41,77.64 518.15,77.64 518.15,77.66 520.89,77.66 520.89,77.69 523.63,77.69 523.63,77.73 526.37,77.73 526.37,77.78 529.11,77.78 529.11,77.84 531.85,77.84 531.85,77.92 534.59,77.92 534.59,78.00 537.33,78.00 537.33,78.09 540.07,78.09 540.07,78.19 542.81,78.19 542.81,78.31 545.55,78.31 545.55,78.43 548.29,78.43 548.29,78.56 551.03,78.56 551.03,78.71 553.77,78.71 553.77,78.86 556.51,78.86 556.51,79.02 559.25,79.02 559.25,79.20 561.99,79.20 561.99,79.38 564.73,79.38 564.73,79.58 567.47,79.58 567.47,79.78 570.21,79.78 570.21,79.99 572.95,79.99 572.95,80.22 575.68,80.22 575.68,80.45 578.42,80.45 578.42,80.69 581.16,80.69 581.16,80.94 583.90,80.94 583.90,81.20 586.64,81.20 586.64,81.47 589.38,81.47 589.38,81.74 592.12,81.74 592.12,82.03 594.86,82.03 594.86,82.32 597.60,82.32 597.60,82.62 600.34,82.62 600.34,82.93 603.08,82.93 603.08,83.25 605.82,83.25 605.82,83.58 608.56,83.58 608.56,83.91 611.30,83.91 611.30,84.25 614.04,84.25 614.04,84.60 616.78,84.60 616.78,84.96 619.52,84.96 619.52,85.32 622.26,85.32 622.26,85.69 625.00,85.69 625.00,86.06 627.74,86.06 627.74,86.45 630.48,86.45 630.48,86.83 633.22,86.83 633.22,87.23 635.96,87.23 635.96,87.63 638.70,87.63 638.70,88.04 641.44,88.04 641.44,88.45 644.18,88.45 644.18,88.86 646.92,88.86 646.92,89.29 649.66,89.29 649.66,89.71 652.40,89.71 652.40,90.15 655.14,90.15 655.14,90.58 657.88,90.58 657.88,91.03 660.62,91.03 660.62,91.47 663.36,91.47 663.36,91.92 666.10,91.92 666.10,92.38 668.84,92.38 668.84,92.84 671.58,92.84 671.58,93.30 674.32,93.30 674.32,93.76 677.05,93.76 677.05,94.23 679.79,94.23 679.79,94.70 682.53,94.70 682.53,95.18 685.27,95.18 685.27,95.65 688.01,95.65 688.01,96.13 690.75,96.13 690.75,96.62 693.49,96.62 693.49,97.10 696.23,97.10 696.23,97.59 698.97,97.59 698.97,98.08 701.71,98.08 701.71,98.57 704.45,98.57 704.45,99.06 707.19,99.06 707.19,99.55 709.93,99.55 709.93,100.05 712.67,100.05 712.67,100.54 715.41,100.54 715.41,101.04 718.15,101.04 718.15,101.53 720.89,101.53 720.89,102.03 723.63,102.03 723.63,102.53 726.37,102.53 726.37,103.03 729.11,103.03 729.11,103.53 731.85,103.53 731.85,104.03 734.59,104.03 734.59,104.53 737.33,104.53 737.33,105.03 740.07,105.03 740.07,105.52 742.81,105.52 742.81,106.02 745.55,106.02 745.55,106.52 748.29,106.52 748.29,107.01 751.03,107.01 751.03,107.51 753.77,107.51 753.77,108.00 756.51,108.00 756.51,108.49 759.25,108.49 759.25,108.98 761.99,108.98 761.99,109.47 764.73,109.47 764.73,109.96 767.47,109.96 767.47,110.44 770.21,110.44 770.21,110.92 772.95,110.92 772.95,111.40 775.68,111.40 775.68,111.87 778.42,111.87 778.42,112.35 781.16,112.35 781.16,112.82 783.90,112.82 783.90,113.28 786.64,113.28 786.64,113.75 789.38,113.75 789.38,114.21 792.12,114.21 792.12,114.66 794.86,114.66 794.86,115.12 797.60,115.12 797.60,115.57 800.34,115.57 800.34,116.01 803.08,116.01 803.08,116.45 805.82,116.45 805.82,116.88 808.56,116.88 808.56,117.32 811.30,117.32 811.30,117.74 814.04,117.74 814.04,118.16 816.78,118.16 816.78,118.58 819.52,118.58 819.52,118.99 822.26,118.99 822.26,119.39 825.00,119.39 825.00,119.79 827.74,119.79 827.74,120.18 830.48,120.18 830.48,120.57 833.22,120.57 833.22,120.95 835.96,120.95 835.96,121.32 838.70,121.32 838.70,121.69 841.44,121.69 841.44,122.05 844.18,122.05 844.18,122.40 846.92,122.40 846.92,122.75 849.66,122.75 849.66,123.09 852.40,123.09 852.40,123.42 855.14,123.42 855.14,123.74 857.88,123.74 857.88,124.06 860.62,124.06 860.62,145.20 863.36,145.20 863.36,145.50 866.10,145.50 866.10,145.79 868.84,145.79 868.84,146.07 871.58,146.07 871.58,146.34 874.32,146.34 874.32,146.61 877.05,146.61 877.05,146.87 879.79,146.87 879.79,147.11 882.53,147.11 882.53,147.35 885.27,147.35 885.27,147.58 888.01,147.58 888.01,147.80 890.75,147.80 890.75,148.01 893.49,148.01 893.49,148.21 896.23,148.21 896.23,148.40 898.97,148.40 898.97,148.58 901.71,148.58 901.71,148.75 904.45,148.75 904.45,148.92 907.19,148.92 907.19,149.07 909.93,149.07 909.93,149.21 912.67,149.21 912.67,149.34 915.41,149.34 915.41,149.46 918.15,149.46 918.15,149.57 920.89,149.57 920.89,149.67 923.63,149.67 923.63,149.76 926.37,149.76 926.37,149.83 929.11,149.83 929.11,149.90 931.85,149.90 931.85,149.96 934.59,149.96 934.59,150.01 937.33,150.01 937.33,150.04 940.07,150.04 940.07,150.07 942.81,150.07 942.81,150.08 945.55,150.08 945.55,150.09 948.29,150.09 948.29,150.08 951.03,150.08 951.03,150.06 953.77,150.06 953.77,150.04 956.51,150.04 956.51,150.00 959.25,150.00 959.25,149.95 961.99,149.95 961.99,149.89 964.73,149.89 964.73,149.83 967.47,149.83 967.47,149.75 970.21,149.75 970.21,149.66 972.95,149.66 972.95,149.56 975.68,149.56 975.68,149.45 978.42,149.45 978.42,149.34 981.16,149.34 981.16,149.21 983.90,149.21 983.90,149.07 986.64,149.07 986.64,148.93 989.38,148.93 989.38,148.77 992.12,148.77 992.12,148.61 994.86,148.61 994.86,148.44 997.60,148.44 997.60,148.26 1000.34,148.26 1000.34,148.07 1003.08,148.07 1003.08,147.88 1005.82,147.88 1005.82,147.67 1008.56,147.67 1008.56,147.46 1011.30,147.46 1011.30,147.24 1014.04,147.24 1014.04,147.01 1016.78,147.01 1016.78,146.78 1019.52,146.78 1019.52,146.54 1022.26,146.54 1022.26,146.29 1025.00,146.29 1025.00,371.82 1022.26,371.82 1022.26,371.91 1019.52,371.91 1019.52,372.01 1016.78,372.01 1016.78,372.12 1014.04,372.12 1014.04,372.23 1011.30,372.23 1011.30,372.36 1008.56,372.36 1008.56,372.49 1005.82,372.49 1005.82,372.63 1003.08,372.63 1003.08,372.78 1000.34,372.78 1000.34,372.94 997.60,372.94 997.60,373.11 994.86,373.11 994.86,373.29 992.12,373.29 992.12,373.47 989.38,373.47 989.38,373.66 986.64,373.66 986.64,373.86 983.90,373.86 983.90,374.07 981.16,374.07 981.16,374.28 978.42,374.28 978.42,374.51 975.68,374.51 975.68,374.73 972.95,374.73 972.95,374.97 970.21,374.97 970.21,375.21 967.47,375.21 967.47,375.45 964.73,375.45 964.73,375.70 961.99,375.70 961.99,375.96 959.25,375.96 959.25,376.22 956.51,376.22 956.51,376.49 953.77,376.49 953.77,376.76 951.03,376.76 951.03,377.04 948.29,377.04 948.29,377.32 945.55,377.32 945.55,377.60 942.81,377.60 942.81,377.89 940.07,377.89 940.07,378.18 937.33,378.18 937.33,378.47 934.59,378.47 934.59,378.77 931.85,378.77 931.85,379.07 929.11,379.07 929.11,379.37 926.37,379.37 926.37,379.68 923.63,379.68 923.63,379.98 920.89,379.98 920.89,380.29 918.15,380.29 918.15,380.60 915.41,380.60 915.41,380.91 912.67,380.91 912.67,381.22 909.93,381.22 909.93,381.53 907.19,381.53 907.19,381.85 904.45,381.85 904.45,382.16 901.71,382.16 901.71,382.48 898.97,382.48 898.97,382.79 896.23,382.79 896.23,383.10 893.49,383.10 893.49,383.42 890.75,383.42 890.75,383.73 888.01,383.73 888.01,384.04 885.27,384.04 885.27,384.36 882.53,384.36 882.53,384.67 879.79,384.67 879.79,384.98 877.05,384.98 877.05,385.29 874.32,385.29 874.32,385.60 871.58,385.60 871.58,385.90 868.84,385.90 868.84,386.21 866.10,386.21 866.10,386.52 863.36,386.52 863.36,386.82 860.62,386.82 860.62,366.29 857.88,366.29 857.88,366.59 855.14,366.59 855.14,366.89 852.40,366.89 852.40,367.18 849.66,367.18 849.66,367.48 846.92,367.48 846.92,367.77 844.18,367.77 844.18,368.07 841.44,368.07 841.44,368.36 838.70,368.36 838.70,368.64 835.96,368.64 835.96,368.93 833.22,368.93 833.22,369.22 830.48,369.22 830.48,369.50 827.74,369.50 827.74,369.78 825.00,369.78 825.00,370.06 822.26,370.06 822.26,370.34 819.52,370.34 819.52,370.62 816.78,370.62 816.78,370.89 814.04,370.89 814.04,371.17 811.30,371.17 811.30,371.44 808.56,371.44 808.56,371.71 805.82,371.71 805.82,371.98 803.08,371.98 803.08,372.24 800.34,372.24 800.34,372.51 797.60,372.51 797.60,372.77 794.86,372.77 794.86,373.04 792.12,373.04 792.12,373.30 789.38,373.30 789.38,373.56 786.64,373.56 786.64,373.82 783.90,373.82 783.90,374.08 781.16,374.08 781.16,374.33 778.42,374.33 778.42,374.59 775.68,374.59 775.68,374.84 772.95,374.84 772.95,375.10 770.21,375.10 770.21,375.35 767.47,375.35 767.47,375.61 764.73,375.61 764.73,375.86 761.99,375.86 761.99,376.11 759.25,376.11 759.25,376.37 756.51,376.37 756.51,376.62 753.77,376.62 753.77,376.87 751.03,376.87 751.03,377.12 748.29,377.12 748.29,377.37 745.55,377.37 745.55,377.62 742.81,377.62 742.81,377.87 740.07,377.87 740.07,378.13 737.33,378.13 737.33,378.38 734.59,378.38 734.59,378.63 731.85,378.63 731.85,378.88 729.11,378.88 729.11,379.13 726.37,379.13 726.37,379.39 723.63,379.39 723.63,379.64 720.89,379.64 720.89,379.89 718.15,379.89 718.15,380.14 715.41,380.14 715.41,380.40 712.67,380.40 712.67,380.65 709.93,380.65 709.93,380.91 707.19,380.91 707.19,381.17 704.45,381.17 704.45,381.42 701.71,381.42 701.71,381.68 698.97,381.68 698.97,381.94 696.23,381.94 696.23,382.20 693.49,382.20 693.49,382.46 690.75,382.46 690.75,382.72 688.01,382.72 688.01,382.99 685.27,382.99 685.27,383.25 682.53,383.25 682.53,383.51 679.79,383.51 679.79,383.78 677.05,383.78 677.05,384.05 674.32,384.05 674.32,384.32 671.58,384.32 671.58,384.58 668.84,384.58 668.84,384.85 666.10,384.85 666.10,385.13 663.36,385.13 663.36,385.40 660.62,385.40 660.62,385.67 657.88,385.67 657.88,385.94 655.14,385.94 655.14,386.22 652.40,386.22 652.40,386.50 649.66,386.50 649.66,386.77 646.92,386.77 646.92,387.05 644.18,387.05 644.18,387.33 641.44,387.33 641.44,387.61 638.70,387.61 638.70,387.88 635.96,387.88 635.96,388.16 633.22,388.16 633.22,388.44 630.48,388.44 630.48,388.72 627.74,388.72 627.74,389.00 625.00,389.00 625.00,389.29 622.26,389.29 622.26,389.57 619.52,389.57 619.52,389.85 616.78,389.85 616.78,390.13 614.04,390.13 614.04,390.41 611.30,390.41 611.30,390.69 608.56,390.69 608.56,390.97 605.82,390.97 605.82,391.25 603.08,391.25 603.08,391.52 600.34,391.52 600.34,391.80 597.60,391.80 597.60,392.08 594.86,392.08 594.86,392.35 592.12,392.35 592.12,392.62 589.38,392.62 589.38,392.90 586.64,392.90 586.64,393.17 583.90,393.17 583.90,393.43 581.16,393.43 581.16,393.70 578.42,393.70 578.42,393.96 575.68,393.96 575.68,394.22 572.95,394.22 572.95,394.48 570.21,394.48 570.21,394.73 567.47,394.73 567.47,394.98 564.73,394.98 564.73,395.23 561.99,395.23 561.99,395.47 559.25,395.47 559.25,395.71 556.51,395.71 556.51,395.94 553.77,395.94 553.77,396.17 551.03,396.17 551.03,396.40 548.29,396.40 548.29,396.62 545.55,396.62 545.55,396.83 542.81,396.83 542.81,397.04 540.07,397.04 540.07,397.24 537.33,397.24 537.33,397.44 534.59,397.44 534.59,397.63 531.85,397.63 531.85,397.82 529.11,397.82 529.11,398.00 526.37,398.00 526.37,398.17 523.63,398.17 523.63,398.33 520.89,398.33 520.89,398.49 518.15,398.49 518.15,398.64 515.41,398.64 515.41,398.78 512.67,398.78 512.67,398.92 509.93,398.92 509.93,399.05 507.19,399.05 507.19,399.16 504.45,399.16 504.45,399.27 501.71,399.27 501.71,399.38 498.97,399.38 498.97,399.47 496.23,399.47 496.23,399.55 493.49,399.55 493.49,399.63 490.75,399.63 490.75,399.69 488.01,399.69 488.01,399.75 485.27,399.75 485.27,399.79 482.53,399.79 482.53,399.83 479.79,399.83 479.79,399.86 477.05,399.86 477.05,399.88 474.32,399.88 474.32,399.88 471.58,399.88 471.58,399.88 468.84,399.88 468.84,399.87 466.10,399.87 466.10,399.85 463.36,399.85 463.36,399.82 460.62,399.82 460.62,399.77 457.88,399.77 457.88,399.72 455.14,399.72 455.14,399.66 452.40,399.66 452.40,399.59 449.66,399.59 449.66,399.50 446.92,399.50 446.92,399.41 444.18,399.41 444.18,399.31 441.44,399.31 441.44,399.19 438.70,399.19 438.70,399.07 435.96,399.07 435.96,398.94 433.22,398.94 433.22,398.79 430.48,398.79 430.48,398.64 427.74,398.64 427.74,398.48 425.00,398.48 425.00,398.31 422.26,398.31 422.26,398.12 419.52,398.12 419.52,397.93 416.78,397.93 416.78,397.73 414.04,397.73 414.04,397.52 411.30,397.52 411.30,397.30 408.56,397.30 408.56,397.07 405.82,397.07 405.82,396.83 403.08,396.83 403.08,396.58 400.34,396.58 400.34,396.33 397.60,396.33 397.60,396.06 394.86,396.06 394.86,395.79 392.12,395.79 392.12,395.51 389.38,395.51 389.38,395.22 386.64,395.22 386.64,394.92 383.90,394.92 383.90,394.61 381.16,394.61 381.16,394.30 378.42,394.30 378.42,393.98 375.68,393.98 375.68,393.65 372.95,393.65 372.95,393.32 370.21,393.32 370.21,392.97 367.47,392.97 367.47,392.62 364.73,392.62 364.73,392.27 361.99,392.27 361.99,391.90 359.25,391.90 359.25,391.53 356.51,391.53 356.51,391.16 353.77,391.16 353.77,390.77 351.03,390.77 351.03,390.39 348.29,390.39 348.29,389.99 345.55,389.99 345.55,389.59 342.81,389.59 342.81,389.19 340.07,389.19 340.07,388.78 337.33,388.78 337.33,388.36 334.59,388.36 334.59,387.94 331.85,387.94 331.85,387.52 329.11,387.52 329.11,387.09 326.37,387.09 326.37,386.65 323.63,386.65 323.63,386.22 320.89,386.22 320.89,385.77 318.15,385.77 318.15,385.33 315.41,385.33 315.41,384.88 312.67,384.88 312.67,384.43 309.93,384.43 309.93,383.97 307.19,383.97 307.19,383.51 304.45,383.51 304.45,383.05 301.71,383.05 301.71,382.59 298.97,382.59 298.97,382.12 296.23,382.12 296.23,381.65 293.49,381.65 293.49,381.18 290.75,381.18 290.75,380.70 288.01,380.70 288.01,380.23 285.27,380.23 285.27,379.75 282.53,379.75 282.53,379.27 279.79,379.27 279.79,378.79 277.05,378.79 277.05,378.31 274.32,378.31 274.32,377.83 271.58,377.83 271.58,377.34 268.84,377.34 268.84,376.86 266.10,376.86 266.10,376.37 263.36,376.37 263.36,375.89 260.62,375.89 260.62,375.40 257.88,375.40 257.88,374.91 255.14,374.91 255.14,374.43 252.40,374.43 252.40,373.94 249.66,373.94 249.66,373.46 246.92,373.46 246.92,372.97 244.18,372.97 244.18,372.49 241.44,372.49 241.44,372.01 238.70,372.01 238.70,371.53 235.96,371.53 235.96,371.05 233.22,371.05 233.22,370.57 230.48,370.57 230.48,370.09 227.74,370.09 227.74,369.62 225.00,369.62 225.00,369.15 222.26,369.15 222.26,368.67 219.52,368.67 219.52,368.21 216.78,368.21 216.78,367.74 214.04,367.74 214.04,367.28 211.30,367.28 211.30,366.82 208.56,366.82 208.56,387.19 205.82,387.19 205.82,386.74 203.08,386.74 203.08,386.29 200.34,386.29 200.34,385.84 197.60,385.84 197.60,385.40 194.86,385.40 194.86,384.96 192.12,384.96 192.12,384.52 189.38,384.52 189.38,384.09 186.64,384.09 186.64,383.66 183.90,383.66 183.90,383.24 181.16,383.24 181.16,382.82 178.42,382.82 178.42,382.41 175.68,382.41 175.68,382.00 172.95,382.00 172.95,381.60 170.21,381.60 170.21,381.20 167.47,381.20 167.47,380.81 164.73,380.81 164.73,380.42 161.99,380.42 161.99,380.04 159.25,380.04 159.25,379.67 156.51,379.67 156.51,379.30 153.77,379.30 153.77,378.94 151.03,378.94 151.03,378.59 148.29,378.59 148.29,378.24 145.55,378.24 145.55,377.90 142.81,377.90 142.81,377.57 140.07,377.57 140.07,377.24 137.33,377.24 137.33,376.93 134.59,376.93 134.59,376.62 131.85,376.62 131.85,376.31 129.11,376.31 129.11,376.02 126.37,376.02 126.37,375.73 123.63,375.73 123.63,375.45 120.89,375.45 120.89,375.18 118.15,375.18 118.15,374.92 115.41,374.92 115.41,374.67 112.67,374.67 112.67,374.43 109.93,374.43 109.93,374.19 107.19,374.19 107.19,373.97 104.45,373.97 104.45,373.75 101.71,373.75 101.71,373.54 98.97,373.54 98.97,373.34 96.23,373.34 96.23,373.15 93.49,373.15 93.49,372.98 90.75,372.98 90.75,372.81 88.01,372.81 88.01,372.65 85.27,372.65 85.27,372.50 82.53,372.50 82.53,372.36 79.79,372.36 79.79,372.23 77.05,372.23 77.05,372.11 74.32,372.11 74.32,372.00 71.58,372.00 71.58,371.90 68.84,371.90 68.84,371.82 66.10,371.82 66.10,371.74 63.36,371.74 63.36,371.67 60.62,371.67 60.62,371.61 57.88,371.61 57.88,371.57 55.14,371.57 55.14,371.53 52.40,371.53 52.40,371.50 49.66,371.50 49.66,371.49 46.92,371.49 46.92,371.48 44.18,371.48 44.18,371.49 41.44,371.49 41.44,371.50 38.70,371.50 38.70,371.53 35.96,371.53 35.96,371.56 33.22,371.56 33.22,371.61 30.48,371.61 30.48,371.66 27.74,371.66 27.74,371.73" fill="#0060c0" stroke="none" stroke-width="0"/>
<polygon points="25.00,362.08 25.00,155.63 27.74,155.63 27.74,155.36 30.48,155.36 30.48,155.09 33.22,155.09 33.22,154.81 35.96,154.81 35.96,154.52 38.70,154.52 38.70,154.22 41.44,154.22 41.44,153.93 44.18,153.93 44.18,153.62 46.92,153.62 46.92,153.31 49.66,153.31 49.66,153.00 52.40,153.00 52.40,152.69 55.14,152.69 55.14,152.36 57.88,152.36 57.88,152.04 60.62,152.04 60.62,151.71 63.36,151.71 63.36,151.38 66.10,151.38 66.10,151.05 68.84,151.05 68.84,150.71 71.58,150.71 71.58,150.38 74.32,150.38 74.32,150.04 77.05,150.04 77.05,149.69 79.79,149.69 79.79,149.35 82.53,149.35 82.53,149.01 85.27,149.01 85.27,148.66 88.01,148.66 88.01,148.31 90.75,148.31 90.75,147.96 93.49,147.96 93.49,147.62 96.23,147.62 96.23,147.27 98.97,147.27 98.97,146.92 101.71,146.92 101.71,146.57 104.45,146.57 104.45,146.22 107.19,146.22 107.19,145.88 109.93,145.88 109.93,145.53 112.67,145.53 112.67,145.18 115.41,145.18 115.41,144.84 118.15,144.84 118.15,144.49 120.89,144.49 120.89,144.15 123.63,144.15 123.63,143.81 126.37,143.81 126.37,143.47 129.11,143.47 129.11,143.13 131.85,143.13 131.85,142.79 134.59,142.79 134.59,142.45 137.33,142.45 137.33,142.12 140.07,142.12 140.07,141.79 142.81,141.79 142.81,141.46 145.55,141.46 145.55,141.13 148.29,141.13 148.29,140.80 151.03,140.80 151.03,140.48 153.77,140.48 153.77,140.15 156.51,140.15 156.51,139.83 159.25,139.83 159.25,139.51 161.99,139.51 161.99,139.20 164.73,139.20 164.73,138.88 167.47,138.88 167.47,138.57 170.21,138.57 170.21,138.26 172.95,138.26 172.95,137.95 175.68,137.95 175.68,137.64 178.42,137.64 178.42,137.34 181.16,137.34 181.16,137.03 183.90,137.03 183.90,136.73 186.64,136.73 186.64,136.43 189.38,136.43 189.38,136.13 192.12,136.13 192.12,135.84 194.86,135.84 194.86,135.55 197.60,135.55 197.60,135.25 200.34,135.25 200.34,134.96 203.08,134.96 203.08,134.67 205.82,134.67 205.82,134.39 208.56,134.39 208.56,113.27 211.30,113.27 211.30,112.98 214.04,112.98 214.04,112.70 216.78,112.70 216.78,112.42 219.52,112.42 219.52,112.14 222.26,112.14 222.26,111.86 225.00,111.86 225.00,111.58 227.74,111.58 227.74,111.31 230.48,111.31 230.48,111.03 233.22,111.03 233.22,110.75 235.96,110.75 235.96,110.48 238.70,110.48 238.70,110.21 241.44,110.21 241.44,109.94 244.18,109.94 244.18,109.66 246.92,109.66 246.92,109.39 249.66,109.39 249.66,109.12 252.40,109.12 252.40,108.85 255.14,108.85 255.14,108.58 257.88,108.58 257.88,108.31 260.62,108.31 260.62,108.04 263.36,108.04 263.36,107.77 266.10,107.77 266.10,107.50 268.84,107.50 268.84,107.23 271.58,107.23 271.58,106.97 274.32,106.97 274.32,106.70 277.05,106.70 277.05,106.43 279.79,106.43 279.79,106.16 282.53,106.16 282.53,105.89 285.27,105.89 285.27,105.62 288.01,105.62 288.01,105.35 290.75,105.35 290.75,105.08 293.49,105.08 293.49,104.81 296.23,104.81 296.23,104.54 298.97,104.54 298.97,104.27 301.71,104.27 301.71,104.00 304.45,104.00 304.45,103.73 307.19,103.73 307.19,103.46 309.93,103.46 309.93,103.19 312.67,103.19 312.67,102.92 315.41,102.92 315.41,102.65 318.15,102.65 318.15,102.37 320.89,102.37 320.89,102.10 323.63,102.10 323.63,101.83 326.37,101.83 326.37,101.55 329.11,101.55 329.11,101.28 331.85,101.28 331.85,101.00 334.59,101.00 334.59,100.73 337.33,100.73 337.33,100.45 340.07,100.45 340.07,100.18 342.81,100.18 342.81,99.90 345.55,99.90 345.55,99.62 348.29,99.62 348.29,99.35 351.03,99.35 351.03,99.07 353.77,99.07 353.77,98.80 356.51,98.80 356.51,98.52 359.25,98.52 359.25,98.24 361.99,98.24 361.99,97.97 364.73,97.97 364.73,97.69 367.47,97.69 367.47,97.42 370.21,97.42 370.21,97.15 372.95,97.15 372.95,96.87 375.68,96.87 375.68,96.60 378.42,96.60 378.42,96.33 381.16,96.33 381.16,96.06 383.90,96.06 383.90,95.79 386.64,95.79 386.64,95.52 389.38,95.52 389.38,95.26 392.12,95.26 392.12,94.99 394.86,94.99 394.86,94.73 397.60,94.73 397.60,94.47 400.34,94.47 400.34,94.21 403.08,94.21 403.08,93.96 405.82,93.96 405.82,93.70 408.56,93.70 408.56,93.45 411.30,93.45 411.30,93.20 414.04,93.20 414.04,92.96 416.78,92.96 416.78,92.72 419.52,92.72 419.52,92.48 422.26,92.48 422.26,92.24 425.00,92.24 425.00,92.01 427.74,92.01 427.74,91.79 430.48,91.79 430.48,91.56 433.22,91.56 433.22,91.34 435.96,91.34 435.96,91.13 438.70,91.13 438.70,90.92 441.44,90.92 441.44,90.72 444.18,90.72 444.18,90.52 446.92,90.52 446.92,90.33 449.66,90.33 449.66,90.14 452.40,90.14 452.40,89.96 455.14,89.96 455.14,89.78 457.88,89.78 457.88,89.61 460.62,89.61 460.62,89.45 463.36,89.45 463.36,89.30 466.10,89.30 466.10,89.15 468.84,89.15 468.84,89.00 471.58,89.00 471.58,88.87 474.32,88.87 474.32,88.74 477.05,88.74 477.05,88.62 479.79,88.62 479.79,88.51 482.53,88.51 482.53,88.41 485.27,88.41 485.27,88.31 488.01,88.31 488.01,88.22 490.75,88.22 490.75,88.14 493.49,88.14 493.49,88.07 496.23,88.07 496.23,88.01 498.97,88.01 498.97,87.96 501.71,87.96 501.71,87.91 504.45,87.91 504.45,87.87 507.19,87.87 507.19,87.85 509.93,87.85 509.93,87.83 512.67,87.83 512.67,87.82 515.41,87.82 515.41,87.82 518.15,87.82 518.15,87.83 520.89,87.83 520.89,87.85 523.63,87.85 523.63,87.88 526.37,87.88 526.37,87.92 529.11,87.92 529.11,87.97 531.85,87.97 531.85,88.03 534.59,88.03 534.59,88.09 537.33,88.09 537.33,88.17 540.07,88.17 540.07,88.26 542.81,88.26 542.81,88.35 545.55,88.35 545.55,88.46 548.29,88.46 548.29,88.58 551.03,88.58 551.03,88.70 553.77,88.70 553.77,88.84 556.51,88.84 556.51,88.98 559.25,88.98 559.25,89.13 561.99,89.13 561.99,89.30 564.73,89.30 564.73,89.47 567.47,89.47 567.47,89.65 570.21,89.65 570.21,89.84 572.95,89.84 572.95,90.04 575.68,90.04 575.68,90.25 578.42,90.25 578.42,90.47 581.16,90.47 581.16,90.69 583.90,90.69 583.90,90.93 586.64,90.93 586.64,91.17 589.38,91.17 589.38,91.43 592.12,91.43 592.12,91.69 594.86,91.69 594.86,91.96 597.60,91.96 597.60,92.24 600.34,92.24 600.34,92.52 603.08,92.52 603.08,92.81 605.82,92.81 605.82,93.12 608.56,93.12 608.56,93.42 611.30,93.42 611.30,93.74 614.04,93.74 614.04,94.06 616.78,94.06 616.78,94.40 619.52,94.40 619.52,94.73 622.26,94.73 622.26,95.08 625.00,95.08 625.00,95.43 627.74,95.43 627.74,95.79 630.48,95.79 630.48,96.15 633.22,96.15 633.22,96.52 635.96,96.52 635.96,96.90 638.70,96.90 638.70,97.28 641.44,97.28 641.44,97.67 644.18,97.67 644.18,98.07 646.92,98.07 646.92,98.47 649.66,98.47 649.66,98.88 652.40,98.88 652.40,99.29 655.14,99.29 655.14,99.70 657.88,99.70 657.88,100.12 660.62,100.12 660.62,100.55 663.36,100.55 663.36,100.98 666.10,100.98 666.10,101.42 668.84,101.42 668.84,101.85 671.58,101.85 671.58,102.30 674.32,102.30 674.32,102.74 677.05,102.74 677.05,103.20 679.79,103.20 679.79,103.65 682.53,103.65 682.53,104.11 685.27,104.11 685.27,104.57 688.01,104.57 688.01,105.03 690.75,105.03 690.75,105.50 693.49,105.50 693.49,105.97 696.23,105.97 696.23,106.44 698.97,106.44 698.97,106.92 701.71,106.92 701.71,107.40 704.45,107.40 704.45,107.87 707.19,107.87 707.19,108.36 709.93,108.36 709.93,108.84 712.67,108.84 712.67,109.32 715.41,109.32 715.41,109.81 718.15,109.81 718.15,110.30 720.89,110.30 720.89,110.79 723.63,110.79 723.63,111.28 726.37,111.28 726.37,111.77 729.11,111.77 729.11,112.26 731.85,112.26 731.85,112.75 734.59,112.75 734.59,113.25 737.33,113.25 737.33,113.74 740.07,113.74 740.07,114.23 742.81,114.23 742.81,114.73 745.55,114.73 745.55,115.22 748.29,115.22 748.29,115.71 751.03,115.71 751.03,116.20 753.77,116.20 753.77,116.69 756.51,116.69 756.51,117.18 759.25,117.18 759.25,117.67 761.99,117.67 761.99,118.16 764.73,118.16 764.73,118.65 767.47,118.65 767.47,119.13 770.21,119.13 770.21,119.62 772.95,119.62 772.95,120.10 775.68,120.10 775.68,120.58 778.42,120.58 778.42,121.05 781.16,121.05 781.16,121.53 783.90,121.53 783.90,122.00 786.64,122.00 786.64,122.47 789.38,122.47 789.38,122.93 792.12,122.93 792.12,123.39 794.86,123.39 794.86,123.85 797.60,123.85 797.60,124.31 800.34,124.31 800.34,124.76 803.08,124.76 803.08,125.21 805.82,125.21 805.82,125.65 808.56,125.65 808.56,126.09 811.30,126.09 811.30,126.53 814.04,126.53 814.04,126.96 816.78,126.96 816.78,127.39 819.52,127.39 819.52,127.81 822.26,127.81 822.26,128.23 825.00,128.23 825.00,128.64 827.74,128.64 827.74,129.04 830.48,129.04 830.48,129.44 833.22,129.44 833.22,129.84 835.96,129.84 835.96,130.22 838.70,130.22 838.70,130.60 841.44,130.60 841.44,130.98 844.18,130.98 844.18,131.35 846.92,131.35 846.92,131.71 849.66,131.71 849.66,132.06 852.40,132.06 852.40,132.41 855.14,132.41 855.14,132.75 857.88,132.75 857.88,133.08 860.62,133.08 860.62,154.24 863.36,154.24 863.36,154.56 866.10,154.56 866.10,154.87 868.84,154.87 868.84,155.17 871.58,155.17 871.58,155.46 874.32,155.46 874.32,155.74 877.05,155.74 877.05,156.02 879.79,156.02 879.79,156.28 882.53,156.28 882.53,156.54 885.27,156.54 885.27,156.79 888.01,156.79 888.01,157.03 890.75,157.03 890.75,157.26 893.49,157.26 893.49,157.48 896.23,157.48 896.23,157.69 898.97,157.69 898.97,157.88 901.71,157.88 901.71,158.07 904.45,158.07 904.45,158.25 907.19,158.25 907.19,158.42 909.93,158.42 909.93,158.58 912.67,158.58 912.67,158.73 915.41,158.73 915.41,158.87 918.15,158.87 918.15,159.00 920.89,159.00 920.89,159.11 923.63,159.11 923.63,159.22 926.37,159.22 926.37,159.31 929.11,159.31 929.11,159.40 931.85,159.40 931.85,159.47 934.59,159.47 934.59,159.53 937.33,159.53 937.33,159.58 940.07,159.58 940.07,159.62 942.81,159.62 942.81,159.65 945.55,159.65 945.55,159.67 948.29,159.67 948.29,159.68 951.03,159.68 951.03,159.67 953.77,159.67 953.77,159.66 956.51,159.66 956.51,159.63 959.25,159.63 959.25,159.59 961.99,159.59 961.99,159.54 964.73,159.54 964.73,159.48 967.47,159.48 967.47,159.41 970.21,159.41 970.21,159.33 972.95,159.33 972.95,159.24 975.68,159.24 975.68,159.14 978.42,159.14 978.42,159.03 981.16,159.03 981.16,158.91 983.90,158.91 983.90,158.77 986.64,158.77 986.64,158.63 989.38,158.63 989.38,158.48 992.12,158.48 992.12,158.32 994.86,158.32 994.86,158.15 997.60,158.15 997.60,157.97 1000.34,157.97 1000.34,157.78 1003.08,157.78 1003.08,157.58 1005.82,157.58 1005.82,157.37 1008.56,157.37 1008.56,157.15 1011.30,157.15 1011.30,156.93 1014.04,156.93 1014.04,156.70 1016.78,156.70 1016.78,156.46 1019.52,156.46 1019.52,156.21 1022.26,156.21 1022.26,155.96 1025.00,155.96 1025.00,362.16 1022.26,362.16 1022.26,362.24 1019.52,362.24 1019.52,362.33 1016.78,362.33 1016.78,362.43 1014.04,362.43 1014.04,362.54 1011.30,362.54 1011.30,362.66 1008.56,362.66 1008.56,362.79 1005.82,362.79 1005.82,362.93 1003.08,362.93 1003.08,363.08 1000.34,363.08 1000.34,363.24 997.60,363.24 997.60,363.41 994.86,363.41 994.86,363.58 992.12,363.58 992.12,363.77 989.38,363.77 989.38,363.96 986.64,363.96 986.64,364.16 983.90,364.16 983.90,364.37 981.16,364.37 981.16,364.59 978.42,364.59 978.42,364.82 975.68,364.82 975.68,365.05 972.95,365.05 972.95,365.29 970.21,365.29 970.21,365.54 967.47,365.54 967.47,365.79 964.73,365.79 964.73,366.05 961.99,366.05 961.99,366.32 959.25,366.32 959.25,366.59 956.51,366.59 956.51,366.87 953.77,366.87 953.77,367.15 951.03,367.15 951.03,367.44 948.29,367.44 948.29,367.73 945.55,367.73 945.55,368.03 942.81,368.03 942.81,368.33 940.07,368.33 940.07,368.64 937.33,368.64 937.33,368.95 934.59,368.95 934.59,369.26 931.85,369.26 931.85,369.57 929.11,369.57 929.11,369.89 926.37,369.89 926.37,370.21 923.63,370.21 923.63,370.54 920.89,370.54 920.89,370.86 918.15,370.86 918.15,371.19 915.41,371.19 915.41,371.52 912.67,371.52 912.67,371.85 909.93,371.85 909.93,372.18 907.19,372.18 907.19,372.51 904.45,372.51 904.45,372.84 901.71,372.84 901.71,373.17 898.97,373.17 898.97,373.50 896.23,373.50 896.23,373.84 893.49,373.84 893.49,374.17 890.75,374.17 890.75,374.50 888.01,374.50 888.01,374.83 885.27,374.83 885.27,375.16 882.53,375.16 882.53,375.49 879.79,375.49 879.79,375.82 877.05,375.82 877.05,376.15 874.32,376.15 874.32,376.48 871.58,376.48 871.58,376.80 868.84,376.80 868.84,377.13 866.10,377.13 866.10,377.45 863.36,377.45 863.36,377.77 860.62,377.77 860.62,357.26 857.88,357.26 857.88,357.57 855.14,357.57 855.14,357.89 852.40,357.89 852.40,358.20 849.66,358.20 849.66,358.51 846.92,358.51 846.92,358.82 844.18,358.82 844.18,359.13 841.44,359.13 841.44,359.44 838.70,359.44 838.70,359.74 835.96,359.74 835.96,360.04 833.22,360.04 833.22,360.34 830.48,360.34 830.48,360.63 827.74,360.63 827.74,360.93 825.00,360.93 825.00,361.22 822.26,361.22 822.26,361.51 819.52,361.51 819.52,361.80 816.78,361.80 816.78,362.08 814.04,362.08 814.04,362.37 811.30,362.37 811.30,362.65 808.56,362.65 808.56,362.93 805.82,362.93 805.82,363.21 803.08,363.21 803.08,363.48 800.34,363.48 800.34,363.75 797.60,363.75 797.60,364.03 794.86,364.03 794.86,364.30 792.12,364.30 792.12,364.56 789.38,364.56 789.38,364.83 786.64,364.83 786.64,365.09 783.90,365.09 783.90,365.36 781.16,365.36 781.16,365.62 778.42,365.62 778.42,365.88 775.68,365.88 775.68,366.14 772.95,366.14 772.95,366.39 770.21,366.39 770.21,366.65 767.47,366.65 767.47,366.90 764.73,366.90 764.73,367.16 761.99,367.16 761.99,367.41 759.25,367.41 759.25,367.66 756.51,367.66 756.51,367.91 753.77,367.91 753.77,368.16 751.03,368.16 751.03,368.41 748.29,368.41 748.29,368.66 745.55,368.66 745.55,368.90 742.81,368.90 742.81,369.15 740.07,369.15 740.07,369.40 737.33,369.40 737.33,369.64 734.59,369.64 734.59,369.89 731.85,369.89 731.85,370.13 729.11,370.13 729.11,370.38 726.37,370.38 726.37,370.62 723.63,370.62 723.63,370.86 720.89,370.86 720.89,371.11 718.15,371.11 718.15,371.35 715.41,371.35 715.41,371.60 712.67,371.60 712.67,371.84 709.93,371.84 709.93,372.08 707.19,372.08 707.19,372.33 704.45,372.33 704.45,372.57 701.71,372.57 701.71,372.82 698.97,372.82 698.97,373.06 696.23,373.06 696.23,373.31 693.49,373.31 693.49,373.56 690.75,373.56 690.75,373.80 688.01,373.80 688.01,374.05 685.27,374.05 685.27,374.30 682.53,374.30 682.53,374.54 679.79,374.54 679.79,374.79 677.05,374.79 677.05,375.04 674.32,375.04 674.32,375.29 671.58,375.29 671.58,375.54 668.84,375.54 668.84,375.79 666.10,375.79 666.10,376.04 663.36,376.04 663.36,376.30 660.62,376.30 660.62,376.55 657.88,376.55 657.88,376.80 655.14,376.80 655.14,377.06 652.40,377.06 652.40,377.31 649.66,377.31 649.66,377.56 646.92,377.56 646.92,377.82 644.18,377.82 644.18,378.07 641.44,378.07 641.44,378.33 638.70,378.33 638.70,378.59 635.96,378.59 635.96,378.84 633.22,378.84 633.22,379.10 630.48,379.10 630.48,379.36 627.74,379.36 627.74,379.61 625.00,379.61 625.00,379.87 622.26,379.87 622.26,380.13 619.52,380.13 619.52,380.38 616.78,380.38 616.78,380.64 614.04,380.64 614.04,380.90 611.30,380.90 611.30,381.15 608.56,381.15 608.56,381.41 605.82,381.41 605.82,381.66 603.08,381.66 603.08,381.91 600.34,381.91 600.34,382.17 597.60,382.17 597.60,382.42 594.86,382.42 594.86,382.67 592.12,382.67 592.12,382.92 589.38,382.92 589.38,383.16 586.64,383.16 586.64,383.41 583.90,383.41 583.90,383.65 581.16,383.65 581.16,383.89 578.42,383.89 578.42,384.13 575.68,384.13 575.68,384.37 572.95,384.37 572.95,384.61 570.21,384.61 570.21,384.84 567.47,384.84 567.47,385.07 564.73,385.07 564.73,385.29 561.99,385.29 561.99,385.51 559.25,385.51 559.25,385.73 556.51,385.73 556.51,385.95 553.77,385.95 553.77,386.16 551.03,386.16 551.03,386.37 548.29,386.37 548.29,386.57 545.55,386.57 545.55,386.77 542.81,386.77 542.81,386.96 540.07,386.96 540.07,387.15 537.33,387.15 537.33,387.33 534.59,387.33 534.59,387.51 531.85,387.51 531.85,387.68 529.11,387.68 529.11,387.85 526.37,387.85 526.37,388.01 523.63,388.01 523.63,388.16 520.89,388.16 520.89,388.31 518.15,388.31 518.15,388.45 515.41,388.45 515.41,388.59 512.67,388.59 512.67,388.72 509.93,388.72 509.93,388.84 507.19,388.84 507.19,388.95 504.45,388.95 504.45,389.06 501.71,389.06 501.71,389.16 498.97,389.16 498.97,389.25 496.23,389.25 496.23,389.33 493.49,389.33 493.49,389.40 490.75,389.40 490.75,389.47 488.01,389.47 488.01,389.53 485.27,389.53 485.27,389.58 482.53,389.58 482.53,389.62 479.79,389.62 479.79,389.65 477.05,389.65 477.05,389.68 474.32,389.68 474.32,389.69 471.58,389.69 471.58,389.70 468.84,389.70 468.84,389.70 466.10,389.70 466.10,389.68 463.36,389.68 463.36,389.66 460.62,389.66 460.62,389.63 457.88,389.63 457.88,389.59 455.14,389.59 455.14,389.54 452.40,389.54 452.40,389.48 449.66,389.48 449.66,389.42 446.92,389.42 446.92,389.34 444.18,389.34 444.18,389.25 441.44,389.25 441.44,389.16 438.70,389.16 438.70,389.05 435.96,389.05 435.96,388.94 433.22,388.94 433.22,388.81 430.48,388.81 430.48,388.68 427.74,388.68 427.74,388.54 425.00,388.54 425.00,388.38 422.26,388.38 422.26,388.22 419.52,388.22 419.52,388.05 416.78,388.05 416.78,387.87 414.04,387.87 414.04,387.69 411.30,387.69 411.30,387.49 408.56,387.49 408.56,387.28 405.82,387.28 405.82,387.07 403.08,387.07 403.08,386.84 400.34,386.84 400.34,386.61 397.60,386.61 397.60,386.37 394.86,386.37 394.86,386.12 392.12,386.12 392.12,385.87 389.38,385.87 389.38,385.60 386.64,385.60 386.64,385.33 383.90,385.33 383.90,385.05 381.16,385.05 381.16,384.76 378.42,384.76 378.42,384.46 375.68,384.46 375.68,384.16 372.95,384.16 372.95,383.85 370.21,383.85 370.21,383.53 367.47,383.53 367.47,383.20 364.73,383.20 364.73,382.87 361.99,382.87 361.99,382.53 359.25,382.53 359.25,382.19 356.51,382.19 356.51,381.83 353.77,381.83 353.77,381.48 351.03,381.48 351.03,381.11 348.29,381.11 348.29,380.74 345.55,380.74 345.55,380.36 342.81,380.36 342.81,379.98 340.07,379.98 340.07,379.59 337.33,379.59 337.33,379.20 334.59,379.20 334.59,378.80 331.85,378.80 331.85,378.40 329.11,378.40 329.11,377.99 326.37,377.99 326.37,377.58 323.63,377.58 323.63,377.16 320.89,377.16 320.89,376.74 318.15,376.74 318.15,376.31 315.41,376.31 315.41,375.88 312.67,375.88 312.67,375.45 309.93,375.45 309.93,375.01 307.19,375.01 307.19,374.57 304.45,374.57 304.45,374.12 301.71,374.12 301.71,373.67 298.97,373.67 298.97,373.22 296.23,373.22 296.23,372.77 293.49,372.77 293.49,372.31 290.75,372.31 290.75,371.85 288.01,371.85 288.01,371.39 285.27,371.39 285.27,370.92 282.53,370.92 282.53,370.46 279.79,370.46 279.79,369.99 277.05,369.99 277.05,369.52 274.32,369.52 274.32,369.04 271.58,369.04 271.58,368.57 268.84,368.57 268.84,368.10 266.10,368.10 266.10,367.62 263.36,367.62 263.36,367.14 260.62,367.14 260.62,366.66 257.88,366.66 257.88,366.19 255.14,366.19 255.14,365.71 252.40,365.71 252.40,365.23 249.66,365.23 249.66,364.75 246.92,364.75 246.92,364.27 244.18,364.27 244.18,363.79 241.44,363.79 241.44,363.31 238.70,363.31 238.70,362.83 235.96,362.83 235.96,362.35 233.22,362.35 233.22,361.88 230.48,361.88 230.48,361.40 227.74,361.40 227.74,360.93 225.00,360.93 225.00,360.45 222.26,360.45 222.26,359.98 219.52,359.98 219.52,359.51 216.78,359.51 216.78,359.04 214.04,359.04 214.04,358.58 211.30,358.58 211.30,358.11 208.56,358.11 208.56,378.49 205.82,378.49 205.82,378.03 203.08,378.03 203.08,377.57 200.34,377.57 200.34,377.12 197.60,377.12 197.60,376.67 194.86,376.67 194.86,376.22 192.12,376.22 192.12,375.78 189.38,375.78 189.38,375.34 186.64,375.34 186.64,374.90 183.90,374.90 183.90,374.47 181.16,374.47 181.16,374.04 178.42,374.04 178.42,373.62 175.68,373.62 175.68,373.20 172.95,373.20 172.95,372.79 170.21,372.79 170.21,372.38 167.47,372.38 167.47,371.98 164.73,371.98 164.73,371.58 161.99,371.58 161.99,371.19 159.25,371.19 159.25,370.80 156.51,370.80 156.51,370.42 153.77,370.42 153.77,370.04 151.03,370.04 151.03,369.67 148.29,369.67 148.29,369.31 145.55,369.31 145.55,368.96 142.81,368.96 142.81,368.61 140.07,368.61 140.07,368.27 137.33,368.27 137.33,367.93 134.59,367.93 134.59,367.60 131.85,367.60 131.85,367.28 129.11,367.28 129.11,366.97 126.37,366.97 126.37,366.67 123.63,366.67 123.63,366.37 120.89,366.37 120.89,366.08 118.15,366.08 118.15,365.80 115.41,365.80 115.41,365.53 112.67,365.53 112.67,365.27 109.93,365.27 109.93,365.02 107.19,365.02 107.19,364.77 104.45,364.77 104.45,364.54 101.71,364.54 101.71,364.31 98.97,364.31 98.97,364.09 96.23,364.09 96.23,363.89 93.49,363.89 93.49,363.69 90.75,363.69 90.75,363.50 88.01,363.50 88.01,363.32 85.27,363.32 85.27,363.16 82.53,363.16 82.53,363.00 79.79,363.00 79.79,362.85 77.05,362.85 77.05,362.71 74.32,362.71 74.32,362.59 71.58,362.59 71.58,362.47 68.84,362.47 68.84,362.36 66.10,362.36 66.10,362.27 63.36,362.27 63.36,362.19 60.62,362.19 60.62,362.11 57.88,362.11 57.88,362.05 55.14,362.05 55.14,362.00 52.40,362.00 52.40,361.96 49.66,361.96 49.66,361.93 46.92,361.93 46.92,361.91 44.18,361.91 44.18,361.90 41.44,361.90 41.44,361.90 38.70,361.90 38.70,361.91 35.96,361.91 35.96,361.94 33.22,361.94 33.22,361.97 30.48,361.97 30.48,362.02 27.74,362.02 27.74,362.08" fill="#80c0ff" stroke="none" stroke-width="0"/>
<polyline points="25.00,508.96 27.74,508.79 30.48,508.63 33.22,508.48 35.96,508.32 38.70,508.17 41.44,508.02 44.18,507.87 46.92,507.73 49.66,507.59 52.40,507.45 55.14,507.31 57.88,507.18 60.62,507.05 63.36,506.93 66.10,506.81 68.84,506.70 71.58,506.58 74.32,506.48 77.05,506.37 79.79,506.27 82.53,506.18 85.27,506.09 88.01,506.00 90.75,505.92 93.49,505.85 96.23,505.78 98.97,505.71 101.71,505.65 104.45,505.59 107.19,505.54 109.93,505.49 112.67,505.45 115.41,505.41 118.15,505.37 120.89,505.34 123.63,505.32 126.37,505.30 129.11,505.29 131.85,505.28 134.59,505.27 137.33,505.27 140.07,505.27 142.81,505.28 145.55,505.29 148.29,505.31 151.03,505.33 153.77,505.35 156.51,505.38 159.25,505.41 161.99,505.45 164.73,505.49 167.47,505.53 170.21,505.58 172.95,505.63 175.68,505.69 178.42,505.75 181.16,505.81 183.90,505.87 186.64,505.94 189.38,506.01 192.12,506.08 194.86,506.16 197.60,506.24 200.34,506.32 203.08,506.40 205.82,506.48 208.56,506.57" fill="none" stroke="#0000ff" stroke-width="1"/>
<polyline points="211.30,485.83 214.04,485.92 216.78,486.01 219.52,486.11 222.26,486.20 225.00,486.30 227.74,486.40 230.48,486.50 233.22,486.60 235.96,486.70 238.70,486.80 241.44,486.91 244.18,487.01 246.92,487.11 249.66,487.22 252.40,487.32 255.14,487.43 257.88,487.53 260.62,487.64 263.36,487.74 266.10,487.84 268.84,487.95 271.58,488.05 274.32,488.15 277.05,488.26 279.79,488.36 282.53,488.46 285.27,488.55 288.01,488.65 290.75,488.75 293.49,488.84 296.23,488.93 298.97,489.03 301.71,489.12 304.45,489.20 307.19,489.29 309.93,489.37 312.67,489.46 315.41,489.53 318.15,489.61 320.89,489.69 323.63,489.76 326.37,489.83 329.11,489.90 331.85,489.96 334.59,490.03 337.33,490.09 340.07,490.14 342.81,490.20 345.55,490.25 348.29,490.30 351.03,490.34 353.77,490.38 356.51,490.42 359.25,490.46 361.99,490.49 364.73,490.52 367.47,490.55 370.21,490.57 372.95,490.59 375.68,490.61 378.42,490.62 381.16,490.63 383.90,490.64 386.64,490.64 389.38,490.64 392.12,490.64 394.86,490.63 397.60,490.62 400.34,490.61 403.08,490.59 405.82,490.57 408.56,490.55 411.30,490.52 414.04,490.49 416.78,490.46 419.52,490.43 422.26,490.39 425.00,490.35 427.74,490.31 430.48,490.26 433.22,490.22 435.96,490.16 438.70,490.11 441.44,490.06 444.18,490.00 446.92,489.94 449.66,489.88 452.40,489.82 455.14,489.75 457.88,489.69 460.62,489.62 463.36,489.55 466.10,489.48 468.84,489.41 471.58,489.34 474.32,489.26 477.05,489.19 479.79,489.11 482.53,489.04 485.27,488.96 488.01,488.89 490.75,488.81 493.49,488.74 496.23,488.66 498.97,488.59 501.71,488.51 504.45,488.44 507.19,488.36 509.93,488.29 512.67,488.22 515.41,488.15 518.15,488.08 520.89,488.01 523.63,487.95 526.37,487.88 529.11,487.82 531.85,487.76 534.59,487.70 537.33,487.65 540.07,487.59 542.81,487.54 545.55,487.49 548.29,487.44 551.03,487.40 553.77,487.36 556.51,487.32 559.25,487.28 561.99,487.25 564.73,487.22 567.47,487.19 570.21,487.17 572.95,487.15 575.68,487.13 578.42,487.12 581.16,487.11 583.90,487.10 586.64,487.10 589.38,487.10 592.12,487.10 594.86,487.11 597.60,487.12 600.34,487.13 603.08,487.15 605.82,487.17 608.56,487.19 611.30,487.22 614.04,487.25 616.78,487.29 619.52,487.32 622.26,487.37 625.00,487.41 627.74,487.46 630.48,487.51 633.22,487.57 635.96,487.62 638.70,487.69 641.44,487.75 644.18,487.82 646.92,487.89 649.66,487.96 652.40,488.04 655.14,488.12 657.88,488.20 660.62,488.29 663.36,488.37 666.10,488.46 668.84,488.56 671.58,488.65 674.32,488.75 677.05,488.85 679.79,488.95 682.53,489.05 685.27,489.16 688.01,489.27 690.75,489.38 693.49,489.49 696.23,489.60 698.97,489.71 701.71,489.83 704.45,489.95 707.19,490.07 709.93,490.18 712.67,490.30 715.41,490.43 718.15,490.55 720.89,490.67 723.63,490.79 726.37,490.92 729.11,491.04 731.85,491.16 734.59,491.29 737.33,491.41 740.07,491.54 742.81,491.66 745.55,491.78 748.29,491.90 751.03,492.03 753.77,492.15 756.51,492.27 759.25,492.39 761.99,492.51 764.73,492.63 767.47,492.74 770.21,492.86 772.95,492.97 775.68,493.08 778.42,493.19 781.16,493.30 783.90,493.40 786.64,493.51 789.38,493.61 792.12,493.71 794.86,493.81 797.60,493.90 800.34,493.99 803.08,494.08 805.82,494.16 808.56,494.25 811.30,494.33 814.04,494.40 816.78,494.48 819.52,494.54 822.26,494.61 825.00,494.67 827.74,494.73 830.48,494.78 833.22,494.83 835.96,494.88 838.70,494.92 841.44,494.96 844.18,494.99 846.92,495.02 849.66,495.05 852.40,495.07 855.14,495.08 857.88,495.09 860.62,495.10" fill="none" stroke="#0000ff" stroke-width="1"/>
<polyline points="860.62,15.93 863.36,15.93 866.10,15.92 868.84,15.91 871.58,15.89 874.32,15.87 877.05,15.84 879.79,15.81 882.53,15.77 885.27,15.73 888.01,15.68 890.75,15.63 893.49,15.57 896.23,15.50 898.97,15.44 901.71,15.36 904.45,15.29 907.19,15.20 909.93,15.12 912.67,15.03 915.41,14.93 918.15,14.83 920.89,14.73 923.63,14.62 926.37,14.50 929.11,14.39 931.85,14.26 934.59,14.14 937.33,14.01 940.07,13.88 942.81,13.74 945.55,13.60 948.29,13.46 951.03,13.31 953.77,13.16 956.51,13.01 959.25,12.86 961.99,12.70 964.73,12.54 967.47,12.38 970.21,12.22 972.95,12.05 975.68,11.88 978.42,11.72 981.16,11.55 983.90,11.38 986.64,11.21 989.38,11.03 992.12,10.86 994.86,10.69 997.60,10.52 1000.34,10.35 1003.08,10.17 1005.82,10.00" fill="none" stroke="#0000ff" stroke-width="1"/>
<polyline points="1011.30,509.83 1014.04,509.66 1016.78,509.49 1019.52,509.33 1022.26,509.16" fill="none" stroke="#0000ff" stroke-width="1"/>
<polyline points="25.00,258.88 27.74,258.71 30.48,258.56 33.22,258.40 35.96,258.24 38.70,258.09 41.44,257.94 44.18,257.80 46.92,257.66 49.66,257.52 52.40,257.38 55.14,257.25 57.88,257.12 60.62,256.99 63.36,256.87 66.10,256.75 68.84,256.64 71.58,256.53 74.32,256.43 77.05,256.32 79.79,256.23 82.53,256.14 85.27,256.05 88.01,255.96 90.75,255.89 93.49,255.81 96.23,255.74 98.97,255.68 101.71,255.62 104.45,255.56 107.19,255.51 109.93,255.47 112.67,255.43 115.41,255.39 118.15,255.36 120.89,255.33 123.63,255.31 126.37,255.29 129.11,255.28 131.85,255.27 134.59,255.27 137.33,255.27 140.07,255.28 142.81,255.28 145.55,255.30 148.29,255.32 151.03,255.34 153.77,255.37 156.51,255.40 159.25,255.43 161.99,255.47 164.73,255.51 167.47,255.56 170.21,255.61 172.95,255.66 175.68,255.72 178.42,255.78 181.16,255.84 183.90,255.90 186.64,255.97 189.38,256.05 192.12,256.12 194.86,256.20 197.60,256.28 200.34,256.36 203.08,256.44 205.82,256.53" fill="none" stroke="#ff0000" stroke-width="1"/>
<polyline points="208.56,235.78 211.30,235.87 214.04,235.96 216.78,236.06 219.52,236.15 222.26,236.25 225.00,236.35 227.74,236.45 230.48,236.55 233.22,236.65 235.96,236.75 238.70,236.85 241.44,236.96 244.18,237.06 246.92,237.17 249.66,237.27 252.40,237.37 255.14,237.48 257.88,237.58 260.62,237.69 263.36,237.79 266.10,237.90 268.84,238.00 271.58,238.10 274.32,238.20 277.05,238.31 279.79,238.41 282.53,238.50 285.27,238.60 288.01,238.70 290.75,238.79 293.49,238.89 296.23,238.98 298.97,239.07 301.71,239.16 304.45,239.25 307.19,239.33 309.93,239.41 312.67,239.50 315.41,239.57 318.15,239.65 320.89,239.72 323.63,239.80 326.37,239.86 329.11,239.93 331.85,240.00 334.59,240.06 337.33,240.11 340.07,240.17 342.81,240.22 345.55,240.27 348.29,240.32 351.03,240.36 353.77,240.40 356.51,240.44 359.25,240.48 361.99,240.51 364.73,240.53 367.47,240.56 370.21,240.58 372.95,240.60 375.68,240.61 378.42,240.62 381.16,240.63 383.90,240.64 386.64,240.64 389.38,240.64 392.12,240.63 394.86,240.62 397.60,240.61 400.34,240.60 403.08,240.58 405.82,240.56 408.56,240.54 411.30,240.51 414.04,240.48 416.78,240.45 419.52,240.41 422.26,240.37 425.00,240.33 427.74,240.29 430.48,240.24 433.22,240.19 435.96,240.14 438.70,240.08 441.44,240.03 444.18,239.97 446.92,239.91 449.66,239.85 452.40,239.79 455.14,239.72 457.88,239.65 460.62,239.58 463.36,239.51 466.10,239.44 468.84,239.37 471.58,239.30 474.32,239.23 477.05,239.15 479.79,239.08 482.53,239.00 485.27,238.93 488.01,238.85 490.75,238.77 493.49,238.70 496.23,238.62 498.97,238.55 501.71,238.47 504.45,238.40 507.19,238.33 509.93,238.26 512.67,238.19 515.41,238.12 518.15,238.05 520.89,237.98 523.63,237.92 526.37,237.85 529.11,237.79 531.85,237.73 534.59,237.68 537.33,237.62 540.07,237.57 542.81,237.52 545.55,237.47 548.29,237.42 551.03,237.38 553.77,237.34 556.51,237.30 559.25,237.27 561.99,237.24 564.73,237.21 567.47,237.18 570.21,237.16 572.95,237.14 575.68,237.13 578.42,237.11 581.16,237.10 583.90,237.10 586.64,237.10 589.38,237.10 592.12,237.10 594.86,237.11 597.60,237.12 600.34,237.14 603.08,237.16 605.82,237.18 608.56,237.21 611.30,237.24 614.04,237.27 616.78,237.31 619.52,237.35 622.26,237.39 625.00,237.44 627.74,237.49 630.48,237.54 633.22,237.59 635.96,237.65 638.70,237.72 641.44,237.78 644.18,237.85 646.92,237.93 649.66,238.00 652.40,238.08 655.14,238.16 657.88,238.24 660.62,238.33 663.36,238.42 666.10,238.51 668.84,238.60 671.58,238.70 674.32,238.80 677.05,238.90 679.79,239.00 682.53,239.11 685.27,239.21 688.01,239.32 690.75,239.43 693.49,239.54 696.23,239.66 698.97,239.77 701.71,239.89 704.45,240.01 707.19,240.12 709.93,240.24 712.67,240.37 715.41,240.49 718.15,240.61 720.89,240.73 723.63,240.85 726.37,240.98 729.11,241.10 731.85,241.23 734.59,241.35 737.33,241.47 740.07,241.60 742.81,241.72 745.55,241.84 748.29,241.97 751.03,242.09 753.77,242.21 756.51,242.33 759.25,242.45 761.99,242.57 764.73,242.68 767.47,242.80 770.21,242.91 772.95,243.02 775.68,243.14 778.42,243.24 781.16,243.35 783.90,243.46 786.64,243.56 789.38,243.66 792.12,243.76 794.86,243.85 797.60,243.94 800.34,244.03 803.08,244.12 805.82,244.21 808.56,244.29 811.30,244.36 814.04,244.44 816.78,244.51 819.52,244.58 822.26,244.64 825.00,244.70 827.74,244.76 830.48,244.81 833.22,244.86 835.96,244.90 838.70,244.94 841.44,244.98 844.18,245.01 846.92,245.04 849.66,245.06 852.40,245.08 855.14,245.09 857.88,245.10" fill="none" stroke="#ff0000" stroke-width="1"/>
<polyline points="860.62,265.93 863.36,265.93 866.10,265.93 868.84,265.92 871.58,265.90 874.32,265.88 877.05,265.85 879.79,265.82 882.53,265.79 885.27,265.75 888.01,265.70 890.75,265.65 893.49,265.60 896.23,265.54 898.97,265.47 901.71,265.40 904.45,265.33 907.19,265.25 909.93,265.16 912.67,265.07 915.41,264.98 918.15,264.88 920.89,264.78 923.63,264.67 926.37,264.56 929.11,264.44 931.85,264.32 934.59,264.20 937.33,264.07 940.07,263.94 942.81,263.81 945.55,263.67 948.29,263.53 951.03,263.38 953.77,263.24 956.51,263.09 959.25,262.93 961.99,262.78 964.73,262.62 967.47,262.46 970.21,262.30 972.95,262.13 975.68,261.97 978.42,261.80 981.16,261.63 983.90,261.46 986.64,261.29 989.38,261.12 992.12,260.95 994.86,260.78 997.60,260.60 1000.34,260.43 1003.08,260.26 1005.82,260.09 1008.56,259.92 1011.30,259.75 1014.04,259.58 1016.78,259.41 1019.52,259.24 1022.26,259.08" fill="none" stroke="#ff0000" stroke-width="1"/>
<line x1="240.07" y1="10.00" x2="240.07" y2="510.00" stroke="#00c000" stroke-width="1" />
<line x1="492.12" y1="10.00" x2="492.12" y2="510.00" stroke="#00c000" stroke-width="1" />
<line x1="749.66" y1="10.00" x2="749.66" y2="510.00" stroke="#00c000" stroke-width="1" />
<line x1="996.23" y1="10.00" x2="996.23" y2="510.00" stroke="#00c000" stroke-width="1" />
<text x="20.00" y="510.00" font-family="Arial" font-size="12" text-anchor="end" alignment-baseline="middle" fill="#000000">0</text>
<line x1="25.00" y1="510.00" x2="1025.00" y2="510.00" stroke="#808080" stroke-width="0.5" />
<text x="20.00" y="468.33" font-family="Arial" font-size="12" text-anchor="end" alignment-baseline="middle" fill="#000000">2</text>
<line x1="25.00" y1="468.33" x2="1025.00" y2="468.33" stroke="#808080" stroke-width="0.5" />
<text x="20.00" y="426.67" font-family="Arial" font-size="12" text-anchor="end" alignment-baseline="middle" fill="#000000">4</text>
<line x1="25.00" y1="426.67" x2="1025.00" y2="426.67" stroke="#808080" stroke-width="0.5" />
<text x="20.00" y="385.00" font-family="Arial" font-size="12" text-anchor="end" alignment-baseline="middle" fill="#000000">6</text>
<line x1="25.00" y1="385.00" x2="1025.00" y2="385.00" stroke="#808080" stroke-width="0.5" />
<text x="20.00" y="343.33" font-family="Arial" font-size="12" text-anchor="end" alignment-baseline="middle" fill="#000000">8</text>
<line x1="25.00" y1="343.33" x2="1025.00" y2="343.33" stroke="#808080" stroke-width="0.5" />
<text x="20.00" y="301.67" font-family="Arial" font-size="12" text-anchor="end" alignment-baseline="middle" fill="#000000">10</text>
<line x1="25.00" y1="301.67" x2="1025.00" y2="301.67" stroke="#808080" stroke-width="0.5" />
<text x="20.00" y="260.00" font-family="Arial" font-size="12" text-anchor="end" alignment-baseline="middle" fill="#000000">12</text>
<line x1="25.00" y1="260.00" x2="1025.00" y2="260.00" stroke="#808080" stroke-width="0.5" />
<text x="20.00" y="218.33" font-family="Arial" font-size="12" text-anchor="end" alignment-baseline="middle" fill="#000000">14</text>
<line x1="25.00" y1="218.33" x2="1025.00" y2="218.33" stroke="#808080" stroke-width="0.5" />
<text x="20.00" y="176.67" font-family="Arial" font-size="12" text-anchor="end" alignment-baseline="middle" fill="#000000">16</text>
<line x1="25.00" y1="176.67" x2="1025.00" y2="176.67" stroke="#808080" stroke-width="0.5" />
<text x="20.00" y="135.00" font-family="Arial" font-size="12" text-anchor="end" alignment-baseline="middle" fill="#000000">18</text>
<line x1="25.00" y1="135.00" x2="1025.00" y2="135.00" stroke="#808080" stroke-width="0.5" />
<text x="20.00" y="93.33" font-family="Arial" font-size="12" text-anchor="end" alignment-baseline="middle" fill="#000000">20</text>
<line x1="25.00" y1="93.33" x2="1025.00" y2="93.33" stroke="#808080" stroke-width="0.5" />
<text x="20.00" y="51.67" font-family="Arial" font-size="12" text-anchor="end" alignment-baseline="middle" fill="#000000">22</text>
<line x1="25.00" y1="51.67" x2="1025.00" y2="51.67" stroke="#808080" stroke-width="0.5" />
<text x="20.00" y="10.00" font-family="Arial" font-size="12" text-anchor="end" alignment-baseline="middle" fill="#000000">24</text>
<line x1="25.00" y1="10.00" x2="1025.00" y2="10.00" stroke="#808080" stroke-width="0.5" />
<text x="67.47" y="522.00" font-family="Arial" font-size="12" text-anchor="middle" alignment-baseline="middle" fill="#000000">Jan</text>
<line x1="25.00" y1="10.00" x2="25.00" y2="510.00" stroke="#808080" stroke-width="0.5" />
<text x="148.29" y="522.00" font-family="Arial" font-size="12" text-anchor="middle" alignment-baseline="middle" fill="#000000">Feb</text>
<line x1="109.93" y1="10.00" x2="109.93" y2="510.00" stroke="#808080" stroke-width="0.5" />
<text x="229.11" y="522.00" font-family="Arial" font-size="12" text-anchor="middle" alignment-baseline="middle" fill="#000000">Mar</text>
<line x1="186.64" y1="10.00" x2="186.64" y2="510.00" stroke="#808080" stroke-width="0.5" />
<text x="312.67" y="522.00" font-family="Arial" font-size="12" text-anchor="middle" alignment-baseline="middle" fill="#000000">Apr</text>
<line x1="271.58" y1="10.00" x2="271.58" y2="510.00" stroke="#808080" stroke-width="0.5" />
<text x="396.23" y="522.00" font-family="Arial" font-size="12" text-anchor="middle" alignment-baseline="middle" fill="#000000">May</text>
<line x1="353.77" y1="10.00" x2="353.77" y2="510.00" stroke="#808080" stroke-width="0.5" />
<text x="479.79" y="522.00" font-family="Arial" font-size="12" text-anchor="middle" alignment-baseline="middle" fill="#000000">Jun</text>
<line x1="438.70" y1="10.00" x2="438.70" y2="510.00" stroke="#808080" stroke-width="0.5" />
<text x="563.36" y="522.00" font-family="Arial" font-size="12" text-anchor="middle" alignment-baseline="middle" fill="#000000">Jul</text>
<line x1="520.89" y1="10.00" x2="520.89" y2="510.00" stroke="#808080" stroke-width="0.5" />
<text x="648.29" y="522.00" font-family="Arial" font-size="12" text-anchor="middle" alignment-baseline="middle" fill="#000000">Aug</text>
<line x1="605.82" y1="10.00" x2="605.82" y2="510.00" stroke="#808080" stroke-width="0.5" />
<text x="731.85" y="522.00" font-family="Arial" font-size="12" text-anchor="middle" alignment-baseline="middle" fill="#000000">Sep</text>
<line x1="690.75" y1="10.00" x2="690.75" y2="510.00" stroke="#808080" stroke-width="0.5" />
<text x="815.41" y="522.00" font-family="Arial" font-size="12" text-anchor="middle" alignment-baseline="middle" fill="#000000">Oct</text>
<line x1="772.95" y1="10.00" x2="772.95" y2="510.00" stroke="#808080" stroke-width="0.5" />
<text x="898.97" y="522.00" font-family="Arial" font-size="12" text-anchor="middle" alignment-baseline="middle" fill="#000000">Nov</text>
<line x1="857.88" y1="10.00" x2="857.88" y2="510.00" stroke="#808080" stroke-width="0.5" />
<text x="982.53" y="522.00" font-family="Arial" font-size="12" text-anchor="middle" alignment-baseline="middle" fill="#000000">Dec</text>
<line x1="940.07" y1="10.00" x2="940.07" y2="510.00" stroke="#808080" stroke-width="0.5" />
<line x1="1025.00" y1="10.00" x2="1025.00" y2="510.00" stroke="#808080" stroke-width="0.5" />
</svg>