<svg xmlns="http://www.w3.org/2000/svg" width="1035" height="535" viewBox="0 0 1035 535">
<rect x="0" y="0" width="1035" height="535" fill="#ffffff" stroke="none" stroke-width="0"/>
<rect x="25" y="10" width="1000" height="500" fill="#000000" stroke="none" stroke-width="0"/>
<polygon points="25.00,510.00 25.00,241.26 27.75,241.10 30.49,240.92 33.24,240.73 35.99,240.53 38.74,240.31 41.48,240.08 44.23,239.84 46.98,239.58 49.73,239.32 52.47,239.04 55.22,238.74 57.97,238.44 60.71,238.12 63.46,237.79 66.21,237.45 68.96,237.10 71.70,236.74 74.45,236.36 77.20,235.98 79.95,235.58 82.69,235.17 85.44,234.76 88.19,234.33 90.93,233.89 93.68,233.44 96.43,232.98 99.18,232.51 101.92,232.03 104.67,231.54 107.42,231.05 110.16,230.54 112.91,230.02 115.66,229.50 118.41,228.97 121.15,228.42 123.90,227.87 126.65,227.31 129.40,226.75 132.14,226.17 134.89,225.59 137.64,225.00 140.38,224.40 143.13,223.79 145.88,223.18 148.63,222.56 151.37,221.93 154.12,221.29 156.87,220.65 159.62,220.00 162.36,219.34 165.11,218.68 167.86,218.01 170.60,217.33 173.35,216.65 176.10,215.96 178.85,215.27 181.59,214.57 184.34,213.86 187.09,213.14 189.84,212.43 192.58,211.70 195.33,210.97 198.08,210.23 200.82,209.49 203.57,208.75 206.32,207.99 209.07,207.24 211.81,206.47 214.56,205.70 217.31,204.93 220.05,204.15 222.80,203.37 225.55,202.58 228.30,201.79 231.04,201.00 233.79,200.19 236.54,199.39 239.29,198.58 242.03,197.76 244.78,196.94 247.53,196.12 250.27,195.29 253.02,194.46 255.77,193.63 258.52,192.79 261.26,191.95 264.01,191.10 266.76,190.25 269.51,189.40 272.25,188.54 275.00,187.68 277.75,186.82 280.49,185.96 283.24,185.09 285.99,184.22 288.74,183.35 291.48,182.47 294.23,181.60 296.98,180.72 299.73,179.84 302.47,178.96 305.22,178.08 307.97,177.20 310.71,176.31 313.46,175.43 316.21,174.54 318.96,173.66 321.70,172.77 324.45,171.89 327.20,171.00 329.95,170.12 332.69,169.24 335.44,168.35 338.19,167.48 340.93,166.60 343.68,165.72 346.43,164.85 349.18,163.98 351.92,163.12 354.67,162.26 357.42,161.40 360.16,160.55 362.91,159.70 365.66,158.86 368.41,158.02 371.15,157.19 373.90,156.37 376.65,155.56 379.40,154.75 382.14,153.95 384.89,153.17 387.64,152.39 390.38,151.62 393.13,150.86 395.88,150.11 398.63,149.38 401.37,148.65 404.12,147.94 406.87,147.24 409.62,146.56 412.36,145.89 415.11,145.24 417.86,144.60 420.60,143.98 423.35,143.37 426.10,142.79 428.85,142.22 431.59,141.67 434.34,141.14 437.09,140.63 439.84,140.14 442.58,139.67 445.33,139.22 448.08,138.80 450.82,138.40 453.57,138.02 456.32,137.66 459.07,137.33 461.81,137.02 464.56,136.74 467.31,136.48 470.05,136.25 472.80,136.04 475.55,135.86 478.30,135.71 481.04,135.58 483.79,135.48 486.54,135.41 489.29,135.36 492.03,135.34 494.78,135.34 497.53,135.38 500.27,135.44 503.02,135.52 505.77,135.64 508.52,135.78 511.26,135.94 514.01,136.13 516.76,136.35 519.51,136.59 522.25,136.86 525.00,137.16 527.75,137.47 530.49,137.81 533.24,138.18 535.99,138.57 538.74,138.98 541.48,139.41 544.23,139.86 546.98,140.34 549.73,140.83 552.47,141.35 555.22,141.88 557.97,142.43 560.71,143.01 563.46,143.60 566.21,144.20 568.96,144.83 571.70,145.46 574.45,146.12 577.20,146.79 579.95,147.47 582.69,148.17 585.44,148.88 588.19,149.60 590.93,150.33 593.68,151.08 596.43,151.83 599.18,152.60 601.92,153.37 604.67,154.16 607.42,154.95 610.16,155.75 612.91,156.56 615.66,157.37 618.41,158.19 621.15,159.02 623.90,159.85 626.65,160.69 629.40,161.53 632.14,162.38 634.89,163.23 637.64,164.09 640.38,164.95 643.13,165.81 645.88,166.67 648.63,167.54 651.37,168.41 654.12,169.28 656.87,170.15 659.62,171.02 662.36,171.89 665.11,172.77 667.86,173.64 670.60,174.51 673.35,175.39 676.10,176.26 678.85,177.13 681.59,178.00 684.34,178.87 687.09,179.74 689.84,180.61 692.58,181.48 695.33,182.34 698.08,183.20 700.82,184.06 703.57,184.92 706.32,185.77 709.07,186.62 711.81,187.47 714.56,188.32 717.31,189.16 720.05,190.00 722.80,190.84 725.55,191.67 728.30,192.50 731.04,193.33 733.79,194.15 736.54,194.97 739.29,195.79 742.03,196.60 744.78,197.41 747.53,198.22 750.27,199.02 753.02,199.81 755.77,200.60 758.52,201.39 761.26,202.17 764.01,202.95 766.76,203.73 769.51,204.50 772.25,205.26 775.00,206.02 777.75,206.77 780.49,207.52 783.24,208.27 785.99,209.01 788.74,209.74 791.48,210.47 794.23,211.19 796.98,211.91 799.73,212.62 802.47,213.33 805.22,214.03 807.97,214.73 810.71,215.42 813.46,216.10 816.21,216.78 818.96,217.45 821.70,218.12 824.45,218.78 827.20,219.43 829.95,220.08 832.69,220.72 835.44,221.35 838.19,221.98 840.93,222.60 843.68,223.21 846.43,223.82 849.18,224.42 851.92,225.01 854.67,225.59 857.42,226.17 860.16,226.74 862.91,227.30 865.66,227.85 868.41,228.39 871.15,228.93 873.90,229.46 876.65,229.98 879.40,230.49 882.14,230.99 884.89,231.49 887.64,231.97 890.38,232.44 893.13,232.91 895.88,233.37 898.63,233.81 901.37,234.25 904.12,234.68 906.87,235.09 909.62,235.50 912.36,235.90 915.11,236.28 917.86,236.65 920.60,237.02 923.35,237.37 926.10,237.71 928.85,238.04 931.59,238.36 934.34,238.66 937.09,238.96 939.84,239.24 942.58,239.51 945.33,239.77 948.08,240.01 950.82,240.24 953.57,240.46 956.32,240.67 959.07,240.86 961.81,241.04 964.56,241.21 967.31,241.37 970.05,241.51 972.80,241.64 975.55,241.75 978.30,241.85 981.04,241.94 983.79,242.01 986.54,242.07 989.29,242.11 992.03,242.15 994.78,242.16 997.53,242.17 1000.27,242.16 1003.02,242.13 1005.77,242.10 1008.52,242.05 1011.26,241.98 1014.01,241.90 1016.76,241.81 1019.51,241.70 1022.25,241.58 1025.00,241.45 1025.00,510.00" fill="#002040" stroke="none" stroke-width="0"/>
<polygon points="25.00,510.00 25.00,262.49 27.75,262.32 30.49,262.12 33.24,261.92 35.99,261.70 38.74,261.46 41.48,261.22 44.23,260.95 46.98,260.68 49.73,260.39 52.47,260.09 55.22,259.78 57.97,259.45 60.71,259.11 63.46,258.76 66.21,258.39 68.96,258.02 71.70,257.63 74.45,257.23 77.20,256.82 79.95,256.40 82.69,255.97 85.44,255.52 88.19,255.07 90.93,254.61 93.68,254.13 96.43,253.65 99.18,253.15 101.92,252.65 104.67,252.14 107.42,251.62 110.16,251.09 112.91,250.55 115.66,250.00 118.41,249.44 121.15,248.88 123.90,248.31 126.65,247.73 129.40,247.14 132.14,246.55 134.89,245.95 137.64,245.34 140.38,244.72 143.13,244.10 145.88,243.47 148.63,242.84 151.37,242.20 154.12,241.55 156.87,240.90 159.62,240.24 162.36,239.57 165.11,238.90 167.86,238.23 170.60,237.55 173.35,236.86 176.10,236.17 178.85,235.47 181.59,234.77 184.34,234.07 187.09,233.36 189.84,232.64 192.58,231.92 195.33,231.20 198.08,230.47 200.82,229.74 203.57,229.01 206.32,228.27 209.07,227.53 211.81,226.78 214.56,226.03 217.31,225.28 220.05,224.53 222.80,223.77 225.55,223.00 228.30,222.24 231.04,221.47 233.79,220.70 236.54,219.93 239.29,219.15 242.03,218.37 244.78,217.59 247.53,216.80 250.27,216.02 253.02,215.23 255.77,214.44 258.52,213.65 261.26,212.85 264.01,212.06 266.76,211.26 269.51,210.46 272.25,209.66 275.00,208.86 277.75,208.06 280.49,207.25 283.24,206.45 285.99,205.64 288.74,204.84 291.48,204.03 294.23,203.23 296.98,202.42 299.73,201.62 302.47,200.81 305.22,200.01 307.97,199.20 310.71,198.40 313.46,197.60 316.21,196.80 318.96,196.00 321.70,195.20 324.45,194.41 327.20,193.61 329.95,192.82 332.69,192.04 335.44,191.25 338.19,190.47 340.93,189.69 343.68,188.91 346.43,188.14 349.18,187.38 351.92,186.62 354.67,185.86 357.42,185.11 360.16,184.36 362.91,183.63 365.66,182.89 368.41,182.17 371.15,181.45 373.90,180.74 376.65,180.04 379.40,179.34 382.14,178.66 384.89,177.98 387.64,177.31 390.38,176.66 393.13,176.01 395.88,175.37 398.63,174.75 401.37,174.13 404.12,173.53 406.87,172.94 409.62,172.37 412.36,171.81 415.11,171.26 417.86,170.72 420.60,170.20 423.35,169.70 426.10,169.21 428.85,168.74 431.59,168.28 434.34,167.84 437.09,167.42 439.84,167.01 442.58,166.63 445.33,166.26 448.08,165.91 450.82,165.58 453.57,165.27 456.32,164.97 459.07,164.70 461.81,164.45 464.56,164.22 467.31,164.01 470.05,163.82 472.80,163.65 475.55,163.51 478.30,163.38 481.04,163.28 483.79,163.19 486.54,163.13 489.29,163.09 492.03,163.08 494.78,163.08 497.53,163.11 500.27,163.16 503.02,163.23 505.77,163.32 508.52,163.43 511.26,163.57 514.01,163.73 516.76,163.90 519.51,164.10 522.25,164.32 525.00,164.56 527.75,164.82 530.49,165.10 533.24,165.40 535.99,165.72 538.74,166.05 541.48,166.41 544.23,166.79 546.98,167.18 549.73,167.59 552.47,168.01 555.22,168.46 557.97,168.92 560.71,169.39 563.46,169.89 566.21,170.39 568.96,170.91 571.70,171.45 574.45,172.00 577.20,172.56 579.95,173.14 582.69,173.73 585.44,174.33 588.19,174.94 590.93,175.56 593.68,176.19 596.43,176.84 599.18,177.49 601.92,178.16 604.67,178.83 607.42,179.51 610.16,180.20 612.91,180.90 615.66,181.60 618.41,182.32 621.15,183.03 623.90,183.76 626.65,184.49 629.40,185.23 632.14,185.97 634.89,186.72 637.64,187.47 640.38,188.23 643.13,188.99 645.88,189.75 648.63,190.52 651.37,191.30 654.12,192.07 656.87,192.85 659.62,193.63 662.36,194.41 665.11,195.20 667.86,195.98 670.60,196.77 673.35,197.56 676.10,198.35 678.85,199.15 681.59,199.94 684.34,200.73 687.09,201.53 689.84,202.32 692.58,203.12 695.33,203.91 698.08,204.70 700.82,205.50 703.57,206.29 706.32,207.08 709.07,207.87 711.81,208.66 714.56,209.45 717.31,210.24 720.05,211.03 722.80,211.81 725.55,212.60 728.30,213.38 731.04,214.16 733.79,214.94 736.54,215.72 739.29,216.49 742.03,217.26 744.78,218.03 747.53,218.80 750.27,219.57 753.02,220.33 755.77,221.09 758.52,221.85 761.26,222.61 764.01,223.36 766.76,224.11 769.51,224.86 772.25,225.60 775.00,226.34 777.75,227.08 780.49,227.81 783.24,228.54 785.99,229.26 788.74,229.99 791.48,230.70 794.23,231.42 796.98,232.13 799.73,232.84 802.47,233.54 805.22,234.24 807.97,234.93 810.71,235.62 813.46,236.31 816.21,236.99 818.96,237.66 821.70,238.33 824.45,239.00 827.20,239.66 829.95,240.31 832.69,240.96 835.44,241.61 838.19,242.25 840.93,242.88 843.68,243.51 846.43,244.13 849.18,244.74 851.92,245.35 854.67,245.95 857.42,246.54 860.16,247.13 862.91,247.71 865.66,248.28 868.41,248.85 871.15,249.41 873.90,249.96 876.65,250.50 879.40,251.03 882.14,251.56 884.89,252.08 887.64,252.58 890.38,253.08 893.13,253.57 895.88,254.05 898.63,254.53 901.37,254.99 904.12,255.44 906.87,255.88 909.62,256.31 912.36,256.73 915.11,257.14 917.86,257.54 920.60,257.93 923.35,258.30 926.10,258.67 928.85,259.02 931.59,259.36 934.34,259.69 937.09,260.01 939.84,260.31 942.58,260.60 945.33,260.88 948.08,261.14 950.82,261.39 953.57,261.63 956.32,261.85 959.07,262.06 961.81,262.26 964.56,262.44 967.31,262.60 970.05,262.76 972.80,262.90 975.55,263.02 978.30,263.13 981.04,263.22 983.79,263.30 986.54,263.37 989.29,263.42 992.03,263.45 994.78,263.47 997.53,263.47 1000.27,263.46 1003.02,263.44 1005.77,263.40 1008.52,263.34 1011.26,263.27 1014.01,263.18 1016.76,263.08 1019.51,262.97 1022.25,262.84 1025.00,262.69 1025.00,510.00" fill="#004080" stroke="none" stroke-width="0"/>
<polygon points="25.00,510.00 25.00,284.25 27.75,284.06 30.49,283.85 33.24,283.62 35.99,283.38 38.74,283.12 41.48,282.85 44.23,282.57 46.98,282.27 49.73,281.95 52.47,281.63 55.22,281.28 57.97,280.93 60.71,280.56 63.46,280.18 66.21,279.78 68.96,279.38 71.70,278.96 74.45,278.53 77.20,278.08 79.95,277.63 82.69,277.16 85.44,276.69 88.19,276.20 90.93,275.70 93.68,275.19 96.43,274.67 99.18,274.15 101.92,273.61 104.67,273.06 107.42,272.51 110.16,271.94 112.91,271.37 115.66,270.79 118.41,270.21 121.15,269.61 123.90,269.01 126.65,268.40 129.40,267.78 132.14,267.16 134.89,266.53 137.64,265.89 140.38,265.25 143.13,264.60 145.88,263.95 148.63,263.29 151.37,262.63 154.12,261.96 156.87,261.28 159.62,260.60 162.36,259.92 165.11,259.23 167.86,258.54 170.60,257.84 173.35,257.14 176.10,256.44 178.85,255.73 181.59,255.02 184.34,254.30 187.09,253.58 189.84,252.86 192.58,252.14 195.33,251.41 198.08,250.68 200.82,249.95 203.57,249.21 206.32,248.48 209.07,247.74 211.81,247.00 214.56,246.25 217.31,245.51 220.05,244.76 222.80,244.01 225.55,243.26 228.30,242.51 231.04,241.75 233.79,241.00 236.54,240.24 239.29,239.48 242.03,238.72 244.78,237.97 247.53,237.20 250.27,236.44 253.02,235.68 255.77,234.92 258.52,234.16 261.26,233.39 264.01,232.63 266.76,231.87 269.51,231.10 272.25,230.34 275.00,229.58 277.75,228.82 280.49,228.05 283.24,227.29 285.99,226.53 288.74,225.77 291.48,225.02 294.23,224.26 296.98,223.51 299.73,222.75 302.47,222.00 305.22,221.25 307.97,220.50 310.71,219.76 313.46,219.01 316.21,218.27 318.96,217.54 321.70,216.80 324.45,216.07 327.20,215.34 329.95,214.62 332.69,213.90 335.44,213.18 338.19,212.47 340.93,211.76 343.68,211.05 346.43,210.35 349.18,209.66 351.92,208.97 354.67,208.29 357.42,207.61 360.16,206.94 362.91,206.28 365.66,205.63 368.41,204.98 371.15,204.34 373.90,203.70 376.65,203.08 379.40,202.46 382.14,201.85 384.89,201.25 387.64,200.66 390.38,200.08 393.13,199.51 395.88,198.95 398.63,198.40 401.37,197.86 404.12,197.34 406.87,196.82 409.62,196.32 412.36,195.83 415.11,195.35 417.86,194.89 420.60,194.43 423.35,194.00 426.10,193.57 428.85,193.16 431.59,192.77 434.34,192.39 437.09,192.02 439.84,191.67 442.58,191.34 445.33,191.02 448.08,190.72 450.82,190.44 453.57,190.17 456.32,189.92 459.07,189.69 461.81,189.47 464.56,189.27 467.31,189.09 470.05,188.93 472.80,188.79 475.55,188.66 478.30,188.55 481.04,188.46 483.79,188.39 486.54,188.34 489.29,188.31 492.03,188.30 494.78,188.30 497.53,188.32 500.27,188.36 503.02,188.42 505.77,188.50 508.52,188.60 511.26,188.72 514.01,188.85 516.76,189.00 519.51,189.17 522.25,189.36 525.00,189.56 527.75,189.79 530.49,190.03 533.24,190.28 535.99,190.56 538.74,190.85 541.48,191.15 544.23,191.48 546.98,191.81 549.73,192.17 552.47,192.54 555.22,192.92 557.97,193.32 560.71,193.73 563.46,194.16 566.21,194.60 568.96,195.05 571.70,195.52 574.45,196.00 577.20,196.49 579.95,196.99 582.69,197.51 585.44,198.03 588.19,198.57 590.93,199.12 593.68,199.68 596.43,200.24 599.18,200.82 601.92,201.41 604.67,202.01 607.42,202.61 610.16,203.22 612.91,203.84 615.66,204.47 618.41,205.11 621.15,205.75 623.90,206.40 626.65,207.06 629.40,207.72 632.14,208.39 634.89,209.07 637.64,209.75 640.38,210.43 643.13,211.12 645.88,211.82 648.63,212.52 651.37,213.22 654.12,213.93 656.87,214.64 659.62,215.36 662.36,216.07 665.11,216.80 667.86,217.52 670.60,218.25 673.35,218.98 676.10,219.71 678.85,220.45 681.59,221.19 684.34,221.93 687.09,222.67 689.84,223.41 692.58,224.15 695.33,224.90 698.08,225.65 700.82,226.39 703.57,227.14 706.32,227.89 709.07,228.64 711.81,229.39 714.56,230.14 717.31,230.89 720.05,231.64 722.80,232.40 725.55,233.15 728.30,233.90 731.04,234.65 733.79,235.40 736.54,236.15 739.29,236.90 742.03,237.65 744.78,238.40 747.53,239.15 750.27,239.89 753.02,240.64 755.77,241.38 758.52,242.13 761.26,242.87 764.01,243.61 766.76,244.35 769.51,245.08 772.25,245.82 775.00,246.55 777.75,247.29 780.49,248.02 783.24,248.74 785.99,249.47 788.74,250.19 791.48,250.91 794.23,251.63 796.98,252.35 799.73,253.06 802.47,253.77 805.22,254.47 807.97,255.18 810.71,255.88 813.46,256.58 816.21,257.27 818.96,257.96 821.70,258.65 824.45,259.33 827.20,260.01 829.95,260.68 832.69,261.35 835.44,262.02 838.19,262.68 840.93,263.33 843.68,263.98 846.43,264.63 849.18,265.27 851.92,265.90 854.67,266.53 857.42,267.15 860.16,267.77 862.91,268.38 865.66,268.98 868.41,269.58 871.15,270.17 873.90,270.75 876.65,271.32 879.40,271.89 882.14,272.44 884.89,272.99 887.64,273.54 890.38,274.07 893.13,274.59 895.88,275.11 898.63,275.61 901.37,276.11 904.12,276.59 906.87,277.07 909.62,277.53 912.36,277.99 915.11,278.43 917.86,278.86 920.60,279.28 923.35,279.68 926.10,280.08 928.85,280.46 931.59,280.83 934.34,281.19 937.09,281.53 939.84,281.86 942.58,282.18 945.33,282.48 948.08,282.77 950.82,283.04 953.57,283.30 956.32,283.55 959.07,283.78 961.81,283.99 964.56,284.19 967.31,284.37 970.05,284.54 972.80,284.69 975.55,284.83 978.30,284.95 981.04,285.05 983.79,285.14 986.54,285.21 989.29,285.26 992.03,285.30 994.78,285.32 997.53,285.33 1000.27,285.32 1003.02,285.29 1005.77,285.24 1008.52,285.18 1011.26,285.10 1014.01,285.01 1016.76,284.90 1019.51,284.77 1022.25,284.63 1025.00,284.47 1025.00,510.00" fill="#0060c0" stroke="none" stroke-width="0"/>
<polygon points="25.00,510.00 25.00,303.56 27.75,303.34 30.49,303.11 33.24,302.87 35.99,302.60 38.74,302.32 41.48,302.03 44.23,301.72 46.98,301.39 49.73,301.05 52.47,300.69 55.22,300.32 57.97,299.93 60.71,299.53 63.46,299.11 66.21,298.68 68.96,298.24 71.70,297.79 74.45,297.32 77.20,296.84 79.95,296.35 82.69,295.85 85.44,295.34 88.19,294.81 90.93,294.28 93.68,293.73 96.43,293.17 99.18,292.61 101.92,292.03 104.67,291.45 107.42,290.86 110.16,290.26 112.91,289.65 115.66,289.03 118.41,288.41 121.15,287.78 123.90,287.14 126.65,286.49 129.40,285.84 132.14,285.19 134.89,284.52 137.64,283.85 140.38,283.18 143.13,282.50 145.88,281.82 148.63,281.13 151.37,280.43 154.12,279.74 156.87,279.03 159.62,278.33 162.36,277.62 165.11,276.90 167.86,276.19 170.60,275.47 173.35,274.75 176.10,274.02 178.85,273.29 181.59,272.56 184.34,271.83 187.09,271.09 189.84,270.36 192.58,269.62 195.33,268.88 198.08,268.14 200.82,267.39 203.57,266.65 206.32,265.90 209.07,265.15 211.81,264.41 214.56,263.66 217.31,262.91 220.05,262.16 222.80,261.41 225.55,260.66 228.30,259.90 231.04,259.15 233.79,258.40 236.54,257.65 239.29,256.90 242.03,256.15 244.78,255.40 247.53,254.64 250.27,253.89 253.02,253.14 255.77,252.40 258.52,251.65 261.26,250.90 264.01,250.15 266.76,249.41 269.51,248.66 272.25,247.92 275.00,247.18 277.75,246.44 280.49,245.70 283.24,244.97 285.99,244.23 288.74,243.50 291.48,242.77 294.23,242.05 296.98,241.32 299.73,240.60 302.47,239.88 305.22,239.17 307.97,238.45 310.71,237.74 313.46,237.04 316.21,236.33 318.96,235.64 321.70,234.94 324.45,234.25 327.20,233.56 329.95,232.88 332.69,232.20 335.44,231.53 338.19,230.86 340.93,230.19 343.68,229.54 346.43,228.88 349.18,228.24 351.92,227.60 354.67,226.96 357.42,226.33 360.16,225.71 362.91,225.10 365.66,224.49 368.41,223.89 371.15,223.30 373.90,222.71 376.65,222.14 379.40,221.57 382.14,221.01 384.89,220.46 387.64,219.92 390.38,219.39 393.13,218.87 395.88,218.36 398.63,217.86 401.37,217.37 404.12,216.89 406.87,216.42 409.62,215.96 412.36,215.52 415.11,215.08 417.86,214.66 420.60,214.25 423.35,213.86 426.10,213.48 428.85,213.11 431.59,212.75 434.34,212.41 437.09,212.08 439.84,211.76 442.58,211.47 445.33,211.18 448.08,210.91 450.82,210.65 453.57,210.42 456.32,210.19 459.07,209.98 461.81,209.79 464.56,209.61 467.31,209.45 470.05,209.31 472.80,209.18 475.55,209.06 478.30,208.97 481.04,208.89 483.79,208.83 486.54,208.78 489.29,208.75 492.03,208.74 494.78,208.74 497.53,208.76 500.27,208.80 503.02,208.85 505.77,208.92 508.52,209.01 511.26,209.11 514.01,209.23 516.76,209.37 519.51,209.52 522.25,209.69 525.00,209.87 527.75,210.07 530.49,210.29 533.24,210.52 535.99,210.76 538.74,211.02 541.48,211.30 544.23,211.59 546.98,211.89 549.73,212.21 552.47,212.54 555.22,212.89 557.97,213.25 560.71,213.62 563.46,214.01 566.21,214.40 568.96,214.81 571.70,215.24 574.45,215.67 577.20,216.12 579.95,216.57 582.69,217.04 585.44,217.52 588.19,218.01 590.93,218.51 593.68,219.02 596.43,219.54 599.18,220.07 601.92,220.61 604.67,221.15 607.42,221.71 610.16,222.27 612.91,222.85 615.66,223.43 618.41,224.01 621.15,224.61 623.90,225.21 626.65,225.82 629.40,226.43 632.14,227.05 634.89,227.68 637.64,228.31 640.38,228.95 643.13,229.60 645.88,230.25 648.63,230.90 651.37,231.57 654.12,232.23 656.87,232.90 659.62,233.57 662.36,234.25 665.11,234.94 667.86,235.62 670.60,236.31 673.35,237.01 676.10,237.70 678.85,238.40 681.59,239.11 684.34,239.81 687.09,240.52 689.84,241.23 692.58,241.95 695.33,242.66 698.08,243.38 700.82,244.10 703.57,244.82 706.32,245.55 709.07,246.27 711.81,247.00 714.56,247.73 717.31,248.46 720.05,249.19 722.80,249.92 725.55,250.66 728.30,251.39 731.04,252.13 733.79,252.87 736.54,253.60 739.29,254.34 742.03,255.08 744.78,255.82 747.53,256.56 750.27,257.30 753.02,258.04 755.77,258.78 758.52,259.52 761.26,260.27 764.01,261.01 766.76,261.75 769.51,262.48 772.25,263.22 775.00,263.96 777.75,264.70 780.49,265.43 783.24,266.17 785.99,266.90 788.74,267.64 791.48,268.37 794.23,269.10 796.98,269.83 799.73,270.55 802.47,271.28 805.22,272.00 807.97,272.73 810.71,273.44 813.46,274.16 816.21,274.88 818.96,275.59 821.70,276.30 824.45,277.00 827.20,277.71 829.95,278.41 832.69,279.10 835.44,279.80 838.19,280.48 840.93,281.17 843.68,281.85 846.43,282.53 849.18,283.20 851.92,283.86 854.67,284.52 857.42,285.18 860.16,285.83 862.91,286.47 865.66,287.11 868.41,287.74 871.15,288.36 873.90,288.98 876.65,289.59 879.40,290.19 882.14,290.79 884.89,291.38 887.64,291.96 890.38,292.53 893.13,293.09 895.88,293.64 898.63,294.18 901.37,294.71 904.12,295.24 906.87,295.75 909.62,296.25 912.36,296.74 915.11,297.22 917.86,297.68 920.60,298.14 923.35,298.58 926.10,299.01 928.85,299.42 931.59,299.82 934.34,300.21 937.09,300.59 939.84,300.95 942.58,301.29 945.33,301.62 948.08,301.94 950.82,302.23 953.57,302.52 956.32,302.79 959.07,303.04 961.81,303.27 964.56,303.49 967.31,303.69 970.05,303.87 972.80,304.04 975.55,304.19 978.30,304.32 981.04,304.44 983.79,304.53 986.54,304.61 989.29,304.67 992.03,304.71 994.78,304.73 997.53,304.74 1000.27,304.73 1003.02,304.70 1005.77,304.65 1008.52,304.58 1011.26,304.49 1014.01,304.39 1016.76,304.27 1019.51,304.13 1022.25,303.97 1025.00,303.80 1025.00,510.00" fill="#80c0ff" stroke="none" stroke-width="0"/>
<line x1="239.29" y1="10.00" x2="239.29" y2="510.00" stroke="#00c000" stroke-width="1" />
<line x1="492.03" y1="10.00" x2="492.03" y2="510.00" stroke="#00c000" stroke-width="1" />
<line x1="750.27" y1="10.00" x2="750.27" y2="510.00" stroke="#00c000" stroke-width="1" />
<line x1="997.53" y1="10.00" x2="997.53" y2="510.00" stroke="#00c000" stroke-width="1" />
<text x="20.00" y="510.00" font-family="Arial" font-size="12" text-anchor="end" alignment-baseline="middle" fill="#000000">0</text>
<line x1="25.00" y1="510.00" x2="1025.00" y2="510.00" stroke="#808080" stroke-width="0.5" />
<text x="20.00" y="468.33" font-family="Arial" font-size="12" text-anchor="end" alignment-baseline="middle" fill="#000000">2</text>
<line x1="25.00" y1="468.33" x2="1025.00" y2="468.33" stroke="#808080" stroke-width="0.5" />
<text x="20.00" y="426.67" font-family="Arial" font-size="12" text-anchor="end" alignment-baseline="middle" fill="#000000">4</text>
<line x1="25.00" y1="426.67" x2="1025.00" y2="426.67" stroke="#808080" stroke-width="0.5" />
<text x="20.00" y="385.00" font-family="Arial" font-size="12" text-anchor="end" alignment-baseline="middle" fill="#000000">6</text>
<line x1="25.00" y1="385.00" x2="1025.00" y2="385.00" stroke="#808080" stroke-width="0.5" />
<text x="20.00" y="343.33" font-family="Arial" font-size="12" text-anchor="end" alignment-baseline="middle" fill="#000000">8</text>
<line x1="25.00" y1="343.33" x2="1025.00" y2="343.33" stroke="#808080" stroke-width="0.5" />
<text x="20.00" y="301.67" font-family="Arial" font-size="12" text-anchor="end" alignment-baseline="middle" fill="#000000">10</text>
<line x1="25.00" y1="301.67" x2="1025.00" y2="301.67" stroke="#808080" stroke-width="0.5" />
<text x="20.00" y="260.00" font-family="Arial" font-size="12" text-anchor="end" alignment-baseline="middle" fill="#000000">12</text>
<line x1="25.00" y1="260.00" x2="1025.00" y2="260.00" stroke="#808080" stroke-width="0.5" />
<text x="20.00" y="218.33" font-family="Arial" font-size="12" text-anchor="end" alignment-baseline="middle" fill="#000000">14</text>
<line x1="25.00" y1="218.33" x2="1025.00" y2="218.33" stroke="#808080" stroke-width="0.5" />
<text x="20.00" y="176.67" font-family="Arial" font-size="12" text-anchor="end" alignment-baseline="middle" fill="#000000">16</text>
<line x1="25.00" y1="176.67" x2="1025.00" y2="176.67" stroke="#808080" stroke-width="0.5" />
<text x="20.00" y="135.00" font-family="Arial" font-size="12" text-anchor="end" alignment-baseline="middle" fill="#000000">18</text>
<line x1="25.00" y1="135.00" x2="1025.00" y2="135.00" stroke="#808080" stroke-width="0.5" />
<text x="20.00" y="93.33" font-family="Arial" font-size="12" text-anchor="end" alignment-baseline="middle" fill="#000000">20</text>
<line x1="25.00" y1="93.33" x2="1025.00" y2="93.33" stroke="#808080" stroke-width="0.5" />
<text x="20.00" y="51.67" font-family="Arial" font-size="12" text-anchor="end" alignment-baseline="middle" fill="#000000">22</text>
<line x1="25.00" y1="51.67" x2="1025.00" y2="51.67" stroke="#808080" stroke-width="0.5" />
<text x="20.00" y="10.00" font-family="Arial" font-size="12" text-anchor="end" alignment-baseline="middle" fill="#000000">24</text>
<line x1="25.00" y1="10.00" x2="1025.00" y2="10.00" stroke="#808080" stroke-width="0.5" />
<text x="66.90" y="522.00" font-family="Arial" font-size="12" text-anchor="middle" alignment-baseline="middle" fill="#000000">Jan</text>
<line x1="25.00" y1="10.00" x2="25.00" y2="510.00" stroke="#808080" stroke-width="0.5" />
<text x="147.25" y="522.00" font-family="Arial" font-size="12" text-anchor="middle" alignment-baseline="middle" fill="#000000">Feb</text>
<line x1="108.79" y1="10.00" x2="108.79" y2="510.00" stroke="#808080" stroke-width="0.5" />
<text x="228.30" y="522.00" font-family="Arial" font-size="12" text-anchor="middle" alignment-baseline="middle" fill="#000000">Mar</text>
<line x1="185.71" y1="10.00" x2="185.71" y2="510.00" stroke="#808080" stroke-width="0.5" />
<text x="312.09" y="522.00" font-family="Arial" font-size="12" text-anchor="middle" alignment-baseline="middle" fill="#000000">Apr</text>
<line x1="270.88" y1="10.00" x2="270.88" y2="510.00" stroke="#808080" stroke-width="0.5" />
<text x="395.88" y="522.00" font-family="Arial" font-size="12" text-anchor="middle" alignment-baseline="middle" fill="#000000">May</text>
<line x1="353.30" y1="10.00" x2="353.30" y2="510.00" stroke="#808080" stroke-width="0.5" />
<text x="479.67" y="522.00" font-family="Arial" font-size="12" text-anchor="middle" alignment-baseline="middle" fill="#000000">Jun</text>
<line x1="438.46" y1="10.00" x2="438.46" y2="510.00" stroke="#808080" stroke-width="0.5" />
<text x="563.46" y="522.00" font-family="Arial" font-size="12" text-anchor="middle" alignment-baseline="middle" fill="#000000">Jul</text>
<line x1="520.88" y1="10.00" x2="520.88" y2="510.00" stroke="#808080" stroke-width="0.5" />
<text x="648.63" y="522.00" font-family="Arial" font-size="12" text-anchor="middle" alignment-baseline="middle" fill="#000000">Aug</text>
<line x1="606.04" y1="10.00" x2="606.04" y2="510.00" stroke="#808080" stroke-width="0.5" />
<text x="732.42" y="522.00" font-family="Arial" font-size="12" text-anchor="middle" alignment-baseline="middle" fill="#000000">Sep</text>
<line x1="691.21" y1="10.00" x2="691.21" y2="510.00" stroke="#808080" stroke-width="0.5" />
<text x="816.21" y="522.00" font-family="Arial" font-size="12" text-anchor="middle" alignment-baseline="middle" fill="#000000">Oct</text>
<line x1="773.63" y1="10.00" x2="773.63" y2="510.00" stroke="#808080" stroke-width="0.5" />
<text x="900.00" y="522.00" font-family="Arial" font-size="12" text-anchor="middle" alignment-baseline="middle" fill="#000000">Nov</text>
<line x1="858.79" y1="10.00" x2="858.79" y2="510.00" stroke="#808080" stroke-width="0.5" />
<text x="983.10" y="522.00" font-family="Arial" font-size="12" text-anchor="middle" alignment-baseline="middle" fill="#000000">Dec</text>
<line x1="941.21" y1="10.00" x2="941.21" y2="510.00" stroke="#808080" stroke-width="0.5" />
<line x1="1025.00" y1="10.00" x2="1025.00" y2="510.00" stroke="#808080" stroke-width="0.5" />
</svg>