<svg xmlns="http://www.w3.org/2000/svg" width="1035" height="535" viewBox="0 0 1035 535">
<rect x="0" y="0" width="1035" height="535" fill="#ffffff" stroke="none" stroke-width="0"/>
<rect x="25" y="10" width="1000" height="500" fill="#000000" stroke="none" stroke-width="0"/>
<polygon points="25.00,510.00 25.00,241.26 27.74,241.26 27.74,241.10 30.48,241.10 30.48,240.92 33.22,240.92 33.22,240.73 35.96,240.73 35.96,240.53 38.70,240.53 38.70,240.31 41.44,240.31 41.44,240.08 44.18,240.08 44.18,239.84 46.92,239.84 46.92,239.58 49.66,239.58 49.66,239.32 52.40,239.32 52.40,239.04 55.14,239.04 55.14,238.74 57.88,238.74 57.88,238.44 60.62,238.44 60.62,238.12 63.36,238.12 63.36,237.79 66.10,237.79 66.10,237.45 68.84,237.45 68.84,237.10 71.58,237.10 71.58,236.74 74.32,236.74 74.32,236.36 77.05,236.36 77.05,235.98 79.79,235.98 79.79,235.58 82.53,235.58 82.53,235.17 85.27,235.17 85.27,234.76 88.01,234.76 88.01,234.33 90.75,234.33 90.75,233.89 93.49,233.89 93.49,233.44 96.23,233.44 96.23,232.98 98.97,232.98 98.97,232.51 101.71,232.51 101.71,232.03 104.45,232.03 104.45,231.54 107.19,231.54 107.19,231.05 109.93,231.05 109.93,230.54 112.67,230.54 112.67,230.02 115.41,230.02 115.41,229.50 118.15,229.50 118.15,228.97 120.89,228.97 120.89,228.42 123.63,228.42 123.63,227.87 126.37,227.87 126.37,227.31 129.11,227.31 129.11,226.75 131.85,226.75 131.85,226.17 134.59,226.17 134.59,225.59 137.33,225.59 137.33,225.00 140.07,225.00 140.07,224.40 142.81,224.40 142.81,223.79 145.55,223.79 145.55,223.18 148.29,223.18 148.29,222.56 151.03,222.56 151.03,221.93 153.77,221.93 153.77,221.29 156.51,221.29 156.51,220.65 159.25,220.65 159.25,220.00 161.99,220.00 161.99,219.34 164.73,219.34 164.73,218.68 167.47,218.68 167.47,218.01 170.21,218.01 170.21,217.33 172.95,217.33 172.95,216.65 175.68,216.65 175.68,215.96 178.42,215.96 178.42,215.27 181.16,215.27 181.16,214.57 183.90,214.57 183.90,213.86 186.64,213.86 186.64,213.14 189.38,213.14 189.38,212.43 192.12,212.43 192.12,211.70 194.86,211.70 194.86,210.97 197.60,210.97 197.60,210.23 200.34,210.23 200.34,209.49 203.08,209.49 203.08,208.75 205.82,208.75 205.82,207.99 208.56,207.99 208.56,207.24 211.30,207.24 211.30,206.47 214.04,206.47 214.04,205.70 216.78,205.70 216.78,204.93 219.52,204.93 219.52,204.15 222.26,204.15 222.26,203.37 225.00,203.37 225.00,202.58 227.74,202.58 227.74,201.79 230.48,201.79 230.48,201.00 233.22,201.00 233.22,200.19 235.96,200.19 235.96,199.39 238.70,199.39 238.70,198.58 241.44,198.58 241.44,197.76 244.18,197.76 244.18,196.94 246.92,196.94 246.92,196.12 249.66,196.12 249.66,195.29 252.40,195.29 252.40,194.46 255.14,194.46 255.14,193.63 257.88,193.63 257.88,192.79 260.62,192.79 260.62,191.95 263.36,191.95 263.36,191.10 266.10,191.10 266.10,190.25 268.84,190.25 268.84,189.40 271.58,189.40 271.58,188.54 274.32,188.54 274.32,187.68 277.05,187.68 277.05,186.82 279.79,186.82 279.79,185.96 282.53,185.96 282.53,185.09 285.27,185.09 285.27,184.22 288.01,184.22 288.01,183.35 290.75,183.35 290.75,182.47 293.49,182.47 293.49,181.60 296.23,181.60 296.23,180.72 298.97,180.72 298.97,179.84 301.71,179.84 301.71,178.96 304.45,178.96 304.45,178.08 307.19,178.08 307.19,177.20 309.93,177.20 309.93,176.31 312.67,176.31 312.67,175.43 315.41,175.43 315.41,174.54 318.15,174.54 318.15,173.66 320.89,173.66 320.89,172.77 323.63,172.77 323.63,171.89 326.37,171.89 326.37,171.00 329.11,171.00 329.11,170.12 331.85,170.12 331.85,169.24 334.59,169.24 334.59,168.35 337.33,168.35 337.33,167.48 340.07,167.48 340.07,166.60 342.81,166.60 342.81,165.72 345.55,165.72 345.55,164.85 348.29,164.85 348.29,163.98 351.03,163.98 351.03,163.12 353.77,163.12 353.77,162.26 356.51,162.26 356.51,161.40 359.25,161.40 359.25,160.55 361.99,160.55 361.99,159.70 364.73,159.70 364.73,158.86 367.47,158.86 367.47,158.02 370.21,158.02 370.21,157.19 372.95,157.19 372.95,156.37 375.68,156.37 375.68,155.56 378.42,155.56 378.42,154.75 381.16,154.75 381.16,153.95 383.90,153.95 383.90,153.17 386.64,153.17 386.64,152.39 389.38,152.39 389.38,151.62 392.12,151.62 392.12,150.86 394.86,150.86 394.86,150.11 397.60,150.11 397.60,149.38 400.34,149.38 400.34,148.65 403.08,148.65 403.08,147.94 405.82,147.94 405.82,147.24 408.56,147.24 408.56,146.56 411.30,146.56 411.30,145.89 414.04,145.89 414.04,145.24 416.78,145.24 416.78,144.60 419.52,144.60 419.52,143.98 422.26,143.98 422.26,143.37 425.00,143.37 425.00,142.79 427.74,142.79 427.74,142.22 430.48,142.22 430.48,141.67 433.22,141.67 433.22,141.14 435.96,141.14 435.96,140.63 438.70,140.63 438.70,140.14 441.44,140.14 441.44,139.67 444.18,139.67 444.18,139.22 446.92,139.22 446.92,138.80 449.66,138.80 449.66,138.40 452.40,138.40 452.40,138.02 455.14,138.02 455.14,137.66 457.88,137.66 457.88,137.33 460.62,137.33 460.62,137.02 463.36,137.02 463.36,136.74 466.10,136.74 466.10,136.48 468.84,136.48 468.84,136.25 471.58,136.25 471.58,136.04 474.32,136.04 474.32,135.86 477.05,135.86 477.05,135.71 479.79,135.71 479.79,135.58 482.53,135.58 482.53,135.48 485.27,135.48 485.27,135.41 488.01,135.41 488.01,135.36 490.75,135.36 490.75,135.34 493.49,135.34 493.49,135.34 496.23,135.34 496.23,135.38 498.97,135.38 498.97,135.44 501.71,135.44 501.71,135.52 504.45,135.52 504.45,135.64 507.19,135.64 507.19,135.78 509.93,135.78 509.93,135.94 512.67,135.94 512.67,136.13 515.41,136.13 515.41,136.35 518.15,136.35 518.15,136.59 520.89,136.59 520.89,136.86 523.63,136.86 523.63,137.16 526.37,137.16 526.37,137.47 529.11,137.47 529.11,137.81 531.85,137.81 531.85,138.18 534.59,138.18 534.59,138.57 537.33,138.57 537.33,138.98 540.07,138.98 540.07,139.41 542.81,139.41 542.81,139.86 545.55,139.86 545.55,140.34 548.29,140.34 548.29,140.83 551.03,140.83 551.03,141.35 553.77,141.35 553.77,141.88 556.51,141.88 556.51,142.43 559.25,142.43 559.25,143.01 561.99,143.01 561.99,143.60 564.73,143.60 564.73,144.20 567.47,144.20 567.47,144.83 570.21,144.83 570.21,145.46 572.95,145.46 572.95,146.12 575.68,146.12 575.68,146.79 578.42,146.79 578.42,147.47 581.16,147.47 581.16,148.17 583.90,148.17 583.90,148.88 586.64,148.88 586.64,149.60 589.38,149.60 589.38,150.33 592.12,150.33 592.12,151.08 594.86,151.08 594.86,151.83 597.60,151.83 597.60,152.60 600.34,152.60 600.34,153.37 603.08,153.37 603.08,154.16 605.82,154.16 605.82,154.95 608.56,154.95 608.56,155.75 611.30,155.75 611.30,156.56 614.04,156.56 614.04,157.37 616.78,157.37 616.78,158.19 619.52,158.19 619.52,159.02 622.26,159.02 622.26,159.85 625.00,159.85 625.00,160.69 627.74,160.69 627.74,161.53 630.48,161.53 630.48,162.38 633.22,162.38 633.22,163.23 635.96,163.23 635.96,164.09 638.70,164.09 638.70,164.95 641.44,164.95 641.44,165.81 644.18,165.81 644.18,166.67 646.92,166.67 646.92,167.54 649.66,167.54 649.66,168.41 652.40,168.41 652.40,169.28 655.14,169.28 655.14,170.15 657.88,170.15 657.88,171.02 660.62,171.02 660.62,171.89 663.36,171.89 663.36,172.77 666.10,172.77 666.10,173.64 668.84,173.64 668.84,174.51 671.58,174.51 671.58,175.39 674.32,175.39 674.32,176.26 677.05,176.26 677.05,177.13 679.79,177.13 679.79,178.00 682.53,178.00 682.53,178.87 685.27,178.87 685.27,179.74 688.01,179.74 688.01,180.61 690.75,180.61 690.75,181.48 693.49,181.48 693.49,182.34 696.23,182.34 696.23,183.20 698.97,183.20 698.97,184.06 701.71,184.06 701.71,184.92 704.45,184.92 704.45,185.77 707.19,185.77 707.19,186.62 709.93,186.62 709.93,187.47 712.67,187.47 712.67,188.32 715.41,188.32 715.41,189.16 718.15,189.16 718.15,190.00 720.89,190.00 720.89,190.84 723.63,190.84 723.63,191.67 726.37,191.67 726.37,192.50 729.11,192.50 729.11,193.33 731.85,193.33 731.85,194.15 734.59,194.15 734.59,194.97 737.33,194.97 737.33,195.79 740.07,195.79 740.07,196.60 742.81,196.60 742.81,197.41 745.55,197.41 745.55,198.22 748.29,198.22 748.29,199.02 751.03,199.02 751.03,199.81 753.77,199.81 753.77,200.60 756.51,200.60 756.51,201.39 759.25,201.39 759.25,202.17 761.99,202.17 761.99,202.95 764.73,202.95 764.73,203.73 767.47,203.73 767.47,204.50 770.21,204.50 770.21,205.26 772.95,205.26 772.95,206.02 775.68,206.02 775.68,206.77 778.42,206.77 778.42,207.52 781.16,207.52 781.16,208.27 783.90,208.27 783.90,209.01 786.64,209.01 786.64,209.74 789.38,209.74 789.38,210.47 792.12,210.47 792.12,211.19 794.86,211.19 794.86,211.91 797.60,211.91 797.60,212.62 800.34,212.62 800.34,213.33 803.08,213.33 803.08,214.03 805.82,214.03 805.82,214.73 808.56,214.73 808.56,215.42 811.30,215.42 811.30,216.10 814.04,216.10 814.04,216.78 816.78,216.78 816.78,217.45 819.52,217.45 819.52,218.12 822.26,218.12 822.26,218.78 825.00,218.78 825.00,219.43 827.74,219.43 827.74,220.08 830.48,220.08 830.48,220.72 833.22,220.72 833.22,221.35 835.96,221.35 835.96,221.98 838.70,221.98 838.70,222.60 841.44,222.60 841.44,223.21 844.18,223.21 844.18,223.82 846.92,223.82 846.92,224.42 849.66,224.42 849.66,225.01 852.40,225.01 852.40,225.59 855.14,225.59 855.14,226.17 857.88,226.17 857.88,226.74 860.62,226.74 860.62,227.30 863.36,227.30 863.36,227.85 866.10,227.85 866.10,228.39 868.84,228.39 868.84,228.93 871.58,228.93 871.58,229.46 874.32,229.46 874.32,229.98 877.05,229.98 877.05,230.49 879.79,230.49 879.79,230.99 882.53,230.99 882.53,231.49 885.27,231.49 885.27,231.97 888.01,231.97 888.01,232.44 890.75,232.44 890.75,232.91 893.49,232.91 893.49,233.37 896.23,233.37 896.23,233.81 898.97,233.81 898.97,234.25 901.71,234.25 901.71,234.68 904.45,234.68 904.45,235.09 907.19,235.09 907.19,235.50 909.93,235.50 909.93,235.90 912.67,235.90 912.67,236.28 915.41,236.28 915.41,236.65 918.15,236.65 918.15,237.02 920.89,237.02 920.89,237.37 923.63,237.37 923.63,237.71 926.37,237.71 926.37,238.04 929.11,238.04 929.11,238.36 931.85,238.36 931.85,238.66 934.59,238.66 934.59,238.96 937.33,238.96 937.33,239.24 940.07,239.24 940.07,239.51 942.81,239.51 942.81,239.77 945.55,239.77 945.55,240.01 948.29,240.01 948.29,240.24 951.03,240.24 951.03,240.46 953.77,240.46 953.77,240.67 956.51,240.67 956.51,240.86 959.25,240.86 959.25,241.04 961.99,241.04 961.99,241.21 964.73,241.21 964.73,241.37 967.47,241.37 967.47,241.51 970.21,241.51 970.21,241.64 972.95,241.64 972.95,241.75 975.68,241.75 975.68,241.85 978.42,241.85 978.42,241.94 981.16,241.94 981.16,242.01 983.90,242.01 983.90,242.07 986.64,242.07 986.64,242.11 989.38,242.11 989.38,242.15 992.12,242.15 992.12,242.16 994.86,242.16 994.86,242.17 997.60,242.17 997.60,242.16 1000.34,242.16 1000.34,242.13 1003.08,242.13 1003.08,242.10 1005.82,242.10 1005.82,242.05 1008.56,242.05 1008.56,241.98 1011.30,241.98 1011.30,241.90 1014.04,241.90 1014.04,241.81 1016.78,241.81 1016.78,241.70 1019.52,241.70 1019.52,241.58 1022.26,241.58 1022.26,241.45 1025.00,241.45 1025.00,510.00" fill="#002040" stroke="none" stroke-width="0"/>
<polygon points="25.00,510.00 25.00,262.49 27.74,262.49 27.74,262.32 30.48,262.32 30.48,262.12 33.22,262.12 33.22,261.92 35.96,261.92 35.96,261.70 38.70,261.70 38.70,261.46 41.44,261.46 41.44,261.22 44.18,261.22 44.18,260.95 46.92,260.95 46.92,260.68 49.66,260.68 49.66,260.39 52.40,260.39 52.40,260.09 55.14,260.09 55.14,259.78 57.88,259.78 57.88,259.45 60.62,259.45 60.62,259.11 63.36,259.11 63.36,258.76 66.10,258.76 66.10,258.39 68.84,258.39 68.84,258.02 71.58,258.02 71.58,257.63 74.32,257.63 74.32,257.23 77.05,257.23 77.05,256.82 79.79,256.82 79.79,256.40 82.53,256.40 82.53,255.97 85.27,255.97 85.27,255.52 88.01,255.52 88.01,255.07 90.75,255.07 90.75,254.61 93.49,254.61 93.49,254.13 96.23,254.13 96.23,253.65 98.97,253.65 98.97,253.15 101.71,253.15 101.71,252.65 104.45,252.65 104.45,252.14 107.19,252.14 107.19,251.62 109.93,251.62 109.93,251.09 112.67,251.09 112.67,250.55 115.41,250.55 115.41,250.00 118.15,250.00 118.15,249.44 120.89,249.44 120.89,248.88 123.63,248.88 123.63,248.31 126.37,248.31 126.37,247.73 129.11,247.73 129.11,247.14 131.85,247.14 131.85,246.55 134.59,246.55 134.59,245.95 137.33,245.95 137.33,245.34 140.07,245.34 140.07,244.72 142.81,244.72 142.81,244.10 145.55,244.10 145.55,243.47 148.29,243.47 148.29,242.84 151.03,242.84 151.03,242.20 153.77,242.20 153.77,241.55 156.51,241.55 156.51,240.90 159.25,240.90 159.25,240.24 161.99,240.24 161.99,239.57 164.73,239.57 164.73,238.90 167.47,238.90 167.47,238.23 170.21,238.23 170.21,237.55 172.95,237.55 172.95,236.86 175.68,236.86 175.68,236.17 178.42,236.17 178.42,235.47 181.16,235.47 181.16,234.77 183.90,234.77 183.90,234.07 186.64,234.07 186.64,233.36 189.38,233.36 189.38,232.64 192.12,232.64 192.12,231.92 194.86,231.92 194.86,231.20 197.60,231.20 197.60,230.47 200.34,230.47 200.34,229.74 203.08,229.74 203.08,229.01 205.82,229.01 205.82,228.27 208.56,228.27 208.56,227.53 211.30,227.53 211.30,226.78 214.04,226.78 214.04,226.03 216.78,226.03 216.78,225.28 219.52,225.28 219.52,224.53 222.26,224.53 222.26,223.77 225.00,223.77 225.00,223.00 227.74,223.00 227.74,222.24 230.48,222.24 230.48,221.47 233.22,221.47 233.22,220.70 235.96,220.70 235.96,219.93 238.70,219.93 238.70,219.15 241.44,219.15 241.44,218.37 244.18,218.37 244.18,217.59 246.92,217.59 246.92,216.80 249.66,216.80 249.66,216.02 252.40,216.02 252.40,215.23 255.14,215.23 255.14,214.44 257.88,214.44 257.88,213.65 260.62,213.65 260.62,212.85 263.36,212.85 263.36,212.06 266.10,212.06 266.10,211.26 268.84,211.26 268.84,210.46 271.58,210.46 271.58,209.66 274.32,209.66 274.32,208.86 277.05,208.86 277.05,208.06 279.79,208.06 279.79,207.25 282.53,207.25 282.53,206.45 285.27,206.45 285.27,205.64 288.01,205.64 288.01,204.84 290.75,204.84 290.75,204.03 293.49,204.03 293.49,203.23 296.23,203.23 296.23,202.42 298.97,202.42 298.97,201.62 301.71,201.62 301.71,200.81 304.45,200.81 304.45,200.01 307.19,200.01 307.19,199.20 309.93,199.20 309.93,198.40 312.67,198.40 312.67,197.60 315.41,197.60 315.41,196.80 318.15,196.80 318.15,196.00 320.89,196.00 320.89,195.20 323.63,195.20 323.63,194.41 326.37,194.41 326.37,193.61 329.11,193.61 329.11,192.82 331.85,192.82 331.85,192.04 334.59,192.04 334.59,191.25 337.33,191.25 337.33,190.47 340.07,190.47 340.07,189.69 342.81,189.69 342.81,188.91 345.55,188.91 345.55,188.14 348.29,188.14 348.29,187.38 351.03,187.38 351.03,186.62 353.77,186.62 353.77,185.86 356.51,185.86 356.51,185.11 359.25,185.11 359.25,184.36 361.99,184.36 361.99,183.63 364.73,183.63 364.73,182.89 367.47,182.89 367.47,182.17 370.21,182.17 370.21,181.45 372.95,181.45 372.95,180.74 375.68,180.74 375.68,180.04 378.42,180.04 378.42,179.34 381.16,179.34 381.16,178.66 383.90,178.66 383.90,177.98 386.64,177.98 386.64,177.31 389.38,177.31 389.38,176.66 392.12,176.66 392.12,176.01 394.86,176.01 394.86,175.37 397.60,175.37 397.60,174.75 400.34,174.75 400.34,174.13 403.08,174.13 403.08,173.53 405.82,173.53 405.82,172.94 408.56,172.94 408.56,172.37 411.30,172.37 411.30,171.81 414.04,171.81 414.04,171.26 416.78,171.26 416.78,170.72 419.52,170.72 419.52,170.20 422.26,170.20 422.26,169.70 425.00,169.70 425.00,169.21 427.74,169.21 427.74,168.74 430.48,168.74 430.48,168.28 433.22,168.28 433.22,167.84 435.96,167.84 435.96,167.42 438.70,167.42 438.70,167.01 441.44,167.01 441.44,166.63 444.18,166.63 444.18,166.26 446.92,166.26 446.92,165.91 449.66,165.91 449.66,165.58 452.40,165.58 452.40,165.27 455.14,165.27 455.14,164.97 457.88,164.97 457.88,164.70 460.62,164.70 460.62,164.45 463.36,164.45 463.36,164.22 466.10,164.22 466.10,164.01 468.84,164.01 468.84,163.82 471.58,163.82 471.58,163.65 474.32,163.65 474.32,163.51 477.05,163.51 477.05,163.38 479.79,163.38 479.79,163.28 482.53,163.28 482.53,163.19 485.27,163.19 485.27,163.13 488.01,163.13 488.01,163.09 490.75,163.09 490.75,163.08 493.49,163.08 493.49,163.08 496.23,163.08 496.23,163.11 498.97,163.11 498.97,163.16 501.71,163.16 501.71,163.23 504.45,163.23 504.45,163.32 507.19,163.32 507.19,163.43 509.93,163.43 509.93,163.57 512.67,163.57 512.67,163.73 515.41,163.73 515.41,163.90 518.15,163.90 518.15,164.10 520.89,164.10 520.89,164.32 523.63,164.32 523.63,164.56 526.37,164.56 526.37,164.82 529.11,164.82 529.11,165.10 531.85,165.10 531.85,165.40 534.59,165.40 534.59,165.72 537.33,165.72 537.33,166.05 540.07,166.05 540.07,166.41 542.81,166.41 542.81,166.79 545.55,166.79 545.55,167.18 548.29,167.18 548.29,167.59 551.03,167.59 551.03,168.01 553.77,168.01 553.77,168.46 556.51,168.46 556.51,168.92 559.25,168.92 559.25,169.39 561.99,169.39 561.99,169.89 564.73,169.89 564.73,170.39 567.47,170.39 567.47,170.91 570.21,170.91 570.21,171.45 572.95,171.45 572.95,172.00 575.68,172.00 575.68,172.56 578.42,172.56 578.42,173.14 581.16,173.14 581.16,173.73 583.90,173.73 583.90,174.33 586.64,174.33 586.64,174.94 589.38,174.94 589.38,175.56 592.12,175.56 592.12,176.19 594.86,176.19 594.86,176.84 597.60,176.84 597.60,177.49 600.34,177.49 600.34,178.16 603.08,178.16 603.08,178.83 605.82,178.83 605.82,179.51 608.56,179.51 608.56,180.20 611.30,180.20 611.30,180.90 614.04,180.90 614.04,181.60 616.78,181.60 616.78,182.32 619.52,182.32 619.52,183.03 622.26,183.03 622.26,183.76 625.00,183.76 625.00,184.49 627.74,184.49 627.74,185.23 630.48,185.23 630.48,185.97 633.22,185.97 633.22,186.72 635.96,186.72 635.96,187.47 638.70,187.47 638.70,188.23 641.44,188.23 641.44,188.99 644.18,188.99 644.18,189.75 646.92,189.75 646.92,190.52 649.66,190.52 649.66,191.30 652.40,191.30 652.40,192.07 655.14,192.07 655.14,192.85 657.88,192.85 657.88,193.63 660.62,193.63 660.62,194.41 663.36,194.41 663.36,195.20 666.10,195.20 666.10,195.98 668.84,195.98 668.84,196.77 671.58,196.77 671.58,197.56 674.32,197.56 674.32,198.35 677.05,198.35 677.05,199.15 679.79,199.15 679.79,199.94 682.53,199.94 682.53,200.73 685.27,200.73 685.27,201.53 688.01,201.53 688.01,202.32 690.75,202.32 690.75,203.12 693.49,203.12 693.49,203.91 696.23,203.91 696.23,204.70 698.97,204.70 698.97,205.50 701.71,205.50 701.71,206.29 704.45,206.29 704.45,207.08 707.19,207.08 707.19,207.87 709.93,207.87 709.93,208.66 712.67,208.66 712.67,209.45 715.41,209.45 715.41,210.24 718.15,210.24 718.15,211.03 720.89,211.03 720.89,211.81 723.63,211.81 723.63,212.60 726.37,212.60 726.37,213.38 729.11,213.38 729.11,214.16 731.85,214.16 731.85,214.94 734.59,214.94 734.59,215.72 737.33,215.72 737.33,216.49 740.07,216.49 740.07,217.26 742.81,217.26 742.81,218.03 745.55,218.03 745.55,218.80 748.29,218.80 748.29,219.57 751.03,219.57 751.03,220.33 753.77,220.33 753.77,221.09 756.51,221.09 756.51,221.85 759.25,221.85 759.25,222.61 761.99,222.61 761.99,223.36 764.73,223.36 764.73,224.11 767.47,224.11 767.47,224.86 770.21,224.86 770.21,225.60 772.95,225.60 772.95,226.34 775.68,226.34 775.68,227.08 778.42,227.08 778.42,227.81 781.16,227.81 781.16,228.54 783.90,228.54 783.90,229.26 786.64,229.26 786.64,229.99 789.38,229.99 789.38,230.70 792.12,230.70 792.12,231.42 794.86,231.42 794.86,232.13 797.60,232.13 797.60,232.84 800.34,232.84 800.34,233.54 803.08,233.54 803.08,234.24 805.82,234.24 805.82,234.93 808.56,234.93 808.56,235.62 811.30,235.62 811.30,236.31 814.04,236.31 814.04,236.99 816.78,236.99 816.78,237.66 819.52,237.66 819.52,238.33 822.26,238.33 822.26,239.00 825.00,239.00 825.00,239.66 827.74,239.66 827.74,240.31 830.48,240.31 830.48,240.96 833.22,240.96 833.22,241.61 835.96,241.61 835.96,242.25 838.70,242.25 838.70,242.88 841.44,242.88 841.44,243.51 844.18,243.51 844.18,244.13 846.92,244.13 846.92,244.74 849.66,244.74 849.66,245.35 852.40,245.35 852.40,245.95 855.14,245.95 855.14,246.54 857.88,246.54 857.88,247.13 860.62,247.13 860.62,247.71 863.36,247.71 863.36,248.28 866.10,248.28 866.10,248.85 868.84,248.85 868.84,249.41 871.58,249.41 871.58,249.96 874.32,249.96 874.32,250.50 877.05,250.50 877.05,251.03 879.79,251.03 879.79,251.56 882.53,251.56 882.53,252.08 885.27,252.08 885.27,252.58 888.01,252.58 888.01,253.08 890.75,253.08 890.75,253.57 893.49,253.57 893.49,254.05 896.23,254.05 896.23,254.53 898.97,254.53 898.97,254.99 901.71,254.99 901.71,255.44 904.45,255.44 904.45,255.88 907.19,255.88 907.19,256.31 909.93,256.31 909.93,256.73 912.67,256.73 912.67,257.14 915.41,257.14 915.41,257.54 918.15,257.54 918.15,257.93 920.89,257.93 920.89,258.30 923.63,258.30 923.63,258.67 926.37,258.67 926.37,259.02 929.11,259.02 929.11,259.36 931.85,259.36 931.85,259.69 934.59,259.69 934.59,260.01 937.33,260.01 937.33,260.31 940.07,260.31 940.07,260.60 942.81,260.60 942.81,260.88 945.55,260.88 945.55,261.14 948.29,261.14 948.29,261.39 951.03,261.39 951.03,261.63 953.77,261.63 953.77,261.85 956.51,261.85 956.51,262.06 959.25,262.06 959.25,262.26 961.99,262.26 961.99,262.44 964.73,262.44 964.73,262.60 967.47,262.60 967.47,262.76 970.21,262.76 970.21,262.90 972.95,262.90 972.95,263.02 975.68,263.02 975.68,263.13 978.42,263.13 978.42,263.22 981.16,263.22 981.16,263.30 983.90,263.30 983.90,263.37 986.64,263.37 986.64,263.42 989.38,263.42 989.38,263.45 992.12,263.45 992.12,263.47 994.86,263.47 994.86,263.47 997.60,263.47 997.60,263.46 1000.34,263.46 1000.34,263.44 1003.08,263.44 1003.08,263.40 1005.82,263.40 1005.82,263.34 1008.56,263.34 1008.56,263.27 1011.30,263.27 1011.30,263.18 1014.04,263.18 1014.04,263.08 1016.78,263.08 1016.78,262.97 1019.52,262.97 1019.52,262.84 1022.26,262.84 1022.26,262.69 1025.00,262.69 1025.00,510.00" fill="#004080" stroke="none" stroke-width="0"/>
<polygon points="25.00,510.00 25.00,284.25 27.74,284.25 27.74,284.06 30.48,284.06 30.48,283.85 33.22,283.85 33.22,283.62 35.96,283.62 35.96,283.38 38.70,283.38 38.70,283.12 41.44,283.12 41.44,282.85 44.18,282.85 44.18,282.57 46.92,282.57 46.92,282.27 49.66,282.27 49.66,281.95 52.40,281.95 52.40,281.63 55.14,281.63 55.14,281.28 57.88,281.28 57.88,280.93 60.62,280.93 60.62,280.56 63.36,280.56 63.36,280.18 66.10,280.18 66.10,279.78 68.84,279.78 68.84,279.38 71.58,279.38 71.58,278.96 74.32,278.96 74.32,278.53 77.05,278.53 77.05,278.08 79.79,278.08 79.79,277.63 82.53,277.63 82.53,277.16 85.27,277.16 85.27,276.69 88.01,276.69 88.01,276.20 90.75,276.20 90.75,275.70 93.49,275.70 93.49,275.19 96.23,275.19 96.23,274.67 98.97,274.67 98.97,274.15 101.71,274.15 101.71,273.61 104.45,273.61 104.45,273.06 107.19,273.06 107.19,272.51 109.93,272.51 109.93,271.94 112.67,271.94 112.67,271.37 115.41,271.37 115.41,270.79 118.15,270.79 118.15,270.21 120.89,270.21 120.89,269.61 123.63,269.61 123.63,269.01 126.37,269.01 126.37,268.40 129.11,268.40 129.11,267.78 131.85,267.78 131.85,267.16 134.59,267.16 134.59,266.53 137.33,266.53 137.33,265.89 140.07,265.89 140.07,265.25 142.81,265.25 142.81,264.60 145.55,264.60 145.55,263.95 148.29,263.95 148.29,263.29 151.03,263.29 151.03,262.63 153.77,262.63 153.77,261.96 156.51,261.96 156.51,261.28 159.25,261.28 159.25,260.60 161.99,260.60 161.99,259.92 164.73,259.92 164.73,259.23 167.47,259.23 167.47,258.54 170.21,258.54 170.21,257.84 172.95,257.84 172.95,257.14 175.68,257.14 175.68,256.44 178.42,256.44 178.42,255.73 181.16,255.73 181.16,255.02 183.90,255.02 183.90,254.30 186.64,254.30 186.64,253.58 189.38,253.58 189.38,252.86 192.12,252.86 192.12,252.14 194.86,252.14 194.86,251.41 197.60,251.41 197.60,250.68 200.34,250.68 200.34,249.95 203.08,249.95 203.08,249.21 205.82,249.21 205.82,248.48 208.56,248.48 208.56,247.74 211.30,247.74 211.30,247.00 214.04,247.00 214.04,246.25 216.78,246.25 216.78,245.51 219.52,245.51 219.52,244.76 222.26,244.76 222.26,244.01 225.00,244.01 225.00,243.26 227.74,243.26 227.74,242.51 230.48,242.51 230.48,241.75 233.22,241.75 233.22,241.00 235.96,241.00 235.96,240.24 238.70,240.24 238.70,239.48 241.44,239.48 241.44,238.72 244.18,238.72 244.18,237.97 246.92,237.97 246.92,237.20 249.66,237.20 249.66,236.44 252.40,236.44 252.40,235.68 255.14,235.68 255.14,234.92 257.88,234.92 257.88,234.16 260.62,234.16 260.62,233.39 263.36,233.39 263.36,232.63 266.10,232.63 266.10,231.87 268.84,231.87 268.84,231.10 271.58,231.10 271.58,230.34 274.32,230.34 274.32,229.58 277.05,229.58 277.05,228.82 279.79,228.82 279.79,228.05 282.53,228.05 282.53,227.29 285.27,227.29 285.27,226.53 288.01,226.53 288.01,225.77 290.75,225.77 290.75,225.02 293.49,225.02 293.49,224.26 296.23,224.26 296.23,223.51 298.97,223.51 298.97,222.75 301.71,222.75 301.71,222.00 304.45,222.00 304.45,221.25 307.19,221.25 307.19,220.50 309.93,220.50 309.93,219.76 312.67,219.76 312.67,219.01 315.41,219.01 315.41,218.27 318.15,218.27 318.15,217.54 320.89,217.54 320.89,216.80 323.63,216.80 323.63,216.07 326.37,216.07 326.37,215.34 329.11,215.34 329.11,214.62 331.85,214.62 331.85,213.90 334.59,213.90 334.59,213.18 337.33,213.18 337.33,212.47 340.07,212.47 340.07,211.76 342.81,211.76 342.81,211.05 345.55,211.05 345.55,210.35 348.29,210.35 348.29,209.66 351.03,209.66 351.03,208.97 353.77,208.97 353.77,208.29 356.51,208.29 356.51,207.61 359.25,207.61 359.25,206.94 361.99,206.94 361.99,206.28 364.73,206.28 364.73,205.63 367.47,205.63 367.47,204.98 370.21,204.98 370.21,204.34 372.95,204.34 372.95,203.70 375.68,203.70 375.68,203.08 378.42,203.08 378.42,202.46 381.16,202.46 381.16,201.85 383.90,201.85 383.90,201.25 386.64,201.25 386.64,200.66 389.38,200.66 389.38,200.08 392.12,200.08 392.12,199.51 394.86,199.51 394.86,198.95 397.60,198.95 397.60,198.40 400.34,198.40 400.34,197.86 403.08,197.86 403.08,197.34 405.82,197.34 405.82,196.82 408.56,196.82 408.56,196.32 411.30,196.32 411.30,195.83 414.04,195.83 414.04,195.35 416.78,195.35 416.78,194.89 419.52,194.89 419.52,194.43 422.26,194.43 422.26,194.00 425.00,194.00 425.00,193.57 427.74,193.57 427.74,193.16 430.48,193.16 430.48,192.77 433.22,192.77 433.22,192.39 435.96,192.39 435.96,192.02 438.70,192.02 438.70,191.67 441.44,191.67 441.44,191.34 444.18,191.34 444.18,191.02 446.92,191.02 446.92,190.72 449.66,190.72 449.66,190.44 452.40,190.44 452.40,190.17 455.14,190.17 455.14,189.92 457.88,189.92 457.88,189.69 460.62,189.69 460.62,189.47 463.36,189.47 463.36,189.27 466.10,189.27 466.10,189.09 468.84,189.09 468.84,188.93 471.58,188.93 471.58,188.79 474.32,188.79 474.32,188.66 477.05,188.66 477.05,188.55 479.79,188.55 479.79,188.46 482.53,188.46 482.53,188.39 485.27,188.39 485.27,188.34 488.01,188.34 488.01,188.31 490.75,188.31 490.75,188.30 493.49,188.30 493.49,188.30 496.23,188.30 496.23,188.32 498.97,188.32 498.97,188.36 501.71,188.36 501.71,188.42 504.45,188.42 504.45,188.50 507.19,188.50 507.19,188.60 509.93,188.60 509.93,188.72 512.67,188.72 512.67,188.85 515.41,188.85 515.41,189.00 518.15,189.00 518.15,189.17 520.89,189.17 520.89,189.36 523.63,189.36 523.63,189.56 526.37,189.56 526.37,189.79 529.11,189.79 529.11,190.03 531.85,190.03 531.85,190.28 534.59,190.28 534.59,190.56 537.33,190.56 537.33,190.85 540.07,190.85 540.07,191.15 542.81,191.15 542.81,191.48 545.55,191.48 545.55,191.81 548.29,191.81 548.29,192.17 551.03,192.17 551.03,192.54 553.77,192.54 553.77,192.92 556.51,192.92 556.51,193.32 559.25,193.32 559.25,193.73 561.99,193.73 561.99,194.16 564.73,194.16 564.73,194.60 567.47,194.60 567.47,195.05 570.21,195.05 570.21,195.52 572.95,195.52 572.95,196.00 575.68,196.00 575.68,196.49 578.42,196.49 578.42,196.99 581.16,196.99 581.16,197.51 583.90,197.51 583.90,198.03 586.64,198.03 586.64,198.57 589.38,198.57 589.38,199.12 592.12,199.12 592.12,199.68 594.86,199.68 594.86,200.24 597.60,200.24 597.60,200.82 600.34,200.82 600.34,201.41 603.08,201.41 603.08,202.01 605.82,202.01 605.82,202.61 608.56,202.61 608.56,203.22 611.30,203.22 611.30,203.84 614.04,203.84 614.04,204.47 616.78,204.47 616.78,205.11 619.52,205.11 619.52,205.75 622.26,205.75 622.26,206.40 625.00,206.40 625.00,207.06 627.74,207.06 627.74,207.72 630.48,207.72 630.48,208.39 633.22,208.39 633.22,209.07 635.96,209.07 635.96,209.75 638.70,209.75 638.70,210.43 641.44,210.43 641.44,211.12 644.18,211.12 644.18,211.82 646.92,211.82 646.92,212.52 649.66,212.52 649.66,213.22 652.40,213.22 652.40,213.93 655.14,213.93 655.14,214.64 657.88,214.64 657.88,215.36 660.62,215.36 660.62,216.07 663.36,216.07 663.36,216.80 666.10,216.80 666.10,217.52 668.84,217.52 668.84,218.25 671.58,218.25 671.58,218.98 674.32,218.98 674.32,219.71 677.05,219.71 677.05,220.45 679.79,220.45 679.79,221.19 682.53,221.19 682.53,221.93 685.27,221.93 685.27,222.67 688.01,222.67 688.01,223.41 690.75,223.41 690.75,224.15 693.49,224.15 693.49,224.90 696.23,224.90 696.23,225.65 698.97,225.65 698.97,226.39 701.71,226.39 701.71,227.14 704.45,227.14 704.45,227.89 707.19,227.89 707.19,228.64 709.93,228.64 709.93,229.39 712.67,229.39 712.67,230.14 715.41,230.14 715.41,230.89 718.15,230.89 718.15,231.64 720.89,231.64 720.89,232.40 723.63,232.40 723.63,233.15 726.37,233.15 726.37,233.90 729.11,233.90 729.11,234.65 731.85,234.65 731.85,235.40 734.59,235.40 734.59,236.15 737.33,236.15 737.33,236.90 740.07,236.90 740.07,237.65 742.81,237.65 742.81,238.40 745.55,238.40 745.55,239.15 748.29,239.15 748.29,239.89 751.03,239.89 751.03,240.64 753.77,240.64 753.77,241.38 756.51,241.38 756.51,242.13 759.25,242.13 759.25,242.87 761.99,242.87 761.99,243.61 764.73,243.61 764.73,244.35 767.47,244.35 767.47,245.08 770.21,245.08 770.21,245.82 772.95,245.82 772.95,246.55 775.68,246.55 775.68,247.29 778.42,247.29 778.42,248.02 781.16,248.02 781.16,248.74 783.90,248.74 783.90,249.47 786.64,249.47 786.64,250.19 789.38,250.19 789.38,250.91 792.12,250.91 792.12,251.63 794.86,251.63 794.86,252.35 797.60,252.35 797.60,253.06 800.34,253.06 800.34,253.77 803.08,253.77 803.08,254.47 805.82,254.47 805.82,255.18 808.56,255.18 808.56,255.88 811.30,255.88 811.30,256.58 814.04,256.58 814.04,257.27 816.78,257.27 816.78,257.96 819.52,257.96 819.52,258.65 822.26,258.65 822.26,259.33 825.00,259.33 825.00,260.01 827.74,260.01 827.74,260.68 830.48,260.68 830.48,261.35 833.22,261.35 833.22,262.02 835.96,262.02 835.96,262.68 838.70,262.68 838.70,263.33 841.44,263.33 841.44,263.98 844.18,263.98 844.18,264.63 846.92,264.63 846.92,265.27 849.66,265.27 849.66,265.90 852.40,265.90 852.40,266.53 855.14,266.53 855.14,267.15 857.88,267.15 857.88,267.77 860.62,267.77 860.62,268.38 863.36,268.38 863.36,268.98 866.10,268.98 866.10,269.58 868.84,269.58 868.84,270.17 871.58,270.17 871.58,270.75 874.32,270.75 874.32,271.32 877.05,271.32 877.05,271.89 879.79,271.89 879.79,272.44 882.53,272.44 882.53,272.99 885.27,272.99 885.27,273.54 888.01,273.54 888.01,274.07 890.75,274.07 890.75,274.59 893.49,274.59 893.49,275.11 896.23,275.11 896.23,275.61 898.97,275.61 898.97,276.11 901.71,276.11 901.71,276.59 904.45,276.59 904.45,277.07 907.19,277.07 907.19,277.53 909.93,277.53 909.93,277.99 912.67,277.99 912.67,278.43 915.41,278.43 915.41,278.86 918.15,278.86 918.15,279.28 920.89,279.28 920.89,279.68 923.63,279.68 923.63,280.08 926.37,280.08 926.37,280.46 929.11,280.46 929.11,280.83 931.85,280.83 931.85,281.19 934.59,281.19 934.59,281.53 937.33,281.53 937.33,281.86 940.07,281.86 940.07,282.18 942.81,282.18 942.81,282.48 945.55,282.48 945.55,282.77 948.29,282.77 948.29,283.04 951.03,283.04 951.03,283.30 953.77,283.30 953.77,283.55 956.51,283.55 956.51,283.78 959.25,283.78 959.25,283.99 961.99,283.99 961.99,284.19 964.73,284.19 964.73,284.37 967.47,284.37 967.47,284.54 970.21,284.54 970.21,284.69 972.95,284.69 972.95,284.83 975.68,284.83 975.68,284.95 978.42,284.95 978.42,285.05 981.16,285.05 981.16,285.14 983.90,285.14 983.90,285.21 986.64,285.21 986.64,285.26 989.38,285.26 989.38,285.30 992.12,285.30 992.12,285.32 994.86,285.32 994.86,285.33 997.60,285.33 997.60,285.32 1000.34,285.32 1000.34,285.29 1003.08,285.29 1003.08,285.24 1005.82,285.24 1005.82,285.18 1008.56,285.18 1008.56,285.10 1011.30,285.10 1011.30,285.01 1014.04,285.01 1014.04,284.90 1016.78,284.90 1016.78,284.77 1019.52,284.77 1019.52,284.63 1022.26,284.63 1022.26,284.47 1025.00,284.47 1025.00,510.00" fill="#0060c0" stroke="none" stroke-width="0"/>
<polygon points="25.00,510.00 25.00,303.56 27.74,303.56 27.74,303.34 30.48,303.34 30.48,303.11 33.22,303.11 33.22,302.87 35.96,302.87 35.96,302.60 38.70,302.60 38.70,302.32 41.44,302.32 41.44,302.03 44.18,302.03 44.18,301.72 46.92,301.72 46.92,301.39 49.66,301.39 49.66,301.05 52.40,301.05 52.40,300.69 55.14,300.69 55.14,300.32 57.88,300.32 57.88,299.93 60.62,299.93 60.62,299.53 63.36,299.53 63.36,299.11 66.10,299.11 66.10,298.68 68.84,298.68 68.84,298.24 71.58,298.24 71.58,297.79 74.32,297.79 74.32,297.32 77.05,297.32 77.05,296.84 79.79,296.84 79.79,296.35 82.53,296.35 82.53,295.85 85.27,295.85 85.27,295.34 88.01,295.34 88.01,294.81 90.75,294.81 90.75,294.28 93.49,294.28 93.49,293.73 96.23,293.73 96.23,293.17 98.97,293.17 98.97,292.61 101.71,292.61 101.71,292.03 104.45,292.03 104.45,291.45 107.19,291.45 107.19,290.86 109.93,290.86 109.93,290.26 112.67,290.26 112.67,289.65 115.41,289.65 115.41,289.03 118.15,289.03 118.15,288.41 120.89,288.41 120.89,287.78 123.63,287.78 123.63,287.14 126.37,287.14 126.37,286.49 129.11,286.49 129.11,285.84 131.85,285.84 131.85,285.19 134.59,285.19 134.59,284.52 137.33,284.52 137.33,283.85 140.07,283.85 140.07,283.18 142.81,283.18 142.81,282.50 145.55,282.50 145.55,281.82 148.29,281.82 148.29,281.13 151.03,281.13 151.03,280.43 153.77,280.43 153.77,279.74 156.51,279.74 156.51,279.03 159.25,279.03 159.25,278.33 161.99,278.33 161.99,277.62 164.73,277.62 164.73,276.90 167.47,276.90 167.47,276.19 170.21,276.19 170.21,275.47 172.95,275.47 172.95,274.75 175.68,274.75 175.68,274.02 178.42,274.02 178.42,273.29 181.16,273.29 181.16,272.56 183.90,272.56 183.90,271.83 186.64,271.83 186.64,271.09 189.38,271.09 189.38,270.36 192.12,270.36 192.12,269.62 194.86,269.62 194.86,268.88 197.60,268.88 197.60,268.14 200.34,268.14 200.34,267.39 203.08,267.39 203.08,266.65 205.82,266.65 205.82,265.90 208.56,265.90 208.56,265.15 211.30,265.15 211.30,264.41 214.04,264.41 214.04,263.66 216.78,263.66 216.78,262.91 219.52,262.91 219.52,262.16 222.26,262.16 222.26,261.41 225.00,261.41 225.00,260.66 227.74,260.66 227.74,259.90 230.48,259.90 230.48,259.15 233.22,259.15 233.22,258.40 235.96,258.40 235.96,257.65 238.70,257.65 238.70,256.90 241.44,256.90 241.44,256.15 244.18,256.15 244.18,255.40 246.92,255.40 246.92,254.64 249.66,254.64 249.66,253.89 252.40,253.89 252.40,253.14 255.14,253.14 255.14,252.40 257.88,252.40 257.88,251.65 260.62,251.65 260.62,250.90 263.36,250.90 263.36,250.15 266.10,250.15 266.10,249.41 268.84,249.41 268.84,248.66 271.58,248.66 271.58,247.92 274.32,247.92 274.32,247.18 277.05,247.18 277.05,246.44 279.79,246.44 279.79,245.70 282.53,245.70 282.53,244.97 285.27,244.97 285.27,244.23 288.01,244.23 288.01,243.50 290.75,243.50 290.75,242.77 293.49,242.77 293.49,242.05 296.23,242.05 296.23,241.32 298.97,241.32 298.97,240.60 301.71,240.60 301.71,239.88 304.45,239.88 304.45,239.17 307.19,239.17 307.19,238.45 309.93,238.45 309.93,237.74 312.67,237.74 312.67,237.04 315.41,237.04 315.41,236.33 318.15,236.33 318.15,235.64 320.89,235.64 320.89,234.94 323.63,234.94 323.63,234.25 326.37,234.25 326.37,233.56 329.11,233.56 329.11,232.88 331.85,232.88 331.85,232.20 334.59,232.20 334.59,231.53 337.33,231.53 337.33,230.86 340.07,230.86 340.07,230.19 342.81,230.19 342.81,229.54 345.55,229.54 345.55,228.88 348.29,228.88 348.29,228.24 351.03,228.24 351.03,227.60 353.77,227.60 353.77,226.96 356.51,226.96 356.51,226.33 359.25,226.33 359.25,225.71 361.99,225.71 361.99,225.10 364.73,225.10 364.73,224.49 367.47,224.49 367.47,223.89 370.21,223.89 370.21,223.30 372.95,223.30 372.95,222.71 375.68,222.71 375.68,222.14 378.42,222.14 378.42,221.57 381.16,221.57 381.16,221.01 383.90,221.01 383.90,220.46 386.64,220.46 386.64,219.92 389.38,219.92 389.38,219.39 392.12,219.39 392.12,218.87 394.86,218.87 394.86,218.36 397.60,218.36 397.60,217.86 400.34,217.86 400.34,217.37 403.08,217.37 403.08,216.89 405.82,216.89 405.82,216.42 408.56,216.42 408.56,215.96 411.30,215.96 411.30,215.52 414.04,215.52 414.04,215.08 416.78,215.08 416.78,214.66 419.52,214.66 419.52,214.25 422.26,214.25 422.26,213.86 425.00,213.86 425.00,213.48 427.74,213.48 427.74,213.11 430.48,213.11 430.48,212.75 433.22,212.75 433.22,212.41 435.96,212.41 435.96,212.08 438.70,212.08 438.70,211.76 441.44,211.76 441.44,211.47 444.18,211.47 444.18,211.18 446.92,211.18 446.92,210.91 449.66,210.91 449.66,210.65 452.40,210.65 452.40,210.42 455.14,210.42 455.14,210.19 457.88,210.19 457.88,209.98 460.62,209.98 460.62,209.79 463.36,209.79 463.36,209.61 466.10,209.61 466.10,209.45 468.84,209.45 468.84,209.31 471.58,209.31 471.58,209.18 474.32,209.18 474.32,209.06 477.05,209.06 477.05,208.97 479.79,208.97 479.79,208.89 482.53,208.89 482.53,208.83 485.27,208.83 485.27,208.78 488.01,208.78 488.01,208.75 490.75,208.75 490.75,208.74 493.49,208.74 493.49,208.74 496.23,208.74 496.23,208.76 498.97,208.76 498.97,208.80 501.71,208.80 501.71,208.85 504.45,208.85 504.45,208.92 507.19,208.92 507.19,209.01 509.93,209.01 509.93,209.11 512.67,209.11 512.67,209.23 515.41,209.23 515.41,209.37 518.15,209.37 518.15,209.52 520.89,209.52 520.89,209.69 523.63,209.69 523.63,209.87 526.37,209.87 526.37,210.07 529.11,210.07 529.11,210.29 531.85,210.29 531.85,210.52 534.59,210.52 534.59,210.76 537.33,210.76 537.33,211.02 540.07,211.02 540.07,211.30 542.81,211.30 542.81,211.59 545.55,211.59 545.55,211.89 548.29,211.89 548.29,212.21 551.03,212.21 551.03,212.54 553.77,212.54 553.77,212.89 556.51,212.89 556.51,213.25 559.25,213.25 559.25,213.62 561.99,213.62 561.99,214.01 564.73,214.01 564.73,214.40 567.47,214.40 567.47,214.81 570.21,214.81 570.21,215.24 572.95,215.24 572.95,215.67 575.68,215.67 575.68,216.12 578.42,216.12 578.42,216.57 581.16,216.57 581.16,217.04 583.90,217.04 583.90,217.52 586.64,217.52 586.64,218.01 589.38,218.01 589.38,218.51 592.12,218.51 592.12,219.02 594.86,219.02 594.86,219.54 597.60,219.54 597.60,220.07 600.34,220.07 600.34,220.61 603.08,220.61 603.08,221.15 605.82,221.15 605.82,221.71 608.56,221.71 608.56,222.27 611.30,222.27 611.30,222.85 614.04,222.85 614.04,223.43 616.78,223.43 616.78,224.01 619.52,224.01 619.52,224.61 622.26,224.61 622.26,225.21 625.00,225.21 625.00,225.82 627.74,225.82 627.74,226.43 630.48,226.43 630.48,227.05 633.22,227.05 633.22,227.68 635.96,227.68 635.96,228.31 638.70,228.31 638.70,228.95 641.44,228.95 641.44,229.60 644.18,229.60 644.18,230.25 646.92,230.25 646.92,230.90 649.66,230.90 649.66,231.57 652.40,231.57 652.40,232.23 655.14,232.23 655.14,232.90 657.88,232.90 657.88,233.57 660.62,233.57 660.62,234.25 663.36,234.25 663.36,234.94 666.10,234.94 666.10,235.62 668.84,235.62 668.84,236.31 671.58,236.31 671.58,237.01 674.32,237.01 674.32,237.70 677.05,237.70 677.05,238.40 679.79,238.40 679.79,239.11 682.53,239.11 682.53,239.81 685.27,239.81 685.27,240.52 688.01,240.52 688.01,241.23 690.75,241.23 690.75,241.95 693.49,241.95 693.49,242.66 696.23,242.66 696.23,243.38 698.97,243.38 698.97,244.10 701.71,244.10 701.71,244.82 704.45,244.82 704.45,245.55 707.19,245.55 707.19,246.27 709.93,246.27 709.93,247.00 712.67,247.00 712.67,247.73 715.41,247.73 715.41,248.46 718.15,248.46 718.15,249.19 720.89,249.19 720.89,249.92 723.63,249.92 723.63,250.66 726.37,250.66 726.37,251.39 729.11,251.39 729.11,252.13 731.85,252.13 731.85,252.87 734.59,252.87 734.59,253.60 737.33,253.60 737.33,254.34 740.07,254.34 740.07,255.08 742.81,255.08 742.81,255.82 745.55,255.82 745.55,256.56 748.29,256.56 748.29,257.30 751.03,257.30 751.03,258.04 753.77,258.04 753.77,258.78 756.51,258.78 756.51,259.52 759.25,259.52 759.25,260.27 761.99,260.27 761.99,261.01 764.73,261.01 764.73,261.75 767.47,261.75 767.47,262.48 770.21,262.48 770.21,263.22 772.95,263.22 772.95,263.96 775.68,263.96 775.68,264.70 778.42,264.70 778.42,265.43 781.16,265.43 781.16,266.17 783.90,266.17 783.90,266.90 786.64,266.90 786.64,267.64 789.38,267.64 789.38,268.37 792.12,268.37 792.12,269.10 794.86,269.10 794.86,269.83 797.60,269.83 797.60,270.55 800.34,270.55 800.34,271.28 803.08,271.28 803.08,272.00 805.82,272.00 805.82,272.73 808.56,272.73 808.56,273.44 811.30,273.44 811.30,274.16 814.04,274.16 814.04,274.88 816.78,274.88 816.78,275.59 819.52,275.59 819.52,276.30 822.26,276.30 822.26,277.00 825.00,277.00 825.00,277.71 827.74,277.71 827.74,278.41 830.48,278.41 830.48,279.10 833.22,279.10 833.22,279.80 835.96,279.80 835.96,280.48 838.70,280.48 838.70,281.17 841.44,281.17 841.44,281.85 844.18,281.85 844.18,282.53 846.92,282.53 846.92,283.20 849.66,283.20 849.66,283.86 852.40,283.86 852.40,284.52 855.14,284.52 855.14,285.18 857.88,285.18 857.88,285.83 860.62,285.83 860.62,286.47 863.36,286.47 863.36,287.11 866.10,287.11 866.10,287.74 868.84,287.74 868.84,288.36 871.58,288.36 871.58,288.98 874.32,288.98 874.32,289.59 877.05,289.59 877.05,290.19 879.79,290.19 879.79,290.79 882.53,290.79 882.53,291.38 885.27,291.38 885.27,291.96 888.01,291.96 888.01,292.53 890.75,292.53 890.75,293.09 893.49,293.09 893.49,293.64 896.23,293.64 896.23,294.18 898.97,294.18 898.97,294.71 901.71,294.71 901.71,295.24 904.45,295.24 904.45,295.75 907.19,295.75 907.19,296.25 909.93,296.25 909.93,296.74 912.67,296.74 912.67,297.22 915.41,297.22 915.41,297.68 918.15,297.68 918.15,298.14 920.89,298.14 920.89,298.58 923.63,298.58 923.63,299.01 926.37,299.01 926.37,299.42 929.11,299.42 929.11,299.82 931.85,299.82 931.85,300.21 934.59,300.21 934.59,300.59 937.33,300.59 937.33,300.95 940.07,300.95 940.07,301.29 942.81,301.29 942.81,301.62 945.55,301.62 945.55,301.94 948.29,301.94 948.29,302.23 951.03,302.23 951.03,302.52 953.77,302.52 953.77,302.79 956.51,302.79 956.51,303.04 959.25,303.04 959.25,303.27 961.99,303.27 961.99,303.49 964.73,303.49 964.73,303.69 967.47,303.69 967.47,303.87 970.21,303.87 970.21,304.04 972.95,304.04 972.95,304.19 975.68,304.19 975.68,304.32 978.42,304.32 978.42,304.44 981.16,304.44 981.16,304.53 983.90,304.53 983.90,304.61 986.64,304.61 986.64,304.67 989.38,304.67 989.38,304.71 992.12,304.71 992.12,304.73 994.86,304.73 994.86,304.74 997.60,304.74 997.60,304.73 1000.34,304.73 1000.34,304.70 1003.08,304.70 1003.08,304.65 1005.82,304.65 1005.82,304.58 1008.56,304.58 1008.56,304.49 1011.30,304.49 1011.30,304.39 1014.04,304.39 1014.04,304.27 1016.78,304.27 1016.78,304.13 1019.52,304.13 1019.52,303.97 1022.26,303.97 1022.26,303.80 1025.00,303.80 1025.00,510.00" fill="#80c0ff" stroke="none" stroke-width="0"/>
<line x1="240.07" y1="10.00" x2="240.07" y2="510.00" stroke="#00c000" stroke-width="1" />
<line x1="492.12" y1="10.00" x2="492.12" y2="510.00" stroke="#00c000" stroke-width="1" />
<line x1="749.66" y1="10.00" x2="749.66" y2="510.00" stroke="#00c000" stroke-width="1" />
<line x1="996.23" y1="10.00" x2="996.23" y2="510.00" stroke="#00c000" stroke-width="1" />
<text x="20.00" y="510.00" font-family="Arial" font-size="12" text-anchor="end" alignment-baseline="middle" fill="#000000">0</text>
<line x1="25.00" y1="510.00" x2="1025.00" y2="510.00" stroke="#808080" stroke-width="0.5" />
<text x="20.00" y="468.33" font-family="Arial" font-size="12" text-anchor="end" alignment-baseline="middle" fill="#000000">2</text>
<line x1="25.00" y1="468.33" x2="1025.00" y2="468.33" stroke="#808080" stroke-width="0.5" />
<text x="20.00" y="426.67" font-family="Arial" font-size="12" text-anchor="end" alignment-baseline="middle" fill="#000000">4</text>
<line x1="25.00" y1="426.67" x2="1025.00" y2="426.67" stroke="#808080" stroke-width="0.5" />
<text x="20.00" y="385.00" font-family="Arial" font-size="12" text-anchor="end" alignment-baseline="middle" fill="#000000">6</text>
<line x1="25.00" y1="385.00" x2="1025.00" y2="385.00" stroke="#808080" stroke-width="0.5" />
<text x="20.00" y="343.33" font-family="Arial" font-size="12" text-anchor="end" alignment-baseline="middle" fill="#000000">8</text>
<line x1="25.00" y1="343.33" x2="1025.00" y2="343.33" stroke="#808080" stroke-width="0.5" />
<text x="20.00" y="301.67" font-family="Arial" font-size="12" text-anchor="end" alignment-baseline="middle" fill="#000000">10</text>
<line x1="25.00" y1="301.67" x2="1025.00" y2="301.67" stroke="#808080" stroke-width="0.5" />
<text x="20.00" y="260.00" font-family="Arial" font-size="12" text-anchor="end" alignment-baseline="middle" fill="#000000">12</text>
<line x1="25.00" y1="260.00" x2="1025.00" y2="260.00" stroke="#808080" stroke-width="0.5" />
<text x="20.00" y="218.33" font-family="Arial" font-size="12" text-anchor="end" alignment-baseline="middle" fill="#000000">14</text>
<line x1="25.00" y1="218.33" x2="1025.00" y2="218.33" stroke="#808080" stroke-width="0.5" />
<text x="20.00" y="176.67" font-family="Arial" font-size="12" text-anchor="end" alignment-baseline="middle" fill="#000000">16</text>
<line x1="25.00" y1="176.67" x2="1025.00" y2="176.67" stroke="#808080" stroke-width="0.5" />
<text x="20.00" y="135.00" font-family="Arial" font-size="12" text-anchor="end" alignment-baseline="middle" fill="#000000">18</text>
<line x1="25.00" y1="135.00" x2="1025.00" y2="135.00" stroke="#808080" stroke-width="0.5" />
<text x="20.00" y="93.33" font-family="Arial" font-size="12" text-anchor="end" alignment-baseline="middle" fill="#000000">20</text>
<line x1="25.00" y1="93.33" x2="1025.00" y2="93.33" stroke="#808080" stroke-width="0.5" />
<text x="20.00" y="51.67" font-family="Arial" font-size="12" text-anchor="end" alignment-baseline="middle" fill="#000000">22</text>
<line x1="25.00" y1="51.67" x2="1025.00" y2="51.67" stroke="#808080" stroke-width="0.5" />
<text x="20.00" y="10.00" font-family="Arial" font-size="12" text-anchor="end" alignment-baseline="middle" fill="#000000">24</text>
<line x1="25.00" y1="10.00" x2="1025.00" y2="10.00" stroke="#808080" stroke-width="0.5" />
<text x="67.47" y="522.00" font-family="Arial" font-size="12" text-anchor="middle" alignment-baseline="middle" fill="#000000">Jan</text>
<line x1="25.00" y1="10.00" x2="25.00" y2="510.00" stroke="#808080" stroke-width="0.5" />
<text x="148.29" y="522.00" font-family="Arial" font-size="12" text-anchor="middle" alignment-baseline="middle" fill="#000000">Feb</text>
<line x1="109.93" y1="10.00" x2="109.93" y2="510.00" stroke="#808080" stroke-width="0.5" />
<text x="229.11" y="522.00" font-family="Arial" font-size="12" text-anchor="middle" alignment-baseline="middle" fill="#000000">Mar</text>
<line x1="186.64" y1="10.00" x2="186.64" y2="510.00" stroke="#808080" stroke-width="0.5" />
<text x="312.67" y="522.00" font-family="Arial" font-size="12" text-anchor="middle" alignment-baseline="middle" fill="#000000">Apr</text>
<line x1="271.58" y1="10.00" x2="271.58" y2="510.00" stroke="#808080" stroke-width="0.5" />
<text x="396.23" y="522.00" font-family="Arial" font-size="12" text-anchor="middle" alignment-baseline="middle" fill="#000000">May</text>
<line x1="353.77" y1="10.00" x2="353.77" y2="510.00" stroke="#808080" stroke-width="0.5" />
<text x="479.79" y="522.00" font-family="Arial" font-size="12" text-anchor="middle" alignment-baseline="middle" fill="#000000">Jun</text>
<line x1="438.70" y1="10.00" x2="438.70" y2="510.00" stroke="#808080" stroke-width="0.5" />
<text x="563.36" y="522.00" font-family="Arial" font-size="12" text-anchor="middle" alignment-baseline="middle" fill="#000000">Jul</text>
<line x1="520.89" y1="10.00" x2="520.89" y2="510.00" stroke="#808080" stroke-width="0.5" />
<text x="648.29" y="522.00" font-family="Arial" font-size="12" text-anchor="middle" alignment-baseline="middle" fill="#000000">Aug</text>
<line x1="605.82" y1="10.00" x2="605.82" y2="510.00" stroke="#808080" stroke-width="0.5" />
<text x="731.85" y="522.00" font-family="Arial" font-size="12" text-anchor="middle" alignment-baseline="middle" fill="#000000">Sep</text>
<line x1="690.75" y1="10.00" x2="690.75" y2="510.00" stroke="#808080" stroke-width="0.5" />
<text x="815.41" y="522.00" font-family="Arial" font-size="12" text-anchor="middle" alignment-baseline="middle" fill="#000000">Oct</text>
<line x1="772.95" y1="10.00" x2="772.95" y2="510.00" stroke="#808080" stroke-width="0.5" />
<text x="898.97" y="522.00" font-family="Arial" font-size="12" text-anchor="middle" alignment-baseline="middle" fill="#000000">Nov</text>
<line x1="857.88" y1="10.00" x2="857.88" y2="510.00" stroke="#808080" stroke-width="0.5" />
<text x="982.53" y="522.00" font-family="Arial" font-size="12" text-anchor="middle" alignment-baseline="middle" fill="#000000">Dec</text>
<line x1="940.07" y1="10.00" x2="940.07" y2="510.00" stroke="#808080" stroke-width="0.5" />
<line x1="1025.00" y1="10.00" x2="1025.00" y2="510.00" stroke="#808080" stroke-width="0.5" />
</svg>