<svg xmlns="http://www.w3.org/2000/svg" width="1035" height="535" viewBox="0 0 1035 535">
<rect x="0" y="0" width="1035" height="535" fill="#ffffff" stroke="none" stroke-width="0"/>
<rect x="25" y="10" width="1000" height="500" fill="#000000" stroke="none" stroke-width="0"/>
<polygon points="25.00,393.22 25.00,124.49 26.37,124.49 26.37,124.24 29.12,124.24 29.12,123.99 31.87,123.99 31.87,123.74 34.62,123.74 34.62,123.48 37.36,123.48 37.36,123.22 40.11,123.22 40.11,122.95 42.86,122.95 42.86,122.68 45.60,122.68 45.60,122.41 48.35,122.41 48.35,122.14 51.10,122.14 51.10,121.86 53.85,121.86 53.85,121.58 56.59,121.58 56.59,121.29 59.34,121.29 59.34,121.01 62.09,121.01 62.09,120.72 64.84,120.72 64.84,120.43 67.58,120.43 67.58,120.14 70.33,120.14 70.33,119.85 73.08,119.85 73.08,119.55 75.82,119.55 75.82,119.26 78.57,119.26 78.57,118.96 81.32,118.96 81.32,118.66 84.07,118.66 84.07,118.37 86.81,118.37 86.81,118.07 89.56,118.07 89.56,117.77 92.31,117.77 92.31,117.47 95.05,117.47 95.05,117.17 97.80,117.17 97.80,116.87 100.55,116.87 100.55,116.57 103.30,116.57 103.30,116.27 106.04,116.27 106.04,115.97 108.79,115.97 108.79,115.66 111.54,115.66 111.54,115.36 114.29,115.36 114.29,115.06 117.03,115.06 117.03,114.77 119.78,114.77 119.78,114.47 122.53,114.47 122.53,114.17 125.27,114.17 125.27,113.87 128.02,113.87 128.02,113.57 130.77,113.57 130.77,113.27 133.52,113.27 133.52,112.98 136.26,112.98 136.26,112.68 139.01,112.68 139.01,112.39 141.76,112.39 141.76,112.09 144.51,112.09 144.51,111.80 147.25,111.80 147.25,111.51 150.00,111.51 150.00,111.21 152.75,111.21 152.75,110.92 155.49,110.92 155.49,110.63 158.24,110.63 158.24,110.34 160.99,110.34 160.99,110.05 163.74,110.05 163.74,109.76 166.48,109.76 166.48,109.46 169.23,109.46 169.23,109.17 171.98,109.17 171.98,108.89 174.73,108.89 174.73,108.60 177.47,108.60 177.47,108.31 180.22,108.31 180.22,108.02 182.97,108.02 182.97,107.73 185.71,107.73 185.71,107.44 188.46,107.44 188.46,107.15 191.21,107.15 191.21,106.86 193.96,106.86 193.96,106.57 196.70,106.57 196.70,106.28 199.45,106.28 199.45,105.99 202.20,105.99 202.20,105.70 204.95,105.70 204.95,105.41 207.69,105.41 207.69,84.28 210.44,84.28 210.44,83.99 213.19,83.99 213.19,83.70 215.93,83.70 215.93,83.41 218.68,83.41 218.68,83.11 221.43,83.11 221.43,82.82 224.18,82.82 224.18,82.52 226.92,82.52 226.92,82.22 229.67,82.22 229.67,81.92 232.42,81.92 232.42,81.62 235.16,81.62 235.16,81.32 237.91,81.32 237.91,81.02 240.66,81.02 240.66,80.71 243.41,80.71 243.41,80.40 246.15,80.40 246.15,80.10 248.90,80.10 248.90,79.79 251.65,79.79 251.65,79.47 254.40,79.47 254.40,79.16 257.14,79.16 257.14,78.84 259.89,78.84 259.89,78.53 262.64,78.53 262.64,78.21 265.38,78.21 265.38,77.89 268.13,77.89 268.13,77.56 270.88,77.56 270.88,77.24 273.63,77.24 273.63,76.91 276.37,76.91 276.37,76.58 279.12,76.58 279.12,76.24 281.87,76.24 281.87,75.91 284.62,75.91 284.62,75.57 287.36,75.57 287.36,75.23 290.11,75.23 290.11,74.89 292.86,74.89 292.86,74.54 295.60,74.54 295.60,74.20 298.35,74.20 298.35,73.85 301.10,73.85 301.10,73.49 303.85,73.49 303.85,73.14 306.59,73.14 306.59,72.78 309.34,72.78 309.34,72.42 312.09,72.42 312.09,72.06 314.84,72.06 314.84,71.70 317.58,71.70 317.58,71.33 320.33,71.33 320.33,70.96 323.08,70.96 323.08,70.59 325.82,70.59 325.82,70.22 328.57,70.22 328.57,69.84 331.32,69.84 331.32,69.46 334.07,69.46 334.07,69.08 336.81,69.08 336.81,68.70 339.56,68.70 339.56,68.32 342.31,68.32 342.31,67.93 345.05,67.93 345.05,67.55 347.80,67.55 347.80,67.16 350.55,67.16 350.55,66.77 353.30,66.77 353.30,66.38 356.04,66.38 356.04,65.99 358.79,65.99 358.79,65.60 361.54,65.60 361.54,65.21 364.29,65.21 364.29,64.82 367.03,64.82 367.03,64.42 369.78,64.42 369.78,64.03 372.53,64.03 372.53,63.64 375.27,63.64 375.27,63.25 378.02,63.25 378.02,62.86 380.77,62.86 380.77,62.47 383.52,62.47 383.52,62.08 386.26,62.08 386.26,61.70 389.01,61.70 389.01,61.31 391.76,61.31 391.76,60.93 394.51,60.93 394.51,60.55 397.25,60.55 397.25,60.17 400.00,60.17 400.00,59.80 402.75,59.80 402.75,59.42 405.49,59.42 405.49,59.06 408.24,59.06 408.24,58.69 410.99,58.69 410.99,58.33 413.74,58.33 413.74,57.98 416.48,57.98 416.48,57.63 419.23,57.63 419.23,57.29 421.98,57.29 421.98,56.95 424.73,56.95 424.73,56.62 427.47,56.62 427.47,56.29 430.22,56.29 430.22,55.97 432.97,55.97 432.97,55.66 435.71,55.66 435.71,55.36 438.46,55.36 438.46,55.07 441.21,55.07 441.21,54.78 443.96,54.78 443.96,54.50 446.70,54.50 446.70,54.23 449.45,54.23 449.45,53.97 452.20,53.97 452.20,53.73 454.95,53.73 454.95,53.49 457.69,53.49 457.69,53.26 460.44,53.26 460.44,53.04 463.19,53.04 463.19,52.83 465.93,52.83 465.93,52.64 468.68,52.64 468.68,52.46 471.43,52.46 471.43,52.29 474.18,52.29 474.18,52.13 476.92,52.13 476.92,51.98 479.67,51.98 479.67,51.85 482.42,51.85 482.42,51.73 485.16,51.73 485.16,51.62 487.91,51.62 487.91,51.52 490.66,51.52 490.66,51.44 493.41,51.44 493.41,51.37 496.15,51.37 496.15,51.32 498.90,51.32 498.90,51.28 501.65,51.28 501.65,51.25 504.40,51.25 504.40,51.24 507.14,51.24 507.14,51.24 509.89,51.24 509.89,51.26 512.64,51.26 512.64,51.29 515.38,51.29 515.38,51.34 518.13,51.34 518.13,51.39 520.88,51.39 520.88,51.47 523.63,51.47 523.63,51.55 526.37,51.55 526.37,51.65 529.12,51.65 529.12,51.76 531.87,51.76 531.87,51.89 534.62,51.89 534.62,52.03 537.36,52.03 537.36,52.19 540.11,52.19 540.11,52.35 542.86,52.35 542.86,52.53 545.60,52.53 545.60,52.73 548.35,52.73 548.35,52.93 551.10,52.93 551.10,53.15 553.85,53.15 553.85,53.38 556.59,53.38 556.59,53.62 559.34,53.62 559.34,53.88 562.09,53.88 562.09,54.14 564.84,54.14 564.84,54.42 567.58,54.42 567.58,54.71 570.33,54.71 570.33,55.01 573.08,55.01 573.08,55.32 575.82,55.32 575.82,55.64 578.57,55.64 578.57,55.97 581.32,55.97 581.32,56.31 584.07,56.31 584.07,56.67 586.81,56.67 586.81,57.03 589.56,57.03 589.56,57.40 592.31,57.40 592.31,57.78 595.05,57.78 595.05,58.16 597.80,58.16 597.80,58.56 600.55,58.56 600.55,58.96 603.30,58.96 603.30,59.38 606.04,59.38 606.04,59.80 608.79,59.80 608.79,60.22 611.54,60.22 611.54,60.66 614.29,60.66 614.29,61.10 617.03,61.10 617.03,61.55 619.78,61.55 619.78,62.00 622.53,62.00 622.53,62.46 625.27,62.46 625.27,62.93 628.02,62.93 628.02,63.40 630.77,63.40 630.77,63.88 633.52,63.88 633.52,64.36 636.26,64.36 636.26,64.85 639.01,64.85 639.01,65.34 641.76,65.34 641.76,65.84 644.51,65.84 644.51,66.34 647.25,66.34 647.25,66.84 650.00,66.84 650.00,67.35 652.75,67.35 652.75,67.86 655.49,67.86 655.49,68.38 658.24,68.38 658.24,68.90 660.99,68.90 660.99,69.42 663.74,69.42 663.74,69.95 666.48,69.95 666.48,70.48 669.23,70.48 669.23,71.01 671.98,71.01 671.98,71.54 674.73,71.54 674.73,72.07 677.47,72.07 677.47,72.61 680.22,72.61 680.22,73.15 682.97,73.15 682.97,73.69 685.71,73.69 685.71,74.23 688.46,74.23 688.46,74.77 691.21,74.77 691.21,75.31 693.96,75.31 693.96,75.85 696.70,75.85 696.70,76.40 699.45,76.40 699.45,76.94 702.20,76.94 702.20,77.49 704.95,77.49 704.95,78.03 707.69,78.03 707.69,78.57 710.44,78.57 710.44,79.12 713.19,79.12 713.19,79.66 715.93,79.66 715.93,80.20 718.68,80.20 718.68,80.74 721.43,80.74 721.43,81.28 724.18,81.28 724.18,81.82 726.92,81.82 726.92,82.36 729.67,82.36 729.67,82.90 732.42,82.90 732.42,83.43 735.16,83.43 735.16,83.97 737.91,83.97 737.91,84.50 740.66,84.50 740.66,85.03 743.41,85.03 743.41,85.55 746.15,85.55 746.15,86.08 748.90,86.08 748.90,86.60 751.65,86.60 751.65,87.12 754.40,87.12 754.40,87.63 757.14,87.63 757.14,88.15 759.89,88.15 759.89,88.66 762.64,88.66 762.64,89.16 765.38,89.16 765.38,89.66 768.13,89.66 768.13,90.16 770.88,90.16 770.88,90.66 773.63,90.66 773.63,91.15 776.37,91.15 776.37,91.64 779.12,91.64 779.12,92.12 781.87,92.12 781.87,92.60 784.62,92.60 784.62,93.07 787.36,93.07 787.36,93.54 790.11,93.54 790.11,94.00 792.86,94.00 792.86,94.46 795.60,94.46 795.60,94.91 798.35,94.91 798.35,95.36 801.10,95.36 801.10,95.80 803.85,95.80 803.85,96.24 806.59,96.24 806.59,96.67 809.34,96.67 809.34,97.10 812.09,97.10 812.09,97.51 814.84,97.51 814.84,97.93 817.58,97.93 817.58,98.33 820.33,98.33 820.33,98.73 823.08,98.73 823.08,99.13 825.82,99.13 825.82,99.51 828.57,99.51 828.57,99.89 831.32,99.89 831.32,100.26 834.07,100.26 834.07,100.62 836.81,100.62 836.81,100.98 839.56,100.98 839.56,101.33 842.31,101.33 842.31,101.67 845.05,101.67 845.05,102.00 847.80,102.00 847.80,102.33 850.55,102.33 850.55,102.65 853.30,102.65 853.30,102.95 856.04,102.95 856.04,103.25 858.79,103.25 858.79,103.55 861.54,103.55 861.54,124.66 864.29,124.66 864.29,124.94 867.03,124.94 867.03,125.20 869.78,125.20 869.78,125.46 872.53,125.46 872.53,125.70 875.27,125.70 875.27,125.94 878.02,125.94 878.02,126.17 880.77,126.17 880.77,126.39 883.52,126.39 883.52,126.60 886.26,126.60 886.26,126.80 889.01,126.80 889.01,126.99 891.76,126.99 891.76,127.17 894.51,127.17 894.51,127.34 897.25,127.34 897.25,127.50 900.00,127.50 900.00,127.66 902.75,127.66 902.75,127.80 905.49,127.80 905.49,127.93 908.24,127.93 908.24,128.05 910.99,128.05 910.99,128.16 913.74,128.16 913.74,128.27 916.48,128.27 916.48,128.36 919.23,128.36 919.23,128.44 921.98,128.44 921.98,128.51 924.73,128.51 924.73,128.57 927.47,128.57 927.47,128.62 930.22,128.62 930.22,128.67 932.97,128.67 932.97,128.70 935.71,128.70 935.71,128.72 938.46,128.72 938.46,128.73 941.21,128.73 941.21,128.73 943.96,128.73 943.96,128.73 946.70,128.73 946.70,128.71 949.45,128.71 949.45,128.68 952.20,128.68 952.20,128.64 954.95,128.64 954.95,128.60 957.69,128.60 957.69,128.54 960.44,128.54 960.44,128.48 963.19,128.48 963.19,128.41 965.93,128.41 965.93,128.32 968.68,128.32 968.68,128.23 971.43,128.23 971.43,128.13 974.18,128.13 974.18,128.02 976.92,128.02 976.92,127.90 979.67,127.90 979.67,127.78 982.42,127.78 982.42,127.65 985.16,127.65 985.16,127.50 987.91,127.50 987.91,127.35 990.66,127.35 990.66,127.20 993.41,127.20 993.41,127.03 996.15,127.03 996.15,126.86 998.90,126.86 998.90,126.68 1001.65,126.68 1001.65,126.50 1004.40,126.50 1004.40,126.30 1007.14,126.30 1007.14,126.10 1009.89,126.10 1009.89,125.90 1012.64,125.90 1012.64,125.69 1015.38,125.69 1015.38,125.47 1018.13,125.47 1018.13,125.25 1020.88,125.25 1020.88,125.02 1023.63,125.02 1023.63,124.78 1025.00,124.78 1025.00,393.34 1023.63,393.34 1023.63,393.44 1020.88,393.44 1020.88,393.54 1018.13,393.54 1018.13,393.66 1015.38,393.66 1015.38,393.79 1012.64,393.79 1012.64,393.92 1009.89,393.92 1009.89,394.06 1007.14,394.06 1007.14,394.21 1004.40,394.21 1004.40,394.36 1001.65,394.36 1001.65,394.52 998.90,394.52 998.90,394.69 996.15,394.69 996.15,394.87 993.41,394.87 993.41,395.05 990.66,395.05 990.66,395.24 987.91,395.24 987.91,395.43 985.16,395.43 985.16,395.64 982.42,395.64 982.42,395.84 979.67,395.84 979.67,396.06 976.92,396.06 976.92,396.27 974.18,396.27 974.18,396.50 971.43,396.50 971.43,396.72 968.68,396.72 968.68,396.96 965.93,396.96 965.93,397.19 963.19,397.19 963.19,397.43 960.44,397.43 960.44,397.68 957.69,397.68 957.69,397.93 954.95,397.93 954.95,398.18 952.20,398.18 952.20,398.44 949.45,398.44 949.45,398.70 946.70,398.70 946.70,398.96 943.96,398.96 943.96,399.22 941.21,399.22 941.21,399.49 938.46,399.49 938.46,399.76 935.71,399.76 935.71,400.03 932.97,400.03 932.97,400.31 930.22,400.31 930.22,400.58 927.47,400.58 927.47,400.86 924.73,400.86 924.73,401.14 921.98,401.14 921.98,401.42 919.23,401.42 919.23,401.70 916.48,401.70 916.48,401.99 913.74,401.99 913.74,402.27 910.99,402.27 910.99,402.55 908.24,402.55 908.24,402.84 905.49,402.84 905.49,403.12 902.75,403.12 902.75,403.41 900.00,403.41 900.00,403.69 897.25,403.69 897.25,403.98 894.51,403.98 894.51,404.26 891.76,404.26 891.76,404.55 889.01,404.55 889.01,404.83 886.26,404.83 886.26,405.11 883.52,405.11 883.52,405.40 880.77,405.40 880.77,405.68 878.02,405.68 878.02,405.96 875.27,405.96 875.27,406.25 872.53,406.25 872.53,406.53 869.78,406.53 869.78,406.81 867.03,406.81 867.03,407.09 864.29,407.09 864.29,407.36 861.54,407.36 861.54,386.81 858.79,386.81 858.79,387.09 856.04,387.09 856.04,387.36 853.30,387.36 853.30,387.64 850.55,387.64 850.55,387.91 847.80,387.91 847.80,388.19 845.05,388.19 845.05,388.46 842.31,388.46 842.31,388.73 839.56,388.73 839.56,389.00 836.81,389.00 836.81,389.27 834.07,389.27 834.07,389.54 831.32,389.54 831.32,389.81 828.57,389.81 828.57,390.08 825.82,390.08 825.82,390.35 823.08,390.35 823.08,390.62 820.33,390.62 820.33,390.88 817.58,390.88 817.58,391.15 814.84,391.15 814.84,391.42 812.09,391.42 812.09,391.68 809.34,391.68 809.34,391.95 806.59,391.95 806.59,392.21 803.85,392.21 803.85,392.48 801.10,392.48 801.10,392.74 798.35,392.74 798.35,393.00 795.60,393.00 795.60,393.27 792.86,393.27 792.86,393.53 790.11,393.53 790.11,393.80 787.36,393.80 787.36,394.06 784.62,394.06 784.62,394.33 781.87,394.33 781.87,394.60 779.12,394.60 779.12,394.86 776.37,394.86 776.37,395.13 773.63,395.13 773.63,395.40 770.88,395.40 770.88,395.67 768.13,395.67 768.13,395.94 765.38,395.94 765.38,396.21 762.64,396.21 762.64,396.48 759.89,396.48 759.89,396.75 757.14,396.75 757.14,397.03 754.40,397.03 754.40,397.30 751.65,397.30 751.65,397.58 748.90,397.58 748.90,397.86 746.15,397.86 746.15,398.14 743.41,398.14 743.41,398.42 740.66,398.42 740.66,398.71 737.91,398.71 737.91,398.99 735.16,398.99 735.16,399.28 732.42,399.28 732.42,399.57 729.67,399.57 729.67,399.86 726.92,399.86 726.92,400.15 724.18,400.15 724.18,400.44 721.43,400.44 721.43,400.74 718.68,400.74 718.68,401.04 715.93,401.04 715.93,401.34 713.19,401.34 713.19,401.65 710.44,401.65 710.44,401.95 707.69,401.95 707.69,402.26 704.95,402.26 704.95,402.57 702.20,402.57 702.20,402.88 699.45,402.88 699.45,403.20 696.70,403.20 696.70,403.52 693.96,403.52 693.96,403.84 691.21,403.84 691.21,404.16 688.46,404.16 688.46,404.49 685.71,404.49 685.71,404.81 682.97,404.81 682.97,405.14 680.22,405.14 680.22,405.48 677.47,405.48 677.47,405.81 674.73,405.81 674.73,406.15 671.98,406.15 671.98,406.49 669.23,406.49 669.23,406.84 666.48,406.84 666.48,407.18 663.74,407.18 663.74,407.53 660.99,407.53 660.99,407.88 658.24,407.88 658.24,408.23 655.49,408.23 655.49,408.59 652.75,408.59 652.75,408.95 650.00,408.95 650.00,409.31 647.25,409.31 647.25,409.67 644.51,409.67 644.51,410.03 641.76,410.03 641.76,410.39 639.01,410.39 639.01,410.76 636.26,410.76 636.26,411.13 633.52,411.13 633.52,411.50 630.77,411.50 630.77,411.87 628.02,411.87 628.02,412.24 625.27,412.24 625.27,412.61 622.53,412.61 622.53,412.98 619.78,412.98 619.78,413.35 617.03,413.35 617.03,413.73 614.29,413.73 614.29,414.10 611.54,414.10 611.54,414.47 608.79,414.47 608.79,414.85 606.04,414.85 606.04,415.22 603.30,415.22 603.30,415.59 600.55,415.59 600.55,415.96 597.80,415.96 597.80,416.33 595.05,416.33 595.05,416.70 592.31,416.70 592.31,417.06 589.56,417.06 589.56,417.43 586.81,417.43 586.81,417.79 584.07,417.79 584.07,418.15 581.32,418.15 581.32,418.50 578.57,418.50 578.57,418.85 575.82,418.85 575.82,419.20 573.08,419.20 573.08,419.55 570.33,419.55 570.33,419.88 567.58,419.88 567.58,420.22 564.84,420.22 564.84,420.55 562.09,420.55 562.09,420.87 559.34,420.87 559.34,421.19 556.59,421.19 556.59,421.50 553.85,421.50 553.85,421.80 551.10,421.80 551.10,422.10 548.35,422.10 548.35,422.39 545.60,422.39 545.60,422.67 542.86,422.67 542.86,422.94 540.11,422.94 540.11,423.21 537.36,423.21 537.36,423.47 534.62,423.47 534.62,423.71 531.87,423.71 531.87,423.95 529.12,423.95 529.12,424.18 526.37,424.18 526.37,424.40 523.63,424.40 523.63,424.60 520.88,424.60 520.88,424.80 518.13,424.80 518.13,424.98 515.38,424.98 515.38,425.16 512.64,425.16 512.64,425.32 509.89,425.32 509.89,425.47 507.14,425.47 507.14,425.61 504.40,425.61 504.40,425.73 501.65,425.73 501.65,425.84 498.90,425.84 498.90,425.94 496.15,425.94 496.15,426.03 493.41,426.03 493.41,426.10 490.66,426.10 490.66,426.16 487.91,426.16 487.91,426.21 485.16,426.21 485.16,426.24 482.42,426.24 482.42,426.26 479.67,426.26 479.67,426.27 476.92,426.27 476.92,426.26 474.18,426.26 474.18,426.24 471.43,426.24 471.43,426.21 468.68,426.21 468.68,426.16 465.93,426.16 465.93,426.09 463.19,426.09 463.19,426.02 460.44,426.02 460.44,425.93 457.69,425.93 457.69,425.83 454.95,425.83 454.95,425.71 452.20,425.71 452.20,425.58 449.45,425.58 449.45,425.44 446.70,425.44 446.70,425.28 443.96,425.28 443.96,425.11 441.21,425.11 441.21,424.93 438.46,424.93 438.46,424.73 435.71,424.73 435.71,424.53 432.97,424.53 432.97,424.31 430.22,424.31 430.22,424.07 427.47,424.07 427.47,423.83 424.73,423.83 424.73,423.58 421.98,423.58 421.98,423.31 419.23,423.31 419.23,423.03 416.48,423.03 416.48,422.74 413.74,422.74 413.74,422.44 410.99,422.44 410.99,422.13 408.24,422.13 408.24,421.81 405.49,421.81 405.49,421.48 402.75,421.48 402.75,421.14 400.00,421.14 400.00,420.79 397.25,420.79 397.25,420.44 394.51,420.44 394.51,420.07 391.76,420.07 391.76,419.69 389.01,419.69 389.01,419.31 386.26,419.31 386.26,418.92 383.52,418.92 383.52,418.52 380.77,418.52 380.77,418.11 378.02,418.11 378.02,417.69 375.27,417.69 375.27,417.27 372.53,417.27 372.53,416.84 369.78,416.84 369.78,416.40 367.03,416.40 367.03,415.96 364.29,415.96 364.29,415.51 361.54,415.51 361.54,415.05 358.79,415.05 358.79,414.59 356.04,414.59 356.04,414.13 353.30,414.13 353.30,413.66 350.55,413.66 350.55,413.18 347.80,413.18 347.80,412.70 345.05,412.70 345.05,412.21 342.31,412.21 342.31,411.72 339.56,411.72 339.56,411.23 336.81,411.23 336.81,410.73 334.07,410.73 334.07,410.23 331.32,410.23 331.32,409.72 328.57,409.72 328.57,409.21 325.82,409.21 325.82,408.70 323.08,408.70 323.08,408.19 320.33,408.19 320.33,407.67 317.58,407.67 317.58,407.15 314.84,407.15 314.84,406.63 312.09,406.63 312.09,406.11 309.34,406.11 309.34,405.59 306.59,405.59 306.59,405.06 303.85,405.06 303.85,404.53 301.10,404.53 301.10,404.00 298.35,404.00 298.35,403.48 295.60,403.48 295.60,402.94 292.86,402.94 292.86,402.41 290.11,402.41 290.11,401.88 287.36,401.88 287.36,401.35 284.62,401.35 284.62,400.82 281.87,400.82 281.87,400.29 279.12,400.29 279.12,399.76 276.37,399.76 276.37,399.22 273.63,399.22 273.63,398.69 270.88,398.69 270.88,398.16 268.13,398.16 268.13,397.64 265.38,397.64 265.38,397.11 262.64,397.11 262.64,396.58 259.89,396.58 259.89,396.06 257.14,396.06 257.14,395.53 254.40,395.53 254.40,395.01 251.65,395.01 251.65,394.49 248.90,394.49 248.90,393.98 246.15,393.98 246.15,393.46 243.41,393.46 243.41,392.95 240.66,392.95 240.66,392.44 237.91,392.44 237.91,391.93 235.16,391.93 235.16,391.43 232.42,391.43 232.42,390.93 229.67,390.93 229.67,390.43 226.92,390.43 226.92,389.93 224.18,389.93 224.18,389.44 221.43,389.44 221.43,388.96 218.68,388.96 218.68,388.47 215.93,388.47 215.93,387.99 213.19,387.99 213.19,387.52 210.44,387.52 210.44,387.05 207.69,387.05 207.69,407.42 204.95,407.42 204.95,406.96 202.20,406.96 202.20,406.50 199.45,406.50 199.45,406.05 196.70,406.05 196.70,405.60 193.96,405.60 193.96,405.16 191.21,405.16 191.21,404.72 188.46,404.72 188.46,404.29 185.71,404.29 185.71,403.87 182.97,403.87 182.97,403.45 180.22,403.45 180.22,403.04 177.47,403.04 177.47,402.63 174.73,402.63 174.73,402.23 171.98,402.23 171.98,401.84 169.23,401.84 169.23,401.45 166.48,401.45 166.48,401.07 163.74,401.07 163.74,400.70 160.99,400.70 160.99,400.34 158.24,400.34 158.24,399.98 155.49,399.98 155.49,399.63 152.75,399.63 152.75,399.28 150.00,399.28 150.00,398.95 147.25,398.95 147.25,398.62 144.51,398.62 144.51,398.30 141.76,398.30 141.76,397.99 139.01,397.99 139.01,397.69 136.26,397.69 136.26,397.39 133.52,397.39 133.52,397.10 130.77,397.10 130.77,396.83 128.02,396.83 128.02,396.56 125.27,396.56 125.27,396.29 122.53,396.29 122.53,396.04 119.78,396.04 119.78,395.80 117.03,395.80 117.03,395.57 114.29,395.57 114.29,395.34 111.54,395.34 111.54,395.12 108.79,395.12 108.79,394.92 106.04,394.92 106.04,394.72 103.30,394.72 103.30,394.53 100.55,394.53 100.55,394.36 97.80,394.36 97.80,394.19 95.05,394.19 95.05,394.03 92.31,394.03 92.31,393.88 89.56,393.88 89.56,393.74 86.81,393.74 86.81,393.61 84.07,393.61 84.07,393.49 81.32,393.49 81.32,393.38 78.57,393.38 78.57,393.28 75.82,393.28 75.82,393.19 73.08,393.19 73.08,393.11 70.33,393.11 70.33,393.04 67.58,393.04 67.58,392.98 64.84,392.98 64.84,392.93 62.09,392.93 62.09,392.89 59.34,392.89 59.34,392.86 56.59,392.86 56.59,392.84 53.85,392.84 53.85,392.82 51.10,392.82 51.10,392.82 48.35,392.82 48.35,392.83 45.60,392.83 45.60,392.85 42.86,392.85 42.86,392.87 40.11,392.87 40.11,392.91 37.36,392.91 37.36,392.95 34.62,392.95 34.62,393.01 31.87,393.01 31.87,393.07 29.12,393.07 29.12,393.14 26.37,393.14 26.37,393.22" fill="#002040" stroke="none" stroke-width="0"/>
<polygon points="25.00,382.61 25.00,135.10 26.37,135.10 26.37,134.85 29.12,134.85 29.12,134.59 31.87,134.59 31.87,134.33 34.62,134.33 34.62,134.06 37.36,134.06 37.36,133.79 40.11,133.79 40.11,133.52 42.86,133.52 42.86,133.24 45.60,133.24 45.60,132.96 48.35,132.96 48.35,132.67 51.10,132.67 51.10,132.39 53.85,132.39 53.85,132.10 56.59,132.10 56.59,131.80 59.34,131.80 59.34,131.50 62.09,131.50 62.09,131.21 64.84,131.21 64.84,130.90 67.58,130.90 67.58,130.60 70.33,130.60 70.33,130.30 73.08,130.30 73.08,129.99 75.82,129.99 75.82,129.68 78.57,129.68 78.57,129.37 81.32,129.37 81.32,129.06 84.07,129.06 84.07,128.75 86.81,128.75 86.81,128.44 89.56,128.44 89.56,128.13 92.31,128.13 92.31,127.82 95.05,127.82 95.05,127.50 97.80,127.50 97.80,127.19 100.55,127.19 100.55,126.88 103.30,126.88 103.30,126.56 106.04,126.56 106.04,126.25 108.79,126.25 108.79,125.94 111.54,125.94 111.54,125.63 114.29,125.63 114.29,125.32 117.03,125.32 117.03,125.01 119.78,125.01 119.78,124.70 122.53,124.70 122.53,124.39 125.27,124.39 125.27,124.08 128.02,124.08 128.02,123.77 130.77,123.77 130.77,123.47 133.52,123.47 133.52,123.16 136.26,123.16 136.26,122.86 139.01,122.86 139.01,122.55 141.76,122.55 141.76,122.25 144.51,122.25 144.51,121.95 147.25,121.95 147.25,121.65 150.00,121.65 150.00,121.35 152.75,121.35 152.75,121.05 155.49,121.05 155.49,120.76 158.24,120.76 158.24,120.46 160.99,120.46 160.99,120.17 163.74,120.17 163.74,119.87 166.48,119.87 166.48,119.58 169.23,119.58 169.23,119.29 171.98,119.29 171.98,119.00 174.73,119.00 174.73,118.71 177.47,118.71 177.47,118.42 180.22,118.42 180.22,118.13 182.97,118.13 182.97,117.84 185.71,117.84 185.71,117.55 188.46,117.55 188.46,117.27 191.21,117.27 191.21,116.98 193.96,116.98 193.96,116.70 196.70,116.70 196.70,116.41 199.45,116.41 199.45,116.13 202.20,116.13 202.20,115.84 204.95,115.84 204.95,115.56 207.69,115.56 207.69,94.44 210.44,94.44 210.44,94.16 213.19,94.16 213.19,93.87 215.93,93.87 215.93,93.59 218.68,93.59 218.68,93.31 221.43,93.31 221.43,93.02 224.18,93.02 224.18,92.74 226.92,92.74 226.92,92.46 229.67,92.46 229.67,92.17 232.42,92.17 232.42,91.89 235.16,91.89 235.16,91.60 237.91,91.60 237.91,91.32 240.66,91.32 240.66,91.03 243.41,91.03 243.41,90.74 246.15,90.74 246.15,90.45 248.90,90.45 248.90,90.16 251.65,90.16 251.65,89.87 254.40,89.87 254.40,89.58 257.14,89.58 257.14,89.29 259.89,89.29 259.89,89.00 262.64,89.00 262.64,88.70 265.38,88.70 265.38,88.41 268.13,88.41 268.13,88.11 270.88,88.11 270.88,87.81 273.63,87.81 273.63,87.51 276.37,87.51 276.37,87.21 279.12,87.21 279.12,86.91 281.87,86.91 281.87,86.61 284.62,86.61 284.62,86.30 287.36,86.30 287.36,86.00 290.11,86.00 290.11,85.69 292.86,85.69 292.86,85.38 295.60,85.38 295.60,85.07 298.35,85.07 298.35,84.76 301.10,84.76 301.10,84.44 303.85,84.44 303.85,84.13 306.59,84.13 306.59,83.81 309.34,83.81 309.34,83.49 312.09,83.49 312.09,83.17 314.84,83.17 314.84,82.85 317.58,82.85 317.58,82.53 320.33,82.53 320.33,82.20 323.08,82.20 323.08,81.87 325.82,81.87 325.82,81.55 328.57,81.55 328.57,81.22 331.32,81.22 331.32,80.89 334.07,80.89 334.07,80.56 336.81,80.56 336.81,80.22 339.56,80.22 339.56,79.89 342.31,79.89 342.31,79.56 345.05,79.56 345.05,79.22 347.80,79.22 347.80,78.89 350.55,78.89 350.55,78.55 353.30,78.55 353.30,78.21 356.04,78.21 356.04,77.88 358.79,77.88 358.79,77.54 361.54,77.54 361.54,77.20 364.29,77.20 364.29,76.86 367.03,76.86 367.03,76.53 369.78,76.53 369.78,76.19 372.53,76.19 372.53,75.85 375.27,75.85 375.27,75.52 378.02,75.52 378.02,75.18 380.77,75.18 380.77,74.85 383.52,74.85 383.52,74.52 386.26,74.52 386.26,74.19 389.01,74.19 389.01,73.86 391.76,73.86 391.76,73.53 394.51,73.53 394.51,73.21 397.25,73.21 397.25,72.88 400.00,72.88 400.00,72.56 402.75,72.56 402.75,72.25 405.49,72.25 405.49,71.93 408.24,71.93 408.24,71.62 410.99,71.62 410.99,71.32 413.74,71.32 413.74,71.02 416.48,71.02 416.48,70.72 419.23,70.72 419.23,70.43 421.98,70.43 421.98,70.14 424.73,70.14 424.73,69.85 427.47,69.85 427.47,69.58 430.22,69.58 430.22,69.30 432.97,69.30 432.97,69.04 435.71,69.04 435.71,68.78 438.46,68.78 438.46,68.52 441.21,68.52 441.21,68.28 443.96,68.28 443.96,68.04 446.70,68.04 446.70,67.81 449.45,67.81 449.45,67.58 452.20,67.58 452.20,67.37 454.95,67.37 454.95,67.16 457.69,67.16 457.69,66.96 460.44,66.96 460.44,66.77 463.19,66.77 463.19,66.59 465.93,66.59 465.93,66.41 468.68,66.41 468.68,66.25 471.43,66.25 471.43,66.10 474.18,66.10 474.18,65.95 476.92,65.95 476.92,65.82 479.67,65.82 479.67,65.70 482.42,65.70 482.42,65.59 485.16,65.59 485.16,65.48 487.91,65.48 487.91,65.39 490.66,65.39 490.66,65.31 493.41,65.31 493.41,65.24 496.15,65.24 496.15,65.18 498.90,65.18 498.90,65.14 501.65,65.14 501.65,65.10 504.40,65.10 504.40,65.08 507.14,65.08 507.14,65.07 509.89,65.07 509.89,65.07 512.64,65.07 512.64,65.08 515.38,65.08 515.38,65.10 518.13,65.10 518.13,65.14 520.88,65.14 520.88,65.18 523.63,65.18 523.63,65.24 526.37,65.24 526.37,65.31 529.12,65.31 529.12,65.39 531.87,65.39 531.87,65.48 534.62,65.48 534.62,65.59 537.36,65.59 537.36,65.71 540.11,65.71 540.11,65.83 542.86,65.83 542.86,65.97 545.60,65.97 545.60,66.13 548.35,66.13 548.35,66.29 551.10,66.29 551.10,66.46 553.85,66.46 553.85,66.64 556.59,66.64 556.59,66.84 559.34,66.84 559.34,67.05 562.09,67.05 562.09,67.26 564.84,67.26 564.84,67.49 567.58,67.49 567.58,67.73 570.33,67.73 570.33,67.98 573.08,67.98 573.08,68.23 575.82,68.23 575.82,68.50 578.57,68.50 578.57,68.78 581.32,68.78 581.32,69.07 584.07,69.07 584.07,69.36 586.81,69.36 586.81,69.67 589.56,69.67 589.56,69.98 592.31,69.98 592.31,70.31 595.05,70.31 595.05,70.64 597.80,70.64 597.80,70.98 600.55,70.98 600.55,71.33 603.30,71.33 603.30,71.68 606.04,71.68 606.04,72.05 608.79,72.05 608.79,72.42 611.54,72.42 611.54,72.80 614.29,72.80 614.29,73.19 617.03,73.19 617.03,73.58 619.78,73.58 619.78,73.98 622.53,73.98 622.53,74.39 625.27,74.39 625.27,74.80 628.02,74.80 628.02,75.22 630.77,75.22 630.77,75.64 633.52,75.64 633.52,76.07 636.26,76.07 636.26,76.51 639.01,76.51 639.01,76.95 641.76,76.95 641.76,77.40 644.51,77.40 644.51,77.85 647.25,77.85 647.25,78.31 650.00,78.31 650.00,78.77 652.75,78.77 652.75,79.24 655.49,79.24 655.49,79.71 658.24,79.71 658.24,80.18 660.99,80.18 660.99,80.66 663.74,80.66 663.74,81.14 666.48,81.14 666.48,81.63 669.23,81.63 669.23,82.11 671.98,82.11 671.98,82.60 674.73,82.60 674.73,83.10 677.47,83.10 677.47,83.60 680.22,83.60 680.22,84.09 682.97,84.09 682.97,84.60 685.71,84.60 685.71,85.10 688.46,85.10 688.46,85.60 691.21,85.60 691.21,86.11 693.96,86.11 693.96,86.62 696.70,86.62 696.70,87.13 699.45,87.13 699.45,87.64 702.20,87.64 702.20,88.15 704.95,88.15 704.95,88.67 707.69,88.67 707.69,89.18 710.44,89.18 710.44,89.69 713.19,89.69 713.19,90.21 715.93,90.21 715.93,90.72 718.68,90.72 718.68,91.24 721.43,91.24 721.43,91.75 724.18,91.75 724.18,92.27 726.92,92.27 726.92,92.78 729.67,92.78 729.67,93.30 732.42,93.30 732.42,93.81 735.16,93.81 735.16,94.32 737.91,94.32 737.91,94.83 740.66,94.83 740.66,95.34 743.41,95.34 743.41,95.85 746.15,95.85 746.15,96.36 748.90,96.36 748.90,96.86 751.65,96.86 751.65,97.36 754.40,97.36 754.40,97.87 757.14,97.87 757.14,98.36 759.89,98.36 759.89,98.86 762.64,98.86 762.64,99.35 765.38,99.35 765.38,99.85 768.13,99.85 768.13,100.33 770.88,100.33 770.88,100.82 773.63,100.82 773.63,101.30 776.37,101.30 776.37,101.78 779.12,101.78 779.12,102.25 781.87,102.25 781.87,102.72 784.62,102.72 784.62,103.19 787.36,103.19 787.36,103.65 790.11,103.65 790.11,104.11 792.86,104.11 792.86,104.57 795.60,104.57 795.60,105.02 798.35,105.02 798.35,105.46 801.10,105.46 801.10,105.90 803.85,105.90 803.85,106.34 806.59,106.34 806.59,106.77 809.34,106.77 809.34,107.19 812.09,107.19 812.09,107.61 814.84,107.61 814.84,108.03 817.58,108.03 817.58,108.43 820.33,108.43 820.33,108.83 823.08,108.83 823.08,109.23 825.82,109.23 825.82,109.62 828.57,109.62 828.57,110.00 831.32,110.00 831.32,110.38 834.07,110.38 834.07,110.75 836.81,110.75 836.81,111.11 839.56,111.11 839.56,111.47 842.31,111.47 842.31,111.81 845.05,111.81 845.05,112.15 847.80,112.15 847.80,112.49 850.55,112.49 850.55,112.81 853.30,112.81 853.30,113.13 856.04,113.13 856.04,113.44 858.79,113.44 858.79,113.74 861.54,113.74 861.54,134.87 864.29,134.87 864.29,135.15 867.03,135.15 867.03,135.43 869.78,135.43 869.78,135.69 872.53,135.69 872.53,135.95 875.27,135.95 875.27,136.20 878.02,136.20 878.02,136.44 880.77,136.44 880.77,136.67 883.52,136.67 883.52,136.89 886.26,136.89 886.26,137.11 889.01,137.11 889.01,137.31 891.76,137.31 891.76,137.50 894.51,137.50 894.51,137.69 897.25,137.69 897.25,137.86 900.00,137.86 900.00,138.02 902.75,138.02 902.75,138.18 905.49,138.18 905.49,138.32 908.24,138.32 908.24,138.46 910.99,138.46 910.99,138.58 913.74,138.58 913.74,138.70 916.48,138.70 916.48,138.80 919.23,138.80 919.23,138.89 921.98,138.89 921.98,138.98 924.73,138.98 924.73,139.05 927.47,139.05 927.47,139.11 930.22,139.11 930.22,139.17 932.97,139.17 932.97,139.21 935.71,139.21 935.71,139.24 938.46,139.24 938.46,139.27 941.21,139.27 941.21,139.28 943.96,139.28 943.96,139.28 946.70,139.28 946.70,139.27 949.45,139.27 949.45,139.25 952.20,139.25 952.20,139.23 954.95,139.23 954.95,139.19 957.69,139.19 957.69,139.14 960.44,139.14 960.44,139.08 963.19,139.08 963.19,139.02 965.93,139.02 965.93,138.94 968.68,138.94 968.68,138.86 971.43,138.86 971.43,138.76 974.18,138.76 974.18,138.66 976.92,138.66 976.92,138.54 979.67,138.54 979.67,138.42 982.42,138.42 982.42,138.29 985.16,138.29 985.16,138.15 987.91,138.15 987.91,138.00 990.66,138.00 990.66,137.85 993.41,137.85 993.41,137.68 996.15,137.68 996.15,137.51 998.90,137.51 998.90,137.33 1001.65,137.33 1001.65,137.15 1004.40,137.15 1004.40,136.95 1007.14,136.95 1007.14,136.75 1009.89,136.75 1009.89,136.54 1012.64,136.54 1012.64,136.33 1015.38,136.33 1015.38,136.11 1018.13,136.11 1018.13,135.88 1020.88,135.88 1020.88,135.65 1023.63,135.65 1023.63,135.41 1025.00,135.41 1025.00,382.71 1023.63,382.71 1023.63,382.81 1020.88,382.81 1020.88,382.91 1018.13,382.91 1018.13,383.02 1015.38,383.02 1015.38,383.14 1012.64,383.14 1012.64,383.27 1009.89,383.27 1009.89,383.41 1007.14,383.41 1007.14,383.56 1004.40,383.56 1004.40,383.71 1001.65,383.71 1001.65,383.87 998.90,383.87 998.90,384.04 996.15,384.04 996.15,384.22 993.41,384.22 993.41,384.40 990.66,384.40 990.66,384.59 987.91,384.59 987.91,384.79 985.16,384.79 985.16,384.99 982.42,384.99 982.42,385.20 979.67,385.20 979.67,385.42 976.92,385.42 976.92,385.64 974.18,385.64 974.18,385.87 971.43,385.87 971.43,386.10 968.68,386.10 968.68,386.34 965.93,386.34 965.93,386.58 963.19,386.58 963.19,386.83 960.44,386.83 960.44,387.08 957.69,387.08 957.69,387.34 954.95,387.34 954.95,387.60 952.20,387.60 952.20,387.86 949.45,387.86 949.45,388.13 946.70,388.13 946.70,388.40 943.96,388.40 943.96,388.68 941.21,388.68 941.21,388.96 938.46,388.96 938.46,389.24 935.71,389.24 935.71,389.52 932.97,389.52 932.97,389.81 930.22,389.81 930.22,390.09 927.47,390.09 927.47,390.38 924.73,390.38 924.73,390.67 921.98,390.67 921.98,390.96 919.23,390.96 919.23,391.26 916.48,391.26 916.48,391.55 913.74,391.55 913.74,391.85 910.99,391.85 910.99,392.14 908.24,392.14 908.24,392.44 905.49,392.44 905.49,392.74 902.75,392.74 902.75,393.04 900.00,393.04 900.00,393.33 897.25,393.33 897.25,393.63 894.51,393.63 894.51,393.93 891.76,393.93 891.76,394.23 889.01,394.23 889.01,394.52 886.26,394.52 886.26,394.82 883.52,394.82 883.52,395.11 880.77,395.11 880.77,395.41 878.02,395.41 878.02,395.70 875.27,395.70 875.27,395.99 872.53,395.99 872.53,396.29 869.78,396.29 869.78,396.58 867.03,396.58 867.03,396.87 864.29,396.87 864.29,397.15 861.54,397.15 861.54,376.61 858.79,376.61 858.79,376.90 856.04,376.90 856.04,377.18 853.30,377.18 853.30,377.46 850.55,377.46 850.55,377.75 847.80,377.75 847.80,378.03 845.05,378.03 845.05,378.31 842.31,378.31 842.31,378.59 839.56,378.59 839.56,378.86 836.81,378.86 836.81,379.14 834.07,379.14 834.07,379.41 831.32,379.41 831.32,379.69 828.57,379.69 828.57,379.96 825.82,379.96 825.82,380.23 823.08,380.23 823.08,380.50 820.33,380.50 820.33,380.77 817.58,380.77 817.58,381.04 814.84,381.04 814.84,381.31 812.09,381.31 812.09,381.57 809.34,381.57 809.34,381.84 806.59,381.84 806.59,382.10 803.85,382.10 803.85,382.36 801.10,382.36 801.10,382.62 798.35,382.62 798.35,382.89 795.60,382.89 795.60,383.15 792.86,383.15 792.86,383.41 790.11,383.41 790.11,383.67 787.36,383.67 787.36,383.93 784.62,383.93 784.62,384.19 781.87,384.19 781.87,384.44 779.12,384.44 779.12,384.70 776.37,384.70 776.37,384.96 773.63,384.96 773.63,385.22 770.88,385.22 770.88,385.48 768.13,385.48 768.13,385.74 765.38,385.74 765.38,385.99 762.64,385.99 762.64,386.25 759.89,386.25 759.89,386.51 757.14,386.51 757.14,386.77 754.40,386.77 754.40,387.03 751.65,387.03 751.65,387.29 748.90,387.29 748.90,387.55 746.15,387.55 746.15,387.82 743.41,387.82 743.41,388.08 740.66,388.08 740.66,388.34 737.91,388.34 737.91,388.61 735.16,388.61 735.16,388.87 732.42,388.87 732.42,389.14 729.67,389.14 729.67,389.40 726.92,389.40 726.92,389.67 724.18,389.67 724.18,389.94 721.43,389.94 721.43,390.21 718.68,390.21 718.68,390.48 715.93,390.48 715.93,390.76 713.19,390.76 713.19,391.03 710.44,391.03 710.44,391.31 707.69,391.31 707.69,391.59 704.95,391.59 704.95,391.86 702.20,391.86 702.20,392.15 699.45,392.15 699.45,392.43 696.70,392.43 696.70,392.71 693.96,392.71 693.96,393.00 691.21,393.00 691.21,393.28 688.46,393.28 688.46,393.57 685.71,393.57 685.71,393.86 682.97,393.86 682.97,394.15 680.22,394.15 680.22,394.45 677.47,394.45 677.47,394.74 674.73,394.74 674.73,395.04 671.98,395.04 671.98,395.34 669.23,395.34 669.23,395.64 666.48,395.64 666.48,395.94 663.74,395.94 663.74,396.25 660.99,396.25 660.99,396.55 658.24,396.55 658.24,396.86 655.49,396.86 655.49,397.17 652.75,397.17 652.75,397.48 650.00,397.48 650.00,397.79 647.25,397.79 647.25,398.10 644.51,398.10 644.51,398.41 641.76,398.41 641.76,398.73 639.01,398.73 639.01,399.04 636.26,399.04 636.26,399.36 633.52,399.36 633.52,399.67 630.77,399.67 630.77,399.99 628.02,399.99 628.02,400.31 625.27,400.31 625.27,400.63 622.53,400.63 622.53,400.95 619.78,400.95 619.78,401.26 617.03,401.26 617.03,401.58 614.29,401.58 614.29,401.90 611.54,401.90 611.54,402.22 608.79,402.22 608.79,402.54 606.04,402.54 606.04,402.85 603.30,402.85 603.30,403.17 600.55,403.17 600.55,403.49 597.80,403.49 597.80,403.80 595.05,403.80 595.05,404.11 592.31,404.11 592.31,404.42 589.56,404.42 589.56,404.73 586.81,404.73 586.81,405.04 584.07,405.04 584.07,405.34 581.32,405.34 581.32,405.64 578.57,405.64 578.57,405.94 575.82,405.94 575.82,406.24 573.08,406.24 573.08,406.53 570.33,406.53 570.33,406.82 567.58,406.82 567.58,407.10 564.84,407.10 564.84,407.38 562.09,407.38 562.09,407.65 559.34,407.65 559.34,407.92 556.59,407.92 556.59,408.19 553.85,408.19 553.85,408.45 551.10,408.45 551.10,408.70 548.35,408.70 548.35,408.95 545.60,408.95 545.60,409.19 542.86,409.19 542.86,409.42 540.11,409.42 540.11,409.65 537.36,409.65 537.36,409.87 534.62,409.87 534.62,410.09 531.87,410.09 531.87,410.29 529.12,410.29 529.12,410.49 526.37,410.49 526.37,410.68 523.63,410.68 523.63,410.86 520.88,410.86 520.88,411.03 518.13,411.03 518.13,411.20 515.38,411.20 515.38,411.35 512.64,411.35 512.64,411.50 509.89,411.50 509.89,411.63 507.14,411.63 507.14,411.76 504.40,411.76 504.40,411.87 501.65,411.87 501.65,411.98 498.90,411.98 498.90,412.08 496.15,412.08 496.15,412.16 493.41,412.16 493.41,412.24 490.66,412.24 490.66,412.30 487.91,412.30 487.91,412.35 485.16,412.35 485.16,412.39 482.42,412.39 482.42,412.42 479.67,412.42 479.67,412.44 476.92,412.44 476.92,412.45 474.18,412.45 474.18,412.45 471.43,412.45 471.43,412.43 468.68,412.43 468.68,412.40 465.93,412.40 465.93,412.37 463.19,412.37 463.19,412.32 460.44,412.32 460.44,412.26 457.69,412.26 457.69,412.18 454.95,412.18 454.95,412.10 452.20,412.10 452.20,412.01 449.45,412.01 449.45,411.90 446.70,411.90 446.70,411.78 443.96,411.78 443.96,411.65 441.21,411.65 441.21,411.51 438.46,411.51 438.46,411.36 435.71,411.36 435.71,411.20 432.97,411.20 432.97,411.02 430.22,411.02 430.22,410.84 427.47,410.84 427.47,410.64 424.73,410.64 424.73,410.44 421.98,410.44 421.98,410.22 419.23,410.22 419.23,409.99 416.48,409.99 416.48,409.76 413.74,409.76 413.74,409.51 410.99,409.51 410.99,409.26 408.24,409.26 408.24,408.99 405.49,408.99 405.49,408.71 402.75,408.71 402.75,408.43 400.00,408.43 400.00,408.14 397.25,408.14 397.25,407.83 394.51,407.83 394.51,407.52 391.76,407.52 391.76,407.20 389.01,407.20 389.01,406.87 386.26,406.87 386.26,406.54 383.52,406.54 383.52,406.19 380.77,406.19 380.77,405.84 378.02,405.84 378.02,405.48 375.27,405.48 375.27,405.11 372.53,405.11 372.53,404.74 369.78,404.74 369.78,404.36 367.03,404.36 367.03,403.97 364.29,403.97 364.29,403.57 361.54,403.57 361.54,403.17 358.79,403.17 358.79,402.77 356.04,402.77 356.04,402.35 353.30,402.35 353.30,401.93 350.55,401.93 350.55,401.51 347.80,401.51 347.80,401.08 345.05,401.08 345.05,400.64 342.31,400.64 342.31,400.20 339.56,400.20 339.56,399.76 336.81,399.76 336.81,399.31 334.07,399.31 334.07,398.85 331.32,398.85 331.32,398.40 328.57,398.40 328.57,397.93 325.82,397.93 325.82,397.47 323.08,397.47 323.08,397.00 320.33,397.00 320.33,396.53 317.58,396.53 317.58,396.05 314.84,396.05 314.84,395.57 312.09,395.57 312.09,395.09 309.34,395.09 309.34,394.60 306.59,394.60 306.59,394.12 303.85,394.12 303.85,393.63 301.10,393.63 301.10,393.14 298.35,393.14 298.35,392.65 295.60,392.65 295.60,392.15 292.86,392.15 292.86,391.65 290.11,391.65 290.11,391.16 287.36,391.16 287.36,390.66 284.62,390.66 284.62,390.16 281.87,390.16 281.87,389.66 279.12,389.66 279.12,389.16 276.37,389.16 276.37,388.65 273.63,388.65 273.63,388.15 270.88,388.15 270.88,387.65 268.13,387.65 268.13,387.15 265.38,387.15 265.38,386.65 262.64,386.65 262.64,386.14 259.89,386.14 259.89,385.64 257.14,385.64 257.14,385.14 254.40,385.14 254.40,384.64 251.65,384.64 251.65,384.14 248.90,384.14 248.90,383.65 246.15,383.65 246.15,383.15 243.41,383.15 243.41,382.66 240.66,382.66 240.66,382.17 237.91,382.17 237.91,381.68 235.16,381.68 235.16,381.19 232.42,381.19 232.42,380.70 229.67,380.70 229.67,380.22 226.92,380.22 226.92,379.74 224.18,379.74 224.18,379.26 221.43,379.26 221.43,378.78 218.68,378.78 218.68,378.31 215.93,378.31 215.93,377.84 213.19,377.84 213.19,377.38 210.44,377.38 210.44,376.91 207.69,376.91 207.69,397.29 204.95,397.29 204.95,396.83 202.20,396.83 202.20,396.38 199.45,396.38 199.45,395.94 196.70,395.94 196.70,395.49 193.96,395.49 193.96,395.06 191.21,395.06 191.21,394.62 188.46,394.62 188.46,394.20 185.71,394.20 185.71,393.77 182.97,393.77 182.97,393.36 180.22,393.36 180.22,392.94 177.47,392.94 177.47,392.54 174.73,392.54 174.73,392.14 171.98,392.14 171.98,391.74 169.23,391.74 169.23,391.35 166.48,391.35 166.48,390.97 163.74,390.97 163.74,390.59 160.99,390.59 160.99,390.22 158.24,390.22 158.24,389.86 155.49,389.86 155.49,389.50 152.75,389.50 152.75,389.15 150.00,389.15 150.00,388.81 147.25,388.81 147.25,388.48 144.51,388.48 144.51,388.15 141.76,388.15 141.76,387.83 139.01,387.83 139.01,387.52 136.26,387.52 136.26,387.21 133.52,387.21 133.52,386.92 130.77,386.92 130.77,386.63 128.02,386.63 128.02,386.35 125.27,386.35 125.27,386.08 122.53,386.08 122.53,385.82 119.78,385.82 119.78,385.56 117.03,385.56 117.03,385.32 114.29,385.32 114.29,385.08 111.54,385.08 111.54,384.85 108.79,384.85 108.79,384.64 106.04,384.64 106.04,384.43 103.30,384.43 103.30,384.23 100.55,384.23 100.55,384.04 97.80,384.04 97.80,383.85 95.05,383.85 95.05,383.68 92.31,383.68 92.31,383.52 89.56,383.52 89.56,383.37 86.81,383.37 86.81,383.23 84.07,383.23 84.07,383.09 81.32,383.09 81.32,382.97 78.57,382.97 78.57,382.86 75.82,382.86 75.82,382.76 73.08,382.76 73.08,382.66 70.33,382.66 70.33,382.58 67.58,382.58 67.58,382.51 64.84,382.51 64.84,382.45 62.09,382.45 62.09,382.39 59.34,382.39 59.34,382.35 56.59,382.35 56.59,382.32 53.85,382.32 53.85,382.30 51.10,382.30 51.10,382.28 48.35,382.28 48.35,382.28 45.60,382.28 45.60,382.29 42.86,382.29 42.86,382.30 40.11,382.30 40.11,382.33 37.36,382.33 37.36,382.37 34.62,382.37 34.62,382.41 31.87,382.41 31.87,382.47 29.12,382.47 29.12,382.53 26.37,382.53 26.37,382.61" fill="#004080" stroke="none" stroke-width="0"/>
<polygon points="25.00,371.73 25.00,145.98 26.37,145.98 26.37,145.72 29.12,145.72 29.12,145.45 31.87,145.45 31.87,145.18 34.62,145.18 34.62,144.91 37.36,144.91 37.36,144.62 40.11,144.62 40.11,144.34 42.86,144.34 42.86,144.05 45.60,144.05 45.60,143.75 48.35,143.75 48.35,143.46 51.10,143.46 51.10,143.15 53.85,143.15 53.85,142.85 56.59,142.85 56.59,142.54 59.34,142.54 59.34,142.23 62.09,142.23 62.09,141.92 64.84,141.92 64.84,141.60 67.58,141.60 67.58,141.28 70.33,141.28 70.33,140.96 73.08,140.96 73.08,140.64 75.82,140.64 75.82,140.31 78.57,140.31 78.57,139.99 81.32,139.99 81.32,139.66 84.07,139.66 84.07,139.33 86.81,139.33 86.81,139.00 89.56,139.00 89.56,138.68 92.31,138.68 92.31,138.35 95.05,138.35 95.05,138.02 97.80,138.02 97.80,137.69 100.55,137.69 100.55,137.36 103.30,137.36 103.30,137.03 106.04,137.03 106.04,136.70 108.79,136.70 108.79,136.37 111.54,136.37 111.54,136.04 114.29,136.04 114.29,135.72 117.03,135.72 117.03,135.39 119.78,135.39 119.78,135.06 122.53,135.06 122.53,134.74 125.27,134.74 125.27,134.42 128.02,134.42 128.02,134.10 130.77,134.10 130.77,133.77 133.52,133.77 133.52,133.46 136.26,133.46 136.26,133.14 139.01,133.14 139.01,132.82 141.76,132.82 141.76,132.51 144.51,132.51 144.51,132.19 147.25,132.19 147.25,131.88 150.00,131.88 150.00,131.57 152.75,131.57 152.75,131.26 155.49,131.26 155.49,130.95 158.24,130.95 158.24,130.65 160.99,130.65 160.99,130.34 163.74,130.34 163.74,130.04 166.48,130.04 166.48,129.74 169.23,129.74 169.23,129.44 171.98,129.44 171.98,129.14 174.73,129.14 174.73,128.85 177.47,128.85 177.47,128.55 180.22,128.55 180.22,128.26 182.97,128.26 182.97,127.96 185.71,127.96 185.71,127.67 188.46,127.67 188.46,127.38 191.21,127.38 191.21,127.09 193.96,127.09 193.96,126.81 196.70,126.81 196.70,126.52 199.45,126.52 199.45,126.24 202.20,126.24 202.20,125.95 204.95,125.95 204.95,125.67 207.69,125.67 207.69,104.55 210.44,104.55 210.44,104.27 213.19,104.27 213.19,103.99 215.93,103.99 215.93,103.71 218.68,103.71 218.68,103.43 221.43,103.43 221.43,103.15 224.18,103.15 224.18,102.88 226.92,102.88 226.92,102.60 229.67,102.60 229.67,102.32 232.42,102.32 232.42,102.05 235.16,102.05 235.16,101.77 237.91,101.77 237.91,101.49 240.66,101.49 240.66,101.22 243.41,101.22 243.41,100.94 246.15,100.94 246.15,100.66 248.90,100.66 248.90,100.39 251.65,100.39 251.65,100.11 254.40,100.11 254.40,99.83 257.14,99.83 257.14,99.56 259.89,99.56 259.89,99.28 262.64,99.28 262.64,99.00 265.38,99.00 265.38,98.72 268.13,98.72 268.13,98.45 270.88,98.45 270.88,98.17 273.63,98.17 273.63,97.89 276.37,97.89 276.37,97.61 279.12,97.61 279.12,97.33 281.87,97.33 281.87,97.04 284.62,97.04 284.62,96.76 287.36,96.76 287.36,96.48 290.11,96.48 290.11,96.19 292.86,96.19 292.86,95.91 295.60,95.91 295.60,95.63 298.35,95.63 298.35,95.34 301.10,95.34 301.10,95.05 303.85,95.05 303.85,94.76 306.59,94.76 306.59,94.48 309.34,94.48 309.34,94.19 312.09,94.19 312.09,93.89 314.84,93.89 314.84,93.60 317.58,93.60 317.58,93.31 320.33,93.31 320.33,93.02 323.08,93.02 323.08,92.72 325.82,92.72 325.82,92.43 328.57,92.43 328.57,92.13 331.32,92.13 331.32,91.84 334.07,91.84 334.07,91.54 336.81,91.54 336.81,91.24 339.56,91.24 339.56,90.94 342.31,90.94 342.31,90.65 345.05,90.65 345.05,90.35 347.80,90.35 347.80,90.05 350.55,90.05 350.55,89.75 353.30,89.75 353.30,89.45 356.04,89.45 356.04,89.15 358.79,89.15 358.79,88.85 361.54,88.85 361.54,88.55 364.29,88.55 364.29,88.25 367.03,88.25 367.03,87.95 369.78,87.95 369.78,87.65 372.53,87.65 372.53,87.35 375.27,87.35 375.27,87.06 378.02,87.06 378.02,86.76 380.77,86.76 380.77,86.47 383.52,86.47 383.52,86.17 386.26,86.17 386.26,85.88 389.01,85.88 389.01,85.59 391.76,85.59 391.76,85.30 394.51,85.30 394.51,85.02 397.25,85.02 397.25,84.73 400.00,84.73 400.00,84.45 402.75,84.45 402.75,84.17 405.49,84.17 405.49,83.89 408.24,83.89 408.24,83.62 410.99,83.62 410.99,83.35 413.74,83.35 413.74,83.08 416.48,83.08 416.48,82.82 419.23,82.82 419.23,82.56 421.98,82.56 421.98,82.30 424.73,82.30 424.73,82.05 427.47,82.05 427.47,81.80 430.22,81.80 430.22,81.56 432.97,81.56 432.97,81.32 435.71,81.32 435.71,81.09 438.46,81.09 438.46,80.87 441.21,80.87 441.21,80.65 443.96,80.65 443.96,80.43 446.70,80.43 446.70,80.23 449.45,80.23 449.45,80.02 452.20,80.02 452.20,79.83 454.95,79.83 454.95,79.64 457.69,79.64 457.69,79.46 460.44,79.46 460.44,79.29 463.19,79.29 463.19,79.12 465.93,79.12 465.93,78.96 468.68,78.96 468.68,78.81 471.43,78.81 471.43,78.67 474.18,78.67 474.18,78.54 476.92,78.54 476.92,78.41 479.67,78.41 479.67,78.30 482.42,78.30 482.42,78.19 485.16,78.19 485.16,78.09 487.91,78.09 487.91,78.00 490.66,78.00 490.66,77.92 493.41,77.92 493.41,77.85 496.15,77.85 496.15,77.79 498.90,77.79 498.90,77.74 501.65,77.74 501.65,77.70 504.40,77.70 504.40,77.67 507.14,77.67 507.14,77.65 509.89,77.65 509.89,77.63 512.64,77.63 512.64,77.63 515.38,77.63 515.38,77.64 518.13,77.64 518.13,77.66 520.88,77.66 520.88,77.69 523.63,77.69 523.63,77.73 526.37,77.73 526.37,77.78 529.12,77.78 529.12,77.84 531.87,77.84 531.87,77.92 534.62,77.92 534.62,78.00 537.36,78.00 537.36,78.09 540.11,78.09 540.11,78.19 542.86,78.19 542.86,78.31 545.60,78.31 545.60,78.43 548.35,78.43 548.35,78.56 551.10,78.56 551.10,78.71 553.85,78.71 553.85,78.86 556.59,78.86 556.59,79.02 559.34,79.02 559.34,79.20 562.09,79.20 562.09,79.38 564.84,79.38 564.84,79.58 567.58,79.58 567.58,79.78 570.33,79.78 570.33,79.99 573.08,79.99 573.08,80.22 575.82,80.22 575.82,80.45 578.57,80.45 578.57,80.69 581.32,80.69 581.32,80.94 584.07,80.94 584.07,81.20 586.81,81.20 586.81,81.47 589.56,81.47 589.56,81.74 592.31,81.74 592.31,82.03 595.05,82.03 595.05,82.32 597.80,82.32 597.80,82.62 600.55,82.62 600.55,82.93 603.30,82.93 603.30,83.25 606.04,83.25 606.04,83.58 608.79,83.58 608.79,83.91 611.54,83.91 611.54,84.25 614.29,84.25 614.29,84.60 617.03,84.60 617.03,84.96 619.78,84.96 619.78,85.32 622.53,85.32 622.53,85.69 625.27,85.69 625.27,86.06 628.02,86.06 628.02,86.45 630.77,86.45 630.77,86.83 633.52,86.83 633.52,87.23 636.26,87.23 636.26,87.63 639.01,87.63 639.01,88.04 641.76,88.04 641.76,88.45 644.51,88.45 644.51,88.86 647.25,88.86 647.25,89.29 650.00,89.29 650.00,89.71 652.75,89.71 652.75,90.15 655.49,90.15 655.49,90.58 658.24,90.58 658.24,91.03 660.99,91.03 660.99,91.47 663.74,91.47 663.74,91.92 666.48,91.92 666.48,92.38 669.23,92.38 669.23,92.84 671.98,92.84 671.98,93.30 674.73,93.30 674.73,93.76 677.47,93.76 677.47,94.23 680.22,94.23 680.22,94.70 682.97,94.70 682.97,95.18 685.71,95.18 685.71,95.65 688.46,95.65 688.46,96.13 691.21,96.13 691.21,96.62 693.96,96.62 693.96,97.10 696.70,97.10 696.70,97.59 699.45,97.59 699.45,98.08 702.20,98.08 702.20,98.57 704.95,98.57 704.95,99.06 707.69,99.06 707.69,99.55 710.44,99.55 710.44,100.05 713.19,100.05 713.19,100.54 715.93,100.54 715.93,101.04 718.68,101.04 718.68,101.53 721.43,101.53 721.43,102.03 724.18,102.03 724.18,102.53 726.92,102.53 726.92,103.03 729.67,103.03 729.67,103.53 732.42,103.53 732.42,104.03 735.16,104.03 735.16,104.53 737.91,104.53 737.91,105.03 740.66,105.03 740.66,105.52 743.41,105.52 743.41,106.02 746.15,106.02 746.15,106.52 748.90,106.52 748.90,107.01 751.65,107.01 751.65,107.51 754.40,107.51 754.40,108.00 757.14,108.00 757.14,108.49 759.89,108.49 759.89,108.98 762.64,108.98 762.64,109.47 765.38,109.47 765.38,109.96 768.13,109.96 768.13,110.44 770.88,110.44 770.88,110.92 773.63,110.92 773.63,111.40 776.37,111.40 776.37,111.87 779.12,111.87 779.12,112.35 781.87,112.35 781.87,112.82 784.62,112.82 784.62,113.28 787.36,113.28 787.36,113.75 790.11,113.75 790.11,114.21 792.86,114.21 792.86,114.66 795.60,114.66 795.60,115.12 798.35,115.12 798.35,115.57 801.10,115.57 801.10,116.01 803.85,116.01 803.85,116.45 806.59,116.45 806.59,116.88 809.34,116.88 809.34,117.32 812.09,117.32 812.09,117.74 814.84,117.74 814.84,118.16 817.58,118.16 817.58,118.58 820.33,118.58 820.33,118.99 823.08,118.99 823.08,119.39 825.82,119.39 825.82,119.79 828.57,119.79 828.57,120.18 831.32,120.18 831.32,120.57 834.07,120.57 834.07,120.95 836.81,120.95 836.81,121.32 839.56,121.32 839.56,121.69 842.31,121.69 842.31,122.05 845.05,122.05 845.05,122.40 847.80,122.40 847.80,122.75 850.55,122.75 850.55,123.09 853.30,123.09 853.30,123.42 856.04,123.42 856.04,123.74 858.79,123.74 858.79,124.06 861.54,124.06 861.54,145.20 864.29,145.20 864.29,145.50 867.03,145.50 867.03,145.79 869.78,145.79 869.78,146.07 872.53,146.07 872.53,146.34 875.27,146.34 875.27,146.61 878.02,146.61 878.02,146.87 880.77,146.87 880.77,147.11 883.52,147.11 883.52,147.35 886.26,147.35 886.26,147.58 889.01,147.58 889.01,147.80 891.76,147.80 891.76,148.01 894.51,148.01 894.51,148.21 897.25,148.21 897.25,148.40 900.00,148.40 900.00,148.58 902.75,148.58 902.75,148.75 905.49,148.75 905.49,148.92 908.24,148.92 908.24,149.07 910.99,149.07 910.99,149.21 913.74,149.21 913.74,149.34 916.48,149.34 916.48,149.46 919.23,149.46 919.23,149.57 921.98,149.57 921.98,149.67 924.73,149.67 924.73,149.76 927.47,149.76 927.47,149.83 930.22,149.83 930.22,149.90 932.97,149.90 932.97,149.96 935.71,149.96 935.71,150.01 938.46,150.01 938.46,150.04 941.21,150.04 941.21,150.07 943.96,150.07 943.96,150.08 946.70,150.08 946.70,150.09 949.45,150.09 949.45,150.08 952.20,150.08 952.20,150.06 954.95,150.06 954.95,150.04 957.69,150.04 957.69,150.00 960.44,150.00 960.44,149.95 963.19,149.95 963.19,149.89 965.93,149.89 965.93,149.83 968.68,149.83 968.68,149.75 971.43,149.75 971.43,149.66 974.18,149.66 974.18,149.56 976.92,149.56 976.92,149.45 979.67,149.45 979.67,149.34 982.42,149.34 982.42,149.21 985.16,149.21 985.16,149.07 987.91,149.07 987.91,148.93 990.66,148.93 990.66,148.77 993.41,148.77 993.41,148.61 996.15,148.61 996.15,148.44 998.90,148.44 998.90,148.26 1001.65,148.26 1001.65,148.07 1004.40,148.07 1004.40,147.88 1007.14,147.88 1007.14,147.67 1009.89,147.67 1009.89,147.46 1012.64,147.46 1012.64,147.24 1015.38,147.24 1015.38,147.01 1018.13,147.01 1018.13,146.78 1020.88,146.78 1020.88,146.54 1023.63,146.54 1023.63,146.29 1025.00,146.29 1025.00,371.82 1023.63,371.82 1023.63,371.91 1020.88,371.91 1020.88,372.01 1018.13,372.01 1018.13,372.12 1015.38,372.12 1015.38,372.23 1012.64,372.23 1012.64,372.36 1009.89,372.36 1009.89,372.49 1007.14,372.49 1007.14,372.63 1004.40,372.63 1004.40,372.78 1001.65,372.78 1001.65,372.94 998.90,372.94 998.90,373.11 996.15,373.11 996.15,373.29 993.41,373.29 993.41,373.47 990.66,373.47 990.66,373.66 987.91,373.66 987.91,373.86 985.16,373.86 985.16,374.07 982.42,374.07 982.42,374.28 979.67,374.28 979.67,374.51 976.92,374.51 976.92,374.73 974.18,374.73 974.18,374.97 971.43,374.97 971.43,375.21 968.68,375.21 968.68,375.45 965.93,375.45 965.93,375.70 963.19,375.70 963.19,375.96 960.44,375.96 960.44,376.22 957.69,376.22 957.69,376.49 954.95,376.49 954.95,376.76 952.20,376.76 952.20,377.04 949.45,377.04 949.45,377.32 946.70,377.32 946.70,377.60 943.96,377.60 943.96,377.89 941.21,377.89 941.21,378.18 938.46,378.18 938.46,378.47 935.71,378.47 935.71,378.77 932.97,378.77 932.97,379.07 930.22,379.07 930.22,379.37 927.47,379.37 927.47,379.68 924.73,379.68 924.73,379.98 921.98,379.98 921.98,380.29 919.23,380.29 919.23,380.60 916.48,380.60 916.48,380.91 913.74,380.91 913.74,381.22 910.99,381.22 910.99,381.53 908.24,381.53 908.24,381.85 905.49,381.85 905.49,382.16 902.75,382.16 902.75,382.48 900.00,382.48 900.00,382.79 897.25,382.79 897.25,383.10 894.51,383.10 894.51,383.42 891.76,383.42 891.76,383.73 889.01,383.73 889.01,384.04 886.26,384.04 886.26,384.36 883.52,384.36 883.52,384.67 880.77,384.67 880.77,384.98 878.02,384.98 878.02,385.29 875.27,385.29 875.27,385.60 872.53,385.60 872.53,385.90 869.78,385.90 869.78,386.21 867.03,386.21 867.03,386.52 864.29,386.52 864.29,386.82 861.54,386.82 861.54,366.29 858.79,366.29 858.79,366.59 856.04,366.59 856.04,366.89 853.30,366.89 853.30,367.18 850.55,367.18 850.55,367.48 847.80,367.48 847.80,367.77 845.05,367.77 845.05,368.07 842.31,368.07 842.31,368.36 839.56,368.36 839.56,368.64 836.81,368.64 836.81,368.93 834.07,368.93 834.07,369.22 831.32,369.22 831.32,369.50 828.57,369.50 828.57,369.78 825.82,369.78 825.82,370.06 823.08,370.06 823.08,370.34 820.33,370.34 820.33,370.62 817.58,370.62 817.58,370.89 814.84,370.89 814.84,371.17 812.09,371.17 812.09,371.44 809.34,371.44 809.34,371.71 806.59,371.71 806.59,371.98 803.85,371.98 803.85,372.24 801.10,372.24 801.10,372.51 798.35,372.51 798.35,372.77 795.60,372.77 795.60,373.04 792.86,373.04 792.86,373.30 790.11,373.30 790.11,373.56 787.36,373.56 787.36,373.82 784.62,373.82 784.62,374.08 781.87,374.08 781.87,374.33 779.12,374.33 779.12,374.59 776.37,374.59 776.37,374.84 773.63,374.84 773.63,375.10 770.88,375.10 770.88,375.35 768.13,375.35 768.13,375.61 765.38,375.61 765.38,375.86 762.64,375.86 762.64,376.11 759.89,376.11 759.89,376.37 757.14,376.37 757.14,376.62 754.40,376.62 754.40,376.87 751.65,376.87 751.65,377.12 748.90,377.12 748.90,377.37 746.15,377.37 746.15,377.62 743.41,377.62 743.41,377.87 740.66,377.87 740.66,378.13 737.91,378.13 737.91,378.38 735.16,378.38 735.16,378.63 732.42,378.63 732.42,378.88 729.67,378.88 729.67,379.13 726.92,379.13 726.92,379.39 724.18,379.39 724.18,379.64 721.43,379.64 721.43,379.89 718.68,379.89 718.68,380.14 715.93,380.14 715.93,380.40 713.19,380.40 713.19,380.65 710.44,380.65 710.44,380.91 707.69,380.91 707.69,381.17 704.95,381.17 704.95,381.42 702.20,381.42 702.20,381.68 699.45,381.68 699.45,381.94 696.70,381.94 696.70,382.20 693.96,382.20 693.96,382.46 691.21,382.46 691.21,382.72 688.46,382.72 688.46,382.99 685.71,382.99 685.71,383.25 682.97,383.25 682.97,383.51 680.22,383.51 680.22,383.78 677.47,383.78 677.47,384.05 674.73,384.05 674.73,384.32 671.98,384.32 671.98,384.58 669.23,384.58 669.23,384.85 666.48,384.85 666.48,385.13 663.74,385.13 663.74,385.40 660.99,385.40 660.99,385.67 658.24,385.67 658.24,385.94 655.49,385.94 655.49,386.22 652.75,386.22 652.75,386.50 650.00,386.50 650.00,386.77 647.25,386.77 647.25,387.05 644.51,387.05 644.51,387.33 641.76,387.33 641.76,387.61 639.01,387.61 639.01,387.88 636.26,387.88 636.26,388.16 633.52,388.16 633.52,388.44 630.77,388.44 630.77,388.72 628.02,388.72 628.02,389.00 625.27,389.00 625.27,389.29 622.53,389.29 622.53,389.57 619.78,389.57 619.78,389.85 617.03,389.85 617.03,390.13 614.29,390.13 614.29,390.41 611.54,390.41 611.54,390.69 608.79,390.69 608.79,390.97 606.04,390.97 606.04,391.25 603.30,391.25 603.30,391.52 600.55,391.52 600.55,391.80 597.80,391.80 597.80,392.08 595.05,392.08 595.05,392.35 592.31,392.35 592.31,392.62 589.56,392.62 589.56,392.90 586.81,392.90 586.81,393.17 584.07,393.17 584.07,393.43 581.32,393.43 581.32,393.70 578.57,393.70 578.57,393.96 575.82,393.96 575.82,394.22 573.08,394.22 573.08,394.48 570.33,394.48 570.33,394.73 567.58,394.73 567.58,394.98 564.84,394.98 564.84,395.23 562.09,395.23 562.09,395.47 559.34,395.47 559.34,395.71 556.59,395.71 556.59,395.94 553.85,395.94 553.85,396.17 551.10,396.17 551.10,396.40 548.35,396.40 548.35,396.62 545.60,396.62 545.60,396.83 542.86,396.83 542.86,397.04 540.11,397.04 540.11,397.24 537.36,397.24 537.36,397.44 534.62,397.44 534.62,397.63 531.87,397.63 531.87,397.82 529.12,397.82 529.12,398.00 526.37,398.00 526.37,398.17 523.63,398.17 523.63,398.33 520.88,398.33 520.88,398.49 518.13,398.49 518.13,398.64 515.38,398.64 515.38,398.78 512.64,398.78 512.64,398.92 509.89,398.92 509.89,399.05 507.14,399.05 507.14,399.16 504.40,399.16 504.40,399.27 501.65,399.27 501.65,399.38 498.90,399.38 498.90,399.47 496.15,399.47 496.15,399.55 493.41,399.55 493.41,399.63 490.66,399.63 490.66,399.69 487.91,399.69 487.91,399.75 485.16,399.75 485.16,399.79 482.42,399.79 482.42,399.83 479.67,399.83 479.67,399.86 476.92,399.86 476.92,399.88 474.18,399.88 474.18,399.88 471.43,399.88 471.43,399.88 468.68,399.88 468.68,399.87 465.93,399.87 465.93,399.85 463.19,399.85 463.19,399.82 460.44,399.82 460.44,399.77 457.69,399.77 457.69,399.72 454.95,399.72 454.95,399.66 452.20,399.66 452.20,399.59 449.45,399.59 449.45,399.50 446.70,399.50 446.70,399.41 443.96,399.41 443.96,399.31 441.21,399.31 441.21,399.19 438.46,399.19 438.46,399.07 435.71,399.07 435.71,398.94 432.97,398.94 432.97,398.79 430.22,398.79 430.22,398.64 427.47,398.64 427.47,398.48 424.73,398.48 424.73,398.31 421.98,398.31 421.98,398.12 419.23,398.12 419.23,397.93 416.48,397.93 416.48,397.73 413.74,397.73 413.74,397.52 410.99,397.52 410.99,397.30 408.24,397.30 408.24,397.07 405.49,397.07 405.49,396.83 402.75,396.83 402.75,396.58 400.00,396.58 400.00,396.33 397.25,396.33 397.25,396.06 394.51,396.06 394.51,395.79 391.76,395.79 391.76,395.51 389.01,395.51 389.01,395.22 386.26,395.22 386.26,394.92 383.52,394.92 383.52,394.61 380.77,394.61 380.77,394.30 378.02,394.30 378.02,393.98 375.27,393.98 375.27,393.65 372.53,393.65 372.53,393.32 369.78,393.32 369.78,392.97 367.03,392.97 367.03,392.62 364.29,392.62 364.29,392.27 361.54,392.27 361.54,391.90 358.79,391.90 358.79,391.53 356.04,391.53 356.04,391.16 353.30,391.16 353.30,390.77 350.55,390.77 350.55,390.39 347.80,390.39 347.80,389.99 345.05,389.99 345.05,389.59 342.31,389.59 342.31,389.19 339.56,389.19 339.56,388.78 336.81,388.78 336.81,388.36 334.07,388.36 334.07,387.94 331.32,387.94 331.32,387.52 328.57,387.52 328.57,387.09 325.82,387.09 325.82,386.65 323.08,386.65 323.08,386.22 320.33,386.22 320.33,385.77 317.58,385.77 317.58,385.33 314.84,385.33 314.84,384.88 312.09,384.88 312.09,384.43 309.34,384.43 309.34,383.97 306.59,383.97 306.59,383.51 303.85,383.51 303.85,383.05 301.10,383.05 301.10,382.59 298.35,382.59 298.35,382.12 295.60,382.12 295.60,381.65 292.86,381.65 292.86,381.18 290.11,381.18 290.11,380.70 287.36,380.70 287.36,380.23 284.62,380.23 284.62,379.75 281.87,379.75 281.87,379.27 279.12,379.27 279.12,378.79 276.37,378.79 276.37,378.31 273.63,378.31 273.63,377.83 270.88,377.83 270.88,377.34 268.13,377.34 268.13,376.86 265.38,376.86 265.38,376.37 262.64,376.37 262.64,375.89 259.89,375.89 259.89,375.40 257.14,375.40 257.14,374.91 254.40,374.91 254.40,374.43 251.65,374.43 251.65,373.94 248.90,373.94 248.90,373.46 246.15,373.46 246.15,372.97 243.41,372.97 243.41,372.49 240.66,372.49 240.66,372.01 237.91,372.01 237.91,371.53 235.16,371.53 235.16,371.05 232.42,371.05 232.42,370.57 229.67,370.57 229.67,370.09 226.92,370.09 226.92,369.62 224.18,369.62 224.18,369.15 221.43,369.15 221.43,368.67 218.68,368.67 218.68,368.21 215.93,368.21 215.93,367.74 213.19,367.74 213.19,367.28 210.44,367.28 210.44,366.82 207.69,366.82 207.69,387.19 204.95,387.19 204.95,386.74 202.20,386.74 202.20,386.29 199.45,386.29 199.45,385.84 196.70,385.84 196.70,385.40 193.96,385.40 193.96,384.96 191.21,384.96 191.21,384.52 188.46,384.52 188.46,384.09 185.71,384.09 185.71,383.66 182.97,383.66 182.97,383.24 180.22,383.24 180.22,382.82 177.47,382.82 177.47,382.41 174.73,382.41 174.73,382.00 171.98,382.00 171.98,381.60 169.23,381.60 169.23,381.20 166.48,381.20 166.48,380.81 163.74,380.81 163.74,380.42 160.99,380.42 160.99,380.04 158.24,380.04 158.24,379.67 155.49,379.67 155.49,379.30 152.75,379.30 152.75,378.94 150.00,378.94 150.00,378.59 147.25,378.59 147.25,378.24 144.51,378.24 144.51,377.90 141.76,377.90 141.76,377.57 139.01,377.57 139.01,377.24 136.26,377.24 136.26,376.93 133.52,376.93 133.52,376.62 130.77,376.62 130.77,376.31 128.02,376.31 128.02,376.02 125.27,376.02 125.27,375.73 122.53,375.73 122.53,375.45 119.78,375.45 119.78,375.18 117.03,375.18 117.03,374.92 114.29,374.92 114.29,374.67 111.54,374.67 111.54,374.43 108.79,374.43 108.79,374.19 106.04,374.19 106.04,373.97 103.30,373.97 103.30,373.75 100.55,373.75 100.55,373.54 97.80,373.54 97.80,373.34 95.05,373.34 95.05,373.15 92.31,373.15 92.31,372.98 89.56,372.98 89.56,372.81 86.81,372.81 86.81,372.65 84.07,372.65 84.07,372.50 81.32,372.50 81.32,372.36 78.57,372.36 78.57,372.23 75.82,372.23 75.82,372.11 73.08,372.11 73.08,372.00 70.33,372.00 70.33,371.90 67.58,371.90 67.58,371.82 64.84,371.82 64.84,371.74 62.09,371.74 62.09,371.67 59.34,371.67 59.34,371.61 56.59,371.61 56.59,371.57 53.85,371.57 53.85,371.53 51.10,371.53 51.10,371.50 48.35,371.50 48.35,371.49 45.60,371.49 45.60,371.48 42.86,371.48 42.86,371.49 40.11,371.49 40.11,371.50 37.36,371.50 37.36,371.53 34.62,371.53 34.62,371.56 31.87,371.56 31.87,371.61 29.12,371.61 29.12,371.66 26.37,371.66 26.37,371.73" fill="#0060c0" stroke="none" stroke-width="0"/>
<polygon points="25.00,362.08 25.00,155.63 26.37,155.63 26.37,155.36 29.12,155.36 29.12,155.09 31.87,155.09 31.87,154.81 34.62,154.81 34.62,154.52 37.36,154.52 37.36,154.22 40.11,154.22 40.11,153.93 42.86,153.93 42.86,153.62 45.60,153.62 45.60,153.31 48.35,153.31 48.35,153.00 51.10,153.00 51.10,152.69 53.85,152.69 53.85,152.36 56.59,152.36 56.59,152.04 59.34,152.04 59.34,151.71 62.09,151.71 62.09,151.38 64.84,151.38 64.84,151.05 67.58,151.05 67.58,150.71 70.33,150.71 70.33,150.38 73.08,150.38 73.08,150.04 75.82,150.04 75.82,149.69 78.57,149.69 78.57,149.35 81.32,149.35 81.32,149.01 84.07,149.01 84.07,148.66 86.81,148.66 86.81,148.31 89.56,148.31 89.56,147.96 92.31,147.96 92.31,147.62 95.05,147.62 95.05,147.27 97.80,147.27 97.80,146.92 100.55,146.92 100.55,146.57 103.30,146.57 103.30,146.22 106.04,146.22 106.04,145.88 108.79,145.88 108.79,145.53 111.54,145.53 111.54,145.18 114.29,145.18 114.29,144.84 117.03,144.84 117.03,144.49 119.78,144.49 119.78,144.15 122.53,144.15 122.53,143.81 125.27,143.81 125.27,143.47 128.02,143.47 128.02,143.13 130.77,143.13 130.77,142.79 133.52,142.79 133.52,142.45 136.26,142.45 136.26,142.12 139.01,142.12 139.01,141.79 141.76,141.79 141.76,141.46 144.51,141.46 144.51,141.13 147.25,141.13 147.25,140.80 150.00,140.80 150.00,140.48 152.75,140.48 152.75,140.15 155.49,140.15 155.49,139.83 158.24,139.83 158.24,139.51 160.99,139.51 160.99,139.20 163.74,139.20 163.74,138.88 166.48,138.88 166.48,138.57 169.23,138.57 169.23,138.26 171.98,138.26 171.98,137.95 174.73,137.95 174.73,137.64 177.47,137.64 177.47,137.34 180.22,137.34 180.22,137.03 182.97,137.03 182.97,136.73 185.71,136.73 185.71,136.43 188.46,136.43 188.46,136.13 191.21,136.13 191.21,135.84 193.96,135.84 193.96,135.55 196.70,135.55 196.70,135.25 199.45,135.25 199.45,134.96 202.20,134.96 202.20,134.67 204.95,134.67 204.95,134.39 207.69,134.39 207.69,113.27 210.44,113.27 210.44,112.98 213.19,112.98 213.19,112.70 215.93,112.70 215.93,112.42 218.68,112.42 218.68,112.14 221.43,112.14 221.43,111.86 224.18,111.86 224.18,111.58 226.92,111.58 226.92,111.31 229.67,111.31 229.67,111.03 232.42,111.03 232.42,110.75 235.16,110.75 235.16,110.48 237.91,110.48 237.91,110.21 240.66,110.21 240.66,109.94 243.41,109.94 243.41,109.66 246.15,109.66 246.15,109.39 248.90,109.39 248.90,109.12 251.65,109.12 251.65,108.85 254.40,108.85 254.40,108.58 257.14,108.58 257.14,108.31 259.89,108.31 259.89,108.04 262.64,108.04 262.64,107.77 265.38,107.77 265.38,107.50 268.13,107.50 268.13,107.23 270.88,107.23 270.88,106.97 273.63,106.97 273.63,106.70 276.37,106.70 276.37,106.43 279.12,106.43 279.12,106.16 281.87,106.16 281.87,105.89 284.62,105.89 284.62,105.62 287.36,105.62 287.36,105.35 290.11,105.35 290.11,105.08 292.86,105.08 292.86,104.81 295.60,104.81 295.60,104.54 298.35,104.54 298.35,104.27 301.10,104.27 301.10,104.00 303.85,104.00 303.85,103.73 306.59,103.73 306.59,103.46 309.34,103.46 309.34,103.19 312.09,103.19 312.09,102.92 314.84,102.92 314.84,102.65 317.58,102.65 317.58,102.37 320.33,102.37 320.33,102.10 323.08,102.10 323.08,101.83 325.82,101.83 325.82,101.55 328.57,101.55 328.57,101.28 331.32,101.28 331.32,101.00 334.07,101.00 334.07,100.73 336.81,100.73 336.81,100.45 339.56,100.45 339.56,100.18 342.31,100.18 342.31,99.90 345.05,99.90 345.05,99.62 347.80,99.62 347.80,99.35 350.55,99.35 350.55,99.07 353.30,99.07 353.30,98.80 356.04,98.80 356.04,98.52 358.79,98.52 358.79,98.24 361.54,98.24 361.54,97.97 364.29,97.97 364.29,97.69 367.03,97.69 367.03,97.42 369.78,97.42 369.78,97.15 372.53,97.15 372.53,96.87 375.27,96.87 375.27,96.60 378.02,96.60 378.02,96.33 380.77,96.33 380.77,96.06 383.52,96.06 383.52,95.79 386.26,95.79 386.26,95.52 389.01,95.52 389.01,95.26 391.76,95.26 391.76,94.99 394.51,94.99 394.51,94.73 397.25,94.73 397.25,94.47 400.00,94.47 400.00,94.21 402.75,94.21 402.75,93.96 405.49,93.96 405.49,93.70 408.24,93.70 408.24,93.45 410.99,93.45 410.99,93.20 413.74,93.20 413.74,92.96 416.48,92.96 416.48,92.72 419.23,92.72 419.23,92.48 421.98,92.48 421.98,92.24 424.73,92.24 424.73,92.01 427.47,92.01 427.47,91.79 430.22,91.79 430.22,91.56 432.97,91.56 432.97,91.34 435.71,91.34 435.71,91.13 438.46,91.13 438.46,90.92 441.21,90.92 441.21,90.72 443.96,90.72 443.96,90.52 446.70,90.52 446.70,90.33 449.45,90.33 449.45,90.14 452.20,90.14 452.20,89.96 454.95,89.96 454.95,89.78 457.69,89.78 457.69,89.61 460.44,89.61 460.44,89.45 463.19,89.45 463.19,89.30 465.93,89.30 465.93,89.15 468.68,89.15 468.68,89.00 471.43,89.00 471.43,88.87 474.18,88.87 474.18,88.74 476.92,88.74 476.92,88.62 479.67,88.62 479.67,88.51 482.42,88.51 482.42,88.41 485.16,88.41 485.16,88.31 487.91,88.31 487.91,88.22 490.66,88.22 490.66,88.14 493.41,88.14 493.41,88.07 496.15,88.07 496.15,88.01 498.90,88.01 498.90,87.96 501.65,87.96 501.65,87.91 504.40,87.91 504.40,87.87 507.14,87.87 507.14,87.85 509.89,87.85 509.89,87.83 512.64,87.83 512.64,87.82 515.38,87.82 515.38,87.82 518.13,87.82 518.13,87.83 520.88,87.83 520.88,87.85 523.63,87.85 523.63,87.88 526.37,87.88 526.37,87.92 529.12,87.92 529.12,87.97 531.87,87.97 531.87,88.03 534.62,88.03 534.62,88.09 537.36,88.09 537.36,88.17 540.11,88.17 540.11,88.26 542.86,88.26 542.86,88.35 545.60,88.35 545.60,88.46 548.35,88.46 548.35,88.58 551.10,88.58 551.10,88.70 553.85,88.70 553.85,88.84 556.59,88.84 556.59,88.98 559.34,88.98 559.34,89.13 562.09,89.13 562.09,89.30 564.84,89.30 564.84,89.47 567.58,89.47 567.58,89.65 570.33,89.65 570.33,89.84 573.08,89.84 573.08,90.04 575.82,90.04 575.82,90.25 578.57,90.25 578.57,90.47 581.32,90.47 581.32,90.69 584.07,90.69 584.07,90.93 586.81,90.93 586.81,91.17 589.56,91.17 589.56,91.43 592.31,91.43 592.31,91.69 595.05,91.69 595.05,91.96 597.80,91.96 597.80,92.24 600.55,92.24 600.55,92.52 603.30,92.52 603.30,92.81 606.04,92.81 606.04,93.12 608.79,93.12 608.79,93.42 611.54,93.42 611.54,93.74 614.29,93.74 614.29,94.06 617.03,94.06 617.03,94.40 619.78,94.40 619.78,94.73 622.53,94.73 622.53,95.08 625.27,95.08 625.27,95.43 628.02,95.43 628.02,95.79 630.77,95.79 630.77,96.15 633.52,96.15 633.52,96.52 636.26,96.52 636.26,96.90 639.01,96.90 639.01,97.28 641.76,97.28 641.76,97.67 644.51,97.67 644.51,98.07 647.25,98.07 647.25,98.47 650.00,98.47 650.00,98.88 652.75,98.88 652.75,99.29 655.49,99.29 655.49,99.70 658.24,99.70 658.24,100.12 660.99,100.12 660.99,100.55 663.74,100.55 663.74,100.98 666.48,100.98 666.48,101.42 669.23,101.42 669.23,101.85 671.98,101.85 671.98,102.30 674.73,102.30 674.73,102.74 677.47,102.74 677.47,103.20 680.22,103.20 680.22,103.65 682.97,103.65 682.97,104.11 685.71,104.11 685.71,104.57 688.46,104.57 688.46,105.03 691.21,105.03 691.21,105.50 693.96,105.50 693.96,105.97 696.70,105.97 696.70,106.44 699.45,106.44 699.45,106.92 702.20,106.92 702.20,107.40 704.95,107.40 704.95,107.87 707.69,107.87 707.69,108.36 710.44,108.36 710.44,108.84 713.19,108.84 713.19,109.32 715.93,109.32 715.93,109.81 718.68,109.81 718.68,110.30 721.43,110.30 721.43,110.79 724.18,110.79 724.18,111.28 726.92,111.28 726.92,111.77 729.67,111.77 729.67,112.26 732.42,112.26 732.42,112.75 735.16,112.75 735.16,113.25 737.91,113.25 737.91,113.74 740.66,113.74 740.66,114.23 743.41,114.23 743.41,114.73 746.15,114.73 746.15,115.22 748.90,115.22 748.90,115.71 751.65,115.71 751.65,116.20 754.40,116.20 754.40,116.69 757.14,116.69 757.14,117.18 759.89,117.18 759.89,117.67 762.64,117.67 762.64,118.16 765.38,118.16 765.38,118.65 768.13,118.65 768.13,119.13 770.88,119.13 770.88,119.62 773.63,119.62 773.63,120.10 776.37,120.10 776.37,120.58 779.12,120.58 779.12,121.05 781.87,121.05 781.87,121.53 784.62,121.53 784.62,122.00 787.36,122.00 787.36,122.47 790.11,122.47 790.11,122.93 792.86,122.93 792.86,123.39 795.60,123.39 795.60,123.85 798.35,123.85 798.35,124.31 801.10,124.31 801.10,124.76 803.85,124.76 803.85,125.21 806.59,125.21 806.59,125.65 809.34,125.65 809.34,126.09 812.09,126.09 812.09,126.53 814.84,126.53 814.84,126.96 817.58,126.96 817.58,127.39 820.33,127.39 820.33,127.81 823.08,127.81 823.08,128.23 825.82,128.23 825.82,128.64 828.57,128.64 828.57,129.04 831.32,129.04 831.32,129.44 834.07,129.44 834.07,129.84 836.81,129.84 836.81,130.22 839.56,130.22 839.56,130.60 842.31,130.60 842.31,130.98 845.05,130.98 845.05,131.35 847.80,131.35 847.80,131.71 850.55,131.71 850.55,132.06 853.30,132.06 853.30,132.41 856.04,132.41 856.04,132.75 858.79,132.75 858.79,133.08 861.54,133.08 861.54,154.24 864.29,154.24 864.29,154.56 867.03,154.56 867.03,154.87 869.78,154.87 869.78,155.17 872.53,155.17 872.53,155.46 875.27,155.46 875.27,155.74 878.02,155.74 878.02,156.02 880.77,156.02 880.77,156.28 883.52,156.28 883.52,156.54 886.26,156.54 886.26,156.79 889.01,156.79 889.01,157.03 891.76,157.03 891.76,157.26 894.51,157.26 894.51,157.48 897.25,157.48 897.25,157.69 900.00,157.69 900.00,157.88 902.75,157.88 902.75,158.07 905.49,158.07 905.49,158.25 908.24,158.25 908.24,158.42 910.99,158.42 910.99,158.58 913.74,158.58 913.74,158.73 916.48,158.73 916.48,158.87 919.23,158.87 919.23,159.00 921.98,159.00 921.98,159.11 924.73,159.11 924.73,159.22 927.47,159.22 927.47,159.31 930.22,159.31 930.22,159.40 932.97,159.40 932.97,159.47 935.71,159.47 935.71,159.53 938.46,159.53 938.46,159.58 941.21,159.58 941.21,159.62 943.96,159.62 943.96,159.65 946.70,159.65 946.70,159.67 949.45,159.67 949.45,159.68 952.20,159.68 952.20,159.67 954.95,159.67 954.95,159.66 957.69,159.66 957.69,159.63 960.44,159.63 960.44,159.59 963.19,159.59 963.19,159.54 965.93,159.54 965.93,159.48 968.68,159.48 968.68,159.41 971.43,159.41 971.43,159.33 974.18,159.33 974.18,159.24 976.92,159.24 976.92,159.14 979.67,159.14 979.67,159.03 982.42,159.03 982.42,158.91 985.16,158.91 985.16,158.77 987.91,158.77 987.91,158.63 990.66,158.63 990.66,158.48 993.41,158.48 993.41,158.32 996.15,158.32 996.15,158.15 998.90,158.15 998.90,157.97 1001.65,157.97 1001.65,157.78 1004.40,157.78 1004.40,157.58 1007.14,157.58 1007.14,157.37 1009.89,157.37 1009.89,157.15 1012.64,157.15 1012.64,156.93 1015.38,156.93 1015.38,156.70 1018.13,156.70 1018.13,156.46 1020.88,156.46 1020.88,156.21 1023.63,156.21 1023.63,155.96 1025.00,155.96 1025.00,362.16 1023.63,362.16 1023.63,362.24 1020.88,362.24 1020.88,362.33 1018.13,362.33 1018.13,362.43 1015.38,362.43 1015.38,362.54 1012.64,362.54 1012.64,362.66 1009.89,362.66 1009.89,362.79 1007.14,362.79 1007.14,362.93 1004.40,362.93 1004.40,363.08 1001.65,363.08 1001.65,363.24 998.90,363.24 998.90,363.41 996.15,363.41 996.15,363.58 993.41,363.58 993.41,363.77 990.66,363.77 990.66,363.96 987.91,363.96 987.91,364.16 985.16,364.16 985.16,364.37 982.42,364.37 982.42,364.59 979.67,364.59 979.67,364.82 976.92,364.82 976.92,365.05 974.18,365.05 974.18,365.29 971.43,365.29 971.43,365.54 968.68,365.54 968.68,365.79 965.93,365.79 965.93,366.05 963.19,366.05 963.19,366.32 960.44,366.32 960.44,366.59 957.69,366.59 957.69,366.87 954.95,366.87 954.95,367.15 952.20,367.15 952.20,367.44 949.45,367.44 949.45,367.73 946.70,367.73 946.70,368.03 943.96,368.03 943.96,368.33 941.21,368.33 941.21,368.64 938.46,368.64 938.46,368.95 935.71,368.95 935.71,369.26 932.97,369.26 932.97,369.57 930.22,369.57 930.22,369.89 927.47,369.89 927.47,370.21 924.73,370.21 924.73,370.54 921.98,370.54 921.98,370.86 919.23,370.86 919.23,371.19 916.48,371.19 916.48,371.52 913.74,371.52 913.74,371.85 910.99,371.85 910.99,372.18 908.24,372.18 908.24,372.51 905.49,372.51 905.49,372.84 902.75,372.84 902.75,373.17 900.00,373.17 900.00,373.50 897.25,373.50 897.25,373.84 894.51,373.84 894.51,374.17 891.76,374.17 891.76,374.50 889.01,374.50 889.01,374.83 886.26,374.83 886.26,375.16 883.52,375.16 883.52,375.49 880.77,375.49 880.77,375.82 878.02,375.82 878.02,376.15 875.27,376.15 875.27,376.48 872.53,376.48 872.53,376.80 869.78,376.80 869.78,377.13 867.03,377.13 867.03,377.45 864.29,377.45 864.29,377.77 861.54,377.77 861.54,357.26 858.79,357.26 858.79,357.57 856.04,357.57 856.04,357.89 853.30,357.89 853.30,358.20 850.55,358.20 850.55,358.51 847.80,358.51 847.80,358.82 845.05,358.82 845.05,359.13 842.31,359.13 842.31,359.44 839.56,359.44 839.56,359.74 836.81,359.74 836.81,360.04 834.07,360.04 834.07,360.34 831.32,360.34 831.32,360.63 828.57,360.63 828.57,360.93 825.82,360.93 825.82,361.22 823.08,361.22 823.08,361.51 820.33,361.51 820.33,361.80 817.58,361.80 817.58,362.08 814.84,362.08 814.84,362.37 812.09,362.37 812.09,362.65 809.34,362.65 809.34,362.93 806.59,362.93 806.59,363.21 803.85,363.21 803.85,363.48 801.10,363.48 801.10,363.75 798.35,363.75 798.35,364.03 795.60,364.03 795.60,364.30 792.86,364.30 792.86,364.56 790.11,364.56 790.11,364.83 787.36,364.83 787.36,365.09 784.62,365.09 784.62,365.36 781.87,365.36 781.87,365.62 779.12,365.62 779.12,365.88 776.37,365.88 776.37,366.14 773.63,366.14 773.63,366.39 770.88,366.39 770.88,366.65 768.13,366.65 768.13,366.90 765.38,366.90 765.38,367.16 762.64,367.16 762.64,367.41 759.89,367.41 759.89,367.66 757.14,367.66 757.14,367.91 754.40,367.91 754.40,368.16 751.65,368.16 751.65,368.41 748.90,368.41 748.90,368.66 746.15,368.66 746.15,368.90 743.41,368.90 743.41,369.15 740.66,369.15 740.66,369.40 737.91,369.40 737.91,369.64 735.16,369.64 735.16,369.89 732.42,369.89 732.42,370.13 729.67,370.13 729.67,370.38 726.92,370.38 726.92,370.62 724.18,370.62 724.18,370.86 721.43,370.86 721.43,371.11 718.68,371.11 718.68,371.35 715.93,371.35 715.93,371.60 713.19,371.60 713.19,371.84 710.44,371.84 710.44,372.08 707.69,372.08 707.69,372.33 704.95,372.33 704.95,372.57 702.20,372.57 702.20,372.82 699.45,372.82 699.45,373.06 696.70,373.06 696.70,373.31 693.96,373.31 693.96,373.56 691.21,373.56 691.21,373.80 688.46,373.80 688.46,374.05 685.71,374.05 685.71,374.30 682.97,374.30 682.97,374.54 680.22,374.54 680.22,374.79 677.47,374.79 677.47,375.04 674.73,375.04 674.73,375.29 671.98,375.29 671.98,375.54 669.23,375.54 669.23,375.79 666.48,375.79 666.48,376.04 663.74,376.04 663.74,376.30 660.99,376.30 660.99,376.55 658.24,376.55 658.24,376.80 655.49,376.80 655.49,377.06 652.75,377.06 652.75,377.31 650.00,377.31 650.00,377.56 647.25,377.56 647.25,377.82 644.51,377.82 644.51,378.07 641.76,378.07 641.76,378.33 639.01,378.33 639.01,378.59 636.26,378.59 636.26,378.84 633.52,378.84 633.52,379.10 630.77,379.10 630.77,379.36 628.02,379.36 628.02,379.61 625.27,379.61 625.27,379.87 622.53,379.87 622.53,380.13 619.78,380.13 619.78,380.38 617.03,380.38 617.03,380.64 614.29,380.64 614.29,380.90 611.54,380.90 611.54,381.15 608.79,381.15 608.79,381.41 606.04,381.41 606.04,381.66 603.30,381.66 603.30,381.91 600.55,381.91 600.55,382.17 597.80,382.17 597.80,382.42 595.05,382.42 595.05,382.67 592.31,382.67 592.31,382.92 589.56,382.92 589.56,383.16 586.81,383.16 586.81,383.41 584.07,383.41 584.07,383.65 581.32,383.65 581.32,383.89 578.57,383.89 578.57,384.13 575.82,384.13 575.82,384.37 573.08,384.37 573.08,384.61 570.33,384.61 570.33,384.84 567.58,384.84 567.58,385.07 564.84,385.07 564.84,385.29 562.09,385.29 562.09,385.51 559.34,385.51 559.34,385.73 556.59,385.73 556.59,385.95 553.85,385.95 553.85,386.16 551.10,386.16 551.10,386.37 548.35,386.37 548.35,386.57 545.60,386.57 545.60,386.77 542.86,386.77 542.86,386.96 540.11,386.96 540.11,387.15 537.36,387.15 537.36,387.33 534.62,387.33 534.62,387.51 531.87,387.51 531.87,387.68 529.12,387.68 529.12,387.85 526.37,387.85 526.37,388.01 523.63,388.01 523.63,388.16 520.88,388.16 520.88,388.31 518.13,388.31 518.13,388.45 515.38,388.45 515.38,388.59 512.64,388.59 512.64,388.72 509.89,388.72 509.89,388.84 507.14,388.84 507.14,388.95 504.40,388.95 504.40,389.06 501.65,389.06 501.65,389.16 498.90,389.16 498.90,389.25 496.15,389.25 496.15,389.33 493.41,389.33 493.41,389.40 490.66,389.40 490.66,389.47 487.91,389.47 487.91,389.53 485.16,389.53 485.16,389.58 482.42,389.58 482.42,389.62 479.67,389.62 479.67,389.65 476.92,389.65 476.92,389.68 474.18,389.68 474.18,389.69 471.43,389.69 471.43,389.70 468.68,389.70 468.68,389.70 465.93,389.70 465.93,389.68 463.19,389.68 463.19,389.66 460.44,389.66 460.44,389.63 457.69,389.63 457.69,389.59 454.95,389.59 454.95,389.54 452.20,389.54 452.20,389.48 449.45,389.48 449.45,389.42 446.70,389.42 446.70,389.34 443.96,389.34 443.96,389.25 441.21,389.25 441.21,389.16 438.46,389.16 438.46,389.05 435.71,389.05 435.71,388.94 432.97,388.94 432.97,388.81 430.22,388.81 430.22,388.68 427.47,388.68 427.47,388.54 424.73,388.54 424.73,388.38 421.98,388.38 421.98,388.22 419.23,388.22 419.23,388.05 416.48,388.05 416.48,387.87 413.74,387.87 413.74,387.69 410.99,387.69 410.99,387.49 408.24,387.49 408.24,387.28 405.49,387.28 405.49,387.07 402.75,387.07 402.75,386.84 400.00,386.84 400.00,386.61 397.25,386.61 397.25,386.37 394.51,386.37 394.51,386.12 391.76,386.12 391.76,385.87 389.01,385.87 389.01,385.60 386.26,385.60 386.26,385.33 383.52,385.33 383.52,385.05 380.77,385.05 380.77,384.76 378.02,384.76 378.02,384.46 375.27,384.46 375.27,384.16 372.53,384.16 372.53,383.85 369.78,383.85 369.78,383.53 367.03,383.53 367.03,383.20 364.29,383.20 364.29,382.87 361.54,382.87 361.54,382.53 358.79,382.53 358.79,382.19 356.04,382.19 356.04,381.83 353.30,381.83 353.30,381.48 350.55,381.48 350.55,381.11 347.80,381.11 347.80,380.74 345.05,380.74 345.05,380.36 342.31,380.36 342.31,379.98 339.56,379.98 339.56,379.59 336.81,379.59 336.81,379.20 334.07,379.20 334.07,378.80 331.32,378.80 331.32,378.40 328.57,378.40 328.57,377.99 325.82,377.99 325.82,377.58 323.08,377.58 323.08,377.16 320.33,377.16 320.33,376.74 317.58,376.74 317.58,376.31 314.84,376.31 314.84,375.88 312.09,375.88 312.09,375.45 309.34,375.45 309.34,375.01 306.59,375.01 306.59,374.57 303.85,374.57 303.85,374.12 301.10,374.12 301.10,373.67 298.35,373.67 298.35,373.22 295.60,373.22 295.60,372.77 292.86,372.77 292.86,372.31 290.11,372.31 290.11,371.85 287.36,371.85 287.36,371.39 284.62,371.39 284.62,370.92 281.87,370.92 281.87,370.46 279.12,370.46 279.12,369.99 276.37,369.99 276.37,369.52 273.63,369.52 273.63,369.04 270.88,369.04 270.88,368.57 268.13,368.57 268.13,368.10 265.38,368.10 265.38,367.62 262.64,367.62 262.64,367.14 259.89,367.14 259.89,366.66 257.14,366.66 257.14,366.19 254.40,366.19 254.40,365.71 251.65,365.71 251.65,365.23 248.90,365.23 248.90,364.75 246.15,364.75 246.15,364.27 243.41,364.27 243.41,363.79 240.66,363.79 240.66,363.31 237.91,363.31 237.91,362.83 235.16,362.83 235.16,362.35 232.42,362.35 232.42,361.88 229.67,361.88 229.67,361.40 226.92,361.40 226.92,360.93 224.18,360.93 224.18,360.45 221.43,360.45 221.43,359.98 218.68,359.98 218.68,359.51 215.93,359.51 215.93,359.04 213.19,359.04 213.19,358.58 210.44,358.58 210.44,358.11 207.69,358.11 207.69,378.49 204.95,378.49 204.95,378.03 202.20,378.03 202.20,377.57 199.45,377.57 199.45,377.12 196.70,377.12 196.70,376.67 193.96,376.67 193.96,376.22 191.21,376.22 191.21,375.78 188.46,375.78 188.46,375.34 185.71,375.34 185.71,374.90 182.97,374.90 182.97,374.47 180.22,374.47 180.22,374.04 177.47,374.04 177.47,373.62 174.73,373.62 174.73,373.20 171.98,373.20 171.98,372.79 169.23,372.79 169.23,372.38 166.48,372.38 166.48,371.98 163.74,371.98 163.74,371.58 160.99,371.58 160.99,371.19 158.24,371.19 158.24,370.80 155.49,370.80 155.49,370.42 152.75,370.42 152.75,370.04 150.00,370.04 150.00,369.67 147.25,369.67 147.25,369.31 144.51,369.31 144.51,368.96 141.76,368.96 141.76,368.61 139.01,368.61 139.01,368.27 136.26,368.27 136.26,367.93 133.52,367.93 133.52,367.60 130.77,367.60 130.77,367.28 128.02,367.28 128.02,366.97 125.27,366.97 125.27,366.67 122.53,366.67 122.53,366.37 119.78,366.37 119.78,366.08 117.03,366.08 117.03,365.80 114.29,365.80 114.29,365.53 111.54,365.53 111.54,365.27 108.79,365.27 108.79,365.02 106.04,365.02 106.04,364.77 103.30,364.77 103.30,364.54 100.55,364.54 100.55,364.31 97.80,364.31 97.80,364.09 95.05,364.09 95.05,363.89 92.31,363.89 92.31,363.69 89.56,363.69 89.56,363.50 86.81,363.50 86.81,363.32 84.07,363.32 84.07,363.16 81.32,363.16 81.32,363.00 78.57,363.00 78.57,362.85 75.82,362.85 75.82,362.71 73.08,362.71 73.08,362.59 70.33,362.59 70.33,362.47 67.58,362.47 67.58,362.36 64.84,362.36 64.84,362.27 62.09,362.27 62.09,362.19 59.34,362.19 59.34,362.11 56.59,362.11 56.59,362.05 53.85,362.05 53.85,362.00 51.10,362.00 51.10,361.96 48.35,361.96 48.35,361.93 45.60,361.93 45.60,361.91 42.86,361.91 42.86,361.90 40.11,361.90 40.11,361.90 37.36,361.90 37.36,361.91 34.62,361.91 34.62,361.94 31.87,361.94 31.87,361.97 29.12,361.97 29.12,362.02 26.37,362.02 26.37,362.08" fill="#80c0ff" stroke="none" stroke-width="0"/>
<text x="20.00" y="510.00" font-family="Arial" font-size="12" text-anchor="end" alignment-baseline="middle" fill="#000000">0</text>
<line x1="25.00" y1="510.00" x2="1025.00" y2="510.00" stroke="#808080" stroke-width="0.5" />
<text x="20.00" y="468.33" font-family="Arial" font-size="12" text-anchor="end" alignment-baseline="middle" fill="#000000">2</text>
<line x1="25.00" y1="468.33" x2="1025.00" y2="468.33" stroke="#808080" stroke-width="0.5" />
<text x="20.00" y="426.67" font-family="Arial" font-size="12" text-anchor="end" alignment-baseline="middle" fill="#000000">4</text>
<line x1="25.00" y1="426.67" x2="1025.00" y2="426.67" stroke="#808080" stroke-width="0.5" />
<text x="20.00" y="385.00" font-family="Arial" font-size="12" text-anchor="end" alignment-baseline="middle" fill="#000000">6</text>
<line x1="25.00" y1="385.00" x2="1025.00" y2="385.00" stroke="#808080" stroke-width="0.5" />
<text x="20.00" y="343.33" font-family="Arial" font-size="12" text-anchor="end" alignment-baseline="middle" fill="#000000">8</text>
<line x1="25.00" y1="343.33" x2="1025.00" y2="343.33" stroke="#808080" stroke-width="0.5" />
<text x="20.00" y="301.67" font-family="Arial" font-size="12" text-anchor="end" alignment-baseline="middle" fill="#000000">10</text>
<line x1="25.00" y1="301.67" x2="1025.00" y2="301.67" stroke="#808080" stroke-width="0.5" />
<text x="20.00" y="260.00" font-family="Arial" font-size="12" text-anchor="end" alignment-baseline="middle" fill="#000000">12</text>
<line x1="25.00" y1="260.00" x2="1025.00" y2="260.00" stroke="#808080" stroke-width="0.5" />
<text x="20.00" y="218.33" font-family="Arial" font-size="12" text-anchor="end" alignment-baseline="middle" fill="#000000">14</text>
<line x1="25.00" y1="218.33" x2="1025.00" y2="218.33" stroke="#808080" stroke-width="0.5" />
<text x="20.00" y="176.67" font-family="Arial" font-size="12" text-anchor="end" alignment-baseline="middle" fill="#000000">16</text>
<line x1="25.00" y1="176.67" x2="1025.00" y2="176.67" stroke="#808080" stroke-width="0.5" />
<text x="20.00" y="135.00" font-family="Arial" font-size="12" text-anchor="end" alignment-baseline="middle" fill="#000000">18</text>
<line x1="25.00" y1="135.00" x2="1025.00" y2="135.00" stroke="#808080" stroke-width="0.5" />
<text x="20.00" y="93.33" font-family="Arial" font-size="12" text-anchor="end" alignment-baseline="middle" fill="#000000">20</text>
<line x1="25.00" y1="93.33" x2="1025.00" y2="93.33" stroke="#808080" stroke-width="0.5" />
<text x="20.00" y="51.67" font-family="Arial" font-size="12" text-anchor="end" alignment-baseline="middle" fill="#000000">22</text>
<line x1="25.00" y1="51.67" x2="1025.00" y2="51.67" stroke="#808080" stroke-width="0.5" />
<text x="20.00" y="10.00" font-family="Arial" font-size="12" text-anchor="end" alignment-baseline="middle" fill="#000000">24</text>
<line x1="25.00" y1="10.00" x2="1025.00" y2="10.00" stroke="#808080" stroke-width="0.5" />
<text x="66.90" y="522.00" font-family="Arial" font-size="12" text-anchor="middle" alignment-baseline="middle" fill="#000000">Jan</text>
<line x1="25.00" y1="10.00" x2="25.00" y2="510.00" stroke="#808080" stroke-width="0.5" />
<text x="147.25" y="522.00" font-family="Arial" font-size="12" text-anchor="middle" alignment-baseline="middle" fill="#000000">Feb</text>
<line x1="108.79" y1="10.00" x2="108.79" y2="510.00" stroke="#808080" stroke-width="0.5" />
<text x="228.30" y="522.00" font-family="Arial" font-size="12" text-anchor="middle" alignment-baseline="middle" fill="#000000">Mar</text>
<line x1="185.71" y1="10.00" x2="185.71" y2="510.00" stroke="#808080" stroke-width="0.5" />
<text x="312.09" y="522.00" font-family="Arial" font-size="12" text-anchor="middle" alignment-baseline="middle" fill="#000000">Apr</text>
<line x1="270.88" y1="10.00" x2="270.88" y2="510.00" stroke="#808080" stroke-width="0.5" />
<text x="395.88" y="522.00" font-family="Arial" font-size="12" text-anchor="middle" alignment-baseline="middle" fill="#000000">May</text>
<line x1="353.30" y1="10.00" x2="353.30" y2="510.00" stroke="#808080" stroke-width="0.5" />
<text x="479.67" y="522.00" font-family="Arial" font-size="12" text-anchor="middle" alignment-baseline="middle" fill="#000000">Jun</text>
<line x1="438.46" y1="10.00" x2="438.46" y2="510.00" stroke="#808080" stroke-width="0.5" />
<text x="563.46" y="522.00" font-family="Arial" font-size="12" text-anchor="middle" alignment-baseline="middle" fill="#000000">Jul</text>
<line x1="520.88" y1="10.00" x2="520.88" y2="510.00" stroke="#808080" stroke-width="0.5" />
<text x="648.63" y="522.00" font-family="Arial" font-size="12" text-anchor="middle" alignment-baseline="middle" fill="#000000">Aug</text>
<line x1="606.04" y1="10.00" x2="606.04" y2="510.00" stroke="#808080" stroke-width="0.5" />
<text x="732.42" y="522.00" font-family="Arial" font-size="12" text-anchor="middle" alignment-baseline="middle" fill="#000000">Sep</text>
<line x1="691.21" y1="10.00" x2="691.21" y2="510.00" stroke="#808080" stroke-width="0.5" />
<text x="816.21" y="522.00" font-family="Arial" font-size="12" text-anchor="middle" alignment-baseline="middle" fill="#000000">Oct</text>
<line x1="773.63" y1="10.00" x2="773.63" y2="510.00" stroke="#808080" stroke-width="0.5" />
<text x="900.00" y="522.00" font-family="Arial" font-size="12" text-anchor="middle" alignment-baseline="middle" fill="#000000">Nov</text>
<line x1="858.79" y1="10.00" x2="858.79" y2="510.00" stroke="#808080" stroke-width="0.5" />
<text x="983.10" y="522.00" font-family="Arial" font-size="12" text-anchor="middle" alignment-baseline="middle" fill="#000000">Dec</text>
<line x1="941.21" y1="10.00" x2="941.21" y2="510.00" stroke="#808080" stroke-width="0.5" />
<line x1="1025.00" y1="10.00" x2="1025.00" y2="510.00" stroke="#808080" stroke-width="0.5" />
<line x1="239.29" y1="10.00" x2="239.29" y2="510.00" stroke="#00c000" stroke-width="1" />
<line x1="492.03" y1="10.00" x2="492.03" y2="510.00" stroke="#00c000" stroke-width="1" />
<line x1="750.27" y1="10.00" x2="750.27" y2="510.00" stroke="#00c000" stroke-width="1" />
<line x1="997.53" y1="10.00" x2="997.53" y2="510.00" stroke="#00c000" stroke-width="1" />
</svg>