<svg xmlns="http://www.w3.org/2000/svg" width="1135" height="585" viewBox="0 0 1135 585">
<rect x="0" y="0" width="1135" height="585" fill="#ffffff" stroke="none" stroke-width="0"/>
<rect x="25" y="10" width="1100" height="550" fill="#000000" stroke="none" stroke-width="0"/>
<polygon points="25,560 25,264.39 28.01,264.39 28.01,264.21 31.03,264.21 31.03,264.01 34.04,264.01 34.04,263.8 37.05,263.8 37.05,263.58 40.07,263.58 40.07,263.34 43.08,263.34 43.08,263.09 46.1,263.09 46.1,262.82 49.11,262.82 49.11,262.54 52.12,262.54 52.12,262.25 55.14,262.25 55.14,261.94 58.15,261.94 58.15,261.62 61.16,261.62 61.16,261.28 64.18,261.28 64.18,260.93 67.19,260.93 67.19,260.57 70.21,260.57 70.21,260.2 73.22,260.2 73.22,259.81 76.23,259.81 76.23,259.41 79.25,259.41 79.25,259 82.26,259 82.26,258.58 85.27,258.58 85.27,258.14 88.29,258.14 88.29,257.69 91.3,257.69 91.3,257.23 94.32,257.23 94.32,256.76 97.33,256.76 97.33,256.28 100.34,256.28 100.34,255.78 103.36,255.78 103.36,255.28 106.37,255.28 106.37,254.76 109.38,254.76 109.38,254.24 112.4,254.24 112.4,253.7 115.41,253.7 115.41,253.15 118.42,253.15 118.42,252.59 121.44,252.59 121.44,252.03 124.45,252.03 124.45,251.45 127.47,251.45 127.47,250.86 130.48,250.86 130.48,250.27 133.49,250.27 133.49,249.66 136.51,249.66 136.51,249.05 139.52,249.05 139.52,248.42 142.53,248.42 142.53,247.79 145.55,247.79 145.55,247.15 148.56,247.15 148.56,246.5 151.58,246.5 151.58,245.84 154.59,245.84 154.59,245.17 157.6,245.17 157.6,244.5 160.62,244.5 160.62,243.81 163.63,243.81 163.63,243.12 166.64,243.12 166.64,242.42 169.66,242.42 169.66,241.72 172.67,241.72 172.67,241 175.68,241 175.68,240.28 178.7,240.28 178.7,239.55 181.71,239.55 181.71,238.81 184.73,238.81 184.73,238.07 187.74,238.07 187.74,237.32 190.75,237.32 190.75,236.56 193.77,236.56 193.77,235.79 196.78,235.79 196.78,235.02 199.79,235.02 199.79,234.24 202.81,234.24 202.81,233.46 205.82,233.46 205.82,232.67 208.84,232.67 208.84,231.87 211.85,231.87 211.85,231.07 214.86,231.07 214.86,230.26 217.88,230.26 217.88,229.44 220.89,229.44 220.89,228.62 223.9,228.62 223.9,227.79 226.92,227.79 226.92,226.96 229.93,226.96 229.93,226.12 232.95,226.12 232.95,225.28 235.96,225.28 235.96,224.43 238.97,224.43 238.97,223.57 241.99,223.57 241.99,222.71 245,222.71 245,221.84 248.01,221.84 248.01,220.97 251.03,220.97 251.03,220.1 254.04,220.1 254.04,219.21 257.05,219.21 257.05,218.33 260.07,218.33 260.07,217.44 263.08,217.44 263.08,216.54 266.1,216.54 266.1,215.64 269.11,215.64 269.11,214.73 272.12,214.73 272.12,213.82 275.14,213.82 275.14,212.91 278.15,212.91 278.15,211.99 281.16,211.99 281.16,211.07 284.18,211.07 284.18,210.14 287.19,210.14 287.19,209.21 290.21,209.21 290.21,208.27 293.22,208.27 293.22,207.34 296.23,207.34 296.23,206.4 299.25,206.4 299.25,205.45 302.26,205.45 302.26,204.5 305.27,204.5 305.27,203.55 308.29,203.55 308.29,202.6 311.3,202.6 311.3,201.64 314.32,201.64 314.32,200.68 317.33,200.68 317.33,199.72 320.34,199.72 320.34,198.76 323.36,198.76 323.36,197.79 326.37,197.79 326.37,196.83 329.38,196.83 329.38,195.86 332.4,195.86 332.4,194.89 335.41,194.89 335.41,193.92 338.42,193.92 338.42,192.94 341.44,192.94 341.44,191.97 344.45,191.97 344.45,191 347.47,191 347.47,190.02 350.48,190.02 350.48,189.05 353.49,189.05 353.49,188.08 356.51,188.08 356.51,187.1 359.52,187.1 359.52,186.13 362.53,186.13 362.53,185.16 365.55,185.16 365.55,184.19 368.56,184.19 368.56,183.22 371.58,183.22 371.58,182.26 374.59,182.26 374.59,181.3 377.6,181.3 377.6,180.34 380.62,180.34 380.62,179.38 383.63,179.38 383.63,178.43 386.64,178.43 386.64,177.48 389.66,177.48 389.66,176.54 392.67,176.54 392.67,175.6 395.68,175.6 395.68,174.67 398.7,174.67 398.7,173.74 401.71,173.74 401.71,172.83 404.73,172.83 404.73,171.91 407.74,171.91 407.74,171.01 410.75,171.01 410.75,170.11 413.77,170.11 413.77,169.23 416.78,169.23 416.78,168.35 419.79,168.35 419.79,167.48 422.81,167.48 422.81,166.63 425.82,166.63 425.82,165.78 428.84,165.78 428.84,164.95 431.85,164.95 431.85,164.12 434.86,164.12 434.86,163.31 437.88,163.31 437.88,162.52 440.89,162.52 440.89,161.74 443.9,161.74 443.9,160.97 446.92,160.97 446.92,160.22 449.93,160.22 449.93,159.48 452.95,159.48 452.95,158.76 455.96,158.76 455.96,158.06 458.97,158.06 458.97,157.38 461.99,157.38 461.99,156.71 465,156.71 465,156.07 468.01,156.07 468.01,155.44 471.03,155.44 471.03,154.84 474.04,154.84 474.04,154.25 477.05,154.25 477.05,153.69 480.07,153.69 480.07,153.15 483.08,153.15 483.08,152.64 486.1,152.64 486.1,152.15 489.11,152.15 489.11,151.68 492.12,151.68 492.12,151.24 495.14,151.24 495.14,150.82 498.15,150.82 498.15,150.43 501.16,150.43 501.16,150.06 504.18,150.06 504.18,149.73 507.19,149.73 507.19,149.41 510.21,149.41 510.21,149.13 513.22,149.13 513.22,148.88 516.23,148.88 516.23,148.65 519.25,148.65 519.25,148.45 522.26,148.45 522.26,148.28 525.27,148.28 525.27,148.14 528.29,148.14 528.29,148.03 531.3,148.03 531.3,147.95 534.32,147.95 534.32,147.89 537.33,147.89 537.33,147.87 540.34,147.87 540.34,147.88 543.36,147.88 543.36,147.91 546.37,147.91 546.37,147.98 549.38,147.98 549.38,148.08 552.4,148.08 552.4,148.2 555.41,148.2 555.41,148.35 558.42,148.35 558.42,148.54 561.44,148.54 561.44,148.75 564.45,148.75 564.45,148.99 567.47,148.99 567.47,149.25 570.48,149.25 570.48,149.55 573.49,149.55 573.49,149.87 576.51,149.87 576.51,150.22 579.52,150.22 579.52,150.6 582.53,150.6 582.53,151 585.55,151 585.55,151.42 588.56,151.42 588.56,151.87 591.58,151.87 591.58,152.35 594.59,152.35 594.59,152.85 597.6,152.85 597.6,153.37 600.62,153.37 600.62,153.92 603.63,153.92 603.63,154.48 606.64,154.48 606.64,155.07 609.66,155.07 609.66,155.68 612.67,155.68 612.67,156.31 615.68,156.31 615.68,156.96 618.7,156.96 618.7,157.62 621.71,157.62 621.71,158.31 624.73,158.31 624.73,159.01 627.74,159.01 627.74,159.73 630.75,159.73 630.75,160.47 633.77,160.47 633.77,161.22 636.78,161.22 636.78,161.98 639.79,161.98 639.79,162.76 642.81,162.76 642.81,163.56 645.82,163.56 645.82,164.36 648.84,164.36 648.84,165.18 651.85,165.18 651.85,166.01 654.86,166.01 654.86,166.86 657.88,166.86 657.88,167.71 660.89,167.71 660.89,168.57 663.9,168.57 663.9,169.44 666.92,169.44 666.92,170.32 669.93,170.32 669.93,171.21 672.95,171.21 672.95,172.11 675.96,172.11 675.96,173.01 678.97,173.01 678.97,173.92 681.99,173.92 681.99,174.84 685,174.84 685,175.76 688.01,175.76 688.01,176.69 691.03,176.69 691.03,177.62 694.04,177.62 694.04,178.56 697.05,178.56 697.05,179.5 700.07,179.5 700.07,180.44 703.08,180.44 703.08,181.39 706.1,181.39 706.1,182.34 709.11,182.34 709.11,183.29 712.12,183.29 712.12,184.25 715.14,184.25 715.14,185.2 718.15,185.2 718.15,186.16 721.16,186.16 721.16,187.12 724.18,187.12 724.18,188.08 727.19,188.08 727.19,189.04 730.21,189.04 730.21,190 733.22,190 733.22,190.96 736.23,190.96 736.23,191.93 739.25,191.93 739.25,192.89 742.26,192.89 742.26,193.85 745.27,193.85 745.27,194.8 748.29,194.8 748.29,195.76 751.3,195.76 751.3,196.72 754.32,196.72 754.32,197.67 757.33,197.67 757.33,198.62 760.34,198.62 760.34,199.57 763.36,199.57 763.36,200.52 766.37,200.52 766.37,201.47 769.38,201.47 769.38,202.41 772.4,202.41 772.4,203.35 775.41,203.35 775.41,204.29 778.42,204.29 778.42,205.22 781.44,205.22 781.44,206.15 784.45,206.15 784.45,207.08 787.47,207.08 787.47,208 790.48,208 790.48,208.92 793.49,208.92 793.49,209.84 796.51,209.84 796.51,210.75 799.52,210.75 799.52,211.66 802.53,211.66 802.53,212.57 805.55,212.57 805.55,213.47 808.56,213.47 808.56,214.37 811.58,214.37 811.58,215.26 814.59,215.26 814.59,216.15 817.6,216.15 817.6,217.04 820.62,217.04 820.62,217.92 823.63,217.92 823.63,218.79 826.64,218.79 826.64,219.66 829.66,219.66 829.66,220.53 832.67,220.53 832.67,221.39 835.68,221.39 835.68,222.25 838.7,222.25 838.7,223.1 841.71,223.1 841.71,223.94 844.73,223.94 844.73,224.78 847.74,224.78 847.74,225.62 850.75,225.62 850.75,226.45 853.77,226.45 853.77,227.27 856.78,227.27 856.78,228.09 859.79,228.09 859.79,228.91 862.81,228.91 862.81,229.71 865.82,229.71 865.82,230.51 868.84,230.51 868.84,231.31 871.85,231.31 871.85,232.1 874.86,232.1 874.86,232.88 877.88,232.88 877.88,233.66 880.89,233.66 880.89,234.43 883.9,234.43 883.9,235.2 886.92,235.2 886.92,235.96 889.93,235.96 889.93,236.71 892.95,236.71 892.95,237.45 895.96,237.45 895.96,238.19 898.97,238.19 898.97,238.93 901.99,238.93 901.99,239.65 905,239.65 905,240.37 908.01,240.37 908.01,241.08 911.03,241.08 911.03,241.79 914.04,241.79 914.04,242.49 917.05,242.49 917.05,243.17 920.07,243.17 920.07,243.86 923.08,243.86 923.08,244.53 926.1,244.53 926.1,245.2 929.11,245.2 929.11,245.86 932.12,245.86 932.12,246.51 935.14,246.51 935.14,247.15 938.15,247.15 938.15,247.78 941.16,247.78 941.16,248.41 944.18,248.41 944.18,249.03 947.19,249.03 947.19,249.64 950.21,249.64 950.21,250.23 953.22,250.23 953.22,250.82 956.23,250.82 956.23,251.41 959.25,251.41 959.25,251.98 962.26,251.98 962.26,252.54 965.27,252.54 965.27,253.09 968.29,253.09 968.29,253.63 971.3,253.63 971.3,254.17 974.32,254.17 974.32,254.69 977.33,254.69 977.33,255.2 980.34,255.2 980.34,255.7 983.36,255.7 983.36,256.19 986.37,256.19 986.37,256.68 989.38,256.68 989.38,257.14 992.4,257.14 992.4,257.6 995.41,257.6 995.41,258.05 998.42,258.05 998.42,258.48 1001.44,258.48 1001.44,258.91 1004.45,258.91 1004.45,259.32 1007.47,259.32 1007.47,259.72 1010.48,259.72 1010.48,260.11 1013.49,260.11 1013.49,260.48 1016.51,260.48 1016.51,260.84 1019.52,260.84 1019.52,261.19 1022.53,261.19 1022.53,261.53 1025.55,261.53 1025.55,261.85 1028.56,261.85 1028.56,262.16 1031.58,262.16 1031.58,262.46 1034.59,262.46 1034.59,262.74 1037.6,262.74 1037.6,263.01 1040.62,263.01 1040.62,263.27 1043.63,263.27 1043.63,263.51 1046.64,263.51 1046.64,263.74 1049.66,263.74 1049.66,263.95 1052.67,263.95 1052.67,264.15 1055.68,264.15 1055.68,264.33 1058.7,264.33 1058.7,264.5 1061.71,264.5 1061.71,264.66 1064.73,264.66 1064.73,264.8 1067.74,264.8 1067.74,264.92 1070.75,264.92 1070.75,265.03 1073.77,265.03 1073.77,265.13 1076.78,265.13 1076.78,265.21 1079.79,265.21 1079.79,265.28 1082.81,265.28 1082.81,265.33 1085.82,265.33 1085.82,265.36 1088.84,265.36 1088.84,265.38 1091.85,265.38 1091.85,265.38 1094.86,265.38 1094.86,265.37 1097.88,265.37 1097.88,265.35 1100.89,265.35 1100.89,265.31 1103.9,265.31 1103.9,265.25 1106.92,265.25 1106.92,265.18 1109.93,265.18 1109.93,265.09 1112.95,265.09 1112.95,264.99 1115.96,264.99 1115.96,264.87 1118.97,264.87 1118.97,264.74 1121.99,264.74 1121.99,264.59 1125,264.59 1125,560" fill="#002040" stroke="none" stroke-width="0"/>
<polygon points="25,560 25,287.74 28.01,287.74 28.01,287.55 31.03,287.55 31.03,287.33 34.04,287.33 34.04,287.11 37.05,287.11 37.05,286.87 40.07,286.87 40.07,286.61 43.08,286.61 43.08,286.34 46.1,286.34 46.1,286.05 49.11,286.05 49.11,285.75 52.12,285.75 52.12,285.43 55.14,285.43 55.14,285.1 58.15,285.1 58.15,284.75 61.16,284.75 61.16,284.39 64.18,284.39 64.18,284.02 67.19,284.02 67.19,283.63 70.21,283.63 70.21,283.23 73.22,283.23 73.22,282.82 76.23,282.82 76.23,282.4 79.25,282.4 79.25,281.96 82.26,281.96 82.26,281.5 85.27,281.5 85.27,281.04 88.29,281.04 88.29,280.56 91.3,280.56 91.3,280.08 94.32,280.08 94.32,279.58 97.33,279.58 97.33,279.07 100.34,279.07 100.34,278.55 103.36,278.55 103.36,278.01 106.37,278.01 106.37,277.47 109.38,277.47 109.38,276.92 112.4,276.92 112.4,276.35 115.41,276.35 115.41,275.78 118.42,275.78 118.42,275.19 121.44,275.19 121.44,274.6 124.45,274.6 124.45,274 127.47,274 127.47,273.39 130.48,273.39 130.48,272.77 133.49,272.77 133.49,272.14 136.51,272.14 136.51,271.5 139.52,271.5 139.52,270.86 142.53,270.86 142.53,270.2 145.55,270.2 145.55,269.54 148.56,269.54 148.56,268.87 151.58,268.87 151.58,268.2 154.59,268.2 154.59,267.51 157.6,267.51 157.6,266.82 160.62,266.82 160.62,266.12 163.63,266.12 163.63,265.42 166.64,265.42 166.64,264.71 169.66,264.71 169.66,263.99 172.67,263.99 172.67,263.26 175.68,263.26 175.68,262.53 178.7,262.53 178.7,261.79 181.71,261.79 181.71,261.05 184.73,261.05 184.73,260.3 187.74,260.3 187.74,259.55 190.75,259.55 190.75,258.79 193.77,258.79 193.77,258.02 196.78,258.02 196.78,257.25 199.79,257.25 199.79,256.47 202.81,256.47 202.81,255.69 205.82,255.69 205.82,254.91 208.84,254.91 208.84,254.12 211.85,254.12 211.85,253.32 214.86,253.32 214.86,252.52 217.88,252.52 217.88,251.72 220.89,251.72 220.89,250.91 223.9,250.91 223.9,250.1 226.92,250.1 226.92,249.28 229.93,249.28 229.93,248.46 232.95,248.46 232.95,247.64 235.96,247.64 235.96,246.81 238.97,246.81 238.97,245.98 241.99,245.98 241.99,245.14 245,245.14 245,244.3 248.01,244.3 248.01,243.46 251.03,243.46 251.03,242.62 254.04,242.62 254.04,241.77 257.05,241.77 257.05,240.92 260.07,240.92 260.07,240.06 263.08,240.06 263.08,239.21 266.1,239.21 266.1,238.35 269.11,238.35 269.11,237.49 272.12,237.49 272.12,236.62 275.14,236.62 275.14,235.75 278.15,235.75 278.15,234.88 281.16,234.88 281.16,234.01 284.18,234.01 284.18,233.14 287.19,233.14 287.19,232.26 290.21,232.26 290.21,231.38 293.22,231.38 293.22,230.51 296.23,230.51 296.23,229.63 299.25,229.63 299.25,228.74 302.26,228.74 302.26,227.86 305.27,227.86 305.27,226.98 308.29,226.98 308.29,226.09 311.3,226.09 311.3,225.21 314.32,225.21 314.32,224.32 317.33,224.32 317.33,223.44 320.34,223.44 320.34,222.55 323.36,222.55 323.36,221.67 326.37,221.67 326.37,220.78 329.38,220.78 329.38,219.89 332.4,219.89 332.4,219.01 335.41,219.01 335.41,218.13 338.42,218.13 338.42,217.24 341.44,217.24 341.44,216.36 344.45,216.36 344.45,215.48 347.47,215.48 347.47,214.6 350.48,214.6 350.48,213.72 353.49,213.72 353.49,212.85 356.51,212.85 356.51,211.98 359.52,211.98 359.52,211.11 362.53,211.11 362.53,210.24 365.55,210.24 365.55,209.37 368.56,209.37 368.56,208.51 371.58,208.51 371.58,207.66 374.59,207.66 374.59,206.81 377.6,206.81 377.6,205.96 380.62,205.96 380.62,205.12 383.63,205.12 383.63,204.28 386.64,204.28 386.64,203.45 389.66,203.45 389.66,202.62 392.67,202.62 392.67,201.8 395.68,201.8 395.68,200.99 398.7,200.99 398.7,200.18 401.71,200.18 401.71,199.38 404.73,199.38 404.73,198.59 407.74,198.59 407.74,197.81 410.75,197.81 410.75,197.04 413.77,197.04 413.77,196.28 416.78,196.28 416.78,195.52 419.79,195.52 419.79,194.78 422.81,194.78 422.81,194.04 425.82,194.04 425.82,193.32 428.84,193.32 428.84,192.61 431.85,192.61 431.85,191.91 434.86,191.91 434.86,191.22 437.88,191.22 437.88,190.55 440.89,190.55 440.89,189.89 443.9,189.89 443.9,189.24 446.92,189.24 446.92,188.61 449.93,188.61 449.93,187.99 452.95,187.99 452.95,187.38 455.96,187.38 455.96,186.8 458.97,186.8 458.97,186.22 461.99,186.22 461.99,185.67 465,185.67 465,185.13 468.01,185.13 468.01,184.61 471.03,184.61 471.03,184.11 474.04,184.11 474.04,183.63 477.05,183.63 477.05,183.16 480.07,183.16 480.07,182.72 483.08,182.72 483.08,182.29 486.1,182.29 486.1,181.88 489.11,181.88 489.11,181.5 492.12,181.5 492.12,181.14 495.14,181.14 495.14,180.79 498.15,180.79 498.15,180.47 501.16,180.47 501.16,180.17 504.18,180.17 504.18,179.9 507.19,179.9 507.19,179.64 510.21,179.64 510.21,179.41 513.22,179.41 513.22,179.2 516.23,179.2 516.23,179.02 519.25,179.02 519.25,178.86 522.26,178.86 522.26,178.72 525.27,178.72 525.27,178.6 528.29,178.6 528.29,178.51 531.3,178.51 531.3,178.45 534.32,178.45 534.32,178.4 537.33,178.4 537.33,178.38 540.34,178.38 540.34,178.39 543.36,178.39 543.36,178.42 546.37,178.42 546.37,178.47 549.38,178.47 549.38,178.55 552.4,178.55 552.4,178.65 555.41,178.65 555.41,178.78 558.42,178.78 558.42,178.93 561.44,178.93 561.44,179.1 564.45,179.1 564.45,179.29 567.47,179.29 567.47,179.51 570.48,179.51 570.48,179.75 573.49,179.75 573.49,180.02 576.51,180.02 576.51,180.3 579.52,180.3 579.52,180.61 582.53,180.61 582.53,180.94 585.55,180.94 585.55,181.29 588.56,181.29 588.56,181.66 591.58,181.66 591.58,182.05 594.59,182.05 594.59,182.46 597.6,182.46 597.6,182.9 600.62,182.9 600.62,183.35 603.63,183.35 603.63,183.82 606.64,183.82 606.64,184.3 609.66,184.3 609.66,184.81 612.67,184.81 612.67,185.33 615.68,185.33 615.68,185.87 618.7,185.87 618.7,186.43 621.71,186.43 621.71,187 624.73,187 624.73,187.59 627.74,187.59 627.74,188.2 630.75,188.2 630.75,188.82 633.77,188.82 633.77,189.45 636.78,189.45 636.78,190.1 639.79,190.1 639.79,190.76 642.81,190.76 642.81,191.43 645.82,191.43 645.82,192.12 648.84,192.12 648.84,192.81 651.85,192.81 651.85,193.52 654.86,193.52 654.86,194.24 657.88,194.24 657.88,194.97 660.89,194.97 660.89,195.71 663.9,195.71 663.9,196.46 666.92,196.46 666.92,197.22 669.93,197.22 669.93,197.99 672.95,197.99 672.95,198.76 675.96,198.76 675.96,199.55 678.97,199.55 678.97,200.34 681.99,200.34 681.99,201.14 685,201.14 685,201.94 688.01,201.94 688.01,202.75 691.03,202.75 691.03,203.57 694.04,203.57 694.04,204.39 697.05,204.39 697.05,205.22 700.07,205.22 700.07,206.05 703.08,206.05 703.08,206.89 706.1,206.89 706.1,207.73 709.11,207.73 709.11,208.58 712.12,208.58 712.12,209.42 715.14,209.42 715.14,210.28 718.15,210.28 718.15,211.13 721.16,211.13 721.16,211.99 724.18,211.99 724.18,212.85 727.19,212.85 727.19,213.72 730.21,213.72 730.21,214.58 733.22,214.58 733.22,215.45 736.23,215.45 736.23,216.32 739.25,216.32 739.25,217.19 742.26,217.19 742.26,218.06 745.27,218.06 745.27,218.93 748.29,218.93 748.29,219.81 751.3,219.81 751.3,220.68 754.32,220.68 754.32,221.55 757.33,221.55 757.33,222.43 760.34,222.43 760.34,223.3 763.36,223.3 763.36,224.17 766.37,224.17 766.37,225.05 769.38,225.05 769.38,225.92 772.4,225.92 772.4,226.79 775.41,226.79 775.41,227.66 778.42,227.66 778.42,228.53 781.44,228.53 781.44,229.4 784.45,229.4 784.45,230.26 787.47,230.26 787.47,231.13 790.48,231.13 790.48,231.99 793.49,231.99 793.49,232.86 796.51,232.86 796.51,233.72 799.52,233.72 799.52,234.58 802.53,234.58 802.53,235.43 805.55,235.43 805.55,236.29 808.56,236.29 808.56,237.14 811.58,237.14 811.58,237.99 814.59,237.99 814.59,238.84 817.6,238.84 817.6,239.68 820.62,239.68 820.62,240.53 823.63,240.53 823.63,241.37 826.64,241.37 826.64,242.2 829.66,242.2 829.66,243.04 832.67,243.04 832.67,243.87 835.68,243.87 835.68,244.7 838.7,244.7 838.7,245.52 841.71,245.52 841.71,246.34 844.73,246.34 844.73,247.16 847.74,247.16 847.74,247.97 850.75,247.97 850.75,248.78 853.77,248.78 853.77,249.59 856.78,249.59 856.78,250.39 859.79,250.39 859.79,251.19 862.81,251.19 862.81,251.98 865.82,251.98 865.82,252.77 868.84,252.77 868.84,253.56 871.85,253.56 871.85,254.34 874.86,254.34 874.86,255.12 877.88,255.12 877.88,255.89 880.89,255.89 880.89,256.66 883.9,256.66 883.9,257.42 886.92,257.42 886.92,258.18 889.93,258.18 889.93,258.94 892.95,258.94 892.95,259.68 895.96,259.68 895.96,260.43 898.97,260.43 898.97,261.17 901.99,261.17 901.99,261.9 905,261.9 905,262.62 908.01,262.62 908.01,263.34 911.03,263.34 911.03,264.06 914.04,264.06 914.04,264.77 917.05,264.77 917.05,265.47 920.07,265.47 920.07,266.17 923.08,266.17 923.08,266.86 926.1,266.86 926.1,267.54 929.11,267.54 929.11,268.21 932.12,268.21 932.12,268.88 935.14,268.88 935.14,269.54 938.15,269.54 938.15,270.2 941.16,270.2 941.16,270.84 944.18,270.84 944.18,271.48 947.19,271.48 947.19,272.11 950.21,272.11 950.21,272.73 953.22,272.73 953.22,273.35 956.23,273.35 956.23,273.95 959.25,273.95 959.25,274.55 962.26,274.55 962.26,275.14 965.27,275.14 965.27,275.71 968.29,275.71 968.29,276.28 971.3,276.28 971.3,276.84 974.32,276.84 974.32,277.39 977.33,277.39 977.33,277.93 980.34,277.93 980.34,278.46 983.36,278.46 983.36,278.98 986.37,278.98 986.37,279.49 989.38,279.49 989.38,279.98 992.4,279.98 992.4,280.47 995.41,280.47 995.41,280.94 998.42,280.94 998.42,281.41 1001.44,281.41 1001.44,281.86 1004.45,281.86 1004.45,282.3 1007.47,282.3 1007.47,282.72 1010.48,282.72 1010.48,283.14 1013.49,283.14 1013.49,283.54 1016.51,283.54 1016.51,283.92 1019.52,283.92 1019.52,284.3 1022.53,284.3 1022.53,284.66 1025.55,284.66 1025.55,285.01 1028.56,285.01 1028.56,285.34 1031.58,285.34 1031.58,285.66 1034.59,285.66 1034.59,285.96 1037.6,285.96 1037.6,286.25 1040.62,286.25 1040.62,286.53 1043.63,286.53 1043.63,286.79 1046.64,286.79 1046.64,287.04 1049.66,287.04 1049.66,287.27 1052.67,287.27 1052.67,287.48 1055.68,287.48 1055.68,287.68 1058.7,287.68 1058.7,287.86 1061.71,287.86 1061.71,288.03 1064.73,288.03 1064.73,288.18 1067.74,288.18 1067.74,288.32 1070.75,288.32 1070.75,288.44 1073.77,288.44 1073.77,288.54 1076.78,288.54 1076.78,288.63 1079.79,288.63 1079.79,288.7 1082.81,288.7 1082.81,288.76 1085.82,288.76 1085.82,288.79 1088.84,288.79 1088.84,288.82 1091.85,288.82 1091.85,288.82 1094.86,288.82 1094.86,288.81 1097.88,288.81 1097.88,288.78 1100.89,288.78 1100.89,288.74 1103.9,288.74 1103.9,288.67 1106.92,288.67 1106.92,288.6 1109.93,288.6 1109.93,288.5 1112.95,288.5 1112.95,288.39 1115.96,288.39 1115.96,288.26 1118.97,288.26 1118.97,288.12 1121.99,288.12 1121.99,287.96 1125,287.96 1125,560" fill="#004080" stroke="none" stroke-width="0"/>
<polygon points="25,560 25,311.68 28.01,311.68 28.01,311.46 31.03,311.46 31.03,311.23 34.04,311.23 34.04,310.98 37.05,310.98 37.05,310.72 40.07,310.72 40.07,310.44 43.08,310.44 43.08,310.14 46.1,310.14 46.1,309.82 49.11,309.82 49.11,309.49 52.12,309.49 52.12,309.15 55.14,309.15 55.14,308.79 58.15,308.79 58.15,308.41 61.16,308.41 61.16,308.02 64.18,308.02 64.18,307.62 67.19,307.62 67.19,307.2 70.21,307.2 70.21,306.76 73.22,306.76 73.22,306.31 76.23,306.31 76.23,305.85 79.25,305.85 79.25,305.38 82.26,305.38 82.26,304.89 85.27,304.89 85.27,304.39 88.29,304.39 88.29,303.88 91.3,303.88 91.3,303.35 94.32,303.35 94.32,302.82 97.33,302.82 97.33,302.27 100.34,302.27 100.34,301.71 103.36,301.71 103.36,301.14 106.37,301.14 106.37,300.56 109.38,300.56 109.38,299.97 112.4,299.97 112.4,299.37 115.41,299.37 115.41,298.76 118.42,298.76 118.42,298.14 121.44,298.14 121.44,297.51 124.45,297.51 124.45,296.87 127.47,296.87 127.47,296.23 130.48,296.23 130.48,295.57 133.49,295.57 133.49,294.91 136.51,294.91 136.51,294.24 139.52,294.24 139.52,293.56 142.53,293.56 142.53,292.88 145.55,292.88 145.55,292.18 148.56,292.18 148.56,291.48 151.58,291.48 151.58,290.78 154.59,290.78 154.59,290.06 157.6,290.06 157.6,289.35 160.62,289.35 160.62,288.62 163.63,288.62 163.63,287.89 166.64,287.89 166.64,287.15 169.66,287.15 169.66,286.41 172.67,286.41 172.67,285.66 175.68,285.66 175.68,284.91 178.7,284.91 178.7,284.16 181.71,284.16 181.71,283.39 184.73,283.39 184.73,282.63 187.74,282.63 187.74,281.86 190.75,281.86 190.75,281.08 193.77,281.08 193.77,280.3 196.78,280.3 196.78,279.52 199.79,279.52 199.79,278.73 202.81,278.73 202.81,277.94 205.82,277.94 205.82,277.15 208.84,277.15 208.84,276.35 211.85,276.35 211.85,275.55 214.86,275.55 214.86,274.75 217.88,274.75 217.88,273.94 220.89,273.94 220.89,273.14 223.9,273.14 223.9,272.32 226.92,272.32 226.92,271.51 229.93,271.51 229.93,270.69 232.95,270.69 232.95,269.88 235.96,269.88 235.96,269.06 238.97,269.06 238.97,268.23 241.99,268.23 241.99,267.41 245,267.41 245,266.58 248.01,266.58 248.01,265.76 251.03,265.76 251.03,264.93 254.04,264.93 254.04,264.1 257.05,264.1 257.05,263.27 260.07,263.27 260.07,262.43 263.08,262.43 263.08,261.6 266.1,261.6 266.1,260.76 269.11,260.76 269.11,259.93 272.12,259.93 272.12,259.09 275.14,259.09 275.14,258.25 278.15,258.25 278.15,257.41 281.16,257.41 281.16,256.57 284.18,256.57 284.18,255.73 287.19,255.73 287.19,254.89 290.21,254.89 290.21,254.05 293.22,254.05 293.22,253.21 296.23,253.21 296.23,252.37 299.25,252.37 299.25,251.54 302.26,251.54 302.26,250.7 305.27,250.7 305.27,249.86 308.29,249.86 308.29,249.02 311.3,249.02 311.3,248.19 314.32,248.19 314.32,247.35 317.33,247.35 317.33,246.52 320.34,246.52 320.34,245.69 323.36,245.69 323.36,244.86 326.37,244.86 326.37,244.03 329.38,244.03 329.38,243.2 332.4,243.2 332.4,242.38 335.41,242.38 335.41,241.55 338.42,241.55 338.42,240.73 341.44,240.73 341.44,239.92 344.45,239.92 344.45,239.1 347.47,239.1 347.47,238.29 350.48,238.29 350.48,237.48 353.49,237.48 353.49,236.68 356.51,236.68 356.51,235.88 359.52,235.88 359.52,235.08 362.53,235.08 362.53,234.28 365.55,234.28 365.55,233.5 368.56,233.5 368.56,232.71 371.58,232.71 371.58,231.93 374.59,231.93 374.59,231.16 377.6,231.16 377.6,230.39 380.62,230.39 380.62,229.63 383.63,229.63 383.63,228.87 386.64,228.87 386.64,228.12 389.66,228.12 389.66,227.38 392.67,227.38 392.67,226.64 395.68,226.64 395.68,225.91 398.7,225.91 398.7,225.19 401.71,225.19 401.71,224.47 404.73,224.47 404.73,223.77 407.74,223.77 407.74,223.07 410.75,223.07 410.75,222.38 413.77,222.38 413.77,221.71 416.78,221.71 416.78,221.04 419.79,221.04 419.79,220.38 422.81,220.38 422.81,219.73 425.82,219.73 425.82,219.09 428.84,219.09 428.84,218.46 431.85,218.46 431.85,217.85 434.86,217.85 434.86,217.24 437.88,217.24 437.88,216.65 440.89,216.65 440.89,216.07 443.9,216.07 443.9,215.51 446.92,215.51 446.92,214.95 449.93,214.95 449.93,214.41 452.95,214.41 452.95,213.89 455.96,213.89 455.96,213.37 458.97,213.37 458.97,212.88 461.99,212.88 461.99,212.4 465,212.4 465,211.93 468.01,211.93 468.01,211.48 471.03,211.48 471.03,211.04 474.04,211.04 474.04,210.63 477.05,210.63 477.05,210.22 480.07,210.22 480.07,209.84 483.08,209.84 483.08,209.47 486.1,209.47 486.1,209.12 489.11,209.12 489.11,208.79 492.12,208.79 492.12,208.48 495.14,208.48 495.14,208.19 498.15,208.19 498.15,207.91 501.16,207.91 501.16,207.66 504.18,207.66 504.18,207.42 507.19,207.42 507.19,207.2 510.21,207.2 510.21,207 513.22,207 513.22,206.82 516.23,206.82 516.23,206.67 519.25,206.67 519.25,206.53 522.26,206.53 522.26,206.41 525.27,206.41 525.27,206.31 528.29,206.31 528.29,206.23 531.3,206.23 531.3,206.18 534.32,206.18 534.32,206.14 537.33,206.14 537.33,206.12 540.34,206.12 540.34,206.13 543.36,206.13 543.36,206.15 546.37,206.15 546.37,206.2 549.38,206.2 549.38,206.27 552.4,206.27 552.4,206.35 555.41,206.35 555.41,206.46 558.42,206.46 558.42,206.59 561.44,206.59 561.44,206.73 564.45,206.73 564.45,206.9 567.47,206.9 567.47,207.09 570.48,207.09 570.48,207.3 573.49,207.3 573.49,207.52 576.51,207.52 576.51,207.77 579.52,207.77 579.52,208.03 582.53,208.03 582.53,208.31 585.55,208.31 585.55,208.61 588.56,208.61 588.56,208.93 591.58,208.93 591.58,209.27 594.59,209.27 594.59,209.62 597.6,209.62 597.6,210 600.62,210 600.62,210.39 603.63,210.39 603.63,210.79 606.64,210.79 606.64,211.21 609.66,211.21 609.66,211.65 612.67,211.65 612.67,212.1 615.68,212.1 615.68,212.57 618.7,212.57 618.7,213.06 621.71,213.06 621.71,213.56 624.73,213.56 624.73,214.07 627.74,214.07 627.74,214.6 630.75,214.6 630.75,215.14 633.77,215.14 633.77,215.69 636.78,215.69 636.78,216.26 639.79,216.26 639.79,216.84 642.81,216.84 642.81,217.43 645.82,217.43 645.82,218.03 648.84,218.03 648.84,218.64 651.85,218.64 651.85,219.27 654.86,219.27 654.86,219.9 657.88,219.9 657.88,220.55 660.89,220.55 660.89,221.21 663.9,221.21 663.9,221.87 666.92,221.87 666.92,222.55 669.93,222.55 669.93,223.23 672.95,223.23 672.95,223.92 675.96,223.92 675.96,224.62 678.97,224.62 678.97,225.33 681.99,225.33 681.99,226.04 685,226.04 685,226.77 688.01,226.77 688.01,227.49 691.03,227.49 691.03,228.23 694.04,228.23 694.04,228.97 697.05,228.97 697.05,229.72 700.07,229.72 700.07,230.47 703.08,230.47 703.08,231.23 706.1,231.23 706.1,232 709.11,232 709.11,232.77 712.12,232.77 712.12,233.54 715.14,233.54 715.14,234.32 718.15,234.32 718.15,235.1 721.16,235.1 721.16,235.89 724.18,235.89 724.18,236.68 727.19,236.68 727.19,237.48 730.21,237.48 730.21,238.27 733.22,238.27 733.22,239.08 736.23,239.08 736.23,239.88 739.25,239.88 739.25,240.69 742.26,240.69 742.26,241.49 745.27,241.49 745.27,242.31 748.29,242.31 748.29,243.12 751.3,243.12 751.3,243.93 754.32,243.93 754.32,244.75 757.33,244.75 757.33,245.57 760.34,245.57 760.34,246.39 763.36,246.39 763.36,247.21 766.37,247.21 766.37,248.03 769.38,248.03 769.38,248.86 772.4,248.86 772.4,249.68 775.41,249.68 775.41,250.5 778.42,250.5 778.42,251.33 781.44,251.33 781.44,252.16 784.45,252.16 784.45,252.98 787.47,252.98 787.47,253.81 790.48,253.81 790.48,254.63 793.49,254.63 793.49,255.46 796.51,255.46 796.51,256.29 799.52,256.29 799.52,257.11 802.53,257.11 802.53,257.94 805.55,257.94 805.55,258.76 808.56,258.76 808.56,259.59 811.58,259.59 811.58,260.41 814.59,260.41 814.59,261.24 817.6,261.24 817.6,262.06 820.62,262.06 820.62,262.88 823.63,262.88 823.63,263.7 826.64,263.7 826.64,264.52 829.66,264.52 829.66,265.34 832.67,265.34 832.67,266.15 835.68,266.15 835.68,266.97 838.7,266.97 838.7,267.78 841.71,267.78 841.71,268.59 844.73,268.59 844.73,269.4 847.74,269.4 847.74,270.21 850.75,270.21 850.75,271.01 853.77,271.01 853.77,271.82 856.78,271.82 856.78,272.62 859.79,272.62 859.79,273.41 862.81,273.41 862.81,274.21 865.82,274.21 865.82,275 868.84,275 868.84,275.79 871.85,275.79 871.85,276.58 874.86,276.58 874.86,277.36 877.88,277.36 877.88,278.14 880.89,278.14 880.89,278.92 883.9,278.92 883.9,279.7 886.92,279.7 886.92,280.47 889.93,280.47 889.93,281.23 892.95,281.23 892.95,282 895.96,282 895.96,282.76 898.97,282.76 898.97,283.51 901.99,283.51 901.99,284.26 905,284.26 905,285.01 908.01,285.01 908.01,285.75 911.03,285.75 911.03,286.49 914.04,286.49 914.04,287.22 917.05,287.22 917.05,287.94 920.07,287.94 920.07,288.67 923.08,288.67 923.08,289.38 926.1,289.38 926.1,290.09 929.11,290.09 929.11,290.8 932.12,290.8 932.12,291.49 935.14,291.49 935.14,292.18 938.15,292.18 938.15,292.87 941.16,292.87 941.16,293.55 944.18,293.55 944.18,294.22 947.19,294.22 947.19,294.88 950.21,294.88 950.21,295.53 953.22,295.53 953.22,296.18 956.23,296.18 956.23,296.82 959.25,296.82 959.25,297.45 962.26,297.45 962.26,298.08 965.27,298.08 965.27,298.69 968.29,298.69 968.29,299.29 971.3,299.29 971.3,299.89 974.32,299.89 974.32,300.48 977.33,300.48 977.33,301.05 980.34,301.05 980.34,301.62 983.36,301.62 983.36,302.17 986.37,302.17 986.37,302.72 989.38,302.72 989.38,303.25 992.4,303.25 992.4,303.77 995.41,303.77 995.41,304.29 998.42,304.29 998.42,304.78 1001.44,304.78 1001.44,305.27 1004.45,305.27 1004.45,305.74 1007.47,305.74 1007.47,306.21 1010.48,306.21 1010.48,306.65 1013.49,306.65 1013.49,307.09 1016.51,307.09 1016.51,307.51 1019.52,307.51 1019.52,307.92 1022.53,307.92 1022.53,308.31 1025.55,308.31 1025.55,308.69 1028.56,308.69 1028.56,309.05 1031.58,309.05 1031.58,309.4 1034.59,309.4 1034.59,309.73 1037.6,309.73 1037.6,310.05 1040.62,310.05 1040.62,310.35 1043.63,310.35 1043.63,310.63 1046.64,310.63 1046.64,310.9 1049.66,310.9 1049.66,311.15 1052.67,311.15 1052.67,311.39 1055.68,311.39 1055.68,311.61 1058.7,311.61 1058.7,311.81 1061.71,311.81 1061.71,311.99 1064.73,311.99 1064.73,312.16 1067.74,312.16 1067.74,312.31 1070.75,312.31 1070.75,312.44 1073.77,312.44 1073.77,312.56 1076.78,312.56 1076.78,312.65 1079.79,312.65 1079.79,312.73 1082.81,312.73 1082.81,312.79 1085.82,312.79 1085.82,312.83 1088.84,312.83 1088.84,312.86 1091.85,312.86 1091.85,312.86 1094.86,312.86 1094.86,312.85 1097.88,312.85 1097.88,312.82 1100.89,312.82 1100.89,312.77 1103.9,312.77 1103.9,312.7 1106.92,312.7 1106.92,312.61 1109.93,312.61 1109.93,312.51 1112.95,312.51 1112.95,312.39 1115.96,312.39 1115.96,312.25 1118.97,312.25 1118.97,312.09 1121.99,312.09 1121.99,311.92 1125,311.92 1125,560" fill="#0060c0" stroke="none" stroke-width="0"/>
<polygon points="25,560 25,332.91 28.01,332.91 28.01,332.68 31.03,332.68 31.03,332.42 34.04,332.42 34.04,332.15 37.05,332.15 37.05,331.86 40.07,331.86 40.07,331.55 43.08,331.55 43.08,331.23 46.1,331.23 46.1,330.89 49.11,330.89 49.11,330.53 52.12,330.53 52.12,330.15 55.14,330.15 55.14,329.76 58.15,329.76 58.15,329.35 61.16,329.35 61.16,328.92 64.18,328.92 64.18,328.48 67.19,328.48 67.19,328.02 70.21,328.02 70.21,327.55 73.22,327.55 73.22,327.07 76.23,327.07 76.23,326.57 79.25,326.57 79.25,326.05 82.26,326.05 82.26,325.53 85.27,325.53 85.27,324.99 88.29,324.99 88.29,324.43 91.3,324.43 91.3,323.87 94.32,323.87 94.32,323.29 97.33,323.29 97.33,322.7 100.34,322.7 100.34,322.1 103.36,322.1 103.36,321.49 106.37,321.49 106.37,320.87 109.38,320.87 109.38,320.24 112.4,320.24 112.4,319.6 115.41,319.6 115.41,318.94 118.42,318.94 118.42,318.28 121.44,318.28 121.44,317.61 124.45,317.61 124.45,316.94 127.47,316.94 127.47,316.25 130.48,316.25 130.48,315.55 133.49,315.55 133.49,314.85 136.51,314.85 136.51,314.14 139.52,314.14 139.52,313.43 142.53,313.43 142.53,312.7 145.55,312.7 145.55,311.97 148.56,311.97 148.56,311.24 151.58,311.24 151.58,310.5 154.59,310.5 154.59,309.75 157.6,309.75 157.6,309 160.62,309 160.62,308.24 163.63,308.24 163.63,307.48 166.64,307.48 166.64,306.71 169.66,306.71 169.66,305.94 172.67,305.94 172.67,305.16 175.68,305.16 175.68,304.38 178.7,304.38 178.7,303.6 181.71,303.6 181.71,302.81 184.73,302.81 184.73,302.02 187.74,302.02 187.74,301.22 190.75,301.22 190.75,300.42 193.77,300.42 193.77,299.62 196.78,299.62 196.78,298.82 199.79,298.82 199.79,298.01 202.81,298.01 202.81,297.2 205.82,297.2 205.82,296.39 208.84,296.39 208.84,295.58 211.85,295.58 211.85,294.76 214.86,294.76 214.86,293.95 217.88,293.95 217.88,293.13 220.89,293.13 220.89,292.31 223.9,292.31 223.9,291.49 226.92,291.49 226.92,290.67 229.93,290.67 229.93,289.85 232.95,289.85 232.95,289.02 235.96,289.02 235.96,288.2 238.97,288.2 238.97,287.37 241.99,287.37 241.99,286.55 245,286.55 245,285.72 248.01,285.72 248.01,284.9 251.03,284.9 251.03,284.07 254.04,284.07 254.04,283.24 257.05,283.24 257.05,282.42 260.07,282.42 260.07,281.59 263.08,281.59 263.08,280.76 266.1,280.76 266.1,279.94 269.11,279.94 269.11,279.11 272.12,279.11 272.12,278.28 275.14,278.28 275.14,277.46 278.15,277.46 278.15,276.63 281.16,276.63 281.16,275.81 284.18,275.81 284.18,274.99 287.19,274.99 287.19,274.17 290.21,274.17 290.21,273.35 293.22,273.35 293.22,272.53 296.23,272.53 296.23,271.71 299.25,271.71 299.25,270.9 302.26,270.9 302.26,270.09 305.27,270.09 305.27,269.27 308.29,269.27 308.29,268.47 311.3,268.47 311.3,267.66 314.32,267.66 314.32,266.85 317.33,266.85 317.33,266.05 320.34,266.05 320.34,265.25 323.36,265.25 323.36,264.46 326.37,264.46 326.37,263.66 329.38,263.66 329.38,262.87 332.4,262.87 332.4,262.08 335.41,262.08 335.41,261.3 338.42,261.3 338.42,260.52 341.44,260.52 341.44,259.74 344.45,259.74 344.45,258.97 347.47,258.97 347.47,258.2 350.48,258.2 350.48,257.43 353.49,257.43 353.49,256.67 356.51,256.67 356.51,255.92 359.52,255.92 359.52,255.17 362.53,255.17 362.53,254.42 365.55,254.42 365.55,253.68 368.56,253.68 368.56,252.94 371.58,252.94 371.58,252.21 374.59,252.21 374.59,251.49 377.6,251.49 377.6,250.77 380.62,250.77 380.62,250.06 383.63,250.06 383.63,249.35 386.64,249.35 386.64,248.66 389.66,248.66 389.66,247.97 392.67,247.97 392.67,247.28 395.68,247.28 395.68,246.61 398.7,246.61 398.7,245.94 401.71,245.94 401.71,245.28 404.73,245.28 404.73,244.63 407.74,244.63 407.74,243.99 410.75,243.99 410.75,243.35 413.77,243.35 413.77,242.73 416.78,242.73 416.78,242.11 419.79,242.11 419.79,241.51 422.81,241.51 422.81,240.92 425.82,240.92 425.82,240.33 428.84,240.33 428.84,239.76 431.85,239.76 431.85,239.2 434.86,239.2 434.86,238.65 437.88,238.65 437.88,238.11 440.89,238.11 440.89,237.58 443.9,237.58 443.9,237.06 446.92,237.06 446.92,236.56 449.93,236.56 449.93,236.07 452.95,236.07 452.95,235.59 455.96,235.59 455.96,235.13 458.97,235.13 458.97,234.68 461.99,234.68 461.99,234.24 465,234.24 465,233.82 468.01,233.82 468.01,233.42 471.03,233.42 471.03,233.02 474.04,233.02 474.04,232.65 477.05,232.65 477.05,232.29 480.07,232.29 480.07,231.94 483.08,231.94 483.08,231.61 486.1,231.61 486.1,231.3 489.11,231.3 489.11,231 492.12,231 492.12,230.72 495.14,230.72 495.14,230.46 498.15,230.46 498.15,230.21 501.16,230.21 501.16,229.98 504.18,229.98 504.18,229.77 507.19,229.77 507.19,229.57 510.21,229.57 510.21,229.4 513.22,229.4 513.22,229.24 516.23,229.24 516.23,229.1 519.25,229.1 519.25,228.97 522.26,228.97 522.26,228.87 525.27,228.87 525.27,228.78 528.29,228.78 528.29,228.71 531.3,228.71 531.3,228.66 534.32,228.66 534.32,228.63 537.33,228.63 537.33,228.61 540.34,228.61 540.34,228.62 543.36,228.62 543.36,228.64 546.37,228.64 546.37,228.68 549.38,228.68 549.38,228.74 552.4,228.74 552.4,228.82 555.41,228.82 555.41,228.91 558.42,228.91 558.42,229.02 561.44,229.02 561.44,229.16 564.45,229.16 564.45,229.31 567.47,229.31 567.47,229.47 570.48,229.47 570.48,229.66 573.49,229.66 573.49,229.86 576.51,229.86 576.51,230.08 579.52,230.08 579.52,230.32 582.53,230.32 582.53,230.57 585.55,230.57 585.55,230.84 588.56,230.84 588.56,231.13 591.58,231.13 591.58,231.43 594.59,231.43 594.59,231.75 597.6,231.75 597.6,232.08 600.62,232.08 600.62,232.43 603.63,232.43 603.63,232.8 606.64,232.8 606.64,233.18 609.66,233.18 609.66,233.57 612.67,233.57 612.67,233.98 615.68,233.98 615.68,234.41 618.7,234.41 618.7,234.84 621.71,234.84 621.71,235.29 624.73,235.29 624.73,235.76 627.74,235.76 627.74,236.24 630.75,236.24 630.75,236.73 633.77,236.73 633.77,237.23 636.78,237.23 636.78,237.75 639.79,237.75 639.79,238.27 642.81,238.27 642.81,238.81 645.82,238.81 645.82,239.36 648.84,239.36 648.84,239.92 651.85,239.92 651.85,240.49 654.86,240.49 654.86,241.08 657.88,241.08 657.88,241.67 660.89,241.67 660.89,242.27 663.9,242.27 663.9,242.88 666.92,242.88 666.92,243.5 669.93,243.5 669.93,244.13 672.95,244.13 672.95,244.77 675.96,244.77 675.96,245.41 678.97,245.41 678.97,246.07 681.99,246.07 681.99,246.73 685,246.73 685,247.4 688.01,247.4 688.01,248.08 691.03,248.08 691.03,248.76 694.04,248.76 694.04,249.45 697.05,249.45 697.05,250.15 700.07,250.15 700.07,250.85 703.08,250.85 703.08,251.56 706.1,251.56 706.1,252.27 709.11,252.27 709.11,253 712.12,253 712.12,253.72 715.14,253.72 715.14,254.45 718.15,254.45 718.15,255.19 721.16,255.19 721.16,255.93 724.18,255.93 724.18,256.68 727.19,256.68 727.19,257.43 730.21,257.43 730.21,258.18 733.22,258.18 733.22,258.94 736.23,258.94 736.23,259.71 739.25,259.71 739.25,260.47 742.26,260.47 742.26,261.24 745.27,261.24 745.27,262.02 748.29,262.02 748.29,262.79 751.3,262.79 751.3,263.57 754.32,263.57 754.32,264.35 757.33,264.35 757.33,265.14 760.34,265.14 760.34,265.93 763.36,265.93 763.36,266.72 766.37,266.72 766.37,267.51 769.38,267.51 769.38,268.3 772.4,268.3 772.4,269.1 775.41,269.1 775.41,269.9 778.42,269.9 778.42,270.7 781.44,270.7 781.44,271.5 784.45,271.5 784.45,272.3 787.47,272.3 787.47,273.11 790.48,273.11 790.48,273.92 793.49,273.92 793.49,274.72 796.51,274.72 796.51,275.53 799.52,275.53 799.52,276.34 802.53,276.34 802.53,277.15 805.55,277.15 805.55,277.96 808.56,277.96 808.56,278.78 811.58,278.78 811.58,279.59 814.59,279.59 814.59,280.4 817.6,280.4 817.6,281.22 820.62,281.22 820.62,282.03 823.63,282.03 823.63,282.85 826.64,282.85 826.64,283.66 829.66,283.66 829.66,284.48 832.67,284.48 832.67,285.29 835.68,285.29 835.68,286.11 838.7,286.11 838.7,286.92 841.71,286.92 841.71,287.73 844.73,287.73 844.73,288.54 847.74,288.54 847.74,289.36 850.75,289.36 850.75,290.17 853.77,290.17 853.77,290.98 856.78,290.98 856.78,291.79 859.79,291.79 859.79,292.59 862.81,292.59 862.81,293.4 865.82,293.4 865.82,294.21 868.84,294.21 868.84,295.01 871.85,295.01 871.85,295.81 874.86,295.81 874.86,296.61 877.88,296.61 877.88,297.41 880.89,297.41 880.89,298.2 883.9,298.2 883.9,299 886.92,299 886.92,299.79 889.93,299.79 889.93,300.58 892.95,300.58 892.95,301.36 895.96,301.36 895.96,302.15 898.97,302.15 898.97,302.93 901.99,302.93 901.99,303.7 905,303.7 905,304.48 908.01,304.48 908.01,305.25 911.03,305.25 911.03,306.01 914.04,306.01 914.04,306.77 917.05,306.77 917.05,307.53 920.07,307.53 920.07,308.29 923.08,308.29 923.08,309.03 926.1,309.03 926.1,309.78 929.11,309.78 929.11,310.52 932.12,310.52 932.12,311.25 935.14,311.25 935.14,311.97 938.15,311.97 938.15,312.7 941.16,312.7 941.16,313.41 944.18,313.41 944.18,314.12 947.19,314.12 947.19,314.82 950.21,314.82 950.21,315.51 953.22,315.51 953.22,316.2 956.23,316.2 956.23,316.88 959.25,316.88 959.25,317.55 962.26,317.55 962.26,318.21 965.27,318.21 965.27,318.87 968.29,318.87 968.29,319.51 971.3,319.51 971.3,320.15 974.32,320.15 974.32,320.78 977.33,320.78 977.33,321.4 980.34,321.4 980.34,322 983.36,322 983.36,322.6 986.37,322.6 986.37,323.18 989.38,323.18 989.38,323.76 992.4,323.76 992.4,324.32 995.41,324.32 995.41,324.87 998.42,324.87 998.42,325.41 1001.44,325.41 1001.44,325.94 1004.45,325.94 1004.45,326.45 1007.47,326.45 1007.47,326.95 1010.48,326.95 1010.48,327.44 1013.49,327.44 1013.49,327.91 1016.51,327.91 1016.51,328.36 1019.52,328.36 1019.52,328.81 1022.53,328.81 1022.53,329.23 1025.55,329.23 1025.55,329.64 1028.56,329.64 1028.56,330.04 1031.58,330.04 1031.58,330.42 1034.59,330.42 1034.59,330.78 1037.6,330.78 1037.6,331.13 1040.62,331.13 1040.62,331.46 1043.63,331.46 1043.63,331.77 1046.64,331.77 1046.64,332.06 1049.66,332.06 1049.66,332.34 1052.67,332.34 1052.67,332.6 1055.68,332.6 1055.68,332.84 1058.7,332.84 1058.7,333.06 1061.71,333.06 1061.71,333.26 1064.73,333.26 1064.73,333.44 1067.74,333.44 1067.74,333.61 1070.75,333.61 1070.75,333.75 1073.77,333.75 1073.77,333.88 1076.78,333.88 1076.78,333.98 1079.79,333.98 1079.79,334.07 1082.81,334.07 1082.81,334.14 1085.82,334.14 1085.82,334.18 1088.84,334.18 1088.84,334.21 1091.85,334.21 1091.85,334.21 1094.86,334.21 1094.86,334.2 1097.88,334.2 1097.88,334.16 1100.89,334.16 1100.89,334.11 1103.9,334.11 1103.9,334.04 1106.92,334.04 1106.92,333.94 1109.93,333.94 1109.93,333.83 1112.95,333.83 1112.95,333.69 1115.96,333.69 1115.96,333.54 1118.97,333.54 1118.97,333.37 1121.99,333.37 1121.99,333.18 1125,333.18 1125,560" fill="#80c0ff" stroke="none" stroke-width="0"/>
<line x1="261.58" y1="10" x2="261.58" y2="560" stroke="#00c000" stroke-width="1"/>
<line x1="538.84" y1="10" x2="538.84" y2="560" stroke="#00c000" stroke-width="1"/>
<line x1="822.12" y1="10" x2="822.12" y2="560" stroke="#00c000" stroke-width="1"/>
<line x1="1093.36" y1="10" x2="1093.36" y2="560" stroke="#00c000" stroke-width="1"/>
<text x="20" y="560" font-family="Arial" font-size="11pt" text-anchor="end" alignment-baseline="middle" fill="#000000">0</text>
<line x1="25" y1="560" x2="1125" y2="560" stroke="#808080" stroke-width="0.5"/>
<text x="20" y="514.17" font-family="Arial" font-size="11pt" text-anchor="end" alignment-baseline="middle" fill="#000000">2</text>
<line x1="25" y1="514.17" x2="1125" y2="514.17" stroke="#808080" stroke-width="0.5"/>
<text x="20" y="468.33" font-family="Arial" font-size="11pt" text-anchor="end" alignment-baseline="middle" fill="#000000">4</text>
<line x1="25" y1="468.33" x2="1125" y2="468.33" stroke="#808080" stroke-width="0.5"/>
<text x="20" y="422.5" font-family="Arial" font-size="11pt" text-anchor="end" alignment-baseline="middle" fill="#000000">6</text>
<line x1="25" y1="422.5" x2="1125" y2="422.5" stroke="#808080" stroke-width="0.5"/>
<text x="20" y="376.67" font-family="Arial" font-size="11pt" text-anchor="end" alignment-baseline="middle" fill="#000000">8</text>
<line x1="25" y1="376.67" x2="1125" y2="376.67" stroke="#808080" stroke-width="0.5"/>
<text x="20" y="330.83" font-family="Arial" font-size="11pt" text-anchor="end" alignment-baseline="middle" fill="#000000">10</text>
<line x1="25" y1="330.83" x2="1125" y2="330.83" stroke="#808080" stroke-width="0.5"/>
<text x="20" y="285" font-family="Arial" font-size="11pt" text-anchor="end" alignment-baseline="middle" fill="#000000">12</text>
<line x1="25" y1="285" x2="1125" y2="285" stroke="#808080" stroke-width="0.5"/>
<text x="20" y="239.17" font-family="Arial" font-size="11pt" text-anchor="end" alignment-baseline="middle" fill="#000000">14</text>
<line x1="25" y1="239.17" x2="1125" y2="239.17" stroke="#808080" stroke-width="0.5"/>
<text x="20" y="193.33" font-family="Arial" font-size="11pt" text-anchor="end" alignment-baseline="middle" fill="#000000">16</text>
<line x1="25" y1="193.33" x2="1125" y2="193.33" stroke="#808080" stroke-width="0.5"/>
<text x="20" y="147.5" font-family="Arial" font-size="11pt" text-anchor="end" alignment-baseline="middle" fill="#000000">18</text>
<line x1="25" y1="147.5" x2="1125" y2="147.5" stroke="#808080" stroke-width="0.5"/>
<text x="20" y="101.67" font-family="Arial" font-size="11pt" text-anchor="end" alignment-baseline="middle" fill="#000000">20</text>
<line x1="25" y1="101.67" x2="1125" y2="101.67" stroke="#808080" stroke-width="0.5"/>
<text x="20" y="55.83" font-family="Arial" font-size="11pt" text-anchor="end" alignment-baseline="middle" fill="#000000">22</text>
<line x1="25" y1="55.83" x2="1125" y2="55.83" stroke="#808080" stroke-width="0.5"/>
<text x="20" y="10" font-family="Arial" font-size="11pt" text-anchor="end" alignment-baseline="middle" fill="#000000">24</text>
<line x1="25" y1="10" x2="1125" y2="10" stroke="#808080" stroke-width="0.5"/>
<text x="71.71" y="572" font-family="Arial" font-size="11pt" text-anchor="middle" alignment-baseline="middle" fill="#000000">Jan</text>
<line x1="25" y1="10" x2="25" y2="560" stroke="#808080" stroke-width="0.5"/>
<text x="160.62" y="572" font-family="Arial" font-size="11pt" text-anchor="middle" alignment-baseline="middle" fill="#000000">Feb</text>
<line x1="118.42" y1="10" x2="118.42" y2="560" stroke="#808080" stroke-width="0.5"/>
<text x="249.52" y="572" font-family="Arial" font-size="11pt" text-anchor="middle" alignment-baseline="middle" fill="#000000">Mar</text>
<line x1="202.81" y1="10" x2="202.81" y2="560" stroke="#808080" stroke-width="0.5"/>
<text x="341.44" y="572" font-family="Arial" font-size="11pt" text-anchor="middle" alignment-baseline="middle" fill="#000000">Apr</text>
<line x1="296.23" y1="10" x2="296.23" y2="560" stroke="#808080" stroke-width="0.5"/>
<text x="433.36" y="572" font-family="Arial" font-size="11pt" text-anchor="middle" alignment-baseline="middle" fill="#000000">May</text>
<line x1="386.64" y1="10" x2="386.64" y2="560" stroke="#808080" stroke-width="0.5"/>
<text x="525.27" y="572" font-family="Arial" font-size="11pt" text-anchor="middle" alignment-baseline="middle" fill="#000000">Jun</text>
<line x1="480.07" y1="10" x2="480.07" y2="560" stroke="#808080" stroke-width="0.5"/>
<text x="617.19" y="572" font-family="Arial" font-size="11pt" text-anchor="middle" alignment-baseline="middle" fill="#000000">Jul</text>
<line x1="570.48" y1="10" x2="570.48" y2="560" stroke="#808080" stroke-width="0.5"/>
<text x="710.62" y="572" font-family="Arial" font-size="11pt" text-anchor="middle" alignment-baseline="middle" fill="#000000">Aug</text>
<line x1="663.9" y1="10" x2="663.9" y2="560" stroke="#808080" stroke-width="0.5"/>
<text x="802.53" y="572" font-family="Arial" font-size="11pt" text-anchor="middle" alignment-baseline="middle" fill="#000000">Sep</text>
<line x1="757.33" y1="10" x2="757.33" y2="560" stroke="#808080" stroke-width="0.5"/>
<text x="894.45" y="572" font-family="Arial" font-size="11pt" text-anchor="middle" alignment-baseline="middle" fill="#000000">Oct</text>
<line x1="847.74" y1="10" x2="847.74" y2="560" stroke="#808080" stroke-width="0.5"/>
<text x="986.37" y="572" font-family="Arial" font-size="11pt" text-anchor="middle" alignment-baseline="middle" fill="#000000">Nov</text>
<line x1="941.16" y1="10" x2="941.16" y2="560" stroke="#808080" stroke-width="0.5"/>
<text x="1078.29" y="572" font-family="Arial" font-size="11pt" text-anchor="middle" alignment-baseline="middle" fill="#000000">Dec</text>
<line x1="1031.58" y1="10" x2="1031.58" y2="560" stroke="#808080" stroke-width="0.5"/>
<line x1="1125" y1="10" x2="1125" y2="560" stroke="#808080" stroke-width="0.5"/>
</svg>