<svg xmlns="http://www.w3.org/2000/svg" width="1135" height="585" viewBox="0 0 1135 585">
<rect x="0" y="0" width="1135" height="585" fill="#ffffff" stroke="none" stroke-width="0"/>
<rect x="25" y="10" width="1100" height="550" fill="#000000" stroke="none" stroke-width="0"/>
<polygon points="25,431.54 25,135.94 28.01,135.94 28.01,135.67 31.03,135.67 31.03,135.4 34.04,135.4 34.04,135.12 37.05,135.12 37.05,134.83 40.07,134.83 40.07,134.54 43.08,134.54 43.08,134.25 46.1,134.25 46.1,133.96 49.11,133.96 49.11,133.66 52.12,133.66 52.12,133.36 55.14,133.36 55.14,133.05 58.15,133.05 58.15,132.74 61.16,132.74 61.16,132.43 64.18,132.43 64.18,132.12 67.19,132.12 67.19,131.8 70.21,131.8 70.21,131.49 73.22,131.49 73.22,131.17 76.23,131.17 76.23,130.85 79.25,130.85 79.25,130.52 82.26,130.52 82.26,130.2 85.27,130.2 85.27,129.87 88.29,129.87 88.29,129.55 91.3,129.55 91.3,129.22 94.32,129.22 94.32,128.89 97.33,128.89 97.33,128.56 100.34,128.56 100.34,128.23 103.36,128.23 103.36,127.9 106.37,127.9 106.37,127.57 109.38,127.57 109.38,127.24 112.4,127.24 112.4,126.91 115.41,126.91 115.41,126.58 118.42,126.58 118.42,126.25 121.44,126.25 121.44,125.92 124.45,125.92 124.45,125.59 127.47,125.59 127.47,125.26 130.48,125.26 130.48,124.93 133.49,124.93 133.49,124.6 136.51,124.6 136.51,124.28 139.52,124.28 139.52,123.95 142.53,123.95 142.53,123.62 145.55,123.62 145.55,123.3 148.56,123.3 148.56,122.97 151.58,122.97 151.58,122.65 154.59,122.65 154.59,122.32 157.6,122.32 157.6,122 160.62,122 160.62,121.68 163.63,121.68 163.63,121.36 166.64,121.36 166.64,121.03 169.66,121.03 169.66,120.71 172.67,120.71 172.67,120.39 175.68,120.39 175.68,120.07 178.7,120.07 178.7,119.75 181.71,119.75 181.71,119.43 184.73,119.43 184.73,119.11 187.74,119.11 187.74,118.79 190.75,118.79 190.75,118.47 193.77,118.47 193.77,118.15 196.78,118.15 196.78,117.83 199.79,117.83 199.79,117.51 202.81,117.51 202.81,117.19 205.82,117.19 205.82,116.87 208.84,116.87 208.84,116.56 211.85,116.56 211.85,116.24 214.86,116.24 214.86,115.92 217.88,115.92 217.88,115.6 220.89,115.6 220.89,115.28 223.9,115.28 223.9,114.96 226.92,114.96 226.92,91.72 229.93,91.72 229.93,91.4 232.95,91.4 232.95,91.07 235.96,91.07 235.96,90.75 238.97,90.75 238.97,90.43 241.99,90.43 241.99,90.1 245,90.1 245,89.78 248.01,89.78 248.01,89.45 251.03,89.45 251.03,89.12 254.04,89.12 254.04,88.79 257.05,88.79 257.05,88.46 260.07,88.46 260.07,88.12 263.08,88.12 263.08,87.79 266.1,87.79 266.1,87.45 269.11,87.45 269.11,87.11 272.12,87.11 272.12,86.77 275.14,86.77 275.14,86.43 278.15,86.43 278.15,86.08 281.16,86.08 281.16,85.73 284.18,85.73 284.18,85.38 287.19,85.38 287.19,85.03 290.21,85.03 290.21,84.68 293.22,84.68 293.22,84.32 296.23,84.32 296.23,83.96 299.25,83.96 299.25,83.6 302.26,83.6 302.26,83.24 305.27,83.24 305.27,82.87 308.29,82.87 308.29,82.5 311.3,82.5 311.3,82.13 314.32,82.13 314.32,81.76 317.33,81.76 317.33,81.38 320.34,81.38 320.34,81.01 323.36,81.01 323.36,80.62 326.37,80.62 326.37,80.24 329.38,80.24 329.38,79.85 332.4,79.85 332.4,79.46 335.41,79.46 335.41,79.07 338.42,79.07 338.42,78.68 341.44,78.68 341.44,78.28 344.45,78.28 344.45,77.88 347.47,77.88 347.47,77.48 350.48,77.48 350.48,77.07 353.49,77.07 353.49,76.66 356.51,76.66 356.51,76.25 359.52,76.25 359.52,75.84 362.53,75.84 362.53,75.43 365.55,75.43 365.55,75.01 368.56,75.01 368.56,74.59 371.58,74.59 371.58,74.17 374.59,74.17 374.59,73.74 377.6,73.74 377.6,73.32 380.62,73.32 380.62,72.89 383.63,72.89 383.63,72.46 386.64,72.46 386.64,72.04 389.66,72.04 389.66,71.61 392.67,71.61 392.67,71.17 395.68,71.17 395.68,70.74 398.7,70.74 398.7,70.31 401.71,70.31 401.71,69.88 404.73,69.88 404.73,69.45 407.74,69.45 407.74,69.02 410.75,69.02 410.75,68.59 413.77,68.59 413.77,68.16 416.78,68.16 416.78,67.73 419.79,67.73 419.79,67.31 422.81,67.31 422.81,66.88 425.82,66.88 425.82,66.46 428.84,66.46 428.84,66.04 431.85,66.04 431.85,65.62 434.86,65.62 434.86,65.21 437.88,65.21 437.88,64.8 440.89,64.8 440.89,64.39 443.9,64.39 443.9,63.98 446.92,63.98 446.92,63.58 449.93,63.58 449.93,63.19 452.95,63.19 452.95,62.8 455.96,62.8 455.96,62.41 458.97,62.41 458.97,62.03 461.99,62.03 461.99,61.66 465,61.66 465,61.3 468.01,61.3 468.01,60.94 471.03,60.94 471.03,60.59 474.04,60.59 474.04,60.25 477.05,60.25 477.05,59.91 480.07,59.91 480.07,59.59 483.08,59.59 483.08,59.27 486.1,59.27 486.1,58.97 489.11,58.97 489.11,58.67 492.12,58.67 492.12,58.39 495.14,58.39 495.14,58.11 498.15,58.11 498.15,57.85 501.16,57.85 501.16,57.6 504.18,57.6 504.18,57.36 507.19,57.36 507.19,57.13 510.21,57.13 510.21,56.92 513.22,56.92 513.22,56.72 516.23,56.72 516.23,56.53 519.25,56.53 519.25,56.36 522.26,56.36 522.26,56.19 525.27,56.19 525.27,56.05 528.29,56.05 528.29,55.91 531.3,55.91 531.3,55.79 534.32,55.79 534.32,55.69 537.33,55.69 537.33,55.6 540.34,55.6 540.34,55.53 543.36,55.53 543.36,55.47 546.37,55.47 546.37,55.42 549.38,55.42 549.38,55.39 552.4,55.39 552.4,55.38 555.41,55.38 555.41,55.38 558.42,55.38 558.42,55.4 561.44,55.4 561.44,55.43 564.45,55.43 564.45,55.48 567.47,55.48 567.47,55.54 570.48,55.54 570.48,55.62 573.49,55.62 573.49,55.71 576.51,55.71 576.51,55.82 579.52,55.82 579.52,55.95 582.53,55.95 582.53,56.09 585.55,56.09 585.55,56.24 588.56,56.24 588.56,56.41 591.58,56.41 591.58,56.6 594.59,56.6 594.59,56.79 597.6,56.79 597.6,57.01 600.62,57.01 600.62,57.23 603.63,57.23 603.63,57.47 606.64,57.47 606.64,57.73 609.66,57.73 609.66,57.99 612.67,57.99 612.67,58.27 615.68,58.27 615.68,58.57 618.7,58.57 618.7,58.87 621.71,58.87 621.71,59.19 624.73,59.19 624.73,59.52 627.74,59.52 627.74,59.86 630.75,59.86 630.75,60.21 633.77,60.21 633.77,60.58 636.78,60.58 636.78,60.95 639.79,60.95 639.79,61.34 642.81,61.34 642.81,61.73 645.82,61.73 645.82,62.14 648.84,62.14 648.84,62.56 651.85,62.56 651.85,62.98 654.86,62.98 654.86,63.42 657.88,63.42 657.88,63.86 660.89,63.86 660.89,64.32 663.9,64.32 663.9,64.78 666.92,64.78 666.92,65.25 669.93,65.25 669.93,65.72 672.95,65.72 672.95,66.21 675.96,66.21 675.96,66.7 678.97,66.7 678.97,67.2 681.99,67.2 681.99,67.71 685,67.71 685,68.22 688.01,68.22 688.01,68.74 691.03,68.74 691.03,69.27 694.04,69.27 694.04,69.8 697.05,69.8 697.05,70.34 700.07,70.34 700.07,70.88 703.08,70.88 703.08,71.43 706.1,71.43 706.1,71.98 709.11,71.98 709.11,72.53 712.12,72.53 712.12,73.09 715.14,73.09 715.14,73.66 718.15,73.66 718.15,74.22 721.16,74.22 721.16,74.8 724.18,74.8 724.18,75.37 727.19,75.37 727.19,75.95 730.21,75.95 730.21,76.53 733.22,76.53 733.22,77.11 736.23,77.11 736.23,77.7 739.25,77.7 739.25,78.28 742.26,78.28 742.26,78.87 745.27,78.87 745.27,79.47 748.29,79.47 748.29,80.06 751.3,80.06 751.3,80.65 754.32,80.65 754.32,81.25 757.33,81.25 757.33,81.85 760.34,81.85 760.34,82.45 763.36,82.45 763.36,83.04 766.37,83.04 766.37,83.64 769.38,83.64 769.38,84.24 772.4,84.24 772.4,84.84 775.41,84.84 775.41,85.44 778.42,85.44 778.42,86.04 781.44,86.04 781.44,86.64 784.45,86.64 784.45,87.23 787.47,87.23 787.47,87.83 790.48,87.83 790.48,88.43 793.49,88.43 793.49,89.02 796.51,89.02 796.51,89.61 799.52,89.61 799.52,90.2 802.53,90.2 802.53,90.79 805.55,90.79 805.55,91.38 808.56,91.38 808.56,91.96 811.58,91.96 811.58,92.54 814.59,92.54 814.59,93.12 817.6,93.12 817.6,93.7 820.62,93.7 820.62,94.27 823.63,94.27 823.63,94.84 826.64,94.84 826.64,95.41 829.66,95.41 829.66,95.97 832.67,95.97 832.67,96.53 835.68,96.53 835.68,97.09 838.7,97.09 838.7,97.64 841.71,97.64 841.71,98.19 844.73,98.19 844.73,98.73 847.74,98.73 847.74,99.27 850.75,99.27 850.75,99.81 853.77,99.81 853.77,100.34 856.78,100.34 856.78,100.86 859.79,100.86 859.79,101.38 862.81,101.38 862.81,101.9 865.82,101.9 865.82,102.41 868.84,102.41 868.84,102.91 871.85,102.91 871.85,103.41 874.86,103.41 874.86,103.9 877.88,103.9 877.88,104.39 880.89,104.39 880.89,104.87 883.9,104.87 883.9,105.34 886.92,105.34 886.92,105.8 889.93,105.8 889.93,106.26 892.95,106.26 892.95,106.72 895.96,106.72 895.96,107.16 898.97,107.16 898.97,107.6 901.99,107.6 901.99,108.03 905,108.03 905,108.45 908.01,108.45 908.01,108.87 911.03,108.87 911.03,109.27 914.04,109.27 914.04,109.67 917.05,109.67 917.05,110.07 920.07,110.07 920.07,110.45 923.08,110.45 923.08,110.82 926.1,110.82 926.1,111.19 929.11,111.19 929.11,111.54 932.12,111.54 932.12,111.89 935.14,111.89 935.14,112.23 938.15,112.23 938.15,112.56 941.16,112.56 941.16,112.88 944.18,112.88 944.18,136.11 947.19,136.11 947.19,136.41 950.21,136.41 950.21,136.71 953.22,136.71 953.22,136.99 956.23,136.99 956.23,137.26 959.25,137.26 959.25,137.52 962.26,137.52 962.26,137.78 965.27,137.78 965.27,138.02 968.29,138.02 968.29,138.25 971.3,138.25 971.3,138.47 974.32,138.47 974.32,138.68 977.33,138.68 977.33,138.88 980.34,138.88 980.34,139.07 983.36,139.07 983.36,139.25 986.37,139.25 986.37,139.42 989.38,139.42 989.38,139.57 992.4,139.57 992.4,139.72 995.41,139.72 995.41,139.85 998.42,139.85 998.42,139.98 1001.44,139.98 1001.44,140.09 1004.45,140.09 1004.45,140.19 1007.47,140.19 1007.47,140.28 1010.48,140.28 1010.48,140.36 1013.49,140.36 1013.49,140.43 1016.51,140.43 1016.51,140.49 1019.52,140.49 1019.52,140.54 1022.53,140.54 1022.53,140.57 1025.55,140.57 1025.55,140.6 1028.56,140.6 1028.56,140.61 1031.58,140.61 1031.58,140.62 1034.59,140.62 1034.59,140.61 1037.6,140.61 1037.6,140.59 1040.62,140.59 1040.62,140.56 1043.63,140.56 1043.63,140.52 1046.64,140.52 1046.64,140.47 1049.66,140.47 1049.66,140.41 1052.67,140.41 1052.67,140.34 1055.68,140.34 1055.68,140.26 1058.7,140.26 1058.7,140.17 1061.71,140.17 1061.71,140.07 1064.73,140.07 1064.73,139.96 1067.74,139.96 1067.74,139.84 1070.75,139.84 1070.75,139.71 1073.77,139.71 1073.77,139.57 1076.78,139.57 1076.78,139.43 1079.79,139.43 1079.79,139.27 1082.81,139.27 1082.81,139.1 1085.82,139.1 1085.82,138.93 1088.84,138.93 1088.84,138.75 1091.85,138.75 1091.85,138.56 1094.86,138.56 1094.86,138.36 1097.88,138.36 1097.88,138.15 1100.89,138.15 1100.89,137.94 1103.9,137.94 1103.9,137.72 1106.92,137.72 1106.92,137.49 1109.93,137.49 1109.93,137.26 1112.95,137.26 1112.95,137.02 1115.96,137.02 1115.96,136.78 1118.97,136.78 1118.97,136.52 1121.99,136.52 1121.99,136.27 1125,136.27 1125,431.67 1121.99,431.67 1121.99,431.78 1118.97,431.78 1118.97,431.9 1115.96,431.9 1115.96,432.02 1112.95,432.02 1112.95,432.16 1109.93,432.16 1109.93,432.31 1106.92,432.31 1106.92,432.46 1103.9,432.46 1103.9,432.63 1100.89,432.63 1100.89,432.8 1097.88,432.8 1097.88,432.98 1094.86,432.98 1094.86,433.16 1091.85,433.16 1091.85,433.36 1088.84,433.36 1088.84,433.56 1085.82,433.56 1085.82,433.77 1082.81,433.77 1082.81,433.98 1079.79,433.98 1079.79,434.21 1076.78,434.21 1076.78,434.43 1073.77,434.43 1073.77,434.67 1070.75,434.67 1070.75,434.91 1067.74,434.91 1067.74,435.15 1064.73,435.15 1064.73,435.4 1061.71,435.4 1061.71,435.66 1058.7,435.66 1058.7,435.92 1055.68,435.92 1055.68,436.19 1052.67,436.19 1052.67,436.45 1049.66,436.45 1049.66,436.73 1046.64,436.73 1046.64,437 1043.63,437 1043.63,437.28 1040.62,437.28 1040.62,437.57 1037.6,437.57 1037.6,437.86 1034.59,437.86 1034.59,438.15 1031.58,438.15 1031.58,438.44 1028.56,438.44 1028.56,438.73 1025.55,438.73 1025.55,439.03 1022.53,439.03 1022.53,439.33 1019.52,439.33 1019.52,439.64 1016.51,439.64 1016.51,439.94 1013.49,439.94 1013.49,440.25 1010.48,440.25 1010.48,440.55 1007.47,440.55 1007.47,440.86 1004.45,440.86 1004.45,441.17 1001.44,441.17 1001.44,441.48 998.42,441.48 998.42,441.8 995.41,441.8 995.41,442.11 992.4,442.11 992.4,442.42 989.38,442.42 989.38,442.73 986.37,442.73 986.37,443.05 983.36,443.05 983.36,443.36 980.34,443.36 980.34,443.67 977.33,443.67 977.33,443.98 974.32,443.98 974.32,444.3 971.3,444.3 971.3,444.61 968.29,444.61 968.29,444.92 965.27,444.92 965.27,445.23 962.26,445.23 962.26,445.54 959.25,445.54 959.25,445.85 956.23,445.85 956.23,446.16 953.22,446.16 953.22,446.46 950.21,446.46 950.21,446.77 947.19,446.77 947.19,447.08 944.18,447.08 944.18,424.46 941.16,424.46 941.16,424.77 938.15,424.77 938.15,425.07 935.14,425.07 935.14,425.38 932.12,425.38 932.12,425.68 929.11,425.68 929.11,425.98 926.1,425.98 926.1,426.28 923.08,426.28 923.08,426.58 920.07,426.58 920.07,426.88 917.05,426.88 917.05,427.18 914.04,427.18 914.04,427.48 911.03,427.48 911.03,427.78 908.01,427.78 908.01,428.07 905,428.07 905,428.37 901.99,428.37 901.99,428.66 898.97,428.66 898.97,428.96 895.96,428.96 895.96,429.25 892.95,429.25 892.95,429.55 889.93,429.55 889.93,429.84 886.92,429.84 886.92,430.13 883.9,430.13 883.9,430.42 880.89,430.42 880.89,430.72 877.88,430.72 877.88,431.01 874.86,431.01 874.86,431.3 871.85,431.3 871.85,431.59 868.84,431.59 868.84,431.88 865.82,431.88 865.82,432.18 862.81,432.18 862.81,432.47 859.79,432.47 859.79,432.76 856.78,432.76 856.78,433.05 853.77,433.05 853.77,433.35 850.75,433.35 850.75,433.64 847.74,433.64 847.74,433.94 844.73,433.94 844.73,434.23 841.71,434.23 841.71,434.53 838.7,434.53 838.7,434.83 835.68,434.83 835.68,435.13 832.67,435.13 832.67,435.43 829.66,435.43 829.66,435.73 826.64,435.73 826.64,436.04 823.63,436.04 823.63,436.34 820.62,436.34 820.62,436.65 817.6,436.65 817.6,436.96 814.59,436.96 814.59,437.27 811.58,437.27 811.58,437.58 808.56,437.58 808.56,437.9 805.55,437.9 805.55,438.21 802.53,438.21 802.53,438.53 799.52,438.53 799.52,438.85 796.51,438.85 796.51,439.17 793.49,439.17 793.49,439.49 790.48,439.49 790.48,439.82 787.47,439.82 787.47,440.15 784.45,440.15 784.45,440.48 781.44,440.48 781.44,440.81 778.42,440.81 778.42,441.15 775.41,441.15 775.41,441.48 772.4,441.48 772.4,441.83 769.38,441.83 769.38,442.17 766.37,442.17 766.37,442.51 763.36,442.51 763.36,442.86 760.34,442.86 760.34,443.22 757.33,443.22 757.33,443.57 754.32,443.57 754.32,443.93 751.3,443.93 751.3,444.29 748.29,444.29 748.29,444.65 745.27,444.65 745.27,445.02 742.26,445.02 742.26,445.39 739.25,445.39 739.25,445.76 736.23,445.76 736.23,446.14 733.22,446.14 733.22,446.52 730.21,446.52 730.21,446.9 727.19,446.9 727.19,447.28 724.18,447.28 724.18,447.67 721.16,447.67 721.16,448.05 718.15,448.05 718.15,448.44 715.14,448.44 715.14,448.84 712.12,448.84 712.12,449.23 709.11,449.23 709.11,449.63 706.1,449.63 706.1,450.03 703.08,450.03 703.08,450.43 700.07,450.43 700.07,450.83 697.05,450.83 697.05,451.23 694.04,451.23 694.04,451.64 691.03,451.64 691.03,452.05 688.01,452.05 688.01,452.45 685,452.45 685,452.86 681.99,452.86 681.99,453.27 678.97,453.27 678.97,453.68 675.96,453.68 675.96,454.09 672.95,454.09 672.95,454.5 669.93,454.5 669.93,454.91 666.92,454.91 666.92,455.32 663.9,455.32 663.9,455.73 660.89,455.73 660.89,456.14 657.88,456.14 657.88,456.55 654.86,456.55 654.86,456.96 651.85,456.96 651.85,457.36 648.84,457.36 648.84,457.77 645.82,457.77 645.82,458.17 642.81,458.17 642.81,458.56 639.79,458.56 639.79,458.96 636.78,458.96 636.78,459.35 633.77,459.35 633.77,459.74 630.75,459.74 630.75,460.12 627.74,460.12 627.74,460.5 624.73,460.5 624.73,460.87 621.71,460.87 621.71,461.24 618.7,461.24 618.7,461.6 615.68,461.6 615.68,461.96 612.67,461.96 612.67,462.3 609.66,462.3 609.66,462.65 606.64,462.65 606.64,462.98 603.63,462.98 603.63,463.31 600.62,463.31 600.62,463.62 597.6,463.62 597.6,463.93 594.59,463.93 594.59,464.23 591.58,464.23 591.58,464.52 588.56,464.52 588.56,464.81 585.55,464.81 585.55,465.08 582.53,465.08 582.53,465.34 579.52,465.34 579.52,465.59 576.51,465.59 576.51,465.83 573.49,465.83 573.49,466.06 570.48,466.06 570.48,466.27 567.47,466.27 567.47,466.48 564.45,466.48 564.45,466.67 561.44,466.67 561.44,466.85 558.42,466.85 558.42,467.01 555.41,467.01 555.41,467.17 552.4,467.17 552.4,467.3 549.38,467.3 549.38,467.43 546.37,467.43 546.37,467.54 543.36,467.54 543.36,467.63 540.34,467.63 540.34,467.72 537.33,467.72 537.33,467.78 534.32,467.78 534.32,467.84 531.3,467.84 531.3,467.87 528.29,467.87 528.29,467.89 525.27,467.89 525.27,467.9 522.26,467.9 522.26,467.89 519.25,467.89 519.25,467.87 516.23,467.87 516.23,467.83 513.22,467.83 513.22,467.78 510.21,467.78 510.21,467.71 507.19,467.71 507.19,467.62 504.18,467.62 504.18,467.52 501.16,467.52 501.16,467.41 498.15,467.41 498.15,467.28 495.14,467.28 495.14,467.14 492.12,467.14 492.12,466.98 489.11,466.98 489.11,466.81 486.1,466.81 486.1,466.62 483.08,466.62 483.08,466.42 480.07,466.42 480.07,466.21 477.05,466.21 477.05,465.98 474.04,465.98 474.04,465.74 471.03,465.74 471.03,465.49 468.01,465.49 468.01,465.22 465,465.22 465,464.94 461.99,464.94 461.99,464.65 458.97,464.65 458.97,464.34 455.96,464.34 455.96,464.02 452.95,464.02 452.95,463.7 449.93,463.7 449.93,463.36 446.92,463.36 446.92,463 443.9,463 443.9,462.64 440.89,462.64 440.89,462.27 437.88,462.27 437.88,461.88 434.86,461.88 434.86,461.49 431.85,461.49 431.85,461.08 428.84,461.08 428.84,460.67 425.82,460.67 425.82,460.25 422.81,460.25 422.81,459.81 419.79,459.81 419.79,459.37 416.78,459.37 416.78,458.92 413.77,458.92 413.77,458.47 410.75,458.47 410.75,458 407.74,458 407.74,457.53 404.73,457.53 404.73,457.05 401.71,457.05 401.71,456.56 398.7,456.56 398.7,456.06 395.68,456.06 395.68,455.56 392.67,455.56 392.67,455.06 389.66,455.06 389.66,454.54 386.64,454.54 386.64,454.03 383.63,454.03 383.63,453.5 380.62,453.5 380.62,452.97 377.6,452.97 377.6,452.44 374.59,452.44 374.59,451.9 371.58,451.9 371.58,451.36 368.56,451.36 368.56,450.81 365.55,450.81 365.55,450.26 362.53,450.26 362.53,449.7 359.52,449.7 359.52,449.14 356.51,449.14 356.51,448.58 353.49,448.58 353.49,448.01 350.48,448.01 350.48,447.45 347.47,447.45 347.47,446.87 344.45,446.87 344.45,446.3 341.44,446.3 341.44,445.73 338.42,445.73 338.42,445.15 335.41,445.15 335.41,444.57 332.4,444.57 332.4,443.99 329.38,443.99 329.38,443.4 326.37,443.4 326.37,442.82 323.36,442.82 323.36,442.24 320.34,442.24 320.34,441.65 317.33,441.65 317.33,441.07 314.32,441.07 314.32,440.48 311.3,440.48 311.3,439.9 308.29,439.9 308.29,439.31 305.27,439.31 305.27,438.73 302.26,438.73 302.26,438.14 299.25,438.14 299.25,437.56 296.23,437.56 296.23,436.98 293.22,436.98 293.22,436.39 290.21,436.39 290.21,435.81 287.19,435.81 287.19,435.24 284.18,435.24 284.18,434.66 281.16,434.66 281.16,434.08 278.15,434.08 278.15,433.51 275.14,433.51 275.14,432.94 272.12,432.94 272.12,432.37 269.11,432.37 269.11,431.8 266.1,431.8 266.1,431.24 263.08,431.24 263.08,430.68 260.07,430.68 260.07,430.12 257.05,430.12 257.05,429.57 254.04,429.57 254.04,429.02 251.03,429.02 251.03,428.47 248.01,428.47 248.01,427.92 245,427.92 245,427.38 241.99,427.38 241.99,426.85 238.97,426.85 238.97,426.32 235.96,426.32 235.96,425.79 232.95,425.79 232.95,425.27 229.93,425.27 229.93,424.75 226.92,424.75 226.92,447.16 223.9,447.16 223.9,446.65 220.89,446.65 220.89,446.15 217.88,446.15 217.88,445.65 214.86,445.65 214.86,445.16 211.85,445.16 211.85,444.68 208.84,444.68 208.84,444.2 205.82,444.2 205.82,443.73 202.81,443.73 202.81,443.26 199.79,443.26 199.79,442.8 196.78,442.8 196.78,442.35 193.77,442.35 193.77,441.9 190.75,441.9 190.75,441.47 187.74,441.47 187.74,441.03 184.73,441.03 184.73,440.61 181.71,440.61 181.71,440.19 178.7,440.19 178.7,439.78 175.68,439.78 175.68,439.38 172.67,439.38 172.67,438.99 169.66,438.99 169.66,438.6 166.64,438.6 166.64,438.23 163.63,438.23 163.63,437.86 160.62,437.86 160.62,437.5 157.6,437.5 157.6,437.14 154.59,437.14 154.59,436.8 151.58,436.8 151.58,436.47 148.56,436.47 148.56,436.14 145.55,436.14 145.55,435.82 142.53,435.82 142.53,435.52 139.52,435.52 139.52,435.22 136.51,435.22 136.51,434.93 133.49,434.93 133.49,434.66 130.48,434.66 130.48,434.39 127.47,434.39 127.47,434.13 124.45,434.13 124.45,433.88 121.44,433.88 121.44,433.65 118.42,433.65 118.42,433.42 115.41,433.42 115.41,433.2 112.4,433.2 112.4,433 109.38,433 109.38,432.8 106.37,432.8 106.37,432.61 103.36,432.61 103.36,432.44 100.34,432.44 100.34,432.28 97.33,432.28 97.33,432.12 94.32,432.12 94.32,431.98 91.3,431.98 91.3,431.85 88.29,431.85 88.29,431.73 85.27,431.73 85.27,431.61 82.26,431.61 82.26,431.51 79.25,431.51 79.25,431.43 76.23,431.43 76.23,431.35 73.22,431.35 73.22,431.28 70.21,431.28 70.21,431.22 67.19,431.22 67.19,431.18 64.18,431.18 64.18,431.14 61.16,431.14 61.16,431.12 58.15,431.12 58.15,431.1 55.14,431.1 55.14,431.1 52.12,431.1 52.12,431.11 49.11,431.11 49.11,431.13 46.1,431.13 46.1,431.15 43.08,431.15 43.08,431.19 40.07,431.19 40.07,431.24 37.05,431.24 37.05,431.3 34.04,431.3 34.04,431.37 31.03,431.37 31.03,431.45 28.01,431.45 28.01,431.54" fill="#002040" stroke="none" stroke-width="0"/>
<polygon points="25,419.87 25,147.62 28.01,147.62 28.01,147.34 31.03,147.34 31.03,147.06 34.04,147.06 34.04,146.77 37.05,146.77 37.05,146.48 40.07,146.48 40.07,146.18 43.08,146.18 43.08,145.88 46.1,145.88 46.1,145.57 49.11,145.57 49.11,145.26 52.12,145.26 52.12,144.95 55.14,144.95 55.14,144.63 58.15,144.63 58.15,144.31 61.16,144.31 61.16,143.99 64.18,143.99 64.18,143.66 67.19,143.66 67.19,143.34 70.21,143.34 70.21,143.01 73.22,143.01 73.22,142.67 76.23,142.67 76.23,142.34 79.25,142.34 79.25,142 82.26,142 82.26,141.66 85.27,141.66 85.27,141.33 88.29,141.33 88.29,140.99 91.3,140.99 91.3,140.64 94.32,140.64 94.32,140.3 97.33,140.3 97.33,139.96 100.34,139.96 100.34,139.61 103.36,139.61 103.36,139.27 106.37,139.27 106.37,138.93 109.38,138.93 109.38,138.58 112.4,138.58 112.4,138.24 115.41,138.24 115.41,137.89 118.42,137.89 118.42,137.55 121.44,137.55 121.44,137.21 124.45,137.21 124.45,136.87 127.47,136.87 127.47,136.53 130.48,136.53 130.48,136.19 133.49,136.19 133.49,135.85 136.51,135.85 136.51,135.51 139.52,135.51 139.52,135.17 142.53,135.17 142.53,134.83 145.55,134.83 145.55,134.5 148.56,134.5 148.56,134.16 151.58,134.16 151.58,133.83 154.59,133.83 154.59,133.5 157.6,133.5 157.6,133.17 160.62,133.17 160.62,132.84 163.63,132.84 163.63,132.51 166.64,132.51 166.64,132.18 169.66,132.18 169.66,131.85 172.67,131.85 172.67,131.53 175.68,131.53 175.68,131.2 178.7,131.2 178.7,130.88 181.71,130.88 181.71,130.56 184.73,130.56 184.73,130.23 187.74,130.23 187.74,129.91 190.75,129.91 190.75,129.59 193.77,129.59 193.77,129.27 196.78,129.27 196.78,128.95 199.79,128.95 199.79,128.64 202.81,128.64 202.81,128.32 205.82,128.32 205.82,128 208.84,128 208.84,127.69 211.85,127.69 211.85,127.37 214.86,127.37 214.86,127.06 217.88,127.06 217.88,126.75 220.89,126.75 220.89,126.43 223.9,126.43 223.9,126.12 226.92,126.12 226.92,102.89 229.93,102.89 229.93,102.58 232.95,102.58 232.95,102.27 235.96,102.27 235.96,101.96 238.97,101.96 238.97,101.64 241.99,101.64 241.99,101.33 245,101.33 245,101.02 248.01,101.02 248.01,100.71 251.03,100.71 251.03,100.4 254.04,100.4 254.04,100.08 257.05,100.08 257.05,99.77 260.07,99.77 260.07,99.45 263.08,99.45 263.08,99.14 266.1,99.14 266.1,98.82 269.11,98.82 269.11,98.5 272.12,98.5 272.12,98.19 275.14,98.19 275.14,97.87 278.15,97.87 278.15,97.55 281.16,97.55 281.16,97.22 284.18,97.22 284.18,96.9 287.19,96.9 287.19,96.58 290.21,96.58 290.21,96.25 293.22,96.25 293.22,95.93 296.23,95.93 296.23,95.6 299.25,95.6 299.25,95.27 302.26,95.27 302.26,94.94 305.27,94.94 305.27,94.61 308.29,94.61 308.29,94.27 311.3,94.27 311.3,93.94 314.32,93.94 314.32,93.6 317.33,93.6 317.33,93.26 320.34,93.26 320.34,92.92 323.36,92.92 323.36,92.58 326.37,92.58 326.37,92.24 329.38,92.24 329.38,91.9 332.4,91.9 332.4,91.55 335.41,91.55 335.41,91.2 338.42,91.2 338.42,90.85 341.44,90.85 341.44,90.5 344.45,90.5 344.45,90.15 347.47,90.15 347.47,89.79 350.48,89.79 350.48,89.44 353.49,89.44 353.49,89.08 356.51,89.08 356.51,88.72 359.52,88.72 359.52,88.36 362.53,88.36 362.53,87.99 365.55,87.99 365.55,87.63 368.56,87.63 368.56,87.26 371.58,87.26 371.58,86.9 374.59,86.9 374.59,86.53 377.6,86.53 377.6,86.16 380.62,86.16 380.62,85.79 383.63,85.79 383.63,85.42 386.64,85.42 386.64,85.05 389.66,85.05 389.66,84.68 392.67,84.68 392.67,84.31 395.68,84.31 395.68,83.93 398.7,83.93 398.7,83.56 401.71,83.56 401.71,83.19 404.73,83.19 404.73,82.82 407.74,82.82 407.74,82.45 410.75,82.45 410.75,82.08 413.77,82.08 413.77,81.72 416.78,81.72 416.78,81.35 419.79,81.35 419.79,80.99 422.81,80.99 422.81,80.62 425.82,80.62 425.82,80.26 428.84,80.26 428.84,79.9 431.85,79.9 431.85,79.55 434.86,79.55 434.86,79.19 437.88,79.19 437.88,78.84 440.89,78.84 440.89,78.49 443.9,78.49 443.9,78.15 446.92,78.15 446.92,77.81 449.93,77.81 449.93,77.47 452.95,77.47 452.95,77.14 455.96,77.14 455.96,76.81 458.97,76.81 458.97,76.49 461.99,76.49 461.99,76.17 465,76.17 465,75.85 468.01,75.85 468.01,75.55 471.03,75.55 471.03,75.25 474.04,75.25 474.04,74.96 477.05,74.96 477.05,74.67 480.07,74.67 480.07,74.39 483.08,74.39 483.08,74.12 486.1,74.12 486.1,73.86 489.11,73.86 489.11,73.6 492.12,73.6 492.12,73.35 495.14,73.35 495.14,73.12 498.15,73.12 498.15,72.89 501.16,72.89 501.16,72.67 504.18,72.67 504.18,72.46 507.19,72.46 507.19,72.26 510.21,72.26 510.21,72.07 513.22,72.07 513.22,71.89 516.23,71.89 516.23,71.72 519.25,71.72 519.25,71.57 522.26,71.57 522.26,71.42 525.27,71.42 525.27,71.28 528.29,71.28 528.29,71.16 531.3,71.16 531.3,71.05 534.32,71.05 534.32,70.95 537.33,70.95 537.33,70.86 540.34,70.86 540.34,70.78 543.36,70.78 543.36,70.72 546.37,70.72 546.37,70.66 549.38,70.66 549.38,70.62 552.4,70.62 552.4,70.6 555.41,70.6 555.41,70.58 558.42,70.58 558.42,70.58 561.44,70.58 561.44,70.59 564.45,70.59 564.45,70.62 567.47,70.62 567.47,70.66 570.48,70.66 570.48,70.71 573.49,70.71 573.49,70.77 576.51,70.77 576.51,70.85 579.52,70.85 579.52,70.94 582.53,70.94 582.53,71.04 585.55,71.04 585.55,71.15 588.56,71.15 588.56,71.28 591.58,71.28 591.58,71.42 594.59,71.42 594.59,71.58 597.6,71.58 597.6,71.75 600.62,71.75 600.62,71.92 603.63,71.92 603.63,72.12 606.64,72.12 606.64,72.32 609.66,72.32 609.66,72.53 612.67,72.53 612.67,72.76 615.68,72.76 615.68,73 618.7,73 618.7,73.25 621.71,73.25 621.71,73.51 624.73,73.51 624.73,73.78 627.74,73.78 627.74,74.07 630.75,74.07 630.75,74.36 633.77,74.36 633.77,74.66 636.78,74.66 636.78,74.98 639.79,74.98 639.79,75.31 642.81,75.31 642.81,75.64 645.82,75.64 645.82,75.99 648.84,75.99 648.84,76.34 651.85,76.34 651.85,76.71 654.86,76.71 654.86,77.08 657.88,77.08 657.88,77.46 660.89,77.46 660.89,77.85 663.9,77.85 663.9,78.26 666.92,78.26 666.92,78.66 669.93,78.66 669.93,79.08 672.95,79.08 672.95,79.51 675.96,79.51 675.96,79.94 678.97,79.94 678.97,80.38 681.99,80.38 681.99,80.83 685,80.83 685,81.28 688.01,81.28 688.01,81.75 691.03,81.75 691.03,82.21 694.04,82.21 694.04,82.69 697.05,82.69 697.05,83.17 700.07,83.17 700.07,83.65 703.08,83.65 703.08,84.15 706.1,84.15 706.1,84.64 709.11,84.64 709.11,85.15 712.12,85.15 712.12,85.65 715.14,85.65 715.14,86.17 718.15,86.17 718.15,86.68 721.16,86.68 721.16,87.21 724.18,87.21 724.18,87.73 727.19,87.73 727.19,88.26 730.21,88.26 730.21,88.79 733.22,88.79 733.22,89.33 736.23,89.33 736.23,89.87 739.25,89.87 739.25,90.41 742.26,90.41 742.26,90.96 745.27,90.96 745.27,91.51 748.29,91.51 748.29,92.06 751.3,92.06 751.3,92.61 754.32,92.61 754.32,93.17 757.33,93.17 757.33,93.73 760.34,93.73 760.34,94.29 763.36,94.29 763.36,94.85 766.37,94.85 766.37,95.41 769.38,95.41 769.38,95.98 772.4,95.98 772.4,96.54 775.41,96.54 775.41,97.11 778.42,97.11 778.42,97.67 781.44,97.67 781.44,98.24 784.45,98.24 784.45,98.81 787.47,98.81 787.47,99.38 790.48,99.38 790.48,99.94 793.49,99.94 793.49,100.51 796.51,100.51 796.51,101.08 799.52,101.08 799.52,101.64 802.53,101.64 802.53,102.2 805.55,102.2 805.55,102.77 808.56,102.77 808.56,103.33 811.58,103.33 811.58,103.89 814.59,103.89 814.59,104.45 817.6,104.45 817.6,105.01 820.62,105.01 820.62,105.56 823.63,105.56 823.63,106.11 826.64,106.11 826.64,106.66 829.66,106.66 829.66,107.21 832.67,107.21 832.67,107.76 835.68,107.76 835.68,108.3 838.7,108.3 838.7,108.84 841.71,108.84 841.71,109.37 844.73,109.37 844.73,109.91 847.74,109.91 847.74,110.44 850.75,110.44 850.75,110.96 853.77,110.96 853.77,111.48 856.78,111.48 856.78,112 859.79,112 859.79,112.51 862.81,112.51 862.81,113.02 865.82,113.02 865.82,113.53 868.84,113.53 868.84,114.03 871.85,114.03 871.85,114.52 874.86,114.52 874.86,115.01 877.88,115.01 877.88,115.49 880.89,115.49 880.89,115.97 883.9,115.97 883.9,116.44 886.92,116.44 886.92,116.91 889.93,116.91 889.93,117.37 892.95,117.37 892.95,117.82 895.96,117.82 895.96,118.27 898.97,118.27 898.97,118.71 901.99,118.71 901.99,119.15 905,119.15 905,119.57 908.01,119.57 908.01,119.99 911.03,119.99 911.03,120.41 914.04,120.41 914.04,120.81 917.05,120.81 917.05,121.21 920.07,121.21 920.07,121.6 923.08,121.6 923.08,121.98 926.1,121.98 926.1,122.35 929.11,122.35 929.11,122.72 932.12,122.72 932.12,123.08 935.14,123.08 935.14,123.43 938.15,123.43 938.15,123.77 941.16,123.77 941.16,124.1 944.18,124.1 944.18,147.34 947.19,147.34 947.19,147.65 950.21,147.65 950.21,147.95 953.22,147.95 953.22,148.25 956.23,148.25 956.23,148.53 959.25,148.53 959.25,148.81 962.26,148.81 962.26,149.07 965.27,149.07 965.27,149.33 968.29,149.33 968.29,149.57 971.3,149.57 971.3,149.81 974.32,149.81 974.32,150.03 977.33,150.03 977.33,150.25 980.34,150.25 980.34,150.45 983.36,150.45 983.36,150.64 986.37,150.64 986.37,150.82 989.38,150.82 989.38,150.99 992.4,150.99 992.4,151.15 995.41,151.15 995.41,151.3 998.42,151.3 998.42,151.44 1001.44,151.44 1001.44,151.56 1004.45,151.56 1004.45,151.68 1007.47,151.68 1007.47,151.78 1010.48,151.78 1010.48,151.88 1013.49,151.88 1013.49,151.96 1016.51,151.96 1016.51,152.03 1019.52,152.03 1019.52,152.09 1022.53,152.09 1022.53,152.14 1025.55,152.14 1025.55,152.17 1028.56,152.17 1028.56,152.2 1031.58,152.2 1031.58,152.21 1034.59,152.21 1034.59,152.22 1037.6,152.22 1037.6,152.21 1040.62,152.21 1040.62,152.19 1043.63,152.19 1043.63,152.16 1046.64,152.16 1046.64,152.12 1049.66,152.12 1049.66,152.07 1052.67,152.07 1052.67,152.01 1055.68,152.01 1055.68,151.94 1058.7,151.94 1058.7,151.85 1061.71,151.85 1061.71,151.76 1064.73,151.76 1064.73,151.65 1067.74,151.65 1067.74,151.54 1070.75,151.54 1070.75,151.42 1073.77,151.42 1073.77,151.28 1076.78,151.28 1076.78,151.14 1079.79,151.14 1079.79,150.98 1082.81,150.98 1082.81,150.82 1085.82,150.82 1085.82,150.65 1088.84,150.65 1088.84,150.47 1091.85,150.47 1091.85,150.28 1094.86,150.28 1094.86,150.08 1097.88,150.08 1097.88,149.87 1100.89,149.87 1100.89,149.66 1103.9,149.66 1103.9,149.43 1106.92,149.43 1106.92,149.2 1109.93,149.2 1109.93,148.97 1112.95,148.97 1112.95,148.72 1115.96,148.72 1115.96,148.47 1118.97,148.47 1118.97,148.22 1121.99,148.22 1121.99,147.95 1125,147.95 1125,419.98 1121.99,419.98 1121.99,420.09 1118.97,420.09 1118.97,420.2 1115.96,420.2 1115.96,420.32 1112.95,420.32 1112.95,420.46 1109.93,420.46 1109.93,420.6 1106.92,420.6 1106.92,420.75 1103.9,420.75 1103.9,420.91 1100.89,420.91 1100.89,421.08 1097.88,421.08 1097.88,421.26 1094.86,421.26 1094.86,421.45 1091.85,421.45 1091.85,421.64 1088.84,421.64 1088.84,421.84 1085.82,421.84 1085.82,422.05 1082.81,422.05 1082.81,422.27 1079.79,422.27 1079.79,422.5 1076.78,422.5 1076.78,422.73 1073.77,422.73 1073.77,422.97 1070.75,422.97 1070.75,423.21 1067.74,423.21 1067.74,423.46 1064.73,423.46 1064.73,423.72 1061.71,423.72 1061.71,423.98 1058.7,423.98 1058.7,424.25 1055.68,424.25 1055.68,424.52 1052.67,424.52 1052.67,424.8 1049.66,424.8 1049.66,425.08 1046.64,425.08 1046.64,425.36 1043.63,425.36 1043.63,425.65 1040.62,425.65 1040.62,425.95 1037.6,425.95 1037.6,426.24 1034.59,426.24 1034.59,426.55 1031.58,426.55 1031.58,426.85 1028.56,426.85 1028.56,427.16 1025.55,427.16 1025.55,427.47 1022.53,427.47 1022.53,427.78 1019.52,427.78 1019.52,428.1 1016.51,428.1 1016.51,428.41 1013.49,428.41 1013.49,428.73 1010.48,428.73 1010.48,429.05 1007.47,429.05 1007.47,429.37 1004.45,429.37 1004.45,429.7 1001.44,429.7 1001.44,430.02 998.42,430.02 998.42,430.35 995.41,430.35 995.41,430.67 992.4,430.67 992.4,431 989.38,431 989.38,431.33 986.37,431.33 986.37,431.65 983.36,431.65 983.36,431.98 980.34,431.98 980.34,432.31 977.33,432.31 977.33,432.63 974.32,432.63 974.32,432.96 971.3,432.96 971.3,433.28 968.29,433.28 968.29,433.61 965.27,433.61 965.27,433.93 962.26,433.93 962.26,434.25 959.25,434.25 959.25,434.57 956.23,434.57 956.23,434.89 953.22,434.89 953.22,435.21 950.21,435.21 950.21,435.53 947.19,435.53 947.19,435.85 944.18,435.85 944.18,413.24 941.16,413.24 941.16,413.56 938.15,413.56 938.15,413.87 935.14,413.87 935.14,414.18 932.12,414.18 932.12,414.5 929.11,414.5 929.11,414.81 926.1,414.81 926.1,415.11 923.08,415.11 923.08,415.42 920.07,415.42 920.07,415.73 917.05,415.73 917.05,416.03 914.04,416.03 914.04,416.34 911.03,416.34 911.03,416.64 908.01,416.64 908.01,416.94 905,416.94 905,417.24 901.99,417.24 901.99,417.54 898.97,417.54 898.97,417.84 895.96,417.84 895.96,418.13 892.95,418.13 892.95,418.43 889.93,418.43 889.93,418.72 886.92,418.72 886.92,419.01 883.9,419.01 883.9,419.3 880.89,419.3 880.89,419.59 877.88,419.59 877.88,419.88 874.86,419.88 874.86,420.17 871.85,420.17 871.85,420.46 868.84,420.46 868.84,420.74 865.82,420.74 865.82,421.03 862.81,421.03 862.81,421.31 859.79,421.31 859.79,421.6 856.78,421.6 856.78,421.88 853.77,421.88 853.77,422.17 850.75,422.17 850.75,422.45 847.74,422.45 847.74,422.74 844.73,422.74 844.73,423.02 841.71,423.02 841.71,423.31 838.7,423.31 838.7,423.59 835.68,423.59 835.68,423.88 832.67,423.88 832.67,424.16 829.66,424.16 829.66,424.45 826.64,424.45 826.64,424.74 823.63,424.74 823.63,425.03 820.62,425.03 820.62,425.31 817.6,425.31 817.6,425.6 814.59,425.6 814.59,425.89 811.58,425.89 811.58,426.18 808.56,426.18 808.56,426.47 805.55,426.47 805.55,426.76 802.53,426.76 802.53,427.06 799.52,427.06 799.52,427.35 796.51,427.35 796.51,427.64 793.49,427.64 793.49,427.94 790.48,427.94 790.48,428.24 787.47,428.24 787.47,428.54 784.45,428.54 784.45,428.84 781.44,428.84 781.44,429.14 778.42,429.14 778.42,429.44 775.41,429.44 775.41,429.74 772.4,429.74 772.4,430.05 769.38,430.05 769.38,430.36 766.37,430.36 766.37,430.67 763.36,430.67 763.36,430.98 760.34,430.98 760.34,431.29 757.33,431.29 757.33,431.61 754.32,431.61 754.32,431.92 751.3,431.92 751.3,432.24 748.29,432.24 748.29,432.56 745.27,432.56 745.27,432.89 742.26,432.89 742.26,433.21 739.25,433.21 739.25,433.54 736.23,433.54 736.23,433.87 733.22,433.87 733.22,434.2 730.21,434.2 730.21,434.53 727.19,434.53 727.19,434.87 724.18,434.87 724.18,435.2 721.16,435.2 721.16,435.54 718.15,435.54 718.15,435.88 715.14,435.88 715.14,436.22 712.12,436.22 712.12,436.56 709.11,436.56 709.11,436.9 706.1,436.9 706.1,437.25 703.08,437.25 703.08,437.59 700.07,437.59 700.07,437.94 697.05,437.94 697.05,438.29 694.04,438.29 694.04,438.64 691.03,438.64 691.03,438.98 688.01,438.98 688.01,439.33 685,439.33 685,439.68 681.99,439.68 681.99,440.03 678.97,440.03 678.97,440.38 675.96,440.38 675.96,440.73 672.95,440.73 672.95,441.08 669.93,441.08 669.93,441.43 666.92,441.43 666.92,441.78 663.9,441.78 663.9,442.13 660.89,442.13 660.89,442.48 657.88,442.48 657.88,442.83 654.86,442.83 654.86,443.17 651.85,443.17 651.85,443.52 648.84,443.52 648.84,443.86 645.82,443.86 645.82,444.2 642.81,444.2 642.81,444.54 639.79,444.54 639.79,444.87 636.78,444.87 636.78,445.2 633.77,445.2 633.77,445.53 630.75,445.53 630.75,445.86 627.74,445.86 627.74,446.18 624.73,446.18 624.73,446.49 621.71,446.49 621.71,446.81 618.7,446.81 618.7,447.11 615.68,447.11 615.68,447.42 612.67,447.42 612.67,447.71 609.66,447.71 609.66,448 606.64,448 606.64,448.29 603.63,448.29 603.63,448.57 600.62,448.57 600.62,448.84 597.6,448.84 597.6,449.1 594.59,449.1 594.59,449.36 591.58,449.36 591.58,449.61 588.56,449.61 588.56,449.85 585.55,449.85 585.55,450.09 582.53,450.09 582.53,450.31 579.52,450.31 579.52,450.53 576.51,450.53 576.51,450.74 573.49,450.74 573.49,450.94 570.48,450.94 570.48,451.13 567.47,451.13 567.47,451.31 564.45,451.31 564.45,451.48 561.44,451.48 561.44,451.64 558.42,451.64 558.42,451.79 555.41,451.79 555.41,451.93 552.4,451.93 552.4,452.06 549.38,452.06 549.38,452.18 546.37,452.18 546.37,452.28 543.36,452.28 543.36,452.38 540.34,452.38 540.34,452.46 537.33,452.46 537.33,452.53 534.32,452.53 534.32,452.59 531.3,452.59 531.3,452.64 528.29,452.64 528.29,452.67 525.27,452.67 525.27,452.69 522.26,452.69 522.26,452.7 519.25,452.7 519.25,452.69 516.23,452.69 516.23,452.68 513.22,452.68 513.22,452.65 510.21,452.65 510.21,452.61 507.19,452.61 507.19,452.55 504.18,452.55 504.18,452.48 501.16,452.48 501.16,452.4 498.15,452.4 498.15,452.31 495.14,452.31 495.14,452.21 492.12,452.21 492.12,452.09 489.11,452.09 489.11,451.96 486.1,451.96 486.1,451.82 483.08,451.82 483.08,451.66 480.07,451.66 480.07,451.5 477.05,451.5 477.05,451.32 474.04,451.32 474.04,451.13 471.03,451.13 471.03,450.93 468.01,450.93 468.01,450.71 465,450.71 465,450.49 461.99,450.49 461.99,450.25 458.97,450.25 458.97,450 455.96,450 455.96,449.74 452.95,449.74 452.95,449.47 449.93,449.47 449.93,449.19 446.92,449.19 446.92,448.9 443.9,448.9 443.9,448.6 440.89,448.6 440.89,448.28 437.88,448.28 437.88,447.96 434.86,447.96 434.86,447.63 431.85,447.63 431.85,447.28 428.84,447.28 428.84,446.93 425.82,446.93 425.82,446.57 422.81,446.57 422.81,446.2 419.79,446.2 419.79,445.82 416.78,445.82 416.78,445.43 413.77,445.43 413.77,445.03 410.75,445.03 410.75,444.63 407.74,444.63 407.74,444.22 404.73,444.22 404.73,443.8 401.71,443.8 401.71,443.37 398.7,443.37 398.7,442.94 395.68,442.94 395.68,442.49 392.67,442.49 392.67,442.05 389.66,442.05 389.66,441.59 386.64,441.59 386.64,441.13 383.63,441.13 383.63,440.66 380.62,440.66 380.62,440.19 377.6,440.19 377.6,439.71 374.59,439.71 374.59,439.23 371.58,439.23 371.58,438.74 368.56,438.74 368.56,438.24 365.55,438.24 365.55,437.74 362.53,437.74 362.53,437.24 359.52,437.24 359.52,436.73 356.51,436.73 356.51,436.22 353.49,436.22 353.49,435.7 350.48,435.7 350.48,435.18 347.47,435.18 347.47,434.66 344.45,434.66 344.45,434.13 341.44,434.13 341.44,433.6 338.42,433.6 338.42,433.07 335.41,433.07 335.41,432.53 332.4,432.53 332.4,431.99 329.38,431.99 329.38,431.45 326.37,431.45 326.37,430.91 323.36,430.91 323.36,430.36 320.34,430.36 320.34,429.82 317.33,429.82 317.33,429.27 314.32,429.27 314.32,428.72 311.3,428.72 311.3,428.17 308.29,428.17 308.29,427.62 305.27,427.62 305.27,427.07 302.26,427.07 302.26,426.51 299.25,426.51 299.25,425.96 296.23,425.96 296.23,425.41 293.22,425.41 293.22,424.86 290.21,424.86 290.21,424.31 287.19,424.31 287.19,423.75 284.18,423.75 284.18,423.2 281.16,423.2 281.16,422.65 278.15,422.65 278.15,422.1 275.14,422.1 275.14,421.56 272.12,421.56 272.12,421.01 269.11,421.01 269.11,420.46 266.1,420.46 266.1,419.92 263.08,419.92 263.08,419.38 260.07,419.38 260.07,418.84 257.05,418.84 257.05,418.3 254.04,418.3 254.04,417.77 251.03,417.77 251.03,417.24 248.01,417.24 248.01,416.71 245,416.71 245,416.18 241.99,416.18 241.99,415.66 238.97,415.66 238.97,415.14 235.96,415.14 235.96,414.62 232.95,414.62 232.95,414.11 229.93,414.11 229.93,413.6 226.92,413.6 226.92,436.01 223.9,436.01 223.9,435.51 220.89,435.51 220.89,435.02 217.88,435.02 217.88,434.53 214.86,434.53 214.86,434.04 211.85,434.04 211.85,433.56 208.84,433.56 208.84,433.09 205.82,433.09 205.82,432.62 202.81,432.62 202.81,432.15 199.79,432.15 199.79,431.7 196.78,431.7 196.78,431.24 193.77,431.24 193.77,430.8 190.75,430.8 190.75,430.36 187.74,430.36 187.74,429.92 184.73,429.92 184.73,429.5 181.71,429.5 181.71,429.08 178.7,429.08 178.7,428.66 175.68,428.66 175.68,428.26 172.67,428.26 172.67,427.86 169.66,427.86 169.66,427.47 166.64,427.47 166.64,427.08 163.63,427.08 163.63,426.71 160.62,426.71 160.62,426.34 157.6,426.34 157.6,425.98 154.59,425.98 154.59,425.63 151.58,425.63 151.58,425.28 148.56,425.28 148.56,424.95 145.55,424.95 145.55,424.62 142.53,424.62 142.53,424.3 139.52,424.3 139.52,424 136.51,424 136.51,423.7 133.49,423.7 133.49,423.41 130.48,423.41 130.48,423.13 127.47,423.13 127.47,422.86 124.45,422.86 124.45,422.6 121.44,422.6 121.44,422.35 118.42,422.35 118.42,422.11 115.41,422.11 115.41,421.88 112.4,421.88 112.4,421.66 109.38,421.66 109.38,421.45 106.37,421.45 106.37,421.25 103.36,421.25 103.36,421.06 100.34,421.06 100.34,420.88 97.33,420.88 97.33,420.71 94.32,420.71 94.32,420.56 91.3,420.56 91.3,420.41 88.29,420.41 88.29,420.28 85.27,420.28 85.27,420.15 82.26,420.15 82.26,420.04 79.25,420.04 79.25,419.93 76.23,419.93 76.23,419.84 73.22,419.84 73.22,419.76 70.21,419.76 70.21,419.69 67.19,419.69 67.19,419.63 64.18,419.63 64.18,419.59 61.16,419.59 61.16,419.55 58.15,419.55 58.15,419.52 55.14,419.52 55.14,419.51 52.12,419.51 52.12,419.5 49.11,419.5 49.11,419.51 46.1,419.51 46.1,419.53 43.08,419.53 43.08,419.56 40.07,419.56 40.07,419.6 37.05,419.6 37.05,419.65 34.04,419.65 34.04,419.71 31.03,419.71 31.03,419.78 28.01,419.78 28.01,419.87" fill="#004080" stroke="none" stroke-width="0"/>
<polygon points="25,407.9 25,159.58 28.01,159.58 28.01,159.3 31.03,159.3 31.03,159 34.04,159 34.04,158.71 37.05,158.71 37.05,158.4 40.07,158.4 40.07,158.09 43.08,158.09 43.08,157.78 46.1,157.78 46.1,157.46 49.11,157.46 49.11,157.14 52.12,157.14 52.12,156.81 55.14,156.81 55.14,156.48 58.15,156.48 58.15,156.14 61.16,156.14 61.16,155.8 64.18,155.8 64.18,155.46 67.19,155.46 67.19,155.12 70.21,155.12 70.21,154.77 73.22,154.77 73.22,154.42 76.23,154.42 76.23,154.07 79.25,154.07 79.25,153.71 82.26,153.71 82.26,153.36 85.27,153.36 85.27,153 88.29,153 88.29,152.64 91.3,152.64 91.3,152.28 94.32,152.28 94.32,151.92 97.33,151.92 97.33,151.56 100.34,151.56 100.34,151.2 103.36,151.2 103.36,150.84 106.37,150.84 106.37,150.47 109.38,150.47 109.38,150.11 112.4,150.11 112.4,149.75 115.41,149.75 115.41,149.39 118.42,149.39 118.42,149.03 121.44,149.03 121.44,148.67 124.45,148.67 124.45,148.31 127.47,148.31 127.47,147.95 130.48,147.95 130.48,147.59 133.49,147.59 133.49,147.23 136.51,147.23 136.51,146.88 139.52,146.88 139.52,146.52 142.53,146.52 142.53,146.17 145.55,146.17 145.55,145.82 148.56,145.82 148.56,145.47 151.58,145.47 151.58,145.13 154.59,145.13 154.59,144.78 157.6,144.78 157.6,144.43 160.62,144.43 160.62,144.09 163.63,144.09 163.63,143.75 166.64,143.75 166.64,143.41 169.66,143.41 169.66,143.07 172.67,143.07 172.67,142.74 175.68,142.74 175.68,142.4 178.7,142.4 178.7,142.07 181.71,142.07 181.71,141.73 184.73,141.73 184.73,141.4 187.74,141.4 187.74,141.07 190.75,141.07 190.75,140.75 193.77,140.75 193.77,140.42 196.78,140.42 196.78,140.1 199.79,140.1 199.79,139.77 202.81,139.77 202.81,139.45 205.82,139.45 205.82,139.13 208.84,139.13 208.84,138.81 211.85,138.81 211.85,138.5 214.86,138.5 214.86,138.18 217.88,138.18 217.88,137.87 220.89,137.87 220.89,137.55 223.9,137.55 223.9,137.24 226.92,137.24 226.92,114.01 229.93,114.01 229.93,113.71 232.95,113.71 232.95,113.4 235.96,113.4 235.96,113.09 238.97,113.09 238.97,112.78 241.99,112.78 241.99,112.48 245,112.48 245,112.17 248.01,112.17 248.01,111.87 251.03,111.87 251.03,111.56 254.04,111.56 254.04,111.26 257.05,111.26 257.05,110.95 260.07,110.95 260.07,110.65 263.08,110.65 263.08,110.34 266.1,110.34 266.1,110.04 269.11,110.04 269.11,109.74 272.12,109.74 272.12,109.43 275.14,109.43 275.14,109.13 278.15,109.13 278.15,108.82 281.16,108.82 281.16,108.52 284.18,108.52 284.18,108.21 287.19,108.21 287.19,107.91 290.21,107.91 290.21,107.6 293.22,107.6 293.22,107.29 296.23,107.29 296.23,106.99 299.25,106.99 299.25,106.68 302.26,106.68 302.26,106.37 305.27,106.37 305.27,106.06 308.29,106.06 308.29,105.75 311.3,105.75 311.3,105.44 314.32,105.44 314.32,105.13 317.33,105.13 317.33,104.82 320.34,104.82 320.34,104.51 323.36,104.51 323.36,104.2 326.37,104.2 326.37,103.88 329.38,103.88 329.38,103.57 332.4,103.57 332.4,103.25 335.41,103.25 335.41,102.93 338.42,102.93 338.42,102.62 341.44,102.62 341.44,102.3 344.45,102.3 344.45,101.98 347.47,101.98 347.47,101.66 350.48,101.66 350.48,101.34 353.49,101.34 353.49,101.01 356.51,101.01 356.51,100.69 359.52,100.69 359.52,100.36 362.53,100.36 362.53,100.04 365.55,100.04 365.55,99.71 368.56,99.71 368.56,99.38 371.58,99.38 371.58,99.05 374.59,99.05 374.59,98.72 377.6,98.72 377.6,98.4 380.62,98.4 380.62,98.07 383.63,98.07 383.63,97.74 386.64,97.74 386.64,97.41 389.66,97.41 389.66,97.08 392.67,97.08 392.67,96.75 395.68,96.75 395.68,96.42 398.7,96.42 398.7,96.09 401.71,96.09 401.71,95.76 404.73,95.76 404.73,95.43 407.74,95.43 407.74,95.1 410.75,95.1 410.75,94.78 413.77,94.78 413.77,94.45 416.78,94.45 416.78,94.13 419.79,94.13 419.79,93.81 422.81,93.81 422.81,93.49 425.82,93.49 425.82,93.17 428.84,93.17 428.84,92.85 431.85,92.85 431.85,92.54 434.86,92.54 434.86,92.22 437.88,92.22 437.88,91.91 440.89,91.91 440.89,91.61 443.9,91.61 443.9,91.3 446.92,91.3 446.92,91 449.93,91 449.93,90.7 452.95,90.7 452.95,90.41 455.96,90.41 455.96,90.12 458.97,90.12 458.97,89.83 461.99,89.83 461.99,89.55 465,89.55 465,89.27 468.01,89.27 468.01,89 471.03,89 471.03,88.73 474.04,88.73 474.04,88.47 477.05,88.47 477.05,88.22 480.07,88.22 480.07,87.97 483.08,87.97 483.08,87.72 486.1,87.72 486.1,87.49 489.11,87.49 489.11,87.26 492.12,87.26 492.12,87.04 495.14,87.04 495.14,86.82 498.15,86.82 498.15,86.62 501.16,86.62 501.16,86.42 504.18,86.42 504.18,86.23 507.19,86.23 507.19,86.05 510.21,86.05 510.21,85.87 513.22,85.87 513.22,85.71 516.23,85.71 516.23,85.55 519.25,85.55 519.25,85.41 522.26,85.41 522.26,85.27 525.27,85.27 525.27,85.14 528.29,85.14 528.29,85.02 531.3,85.02 531.3,84.91 534.32,84.91 534.32,84.82 537.33,84.82 537.33,84.73 540.34,84.73 540.34,84.65 543.36,84.65 543.36,84.58 546.37,84.58 546.37,84.52 549.38,84.52 549.38,84.48 552.4,84.48 552.4,84.44 555.41,84.44 555.41,84.42 558.42,84.42 558.42,84.41 561.44,84.41 561.44,84.4 564.45,84.4 564.45,84.41 567.47,84.41 567.47,84.43 570.48,84.43 570.48,84.47 573.49,84.47 573.49,84.51 576.51,84.51 576.51,84.57 579.52,84.57 579.52,84.63 582.53,84.63 582.53,84.71 585.55,84.71 585.55,84.8 588.56,84.8 588.56,84.91 591.58,84.91 591.58,85.02 594.59,85.02 594.59,85.14 597.6,85.14 597.6,85.28 600.62,85.28 600.62,85.43 603.63,85.43 603.63,85.59 606.64,85.59 606.64,85.76 609.66,85.76 609.66,85.94 612.67,85.94 612.67,86.13 615.68,86.13 615.68,86.33 618.7,86.33 618.7,86.54 621.71,86.54 621.71,86.77 624.73,86.77 624.73,87 627.74,87 627.74,87.24 630.75,87.24 630.75,87.5 633.77,87.5 633.77,87.76 636.78,87.76 636.78,88.04 639.79,88.04 639.79,88.32 642.81,88.32 642.81,88.62 645.82,88.62 645.82,88.92 648.84,88.92 648.84,89.23 651.85,89.23 651.85,89.56 654.86,89.56 654.86,89.89 657.88,89.89 657.88,90.23 660.89,90.23 660.89,90.58 663.9,90.58 663.9,90.94 666.92,90.94 666.92,91.3 669.93,91.3 669.93,91.68 672.95,91.68 672.95,92.06 675.96,92.06 675.96,92.45 678.97,92.45 678.97,92.85 681.99,92.85 681.99,93.26 685,93.26 685,93.67 688.01,93.67 688.01,94.09 691.03,94.09 691.03,94.52 694.04,94.52 694.04,94.96 697.05,94.96 697.05,95.4 700.07,95.4 700.07,95.84 703.08,95.84 703.08,96.3 706.1,96.3 706.1,96.76 709.11,96.76 709.11,97.22 712.12,97.22 712.12,97.69 715.14,97.69 715.14,98.17 718.15,98.17 718.15,98.65 721.16,98.65 721.16,99.13 724.18,99.13 724.18,99.62 727.19,99.62 727.19,100.12 730.21,100.12 730.21,100.62 733.22,100.62 733.22,101.12 736.23,101.12 736.23,101.63 739.25,101.63 739.25,102.14 742.26,102.14 742.26,102.66 745.27,102.66 745.27,103.18 748.29,103.18 748.29,103.7 751.3,103.7 751.3,104.22 754.32,104.22 754.32,104.75 757.33,104.75 757.33,105.28 760.34,105.28 760.34,105.82 763.36,105.82 763.36,106.35 766.37,106.35 766.37,106.89 769.38,106.89 769.38,107.43 772.4,107.43 772.4,107.97 775.41,107.97 775.41,108.52 778.42,108.52 778.42,109.06 781.44,109.06 781.44,109.61 784.45,109.61 784.45,110.15 787.47,110.15 787.47,110.7 790.48,110.7 790.48,111.25 793.49,111.25 793.49,111.8 796.51,111.8 796.51,112.35 799.52,112.35 799.52,112.9 802.53,112.9 802.53,113.45 805.55,113.45 805.55,113.99 808.56,113.99 808.56,114.54 811.58,114.54 811.58,115.09 814.59,115.09 814.59,115.64 817.6,115.64 817.6,116.18 820.62,116.18 820.62,116.73 823.63,116.73 823.63,117.27 826.64,117.27 826.64,117.81 829.66,117.81 829.66,118.35 832.67,118.35 832.67,118.89 835.68,118.89 835.68,119.42 838.7,119.42 838.7,119.96 841.71,119.96 841.71,120.49 844.73,120.49 844.73,121.02 847.74,121.02 847.74,121.54 850.75,121.54 850.75,122.07 853.77,122.07 853.77,122.59 856.78,122.59 856.78,123.1 859.79,123.1 859.79,123.62 862.81,123.62 862.81,124.13 865.82,124.13 865.82,124.63 868.84,124.63 868.84,125.13 871.85,125.13 871.85,125.63 874.86,125.63 874.86,126.12 877.88,126.12 877.88,126.61 880.89,126.61 880.89,127.1 883.9,127.1 883.9,127.57 886.92,127.57 886.92,128.05 889.93,128.05 889.93,128.51 892.95,128.51 892.95,128.97 895.96,128.97 895.96,129.43 898.97,129.43 898.97,129.88 901.99,129.88 901.99,130.32 905,130.32 905,130.76 908.01,130.76 908.01,131.19 911.03,131.19 911.03,131.61 914.04,131.61 914.04,132.03 917.05,132.03 917.05,132.44 920.07,132.44 920.07,132.84 923.08,132.84 923.08,133.24 926.1,133.24 926.1,133.63 929.11,133.63 929.11,134.01 932.12,134.01 932.12,134.38 935.14,134.38 935.14,134.74 938.15,134.74 938.15,135.1 941.16,135.1 941.16,135.45 944.18,135.45 944.18,158.7 947.19,158.7 947.19,159.03 950.21,159.03 950.21,159.35 953.22,159.35 953.22,159.66 956.23,159.66 956.23,159.97 959.25,159.97 959.25,160.26 962.26,160.26 962.26,160.54 965.27,160.54 965.27,160.81 968.29,160.81 968.29,161.08 971.3,161.08 971.3,161.33 974.32,161.33 974.32,161.57 977.33,161.57 977.33,161.81 980.34,161.81 980.34,162.03 983.36,162.03 983.36,162.24 986.37,162.24 986.37,162.44 989.38,162.44 989.38,162.63 992.4,162.63 992.4,162.8 995.41,162.8 995.41,162.97 998.42,162.97 998.42,163.13 1001.44,163.13 1001.44,163.27 1004.45,163.27 1004.45,163.4 1007.47,163.4 1007.47,163.53 1010.48,163.53 1010.48,163.64 1013.49,163.64 1013.49,163.73 1016.51,163.73 1016.51,163.82 1019.52,163.82 1019.52,163.9 1022.53,163.9 1022.53,163.96 1025.55,163.96 1025.55,164.01 1028.56,164.01 1028.56,164.05 1031.58,164.05 1031.58,164.08 1034.59,164.08 1034.59,164.1 1037.6,164.1 1037.6,164.11 1040.62,164.11 1040.62,164.1 1043.63,164.1 1043.63,164.08 1046.64,164.08 1046.64,164.06 1049.66,164.06 1049.66,164.02 1052.67,164.02 1052.67,163.96 1055.68,163.96 1055.68,163.9 1058.7,163.9 1058.7,163.83 1061.71,163.83 1061.71,163.74 1064.73,163.74 1064.73,163.64 1067.74,163.64 1067.74,163.54 1070.75,163.54 1070.75,163.42 1073.77,163.42 1073.77,163.29 1076.78,163.29 1076.78,163.15 1079.79,163.15 1079.79,163 1082.81,163 1082.81,162.84 1085.82,162.84 1085.82,162.67 1088.84,162.67 1088.84,162.49 1091.85,162.49 1091.85,162.3 1094.86,162.3 1094.86,162.1 1097.88,162.1 1097.88,161.89 1100.89,161.89 1100.89,161.67 1103.9,161.67 1103.9,161.45 1106.92,161.45 1106.92,161.21 1109.93,161.21 1109.93,160.97 1112.95,160.97 1112.95,160.72 1115.96,160.72 1115.96,160.47 1118.97,160.47 1118.97,160.2 1121.99,160.2 1121.99,159.93 1125,159.93 1125,408 1121.99,408 1121.99,408.1 1118.97,408.1 1118.97,408.21 1115.96,408.21 1115.96,408.32 1112.95,408.32 1112.95,408.45 1109.93,408.45 1109.93,408.59 1106.92,408.59 1106.92,408.74 1103.9,408.74 1103.9,408.89 1100.89,408.89 1100.89,409.06 1097.88,409.06 1097.88,409.24 1094.86,409.24 1094.86,409.42 1091.85,409.42 1091.85,409.62 1088.84,409.62 1088.84,409.82 1085.82,409.82 1085.82,410.04 1082.81,410.04 1082.81,410.26 1079.79,410.26 1079.79,410.48 1076.78,410.48 1076.78,410.72 1073.77,410.72 1073.77,410.96 1070.75,410.96 1070.75,411.21 1067.74,411.21 1067.74,411.47 1064.73,411.47 1064.73,411.74 1061.71,411.74 1061.71,412.01 1058.7,412.01 1058.7,412.28 1055.68,412.28 1055.68,412.56 1052.67,412.56 1052.67,412.85 1049.66,412.85 1049.66,413.14 1046.64,413.14 1046.64,413.44 1043.63,413.44 1043.63,413.74 1040.62,413.74 1040.62,414.05 1037.6,414.05 1037.6,414.36 1034.59,414.36 1034.59,414.68 1031.58,414.68 1031.58,415 1028.56,415 1028.56,415.32 1025.55,415.32 1025.55,415.64 1022.53,415.64 1022.53,415.97 1019.52,415.97 1019.52,416.3 1016.51,416.3 1016.51,416.64 1013.49,416.64 1013.49,416.97 1010.48,416.97 1010.48,417.31 1007.47,417.31 1007.47,417.65 1004.45,417.65 1004.45,417.99 1001.44,417.99 1001.44,418.33 998.42,418.33 998.42,418.68 995.41,418.68 995.41,419.02 992.4,419.02 992.4,419.36 989.38,419.36 989.38,419.71 986.37,419.71 986.37,420.05 983.36,420.05 983.36,420.4 980.34,420.4 980.34,420.74 977.33,420.74 977.33,421.09 974.32,421.09 974.32,421.43 971.3,421.43 971.3,421.77 968.29,421.77 968.29,422.12 965.27,422.12 965.27,422.46 962.26,422.46 962.26,422.8 959.25,422.8 959.25,423.13 956.23,423.13 956.23,423.47 953.22,423.47 953.22,423.81 950.21,423.81 950.21,424.14 947.19,424.14 947.19,424.48 944.18,424.48 944.18,401.89 941.16,401.89 941.16,402.22 938.15,402.22 938.15,402.55 935.14,402.55 935.14,402.88 932.12,402.88 932.12,403.2 929.11,403.2 929.11,403.53 926.1,403.53 926.1,403.85 923.08,403.85 923.08,404.17 920.07,404.17 920.07,404.49 917.05,404.49 917.05,404.8 914.04,404.8 914.04,405.12 911.03,405.12 911.03,405.43 908.01,405.43 908.01,405.74 905,405.74 905,406.05 901.99,406.05 901.99,406.36 898.97,406.36 898.97,406.67 895.96,406.67 895.96,406.97 892.95,406.97 892.95,407.27 889.93,407.27 889.93,407.57 886.92,407.57 886.92,407.87 883.9,407.87 883.9,408.17 880.89,408.17 880.89,408.46 877.88,408.46 877.88,408.75 874.86,408.75 874.86,409.04 871.85,409.04 871.85,409.33 868.84,409.33 868.84,409.62 865.82,409.62 865.82,409.91 862.81,409.91 862.81,410.19 859.79,410.19 859.79,410.48 856.78,410.48 856.78,410.76 853.77,410.76 853.77,411.05 850.75,411.05 850.75,411.33 847.74,411.33 847.74,411.61 844.73,411.61 844.73,411.89 841.71,411.89 841.71,412.17 838.7,412.17 838.7,412.45 835.68,412.45 835.68,412.73 832.67,412.73 832.67,413 829.66,413 829.66,413.28 826.64,413.28 826.64,413.56 823.63,413.56 823.63,413.84 820.62,413.84 820.62,414.11 817.6,414.11 817.6,414.39 814.59,414.39 814.59,414.67 811.58,414.67 811.58,414.94 808.56,414.94 808.56,415.22 805.55,415.22 805.55,415.5 802.53,415.5 802.53,415.77 799.52,415.77 799.52,416.05 796.51,416.05 796.51,416.33 793.49,416.33 793.49,416.61 790.48,416.61 790.48,416.88 787.47,416.88 787.47,417.16 784.45,417.16 784.45,417.44 781.44,417.44 781.44,417.72 778.42,417.72 778.42,418 775.41,418 775.41,418.28 772.4,418.28 772.4,418.56 769.38,418.56 769.38,418.85 766.37,418.85 766.37,419.13 763.36,419.13 763.36,419.42 760.34,419.42 760.34,419.7 757.33,419.7 757.33,419.99 754.32,419.99 754.32,420.28 751.3,420.28 751.3,420.57 748.29,420.57 748.29,420.86 745.27,420.86 745.27,421.15 742.26,421.15 742.26,421.45 739.25,421.45 739.25,421.74 736.23,421.74 736.23,422.04 733.22,422.04 733.22,422.34 730.21,422.34 730.21,422.63 727.19,422.63 727.19,422.93 724.18,422.93 724.18,423.23 721.16,423.23 721.16,423.54 718.15,423.54 718.15,423.84 715.14,423.84 715.14,424.14 712.12,424.14 712.12,424.45 709.11,424.45 709.11,424.75 706.1,424.75 706.1,425.06 703.08,425.06 703.08,425.36 700.07,425.36 700.07,425.67 697.05,425.67 697.05,425.98 694.04,425.98 694.04,426.28 691.03,426.28 691.03,426.59 688.01,426.59 688.01,426.9 685,426.9 685,427.21 681.99,427.21 681.99,427.52 678.97,427.52 678.97,427.82 675.96,427.82 675.96,428.13 672.95,428.13 672.95,428.44 669.93,428.44 669.93,428.75 666.92,428.75 666.92,429.06 663.9,429.06 663.9,429.36 660.89,429.36 660.89,429.67 657.88,429.67 657.88,429.97 654.86,429.97 654.86,430.28 651.85,430.28 651.85,430.58 648.84,430.58 648.84,430.88 645.82,430.88 645.82,431.18 642.81,431.18 642.81,431.48 639.79,431.48 639.79,431.77 636.78,431.77 636.78,432.06 633.77,432.06 633.77,432.35 630.75,432.35 630.75,432.64 627.74,432.64 627.74,432.92 624.73,432.92 624.73,433.2 621.71,433.2 621.71,433.48 618.7,433.48 618.7,433.75 615.68,433.75 615.68,434.01 612.67,434.01 612.67,434.28 609.66,434.28 609.66,434.53 606.64,434.53 606.64,434.78 603.63,434.78 603.63,435.03 600.62,435.03 600.62,435.27 597.6,435.27 597.6,435.51 594.59,435.51 594.59,435.74 591.58,435.74 591.58,435.96 588.56,435.96 588.56,436.18 585.55,436.18 585.55,436.39 582.53,436.39 582.53,436.59 579.52,436.59 579.52,436.79 576.51,436.79 576.51,436.98 573.49,436.98 573.49,437.16 570.48,437.16 570.48,437.34 567.47,437.34 567.47,437.5 564.45,437.5 564.45,437.66 561.44,437.66 561.44,437.81 558.42,437.81 558.42,437.95 555.41,437.95 555.41,438.08 552.4,438.08 552.4,438.2 549.38,438.2 549.38,438.31 546.37,438.31 546.37,438.42 543.36,438.42 543.36,438.51 540.34,438.51 540.34,438.59 537.33,438.59 537.33,438.66 534.32,438.66 534.32,438.73 531.3,438.73 531.3,438.78 528.29,438.78 528.29,438.82 525.27,438.82 525.27,438.85 522.26,438.85 522.26,438.87 519.25,438.87 519.25,438.88 516.23,438.88 516.23,438.87 513.22,438.87 513.22,438.86 510.21,438.86 510.21,438.84 507.19,438.84 507.19,438.8 504.18,438.8 504.18,438.75 501.16,438.75 501.16,438.7 498.15,438.7 498.15,438.63 495.14,438.63 495.14,438.55 492.12,438.55 492.12,438.46 489.11,438.46 489.11,438.35 486.1,438.35 486.1,438.24 483.08,438.24 483.08,438.12 480.07,438.12 480.07,437.98 477.05,437.98 477.05,437.84 474.04,437.84 474.04,437.68 471.03,437.68 471.03,437.51 468.01,437.51 468.01,437.33 465,437.33 465,437.14 461.99,437.14 461.99,436.94 458.97,436.94 458.97,436.73 455.96,436.73 455.96,436.51 452.95,436.51 452.95,436.28 449.93,436.28 449.93,436.04 446.92,436.04 446.92,435.79 443.9,435.79 443.9,435.52 440.89,435.52 440.89,435.25 437.88,435.25 437.88,434.97 434.86,434.97 434.86,434.68 431.85,434.68 431.85,434.38 428.84,434.38 428.84,434.07 425.82,434.07 425.82,433.75 422.81,433.75 422.81,433.42 419.79,433.42 419.79,433.08 416.78,433.08 416.78,432.74 413.77,432.74 413.77,432.38 410.75,432.38 410.75,432.02 407.74,432.02 407.74,431.65 404.73,431.65 404.73,431.27 401.71,431.27 401.71,430.89 398.7,430.89 398.7,430.5 395.68,430.5 395.68,430.1 392.67,430.1 392.67,429.69 389.66,429.69 389.66,429.28 386.64,429.28 386.64,428.86 383.63,428.86 383.63,428.43 380.62,428.43 380.62,428 377.6,428 377.6,427.56 374.59,427.56 374.59,427.11 371.58,427.11 371.58,426.66 368.56,426.66 368.56,426.2 365.55,426.2 365.55,425.74 362.53,425.74 362.53,425.28 359.52,425.28 359.52,424.8 356.51,424.8 356.51,424.33 353.49,424.33 353.49,423.84 350.48,423.84 350.48,423.36 347.47,423.36 347.47,422.87 344.45,422.87 344.45,422.37 341.44,422.37 341.44,421.87 338.42,421.87 338.42,421.37 335.41,421.37 335.41,420.87 332.4,420.87 332.4,420.36 329.38,420.36 329.38,419.84 326.37,419.84 326.37,419.33 323.36,419.33 323.36,418.81 320.34,418.81 320.34,418.29 317.33,418.29 317.33,417.77 314.32,417.77 314.32,417.25 311.3,417.25 311.3,416.72 308.29,416.72 308.29,416.19 305.27,416.19 305.27,415.66 302.26,415.66 302.26,415.13 299.25,415.13 299.25,414.6 296.23,414.6 296.23,414.07 293.22,414.07 293.22,413.54 290.21,413.54 290.21,413 287.19,413 287.19,412.47 284.18,412.47 284.18,411.94 281.16,411.94 281.16,411.4 278.15,411.4 278.15,410.87 275.14,410.87 275.14,410.34 272.12,410.34 272.12,409.8 269.11,409.8 269.11,409.27 266.1,409.27 266.1,408.74 263.08,408.74 263.08,408.21 260.07,408.21 260.07,407.68 257.05,407.68 257.05,407.15 254.04,407.15 254.04,406.62 251.03,406.62 251.03,406.1 248.01,406.1 248.01,405.58 245,405.58 245,405.06 241.99,405.06 241.99,404.54 238.97,404.54 238.97,404.02 235.96,404.02 235.96,403.51 232.95,403.51 232.95,403 229.93,403 229.93,402.49 226.92,402.49 226.92,424.91 223.9,424.91 223.9,424.41 220.89,424.41 220.89,423.91 217.88,423.91 217.88,423.42 214.86,423.42 214.86,422.94 211.85,422.94 211.85,422.45 208.84,422.45 208.84,421.97 205.82,421.97 205.82,421.5 202.81,421.5 202.81,421.03 199.79,421.03 199.79,420.57 196.78,420.57 196.78,420.11 193.77,420.11 193.77,419.66 190.75,419.66 190.75,419.21 187.74,419.21 187.74,418.77 184.73,418.77 184.73,418.33 181.71,418.33 181.71,417.9 178.7,417.9 178.7,417.48 175.68,417.48 175.68,417.06 172.67,417.06 172.67,416.65 169.66,416.65 169.66,416.25 166.64,416.25 166.64,415.85 163.63,415.85 163.63,415.46 160.62,415.46 160.62,415.08 157.6,415.08 157.6,414.71 154.59,414.71 154.59,414.34 151.58,414.34 151.58,413.98 148.56,413.98 148.56,413.63 145.55,413.63 145.55,413.29 142.53,413.29 142.53,412.95 139.52,412.95 139.52,412.63 136.51,412.63 136.51,412.31 133.49,412.31 133.49,412.01 130.48,412.01 130.48,411.71 127.47,411.71 127.47,411.42 124.45,411.42 124.45,411.15 121.44,411.15 121.44,410.88 118.42,410.88 118.42,410.62 115.41,410.62 115.41,410.37 112.4,410.37 112.4,410.13 109.38,410.13 109.38,409.9 106.37,409.9 106.37,409.69 103.36,409.69 103.36,409.48 100.34,409.48 100.34,409.28 97.33,409.28 97.33,409.1 94.32,409.1 94.32,408.92 91.3,408.92 91.3,408.75 88.29,408.75 88.29,408.6 85.27,408.6 85.27,408.46 82.26,408.46 82.26,408.33 79.25,408.33 79.25,408.21 76.23,408.21 76.23,408.1 73.22,408.1 73.22,408 70.21,408 70.21,407.91 67.19,407.91 67.19,407.84 64.18,407.84 64.18,407.77 61.16,407.77 61.16,407.72 58.15,407.72 58.15,407.68 55.14,407.68 55.14,407.65 52.12,407.65 52.12,407.63 49.11,407.63 49.11,407.62 46.1,407.62 46.1,407.63 43.08,407.63 43.08,407.65 40.07,407.65 40.07,407.67 37.05,407.67 37.05,407.71 34.04,407.71 34.04,407.76 31.03,407.76 31.03,407.83 28.01,407.83 28.01,407.9" fill="#0060c0" stroke="none" stroke-width="0"/>
<polygon points="25,397.28 25,170.2 28.01,170.2 28.01,169.91 31.03,169.91 31.03,169.6 34.04,169.6 34.04,169.29 37.05,169.29 37.05,168.97 40.07,168.97 40.07,168.65 43.08,168.65 43.08,168.32 46.1,168.32 46.1,167.99 49.11,167.99 49.11,167.65 52.12,167.65 52.12,167.31 55.14,167.31 55.14,166.96 58.15,166.96 58.15,166.61 61.16,166.61 61.16,166.25 64.18,166.25 64.18,165.89 67.19,165.89 67.19,165.53 70.21,165.53 70.21,165.17 73.22,165.17 73.22,164.8 76.23,164.8 76.23,164.43 79.25,164.43 79.25,164.05 82.26,164.05 82.26,163.68 85.27,163.68 85.27,163.3 88.29,163.3 88.29,162.92 91.3,162.92 91.3,162.54 94.32,162.54 94.32,162.16 97.33,162.16 97.33,161.78 100.34,161.78 100.34,161.4 103.36,161.4 103.36,161.01 106.37,161.01 106.37,160.63 109.38,160.63 109.38,160.25 112.4,160.25 112.4,159.86 115.41,159.86 115.41,159.48 118.42,159.48 118.42,159.1 121.44,159.1 121.44,158.72 124.45,158.72 124.45,158.34 127.47,158.34 127.47,157.96 130.48,157.96 130.48,157.58 133.49,157.58 133.49,157.21 136.51,157.21 136.51,156.83 139.52,156.83 139.52,156.46 142.53,156.46 142.53,156.09 145.55,156.09 145.55,155.72 148.56,155.72 148.56,155.35 151.58,155.35 151.58,154.99 154.59,154.99 154.59,154.62 157.6,154.62 157.6,154.26 160.62,154.26 160.62,153.9 163.63,153.9 163.63,153.55 166.64,153.55 166.64,153.19 169.66,153.19 169.66,152.84 172.67,152.84 172.67,152.49 175.68,152.49 175.68,152.14 178.7,152.14 178.7,151.79 181.71,151.79 181.71,151.44 184.73,151.44 184.73,151.1 187.74,151.1 187.74,150.76 190.75,150.76 190.75,150.42 193.77,150.42 193.77,150.08 196.78,150.08 196.78,149.75 199.79,149.75 199.79,149.42 202.81,149.42 202.81,149.09 205.82,149.09 205.82,148.76 208.84,148.76 208.84,148.43 211.85,148.43 211.85,148.11 214.86,148.11 214.86,147.79 217.88,147.79 217.88,147.47 220.89,147.47 220.89,147.15 223.9,147.15 223.9,146.83 226.92,146.83 226.92,123.6 229.93,123.6 229.93,123.29 232.95,123.29 232.95,122.98 235.96,122.98 235.96,122.67 238.97,122.67 238.97,122.36 241.99,122.36 241.99,122.05 245,122.05 245,121.75 248.01,121.75 248.01,121.44 251.03,121.44 251.03,121.14 254.04,121.14 254.04,120.84 257.05,120.84 257.05,120.54 260.07,120.54 260.07,120.23 263.08,120.23 263.08,119.94 266.1,119.94 266.1,119.64 269.11,119.64 269.11,119.34 272.12,119.34 272.12,119.04 275.14,119.04 275.14,118.74 278.15,118.74 278.15,118.44 281.16,118.44 281.16,118.15 284.18,118.15 284.18,117.85 287.19,117.85 287.19,117.55 290.21,117.55 290.21,117.26 293.22,117.26 293.22,116.96 296.23,116.96 296.23,116.67 299.25,116.67 299.25,116.37 302.26,116.37 302.26,116.08 305.27,116.08 305.27,115.78 308.29,115.78 308.29,115.49 311.3,115.49 311.3,115.19 314.32,115.19 314.32,114.89 317.33,114.89 317.33,114.6 320.34,114.6 320.34,114.3 323.36,114.3 323.36,114.01 326.37,114.01 326.37,113.71 329.38,113.71 329.38,113.41 332.4,113.41 332.4,113.12 335.41,113.12 335.41,112.82 338.42,112.82 338.42,112.52 341.44,112.52 341.44,112.22 344.45,112.22 344.45,111.92 347.47,111.92 347.47,111.62 350.48,111.62 350.48,111.32 353.49,111.32 353.49,111.02 356.51,111.02 356.51,110.72 359.52,110.72 359.52,110.42 362.53,110.42 362.53,110.12 365.55,110.12 365.55,109.81 368.56,109.81 368.56,109.51 371.58,109.51 371.58,109.21 374.59,109.21 374.59,108.9 377.6,108.9 377.6,108.6 380.62,108.6 380.62,108.3 383.63,108.3 383.63,107.99 386.64,107.99 386.64,107.69 389.66,107.69 389.66,107.38 392.67,107.38 392.67,107.08 395.68,107.08 395.68,106.78 398.7,106.78 398.7,106.48 401.71,106.48 401.71,106.18 404.73,106.18 404.73,105.88 407.74,105.88 407.74,105.58 410.75,105.58 410.75,105.28 413.77,105.28 413.77,104.98 416.78,104.98 416.78,104.68 419.79,104.68 419.79,104.39 422.81,104.39 422.81,104.09 425.82,104.09 425.82,103.8 428.84,103.8 428.84,103.51 431.85,103.51 431.85,103.22 434.86,103.22 434.86,102.94 437.88,102.94 437.88,102.65 440.89,102.65 440.89,102.37 443.9,102.37 443.9,102.09 446.92,102.09 446.92,101.82 449.93,101.82 449.93,101.54 452.95,101.54 452.95,101.27 455.96,101.27 455.96,101.01 458.97,101.01 458.97,100.74 461.99,100.74 461.99,100.48 465,100.48 465,100.23 468.01,100.23 468.01,99.98 471.03,99.98 471.03,99.73 474.04,99.73 474.04,99.49 477.05,99.49 477.05,99.26 480.07,99.26 480.07,99.03 483.08,99.03 483.08,98.8 486.1,98.8 486.1,98.58 489.11,98.58 489.11,98.37 492.12,98.37 492.12,98.17 495.14,98.17 495.14,97.97 498.15,97.97 498.15,97.77 501.16,97.77 501.16,97.59 504.18,97.59 504.18,97.41 507.19,97.41 507.19,97.24 510.21,97.24 510.21,97.08 513.22,97.08 513.22,96.92 516.23,96.92 516.23,96.77 519.25,96.77 519.25,96.63 522.26,96.63 522.26,96.5 525.27,96.5 525.27,96.38 528.29,96.38 528.29,96.26 531.3,96.26 531.3,96.16 534.32,96.16 534.32,96.06 537.33,96.06 537.33,95.97 540.34,95.97 540.34,95.89 543.36,95.89 543.36,95.82 546.37,95.82 546.37,95.76 549.38,95.76 549.38,95.71 552.4,95.71 552.4,95.67 555.41,95.67 555.41,95.64 558.42,95.64 558.42,95.62 561.44,95.62 561.44,95.61 564.45,95.61 564.45,95.61 567.47,95.61 567.47,95.62 570.48,95.62 570.48,95.64 573.49,95.64 573.49,95.67 576.51,95.67 576.51,95.72 579.52,95.72 579.52,95.77 582.53,95.77 582.53,95.83 585.55,95.83 585.55,95.91 588.56,95.91 588.56,95.99 591.58,95.99 591.58,96.09 594.59,96.09 594.59,96.2 597.6,96.2 597.6,96.31 600.62,96.31 600.62,96.44 603.63,96.44 603.63,96.58 606.64,96.58 606.64,96.73 609.66,96.73 609.66,96.89 612.67,96.89 612.67,97.06 615.68,97.06 615.68,97.23 618.7,97.23 618.7,97.42 621.71,97.42 621.71,97.62 624.73,97.62 624.73,97.83 627.74,97.83 627.74,98.05 630.75,98.05 630.75,98.28 633.77,98.28 633.77,98.52 636.78,98.52 636.78,98.77 639.79,98.77 639.79,99.03 642.81,99.03 642.81,99.3 645.82,99.3 645.82,99.57 648.84,99.57 648.84,99.86 651.85,99.86 651.85,100.16 654.86,100.16 654.86,100.46 657.88,100.46 657.88,100.77 660.89,100.77 660.89,101.1 663.9,101.1 663.9,101.43 666.92,101.43 666.92,101.77 669.93,101.77 669.93,102.12 672.95,102.12 672.95,102.47 675.96,102.47 675.96,102.84 678.97,102.84 678.97,103.21 681.99,103.21 681.99,103.59 685,103.59 685,103.98 688.01,103.98 688.01,104.37 691.03,104.37 691.03,104.77 694.04,104.77 694.04,105.18 697.05,105.18 697.05,105.6 700.07,105.6 700.07,106.02 703.08,106.02 703.08,106.45 706.1,106.45 706.1,106.88 709.11,106.88 709.11,107.32 712.12,107.32 712.12,107.77 715.14,107.77 715.14,108.22 718.15,108.22 718.15,108.68 721.16,108.68 721.16,109.14 724.18,109.14 724.18,109.61 727.19,109.61 727.19,110.08 730.21,110.08 730.21,110.56 733.22,110.56 733.22,111.04 736.23,111.04 736.23,111.53 739.25,111.53 739.25,112.02 742.26,112.02 742.26,112.52 745.27,112.52 745.27,113.02 748.29,113.02 748.29,113.52 751.3,113.52 751.3,114.03 754.32,114.03 754.32,114.54 757.33,114.54 757.33,115.06 760.34,115.06 760.34,115.57 763.36,115.57 763.36,116.09 766.37,116.09 766.37,116.62 769.38,116.62 769.38,117.14 772.4,117.14 772.4,117.67 775.41,117.67 775.41,118.2 778.42,118.2 778.42,118.73 781.44,118.73 781.44,119.27 784.45,119.27 784.45,119.8 787.47,119.8 787.47,120.34 790.48,120.34 790.48,120.88 793.49,120.88 793.49,121.42 796.51,121.42 796.51,121.96 799.52,121.96 799.52,122.5 802.53,122.5 802.53,123.04 805.55,123.04 805.55,123.59 808.56,123.59 808.56,124.13 811.58,124.13 811.58,124.67 814.59,124.67 814.59,125.21 817.6,125.21 817.6,125.75 820.62,125.75 820.62,126.29 823.63,126.29 823.63,126.83 826.64,126.83 826.64,127.37 829.66,127.37 829.66,127.91 832.67,127.91 832.67,128.45 835.68,128.45 835.68,128.99 838.7,128.99 838.7,129.52 841.71,129.52 841.71,130.05 844.73,130.05 844.73,130.58 847.74,130.58 847.74,131.11 850.75,131.11 850.75,131.64 853.77,131.64 853.77,132.16 856.78,132.16 856.78,132.68 859.79,132.68 859.79,133.2 862.81,133.2 862.81,133.72 865.82,133.72 865.82,134.23 868.84,134.23 868.84,134.74 871.85,134.74 871.85,135.24 874.86,135.24 874.86,135.74 877.88,135.74 877.88,136.24 880.89,136.24 880.89,136.73 883.9,136.73 883.9,137.22 886.92,137.22 886.92,137.7 889.93,137.7 889.93,138.18 892.95,138.18 892.95,138.65 895.96,138.65 895.96,139.12 898.97,139.12 898.97,139.58 901.99,139.58 901.99,140.04 905,140.04 905,140.49 908.01,140.49 908.01,140.94 911.03,140.94 911.03,141.37 914.04,141.37 914.04,141.81 917.05,141.81 917.05,142.23 920.07,142.23 920.07,142.65 923.08,142.65 923.08,143.06 926.1,143.06 926.1,143.47 929.11,143.47 929.11,143.86 932.12,143.86 932.12,144.25 935.14,144.25 935.14,144.64 938.15,144.64 938.15,145.01 941.16,145.01 941.16,145.38 944.18,145.38 944.18,168.65 947.19,168.65 947.19,169 950.21,169 950.21,169.34 953.22,169.34 953.22,169.67 956.23,169.67 956.23,169.99 959.25,169.99 959.25,170.31 962.26,170.31 962.26,170.61 965.27,170.61 965.27,170.9 968.29,170.9 968.29,171.19 971.3,171.19 971.3,171.46 974.32,171.46 974.32,171.72 977.33,171.72 977.33,171.98 980.34,171.98 980.34,172.22 983.36,172.22 983.36,172.45 986.37,172.45 986.37,172.67 989.38,172.67 989.38,172.88 992.4,172.88 992.4,173.08 995.41,173.08 995.41,173.26 998.42,173.26 998.42,173.44 1001.44,173.44 1001.44,173.6 1004.45,173.6 1004.45,173.76 1007.47,173.76 1007.47,173.9 1010.48,173.9 1010.48,174.03 1013.49,174.03 1013.49,174.14 1016.51,174.14 1016.51,174.25 1019.52,174.25 1019.52,174.34 1022.53,174.34 1022.53,174.42 1025.55,174.42 1025.55,174.49 1028.56,174.49 1028.56,174.55 1031.58,174.55 1031.58,174.6 1034.59,174.6 1034.59,174.63 1037.6,174.63 1037.6,174.65 1040.62,174.65 1040.62,174.66 1043.63,174.66 1043.63,174.65 1046.64,174.65 1046.64,174.64 1049.66,174.64 1049.66,174.61 1052.67,174.61 1052.67,174.57 1055.68,174.57 1055.68,174.52 1058.7,174.52 1058.7,174.45 1061.71,174.45 1061.71,174.37 1064.73,174.37 1064.73,174.29 1067.74,174.29 1067.74,174.19 1070.75,174.19 1070.75,174.07 1073.77,174.07 1073.77,173.95 1076.78,173.95 1076.78,173.81 1079.79,173.81 1079.79,173.67 1082.81,173.67 1082.81,173.51 1085.82,173.51 1085.82,173.34 1088.84,173.34 1088.84,173.16 1091.85,173.16 1091.85,172.97 1094.86,172.97 1094.86,172.77 1097.88,172.77 1097.88,172.56 1100.89,172.56 1100.89,172.34 1103.9,172.34 1103.9,172.11 1106.92,172.11 1106.92,171.88 1109.93,171.88 1109.93,171.63 1112.95,171.63 1112.95,171.38 1115.96,171.38 1115.96,171.11 1118.97,171.11 1118.97,170.84 1121.99,170.84 1121.99,170.56 1125,170.56 1125,397.37 1121.99,397.37 1121.99,397.46 1118.97,397.46 1118.97,397.56 1115.96,397.56 1115.96,397.67 1112.95,397.67 1112.95,397.79 1109.93,397.79 1109.93,397.92 1106.92,397.92 1106.92,398.07 1103.9,398.07 1103.9,398.22 1100.89,398.22 1100.89,398.39 1097.88,398.39 1097.88,398.56 1094.86,398.56 1094.86,398.75 1091.85,398.75 1091.85,398.94 1088.84,398.94 1088.84,399.15 1085.82,399.15 1085.82,399.36 1082.81,399.36 1082.81,399.59 1079.79,399.59 1079.79,399.82 1076.78,399.82 1076.78,400.06 1073.77,400.06 1073.77,400.31 1070.75,400.31 1070.75,400.57 1067.74,400.57 1067.74,400.83 1064.73,400.83 1064.73,401.1 1061.71,401.1 1061.71,401.38 1058.7,401.38 1058.7,401.67 1055.68,401.67 1055.68,401.96 1052.67,401.96 1052.67,402.26 1049.66,402.26 1049.66,402.56 1046.64,402.56 1046.64,402.87 1043.63,402.87 1043.63,403.19 1040.62,403.19 1040.62,403.51 1037.6,403.51 1037.6,403.83 1034.59,403.83 1034.59,404.16 1031.58,404.16 1031.58,404.5 1028.56,404.5 1028.56,404.84 1025.55,404.84 1025.55,405.18 1022.53,405.18 1022.53,405.53 1019.52,405.53 1019.52,405.87 1016.51,405.87 1016.51,406.23 1013.49,406.23 1013.49,406.58 1010.48,406.58 1010.48,406.94 1007.47,406.94 1007.47,407.3 1004.45,407.3 1004.45,407.66 1001.44,407.66 1001.44,408.02 998.42,408.02 998.42,408.38 995.41,408.38 995.41,408.75 992.4,408.75 992.4,409.11 989.38,409.11 989.38,409.48 986.37,409.48 986.37,409.84 983.36,409.84 983.36,410.21 980.34,410.21 980.34,410.57 977.33,410.57 977.33,410.94 974.32,410.94 974.32,411.3 971.3,411.3 971.3,411.66 968.29,411.66 968.29,412.02 965.27,412.02 965.27,412.39 962.26,412.39 962.26,412.75 959.25,412.75 959.25,413.1 956.23,413.1 956.23,413.46 953.22,413.46 953.22,413.82 950.21,413.82 950.21,414.17 947.19,414.17 947.19,414.52 944.18,414.52 944.18,391.96 941.16,391.96 941.16,392.3 938.15,392.3 938.15,392.65 935.14,392.65 935.14,393 932.12,393 932.12,393.34 929.11,393.34 929.11,393.68 926.1,393.68 926.1,394.02 923.08,394.02 923.08,394.36 920.07,394.36 920.07,394.69 917.05,394.69 917.05,395.02 914.04,395.02 914.04,395.35 911.03,395.35 911.03,395.68 908.01,395.68 908.01,396.01 905,396.01 905,396.33 901.99,396.33 901.99,396.65 898.97,396.65 898.97,396.97 895.96,396.97 895.96,397.28 892.95,397.28 892.95,397.59 889.93,397.59 889.93,397.91 886.92,397.91 886.92,398.21 883.9,398.21 883.9,398.52 880.89,398.52 880.89,398.82 877.88,398.82 877.88,399.12 874.86,399.12 874.86,399.42 871.85,399.42 871.85,399.72 868.84,399.72 868.84,400.01 865.82,400.01 865.82,400.31 862.81,400.31 862.81,400.6 859.79,400.6 859.79,400.89 856.78,400.89 856.78,401.18 853.77,401.18 853.77,401.46 850.75,401.46 850.75,401.75 847.74,401.75 847.74,402.03 844.73,402.03 844.73,402.31 841.71,402.31 841.71,402.59 838.7,402.59 838.7,402.87 835.68,402.87 835.68,403.15 832.67,403.15 832.67,403.43 829.66,403.43 829.66,403.7 826.64,403.7 826.64,403.98 823.63,403.98 823.63,404.25 820.62,404.25 820.62,404.53 817.6,404.53 817.6,404.8 814.59,404.8 814.59,405.07 811.58,405.07 811.58,405.34 808.56,405.34 808.56,405.61 805.55,405.61 805.55,405.88 802.53,405.88 802.53,406.15 799.52,406.15 799.52,406.42 796.51,406.42 796.51,406.69 793.49,406.69 793.49,406.96 790.48,406.96 790.48,407.22 787.47,407.22 787.47,407.49 784.45,407.49 784.45,407.76 781.44,407.76 781.44,408.03 778.42,408.03 778.42,408.29 775.41,408.29 775.41,408.56 772.4,408.56 772.4,408.83 769.38,408.83 769.38,409.1 766.37,409.1 766.37,409.37 763.36,409.37 763.36,409.64 760.34,409.64 760.34,409.91 757.33,409.91 757.33,410.18 754.32,410.18 754.32,410.45 751.3,410.45 751.3,410.72 748.29,410.72 748.29,410.99 745.27,410.99 745.27,411.27 742.26,411.27 742.26,411.54 739.25,411.54 739.25,411.82 736.23,411.82 736.23,412.09 733.22,412.09 733.22,412.37 730.21,412.37 730.21,412.64 727.19,412.64 727.19,412.92 724.18,412.92 724.18,413.2 721.16,413.2 721.16,413.48 718.15,413.48 718.15,413.76 715.14,413.76 715.14,414.04 712.12,414.04 712.12,414.32 709.11,414.32 709.11,414.6 706.1,414.6 706.1,414.88 703.08,414.88 703.08,415.16 700.07,415.16 700.07,415.44 697.05,415.44 697.05,415.72 694.04,415.72 694.04,416 691.03,416 691.03,416.29 688.01,416.29 688.01,416.57 685,416.57 685,416.85 681.99,416.85 681.99,417.13 678.97,417.13 678.97,417.41 675.96,417.41 675.96,417.7 672.95,417.7 672.95,417.98 669.93,417.98 669.93,418.26 666.92,418.26 666.92,418.54 663.9,418.54 663.9,418.82 660.89,418.82 660.89,419.1 657.88,419.1 657.88,419.37 654.86,419.37 654.86,419.65 651.85,419.65 651.85,419.93 648.84,419.93 648.84,420.2 645.82,420.2 645.82,420.47 642.81,420.47 642.81,420.75 639.79,420.75 639.79,421.01 636.78,421.01 636.78,421.28 633.77,421.28 633.77,421.54 630.75,421.54 630.75,421.81 627.74,421.81 627.74,422.06 624.73,422.06 624.73,422.32 621.71,422.32 621.71,422.57 618.7,422.57 618.7,422.82 615.68,422.82 615.68,423.06 612.67,423.06 612.67,423.3 609.66,423.3 609.66,423.54 606.64,423.54 606.64,423.77 603.63,423.77 603.63,424 600.62,424 600.62,424.22 597.6,424.22 597.6,424.44 594.59,424.44 594.59,424.65 591.58,424.65 591.58,424.86 588.56,424.86 588.56,425.06 585.55,425.06 585.55,425.25 582.53,425.25 582.53,425.44 579.52,425.44 579.52,425.63 576.51,425.63 576.51,425.8 573.49,425.8 573.49,425.98 570.48,425.98 570.48,426.14 567.47,426.14 567.47,426.3 564.45,426.3 564.45,426.44 561.44,426.44 561.44,426.59 558.42,426.59 558.42,426.72 555.41,426.72 555.41,426.85 552.4,426.85 552.4,426.96 549.38,426.96 549.38,427.07 546.37,427.07 546.37,427.17 543.36,427.17 543.36,427.27 540.34,427.27 540.34,427.35 537.33,427.35 537.33,427.42 534.32,427.42 534.32,427.49 531.3,427.49 531.3,427.54 528.29,427.54 528.29,427.59 525.27,427.59 525.27,427.62 522.26,427.62 522.26,427.65 519.25,427.65 519.25,427.67 516.23,427.67 516.23,427.67 513.22,427.67 513.22,427.67 510.21,427.67 510.21,427.66 507.19,427.66 507.19,427.63 504.18,427.63 504.18,427.6 501.16,427.6 501.16,427.55 498.15,427.55 498.15,427.5 495.14,427.5 495.14,427.43 492.12,427.43 492.12,427.36 489.11,427.36 489.11,427.28 486.1,427.28 486.1,427.18 483.08,427.18 483.08,427.08 480.07,427.08 480.07,426.96 477.05,426.96 477.05,426.83 474.04,426.83 474.04,426.7 471.03,426.7 471.03,426.55 468.01,426.55 468.01,426.4 465,426.4 465,426.23 461.99,426.23 461.99,426.05 458.97,426.05 458.97,425.87 455.96,425.87 455.96,425.67 452.95,425.67 452.95,425.46 449.93,425.46 449.93,425.25 446.92,425.25 446.92,425.02 443.9,425.02 443.9,424.78 440.89,424.78 440.89,424.54 437.88,424.54 437.88,424.28 434.86,424.28 434.86,424.02 431.85,424.02 431.85,423.74 428.84,423.74 428.84,423.46 425.82,423.46 425.82,423.17 422.81,423.17 422.81,422.87 419.79,422.87 419.79,422.56 416.78,422.56 416.78,422.24 413.77,422.24 413.77,421.91 410.75,421.91 410.75,421.58 407.74,421.58 407.74,421.24 404.73,421.24 404.73,420.89 401.71,420.89 401.71,420.53 398.7,420.53 398.7,420.16 395.68,420.16 395.68,419.79 392.67,419.79 392.67,419.41 389.66,419.41 389.66,419.02 386.64,419.02 386.64,418.63 383.63,418.63 383.63,418.23 380.62,418.23 380.62,417.82 377.6,417.82 377.6,417.41 374.59,417.41 374.59,416.99 371.58,416.99 371.58,416.56 368.56,416.56 368.56,416.13 365.55,416.13 365.55,415.69 362.53,415.69 362.53,415.24 359.52,415.24 359.52,414.8 356.51,414.8 356.51,414.34 353.49,414.34 353.49,413.88 350.48,413.88 350.48,413.42 347.47,413.42 347.47,412.95 344.45,412.95 344.45,412.47 341.44,412.47 341.44,411.99 338.42,411.99 338.42,411.51 335.41,411.51 335.41,411.02 332.4,411.02 332.4,410.53 329.38,410.53 329.38,410.04 326.37,410.04 326.37,409.54 323.36,409.54 323.36,409.04 320.34,409.04 320.34,408.54 317.33,408.54 317.33,408.03 314.32,408.03 314.32,407.52 311.3,407.52 311.3,407.01 308.29,407.01 308.29,406.5 305.27,406.5 305.27,405.98 302.26,405.98 302.26,405.46 299.25,405.46 299.25,404.94 296.23,404.94 296.23,404.42 293.22,404.42 293.22,403.9 290.21,403.9 290.21,403.38 287.19,403.38 287.19,402.85 284.18,402.85 284.18,402.33 281.16,402.33 281.16,401.8 278.15,401.8 278.15,401.27 275.14,401.27 275.14,400.75 272.12,400.75 272.12,400.22 269.11,400.22 269.11,399.69 266.1,399.69 266.1,399.16 263.08,399.16 263.08,398.64 260.07,398.64 260.07,398.11 257.05,398.11 257.05,397.59 254.04,397.59 254.04,397.06 251.03,397.06 251.03,396.54 248.01,396.54 248.01,396.02 245,396.02 245,395.49 241.99,395.49 241.99,394.98 238.97,394.98 238.97,394.46 235.96,394.46 235.96,393.94 232.95,393.94 232.95,393.43 229.93,393.43 229.93,392.92 226.92,392.92 226.92,415.33 223.9,415.33 223.9,414.83 220.89,414.83 220.89,414.33 217.88,414.33 217.88,413.83 214.86,413.83 214.86,413.33 211.85,413.33 211.85,412.84 208.84,412.84 208.84,412.36 205.82,412.36 205.82,411.87 202.81,411.87 202.81,411.4 199.79,411.4 199.79,410.92 196.78,410.92 196.78,410.45 193.77,410.45 193.77,409.99 190.75,409.99 190.75,409.53 187.74,409.53 187.74,409.08 184.73,409.08 184.73,408.63 181.71,408.63 181.71,408.19 178.7,408.19 178.7,407.75 175.68,407.75 175.68,407.32 172.67,407.32 172.67,406.89 169.66,406.89 169.66,406.47 166.64,406.47 166.64,406.06 163.63,406.06 163.63,405.65 160.62,405.65 160.62,405.26 157.6,405.26 157.6,404.86 154.59,404.86 154.59,404.48 151.58,404.48 151.58,404.1 148.56,404.1 148.56,403.74 145.55,403.74 145.55,403.38 142.53,403.38 142.53,403.02 139.52,403.02 139.52,402.68 136.51,402.68 136.51,402.34 133.49,402.34 133.49,402.02 130.48,402.02 130.48,401.7 127.47,401.7 127.47,401.39 124.45,401.39 124.45,401.09 121.44,401.09 121.44,400.81 118.42,400.81 118.42,400.53 115.41,400.53 115.41,400.26 112.4,400.26 112.4,400 109.38,400 109.38,399.75 106.37,399.75 106.37,399.51 103.36,399.51 103.36,399.28 100.34,399.28 100.34,399.07 97.33,399.07 97.33,398.86 94.32,398.86 94.32,398.66 91.3,398.66 91.3,398.48 88.29,398.48 88.29,398.3 85.27,398.3 85.27,398.14 82.26,398.14 82.26,397.99 79.25,397.99 79.25,397.85 76.23,397.85 76.23,397.72 73.22,397.72 73.22,397.6 70.21,397.6 70.21,397.5 67.19,397.5 67.19,397.4 64.18,397.4 64.18,397.32 61.16,397.32 61.16,397.25 58.15,397.25 58.15,397.19 55.14,397.19 55.14,397.15 52.12,397.15 52.12,397.12 49.11,397.12 49.11,397.09 46.1,397.09 46.1,397.08 43.08,397.08 43.08,397.09 40.07,397.09 40.07,397.1 37.05,397.1 37.05,397.13 34.04,397.13 34.04,397.17 31.03,397.17 31.03,397.22 28.01,397.22 28.01,397.28" fill="#80c0ff" stroke="none" stroke-width="0"/>
<polyline points="26.51,558.85 29.52,558.68 32.53,558.5 35.55,558.33 38.56,558.15 41.58,557.99 44.59,557.82 47.6,557.66 50.62,557.5 53.63,557.34 56.64,557.19 59.66,557.05 62.67,556.9 65.68,556.76 68.7,556.63 71.71,556.5 74.73,556.37 77.74,556.25 80.75,556.13 83.77,556.02 86.78,555.91 89.79,555.81 92.81,555.71 95.82,555.62 98.84,555.53 101.85,555.44 104.86,555.37 107.88,555.29 110.89,555.22 113.9,555.16 116.92,555.1 119.93,555.05 122.95,555 125.96,554.96 128.97,554.92 131.99,554.89 135,554.87 138.01,554.84 141.03,554.83 144.04,554.82 147.05,554.81 150.07,554.81 153.08,554.82 156.1,554.82 159.11,554.84 162.12,554.86 165.14,554.88 168.15,554.91 171.16,554.94 174.18,554.97 177.19,555.01 180.21,555.06 183.22,555.1 186.23,555.16 189.25,555.21 192.26,555.27 195.27,555.33 198.29,555.4 201.3,555.47 204.32,555.54 207.33,555.62 210.34,555.7 213.36,555.78 216.37,555.86 219.38,555.95 222.4,556.04 225.41,556.13 228.42,556.23" fill="none" stroke="#0000ff" stroke-width="1"/>
<polyline points="231.44,533.41 234.45,533.51 237.47,533.61 240.48,533.72 243.49,533.82 246.51,533.93 249.52,534.04 252.53,534.15 255.55,534.26 258.56,534.37 261.58,534.48 264.59,534.6 267.6,534.71 270.62,534.83 273.63,534.94 276.64,535.06 279.66,535.17 282.67,535.29 285.68,535.4 288.7,535.52 291.71,535.63 294.73,535.74 297.74,535.86 300.75,535.97 303.77,536.08 306.78,536.19 309.79,536.3 312.81,536.41 315.82,536.52 318.84,536.62 321.85,536.73 324.86,536.83 327.88,536.93 330.89,537.03 333.9,537.13 336.92,537.22 339.93,537.32 342.95,537.41 345.96,537.5 348.97,537.58 351.99,537.67 355,537.75 358.01,537.83 361.03,537.9 364.04,537.97 367.05,538.04 370.07,538.11 373.08,538.17 376.1,538.23 379.11,538.28 382.12,538.34 385.14,538.39 388.15,538.43 391.16,538.47 394.18,538.51 397.19,538.55 400.21,538.58 403.22,538.61 406.23,538.64 409.25,538.66 412.26,538.68 415.27,538.69 418.29,538.7 421.3,538.71 424.32,538.72 427.33,538.72 430.34,538.71 433.36,538.71 436.37,538.7 439.38,538.68 442.4,538.66 445.41,538.64 448.42,538.62 451.44,538.59 454.45,538.56 457.47,538.52 460.48,538.48 463.49,538.44 466.51,538.4 469.52,538.35 472.53,538.3 475.55,538.25 478.56,538.19 481.58,538.13 484.59,538.07 487.6,538.01 490.62,537.94 493.63,537.88 496.64,537.81 499.66,537.74 502.67,537.66 505.68,537.59 508.7,537.51 511.71,537.44 514.73,537.36 517.74,537.28 520.75,537.2 523.77,537.12 526.78,537.04 529.79,536.95 532.81,536.87 535.82,536.79 538.84,536.7 541.85,536.62 544.86,536.53 547.88,536.45 550.89,536.37 553.9,536.29 556.92,536.21 559.93,536.12 562.95,536.05 565.96,535.97 568.97,535.89 571.99,535.82 575,535.74 578.01,535.67 581.03,535.6 584.04,535.54 587.05,535.47 590.07,535.41 593.08,535.35 596.1,535.3 599.11,535.24 602.12,535.19 605.14,535.14 608.15,535.1 611.16,535.06 614.18,535.02 617.19,534.98 620.21,534.95 623.22,534.92 626.23,534.89 629.25,534.87 632.26,534.85 635.27,534.83 638.29,534.82 641.3,534.81 644.32,534.81 647.33,534.81 650.34,534.81 653.36,534.82 656.37,534.83 659.38,534.84 662.4,534.86 665.41,534.88 668.42,534.91 671.44,534.94 674.45,534.97 677.47,535.01 680.48,535.05 683.49,535.1 686.51,535.15 689.52,535.2 692.53,535.26 695.55,535.32 698.56,535.39 701.58,535.45 704.59,535.53 707.6,535.6 710.62,535.68 713.63,535.76 716.64,535.84 719.66,535.93 722.67,536.02 725.68,536.12 728.7,536.21 731.71,536.31 734.73,536.41 737.74,536.52 740.75,536.62 743.77,536.73 746.78,536.84 749.79,536.96 752.81,537.07 755.82,537.19 758.84,537.31 761.85,537.44 764.86,537.56 767.88,537.69 770.89,537.82 773.9,537.95 776.92,538.08 779.93,538.21 782.95,538.34 785.96,538.48 788.97,538.61 791.99,538.75 795,538.88 798.01,539.02 801.03,539.15 804.04,539.29 807.05,539.43 810.07,539.56 813.08,539.7 816.1,539.83 819.11,539.97 822.12,540.1 825.14,540.24 828.15,540.37 831.16,540.5 834.18,540.63 837.19,540.76 840.21,540.89 843.22,541.02 846.23,541.14 849.25,541.27 852.26,541.39 855.27,541.51 858.29,541.63 861.3,541.75 864.32,541.86 867.33,541.97 870.34,542.08 873.36,542.18 876.37,542.29 879.38,542.39 882.4,542.48 885.41,542.58 888.42,542.67 891.44,542.75 894.45,542.84 897.47,542.91 900.48,542.99 903.49,543.06 906.51,543.13 909.52,543.19 912.53,543.25 915.55,543.3 918.56,543.35 921.58,543.4 924.59,543.44 927.6,543.47 930.62,543.5 933.63,543.53 936.64,543.55 939.66,543.57 942.67,543.58 945.68,543.59" fill="none" stroke="#0000ff" stroke-width="1"/>
<polyline points="945.68,16.51 948.7,16.5 951.71,16.5 954.73,16.48 957.74,16.46 960.75,16.44 963.77,16.41 966.78,16.37 969.79,16.33 972.81,16.29 975.82,16.24 978.84,16.18 981.85,16.12 984.86,16.05 987.88,15.97 990.89,15.89 993.9,15.81 996.92,15.72 999.93,15.62 1002.95,15.52 1005.96,15.42 1008.97,15.31 1011.99,15.2 1015,15.08 1018.01,14.95 1021.03,14.82 1024.04,14.69 1027.05,14.55 1030.07,14.41 1033.08,14.27 1036.1,14.12 1039.11,13.97 1042.12,13.81 1045.14,13.65 1048.15,13.49 1051.16,13.32 1054.18,13.15 1057.19,12.98 1060.21,12.81 1063.22,12.63 1066.23,12.45 1069.25,12.27 1072.26,12.08 1075.27,11.9 1078.29,11.71 1081.3,11.52 1084.32,11.34 1087.33,11.15 1090.34,10.96 1093.36,10.77 1096.37,10.57 1099.38,10.38 1102.4,10.19 1105.41,10.01" fill="none" stroke="#0000ff" stroke-width="1"/>
<polyline points="1111.44,559.82 1114.45,559.63 1117.47,559.44 1120.48,559.26 1123.49,559.08" fill="none" stroke="#0000ff" stroke-width="1"/>
<polyline points="26.51,283.77 29.52,283.59 32.53,283.41 35.55,283.24 38.56,283.07 41.58,282.9 44.59,282.74 47.6,282.58 50.62,282.42 53.63,282.27 56.64,282.12 59.66,281.97 62.67,281.83 65.68,281.7 68.7,281.56 71.71,281.44 74.73,281.31 77.74,281.19 80.75,281.08 83.77,280.97 86.78,280.86 89.79,280.76 92.81,280.66 95.82,280.57 98.84,280.49 101.85,280.4 104.86,280.33 107.88,280.26 110.89,280.19 113.9,280.13 116.92,280.08 119.93,280.03 122.95,279.98 125.96,279.94 128.97,279.91 131.99,279.88 135,279.85 138.01,279.84 141.03,279.82 144.04,279.81 147.05,279.81 150.07,279.81 153.08,279.82 156.1,279.83 159.11,279.85 162.12,279.87 165.14,279.89 168.15,279.92 171.16,279.95 174.18,279.99 177.19,280.03 180.21,280.08 183.22,280.13 186.23,280.18 189.25,280.24 192.26,280.3 195.27,280.36 198.29,280.43 201.3,280.5 204.32,280.58 207.33,280.66 210.34,280.74 213.36,280.82 216.37,280.91 219.38,281 222.4,281.09 225.41,281.18" fill="none" stroke="#ff0000" stroke-width="1"/>
<polyline points="228.42,258.36 231.44,258.46 234.45,258.56 237.47,258.66 240.48,258.77 243.49,258.88 246.51,258.98 249.52,259.09 252.53,259.2 255.55,259.32 258.56,259.43 261.58,259.54 264.59,259.65 267.6,259.77 270.62,259.88 273.63,260 276.64,260.11 279.66,260.23 282.67,260.34 285.68,260.46 288.7,260.57 291.71,260.69 294.73,260.8 297.74,260.91 300.75,261.02 303.77,261.14 306.78,261.25 309.79,261.36 312.81,261.46 315.82,261.57 318.84,261.68 321.85,261.78 324.86,261.88 327.88,261.98 330.89,262.08 333.9,262.18 336.92,262.27 339.93,262.36 342.95,262.45 345.96,262.54 348.97,262.63 351.99,262.71 355,262.79 358.01,262.86 361.03,262.94 364.04,263.01 367.05,263.07 370.07,263.14 373.08,263.2 376.1,263.26 379.11,263.31 382.12,263.36 385.14,263.41 388.15,263.45 391.16,263.49 394.18,263.53 397.19,263.57 400.21,263.6 403.22,263.62 406.23,263.65 409.25,263.67 412.26,263.69 415.27,263.7 418.29,263.71 421.3,263.71 424.32,263.72 427.33,263.72 430.34,263.71 433.36,263.7 436.37,263.69 439.38,263.67 442.4,263.65 445.41,263.63 448.42,263.6 451.44,263.57 454.45,263.54 457.47,263.5 460.48,263.46 463.49,263.42 466.51,263.37 469.52,263.32 472.53,263.27 475.55,263.22 478.56,263.16 481.58,263.1 484.59,263.04 487.6,262.98 490.62,262.91 493.63,262.84 496.64,262.77 499.66,262.7 502.67,262.63 505.68,262.55 508.7,262.47 511.71,262.4 514.73,262.32 517.74,262.24 520.75,262.16 523.77,262.08 526.78,261.99 529.79,261.91 532.81,261.83 535.82,261.74 538.84,261.66 541.85,261.58 544.86,261.49 547.88,261.41 550.89,261.33 553.9,261.25 556.92,261.16 559.93,261.08 562.95,261.01 565.96,260.93 568.97,260.85 571.99,260.78 575,260.71 578.01,260.64 581.03,260.57 584.04,260.51 587.05,260.44 590.07,260.38 593.08,260.32 596.1,260.27 599.11,260.22 602.12,260.17 605.14,260.12 608.15,260.08 611.16,260.04 614.18,260 617.19,259.96 620.21,259.93 623.22,259.9 626.23,259.88 629.25,259.86 632.26,259.84 635.27,259.83 638.29,259.82 641.3,259.81 644.32,259.81 647.33,259.81 650.34,259.81 653.36,259.82 656.37,259.83 659.38,259.85 662.4,259.87 665.41,259.89 668.42,259.92 671.44,259.96 674.45,259.99 677.47,260.03 680.48,260.08 683.49,260.12 686.51,260.18 689.52,260.23 692.53,260.29 695.55,260.35 698.56,260.42 701.58,260.49 704.59,260.56 707.6,260.64 710.62,260.72 713.63,260.8 716.64,260.89 719.66,260.98 722.67,261.07 725.68,261.16 728.7,261.26 731.71,261.36 734.73,261.46 737.74,261.57 740.75,261.68 743.77,261.79 746.78,261.9 749.79,262.02 752.81,262.13 755.82,262.25 758.84,262.38 761.85,262.5 764.86,262.63 767.88,262.75 770.89,262.88 773.9,263.01 776.92,263.14 779.93,263.27 782.95,263.41 785.96,263.54 788.97,263.68 791.99,263.81 795,263.95 798.01,264.09 801.03,264.22 804.04,264.36 807.05,264.49 810.07,264.63 813.08,264.77 816.1,264.9 819.11,265.04 822.12,265.17 825.14,265.3 828.15,265.44 831.16,265.57 834.18,265.7 837.19,265.83 840.21,265.95 843.22,266.08 846.23,266.21 849.25,266.33 852.26,266.45 855.27,266.57 858.29,266.69 861.3,266.8 864.32,266.91 867.33,267.02 870.34,267.13 873.36,267.24 876.37,267.34 879.38,267.44 882.4,267.53 885.41,267.62 888.42,267.71 891.44,267.8 894.45,267.88 897.47,267.95 900.48,268.03 903.49,268.09 906.51,268.16 909.52,268.22 912.53,268.28 915.55,268.33 918.56,268.37 921.58,268.42 924.59,268.46 927.6,268.49 930.62,268.52 933.63,268.54 936.64,268.56 939.66,268.58 942.67,268.59" fill="none" stroke="#ff0000" stroke-width="1"/>
<polyline points="945.68,291.51 948.7,291.51 951.71,291.5 954.73,291.49 957.74,291.47 960.75,291.45 963.77,291.43 966.78,291.39 969.79,291.35 972.81,291.31 975.82,291.26 978.84,291.21 981.85,291.15 984.86,291.08 987.88,291.01 990.89,290.93 993.9,290.85 996.92,290.76 999.93,290.67 1002.95,290.58 1005.96,290.47 1008.97,290.37 1011.99,290.25 1015,290.14 1018.01,290.01 1021.03,289.89 1024.04,289.76 1027.05,289.62 1030.07,289.48 1033.08,289.34 1036.1,289.19 1039.11,289.04 1042.12,288.89 1045.14,288.73 1048.15,288.57 1051.16,288.41 1054.18,288.24 1057.19,288.07 1060.21,287.89 1063.22,287.72 1066.23,287.54 1069.25,287.36 1072.26,287.18 1075.27,286.99 1078.29,286.81 1081.3,286.62 1084.32,286.43 1087.33,286.24 1090.34,286.05 1093.36,285.86 1096.37,285.67 1099.38,285.48 1102.4,285.29 1105.41,285.1 1108.42,284.91 1111.44,284.72 1114.45,284.54 1117.47,284.35 1120.48,284.17 1123.49,283.99" fill="none" stroke="#ff0000" stroke-width="1"/>
<line x1="261.58" y1="10" x2="261.58" y2="560" stroke="#00c000" stroke-width="1"/>
<line x1="538.84" y1="10" x2="538.84" y2="560" stroke="#00c000" stroke-width="1"/>
<line x1="822.12" y1="10" x2="822.12" y2="560" stroke="#00c000" stroke-width="1"/>
<line x1="1093.36" y1="10" x2="1093.36" y2="560" stroke="#00c000" stroke-width="1"/>
<text x="20" y="560" font-family="Arial" font-size="11pt" text-anchor="end" alignment-baseline="middle" fill="#000000">0</text>
<line x1="25" y1="560" x2="1125" y2="560" stroke="#808080" stroke-width="0.5"/>
<text x="20" y="514.17" font-family="Arial" font-size="11pt" text-anchor="end" alignment-baseline="middle" fill="#000000">2</text>
<line x1="25" y1="514.17" x2="1125" y2="514.17" stroke="#808080" stroke-width="0.5"/>
<text x="20" y="468.33" font-family="Arial" font-size="11pt" text-anchor="end" alignment-baseline="middle" fill="#000000">4</text>
<line x1="25" y1="468.33" x2="1125" y2="468.33" stroke="#808080" stroke-width="0.5"/>
<text x="20" y="422.5" font-family="Arial" font-size="11pt" text-anchor="end" alignment-baseline="middle" fill="#000000">6</text>
<line x1="25" y1="422.5" x2="1125" y2="422.5" stroke="#808080" stroke-width="0.5"/>
<text x="20" y="376.67" font-family="Arial" font-size="11pt" text-anchor="end" alignment-baseline="middle" fill="#000000">8</text>
<line x1="25" y1="376.67" x2="1125" y2="376.67" stroke="#808080" stroke-width="0.5"/>
<text x="20" y="330.83" font-family="Arial" font-size="11pt" text-anchor="end" alignment-baseline="middle" fill="#000000">10</text>
<line x1="25" y1="330.83" x2="1125" y2="330.83" stroke="#808080" stroke-width="0.5"/>
<text x="20" y="285" font-family="Arial" font-size="11pt" text-anchor="end" alignment-baseline="middle" fill="#000000">12</text>
<line x1="25" y1="285" x2="1125" y2="285" stroke="#808080" stroke-width="0.5"/>
<text x="20" y="239.17" font-family="Arial" font-size="11pt" text-anchor="end" alignment-baseline="middle" fill="#000000">14</text>
<line x1="25" y1="239.17" x2="1125" y2="239.17" stroke="#808080" stroke-width="0.5"/>
<text x="20" y="193.33" font-family="Arial" font-size="11pt" text-anchor="end" alignment-baseline="middle" fill="#000000">16</text>
<line x1="25" y1="193.33" x2="1125" y2="193.33" stroke="#808080" stroke-width="0.5"/>
<text x="20" y="147.5" font-family="Arial" font-size="11pt" text-anchor="end" alignment-baseline="middle" fill="#000000">18</text>
<line x1="25" y1="147.5" x2="1125" y2="147.5" stroke="#808080" stroke-width="0.5"/>
<text x="20" y="101.67" font-family="Arial" font-size="11pt" text-anchor="end" alignment-baseline="middle" fill="#000000">20</text>
<line x1="25" y1="101.67" x2="1125" y2="101.67" stroke="#808080" stroke-width="0.5"/>
<text x="20" y="55.83" font-family="Arial" font-size="11pt" text-anchor="end" alignment-baseline="middle" fill="#000000">22</text>
<line x1="25" y1="55.83" x2="1125" y2="55.83" stroke="#808080" stroke-width="0.5"/>
<text x="20" y="10" font-family="Arial" font-size="11pt" text-anchor="end" alignment-baseline="middle" fill="#000000">24</text>
<line x1="25" y1="10" x2="1125" y2="10" stroke="#808080" stroke-width="0.5"/>
<text x="71.71" y="572" font-family="Arial" font-size="11pt" text-anchor="middle" alignment-baseline="middle" fill="#000000">Jan</text>
<line x1="25" y1="10" x2="25" y2="560" stroke="#808080" stroke-width="0.5"/>
<text x="160.62" y="572" font-family="Arial" font-size="11pt" text-anchor="middle" alignment-baseline="middle" fill="#000000">Feb</text>
<line x1="118.42" y1="10" x2="118.42" y2="560" stroke="#808080" stroke-width="0.5"/>
<text x="249.52" y="572" font-family="Arial" font-size="11pt" text-anchor="middle" alignment-baseline="middle" fill="#000000">Mar</text>
<line x1="202.81" y1="10" x2="202.81" y2="560" stroke="#808080" stroke-width="0.5"/>
<text x="341.44" y="572" font-family="Arial" font-size="11pt" text-anchor="middle" alignment-baseline="middle" fill="#000000">Apr</text>
<line x1="296.23" y1="10" x2="296.23" y2="560" stroke="#808080" stroke-width="0.5"/>
<text x="433.36" y="572" font-family="Arial" font-size="11pt" text-anchor="middle" alignment-baseline="middle" fill="#000000">May</text>
<line x1="386.64" y1="10" x2="386.64" y2="560" stroke="#808080" stroke-width="0.5"/>
<text x="525.27" y="572" font-family="Arial" font-size="11pt" text-anchor="middle" alignment-baseline="middle" fill="#000000">Jun</text>
<line x1="480.07" y1="10" x2="480.07" y2="560" stroke="#808080" stroke-width="0.5"/>
<text x="617.19" y="572" font-family="Arial" font-size="11pt" text-anchor="middle" alignment-baseline="middle" fill="#000000">Jul</text>
<line x1="570.48" y1="10" x2="570.48" y2="560" stroke="#808080" stroke-width="0.5"/>
<text x="710.62" y="572" font-family="Arial" font-size="11pt" text-anchor="middle" alignment-baseline="middle" fill="#000000">Aug</text>
<line x1="663.9" y1="10" x2="663.9" y2="560" stroke="#808080" stroke-width="0.5"/>
<text x="802.53" y="572" font-family="Arial" font-size="11pt" text-anchor="middle" alignment-baseline="middle" fill="#000000">Sep</text>
<line x1="757.33" y1="10" x2="757.33" y2="560" stroke="#808080" stroke-width="0.5"/>
<text x="894.45" y="572" font-family="Arial" font-size="11pt" text-anchor="middle" alignment-baseline="middle" fill="#000000">Oct</text>
<line x1="847.74" y1="10" x2="847.74" y2="560" stroke="#808080" stroke-width="0.5"/>
<text x="986.37" y="572" font-family="Arial" font-size="11pt" text-anchor="middle" alignment-baseline="middle" fill="#000000">Nov</text>
<line x1="941.16" y1="10" x2="941.16" y2="560" stroke="#808080" stroke-width="0.5"/>
<text x="1078.29" y="572" font-family="Arial" font-size="11pt" text-anchor="middle" alignment-baseline="middle" fill="#000000">Dec</text>
<line x1="1031.58" y1="10" x2="1031.58" y2="560" stroke="#808080" stroke-width="0.5"/>
<line x1="1125" y1="10" x2="1125" y2="560" stroke="#808080" stroke-width="0.5"/>
</svg>